<svg width="16" height="16" viewBox="0 0 16 16" fill="none" xmlns="http://www.w3.org/2000/svg">
<g clip-path="url(#clip0_2523_20260)">
<rect width="16" height="16" rx="4" fill="white" fill-opacity="0.08"/>
<path d="M6.24622 10.7111L6.12524 10.7809L6.12534 10.6412C6.12534 10.6412 6.12364 10.7126 6.15588 10.7305C6.18744 10.748 6.24622 10.7111 6.24622 10.7111Z" fill="#8E3315"/>
<path d="M3.14709 10.5672C3.82768 11.8542 4.99175 12.818 6.38315 13.2468C7.77457 13.6756 9.27934 13.5341 10.5665 12.8535C11.8536 12.1728 12.8177 11.0088 13.2466 9.61741C13.6755 8.22604 13.5312 6.72126 12.8506 5.4342C13.4643 7.36846 11.3276 8.04798 11.3276 8.04798L8.74152 9.39957L6.05386 10.8013C6.05386 10.8013 4.22211 11.9806 3.14709 10.5672Z" fill="#473ADE"/>
<path d="M3.13745 10.5767C3.81804 11.8638 4.98208 12.8277 6.3735 13.2565C7.7649 13.6853 9.2697 13.5438 10.5569 12.8632C11.844 12.1826 12.8081 11.0185 13.237 9.62712C13.6659 8.23575 13.5244 6.731 12.8438 5.44394C13.4576 7.3782 11.3179 8.05766 11.3179 8.05766L8.73187 9.40926L6.04421 10.811C6.04421 10.811 4.21244 11.9901 3.13745 10.5767Z" fill="url(#paint0_linear_2523_20260)"/>
<path d="M11.2588 7.91382L11.4588 8.01105L11.2477 8.09577C11.2477 8.09577 11.3383 8.05298 11.3491 8.01105C11.3597 7.96997 11.2588 7.91382 11.2588 7.91382Z" fill="#251E73"/>
<path d="M12.8838 10.5098C13.5484 9.21445 13.6712 7.70808 13.2251 6.32212C12.779 4.93616 11.8006 3.78411 10.5052 3.11945C9.20969 2.45477 7.70327 2.33192 6.31726 2.77791C4.93126 3.22389 3.77923 4.20219 3.11462 5.49757C4.3479 3.88607 6.13102 5.24997 6.13102 5.24997L8.72076 6.59452L11.4098 7.99355C11.4098 7.99355 13.4259 8.81886 12.8838 10.5098Z" fill="#D71D6A"/>
<path d="M12.8706 10.5045C13.5332 9.21302 13.6556 7.71113 13.2109 6.3293C12.7661 4.94747 11.7906 3.79886 10.499 3.13618C9.20741 2.47347 7.70545 2.35098 6.32359 2.79566C4.94171 3.2403 3.79312 4.21567 3.13049 5.50721C4.3601 3.9005 6.1379 5.26035 6.1379 5.26035L8.71991 6.6009L11.401 7.99575C11.401 7.99575 13.411 8.8186 12.8706 10.5045Z" fill="url(#paint1_linear_2523_20260)"/>
<path d="M6.12605 5.38034L6.12378 5.23413L6.25154 5.30529C6.25154 5.30529 6.18705 5.26739 6.15432 5.2878C6.12225 5.3078 6.12605 5.38034 6.12605 5.38034Z" fill="#741039"/>
<path d="M7.99961 2.51282C6.54368 2.51282 5.14737 3.09121 4.11786 4.12079C3.08836 5.15037 2.51001 6.54675 2.51001 8.00278C2.51001 9.45883 3.08836 10.8552 4.11786 11.8848C5.14737 12.9144 6.54177 13.49 7.99771 13.49C6.12913 13.1763 6.13101 10.7581 6.13101 10.7581V8.00278V5.19869C6.13101 5.19869 6.13101 2.84726 7.99961 2.51282Z" fill="#FF5B25"/>
<path d="M7.99961 2.5C6.54368 2.5 5.14737 3.0784 4.11786 4.10797C3.08836 5.13753 2.51001 6.53393 2.51001 7.98996C2.51001 9.44599 3.08836 10.8424 4.11786 11.872C5.14737 12.9016 6.54177 13.4903 7.99771 13.4903C6.12913 12.8933 6.13101 10.7612 6.13101 10.7612V7.99676V5.24998C6.13101 5.24998 6.06304 2.85576 7.99961 2.5Z" fill="url(#paint2_linear_2523_20260)"/>
<path d="M7.99961 2.5C6.54368 2.5 5.14737 3.0784 4.11786 4.10797C3.08836 5.13753 2.51001 6.53393 2.51001 7.98996C2.51001 9.44599 3.08836 10.8424 4.11786 11.872C5.14737 12.9016 6.54177 13.4903 7.99771 13.4903C6.12913 12.8933 6.13101 10.7612 6.13101 10.7612V7.99676V5.24998C6.13101 5.24998 6.06304 2.85576 7.99961 2.5Z" fill="url(#paint3_linear_2523_20260)" fill-opacity="0.3"/>
<path d="M7.99768 13.4899C6.14351 12.6454 6.13318 10.7603 6.13318 10.7603C6.13318 10.7603 3.83505 12.0566 3.0614 10.3986C3.0614 10.3986 4.37085 13.5009 7.99768 13.4899Z" fill="#473ADE"/>
<g clip-path="url(#clip1_2523_20260)">
<path d="M16 0H0V16H16V0Z" fill="#FF4D00"/>
<path d="M4.53333 8.02773C4.53333 6.09781 6.08538 4.53333 7.99999 4.53333C9.91455 4.53333 11.4667 6.09781 11.4667 8.02773V11.4632C11.4648 9.55018 9.91343 7.99999 7.99999 7.99999C6.08543 7.99999 4.53333 9.55205 4.53333 11.4667L4.53333 8.02773Z" fill="white"/>
</g>
</g>
<defs>
<linearGradient id="paint0_linear_2523_20260" x1="12.8442" y1="7.37686" x2="4.85671" y2="15.2633" gradientUnits="userSpaceOnUse">
<stop stop-opacity="0.6"/>
<stop offset="0.655513" stop-opacity="0"/>
</linearGradient>
<linearGradient id="paint1_linear_2523_20260" x1="4.70949" y1="4.40234" x2="15.7171" y2="6.42184" gradientUnits="userSpaceOnUse">
<stop stop-opacity="0.6"/>
<stop offset="0.645833" stop-opacity="0"/>
</linearGradient>
<linearGradient id="paint2_linear_2523_20260" x1="5.44985" y1="12.7999" x2="2.18411" y2="2.74109" gradientUnits="userSpaceOnUse">
<stop stop-opacity="0.6"/>
<stop offset="0.675464" stop-opacity="0"/>
</linearGradient>
<linearGradient id="paint3_linear_2523_20260" x1="5.44985" y1="12.7999" x2="2.18411" y2="2.74109" gradientUnits="userSpaceOnUse">
<stop stop-opacity="0.6"/>
<stop offset="0.675464" stop-opacity="0"/>
</linearGradient>
<clipPath id="clip0_2523_20260">
<rect width="16" height="16" rx="4" fill="white"/>
</clipPath>
<clipPath id="clip1_2523_20260">
<rect width="16" height="16" fill="white"/>
</clipPath>
</defs>
</svg>
