<svg width="17" height="16" viewBox="0 0 17 16" fill="none" xmlns="http://www.w3.org/2000/svg">
<g clip-path="url(#clip0_2523_20260)">
<rect x="0.466675" width="16" height="16" rx="4" fill="white" fill-opacity="0.08"/>
<path d="M6.7129 10.7112L6.59192 10.7809L6.59201 10.6412C6.59201 10.6412 6.59032 10.7127 6.62255 10.7305C6.65412 10.748 6.7129 10.7112 6.7129 10.7112Z" fill="#8E3315"/>
<path d="M3.61377 10.5672C4.29436 11.8542 5.45842 12.818 6.84982 13.2468C8.24124 13.6756 9.74602 13.5341 11.0332 12.8535C12.3203 12.1728 13.2844 11.0088 13.7133 9.61741C14.1422 8.22604 13.9978 6.72126 13.3173 5.4342C13.931 7.36846 11.7943 8.04798 11.7943 8.04798L9.20819 9.39957L6.52053 10.8013C6.52053 10.8013 4.68878 11.9806 3.61377 10.5672Z" fill="#473ADE"/>
<path d="M3.60413 10.5767C4.28472 11.8638 5.44876 12.8278 6.84018 13.2566C8.23157 13.6854 9.73638 13.5439 11.0235 12.8632C12.3107 12.1826 13.2747 11.0185 13.7036 9.62715C14.1325 8.23578 13.9911 6.73103 13.3105 5.44397C13.9242 7.37823 11.7846 8.0577 11.7846 8.0577L9.19855 9.40929L6.51089 10.8111C6.51089 10.8111 4.67911 11.9901 3.60413 10.5767Z" fill="url(#paint0_linear_2523_20260)"/>
<path d="M11.7255 7.91382L11.9255 8.01105L11.7144 8.09577C11.7144 8.09577 11.8049 8.05298 11.8158 8.01105C11.8263 7.96997 11.7255 7.91382 11.7255 7.91382Z" fill="#251E73"/>
<path d="M13.3505 10.5099C14.0151 9.21448 14.1379 7.70811 13.6918 6.32215C13.2457 4.93619 12.2673 3.78414 10.9718 3.11948C9.67637 2.4548 8.16994 2.33195 6.78394 2.77794C5.39793 3.22392 4.24591 4.20222 3.5813 5.4976C4.81457 3.8861 6.5977 5.25 6.5977 5.25L9.18743 6.59455L11.8765 7.99358C11.8765 7.99358 13.8925 8.81889 13.3505 10.5099Z" fill="#D71D6A"/>
<path d="M13.3372 10.5045C13.9999 9.21302 14.1223 7.71113 13.6775 6.3293C13.2328 4.94747 12.2573 3.79886 10.9657 3.13618C9.67409 2.47347 8.17212 2.35098 6.79027 2.79566C5.40839 3.2403 4.2598 4.21567 3.59717 5.50721C4.82677 3.9005 6.60458 5.26035 6.60458 5.26035L9.18658 6.6009L11.8677 7.99575C11.8677 7.99575 13.8777 8.8186 13.3372 10.5045Z" fill="url(#paint1_linear_2523_20260)"/>
<path d="M6.59272 5.38034L6.59045 5.23413L6.71822 5.30529C6.71822 5.30529 6.65373 5.26739 6.62099 5.2878C6.58892 5.3078 6.59272 5.38034 6.59272 5.38034Z" fill="#741039"/>
<path d="M8.46629 2.51282C7.01036 2.51282 5.61405 3.09121 4.58454 4.12079C3.55503 5.15037 2.97668 6.54675 2.97668 8.00278C2.97668 9.45883 3.55503 10.8552 4.58454 11.8848C5.61405 12.9144 7.00845 13.49 8.46438 13.49C6.5958 13.1763 6.59769 10.7581 6.59769 10.7581V8.00278V5.19869C6.59769 5.19869 6.59769 2.84726 8.46629 2.51282Z" fill="#FF5B25"/>
<path d="M8.46629 2.5C7.01036 2.5 5.61405 3.0784 4.58454 4.10797C3.55503 5.13753 2.97668 6.53393 2.97668 7.98996C2.97668 9.44599 3.55503 10.8424 4.58454 11.872C5.61405 12.9016 7.00845 13.4903 8.46438 13.4903C6.5958 12.8933 6.59769 10.7612 6.59769 10.7612V7.99676V5.24998C6.59769 5.24998 6.52972 2.85576 8.46629 2.5Z" fill="url(#paint2_linear_2523_20260)"/>
<path d="M8.46629 2.5C7.01036 2.5 5.61405 3.0784 4.58454 4.10797C3.55503 5.13753 2.97668 6.53393 2.97668 7.98996C2.97668 9.44599 3.55503 10.8424 4.58454 11.872C5.61405 12.9016 7.00845 13.4903 8.46438 13.4903C6.5958 12.8933 6.59769 10.7612 6.59769 10.7612V7.99676V5.24998C6.59769 5.24998 6.52972 2.85576 8.46629 2.5Z" fill="url(#paint3_linear_2523_20260)" fill-opacity="0.3"/>
<path d="M8.46435 13.4899C6.61018 12.6454 6.59985 10.7603 6.59985 10.7603C6.59985 10.7603 4.30173 12.0566 3.52808 10.3986C3.52808 10.3986 4.83753 13.5009 8.46435 13.4899Z" fill="#473ADE"/>
<g clip-path="url(#clip1_2523_20260)">
<path d="M16.4667 0H0.466675V16H16.4667V0Z" fill="#FF4D00"/>
<path d="M5 8.02773C5 6.09781 6.55205 4.53333 8.46667 4.53333C10.3812 4.53333 11.9333 6.09781 11.9333 8.02773V11.4632C11.9315 9.55018 10.3801 7.99999 8.46667 7.99999C6.55211 7.99999 5.00001 9.55205 5.00001 11.4667L5 8.02773Z" fill="white"/>
</g>
</g>
<defs>
<linearGradient id="paint0_linear_2523_20260" x1="13.3109" y1="7.37689" x2="5.32338" y2="15.2633" gradientUnits="userSpaceOnUse">
<stop stop-opacity="0.6"/>
<stop offset="0.655513" stop-opacity="0"/>
</linearGradient>
<linearGradient id="paint1_linear_2523_20260" x1="5.17616" y1="4.40234" x2="16.1838" y2="6.42184" gradientUnits="userSpaceOnUse">
<stop stop-opacity="0.6"/>
<stop offset="0.645833" stop-opacity="0"/>
</linearGradient>
<linearGradient id="paint2_linear_2523_20260" x1="5.91653" y1="12.7999" x2="2.65078" y2="2.74109" gradientUnits="userSpaceOnUse">
<stop stop-opacity="0.6"/>
<stop offset="0.675464" stop-opacity="0"/>
</linearGradient>
<linearGradient id="paint3_linear_2523_20260" x1="5.91653" y1="12.7999" x2="2.65078" y2="2.74109" gradientUnits="userSpaceOnUse">
<stop stop-opacity="0.6"/>
<stop offset="0.675464" stop-opacity="0"/>
</linearGradient>
<clipPath id="clip0_2523_20260">
<rect x="0.466675" width="16" height="16" rx="4" fill="white"/>
</clipPath>
<clipPath id="clip1_2523_20260">
<rect width="16" height="16" fill="white" transform="translate(0.466675)"/>
</clipPath>
</defs>
</svg>
