<svg width="17" height="16" viewBox="0 0 17 16" fill="none" xmlns="http://www.w3.org/2000/svg">
<g clip-path="url(#clip0_1738_8730)">
<rect x="0.466675" width="16" height="16" rx="4" fill="#F9BC2C"/>
<g opacity="0.95">
<path d="M7.80001 4.67001H4.46667C4.20146 4.67001 3.94711 4.77537 3.75956 4.9629C3.57203 5.15045 3.46667 5.4048 3.46667 5.67001V10.3367C3.46705 10.5483 3.53459 10.7544 3.65954 10.9252C3.7845 11.0961 3.96043 11.2229 4.16202 11.2873C4.36362 11.3518 4.58047 11.3507 4.78138 11.2841C4.98229 11.2175 5.15686 11.0888 5.28001 10.9167L8.61334 6.25001C8.71978 6.10054 8.78302 5.92465 8.79616 5.74162C8.8093 5.55859 8.77182 5.37548 8.68784 5.21232C8.60385 5.04917 8.4766 4.91228 8.32 4.81662C8.16341 4.72097 7.98351 4.67025 7.80001 4.67001ZM5.13334 7.00335C5.00149 7.00335 4.8726 6.96425 4.76296 6.89099C4.65333 6.81774 4.56787 6.71362 4.51742 6.5918C4.46696 6.46998 4.45376 6.33594 4.47949 6.20662C4.50521 6.0773 4.5687 5.95851 4.66194 5.86528C4.75517 5.77204 4.87396 5.70855 5.00329 5.68282C5.1326 5.6571 5.26664 5.6703 5.38846 5.72076C5.51029 5.77121 5.6144 5.85667 5.68765 5.9663C5.76091 6.07594 5.80001 6.20482 5.80001 6.33668C5.80001 6.51349 5.72978 6.68306 5.60474 6.80808C5.47972 6.93311 5.31015 7.00335 5.13334 7.00335Z" fill="#0D0A03"/>
<path d="M10.3 11.0033C10.7602 11.0033 11.1333 10.6302 11.1333 10.17C11.1333 9.70978 10.7602 9.33668 10.3 9.33668C9.83978 9.33668 9.46668 9.70978 9.46668 10.17C9.46668 10.6302 9.83978 11.0033 10.3 11.0033Z" fill="#0D0A03"/>
<path d="M13.4667 5.67001V10.3367C13.467 10.5862 13.3741 10.8269 13.2061 11.0114C13.0381 11.1959 12.8072 11.311 12.5587 11.334C12.3102 11.3569 12.0621 11.2862 11.8632 11.1356C11.6642 10.985 11.5287 10.7654 11.4833 10.52C11.4727 10.4595 11.4671 10.3981 11.4667 10.3367V9.57668C11.4649 9.36559 11.3964 9.16048 11.2709 8.99071C11.1454 8.82096 10.9694 8.69526 10.7682 8.63161C10.5669 8.56798 10.3506 8.56967 10.1504 8.63644C9.95012 8.70321 9.77613 8.83165 9.65333 9.00335L8.29666 10.9067C8.13708 11.1096 7.90524 11.2429 7.64962 11.2788C7.39398 11.3147 7.13439 11.2503 6.92513 11.0992C6.71587 10.948 6.57316 10.7218 6.52685 10.4679C6.48054 10.214 6.53422 9.95195 6.67666 9.73668L10.01 5.07001C10.1021 4.94716 10.2213 4.84717 10.3583 4.7778C10.4953 4.70844 10.6464 4.67156 10.8 4.67001H12.4667C12.7319 4.67001 12.9862 4.77537 13.1738 4.9629C13.3613 5.15045 13.4667 5.4048 13.4667 5.67001Z" fill="#FFFDFA"/>
</g>
</g>
<defs>
<clipPath id="clip0_1738_8730">
<rect x="0.466675" width="16" height="16" rx="4" fill="white"/>
</clipPath>
</defs>
</svg>
