<svg width="16" height="16" viewBox="0 0 16 16" fill="none" xmlns="http://www.w3.org/2000/svg">
<g clip-path="url(#clip0_1738_8730)">
<rect width="16" height="16" rx="4" fill="#F9BC2C"/>
<g opacity="0.95">
<path d="M7.33333 4.67H4C3.73479 4.67 3.48043 4.77535 3.29289 4.96289C3.10536 5.15043 3 5.40479 3 5.67V10.3367C3.00038 10.5483 3.06791 10.7544 3.19287 10.9252C3.31782 11.0961 3.49376 11.2229 3.69534 11.2873C3.89694 11.3518 4.1138 11.3507 4.3147 11.2841C4.51561 11.2175 4.69019 11.0888 4.81333 10.9167L8.14667 6.25C8.2531 6.10052 8.31635 5.92463 8.32949 5.74161C8.34262 5.55858 8.30515 5.37546 8.22117 5.21231C8.13718 5.04915 8.00992 4.91226 7.85332 4.81661C7.69673 4.72095 7.51683 4.67023 7.33333 4.67ZM4.66667 7.00333C4.53481 7.00333 4.40592 6.96423 4.29629 6.89098C4.18666 6.81772 4.1012 6.71361 4.05074 6.59179C4.00029 6.46996 3.98709 6.33592 4.01281 6.20661C4.03853 6.07729 4.10202 5.9585 4.19527 5.86527C4.2885 5.77202 4.40729 5.70853 4.53661 5.68281C4.66592 5.65709 4.79997 5.67029 4.92179 5.72074C5.04361 5.7712 5.14772 5.85665 5.22098 5.96629C5.29423 6.07592 5.33333 6.20481 5.33333 6.33666C5.33333 6.51348 5.2631 6.68304 5.13807 6.80806C5.01304 6.9331 4.84348 7.00333 4.66667 7.00333Z" fill="#0D0A03"/>
<path d="M9.83333 11.0033C10.2936 11.0033 10.6667 10.6302 10.6667 10.17C10.6667 9.70977 10.2936 9.33667 9.83333 9.33667C9.3731 9.33667 9 9.70977 9 10.17C9 10.6302 9.3731 11.0033 9.83333 11.0033Z" fill="#0D0A03"/>
<path d="M13 5.67V10.3367C13.0003 10.5862 12.9074 10.8269 12.7394 11.0114C12.5714 11.1959 12.3406 11.311 12.092 11.3339C11.8435 11.3569 11.5955 11.2862 11.3965 11.1355C11.1975 10.9849 11.062 10.7654 11.0167 10.52C11.006 10.4595 11.0004 10.3981 11 10.3367V9.57667C10.9982 9.36558 10.9297 9.16047 10.8042 8.9907C10.6787 8.82094 10.5028 8.69524 10.3015 8.6316C10.1002 8.56797 9.88396 8.56965 9.6837 8.63642C9.48344 8.7032 9.30945 8.83163 9.18665 9.00333L7.82999 10.9067C7.67041 11.1096 7.43856 11.2429 7.18294 11.2788C6.92731 11.3147 6.66772 11.2503 6.45845 11.0992C6.2492 10.948 6.10649 10.7218 6.06018 10.4679C6.01386 10.214 6.06754 9.95193 6.20999 9.73667L9.54332 5.07C9.63544 4.94714 9.75463 4.84715 9.89163 4.77779C10.0286 4.70842 10.1798 4.67154 10.3333 4.67H12C12.2652 4.67 12.5196 4.77535 12.7071 4.96289C12.8947 5.15043 13 5.40479 13 5.67Z" fill="#FFFDFA"/>
</g>
</g>
<defs>
<clipPath id="clip0_1738_8730">
<rect width="16" height="16" rx="4" fill="white"/>
</clipPath>
</defs>
</svg>
