<svg width="17" height="16" viewBox="0 0 17 16" fill="none" xmlns="http://www.w3.org/2000/svg">
<g clip-path="url(#clip0_1615_246080)">
<rect x="0.533203" width="16" height="16" rx="4" fill="#E84142"/>
<path d="M16.5332 8C16.5332 12.4183 12.9515 16 8.5332 16C4.11493 16 0.533203 12.4183 0.533203 8C0.533203 3.58172 4.11493 0 8.5332 0C12.9515 0 16.5332 3.58172 16.5332 8Z" fill="#E84142"/>
<path fill-rule="evenodd" clip-rule="evenodd" d="M8.89924 3.94118C8.68734 3.57516 8.35021 3.57516 8.13831 3.94118L4.29031 10.7173C4.0784 11.0882 4.25178 11.3819 4.67559 11.3819H6.60682C6.99691 11.3579 7.34848 11.1508 7.56039 10.8233L9.88653 6.79226C10.0551 6.44551 10.0551 6.03615 9.88653 5.6894L9.19302 4.47094L8.89924 3.94118ZM11.4565 8.40089C11.2446 8.03487 10.9026 8.03487 10.6907 8.40089L9.34707 10.7174C9.13998 11.0834 9.31335 11.382 9.73235 11.382H12.3908C12.8146 11.382 12.988 11.0834 12.7761 10.7174L11.4565 8.40089Z" fill="white"/>
</g>
<defs>
<clipPath id="clip0_1615_246080">
<path d="M0.533203 8C0.533203 4.22876 0.533203 2.34315 1.70478 1.17157C2.87635 0 4.76197 0 8.5332 0C12.3044 0 14.1901 0 15.3616 1.17157C16.5332 2.34315 16.5332 4.22876 16.5332 8C16.5332 11.7712 16.5332 13.6569 15.3616 14.8284C14.1901 16 12.3044 16 8.5332 16C4.76197 16 2.87635 16 1.70478 14.8284C0.533203 13.6569 0.533203 11.7712 0.533203 8Z" fill="white"/>
</clipPath>
</defs>
</svg>
