<svg width="16" height="16" viewBox="0 0 16 16" fill="none" xmlns="http://www.w3.org/2000/svg">
<g clip-path="url(#clip0_1677_1866)">
<rect width="16" height="16" rx="4" fill="black"/>
<path d="M11.6534 4.15799L8.5833 7.21045C8.42247 7.37038 8.2117 7.45027 8.00095 7.45027C7.7902 7.45027 7.57942 7.37035 7.41862 7.21045L4.34852 4.15799L5.5132 3L8.00095 5.47345L10.4887 3L11.6534 4.15799Z" fill="white"/>
<path d="M10.5399 7.9979L13.0277 10.4713L11.863 11.6293L8.79292 8.57688C8.47132 8.2571 8.47132 7.73868 8.79292 7.4189L11.863 4.36641L13.0277 5.5244L10.5399 7.9979Z" fill="white"/>
<path d="M10.4844 13L7.9967 10.5265L5.50892 13L4.34427 11.842L7.41435 8.78955C7.73595 8.4698 8.25737 8.4698 8.57902 8.78955L11.6491 11.842L10.4844 13Z" fill="white"/>
<path d="M7.44595 8.00212C7.44595 8.2193 7.35917 8.42758 7.20472 8.58113L4.13465 11.6336L2.96997 10.4756L5.45775 8.0021L2.96997 5.52868L4.13465 4.37068L7.20472 7.42315C7.35917 7.5767 7.44595 7.78498 7.44595 8.00212Z" fill="white"/>
</g>
<defs>
<clipPath id="clip0_1677_1866">
<rect width="16" height="16" rx="4" fill="white"/>
</clipPath>
</defs>
</svg>
