<svg width="17" height="16" viewBox="0 0 17 16" fill="none" xmlns="http://www.w3.org/2000/svg">
<g clip-path="url(#clip0_1677_1866)">
<rect x="0.466675" width="16" height="16" rx="4" fill="black"/>
<path d="M12.12 4.15799L9.04997 7.21045C8.88915 7.37038 8.67837 7.45027 8.46762 7.45027C8.25687 7.45027 8.0461 7.37035 7.8853 7.21045L4.8152 4.15799L5.97987 3L8.46762 5.47345L10.9554 3L12.12 4.15799Z" fill="white"/>
<path d="M11.0066 7.9979L13.4944 10.4713L12.3297 11.6293L9.2596 8.57688C8.938 8.2571 8.938 7.73868 9.2596 7.4189L12.3297 4.36641L13.4944 5.5244L11.0066 7.9979Z" fill="white"/>
<path d="M10.9511 13L8.46337 10.5265L5.9756 13L4.81095 11.842L7.88102 8.78955C8.20262 8.4698 8.72405 8.4698 9.0457 8.78955L12.1158 11.842L10.9511 13Z" fill="white"/>
<path d="M7.91262 8.00212C7.91262 8.2193 7.82585 8.42758 7.6714 8.58113L4.60132 11.6336L3.43665 10.4756L5.92442 8.0021L3.43665 5.52868L4.60132 4.37068L7.6714 7.42315C7.82585 7.5767 7.91262 7.78498 7.91262 8.00212Z" fill="white"/>
</g>
<defs>
<clipPath id="clip0_1677_1866">
<rect x="0.466675" width="16" height="16" rx="4" fill="white"/>
</clipPath>
</defs>
</svg>
