<svg width="16" height="16" xmlns="http://www.w3.org/2000/svg" fill="none">
 <defs>
  <clipPath id="clip0_538_129719">
   <path id="svg_1" fill="white" d="m0.5332,8c0,-3.77124 0,-5.65685 1.17158,-6.82843c1.17157,-1.17157 3.05719,-1.17157 6.82842,-1.17157c3.7712,0 5.6569,0 6.8284,1.17157c1.1716,1.17158 1.1716,3.05719 1.1716,6.82843c0,3.7712 0,5.6569 -1.1716,6.8284c-1.1715,1.1716 -3.0572,1.1716 -6.8284,1.1716c-3.77123,0 -5.65685,0 -6.82842,-1.1716c-1.17158,-1.1715 -1.17158,-3.0572 -1.17158,-6.8284z"/>
  </clipPath>
 </defs>
 <g>
  <title>Layer 1</title>
  <g id="svg_2" clip-path="url(#clip0_538_129719)">
   <rect y="0" id="svg_3" fill-opacity="0.08" fill="white" rx="4" height="16" width="16" x="0"/>
   <path id="svg_4" fill="white" d="m7.91438,3.45637c-2.0287,0 -3.74683,1.32996 -4.33027,3.16563l-1.08411,0c0.61354,-2.41889 2.80501,-4.20843 5.41438,-4.20843c3.08482,0 5.58562,2.50113 5.58562,5.58646c0,3.08527 -2.5008,5.58637 -5.58558,5.58637c-2.59595,0 -4.7783,-1.7712 -5.40484,-4.17117l1.0865,0c0.54285,1.65787 2.01354,2.89547 3.79814,3.09887l0,-1.4306c-1.47981,-0.2478 -2.60747,-1.534 -2.60747,-3.08351c0,-1.72675 1.40049,-3.1266 3.12809,-3.1266c1.23312,0 2.29956,0.71319 2.80906,1.74945l-1.2436,0c-0.38221,-0.43367 -0.94189,-0.70722 -1.56546,-0.70722c-1.15172,0 -2.08541,0.93319 -2.08541,2.08437c0,1.15123 0.93369,2.08441 2.08541,2.08441c0.60555,0 1.1508,-0.25793 1.53179,-0.66997l1.25867,0c-0.4405,0.86637 -1.27292,1.50017 -2.26395,1.66807l0,1.4309c2.26075,-0.2612 4.01595,-2.1823 4.01595,-4.51337c0,-2.50937 -2.0339,-4.54366 -4.54292,-4.54366z"/>
   <path id="svg_5" fill="#FF7C2B" d="m9.05811,7.99756c0,0.63289 -0.51305,1.14594 -1.14594,1.14594c-0.63288,0 -1.14594,-0.51305 -1.14594,-1.14594c0,-0.63288 0.51306,-1.14594 1.14594,-1.14594c0.63289,0 1.14594,0.51306 1.14594,1.14594z"/>
  </g>
 </g>
</svg>