<?xml version="1.0" encoding="UTF-8" standalone="no"?>
<svg
   width="16"
   height="16"
   viewBox="0 0 16 16"
   fill="none"
   version="1.1"
   id="svg3"
   sodipodi:docname="babylon.svg"
   inkscape:version="1.3.2 (091e20ef0f, 2023-11-25)"
   xmlns:inkscape="http://www.inkscape.org/namespaces/inkscape"
   xmlns:sodipodi="http://sodipodi.sourceforge.net/DTD/sodipodi-0.dtd"
   xmlns="http://www.w3.org/2000/svg"
   xmlns:svg="http://www.w3.org/2000/svg">
  <sodipodi:namedview
     id="namedview3"
     pagecolor="#ffffff"
     bordercolor="#000000"
     borderopacity="0.25"
     inkscape:showpageshadow="2"
     inkscape:pageopacity="0.0"
     inkscape:pagecheckerboard="0"
     inkscape:deskcolor="#d1d1d1"
     showgrid="false"
     inkscape:zoom="50.8125"
     inkscape:cx="8.501845"
     inkscape:cy="8"
     inkscape:window-width="1920"
     inkscape:window-height="1011"
     inkscape:window-x="0"
     inkscape:window-y="32"
     inkscape:window-maximized="1"
     inkscape:current-layer="g2" />
  <g
     clip-path="url(#clip0_538_129719)"
     id="g2"
     transform="matrix(1.030613,0,0,1,-0.51533527,0)">
    <rect
       x="0.51208669"
       width="15.519286"
       height="16"
       rx="3.8798215"
       fill="#ffffff"
       fill-opacity="0.08"
       id="rect1"
       y="0"
       style="stroke-width:0.984854" />
    <path
       d="m 8.1861091,3.456385 c -2.0286999,0 -3.7468298,1.32996 -4.33027,3.16563 h -1.08411 c 0.6135399,-2.41889 2.80501,-4.20843 5.41438,-4.20843 3.0848189,0 5.5856209,2.50113 5.5856209,5.58646 0,3.08527 -2.500802,5.58637 -5.5855806,5.58637 -2.5959501,0 -4.7783003,-1.7712 -5.4048403,-4.17117 H 3.867809 c 0.5428498,1.65787 2.0135403,2.89547 3.7981403,3.09887 v -1.4306 c -1.47981,-0.2478 -2.6074702,-1.534 -2.6074702,-3.08351 0,-1.72675 1.40049,-3.1266 3.1280903,-3.1266 1.23312,0 2.2995576,0.71319 2.8090616,1.74945 H 9.7520305 c -0.3822112,-0.43367 -0.941891,-0.70722 -1.5654611,-0.70722 -1.1517201,0 -2.0854104,0.93319 -2.0854104,2.08437 0,1.15123 0.9336903,2.08441 2.0854104,2.08441 0.6055502,0 1.1508,-0.25793 1.5317898,-0.66997 h 1.2586698 c -0.440501,0.86637 -1.2729194,1.50017 -2.2639495,1.66807 v 1.4309 c 2.2607495,-0.2612 4.0159495,-2.1823 4.0159495,-4.51337 0,-2.50937 -2.033899,-4.54366 -4.5429199,-4.54366 z"
       fill="#ffffff"
       id="path1"
       style="stroke-width:0.999991" />
    <path
       d="m 9.4176698,8 c 0,0.63289 -0.51305,1.14594 -1.14594,1.14594 -0.63288,0 -1.14594,-0.51305 -1.14594,-1.14594 0,-0.63288 0.51306,-1.14594 1.14594,-1.14594 0.63289,0 1.14594,0.51306 1.14594,1.14594 z"
       fill="#ff7c2b"
       id="path2" />
  </g>
  <defs
     id="defs3">
    <clipPath
       id="clip0_538_129719">
      <path
         d="m 0.533203,8 c 0,-3.77124 0,-5.65685 1.171577,-6.82843 C 2.87635,0 4.76197,0 8.5332,0 c 3.7712,0 5.6569,0 6.8284,1.17157 1.1716,1.17158 1.1716,3.05719 1.1716,6.82843 0,3.7712 0,5.6569 -1.1716,6.8284 C 14.1901,16 12.3044,16 8.5332,16 4.76197,16 2.87635,16 1.70478,14.8284 0.533203,13.6569 0.533203,11.7712 0.533203,8 Z"
         fill="#ffffff"
         id="path3" />
    </clipPath>
  </defs>
</svg>
