<svg width="17" height="16" viewBox="0 0 17 16" fill="none" xmlns="http://www.w3.org/2000/svg">
<g clip-path="url(#clip0_538_129719)">
<rect x="0.533203" width="16" height="16" rx="4" fill="white" fill-opacity="0.08"/>
<path d="M8.44758 3.45637C6.41888 3.45637 4.70075 4.78633 4.11731 6.622H3.0332C3.64674 4.20311 5.83821 2.41357 8.44758 2.41357C11.5324 2.41357 14.0332 4.9147 14.0332 8.00003C14.0332 11.0853 11.5324 13.5864 8.44762 13.5864C5.85167 13.5864 3.66932 11.8152 3.04278 9.41523H4.12928C4.67213 11.0731 6.14282 12.3107 7.92742 12.5141V11.0835C6.44761 10.8357 5.31995 9.5495 5.31995 7.99999C5.31995 6.27324 6.72044 4.87339 8.44804 4.87339C9.68116 4.87339 10.7476 5.58658 11.2571 6.62284H10.0135C9.63129 6.18917 9.07161 5.91562 8.44804 5.91562C7.29632 5.91562 6.36263 6.84881 6.36263 7.99999C6.36263 9.15122 7.29632 10.0844 8.44804 10.0844C9.05359 10.0844 9.59884 9.82647 9.97983 9.41443H11.2385C10.798 10.2808 9.96558 10.9146 8.97455 11.0825V12.5134C11.2353 12.2522 12.9905 10.3311 12.9905 8.00003C12.9905 5.49066 10.9566 3.45637 8.44758 3.45637Z" fill="white"/>
<path d="M9.59131 7.99756C9.59131 8.63045 9.07826 9.1435 8.44537 9.1435C7.81249 9.1435 7.29943 8.63045 7.29943 7.99756C7.29943 7.36468 7.81249 6.85162 8.44537 6.85162C9.07826 6.85162 9.59131 7.36468 9.59131 7.99756Z" fill="#FF7C2B"/>
</g>
<defs>
<clipPath id="clip0_538_129719">
<path d="M0.533203 8C0.533203 4.22876 0.533203 2.34315 1.70478 1.17157C2.87635 0 4.76197 0 8.5332 0C12.3044 0 14.1901 0 15.3616 1.17157C16.5332 2.34315 16.5332 4.22876 16.5332 8C16.5332 11.7712 16.5332 13.6569 15.3616 14.8284C14.1901 16 12.3044 16 8.5332 16C4.76197 16 2.87635 16 1.70478 14.8284C0.533203 13.6569 0.533203 11.7712 0.533203 8Z" fill="white"/>
</clipPath>
</defs>
</svg>
