<svg width="17" height="16" viewBox="0 0 17 16" fill="none" xmlns="http://www.w3.org/2000/svg">
<g clip-path="url(#clip0_1677_1375)">
<rect x="0.466675" width="16" height="16" rx="4" fill="#4520E6"/>
<path d="M8.46667 16C12.885 16 16.4667 12.4183 16.4667 8C16.4667 3.58172 12.885 0 8.46667 0C4.0484 0 0.466675 3.58172 0.466675 8C0.466675 12.4183 4.0484 16 8.46667 16Z" fill="#4520E6"/>
<path fill-rule="evenodd" clip-rule="evenodd" d="M11.0266 9.70988C11.0266 10.4744 10.4164 11.0962 9.66619 11.0962H7.05794L9.76858 8.33396C10.4702 8.3884 11.0266 8.98112 11.0266 9.70988ZM6.71284 8.16132V4.96745H9.75144C9.80335 4.96745 9.85457 4.9703 9.905 4.97595L6.71284 8.16132ZM11.6412 6.37833C11.6412 5.73418 11.3255 5.16277 10.8413 4.81163L12.1481 3.5L11.3663 3.50447L10.3281 4.54651C10.1359 4.48172 9.93026 4.44659 9.71661 4.44659H6.14216V9.52792L10.4456 5.2087C10.8332 5.45306 11.0915 5.886 11.0915 6.37833C11.0915 7.13924 10.4748 7.7582 9.71661 7.7582H9.60279L4.8148 12.5637H5.59216L6.53087 11.6216H9.71661C10.7778 11.6216 11.6412 10.755 11.6412 9.68996C11.6412 8.98752 11.2645 8.37334 10.7045 8.03523C11.2651 7.6972 11.6412 7.0811 11.6412 6.37833Z" fill="white"/>
</g>
<defs>
<clipPath id="clip0_1677_1375">
<rect x="0.466675" width="16" height="16" rx="4" fill="white"/>
</clipPath>
</defs>
</svg>
