<svg width="16" height="16" viewBox="0 0 16 16" fill="none" xmlns="http://www.w3.org/2000/svg">
<g clip-path="url(#clip0_1677_1375)">
<rect width="16" height="16" rx="4" fill="#4520E6"/>
<path d="M8 16C12.4183 16 16 12.4183 16 8C16 3.58172 12.4183 0 8 0C3.58172 0 0 3.58172 0 8C0 12.4183 3.58172 16 8 16Z" fill="#4520E6"/>
<path fill-rule="evenodd" clip-rule="evenodd" d="M10.5599 9.70988C10.5599 10.4744 9.94968 11.0962 9.19952 11.0962H6.59127L9.3019 8.33396C10.0036 8.3884 10.5599 8.98112 10.5599 9.70988ZM6.24617 8.16132V4.96745H9.28477C9.33667 4.96745 9.3879 4.9703 9.43833 4.97595L6.24617 8.16132ZM11.1745 6.37833C11.1745 5.73418 10.8588 5.16277 10.3746 4.81163L11.6815 3.5L10.8997 3.50447L9.86139 4.54651C9.66921 4.48172 9.46359 4.44659 9.24993 4.44659H5.67549V9.52792L9.97896 5.2087C10.3666 5.45306 10.6248 5.886 10.6248 6.37833C10.6248 7.13924 10.0081 7.7582 9.24993 7.7582H9.13611L4.34813 12.5637H5.12549L6.06419 11.6216H9.24993C10.3111 11.6216 11.1745 10.755 11.1745 9.68996C11.1745 8.98752 10.7978 8.37334 10.2378 8.03523C10.7984 7.6972 11.1745 7.0811 11.1745 6.37833Z" fill="white"/>
</g>
<defs>
<clipPath id="clip0_1677_1375">
<rect width="16" height="16" rx="4" fill="white"/>
</clipPath>
</defs>
</svg>
