<svg width="16" height="16" viewBox="0 0 16 16" fill="none" xmlns="http://www.w3.org/2000/svg">
<g clip-path="url(#clip0_6697_585384)">
<rect width="16" height="16" rx="4" fill="white" fill-opacity="0.08"/>
<path d="M10.5883 9.67244V9.03951C10.9779 8.90589 11.2616 8.49097 11.2616 7.99986C11.2616 7.50875 10.9779 7.09266 10.5883 6.96021V6.32728C10.9552 6.20187 11.2288 5.82562 11.2591 5.37085H10.8128V5.56425C10.8128 5.7131 10.722 5.84437 10.5883 5.91001V5.81976C10.5883 5.68732 10.4724 5.57948 10.3299 5.57948H10.3072C10.1648 5.57948 10.0487 5.68732 10.0487 5.81976V5.91001C9.9151 5.84437 9.82431 5.71427 9.82431 5.56425V5.37085H9.37802C9.40828 5.82562 9.68185 6.20187 10.0487 6.32728V6.96021C9.66041 7.09266 9.3755 7.50758 9.3755 7.99986C9.3755 8.49214 9.65915 8.90706 10.0487 9.03951V9.67244C9.68185 9.79785 9.40828 10.1741 9.37802 10.6289H9.82431V10.4355C9.82431 10.2866 9.9151 10.1553 10.0487 10.0897V10.18C10.0487 10.3124 10.1648 10.4202 10.3072 10.4202H10.3299C10.4724 10.4202 10.5883 10.3124 10.5883 10.18V10.0897C10.722 10.1553 10.8128 10.2854 10.8128 10.4355V10.6289H11.2591C11.2288 10.1741 10.9552 9.79785 10.5883 9.67244ZM9.82431 8.27647V7.72207C9.82431 7.57322 9.9151 7.44194 10.0487 7.3763V7.46656C10.0487 7.599 10.1648 7.70684 10.3072 7.70684H10.3299C10.4724 7.70684 10.5883 7.599 10.5883 7.46656V7.3763C10.722 7.44194 10.8128 7.57204 10.8128 7.72207V8.27647C10.8128 8.42533 10.722 8.55661 10.5883 8.62224V8.53199C10.5883 8.39955 10.4724 8.29171 10.3299 8.29171H10.3072C10.1648 8.29171 10.0487 8.39955 10.0487 8.53199V8.62224C9.91636 8.55661 9.82431 8.42651 9.82431 8.27647Z" fill="white"/>
<path d="M13.3267 8.33625V7.6623C13.7163 7.52868 14 7.11376 14 6.62265C14 6.13154 13.7163 5.71545 13.3267 5.583V5.37085H12.7884V5.583C12.3988 5.71662 12.1151 6.13154 12.1151 6.62265C12.1151 7.11376 12.3988 7.52985 12.7884 7.6623V8.33625C12.3988 8.46987 12.1151 8.88479 12.1151 9.3759C12.1151 9.86701 12.3988 10.2831 12.7884 10.4156V10.6277H13.3267V10.4156C13.7163 10.2819 14 9.86701 14 9.3759C14 8.88479 13.7163 8.46987 13.3267 8.33625ZM12.5627 6.89926V6.34486C12.5627 6.196 12.6535 6.06473 12.7871 5.99909V6.08934C12.7871 6.22179 12.9031 6.32962 13.0456 6.32962H13.067C13.2095 6.32962 13.3255 6.22179 13.3255 6.08934V5.99909C13.4591 6.06473 13.5499 6.19483 13.5499 6.34486V6.89926C13.5499 7.04812 13.4591 7.1794 13.3255 7.24503V7.15478C13.3255 7.02233 13.2095 6.9145 13.067 6.9145H13.0443C12.9019 6.9145 12.7859 7.02233 12.7859 7.15478V7.24503C12.6547 7.1794 12.5627 7.04929 12.5627 6.89926ZM13.5511 9.65369C13.5511 9.80254 13.4604 9.93383 13.3267 9.99945V9.86701C13.3267 9.73456 13.2107 9.62673 13.0683 9.62673H13.0469C12.9044 9.62673 12.7884 9.73456 12.7884 9.86701V9.99945C12.6547 9.93383 12.5639 9.80371 12.5639 9.65369V9.09929C12.5639 8.95043 12.6547 8.81915 12.7884 8.75352V8.80157C12.7884 8.93402 12.9044 9.04185 13.0469 9.04185H13.0696C13.212 9.04185 13.328 8.93402 13.328 8.80157V8.75352C13.4617 8.81915 13.5524 8.94926 13.5524 9.09929V9.65369H13.5511Z" fill="white"/>
<path d="M7.50329 7.46308C7.49825 7.43612 7.49194 7.41034 7.48185 7.38573C7.48564 7.37987 8.32277 6.29567 7.54743 5.62524C6.77331 4.9548 5.86932 5.82918 5.86428 5.83387C5.72055 5.79167 5.57556 5.76589 5.43183 5.75417C5.43183 5.75417 5.43183 5.75417 5.43057 5.75417C5.13555 5.70846 4.72201 5.75417 4.72201 5.75417C4.57955 5.76589 4.43582 5.79167 4.29335 5.8327C4.2883 5.82801 3.38433 4.95363 2.61022 5.62406C1.8361 6.2945 2.67199 7.37987 2.67577 7.38455C2.66695 7.41034 2.65939 7.43612 2.65434 7.46191C2.57113 7.92606 2 8.06906 2 8.8778C2 9.70179 2.59635 10.3511 3.81426 10.3511H4.31352C4.31604 10.3535 4.50894 10.609 4.90735 10.6242C4.90735 10.6242 4.99939 10.6336 5.21119 10.6266C5.63355 10.6266 5.83906 10.3558 5.84032 10.3523H6.33959C7.55747 10.3523 8.15383 9.70296 8.15383 8.87897C8.15761 8.0714 7.58648 7.92723 7.50329 7.46308Z" fill="white"/>
</g>
<defs>
<clipPath id="clip0_6697_585384">
<path d="M0 8C0 4.22876 0 2.34315 1.17157 1.17157C2.34315 0 4.22876 0 8 0C11.7712 0 13.6569 0 14.8284 1.17157C16 2.34315 16 4.22876 16 8C16 11.7712 16 13.6569 14.8284 14.8284C13.6569 16 11.7712 16 8 16C4.22876 16 2.34315 16 1.17157 14.8284C0 13.6569 0 11.7712 0 8Z" fill="white"/>
</clipPath>
</defs>
</svg>
