<svg width="17" height="16" viewBox="0 0 17 16" fill="none" xmlns="http://www.w3.org/2000/svg">
<g clip-path="url(#clip0_1738_8761)">
<rect x="0.466675" width="16" height="16" rx="4" fill="#3CC194"/>
<path d="M9.69708 9.04872V9.06235L9.69026 9.0811L9.08869 9.77128L8.92509 10.6421L8.91998 10.6489C8.85352 10.7256 8.78535 10.7989 8.71378 10.8671L8.70526 10.8756C8.18208 11.3544 7.50042 11.6203 6.79149 11.622L6.76763 11.6203L6.65686 11.622C5.94963 11.6254 5.26115 11.3885 4.7073 10.9489L4.69708 10.9403C4.02564 10.412 3.60812 9.62472 3.54847 8.77264C3.54847 8.76583 3.54847 8.75731 3.55018 8.75049C3.54677 8.70789 3.54507 8.66528 3.54507 8.62268L3.52462 7.38205V7.36671L3.46667 3.88L4.99019 4.41852L5.01575 5.99487L4.78228 6.99861L5.05836 8.08076L5.05665 8.11313L5.06347 8.61757C5.08733 9.46964 5.78774 10.1445 6.63982 10.1377C6.85625 10.136 7.06927 10.09 7.26695 10.0013L7.27717 9.99623C7.81739 9.7389 8.16163 9.19698 8.16674 8.59882V8.0586L8.72741 7.28491L8.89783 6.5436V6.53679C8.96088 6.45328 9.03075 6.37489 9.10573 6.30161L9.11766 6.29139L9.12618 6.28457V6.27776H9.13982L9.15175 6.26753C9.36647 6.06644 9.61698 5.90454 9.88794 5.78866C10.2986 5.61995 10.7383 5.53474 11.1831 5.53815L11.3825 5.54838H11.3927C12.1323 5.59439 12.831 5.90114 13.3627 6.4175L13.3883 6.44306L12.3368 7.50305L12.3113 7.47748C12.0676 7.24061 11.754 7.08723 11.4166 7.04292H11.4063C11.3416 7.03611 11.2751 7.0327 11.2104 7.0327C10.7997 7.0327 10.4077 7.19971 10.1214 7.49452C10.0856 7.53202 10.0532 7.56951 10.0209 7.61041L10.0141 7.62063C9.79421 7.89671 9.68004 8.24095 9.68685 8.59371L9.68344 8.62949C9.68476 8.6809 9.68761 8.74657 9.69041 8.81115C9.69485 8.91355 9.69917 9.01318 9.69708 9.04872Z" fill="white"/>
<path d="M5.03961 7.04292V7.05315L5.25093 7.84558L5.29353 7.77742C5.52189 7.44681 5.86954 7.21675 6.2632 7.14006H6.28024C6.41828 7.11109 6.55972 7.10086 6.70117 7.10768C6.91419 7.12131 7.12039 7.18266 7.30785 7.28491L7.32318 7.29343C7.58051 7.43829 7.80887 7.63086 7.99462 7.86092L8.0253 7.90011L8.52291 7.19971L8.6814 6.4601L8.66436 6.44647L8.60812 6.39705C8.28263 6.09712 7.89749 5.87217 7.47656 5.73413C7.24991 5.66596 7.01473 5.62847 6.77956 5.62506H6.76933C6.23593 5.62677 5.71275 5.7614 5.24411 6.01532L5.22877 6.02384L5.01916 6.96283L5.03961 7.04292Z" fill="white"/>
<path d="M12.3743 9.62302L12.3505 9.64858C12.2039 9.79684 12.0267 9.91443 11.8324 9.99112H11.8222C11.6432 10.061 11.4524 10.0968 11.2615 10.0968C10.9803 10.1019 10.7025 10.0422 10.4486 9.92125H10.4333L10.3856 9.89739C10.1504 9.77128 9.95781 9.57871 9.83 9.34354L9.80614 9.30093L9.28637 9.85819C9.28637 9.85819 9.18242 10.3916 9.13641 10.6523V10.6694L9.14834 10.6813L9.15515 10.6898C9.68344 11.2692 10.4316 11.5981 11.2155 11.5981L11.2581 11.5998L11.2922 11.6015C11.8051 11.6015 12.3096 11.4703 12.7577 11.2215L12.7714 11.2147C13.0185 11.075 13.2451 10.9011 13.4428 10.6983L13.4667 10.6728L12.3743 9.62302Z" fill="white"/>
</g>
<defs>
<clipPath id="clip0_1738_8761">
<rect x="0.466675" width="16" height="16" rx="4" fill="white"/>
</clipPath>
</defs>
</svg>
