<svg width="17" height="16" viewBox="0 0 17 16" fill="none" xmlns="http://www.w3.org/2000/svg">
<g clip-path="url(#clip0_2576_449264)">
<rect x="0.533203" width="16" height="16" rx="4" fill="#F7931A"/>
<path d="M12.0744 7.02322C12.227 6.00326 11.4504 5.45494 10.3885 5.08916L10.733 3.70749L9.89196 3.49789L9.5566 4.84315C9.3355 4.78806 9.10841 4.73608 8.88277 4.68458L9.22052 3.33045L8.37997 3.12085L8.03527 4.50205C7.85226 4.46037 7.6726 4.41917 7.49822 4.37581L7.49917 4.3715L6.33931 4.08189L6.11558 4.98017C6.11558 4.98017 6.73959 5.12318 6.72641 5.13204C7.06704 5.21708 7.1286 5.44249 7.1183 5.62119L6.17451 9.40618C6.13283 9.50967 6.02719 9.66489 5.78909 9.60596C5.79747 9.61818 5.17778 9.45338 5.17778 9.45338L4.76025 10.4161L5.85472 10.6889C6.05833 10.74 6.25787 10.7934 6.45429 10.8437L6.10624 12.2412L6.94631 12.4508L7.29101 11.0681C7.52049 11.1304 7.74327 11.1879 7.96125 11.242L7.61775 12.6182L8.45878 12.8278L8.80683 11.4329C10.241 11.7043 11.3194 11.5949 11.7733 10.2978C12.1391 9.25336 11.7551 8.65091 11.0006 8.25806C11.5501 8.13134 11.964 7.76988 12.0744 7.02322ZM10.1528 9.71783C9.89291 10.7622 8.13444 10.1976 7.56433 10.0561L8.02617 8.20464C8.59627 8.34693 10.4245 8.62863 10.1528 9.71783ZM10.413 7.00813C10.1758 7.95816 8.71221 7.47548 8.23744 7.35715L8.65616 5.67796C9.13093 5.79629 10.6599 6.01715 10.413 7.00813Z" fill="white"/>
</g>
<defs>
<clipPath id="clip0_2576_449264">
<path d="M0.533203 8C0.533203 4.22876 0.533203 2.34315 1.70478 1.17157C2.87635 0 4.76197 0 8.5332 0C12.3044 0 14.1901 0 15.3616 1.17157C16.5332 2.34315 16.5332 4.22876 16.5332 8C16.5332 11.7712 16.5332 13.6569 15.3616 14.8284C14.1901 16 12.3044 16 8.5332 16C4.76197 16 2.87635 16 1.70478 14.8284C0.533203 13.6569 0.533203 11.7712 0.533203 8Z" fill="white"/>
</clipPath>
</defs>
</svg>
