<?xml version="1.0" encoding="UTF-8" standalone="no"?>
<svg
   width="16"
   height="16"
   viewBox="0 0 16 16"
   fill="none"
   version="1.1"
   id="svg2"
   sodipodi:docname="bitcoin.svg"
   inkscape:version="1.3.2 (091e20ef0f, 2023-11-25)"
   xmlns:inkscape="http://www.inkscape.org/namespaces/inkscape"
   xmlns:sodipodi="http://sodipodi.sourceforge.net/DTD/sodipodi-0.dtd"
   xmlns="http://www.w3.org/2000/svg"
   xmlns:svg="http://www.w3.org/2000/svg">
  <sodipodi:namedview
     id="namedview2"
     pagecolor="#ffffff"
     bordercolor="#000000"
     borderopacity="0.25"
     inkscape:showpageshadow="2"
     inkscape:pageopacity="0.0"
     inkscape:pagecheckerboard="0"
     inkscape:deskcolor="#d1d1d1"
     inkscape:zoom="50.8125"
     inkscape:cx="8.501845"
     inkscape:cy="8"
     inkscape:window-width="1920"
     inkscape:window-height="1011"
     inkscape:window-x="0"
     inkscape:window-y="32"
     inkscape:window-maximized="1"
     inkscape:current-layer="svg2" />
  <g
     clip-path="url(#clip0_2576_449264)"
     id="g1"
     transform="translate(-0.51758894,0.00869477)">
    <rect
       x="0.53320301"
       width="16"
       height="16"
       rx="4"
       fill="#f7931a"
       id="rect1"
       y="0" />
    <path
       d="M 12.0744,7.02322 C 12.227,6.00326 11.4504,5.45494 10.3885,5.08916 L 10.733,3.70749 9.89196,3.49789 9.5566,4.84315 C 9.3355,4.78806 9.10841,4.73608 8.88277,4.68458 L 9.22052,3.33045 8.37997,3.12085 8.03527,4.50205 C 7.85226,4.46037 7.6726,4.41917 7.49822,4.37581 L 7.49917,4.3715 6.33931,4.08189 6.11558,4.98017 c 0,0 0.62401,0.14301 0.61083,0.15187 C 7.06704,5.21708 7.1286,5.44249 7.1183,5.62119 L 6.17451,9.40618 C 6.13283,9.50967 6.02719,9.66489 5.78909,9.60596 5.79747,9.61818 5.17778,9.45338 5.17778,9.45338 l -0.41753,0.96272 1.09447,0.2728 c 0.20361,0.0511 0.40315,0.1045 0.59957,0.1548 l -0.34805,1.3975 0.84007,0.2096 0.3447,-1.3827 c 0.22948,0.0623 0.45226,0.1198 0.67024,0.1739 l -0.3435,1.3762 0.84103,0.2096 0.34805,-1.3949 C 10.241,11.7043 11.3194,11.5949 11.7733,10.2978 12.1391,9.25336 11.7551,8.65091 11.0006,8.25806 11.5501,8.13134 11.964,7.76988 12.0744,7.02322 Z M 10.1528,9.71783 C 9.89291,10.7622 8.13444,10.1976 7.56433,10.0561 L 8.02617,8.20464 c 0.5701,0.14229 2.39833,0.42399 2.12663,1.51319 z M 10.413,7.00813 C 10.1758,7.95816 8.71221,7.47548 8.23744,7.35715 L 8.65616,5.67796 C 9.13093,5.79629 10.6599,6.01715 10.413,7.00813 Z"
       fill="#ffffff"
       id="path1" />
  </g>
  <defs
     id="defs2">
    <clipPath
       id="clip0_2576_449264">
      <path
         d="m 0.533203,8 c 0,-3.77124 0,-5.65685 1.171577,-6.82843 C 2.87635,0 4.76197,0 8.5332,0 c 3.7712,0 5.6569,0 6.8284,1.17157 1.1716,1.17158 1.1716,3.05719 1.1716,6.82843 0,3.7712 0,5.6569 -1.1716,6.8284 C 14.1901,16 12.3044,16 8.5332,16 4.76197,16 2.87635,16 1.70478,14.8284 0.533203,13.6569 0.533203,11.7712 0.533203,8 Z"
         fill="#ffffff"
         id="path2" />
    </clipPath>
  </defs>
</svg>
