<svg width="16" height="16" viewBox="0 0 16 16" fill="none" xmlns="http://www.w3.org/2000/svg">
<g clip-path="url(#clip0_1738_8761)">
<rect width="16" height="16" rx="4" fill="#3CC194"/>
<path d="M9.2304 9.04872V9.06235L9.22359 9.0811L8.62202 9.77128L8.45842 10.6421L8.45331 10.6489C8.38684 10.7256 8.31868 10.7989 8.2471 10.8671L8.23858 10.8756C7.71541 11.3544 7.03374 11.6203 6.32481 11.622L6.30095 11.6203L6.19018 11.622C5.48296 11.6254 4.79448 11.3885 4.24063 10.9489L4.2304 10.9403C3.55896 10.412 3.14144 9.62472 3.0818 8.77264C3.0818 8.76583 3.0818 8.75731 3.0835 8.75049C3.0801 8.70789 3.07839 8.66528 3.07839 8.62268L3.05794 7.38205V7.36671L3 3.88L4.52352 4.41852L4.54908 5.99487L4.31561 6.99861L4.59168 8.08076L4.58998 8.11313L4.5968 8.61757C4.62065 9.46964 5.32106 10.1445 6.17314 10.1377C6.38957 10.136 6.60259 10.09 6.80027 10.0013L6.8105 9.99623C7.35072 9.7389 7.69496 9.19698 7.70007 8.59882V8.0586L8.26074 7.28491L8.43115 6.5436V6.53679C8.49421 6.45328 8.56408 6.37489 8.63906 6.30161L8.65099 6.29139L8.65951 6.28457V6.27776H8.67314L8.68507 6.26753C8.8998 6.06644 9.15031 5.90454 9.42127 5.78866C9.83197 5.61995 10.2716 5.53474 10.7164 5.53815L10.9158 5.54838H10.926C11.6656 5.59439 12.3643 5.90114 12.896 6.4175L12.9216 6.44306L11.8701 7.50305L11.8446 7.47748C11.6009 7.24061 11.2873 7.08723 10.9499 7.04292H10.9397C10.8749 7.03611 10.8085 7.0327 10.7437 7.0327C10.333 7.0327 9.94104 7.19971 9.65474 7.49452C9.61895 7.53202 9.58657 7.56951 9.55419 7.61041L9.54738 7.62063C9.32754 7.89671 9.21336 8.24095 9.22018 8.59371L9.21677 8.62949C9.21809 8.6809 9.22093 8.74657 9.22373 8.81115C9.22817 8.91355 9.23249 9.01318 9.2304 9.04872Z" fill="white"/>
<path d="M4.57294 7.04292V7.05315L4.78425 7.84558L4.82686 7.77742C5.05521 7.44681 5.40286 7.21675 5.79652 7.14006H5.81356C5.9516 7.11109 6.09305 7.10086 6.23449 7.10768C6.44751 7.12131 6.65371 7.18266 6.84117 7.28491L6.85651 7.29343C7.11384 7.43829 7.34219 7.63086 7.52795 7.86092L7.55862 7.90011L8.05624 7.19971L8.21472 6.4601L8.19768 6.44647L8.14144 6.39705C7.81595 6.09712 7.43081 5.87217 7.00988 5.73413C6.78323 5.66596 6.54806 5.62847 6.31288 5.62506H6.30266C5.76926 5.62677 5.24608 5.7614 4.77744 6.01532L4.7621 6.02384L4.55249 6.96283L4.57294 7.04292Z" fill="white"/>
<path d="M11.9076 9.62302L11.8838 9.64858C11.7372 9.79684 11.56 9.91443 11.3657 9.99112H11.3555C11.1766 10.061 10.9857 10.0968 10.7948 10.0968C10.5136 10.1019 10.2359 10.0422 9.98194 9.92125H9.9666L9.91888 9.89739C9.68371 9.77128 9.49114 9.57871 9.36333 9.34354L9.33947 9.30093L8.8197 9.85819C8.8197 9.85819 8.71575 10.3916 8.66973 10.6523V10.6694L8.68166 10.6813L8.68848 10.6898C9.21677 11.2692 9.96489 11.5981 10.7488 11.5981L10.7914 11.5998L10.8255 11.6015C11.3384 11.6015 11.8429 11.4703 12.2911 11.2215L12.3047 11.2147C12.5518 11.075 12.7785 10.9011 12.9761 10.6983L13 10.6728L11.9076 9.62302Z" fill="white"/>
</g>
<defs>
<clipPath id="clip0_1738_8761">
<rect width="16" height="16" rx="4" fill="white"/>
</clipPath>
</defs>
</svg>
