<svg width="17" height="16" viewBox="0 0 17 16" fill="none" xmlns="http://www.w3.org/2000/svg">
<g clip-path="url(#clip0_1738_8806)">
<rect x="0.466675" width="16" height="16" rx="4" fill="white" fill-opacity="0.08"/>
<path d="M14.4667 8C14.4667 11.3137 11.7804 14 8.46667 14C5.15297 14 2.46667 11.3137 2.46667 8C2.46667 4.68629 5.15297 2 8.46667 2C11.7804 2 14.4667 4.68629 14.4667 8Z" fill="white"/>
<path d="M8.4554 2C8.00511 2 7.55485 2.04554 7.10457 2.15939C7.10457 2.18216 7.10457 2.20493 7.10457 2.2277V9.62806C7.10457 9.78748 6.96949 9.90131 6.8344 9.90131H6.29407C6.1815 9.90131 6.09144 9.81026 6.09144 9.69638V2.47818C3.9526 3.38899 2.46667 5.52941 2.46667 7.98858C2.46667 11.3131 5.14585 14 8.47795 14C11.81 14 14.4667 11.3131 14.4667 8.01136C14.4667 4.70967 11.765 2 8.4554 2ZM8.34286 10.4933C8.34286 10.6299 8.23028 10.7438 8.09519 10.7438H7.55486C7.41977 10.7438 7.3072 10.6299 7.3072 10.4933V6.6907C7.3072 6.55407 7.41977 6.44022 7.55486 6.44022H8.09519C8.23028 6.44022 8.34286 6.55407 8.34286 6.6907V10.4933ZM9.55862 10.8577C9.55862 10.9943 9.44604 11.1082 9.31095 11.1082H8.77064C8.63555 11.1082 8.52297 10.9943 8.52297 10.8577V6.32637C8.52297 6.18975 8.63555 6.07589 8.77064 6.07589H9.31095C9.44604 6.07589 9.55862 6.18975 9.55862 6.32637V10.8577ZM10.7744 10.1746C10.7744 10.3112 10.6618 10.425 10.5267 10.425H9.9864C9.85131 10.425 9.73873 10.3112 9.73873 10.1746V7.05502C9.73873 6.9184 9.85131 6.80454 9.9864 6.80454H10.5267C10.6618 6.80454 10.7744 6.9184 10.7744 7.05502V10.1746Z" fill="#FF005C"/>
<path d="M8.4554 2C8.00511 2 7.55485 2.04554 7.10457 2.15939C7.10457 2.18216 7.10457 2.20493 7.10457 2.2277V9.62806C7.10457 9.78748 6.96949 9.90131 6.8344 9.90131H6.29407C6.1815 9.90131 6.09144 9.81026 6.09144 9.69638V2.47818C3.9526 3.38899 2.46667 5.52941 2.46667 7.98858C2.46667 11.3131 5.14585 14 8.47795 14C11.81 14 14.4667 11.3131 14.4667 8.01136C14.4667 4.70967 11.765 2 8.4554 2ZM8.34286 10.4933C8.34286 10.6299 8.23028 10.7438 8.09519 10.7438H7.55486C7.41977 10.7438 7.3072 10.6299 7.3072 10.4933V6.6907C7.3072 6.55407 7.41977 6.44022 7.55486 6.44022H8.09519C8.23028 6.44022 8.34286 6.55407 8.34286 6.6907V10.4933ZM9.55862 10.8577C9.55862 10.9943 9.44604 11.1082 9.31095 11.1082H8.77064C8.63555 11.1082 8.52297 10.9943 8.52297 10.8577V6.32637C8.52297 6.18975 8.63555 6.07589 8.77064 6.07589H9.31095C9.44604 6.07589 9.55862 6.18975 9.55862 6.32637V10.8577ZM10.7744 10.1746C10.7744 10.3112 10.6618 10.425 10.5267 10.425H9.9864C9.85131 10.425 9.73873 10.3112 9.73873 10.1746V7.05502C9.73873 6.9184 9.85131 6.80454 9.9864 6.80454H10.5267C10.6618 6.80454 10.7744 6.9184 10.7744 7.05502V10.1746Z" fill="url(#paint0_linear_1738_8806)" fill-opacity="0.4"/>
</g>
<defs>
<linearGradient id="paint0_linear_1738_8806" x1="8.46667" y1="2" x2="8.46667" y2="14" gradientUnits="userSpaceOnUse">
<stop stop-color="#00E0FF"/>
<stop offset="1" stop-color="#00E0FF" stop-opacity="0"/>
</linearGradient>
<clipPath id="clip0_1738_8806">
<rect x="0.466675" width="16" height="16" rx="4" fill="white"/>
</clipPath>
</defs>
</svg>
