<svg width="16" height="16" viewBox="0 0 16 16" fill="none" xmlns="http://www.w3.org/2000/svg">
<g clip-path="url(#clip0_1738_8806)">
<rect width="16" height="16" rx="4" fill="white" fill-opacity="0.08"/>
<path d="M14 8C14 11.3137 11.3137 14 8 14C4.68629 14 2 11.3137 2 8C2 4.68629 4.68629 2 8 2C11.3137 2 14 4.68629 14 8Z" fill="white"/>
<path d="M7.98872 2C7.53844 2 7.08818 2.04554 6.6379 2.15939C6.6379 2.18216 6.6379 2.20493 6.6379 2.2277V9.62806C6.6379 9.78748 6.50281 9.90131 6.36773 9.90131H5.82739C5.71482 9.90131 5.62477 9.81026 5.62477 9.69638V2.47818C3.48593 3.38899 2 5.52941 2 7.98858C2 11.3131 4.67917 14 8.01128 14C11.3434 14 14 11.3131 14 8.01136C14 4.70967 11.2983 2 7.98872 2ZM7.87619 10.4933C7.87619 10.6299 7.76361 10.7438 7.62852 10.7438H7.08818C6.9531 10.7438 6.84053 10.6299 6.84053 10.4933V6.6907C6.84053 6.55407 6.9531 6.44022 7.08818 6.44022H7.62852C7.76361 6.44022 7.87619 6.55407 7.87619 6.6907V10.4933ZM9.09195 10.8577C9.09195 10.9943 8.97937 11.1082 8.84427 11.1082H8.30397C8.16888 11.1082 8.05629 10.9943 8.05629 10.8577V6.32637C8.05629 6.18975 8.16888 6.07589 8.30397 6.07589H8.84427C8.97937 6.07589 9.09195 6.18975 9.09195 6.32637V10.8577ZM10.3077 10.1746C10.3077 10.3112 10.1951 10.425 10.06 10.425H9.51972C9.38463 10.425 9.27205 10.3112 9.27205 10.1746V7.05502C9.27205 6.9184 9.38463 6.80454 9.51972 6.80454H10.06C10.1951 6.80454 10.3077 6.9184 10.3077 7.05502V10.1746Z" fill="#FF005C"/>
<path d="M7.98872 2C7.53844 2 7.08818 2.04554 6.6379 2.15939C6.6379 2.18216 6.6379 2.20493 6.6379 2.2277V9.62806C6.6379 9.78748 6.50281 9.90131 6.36773 9.90131H5.82739C5.71482 9.90131 5.62477 9.81026 5.62477 9.69638V2.47818C3.48593 3.38899 2 5.52941 2 7.98858C2 11.3131 4.67917 14 8.01128 14C11.3434 14 14 11.3131 14 8.01136C14 4.70967 11.2983 2 7.98872 2ZM7.87619 10.4933C7.87619 10.6299 7.76361 10.7438 7.62852 10.7438H7.08818C6.9531 10.7438 6.84053 10.6299 6.84053 10.4933V6.6907C6.84053 6.55407 6.9531 6.44022 7.08818 6.44022H7.62852C7.76361 6.44022 7.87619 6.55407 7.87619 6.6907V10.4933ZM9.09195 10.8577C9.09195 10.9943 8.97937 11.1082 8.84427 11.1082H8.30397C8.16888 11.1082 8.05629 10.9943 8.05629 10.8577V6.32637C8.05629 6.18975 8.16888 6.07589 8.30397 6.07589H8.84427C8.97937 6.07589 9.09195 6.18975 9.09195 6.32637V10.8577ZM10.3077 10.1746C10.3077 10.3112 10.1951 10.425 10.06 10.425H9.51972C9.38463 10.425 9.27205 10.3112 9.27205 10.1746V7.05502C9.27205 6.9184 9.38463 6.80454 9.51972 6.80454H10.06C10.1951 6.80454 10.3077 6.9184 10.3077 7.05502V10.1746Z" fill="url(#paint0_linear_1738_8806)" fill-opacity="0.4"/>
</g>
<defs>
<linearGradient id="paint0_linear_1738_8806" x1="8" y1="2" x2="8" y2="14" gradientUnits="userSpaceOnUse">
<stop stop-color="#00E0FF"/>
<stop offset="1" stop-color="#00E0FF" stop-opacity="0"/>
</linearGradient>
<clipPath id="clip0_1738_8806">
<rect width="16" height="16" rx="4" fill="white"/>
</clipPath>
</defs>
</svg>
