<svg width="17" height="16" viewBox="0 0 17 16" fill="none" xmlns="http://www.w3.org/2000/svg">
<g clip-path="url(#clip0_1775_6061)">
<rect x="0.466675" width="16" height="16" rx="4" fill="white" fill-opacity="0.08"/>
<path d="M7.00582 7.58368C6.81616 7.33666 6.69207 7.05732 6.69207 6.70071C6.69207 6.48904 6.71501 6.35792 6.74428 6.23546C6.57382 6.59652 6.51505 6.86532 6.51505 7.11937C6.51505 8.46572 7.75159 8.6404 7.75159 9.59197C7.75159 9.82214 7.62913 10.135 7.21609 10.7208C8.45965 9.06303 8.77598 8.46713 8.77598 8.05292C8.77598 6.89505 7.54413 6.70141 7.54413 5.39861C7.54413 5.10148 7.71365 4.74394 8.03303 4.27751C7.63662 4.80341 7.29664 5.28693 7.11423 5.57938C6.93207 5.87136 6.8075 6.24272 6.8075 6.72623C6.80773 7.14395 6.91404 7.40761 7.00582 7.58368Z" fill="white"/>
<path d="M10.7253 11.6721C9.55617 11.6721 7.29734 10.6166 6.37316 10.6166C5.74236 10.6166 4.99215 11.435 3.46667 12.9251C4.06305 12.3425 4.58286 11.9365 5.0535 11.9365C6.63564 11.9365 8.09766 13 9.71375 13C9.86337 13 9.92635 12.9581 10.0003 12.8806C10.1923 12.6795 10.6695 12.1735 11.2172 11.5909C11.0439 11.6574 10.895 11.6721 10.7253 11.6721ZM10.2546 7.20296L8.92373 8.32781C10.4473 8.59099 11.3053 9.55709 11.3053 10.8477C11.3053 11.1692 11.2755 11.3589 11.2172 11.5909L11.2174 11.5907C11.8754 10.8906 12.6266 10.0954 12.6486 10.0731C12.6486 8.3531 11.4139 7.40409 10.2546 7.20296Z" fill="white"/>
<path d="M6.81663 9.44633C7.22569 9.44633 7.54038 9.36766 7.54038 9.36766C7.54038 9.36766 7.25051 9.43697 6.81663 9.43697C5.22981 9.43697 4.18012 8.28824 4.18012 6.98146C4.18012 5.69387 5.36398 4.17191 7.62889 4.17191C9.5372 4.17191 10.6726 5.59811 10.6841 6.88054L12.1011 5.71167C11.6637 4.20539 10.2169 3 8.16111 3C5.69413 3 4.03964 5.05348 4.03964 6.68666C4.03964 8.31282 5.12983 9.44633 6.81663 9.44633Z" fill="white"/>
</g>
<defs>
<clipPath id="clip0_1775_6061">
<rect x="0.466675" width="16" height="16" rx="4" fill="white"/>
</clipPath>
</defs>
</svg>
