<svg width="16" height="16" viewBox="0 0 16 16" fill="none" xmlns="http://www.w3.org/2000/svg">
<g clip-path="url(#clip0_4802_101132)">
<rect width="16" height="16" rx="4" fill="#7B2BF9"/>
<path d="M13.44 8.00003C13.44 11 11 13.43 8.00005 13.43C4.99 13.43 2.55005 11 2.55005 8.00003C2.55005 4.98 4.99005 2.55003 8.00005 2.55003C11 2.55003 13.44 4.98003 13.44 8.00003Z" fill="#D9D9D9"/>
<path d="M7.20753 3.12426C7.11981 3.1442 6.9603 3.18009 6.84865 3.20401C6.39009 3.3037 5.87968 3.51105 5.44903 3.78221C5.11806 3.98557 5.0742 4.06133 5.30547 4.02146C5.83582 3.92576 6.62535 3.95766 7.30722 4.1052C7.45077 4.13311 7.65812 4.17697 7.77376 4.20488C7.8894 4.22881 8.00903 4.23678 8.04093 4.22482C8.07283 4.21286 8.18049 4.07728 8.28018 3.92974C8.37588 3.78221 8.55931 3.54694 8.68292 3.41136L8.91021 3.16015L8.80255 3.12027C8.67495 3.07242 7.87896 3.00003 7.20753 3.12426Z" fill="#7B2BF9"/>
<path d="M9.40067 3.4951C9.17737 3.59878 8.85438 3.91778 8.6869 4.20887C8.5593 4.4242 8.57525 4.46806 8.80653 4.5518C9.24117 4.70732 10.0227 5.12601 10.5451 5.47691C11.1193 5.8637 11.207 5.98333 11.223 6.42993C11.2389 6.75292 11.1831 6.80077 10.6129 6.96825C9.85126 7.19155 9.07369 7.50258 8.34796 7.87342C8.12067 7.98906 8.04092 8.01299 7.99706 7.98108C7.93725 7.92925 7.92528 7.65411 7.98111 7.55043C8.02497 7.47467 8.74273 7.11978 9.38472 6.86457C9.64391 6.7609 10.4494 6.49373 10.6886 6.42993C10.7883 6.40601 10.8561 6.36613 10.8442 6.33822C10.7883 6.16676 9.42061 5.32937 8.7826 5.07816C8.22435 4.85485 7.88541 4.7432 7.51855 4.65548C7.37101 4.61959 7.21151 4.5837 7.16765 4.57174C6.87656 4.49996 6.01525 4.44813 5.67232 4.48003C4.64354 4.57971 4.02946 4.91866 3.71444 5.57261C3.6307 5.74806 3.5823 5.86816 3.58629 6.25097C3.58629 6.74941 3.68653 6.94433 3.96566 7.46669C4.23282 7.96514 4.72329 8.57124 5.13002 8.91018C5.40915 9.14545 5.44902 9.14146 5.80391 8.86632C5.93949 8.75866 6.27444 8.52738 6.54958 8.35193C6.82472 8.17647 7.10784 7.9771 7.17961 7.90532C7.29924 7.7857 7.30721 7.75778 7.30721 7.51454C7.30721 6.86856 7.62622 5.25361 7.80167 5.01436C7.84154 4.95853 7.88541 4.95056 7.99307 4.97049C8.2403 5.01436 8.25226 5.06619 8.12865 5.52476C7.83756 6.61735 7.76977 7.22345 7.79768 8.44364C7.82161 9.31691 7.84553 9.60401 7.94123 10.0985C8.05687 10.6806 8.05288 10.6926 7.75382 10.8202C7.5664 10.9 7.35108 10.9159 7.23544 10.8601C6.7051 10.5969 6.69712 10.5889 6.25052 10.3377C5.30946 9.80738 4.32055 8.91417 3.76628 8.09672C3.61874 7.88538 3.35158 7.35903 3.27581 7.13573C3.2479 7.05598 3.21201 6.98819 3.20005 6.98819C3.09239 6.98819 3.03257 8.40775 3.1203 8.81448C3.14422 8.91816 3.18011 9.08962 3.20404 9.20127C3.33563 9.81137 3.79419 10.7764 3.95369 10.7764C3.98958 10.7764 4.0813 10.6687 4.16503 10.5251C4.36042 10.1902 4.815 9.69971 4.93064 9.69971C5.04229 9.69971 5.19382 9.83928 5.19382 9.94296C5.19382 9.98682 5.11806 10.1064 5.02235 10.2101C4.63955 10.6288 4.44017 10.9717 4.42821 11.2269C4.41625 11.518 4.61563 11.6137 5.22572 11.6137C5.76802 11.6137 6.23457 11.522 7.00815 11.2708C8.32005 10.8441 9.43656 10.2859 10.7166 9.4166C11.522 8.87031 11.4503 8.96202 11.4901 8.40376C11.538 7.71392 11.4702 6.68912 11.3306 5.97137C11.1153 4.8708 10.6567 3.90981 10.2062 3.60676C9.85126 3.37149 9.7117 3.35155 9.40067 3.4951Z" fill="#7B2BF9"/>
<path d="M11.4144 4.45211C11.4144 4.46009 11.4702 4.63554 11.538 4.84289C11.6696 5.24563 11.7334 5.47292 11.8171 5.8637C11.845 6.00326 11.8889 6.13087 11.9128 6.14682C11.9328 6.16675 12.1002 6.19467 12.2837 6.20663C12.5827 6.23454 12.6106 6.23055 12.6106 6.16277C12.6106 6.04713 12.4352 5.70819 12.188 5.32937C11.857 4.82694 11.4144 4.32451 11.4144 4.45211Z" fill="#7B2BF9"/>
<path d="M12.0923 6.76089C12.0923 6.79678 12.1441 6.88451 12.2039 6.95628C12.2677 7.02806 12.3953 7.19155 12.487 7.31516C12.5867 7.44675 12.6784 7.53448 12.7103 7.52251C12.7741 7.4946 12.8898 7.19952 12.8898 7.05996C12.8898 6.8885 12.6824 6.75691 12.3594 6.72501C12.1282 6.70108 12.0923 6.70507 12.0923 6.76089Z" fill="#7B2BF9"/>
<path d="M12.0125 7.96513C12.0125 8.17248 12.0285 8.34395 12.0444 8.34395C12.0962 8.34395 12.3315 8.08476 12.3315 8.03292C12.3315 7.97311 12.0843 7.58631 12.0444 7.58631C12.0245 7.58631 12.0125 7.75778 12.0125 7.96513Z" fill="#7B2BF9"/>
<path d="M6.88454 8.70682C6.40603 9.01785 5.8717 9.42458 5.8717 9.47641C5.8717 9.55218 6.46186 9.91903 7.10784 10.242C7.43482 10.4055 7.44678 10.4095 7.46273 10.3258C7.46672 10.2779 7.45476 10.1503 7.43482 10.0387C7.35507 9.66782 7.30722 9.20526 7.30722 8.85037C7.30722 8.58321 7.29525 8.50345 7.25139 8.50345C7.22348 8.50345 7.056 8.59517 6.88454 8.70682Z" fill="#7B2BF9"/>
<path d="M12.2159 8.88227C11.9487 9.13747 11.9487 9.14145 11.8969 9.44849C11.8371 9.81535 11.7892 10.0586 11.7055 10.4294C11.6257 10.7604 11.6576 10.8162 11.873 10.7125C12.0803 10.6168 12.4392 10.2739 12.5349 10.0865C12.5827 9.99878 12.6425 9.84725 12.6744 9.74357C12.7941 9.34482 12.6984 8.62307 12.5229 8.62307C12.499 8.62307 12.3634 8.73871 12.2159 8.88227Z" fill="#7B2BF9"/>
<path d="M11.1672 9.71566C11.0316 9.83529 10.2859 10.2978 9.70372 10.6248C9.45251 10.7644 9.24117 10.896 9.2332 10.9199C9.19332 11.0435 10.8402 11.1033 10.9877 10.9837C11.0555 10.9279 11.1751 10.581 11.2549 10.2181C11.2788 10.0985 11.3187 9.93099 11.3386 9.84725C11.4024 9.608 11.3426 9.56413 11.1672 9.71566Z" fill="#7B2BF9"/>
<path d="M8.336 11.3187C8.24828 11.4024 8.64304 12.1042 8.9461 12.4073C9.21326 12.6704 9.59606 12.7621 9.88317 12.6266C10.0985 12.5229 10.3577 12.2717 10.5531 11.9726C10.8442 11.534 10.8402 11.534 10.1902 11.534C9.65588 11.534 9.21725 11.4782 8.73077 11.3545C8.48354 11.2907 8.37189 11.2788 8.336 11.3187Z" fill="#7B2BF9"/>
<path d="M11.3944 11.4782C11.3067 11.5739 11.2589 11.7334 11.3147 11.7334C11.3506 11.7334 11.6536 11.4463 11.6536 11.4104C11.6536 11.3346 11.4862 11.3785 11.3944 11.4782Z" fill="#7B2BF9"/>
<path d="M7.28728 11.6935C7.04802 11.7732 6.7689 11.8649 6.66921 11.8889C6.49775 11.9367 6.42996 11.9527 6.01924 12.0484C5.91557 12.0723 5.75208 12.0922 5.65637 12.0922C5.44902 12.0922 5.35332 12.1241 5.35332 12.1879C5.35332 12.2438 6.07507 12.6066 6.41002 12.7223C6.63731 12.798 6.74896 12.8259 7.19556 12.9256C7.79768 13.0314 8.65102 12.9854 8.68292 12.9296C8.69488 12.9097 8.59918 12.7621 8.4636 12.6106C8.32404 12.4431 8.14061 12.164 8.02497 11.9327C7.91332 11.7134 7.80167 11.534 7.77376 11.538C7.74983 11.542 7.53052 11.6097 7.28728 11.6935Z" fill="#7B2BF9"/>
<path fill-rule="evenodd" clip-rule="evenodd" d="M8.00005 13.43C11 13.43 13.44 11 13.44 8.00003C13.44 4.98003 11 2.55003 8.00005 2.55003C4.99005 2.55003 2.55005 4.98 2.55005 8.00003C2.55005 11 4.99 13.43 8.00005 13.43ZM7.99413 13.433C11 13.433 13.4367 10.9962 13.4367 7.99037C13.4367 4.98452 11 2.54779 7.99413 2.54779C4.98827 2.54779 2.55154 4.98452 2.55154 7.99037C2.55154 10.9962 4.98827 13.433 7.99413 13.433Z" fill="#7B2BF9"/>
</g>
<defs>
<clipPath id="clip0_4802_101132">
<rect width="16" height="16" rx="4" fill="white"/>
</clipPath>
</defs>
</svg>
