<svg width="16" height="16" viewBox="0 0 16 16" fill="none" xmlns="http://www.w3.org/2000/svg">
<g clip-path="url(#clip0_4802_101132)">
<rect width="16" height="16" rx="4" fill="#7B2BF9"/>
<path d="M16 8C16 12.4183 12.4183 16 8 16C3.58172 16 0 12.4183 0 8C0 3.58172 3.58172 0 8 0C12.4183 0 16 3.58172 16 8Z" fill="#D9D9D9"/>
<path d="M7.20748 3.12423C7.11976 3.14417 6.96025 3.18006 6.8486 3.20398C6.39004 3.30367 5.87963 3.51103 5.44898 3.78218C5.11801 3.98554 5.07415 4.06131 5.30543 4.02143C5.83577 3.92573 6.6253 3.95763 7.30717 4.10517C7.45072 4.13308 7.65807 4.17694 7.77371 4.20486C7.88935 4.22878 8.00898 4.23676 8.04088 4.22479C8.07278 4.21283 8.18044 4.07726 8.28013 3.92972C8.37583 3.78218 8.55926 3.54691 8.68287 3.41134L8.91016 3.16012L8.8025 3.12025C8.6749 3.0724 7.4268 3.07638 7.20748 3.12423Z" fill="#7B2BF9"/>
<path d="M9.40062 3.49508C9.17732 3.59875 8.85433 3.91776 8.68685 4.20885C8.55925 4.42417 8.5752 4.46804 8.80648 4.55177C9.24112 4.70729 10.0227 5.12598 10.545 5.47688C11.1193 5.86367 11.207 5.9833 11.2229 6.4299C11.2389 6.7529 11.1831 6.80075 10.6128 6.96822C9.85121 7.19152 9.07364 7.50255 8.34791 7.87339C8.12062 7.98903 8.04087 8.01296 7.99701 7.98106C7.9372 7.92922 7.92523 7.65408 7.98106 7.5504C8.02492 7.47464 8.74268 7.11975 9.38467 6.86455C9.64386 6.76087 10.4493 6.49371 10.6886 6.4299C10.7883 6.40598 10.8561 6.3661 10.8441 6.33819C10.7883 6.16673 9.42056 5.32934 8.78255 5.07813C8.2243 4.85483 7.88536 4.74318 7.5185 4.65545C7.37097 4.61956 7.21146 4.58367 7.1676 4.57171C6.87651 4.49994 6.0152 4.4481 5.67227 4.48C4.64349 4.57969 4.02941 4.91863 3.71439 5.57258C3.63065 5.74804 3.61869 5.82779 3.62268 6.21059C3.62268 6.70903 3.68648 6.9443 3.96561 7.46667C4.23277 7.96511 4.72324 8.57121 5.12997 8.91015C5.4091 9.14542 5.44897 9.14143 5.80386 8.86629C5.93944 8.75863 6.27439 8.52735 6.54953 8.3519C6.82467 8.17645 7.10779 7.97707 7.17956 7.90529C7.29919 7.78567 7.30716 7.75776 7.30716 7.51452C7.30716 6.86853 7.62617 5.25358 7.80162 5.01433C7.84149 4.9585 7.88536 4.95053 7.99302 4.97047C8.24025 5.01433 8.25221 5.06617 8.1286 5.52473C7.83751 6.61732 7.76972 7.22343 7.79763 8.44361C7.82156 9.31688 7.84548 9.60399 7.94118 10.0984C8.05682 10.6806 8.05283 10.6926 7.75377 10.8202C7.56635 10.8999 7.35103 10.9159 7.23539 10.8601C6.70505 10.5969 6.69707 10.5889 6.25047 10.3377C5.30941 9.80735 4.3205 8.91414 3.76623 8.0967C3.61869 7.88536 3.35153 7.359 3.27576 7.1357C3.24785 7.05595 3.21196 6.98816 3.2 6.98816C3.09234 6.98816 3.03252 8.40772 3.12025 8.81445C3.14417 8.91813 3.18006 9.08959 3.20399 9.20124C3.33558 9.81134 3.79414 10.7763 3.95364 10.7763C3.98953 10.7763 4.08125 10.6687 4.16498 10.5251C4.36037 10.1902 4.81495 9.69969 4.93059 9.69969C5.04224 9.69969 5.19377 9.83925 5.19377 9.94293C5.19377 9.98679 5.11801 10.1064 5.02231 10.2101C4.6395 10.6288 4.44012 10.9717 4.42816 11.2269C4.4162 11.518 4.61558 11.6137 5.22567 11.6137C5.76797 11.6137 6.23452 11.522 7.0081 11.2708C8.32 10.8441 9.43651 10.2859 10.7165 9.41657C11.522 8.87028 11.4502 8.96199 11.4901 8.40374C11.5379 7.71389 11.4702 6.6891 11.3306 5.97134C11.1153 4.87078 10.6567 3.90978 10.2061 3.60673C9.85121 3.37146 9.71165 3.35153 9.40062 3.49508Z" fill="#7B2BF9"/>
<path d="M11.4143 4.45208C11.4143 4.46006 11.4702 4.63551 11.5379 4.84286C11.6695 5.2456 11.7333 5.47289 11.8171 5.86367C11.845 6.00324 11.8888 6.13084 11.9128 6.14679C11.9327 6.16673 12.1002 6.19464 12.2836 6.2066C12.5827 6.23451 12.6106 6.23053 12.6106 6.16274C12.6106 6.0471 12.4351 5.70816 12.1879 5.32934C11.8569 4.82691 11.4143 4.32448 11.4143 4.45208Z" fill="#7B2BF9"/>
<path d="M12.0922 6.76087C12.0922 6.79675 12.1441 6.88448 12.2039 6.95626C12.2677 7.02803 12.3953 7.19152 12.487 7.31513C12.5867 7.44672 12.6784 7.53445 12.7103 7.52249C12.7741 7.49457 12.8897 7.1995 12.8897 7.05993C12.8897 6.88847 12.6824 6.75688 12.3594 6.72498C12.1281 6.70105 12.0922 6.70504 12.0922 6.76087Z" fill="#7B2BF9"/>
<path d="M12.0125 7.9651C12.0125 8.17245 12.0284 8.34392 12.0444 8.34392C12.0962 8.34392 12.3315 8.08473 12.3315 8.03289C12.3315 7.97308 12.0842 7.58629 12.0444 7.58629C12.0244 7.58629 12.0125 7.75775 12.0125 7.9651Z" fill="#7B2BF9"/>
<path d="M6.88449 8.70679C6.40598 9.01782 5.87165 9.42455 5.87165 9.47639C5.87165 9.55215 6.46181 9.919 7.10779 10.242C7.43477 10.4055 7.44673 10.4095 7.46268 10.3257C7.46667 10.2779 7.45471 10.1503 7.43477 10.0386C7.35502 9.66779 7.30717 9.20523 7.30717 8.85034C7.30717 8.58318 7.2952 8.50343 7.25134 8.50343C7.22343 8.50343 7.05595 8.59514 6.88449 8.70679Z" fill="#7B2BF9"/>
<path d="M12.2158 8.88224C11.9487 9.13744 11.9487 9.14143 11.8968 9.44847C11.837 9.81532 11.7892 10.0586 11.7054 10.4294C11.6257 10.7604 11.6576 10.8162 11.8729 10.7125C12.0803 10.6168 12.4391 10.2739 12.5348 10.0865C12.5827 9.99875 12.6425 9.84722 12.6744 9.74354C12.794 9.34479 12.6983 8.62305 12.5229 8.62305C12.4989 8.62305 12.3634 8.73869 12.2158 8.88224Z" fill="#7B2BF9"/>
<path d="M11.1671 9.71563C11.0315 9.83526 10.2859 10.2978 9.70368 10.6248C9.45246 10.7644 9.24112 10.8959 9.23315 10.9199C9.19327 11.0435 10.8401 11.1033 10.9877 10.9837C11.0555 10.9278 11.1751 10.5809 11.2548 10.2181C11.2788 10.0984 11.3186 9.93096 11.3386 9.84722C11.4024 9.60797 11.3426 9.56411 11.1671 9.71563Z" fill="#7B2BF9"/>
<path d="M8.33595 11.3186C8.24823 11.4024 8.64299 12.1042 8.94605 12.4072C9.21321 12.6704 9.59601 12.7621 9.88312 12.6265C10.0984 12.5229 10.3576 12.2716 10.553 11.9726C10.8441 11.534 10.8401 11.534 10.1902 11.534C9.65583 11.534 9.2172 11.4781 8.73072 11.3545C8.48349 11.2907 8.37184 11.2787 8.33595 11.3186Z" fill="#7B2BF9"/>
<path d="M11.3944 11.4781C11.3067 11.5738 11.2588 11.7333 11.3146 11.7333C11.3505 11.7333 11.6536 11.4462 11.6536 11.4103C11.6536 11.3346 11.4861 11.3784 11.3944 11.4781Z" fill="#7B2BF9"/>
<path d="M7.28723 11.6935C7.04798 11.7732 6.76885 11.8649 6.66916 11.8888C6.4977 11.9367 6.42991 11.9526 6.01919 12.0483C5.91551 12.0723 5.75203 12.0922 5.65633 12.0922C5.44897 12.0922 5.35327 12.1241 5.35327 12.1879C5.35327 12.2437 6.07502 12.6066 6.40997 12.7222C6.63726 12.798 6.74891 12.8259 7.19551 12.9256C7.43477 12.9814 8.65097 12.9854 8.68287 12.9296C8.69483 12.9097 8.59913 12.7621 8.46355 12.6106C8.32399 12.4431 8.14056 12.164 8.02492 11.9327C7.91327 11.7134 7.80162 11.534 7.77371 11.5379C7.74978 11.5419 7.53047 11.6097 7.28723 11.6935Z" fill="#7B2BF9"/>
<path fill-rule="evenodd" clip-rule="evenodd" d="M8 16C12.4183 16 16 12.4183 16 8C16 3.58172 12.4183 0 8 0C3.58172 0 0 3.58172 0 8C0 12.4183 3.58172 16 8 16ZM7.99408 13.4329C10.9999 13.4329 13.4367 10.9962 13.4367 7.99035C13.4367 4.98449 10.9999 2.54776 7.99408 2.54776C4.98822 2.54776 2.55149 4.98449 2.55149 7.99035C2.55149 10.9962 4.98822 13.4329 7.99408 13.4329Z" fill="#7B2BF9"/>
</g>
<defs>
<clipPath id="clip0_4802_101132">
<rect width="16" height="16" rx="4" fill="white"/>
</clipPath>
</defs>
</svg>
