<svg width="17" height="16" viewBox="0 0 17 16" fill="none" xmlns="http://www.w3.org/2000/svg">
<g clip-path="url(#clip0_1738_8837)">
<rect x="0.466675" width="16" height="16" rx="4" fill="white" fill-opacity="0.08"/>
<path d="M8.30216 13.4519C5.08442 13.4519 2.46667 10.8406 2.46667 7.63097C2.46667 4.42129 5.08442 1.81 8.30216 1.81C11.5199 1.81 14.1376 4.42129 14.1376 7.63097C14.1376 10.8406 11.5199 13.4519 8.30216 13.4519ZM8.30216 2.25677C5.33119 2.25677 2.91345 4.66806 2.91345 7.63258C2.91345 10.5971 5.33119 13.0068 8.30216 13.0068C11.2731 13.0068 13.6909 10.5955 13.6909 7.63258C13.6909 4.66967 11.2731 2.25677 8.30216 2.25677Z" fill="url(#paint0_linear_1738_8837)"/>
<path fill-rule="evenodd" clip-rule="evenodd" d="M5.2699 3.71967C5.2699 4.25516 4.83603 4.68903 4.30055 4.68903C3.76506 4.68903 3.33119 4.25516 3.33119 3.71967C3.33119 3.18419 3.76506 2.75032 4.30055 2.75032C4.83603 2.75032 5.2699 3.18419 5.2699 3.71967Z" fill="url(#paint1_linear_1738_8837)"/>
<path fill-rule="evenodd" clip-rule="evenodd" d="M8.5199 13.2294C8.5199 13.7648 8.08603 14.1987 7.55055 14.1987C7.01506 14.1987 6.58119 13.7648 6.58119 13.2294C6.58119 12.6939 7.01506 12.2616 7.55055 12.2616C8.08603 12.2616 8.5199 12.6955 8.5199 13.2294Z" fill="url(#paint2_linear_1738_8837)"/>
<path fill-rule="evenodd" clip-rule="evenodd" d="M14.4667 5.65677C14.4667 6.19226 14.0328 6.62613 13.4973 6.62613C12.9618 6.62613 12.528 6.19387 12.528 5.65677C12.528 5.11967 12.9618 4.68742 13.4973 4.68742C14.0328 4.68742 14.4667 5.12129 14.4667 5.65677Z" fill="url(#paint3_linear_1738_8837)"/>
<path d="M9.89571 10.8552C10.2973 10.6552 10.657 10.3842 10.9554 10.0552V5.28258C10.657 4.95193 10.2989 4.67935 9.89571 4.47935V7.43258H6.68119V4.50032C6.28119 4.70677 5.92474 4.9858 5.62958 5.32129V7.96322C5.62958 8.0358 5.64409 8.10516 5.6699 8.16967C5.69732 8.23419 5.73442 8.29064 5.78119 8.33742C5.82797 8.38419 5.88442 8.4229 5.94893 8.45032C6.01345 8.47935 6.08442 8.49387 6.15861 8.49387H9.89409V10.8568L9.89571 10.8552Z" fill="url(#paint4_linear_1738_8837)"/>
</g>
<defs>
<linearGradient id="paint0_linear_1738_8837" x1="5.47165" y1="2.63728" x2="11.774" y2="13.1838" gradientUnits="userSpaceOnUse">
<stop stop-color="#81BB27"/>
<stop offset="1" stop-color="#188035"/>
</linearGradient>
<linearGradient id="paint1_linear_1738_8837" x1="2.47666" y1="8.00435" x2="14.4667" y2="8.00435" gradientUnits="userSpaceOnUse">
<stop stop-color="#81BB27"/>
<stop offset="1" stop-color="#188035"/>
</linearGradient>
<linearGradient id="paint2_linear_1738_8837" x1="2.47666" y1="7.99919" x2="14.4667" y2="7.99919" gradientUnits="userSpaceOnUse">
<stop stop-color="#81BB27"/>
<stop offset="1" stop-color="#188035"/>
</linearGradient>
<linearGradient id="paint3_linear_1738_8837" x1="2.47666" y1="8.00435" x2="14.4667" y2="8.00435" gradientUnits="userSpaceOnUse">
<stop stop-color="#81BB27"/>
<stop offset="1" stop-color="#188035"/>
</linearGradient>
<linearGradient id="paint4_linear_1738_8837" x1="5.62958" y1="7.66645" x2="10.9554" y2="7.66645" gradientUnits="userSpaceOnUse">
<stop offset="0.35" stop-color="#76B82A"/>
<stop offset="1" stop-color="#00773C"/>
</linearGradient>
<clipPath id="clip0_1738_8837">
<rect x="0.466675" width="16" height="16" rx="4" fill="white"/>
</clipPath>
</defs>
</svg>
