<svg width="16" height="16" viewBox="0 0 16 16" fill="none" xmlns="http://www.w3.org/2000/svg">
<g clip-path="url(#clip0_1738_8837)">
<rect width="16" height="16" rx="4" fill="white" fill-opacity="0.08"/>
<path d="M7.83548 13.6419C4.61774 13.6419 2 11.0306 2 7.82097C2 4.61129 4.61774 2 7.83548 2C11.0532 2 13.671 4.61129 13.671 7.82097C13.671 11.0306 11.0532 13.6419 7.83548 13.6419ZM7.83548 2.44677C4.86452 2.44677 2.44677 4.85806 2.44677 7.82258C2.44677 10.7871 4.86452 13.1968 7.83548 13.1968C10.8065 13.1968 13.2242 10.7855 13.2242 7.82258C13.2242 4.85968 10.8065 2.44677 7.83548 2.44677Z" fill="url(#paint0_linear_1738_8837)"/>
<path fill-rule="evenodd" clip-rule="evenodd" d="M4.80323 3.90968C4.80323 4.44516 4.36935 4.87903 3.83387 4.87903C3.29839 4.87903 2.86452 4.44516 2.86452 3.90968C2.86452 3.37419 3.29839 2.94032 3.83387 2.94032C4.36935 2.94032 4.80323 3.37419 4.80323 3.90968Z" fill="url(#paint1_linear_1738_8837)"/>
<path fill-rule="evenodd" clip-rule="evenodd" d="M8.05323 13.4194C8.05323 13.9548 7.61935 14.3887 7.08387 14.3887C6.54839 14.3887 6.11452 13.9548 6.11452 13.4194C6.11452 12.8839 6.54839 12.4516 7.08387 12.4516C7.61935 12.4516 8.05323 12.8855 8.05323 13.4194Z" fill="url(#paint2_linear_1738_8837)"/>
<path fill-rule="evenodd" clip-rule="evenodd" d="M14 5.84677C14 6.38226 13.5661 6.81613 13.0306 6.81613C12.4952 6.81613 12.0613 6.38387 12.0613 5.84677C12.0613 5.30968 12.4952 4.87742 13.0306 4.87742C13.5661 4.87742 14 5.31129 14 5.84677Z" fill="url(#paint3_linear_1738_8837)"/>
<path d="M9.42903 11.0452C9.83064 10.8452 10.1903 10.5742 10.4887 10.2452V5.47258C10.1903 5.14194 9.83226 4.86935 9.42903 4.66935V7.62258H6.21452V4.69032C5.81452 4.89677 5.45806 5.17581 5.1629 5.51129V8.15323C5.1629 8.22581 5.17742 8.29516 5.20323 8.35968C5.23065 8.42419 5.26774 8.48065 5.31452 8.52742C5.36129 8.57419 5.41774 8.6129 5.48226 8.64032C5.54677 8.66935 5.61774 8.68387 5.69194 8.68387H9.42742V11.0468L9.42903 11.0452Z" fill="url(#paint4_linear_1738_8837)"/>
</g>
<defs>
<linearGradient id="paint0_linear_1738_8837" x1="5.00497" y1="2.82729" x2="11.3074" y2="13.3738" gradientUnits="userSpaceOnUse">
<stop stop-color="#81BB27"/>
<stop offset="1" stop-color="#188035"/>
</linearGradient>
<linearGradient id="paint1_linear_1738_8837" x1="2.00998" y1="8.19435" x2="14" y2="8.19435" gradientUnits="userSpaceOnUse">
<stop stop-color="#81BB27"/>
<stop offset="1" stop-color="#188035"/>
</linearGradient>
<linearGradient id="paint2_linear_1738_8837" x1="2.00998" y1="8.1892" x2="14" y2="8.1892" gradientUnits="userSpaceOnUse">
<stop stop-color="#81BB27"/>
<stop offset="1" stop-color="#188035"/>
</linearGradient>
<linearGradient id="paint3_linear_1738_8837" x1="2.00998" y1="8.19435" x2="14" y2="8.19435" gradientUnits="userSpaceOnUse">
<stop stop-color="#81BB27"/>
<stop offset="1" stop-color="#188035"/>
</linearGradient>
<linearGradient id="paint4_linear_1738_8837" x1="5.1629" y1="7.85645" x2="10.4887" y2="7.85645" gradientUnits="userSpaceOnUse">
<stop offset="0.35" stop-color="#76B82A"/>
<stop offset="1" stop-color="#00773C"/>
</linearGradient>
<clipPath id="clip0_1738_8837">
<rect width="16" height="16" rx="4" fill="white"/>
</clipPath>
</defs>
</svg>
