<svg width="16" height="16" viewBox="0 0 16 16" fill="none" xmlns="http://www.w3.org/2000/svg">
<g clip-path="url(#clip0_1738_8942)">
<rect width="16" height="16" rx="4" fill="white" fill-opacity="0.08"/>
<path d="M13.7752 8.17429C13.7752 11.4652 10.8674 13.6293 8.65849 13.9573C8.44046 13.9899 8.27948 13.996 8.21427 13.9981C5.80569 14.0735 2.12557 11.9155 2.12557 8.17429C2.12353 5.02805 4.7257 2.35049 7.94937 2.35049C11.1669 2.35049 13.7752 4.95877 13.7752 8.17429Z" fill="#F0A841"/>
<path d="M13.9077 7.82584C13.9077 11.1168 10.9998 13.2808 8.79095 13.6089C8.57291 13.6415 8.41193 13.6476 8.34673 13.6496C5.94018 13.725 2.2621 11.5671 2.26006 7.82584C2.25802 4.6796 4.85815 2 8.08386 2C11.2994 2 13.9077 4.60828 13.9077 7.82584Z" fill="#FFD056"/>
<path d="M12.2653 7.68524C12.3101 9.52937 10.9672 11.1392 9.35947 11.5854C6.92032 12.262 4.0023 10.2222 4.02268 7.68524C4.04102 5.68827 5.87701 3.77282 8.14295 3.77282C10.3294 3.77485 12.2143 5.55786 12.2653 7.68524Z" fill="#F0A841"/>
<path d="M9.4695 4.83854C9.52045 4.97711 9.6692 5.03009 9.77924 5.11363C10.6045 5.75348 11.2219 6.52577 11.6417 7.43256C11.7477 7.66282 11.7966 7.91142 11.927 8.13353C11.929 8.1315 11.9331 8.12946 11.9351 8.12946C11.9392 8.12742 11.9392 8.12538 11.9392 8.12335C11.9514 8.10704 12.844 7.29196 13.3452 6.19974C13.4492 5.97355 13.6591 5.50691 13.7324 4.86707C13.8363 3.96436 13.5612 3.67093 13.5857 3.01275C13.5877 2.97811 13.5918 2.89048 13.5368 2.81509C13.4125 2.63984 13.0763 2.67245 12.8073 2.71728C12.0004 2.8538 11.2179 2.98626 10.4211 3.66278C10.1664 3.88082 9.78943 4.25779 9.4695 4.83854Z" fill="#3D3C3A"/>
<path d="M6.38644 4.95877C6.33549 5.09733 6.18674 5.15031 6.07671 5.23386C5.25143 5.8737 4.634 6.646 4.21423 7.55278C4.10827 7.78304 4.05936 8.03165 3.92895 8.25376C3.92691 8.25172 3.92284 8.24968 3.9208 8.24968C3.91672 8.24765 3.91672 8.24561 3.91672 8.24357C3.9045 8.22727 3.01198 7.41218 2.5107 6.31996C2.40677 6.09378 2.19689 5.62714 2.12353 4.98729C2.01961 4.08458 2.2947 3.79115 2.27025 3.13297C2.26821 3.09833 2.26413 3.01071 2.31915 2.93531C2.44345 2.76007 2.77968 2.79267 3.04865 2.8375C3.85559 2.97403 4.63808 3.10648 5.43482 3.783C5.68954 4.00308 6.06855 4.37802 6.38644 4.95877Z" fill="#3D3C3A"/>
<path d="M6.20508 5.22163C6.16432 5.33982 6.04817 5.38465 5.96259 5.45597C5.31256 6.00004 4.82554 6.65822 4.49543 7.43052C4.41188 7.62614 4.37317 7.83806 4.27128 8.02757C4.26721 8.02553 4.26109 8.02146 4.26109 8.01942C4.2183 7.68931 4.02675 7.43867 3.83317 7.1758C3.43582 6.63581 3.25853 6.00208 3.13016 5.35816C3.01808 4.79982 2.97937 4.23537 2.9651 3.66685C2.96103 3.48549 3.00993 3.44882 3.18925 3.48549C4.39354 3.7341 5.40018 4.31077 6.20508 5.22163Z" fill="#FFD056"/>
<path d="M9.9443 5.14216C9.98302 5.26035 10.1012 5.30518 10.1868 5.37854C10.8327 5.92668 11.3157 6.58691 11.6417 7.36124C11.7253 7.5589 11.7619 7.76878 11.8618 7.95829C11.8659 7.95625 11.872 7.95218 11.872 7.95014C11.9168 7.62003 12.1084 7.37143 12.304 7.10856C12.7034 6.5706 12.8847 5.93891 13.0172 5.29499C13.1333 4.73869 13.1761 4.17221 13.1924 3.60572C13.1985 3.42436 13.1496 3.38565 12.9683 3.42233C11.764 3.66482 10.7553 4.23538 9.9443 5.14216Z" fill="#FFD056"/>
<path d="M9.79758 5.43559C9.83426 5.53952 9.94429 5.57823 10.0238 5.6414C10.6269 6.11823 11.0793 6.69083 11.387 7.36531C11.4644 7.53648 11.5011 7.72191 11.5948 7.88697C11.5989 7.88493 11.605 7.88289 11.605 7.87882C11.6458 7.5915 11.8231 7.37142 12.0024 7.14116C12.3712 6.66841 12.5363 6.11619 12.6565 5.55378C12.7604 5.06676 12.7971 4.5716 12.8114 4.07643C12.8154 3.91749 12.7706 3.88489 12.6035 3.91749C11.4787 4.13553 10.5454 4.64088 9.79758 5.43559Z" fill="white"/>
<path d="M6.40682 5.56601C6.37014 5.66993 6.2601 5.70865 6.18063 5.77182C5.57747 6.24864 5.12509 6.82124 4.8174 7.49573C4.73996 7.6669 4.70329 7.85233 4.60955 8.01738C4.60548 8.01535 4.59936 8.01331 4.59936 8.00923C4.55861 7.72192 4.38133 7.50184 4.20201 7.27158C3.83318 6.79883 3.66812 6.24661 3.5479 5.6842C3.44398 5.19718 3.4073 4.70202 3.39303 4.20685C3.38896 4.04791 3.43379 4.0153 3.60088 4.04791C4.7257 4.26391 5.66101 4.76926 6.40682 5.56601Z" fill="white"/>
<path d="M8.04107 11.9094C10.3166 11.9094 12.1613 10.1578 12.1613 7.99701C12.1613 5.83624 10.3166 4.08459 8.04107 4.08459C5.76551 4.08459 3.9208 5.83624 3.9208 7.99701C3.9208 10.1578 5.76551 11.9094 8.04107 11.9094Z" fill="#3D3C3A"/>
<path d="M5.78939 10.1835C6.5963 10.1835 7.25043 9.52935 7.25043 8.72243C7.25043 7.91552 6.5963 7.26139 5.78939 7.26139C4.98248 7.26139 4.32834 7.91552 4.32834 8.72243C4.32834 9.52935 4.98248 10.1835 5.78939 10.1835Z" fill="#FFD056"/>
<path d="M5.82403 9.77594C6.46326 9.77594 6.98145 9.25774 6.98145 8.61851C6.98145 7.97928 6.46326 7.46109 5.82403 7.46109C5.1848 7.46109 4.66661 7.97928 4.66661 8.61851C4.66661 9.25774 5.1848 9.77594 5.82403 9.77594Z" fill="#3D3C3A"/>
<path d="M10.9672 10.1081C11.7741 10.1081 12.4283 9.45395 12.4283 8.64704C12.4283 7.84013 11.7741 7.18599 10.9672 7.18599C10.1603 7.18599 9.50619 7.84013 9.50619 8.64704C9.50619 9.45395 10.1603 10.1081 10.9672 10.1081Z" fill="#FFD056"/>
<path d="M11.0019 9.70054C11.6411 9.70054 12.1593 9.18234 12.1593 8.54312C12.1593 7.90389 11.6411 7.38569 11.0019 7.38569C10.3626 7.38569 9.84444 7.90389 9.84444 8.54312C9.84444 9.18234 10.3626 9.70054 11.0019 9.70054Z" fill="#3D3C3A"/>
<path d="M11.3096 8.34749C11.5009 8.34749 11.656 8.1924 11.656 8.00108C11.656 7.80976 11.5009 7.65467 11.3096 7.65467C11.1183 7.65467 10.9632 7.80976 10.9632 8.00108C10.9632 8.1924 11.1183 8.34749 11.3096 8.34749Z" fill="#FFF8E8"/>
<path d="M10.4942 9.45781C10.5121 9.34783 10.4374 9.24421 10.3274 9.22636C10.2174 9.20851 10.1138 9.28319 10.096 9.39317C10.0781 9.50315 10.1528 9.60677 10.2628 9.62462C10.3727 9.64247 10.4764 9.56778 10.4942 9.45781Z" fill="#FFF8E8"/>
<path d="M7.84952 12.1703C7.92491 12.2966 8.16536 12.698 8.60144 12.698C8.91321 12.698 9.20867 12.4881 9.35132 12.1723C9.38188 12.0663 9.47562 11.7118 9.29222 11.4387C8.956 10.9395 7.91472 11.0291 7.70484 11.4509C7.57239 11.7138 7.78635 12.0663 7.84952 12.1703Z" fill="#FF7456"/>
<path d="M10.2235 10.7133C10.2887 11.1168 10.1297 11.5324 9.85464 11.8035C9.63253 12.0235 9.388 12.0949 9.17608 12.154C8.98861 12.2069 8.03699 12.4718 7.30137 11.8911C7.19134 11.8055 6.72878 11.4387 6.70636 10.8783C6.69413 10.5768 6.8164 10.3424 6.89179 10.1977C7.1567 9.70054 7.45624 9.6985 7.70281 9.37858C8.29171 8.6124 7.6865 7.17785 8.07163 6.65008C8.10627 6.60117 8.20612 6.46668 8.34265 6.46464C8.4751 6.46261 8.57699 6.58894 8.61367 6.63377C9.02936 7.14932 8.57087 8.64093 9.23925 9.38673C9.44302 9.61496 9.70385 9.71888 9.98505 10.1672C10.0951 10.3383 10.1868 10.4912 10.2235 10.7133Z" fill="white"/>
<path d="M8.49751 11.0617C8.308 11.0189 8.15314 10.915 8.14295 10.9069C8.00642 10.8152 7.84136 10.7031 7.85359 10.5645C7.8597 10.4973 7.90453 10.4463 7.91472 10.4362C7.96567 10.3832 8.03495 10.3648 8.15314 10.3363C8.16944 10.3322 8.19185 10.3261 8.22242 10.322C8.52196 10.267 8.85004 10.3057 8.85004 10.3057C8.91524 10.3139 8.98453 10.3241 9.05788 10.3404C9.11494 10.3526 9.16996 10.3669 9.21886 10.3811C9.27796 10.3954 9.32482 10.4362 9.34113 10.4912C9.35947 10.5543 9.3289 10.6073 9.32483 10.6175C9.24943 10.754 9.16181 10.8457 9.10068 10.8987C9.02732 10.9639 8.94173 11.0393 8.81336 11.0679C8.73389 11.0862 8.65441 11.0821 8.63608 11.0821C8.6157 11.0801 8.56476 11.076 8.49751 11.0617Z" fill="#3D3C3A"/>
<path d="M6.12968 8.42289C6.321 8.42289 6.4761 8.2678 6.4761 8.07648C6.4761 7.88516 6.321 7.73006 6.12968 7.73006C5.93837 7.73006 5.78327 7.88516 5.78327 8.07648C5.78327 8.2678 5.93837 8.42289 6.12968 8.42289Z" fill="#FFF8E8"/>
<path d="M5.28199 9.70258C5.39341 9.70258 5.48373 9.61226 5.48373 9.50084C5.48373 9.38943 5.39341 9.29911 5.28199 9.29911C5.17058 9.29911 5.08026 9.38943 5.08026 9.50084C5.08026 9.61226 5.17058 9.70258 5.28199 9.70258Z" fill="#FFF8E8"/>
</g>
<defs>
<clipPath id="clip0_1738_8942">
<rect width="16" height="16" rx="4" fill="white"/>
</clipPath>
</defs>
</svg>
