<svg width="17" height="16" viewBox="0 0 17 16" fill="none" xmlns="http://www.w3.org/2000/svg">
<g clip-path="url(#clip0_1738_8942)">
<rect x="0.466675" width="16" height="16" rx="4" fill="white" fill-opacity="0.08"/>
<path d="M14.2419 8.17429C14.2419 11.4652 11.3341 13.6293 9.12517 13.9573C8.90713 13.9899 8.74615 13.996 8.68095 13.9981C6.27236 14.0735 2.59224 11.9155 2.59224 8.17429C2.5902 5.02805 5.19237 2.35049 8.41604 2.35049C11.6336 2.35049 14.2419 4.95877 14.2419 8.17429Z" fill="#F0A841"/>
<path d="M14.3743 7.82584C14.3743 11.1168 11.4665 13.2808 9.25762 13.6089C9.03959 13.6415 8.87861 13.6476 8.8134 13.6496C6.40686 13.725 2.72877 11.5671 2.72673 7.82584C2.7247 4.6796 5.32483 2 8.55054 2C11.7661 2 14.3743 4.60828 14.3743 7.82584Z" fill="#FFD056"/>
<path d="M12.7319 7.68524C12.7768 9.52937 11.4339 11.1392 9.82614 11.5854C7.38699 12.262 4.46898 10.2222 4.48936 7.68524C4.5077 5.68827 6.34368 3.77282 8.60962 3.77282C10.7961 3.77485 12.681 5.55786 12.7319 7.68524Z" fill="#F0A841"/>
<path d="M9.93618 4.83854C9.98712 4.97711 10.1359 5.03009 10.2459 5.11363C11.0712 5.75348 11.6886 6.52577 12.1084 7.43256C12.2143 7.66282 12.2633 7.91142 12.3937 8.13353C12.3957 8.1315 12.3998 8.12946 12.4018 8.12946C12.4059 8.12742 12.4059 8.12538 12.4059 8.12335C12.4181 8.10704 13.3106 7.29196 13.8119 6.19974C13.9158 5.97355 14.1257 5.50691 14.1991 4.86707C14.303 3.96436 14.0279 3.67093 14.0524 3.01275C14.0544 2.97811 14.0585 2.89048 14.0035 2.81509C13.8792 2.63984 13.5429 2.67245 13.274 2.71728C12.467 2.8538 11.6845 2.98626 10.8878 3.66278C10.6331 3.88082 10.2561 4.25779 9.93618 4.83854Z" fill="#3D3C3A"/>
<path d="M6.85311 4.95877C6.80217 5.09733 6.65342 5.15031 6.54338 5.23386C5.7181 5.8737 5.10067 6.646 4.6809 7.55278C4.57494 7.78304 4.52604 8.03165 4.39562 8.25376C4.39359 8.25172 4.38951 8.24968 4.38747 8.24968C4.3834 8.24765 4.3834 8.24561 4.3834 8.24357C4.37117 8.22727 3.47865 7.41218 2.97737 6.31996C2.87345 6.09378 2.66356 5.62714 2.5902 4.98729C2.48628 4.08458 2.76137 3.79115 2.73692 3.13297C2.73488 3.09833 2.73081 3.01071 2.78583 2.93531C2.91013 2.76007 3.24635 2.79267 3.51533 2.8375C4.32227 2.97403 5.10475 3.10648 5.9015 3.783C6.15621 4.00308 6.53523 4.37802 6.85311 4.95877Z" fill="#3D3C3A"/>
<path d="M6.67175 5.22163C6.631 5.33982 6.51485 5.38465 6.42926 5.45597C5.77923 6.00004 5.29222 6.65822 4.9621 7.43052C4.87856 7.62614 4.83984 7.83806 4.73796 8.02757C4.73388 8.02553 4.72777 8.02146 4.72777 8.01942C4.68498 7.68931 4.49343 7.43867 4.29985 7.1758C3.90249 6.63581 3.72521 6.00208 3.59683 5.35816C3.48476 4.79982 3.44604 4.23537 3.43178 3.66685C3.4277 3.48549 3.47661 3.44882 3.65593 3.48549C4.86022 3.7341 5.86685 4.31077 6.67175 5.22163Z" fill="#FFD056"/>
<path d="M10.411 5.14216C10.4497 5.26035 10.5679 5.30518 10.6535 5.37854C11.2994 5.92668 11.7824 6.58691 12.1084 7.36124C12.1919 7.5589 12.2286 7.76878 12.3285 7.95829C12.3325 7.95625 12.3387 7.95218 12.3387 7.95014C12.3835 7.62003 12.575 7.37143 12.7707 7.10856C13.17 6.5706 13.3514 5.93891 13.4839 5.29499C13.6 4.73869 13.6428 4.17221 13.6591 3.60572C13.6652 3.42436 13.6163 3.38565 13.4349 3.42233C12.2307 3.66482 11.222 4.23538 10.411 5.14216Z" fill="#FFD056"/>
<path d="M10.2643 5.43559C10.3009 5.53952 10.411 5.57823 10.4904 5.6414C11.0936 6.11823 11.546 6.69083 11.8537 7.36531C11.9311 7.53648 11.9678 7.72191 12.0615 7.88697C12.0656 7.88493 12.0717 7.88289 12.0717 7.87882C12.1125 7.5915 12.2897 7.37142 12.4691 7.14116C12.8379 6.66841 13.0029 6.11619 13.1232 5.55378C13.2271 5.06676 13.2638 4.5716 13.278 4.07643C13.2821 3.91749 13.2373 3.88489 13.0702 3.91749C11.9454 4.13553 11.0121 4.64088 10.2643 5.43559Z" fill="white"/>
<path d="M6.87349 5.56601C6.83682 5.66993 6.72678 5.70865 6.64731 5.77182C6.04414 6.24864 5.59177 6.82124 5.28407 7.49573C5.20664 7.6669 5.16996 7.85233 5.07623 8.01738C5.07215 8.01535 5.06604 8.01331 5.06604 8.00923C5.02528 7.72192 4.848 7.50184 4.66868 7.27158C4.29985 6.79883 4.1348 6.24661 4.01457 5.6842C3.91065 5.19718 3.87397 4.70202 3.85971 4.20685C3.85563 4.04791 3.90046 4.0153 4.06755 4.04791C5.19238 4.26391 6.12769 4.76926 6.87349 5.56601Z" fill="white"/>
<path d="M8.50774 11.9094C10.7833 11.9094 12.628 10.1578 12.628 7.99701C12.628 5.83624 10.7833 4.08459 8.50774 4.08459C6.23218 4.08459 4.38747 5.83624 4.38747 7.99701C4.38747 10.1578 6.23218 11.9094 8.50774 11.9094Z" fill="#3D3C3A"/>
<path d="M6.25606 10.1835C7.06298 10.1835 7.71711 9.52935 7.71711 8.72243C7.71711 7.91552 7.06298 7.26139 6.25606 7.26139C5.44915 7.26139 4.79502 7.91552 4.79502 8.72243C4.79502 9.52935 5.44915 10.1835 6.25606 10.1835Z" fill="#FFD056"/>
<path d="M6.29071 9.77594C6.92993 9.77594 7.44813 9.25774 7.44813 8.61851C7.44813 7.97928 6.92993 7.46109 6.29071 7.46109C5.65148 7.46109 5.13328 7.97928 5.13328 8.61851C5.13328 9.25774 5.65148 9.77594 6.29071 9.77594Z" fill="#3D3C3A"/>
<path d="M11.4339 10.1081C12.2408 10.1081 12.895 9.45395 12.895 8.64704C12.895 7.84013 12.2408 7.18599 11.4339 7.18599C10.627 7.18599 9.97286 7.84013 9.97286 8.64704C9.97286 9.45395 10.627 10.1081 11.4339 10.1081Z" fill="#FFD056"/>
<path d="M11.4685 9.70054C12.1078 9.70054 12.626 9.18234 12.626 8.54312C12.626 7.90389 12.1078 7.38569 11.4685 7.38569C10.8293 7.38569 10.3111 7.90389 10.3111 8.54312C10.3111 9.18234 10.8293 9.70054 11.4685 9.70054Z" fill="#3D3C3A"/>
<path d="M11.7762 8.34749C11.9676 8.34749 12.1227 8.1924 12.1227 8.00108C12.1227 7.80976 11.9676 7.65467 11.7762 7.65467C11.5849 7.65467 11.4298 7.80976 11.4298 8.00108C11.4298 8.1924 11.5849 8.34749 11.7762 8.34749Z" fill="#FFF8E8"/>
<path d="M10.9609 9.45781C10.9787 9.34783 10.9041 9.24421 10.7941 9.22636C10.6841 9.20851 10.5805 9.28319 10.5626 9.39317C10.5448 9.50315 10.6195 9.60677 10.7294 9.62462C10.8394 9.64247 10.943 9.56778 10.9609 9.45781Z" fill="#FFF8E8"/>
<path d="M8.31619 12.1703C8.39159 12.2966 8.63204 12.698 9.06811 12.698C9.37988 12.698 9.67535 12.4881 9.81799 12.1723C9.84856 12.0663 9.94229 11.7118 9.7589 11.4387C9.42267 10.9395 8.3814 11.0291 8.17151 11.4509C8.03906 11.7138 8.25302 12.0663 8.31619 12.1703Z" fill="#FF7456"/>
<path d="M10.6901 10.7133C10.7553 11.1168 10.5964 11.5324 10.3213 11.8035C10.0992 12.0235 9.85467 12.0949 9.64275 12.154C9.45528 12.2069 8.50367 12.4718 7.76805 11.8911C7.65801 11.8055 7.19545 11.4387 7.17304 10.8783C7.16081 10.5768 7.28307 10.3424 7.35847 10.1977C7.62337 9.70054 7.92292 9.6985 8.16948 9.37858C8.75838 8.6124 8.15318 7.17785 8.53831 6.65008C8.57295 6.60117 8.6728 6.46668 8.80932 6.46464C8.94178 6.46261 9.04366 6.58894 9.08034 6.63377C9.49604 7.14932 9.03755 8.64093 9.70592 9.38673C9.90969 9.61496 10.1705 9.71888 10.4517 10.1672C10.5618 10.3383 10.6535 10.4912 10.6901 10.7133Z" fill="white"/>
<path d="M8.96419 11.0617C8.77468 11.0189 8.61981 10.915 8.60962 10.9069C8.4731 10.8152 8.30804 10.7031 8.32027 10.5645C8.32638 10.4973 8.37121 10.4463 8.3814 10.4362C8.43234 10.3832 8.50162 10.3648 8.61981 10.3363C8.63611 10.3322 8.65853 10.3261 8.68909 10.322C8.98864 10.267 9.31671 10.3057 9.31671 10.3057C9.38192 10.3139 9.4512 10.3241 9.52456 10.3404C9.58161 10.3526 9.63663 10.3669 9.68554 10.3811C9.74463 10.3954 9.7915 10.4362 9.8078 10.4912C9.82614 10.5543 9.79558 10.6073 9.7915 10.6175C9.7161 10.754 9.62848 10.8457 9.56735 10.8987C9.49399 10.9639 9.40841 11.0393 9.28003 11.0679C9.20056 11.0862 9.12109 11.0821 9.10275 11.0821C9.08237 11.0801 9.03143 11.076 8.96419 11.0617Z" fill="#3D3C3A"/>
<path d="M6.59636 8.42289C6.78768 8.42289 6.94277 8.2678 6.94277 8.07648C6.94277 7.88516 6.78768 7.73006 6.59636 7.73006C6.40504 7.73006 6.24995 7.88516 6.24995 8.07648C6.24995 8.2678 6.40504 8.42289 6.59636 8.42289Z" fill="#FFF8E8"/>
<path d="M5.74867 9.70258C5.86008 9.70258 5.9504 9.61226 5.9504 9.50084C5.9504 9.38943 5.86008 9.29911 5.74867 9.29911C5.63725 9.29911 5.54693 9.38943 5.54693 9.50084C5.54693 9.61226 5.63725 9.70258 5.74867 9.70258Z" fill="#FFF8E8"/>
</g>
<defs>
<clipPath id="clip0_1738_8942">
<rect x="0.466675" width="16" height="16" rx="4" fill="white"/>
</clipPath>
</defs>
</svg>
