<svg width="17" height="16" viewBox="0 0 17 16" fill="none" xmlns="http://www.w3.org/2000/svg">
<g clip-path="url(#clip0_2576_449294)">
<rect x="0.533203" width="16" height="16" rx="4" fill="#2775CA"/>
<path d="M7.21448 11.6195C5.19772 10.8956 4.16347 8.64612 4.91333 6.65518C5.30117 5.56924 6.15441 4.74187 7.21448 4.35404C7.31792 4.30235 7.36961 4.22478 7.36961 4.09546V3.7335C7.36961 3.63005 7.31792 3.55249 7.21448 3.52667C7.1886 3.52667 7.13691 3.52667 7.11103 3.55249C4.65475 4.32816 3.31023 6.93964 4.0859 9.39592C4.55131 10.8438 5.66313 11.9556 7.11103 12.421C7.21448 12.4727 7.31792 12.421 7.34373 12.3176C7.36961 12.2918 7.36961 12.2659 7.36961 12.2142V11.8522C7.36961 11.7746 7.29204 11.6712 7.21448 11.6195Z" fill="white"/>
<path d="M9.95521 3.55249C9.85177 3.5008 9.74832 3.55249 9.72251 3.65593C9.69663 3.68181 9.69663 3.70762 9.69663 3.75937V4.12134C9.69663 4.22478 9.7742 4.32816 9.85177 4.37991C11.8685 5.10383 12.9028 7.35329 12.1529 9.34423C11.7651 10.4302 10.9118 11.2575 9.85177 11.6454C9.74832 11.6971 9.69663 11.7746 9.69663 11.9039V12.2659C9.69663 12.3694 9.74832 12.4469 9.85177 12.4727C9.87764 12.4727 9.92933 12.4727 9.95521 12.4469C12.4115 11.6712 13.756 9.05977 12.9803 6.60349C12.5149 5.12971 11.3772 4.01789 9.95521 3.55249Z" fill="white"/>
<path d="M8.61067 7.56017C9.69661 7.68943 10.2396 7.9997 10.2396 8.90463C10.2396 9.60274 9.72249 10.1457 8.94682 10.275V10.8956C8.92094 11.0248 8.84337 11.1024 8.73993 11.1024H8.35209C8.22283 11.0765 8.14527 10.999 8.14527 10.8956V10.275C7.29202 10.1457 6.87831 9.68031 6.77493 9.03395V9.00808C6.77493 8.90463 6.8525 8.82707 6.95588 8.82707H7.39547C7.47304 8.82707 7.5506 8.87882 7.57642 8.9822C7.65398 9.37004 7.88669 9.65449 8.55898 9.65449C9.0502 9.65449 9.41222 9.3701 9.41222 8.95639C9.41222 8.54267 9.17952 8.38754 8.45553 8.25828C7.36959 8.12896 6.8525 7.79288 6.8525 6.93963C6.8525 6.29322 7.34371 5.77612 8.11939 5.67268V5.07802C8.14527 4.9487 8.22283 4.87113 8.32628 4.87113H8.71411C8.84337 4.89701 8.92094 4.97457 8.92094 5.07802V5.69856C9.5156 5.75025 9.98101 6.18977 10.0845 6.75862V6.7845C10.0845 6.88788 10.0069 6.96545 9.90344 6.96545H9.48979C9.41222 6.96545 9.33465 6.91376 9.30878 6.83619C9.17952 6.44835 8.92094 6.29322 8.45553 6.29322C7.93844 6.29322 7.67986 6.52586 7.67986 6.88788C7.67986 7.2499 7.835 7.45673 8.61067 7.56017Z" fill="white"/>
</g>
<defs>
<clipPath id="clip0_2576_449294">
<path d="M0.533203 8C0.533203 4.22876 0.533203 2.34315 1.70478 1.17157C2.87635 0 4.76197 0 8.5332 0C12.3044 0 14.1901 0 15.3616 1.17157C16.5332 2.34315 16.5332 4.22876 16.5332 8C16.5332 11.7712 16.5332 13.6569 15.3616 14.8284C14.1901 16 12.3044 16 8.5332 16C4.76197 16 2.87635 16 1.70478 14.8284C0.533203 13.6569 0.533203 11.7712 0.533203 8Z" fill="white"/>
</clipPath>
</defs>
</svg>
