<svg width="17" height="16" viewBox="0 0 17 16" fill="none" xmlns="http://www.w3.org/2000/svg">
<g clip-path="url(#clip0_1738_8960)">
<rect x="0.466675" width="16" height="16" rx="4" fill="white" fill-opacity="0.08"/>
<path d="M13.1977 9.95795H6.73733V6.35513H5.74222V10.4557C5.74221 10.5211 5.75507 10.5858 5.78008 10.6462C5.80508 10.7066 5.84174 10.7614 5.88796 10.8076C5.93418 10.8539 5.98905 10.8905 6.04944 10.9155C6.10983 10.9405 6.17455 10.9533 6.2399 10.9533H11.9L10.7312 12.0046H4.46166V6.04157H5.74222H6.73733H10.9221C11.0449 6.04161 11.1635 5.99614 11.2548 5.91394L13.5306 3.86797C13.6056 3.80069 13.6585 3.71222 13.6821 3.61426C13.7057 3.5163 13.6991 3.41347 13.663 3.31939C13.6269 3.2253 13.5631 3.14438 13.48 3.08735C13.3969 3.03032 13.2985 2.99986 13.1977 3H6.2399C6.17455 2.99998 6.10984 3.01284 6.04946 3.03784C5.98908 3.06284 5.93421 3.09948 5.888 3.14569C5.84178 3.19189 5.80512 3.24675 5.78011 3.30712C5.7551 3.3675 5.74222 3.43221 5.74222 3.49756V4.73227H6.73733V3.99523H11.9003L10.7315 5.04658H6.73733H5.74222H3.96411C3.83219 5.04661 3.70569 5.09903 3.61241 5.19231C3.51913 5.28559 3.46671 5.41209 3.46667 5.54401V12.5021C3.46663 12.5674 3.47946 12.6322 3.50443 12.6926C3.52941 12.753 3.56604 12.8079 3.61223 12.8541C3.65843 12.9003 3.71328 12.937 3.77365 12.9621C3.83403 12.9871 3.89875 13 3.96411 13H10.9221C11.0449 13 11.1634 12.9546 11.2548 12.8725L13.5306 10.8256C13.6056 10.7583 13.6584 10.6698 13.6821 10.5719C13.7057 10.474 13.6991 10.3712 13.663 10.2771C13.627 10.183 13.5632 10.1021 13.4802 10.045C13.3971 9.98799 13.2987 9.95749 13.198 9.95758L13.1977 9.95795Z" fill="#E91D3D"/>
</g>
<defs>
<clipPath id="clip0_1738_8960">
<rect x="0.466675" width="16" height="16" rx="4" fill="white"/>
</clipPath>
</defs>
</svg>
