<svg width="16" height="16" viewBox="0 0 16 16" fill="none" xmlns="http://www.w3.org/2000/svg">
<g clip-path="url(#clip0_1738_8960)">
<rect width="16" height="16" rx="4" fill="white" fill-opacity="0.08"/>
<path d="M12.7311 9.95795H6.27066V6.35513H5.27555V10.4557C5.27553 10.5211 5.2884 10.5858 5.3134 10.6462C5.33841 10.7066 5.37507 10.7614 5.42129 10.8076C5.46751 10.8539 5.52238 10.8905 5.58276 10.9155C5.64315 10.9405 5.70787 10.9533 5.77323 10.9533H11.4334L10.2645 12.0046H3.99499V6.04157H5.27555H6.27066H10.4554C10.5783 6.04161 10.6968 5.99614 10.7881 5.91394L13.0639 3.86797C13.139 3.80069 13.1918 3.71222 13.2154 3.61426C13.2391 3.5163 13.2324 3.41347 13.1963 3.31939C13.1602 3.2253 13.0964 3.14438 13.0133 3.08735C12.9303 3.03032 12.8318 2.99986 12.7311 3H5.77323C5.70788 2.99998 5.64316 3.01284 5.58278 3.03784C5.5224 3.06284 5.46754 3.09948 5.42132 3.14569C5.37511 3.19189 5.33845 3.24675 5.31344 3.30712C5.28842 3.3675 5.27555 3.43221 5.27555 3.49756V4.73227H6.27066V3.99523H11.4336L10.2648 5.04658H6.27066H5.27555H3.49743C3.36552 5.04661 3.23901 5.09903 3.14573 5.19231C3.05245 5.28559 3.00003 5.41209 3 5.54401V12.5021C2.99995 12.5674 3.01278 12.6322 3.03776 12.6926C3.06273 12.753 3.09936 12.8079 3.14556 12.8541C3.19175 12.9003 3.2466 12.937 3.30698 12.9621C3.36736 12.9871 3.43207 13 3.49743 13H10.4554C10.5782 13 10.6968 12.9546 10.7881 12.8725L13.0639 10.8256C13.1389 10.7583 13.1918 10.6698 13.2154 10.5719C13.239 10.474 13.2324 10.3712 13.1963 10.2771C13.1603 10.183 13.0965 10.1021 13.0135 10.045C12.9304 9.98799 12.832 9.95749 12.7313 9.95758L12.7311 9.95795Z" fill="#E91D3D"/>
</g>
<defs>
<clipPath id="clip0_1738_8960">
<rect width="16" height="16" rx="4" fill="white"/>
</clipPath>
</defs>
</svg>
