<svg width="16" height="16" viewBox="0 0 16 16" fill="none" xmlns="http://www.w3.org/2000/svg">
<g clip-path="url(#clip0_1739_9040)">
<rect width="16" height="16" rx="4" fill="white" fill-opacity="0.08"/>
<path d="M12.5986 10.827C12.4861 11.0008 12.3635 11.1679 12.2316 11.3275L10.9223 10.471C11.0449 10.3386 11.1578 10.1975 11.26 10.0488L10.6947 9.72213C10.2511 10.3486 9.58805 10.7854 8.8373 10.9457C8.77993 10.869 8.70458 10.8075 8.61788 10.7667C8.53117 10.7259 8.43577 10.707 8.34006 10.7117C8.24435 10.7164 8.15126 10.7446 8.06899 10.7937C7.98671 10.8428 7.91777 10.9114 7.86821 10.9934C7.2344 10.9231 6.63865 10.6557 6.16497 10.2287C6.17873 10.1789 6.18572 10.1274 6.18577 10.0758C6.18593 9.99874 6.17088 9.92245 6.14148 9.85127C6.11208 9.78009 6.06892 9.71541 6.01446 9.66095C5.96 9.6065 5.89533 9.56333 5.82415 9.53393C5.75296 9.50454 5.67668 9.48949 5.59966 9.48965H5.56663C5.2988 9.03174 5.15617 8.51142 5.15305 7.98095C5.23147 7.93687 5.29872 7.87537 5.3496 7.80119C5.40049 7.72701 5.43366 7.64213 5.44654 7.5531C5.45943 7.46407 5.4517 7.37327 5.42393 7.2877C5.39617 7.20213 5.34912 7.12409 5.28642 7.05958C5.4479 6.54108 5.74412 6.07473 6.14484 5.70819C6.54556 5.34166 7.0364 5.08807 7.56721 4.97335C7.67344 5.07377 7.8138 5.13018 7.95998 5.13119C8.04618 5.13128 8.13133 5.11235 8.20937 5.07576C8.28742 5.03917 8.35643 4.98582 8.41149 4.91951C8.87909 4.95047 9.33313 5.08953 9.73787 5.32574C9.74956 5.47257 9.8161 5.60962 9.92425 5.70961C10.0324 5.8096 10.1742 5.8652 10.3215 5.86535C10.351 5.86478 10.3804 5.86233 10.4096 5.85801C10.5124 5.96487 10.6069 6.0794 10.6923 6.20062L11.2527 5.86535C11.143 5.7038 11.0203 5.55156 10.8856 5.41017C10.8969 5.36453 10.9026 5.3177 10.9027 5.27068C10.9028 5.20653 10.8921 5.14282 10.8709 5.08225L12.0236 4.36277C12.2362 4.58898 12.4287 4.83342 12.5986 5.09326L13.1664 4.76411C12.4856 3.7123 11.49 2.90248 10.3215 2.45029C10.291 2.32204 10.2181 2.20784 10.1146 2.12614C10.0112 2.04443 9.88317 1.99999 9.75133 2C9.5979 1.99946 9.45051 2.05974 9.34143 2.16764C7.93771 1.89019 6.481 2.13472 5.24482 2.8553C5.17596 2.82768 5.10243 2.81355 5.02824 2.8137C4.8729 2.81402 4.72401 2.87587 4.61416 2.98572C4.50432 3.09556 4.44246 3.24445 4.44214 3.3998C4.44214 3.3998 4.44214 3.40836 4.44214 3.41326C3.64091 4.07369 3.02862 4.93429 2.66738 5.90776C2.30614 6.88123 2.20882 7.93293 2.38527 8.95616C2.25596 9.00332 2.14738 9.09449 2.07855 9.21369C2.00972 9.33288 1.98503 9.4725 2.00882 9.60807C2.03261 9.74364 2.10335 9.86651 2.20864 9.95516C2.31394 10.0438 2.44708 10.0926 2.58472 10.0929C2.62211 10.0929 2.65941 10.0892 2.69607 10.0819C3.02252 10.9244 3.53732 11.6811 4.20109 12.2941C4.20109 12.3149 4.20109 12.3357 4.20109 12.3565C4.20093 12.4336 4.21598 12.5098 4.24538 12.581C4.27477 12.6522 4.31794 12.7169 4.3724 12.7713C4.42685 12.8258 4.49153 12.869 4.56271 12.8984C4.63389 12.9278 4.71018 12.9428 4.78719 12.9426C4.85653 12.9424 4.92528 12.93 4.99031 12.9059C6.19413 13.6928 7.64481 14.0106 9.06734 13.7992C9.13784 13.88 9.22916 13.9399 9.33136 13.9724C9.43356 14.0049 9.54272 14.0088 9.64696 13.9835C9.75119 13.9583 9.8465 13.9049 9.92251 13.8293C9.99852 13.7536 10.0523 13.6586 10.078 13.5544C11.3502 13.1255 12.4394 12.2779 13.1676 11.1501L12.5986 10.827ZM10.0939 3.06086C10.7494 3.31488 11.3472 3.69765 11.8522 4.18657L10.751 4.87546C10.6965 4.81588 10.6301 4.76834 10.5562 4.73589C10.4822 4.70345 10.4023 4.6868 10.3215 4.68702H10.2836L9.98014 3.12571C10.0204 3.10845 10.0586 3.0867 10.0939 3.06086ZM9.35978 3.02538C9.46393 3.11934 9.59883 3.17199 9.7391 3.17343L10.0462 4.74943C9.56613 4.47327 9.02995 4.3089 8.47757 4.26855C8.46774 4.24912 8.45671 4.23032 8.44453 4.21227L9.35978 3.02538ZM5.60945 3.39246C6.70024 2.77288 7.97703 2.56493 9.20805 2.80635C9.20805 2.80635 9.20805 2.81737 9.20805 2.82226L8.25977 4.04586C8.12732 3.96622 7.96868 3.94236 7.81867 3.97952C7.66865 4.01668 7.53949 4.11182 7.45953 4.24408L5.59722 3.54051C5.60855 3.49447 5.6143 3.44722 5.61435 3.3998L5.60945 3.39246ZM5.08331 3.98223C5.16256 3.97503 5.23949 3.95166 5.30936 3.91357C5.37923 3.87548 5.44055 3.82347 5.48954 3.76076L7.17933 4.39703C6.26224 4.6633 5.48251 5.27174 5.00132 6.09661L5.08331 3.98223ZM2.9518 7.96015C2.95171 7.19558 3.11891 6.44024 3.44169 5.74714C3.76446 5.05404 4.23498 4.43995 4.82023 3.94797L4.8447 3.95654L4.73458 6.66314C4.70195 6.7496 4.67258 6.8377 4.64648 6.92743C4.53792 6.97117 4.44495 7.0464 4.37952 7.14345C4.3141 7.24049 4.27923 7.3549 4.2794 7.47193C4.27933 7.56623 4.30244 7.65909 4.3467 7.74235L3.06559 9.0467C2.9902 8.68943 2.95206 8.3253 2.9518 7.96015ZM3.14023 9.3159L4.49965 7.93445V7.96015C4.49875 8.62817 4.67979 9.28382 5.02335 9.85673L3.16348 9.41378C3.15846 9.38057 3.15069 9.34782 3.14023 9.3159ZM4.82635 11.7729H4.78475C4.72928 11.773 4.67409 11.7808 4.62078 11.7961C3.9969 11.2137 3.52441 10.488 3.24424 9.68175L5.01234 10.1051C5.01688 10.2012 5.04505 10.2947 5.09435 10.3773C5.14365 10.4599 5.21257 10.529 5.29499 10.5786L4.82635 11.7729ZM5.0625 11.8402L5.52747 10.6582C5.57456 10.6647 5.62232 10.6647 5.66941 10.6582C6.10003 11.0636 6.62159 11.3598 7.19034 11.522L5.27908 12.0433C5.22522 11.9584 5.15071 11.8885 5.0625 11.8402ZM8.97802 13.1543C8.72039 13.1927 8.46028 13.2119 8.19981 13.2118C7.19411 13.2127 6.20958 12.9229 5.36473 12.3773C5.36473 12.3773 5.36473 12.3639 5.36473 12.3565C5.36477 12.3286 5.36232 12.3008 5.35739 12.2733L7.71159 11.6322L7.89391 11.6517C7.94843 11.7241 8.01905 11.7828 8.10018 11.8232C8.1813 11.8635 8.27071 11.8844 8.36132 11.8842C8.40498 11.8843 8.4485 11.8794 8.49103 11.8695L9.13341 12.9585C9.07013 13.0126 9.01886 13.0793 8.98291 13.1543H8.97802ZM9.50172 12.8288C9.45174 12.8291 9.40199 12.8357 9.35366 12.8484L8.71984 11.7655C8.77829 11.7212 8.82807 11.6664 8.86667 11.604C9.32101 11.5227 9.75602 11.3567 10.149 11.1146L9.58003 12.8399C9.55576 12.8349 9.53126 12.8312 9.50661 12.8288H9.50172ZM9.85044 12.9439L9.80639 12.9145L10.483 10.8821C10.5736 10.8111 10.6617 10.7365 10.7461 10.657L12.0676 11.5135C11.4631 12.1697 10.7019 12.6619 9.85534 12.9439H9.85044Z" fill="white"/>
</g>
<defs>
<clipPath id="clip0_1739_9040">
<rect width="16" height="16" rx="4" fill="white"/>
</clipPath>
</defs>
</svg>
