<svg width="17" height="16" viewBox="0 0 17 16" fill="none" xmlns="http://www.w3.org/2000/svg">
<g clip-path="url(#clip0_1739_9040)">
<rect x="0.466675" width="16" height="16" rx="4" fill="white" fill-opacity="0.08"/>
<path d="M13.0653 10.827C12.9528 11.0008 12.8302 11.1679 12.6982 11.3275L11.389 10.471C11.5116 10.3386 11.6244 10.1975 11.7267 10.0488L11.1614 9.72213C10.7177 10.3486 10.0547 10.7854 9.30398 10.9457C9.24661 10.869 9.17126 10.8075 9.08455 10.7667C8.99785 10.7259 8.90245 10.707 8.80674 10.7117C8.71103 10.7164 8.61794 10.7446 8.53566 10.7937C8.45339 10.8428 8.38444 10.9114 8.33489 10.9934C7.70108 10.9231 7.10532 10.6557 6.63164 10.2287C6.6454 10.1789 6.6524 10.1274 6.65244 10.0758C6.6526 9.99874 6.63755 9.92245 6.60816 9.85127C6.57876 9.78009 6.53559 9.71541 6.48114 9.66095C6.42668 9.6065 6.362 9.56333 6.29082 9.53393C6.21964 9.50454 6.14335 9.48949 6.06634 9.48965H6.0333C5.76548 9.03174 5.62284 8.51142 5.61972 7.98095C5.69814 7.93687 5.76539 7.87537 5.81628 7.80119C5.86716 7.72701 5.90033 7.64213 5.91322 7.5531C5.92611 7.46407 5.91837 7.37327 5.89061 7.2877C5.86285 7.20213 5.8158 7.12409 5.7531 7.05958C5.91457 6.54108 6.2108 6.07473 6.61152 5.70819C7.01223 5.34166 7.50307 5.08807 8.03388 4.97335C8.14011 5.07377 8.28048 5.13018 8.42666 5.13119C8.51285 5.13128 8.59801 5.11235 8.67605 5.07576C8.75409 5.03917 8.8231 4.98582 8.87817 4.91951C9.34577 4.95047 9.79981 5.08953 10.2045 5.32574C10.2162 5.47257 10.2828 5.60962 10.3909 5.70961C10.4991 5.8096 10.6409 5.8652 10.7882 5.86535C10.8177 5.86478 10.8471 5.86233 10.8763 5.85801C10.9791 5.96487 11.0736 6.0794 11.159 6.20062L11.7194 5.86535C11.6097 5.7038 11.4869 5.55156 11.3523 5.41017C11.3635 5.36453 11.3693 5.3177 11.3694 5.27068C11.3695 5.20653 11.3588 5.14282 11.3376 5.08225L12.4902 4.36277C12.7029 4.58898 12.8954 4.83342 13.0653 5.09326L13.6331 4.76411C12.9523 3.7123 11.9566 2.90248 10.7882 2.45029C10.7577 2.32204 10.6848 2.20784 10.5813 2.12614C10.4778 2.04443 10.3498 1.99999 10.218 2C10.0646 1.99946 9.91718 2.05974 9.8081 2.16764C8.40439 1.89019 6.94768 2.13472 5.71149 2.8553C5.64264 2.82768 5.56911 2.81355 5.49492 2.8137C5.33957 2.81402 5.19068 2.87587 5.08084 2.98572C4.97099 3.09556 4.90914 3.24445 4.90881 3.3998C4.90881 3.3998 4.90881 3.40836 4.90881 3.41326C4.10758 4.07369 3.49529 4.93429 3.13405 5.90776C2.77282 6.88123 2.67549 7.93293 2.85195 8.95616C2.72264 9.00332 2.61405 9.09449 2.54522 9.21369C2.47639 9.33288 2.45171 9.4725 2.47549 9.60807C2.49928 9.74364 2.57002 9.86651 2.67532 9.95516C2.78062 10.0438 2.91375 10.0926 3.05139 10.0929C3.08878 10.0929 3.12608 10.0892 3.16274 10.0819C3.4892 10.9244 4.00399 11.6811 4.66777 12.2941C4.66777 12.3149 4.66777 12.3357 4.66777 12.3565C4.6676 12.4336 4.68265 12.5098 4.71205 12.581C4.74145 12.6522 4.78461 12.7169 4.83907 12.7713C4.89353 12.8258 4.9582 12.869 5.02939 12.8984C5.10057 12.9278 5.17686 12.9428 5.25387 12.9426C5.3232 12.9424 5.39195 12.93 5.45699 12.9059C6.6608 13.6928 8.11148 14.0106 9.53402 13.7992C9.60451 13.88 9.69583 13.9399 9.79803 13.9724C9.90024 14.0049 10.0094 14.0088 10.1136 13.9835C10.2179 13.9583 10.3132 13.9049 10.3892 13.8293C10.4652 13.7536 10.519 13.6586 10.5447 13.5544C11.8169 13.1255 12.906 12.2779 13.6343 11.1501L13.0653 10.827ZM10.5606 3.06086C11.216 3.31488 11.8139 3.69765 12.3189 4.18657L11.2177 4.87546C11.1632 4.81588 11.0968 4.76834 11.0228 4.73589C10.9489 4.70345 10.869 4.6868 10.7882 4.68702H10.7503L10.4468 3.12571C10.4871 3.10845 10.5252 3.0867 10.5606 3.06086ZM9.82645 3.02538C9.93061 3.11934 10.0655 3.17199 10.2058 3.17343L10.5129 4.74943C10.0328 4.47327 9.49662 4.3089 8.94424 4.26855C8.93442 4.24912 8.92338 4.23032 8.9112 4.21227L9.82645 3.02538ZM6.07613 3.39246C7.16692 2.77288 8.44371 2.56493 9.67473 2.80635C9.67473 2.80635 9.67473 2.81737 9.67473 2.82226L8.72644 4.04586C8.59399 3.96622 8.43536 3.94236 8.28534 3.97952C8.13532 4.01668 8.00617 4.11182 7.92621 4.24408L6.06389 3.54051C6.07523 3.49447 6.08098 3.44722 6.08102 3.3998L6.07613 3.39246ZM5.54998 3.98223C5.62923 3.97503 5.70616 3.95166 5.77603 3.91357C5.8459 3.87548 5.90722 3.82347 5.95621 3.76076L7.646 4.39703C6.72892 4.6633 5.94919 5.27174 5.468 6.09661L5.54998 3.98223ZM3.41847 7.96015C3.41838 7.19558 3.58559 6.44024 3.90836 5.74714C4.23113 5.05404 4.70165 4.43995 5.28691 3.94797L5.31138 3.95654L5.20125 6.66314C5.16863 6.7496 5.13926 6.8377 5.11316 6.92743C5.0046 6.97117 4.91162 7.0464 4.8462 7.14345C4.78078 7.24049 4.7459 7.3549 4.74608 7.47193C4.746 7.56623 4.76911 7.65909 4.81337 7.74235L3.53227 9.0467C3.45687 8.68943 3.41874 8.3253 3.41847 7.96015ZM3.60691 9.3159L4.96632 7.93445V7.96015C4.96542 8.62817 5.14647 9.28382 5.49002 9.85673L3.63015 9.41378C3.62514 9.38057 3.61736 9.34782 3.60691 9.3159ZM5.29302 11.7729H5.25142C5.19595 11.773 5.14077 11.7808 5.08746 11.7961C4.46358 11.2137 3.99109 10.488 3.71091 9.68175L5.47901 10.1051C5.48355 10.2012 5.51172 10.2947 5.56102 10.3773C5.61033 10.4599 5.67924 10.529 5.76166 10.5786L5.29302 11.7729ZM5.52918 11.8402L5.99415 10.6582C6.04123 10.6647 6.089 10.6647 6.13608 10.6582C6.56671 11.0636 7.08827 11.3598 7.65702 11.522L5.74576 12.0433C5.6919 11.9584 5.61738 11.8885 5.52918 11.8402ZM9.44469 13.1543C9.18707 13.1927 8.92695 13.2119 8.66648 13.2118C7.66078 13.2127 6.67625 12.9229 5.83141 12.3773C5.83141 12.3773 5.83141 12.3639 5.83141 12.3565C5.83145 12.3286 5.82899 12.3008 5.82407 12.2733L8.17827 11.6322L8.36058 11.6517C8.4151 11.7241 8.48572 11.7828 8.56685 11.8232C8.64798 11.8635 8.73739 11.8844 8.828 11.8842C8.87165 11.8843 8.91517 11.8794 8.9577 11.8695L9.60009 12.9585C9.5368 13.0126 9.48553 13.0793 9.44959 13.1543H9.44469ZM9.96839 12.8288C9.91841 12.8291 9.86867 12.8357 9.82034 12.8484L9.18651 11.7655C9.24497 11.7212 9.29474 11.6664 9.33334 11.604C9.78769 11.5227 10.2227 11.3567 10.6157 11.1146L10.0467 12.8399C10.0224 12.8349 9.99793 12.8312 9.97329 12.8288H9.96839ZM10.3171 12.9439L10.2731 12.9145L10.9497 10.8821C11.0403 10.8111 11.1284 10.7365 11.2128 10.657L12.5343 11.5135C11.9297 12.1697 11.1686 12.6619 10.322 12.9439H10.3171Z" fill="white"/>
</g>
<defs>
<clipPath id="clip0_1739_9040">
<rect x="0.466675" width="16" height="16" rx="4" fill="white"/>
</clipPath>
</defs>
</svg>
