<svg width="16" height="16" viewBox="0 0 16 16" fill="none" xmlns="http://www.w3.org/2000/svg">
<g clip-path="url(#clip0_1739_9058)">
<rect width="16" height="16" rx="4" fill="white" fill-opacity="0.08"/>
<path d="M7.49264 14C10.8063 14 13.4926 11.3137 13.4926 8C13.4926 4.68629 10.8063 2 7.49264 2C5.83579 2 4.33579 2.67157 3.25 3.75736L5.37132 5.87868C5.91421 5.33579 6.66421 5 7.49264 5C9.1495 5 10.4926 6.34315 10.4926 8C10.4926 9.65685 9.1495 11 7.49264 11C6.66421 11 5.91421 10.6642 5.37132 10.1213L3.25 12.2426C4.33579 13.3284 5.83579 14 7.49264 14Z" fill="#25D695"/>
<path d="M7.49264 9.5C8.32107 9.5 8.99264 8.82843 8.99264 8C8.99264 7.17157 8.32107 6.5 7.49264 6.5C6.66422 6.5 5.99264 7.17157 5.99264 8C5.99264 8.82843 6.66422 9.5 7.49264 9.5Z" fill="#25D695"/>
</g>
<defs>
<clipPath id="clip0_1739_9058">
<rect width="16" height="16" rx="4" fill="white"/>
</clipPath>
</defs>
</svg>
