<svg width="17" height="16" viewBox="0 0 17 16" fill="none" xmlns="http://www.w3.org/2000/svg">
<g clip-path="url(#clip0_1739_9058)">
<rect x="0.466675" width="16" height="16" rx="4" fill="white" fill-opacity="0.08"/>
<path d="M7.95932 14C11.273 14 13.9593 11.3137 13.9593 8C13.9593 4.68629 11.273 2 7.95932 2C6.30246 2 4.80246 2.67157 3.71667 3.75736L5.838 5.87868C6.38089 5.33579 7.13089 5 7.95932 5C9.61617 5 10.9593 6.34315 10.9593 8C10.9593 9.65685 9.61617 11 7.95932 11C7.13089 11 6.38089 10.6642 5.838 10.1213L3.71667 12.2426C4.80246 13.3284 6.30246 14 7.95932 14Z" fill="#25D695"/>
<path d="M7.95932 9.5C8.78774 9.5 9.45932 8.82843 9.45932 8C9.45932 7.17157 8.78774 6.5 7.95932 6.5C7.13089 6.5 6.45932 7.17157 6.45932 8C6.45932 8.82843 7.13089 9.5 7.95932 9.5Z" fill="#25D695"/>
</g>
<defs>
<clipPath id="clip0_1739_9058">
<rect x="0.466675" width="16" height="16" rx="4" fill="white"/>
</clipPath>
</defs>
</svg>
