<svg width="16" height="16" viewBox="0 0 16 16" fill="none" xmlns="http://www.w3.org/2000/svg">
<g clip-path="url(#clip0_4167_47709)">
<rect width="16" height="16" rx="4" fill="white" fill-opacity="0.08"/>
<path fill-rule="evenodd" clip-rule="evenodd" d="M12.9254 5.60848C12.9254 5.99349 12.9254 10.4486 12.9254 10.4486C12.9254 10.4486 12.9804 10.742 12.5771 11.072C12.1737 11.402 8.43364 13.4554 8.43364 13.4554C8.43364 13.4554 7.64529 13.602 7.29695 13.3637C6.80193 13.0337 3.42851 10.9803 3.42851 10.9803C3.42851 10.9803 3.06184 10.852 3.08017 10.0086C3.0985 9.00024 3.08017 6.23183 3.08017 6.23183C3.08017 6.23183 3.06184 5.97516 3.08017 5.53515C3.0985 5.26014 3.19017 5.04014 3.70352 4.7468C5.81191 3.48176 6.69193 3.06009 7.22361 2.73008C7.64529 2.45507 8.12197 2.47341 8.45198 2.54674C8.70865 2.60174 12.4121 4.83847 12.4121 4.83847C12.4121 4.83847 12.6321 4.94847 12.7604 5.09514C12.9254 5.27848 12.9254 5.60848 12.9254 5.60848ZM4.2352 5.86515V10.1003L7.99363 12.282L11.6237 10.1003V5.73682L8.12197 3.68343L4.2352 5.86515Z" fill="#F68B1F"/>
</g>
<defs>
<clipPath id="clip0_4167_47709">
<rect width="16" height="16" rx="4" fill="white"/>
</clipPath>
</defs>
</svg>
