<svg width="17" height="16" viewBox="0 0 17 16" fill="none" xmlns="http://www.w3.org/2000/svg">
<g clip-path="url(#clip0_4167_47709)">
<rect x="0.466675" width="16" height="16" rx="4" fill="white" fill-opacity="0.08"/>
<path fill-rule="evenodd" clip-rule="evenodd" d="M13.3921 5.60848C13.3921 5.99349 13.3921 10.4486 13.3921 10.4486C13.3921 10.4486 13.4471 10.742 13.0438 11.072C12.6404 11.402 8.90032 13.4554 8.90032 13.4554C8.90032 13.4554 8.11196 13.602 7.76362 13.3637C7.26861 13.0337 3.89519 10.9803 3.89519 10.9803C3.89519 10.9803 3.52851 10.852 3.54684 10.0086C3.56518 9.00024 3.54684 6.23183 3.54684 6.23183C3.54684 6.23183 3.52851 5.97516 3.54684 5.53515C3.56518 5.26014 3.65685 5.04014 4.1702 4.7468C6.27858 3.48176 7.15861 3.06009 7.69029 2.73008C8.11196 2.45507 8.58864 2.47341 8.91865 2.54674C9.17533 2.60174 12.8788 4.83847 12.8788 4.83847C12.8788 4.83847 13.0988 4.94847 13.2271 5.09514C13.3921 5.27848 13.3921 5.60848 13.3921 5.60848ZM4.70187 5.86515V10.1003L8.46031 12.282L12.0904 10.1003V5.73682L8.58864 3.68343L4.70187 5.86515Z" fill="#F68B1F"/>
</g>
<defs>
<clipPath id="clip0_4167_47709">
<rect x="0.466675" width="16" height="16" rx="4" fill="white"/>
</clipPath>
</defs>
</svg>
