<svg width="16" height="16" viewBox="0 0 16 16" fill="none" xmlns="http://www.w3.org/2000/svg">
<g clip-path="url(#clip0_1677_1345)">
<rect width="16" height="16" rx="4" fill="#191659"/>
<path fill-rule="evenodd" clip-rule="evenodd" d="M8.64932 12.416C8.86342 11.4819 9.01228 10.1739 9.04824 8.69516L9.37627 8.70313C9.33997 10.1961 9.18964 11.5273 8.96916 12.4893C8.85922 12.969 8.7299 13.3657 8.58378 13.6463C8.51082 13.7864 8.42956 13.9057 8.33778 13.992C8.24536 14.0788 8.1318 14.1414 8.00005 14.1414C7.84884 14.1414 7.72226 14.0595 7.62233 13.9516C7.52207 13.8434 7.43297 13.6931 7.35292 13.515C7.19232 13.1576 7.05236 12.6521 6.93872 12.0435L7.26127 11.9832C7.37288 12.581 7.50705 13.0574 7.65222 13.3805C7.72505 13.5425 7.79675 13.6571 7.86304 13.7286C7.92966 13.8005 7.97536 13.8133 8.00005 13.8133C8.02178 13.8133 8.05893 13.8038 8.11305 13.7529C8.16781 13.7014 8.22891 13.6173 8.29274 13.4948C8.42015 13.2501 8.54197 12.8844 8.64932 12.416Z" fill="url(#paint0_linear_1677_1345)"/>
<path fill-rule="evenodd" clip-rule="evenodd" d="M7.4534 3.18202C7.25705 3.86869 7.10111 4.84653 7.01558 5.99473L6.68835 5.97035C6.77479 4.81005 6.93314 3.80796 7.13793 3.09181C7.23997 2.73496 7.35612 2.43978 7.48624 2.23021C7.61002 2.03088 7.77858 1.8586 7.99992 1.8586C8.13167 1.8586 8.24523 1.92115 8.33765 2.00802C8.42941 2.09429 8.51069 2.21361 8.58363 2.3537C8.72977 2.63433 8.85908 3.03101 8.96903 3.51069C9.18951 4.4727 9.33984 5.80386 9.37612 7.29687L9.04811 7.30484C9.01215 5.82608 8.86329 4.51814 8.64919 3.584C8.54184 3.1156 8.42002 2.74993 8.2926 2.50525C8.22878 2.38266 8.16768 2.29859 8.11291 2.24711C8.0588 2.19624 8.02164 2.18672 7.99992 2.18672C7.96159 2.18672 7.8783 2.22086 7.765 2.40331C7.65807 2.5755 7.55194 2.83746 7.4534 3.18202Z" fill="url(#paint1_linear_1677_1345)"/>
<path fill-rule="evenodd" clip-rule="evenodd" d="M7.01571 5.99473C6.96908 6.62078 6.94348 7.29594 6.94348 8C6.94348 9.53707 7.06545 10.9345 7.26127 11.9832L6.93871 12.0435C6.73836 10.9705 6.61536 9.55227 6.61536 8C6.61536 7.28812 6.64122 6.60481 6.68849 5.97035L7.01571 5.99473Z" fill="url(#paint2_linear_1677_1345)"/>
<path fill-rule="evenodd" clip-rule="evenodd" d="M6.8625 8.55737C5.7981 7.90757 4.87852 7.24868 4.19555 6.66641L3.98267 6.91612C4.68163 7.512 5.61594 8.18081 6.69153 8.83742L6.8625 8.55737Z" fill="url(#paint3_linear_1677_1345)"/>
<path fill-rule="evenodd" clip-rule="evenodd" d="M11.4931 10.7703C10.5771 10.4887 9.37006 9.96374 8.07153 9.25556L7.91443 9.54363C9.22547 10.2586 10.4533 10.7939 11.3966 11.084C11.867 11.2286 12.2751 11.3149 12.5912 11.3287C12.749 11.3355 12.8929 11.3248 13.0135 11.2885C13.135 11.2518 13.2459 11.1848 13.3118 11.0707C13.4229 10.8782 13.3571 10.645 13.2453 10.4372C13.1277 10.2187 12.9284 9.96912 12.6682 9.7008C12.146 9.1623 11.351 8.52049 10.3823 7.8624L10.1979 8.13381C11.1565 8.78507 11.9317 9.4127 12.4327 9.92923C12.684 10.1884 12.8595 10.4128 12.9563 10.5927C13.0589 10.7834 13.0469 10.8733 13.0276 10.9066C13.0168 10.9254 12.9899 10.9529 12.9188 10.9743C12.8469 10.996 12.7435 11.0069 12.6055 11.0009C12.3299 10.9889 11.9523 10.9115 11.4931 10.7703Z" fill="url(#paint4_linear_1677_1345)"/>
<path fill-rule="evenodd" clip-rule="evenodd" d="M8.52145 7.08499C9.12178 7.43158 9.68545 7.78567 10.1979 8.13381L10.3823 7.8624C9.86298 7.50959 9.29252 7.15128 8.68551 6.80082C7.24926 5.9716 5.8749 5.34026 4.81365 4.98772C4.2843 4.81189 3.8247 4.70262 3.47062 4.67587C3.29402 4.66252 3.13419 4.66888 3.00153 4.70348C2.86862 4.73816 2.74556 4.8063 2.67455 4.9293C2.59836 5.06128 2.60672 5.21316 2.65109 5.35463C2.69563 5.49671 2.78271 5.6504 2.89885 5.81037C3.13189 6.13133 3.50543 6.50928 3.98265 6.91613L4.19552 6.66644C3.7267 6.26674 3.37538 5.90821 3.16437 5.6176C3.05851 5.47179 2.99379 5.3509 2.96418 5.25647C2.93438 5.16146 2.94628 5.11491 2.95871 5.09336C2.97034 5.07323 3.00077 5.04279 3.08435 5.02099C3.16817 4.99912 3.28783 4.99111 3.44589 5.00306C3.76114 5.02688 4.19153 5.12682 4.71021 5.29913C5.74499 5.64286 7.09878 6.26361 8.52145 7.08499Z" fill="url(#paint5_linear_1677_1345)"/>
<path fill-rule="evenodd" clip-rule="evenodd" d="M8.11596 6.72769C9.21815 6.12838 10.2538 5.66137 11.1 5.36403L10.9912 5.05446C10.1248 5.35889 9.07297 5.83384 7.95923 6.43942L8.11596 6.72769Z" fill="url(#paint6_linear_1677_1345)"/>
<path fill-rule="evenodd" clip-rule="evenodd" d="M3.85026 9.65276C4.54708 9.00359 5.59822 8.22442 6.85347 7.45648L6.68223 7.17659C5.41489 7.95194 4.34435 8.744 3.62659 9.41267C3.2687 9.74608 2.99189 10.0549 2.82327 10.3206C2.73909 10.4532 2.67691 10.5827 2.64844 10.7049C2.61975 10.8279 2.62258 10.957 2.68821 11.0707C2.79917 11.2629 3.03354 11.3226 3.26888 11.3298C3.51641 11.3375 3.83142 11.2899 4.19303 11.1992C4.91873 11.017 5.86975 10.6507 6.92177 10.1425L6.77905 9.84706C5.73798 10.35 4.80914 10.7062 4.11314 10.8809C3.76391 10.9686 3.48261 11.0081 3.279 11.0019C3.06321 10.9952 2.99161 10.94 2.97238 10.9066C2.96155 10.8879 2.95125 10.8512 2.968 10.7794C2.98494 10.7067 3.02674 10.6123 3.1003 10.4964C3.24715 10.265 3.50085 9.97826 3.85026 9.65276Z" fill="url(#paint7_linear_1677_1345)"/>
<path fill-rule="evenodd" clip-rule="evenodd" d="M8.53511 8.91501C7.93136 9.26359 7.33961 9.57627 6.77905 9.84705L6.92179 10.1425C7.48985 9.86809 8.08872 9.55163 8.69917 9.19917C10.1354 8.36996 11.3694 7.49541 12.2053 6.7526C12.6222 6.3821 12.9467 6.0387 13.1469 5.74542C13.2467 5.59918 13.3212 5.45756 13.3575 5.32537C13.3939 5.19294 13.3965 5.0523 13.3254 4.92929C13.2501 4.79884 13.1166 4.73019 12.9739 4.69745C12.8307 4.66459 12.657 4.6623 12.4638 4.68163C12.0763 4.7204 11.5716 4.8505 10.9912 5.05446L11.0999 5.36402C11.6699 5.16374 12.1465 5.04314 12.4965 5.00813C12.6721 4.99056 12.8061 4.9956 12.9005 5.01726C12.9953 5.03903 13.029 5.07206 13.0413 5.09336C13.0529 5.1135 13.0641 5.15507 13.0411 5.23835C13.0182 5.32188 12.9653 5.42949 12.8759 5.56042C12.6976 5.82151 12.3959 6.14427 11.9873 6.50732C11.1722 7.2316 9.95778 8.09364 8.53511 8.91501Z" fill="url(#paint8_linear_1677_1345)"/>
<path d="M7.15201 12.4276C7.38873 12.4276 7.58063 12.2357 7.58063 11.9989C7.58063 11.7622 7.38873 11.5703 7.15201 11.5703C6.91529 11.5703 6.72339 11.7622 6.72339 11.9989C6.72339 12.2357 6.91529 12.4276 7.15201 12.4276Z" fill="white"/>
<path d="M3.73474 6.52057C3.8531 6.31557 4.11524 6.24533 4.32024 6.36369C4.52525 6.48205 4.59549 6.74419 4.47713 6.94919C4.35877 7.1542 4.09663 7.22444 3.89162 7.10608C3.68662 6.98772 3.61638 6.72558 3.73474 6.52057Z" fill="white"/>
<path d="M11.4172 5.05184C11.5355 5.25685 11.4653 5.51899 11.2603 5.63735C11.0553 5.75571 10.7931 5.68547 10.6748 5.48046C10.5564 5.27546 10.6266 5.01332 10.8316 4.89496C11.0367 4.7766 11.2988 4.84684 11.4172 5.05184Z" fill="white"/>
<path fill-rule="evenodd" clip-rule="evenodd" d="M8.0001 7.25397C8.41223 7.25397 8.74631 7.58805 8.74631 8.00016C8.74631 8.41229 8.41223 8.74638 8.0001 8.74638C7.58799 8.74638 7.25391 8.41229 7.25391 8.00016C7.25391 7.58805 7.58799 7.25397 8.0001 7.25397Z" fill="white"/>
</g>
<defs>
<linearGradient id="paint0_linear_1677_1345" x1="8.15749" y1="14.1414" x2="9.7428" y2="8.80403" gradientUnits="userSpaceOnUse">
<stop offset="0.377307" stop-color="white" stop-opacity="0.6"/>
<stop offset="0.992239" stop-color="white" stop-opacity="0"/>
</linearGradient>
<linearGradient id="paint1_linear_1677_1345" x1="8.03224" y1="1.8586" x2="10.0771" y2="7.0293" gradientUnits="userSpaceOnUse">
<stop offset="0.634963" stop-color="white" stop-opacity="0.81"/>
<stop offset="1" stop-color="white" stop-opacity="0"/>
</linearGradient>
<linearGradient id="paint2_linear_1677_1345" x1="7.25493" y1="5.97035" x2="7.25493" y2="12.0504" gradientUnits="userSpaceOnUse">
<stop stop-color="white" stop-opacity="0.81"/>
<stop offset="0.646422" stop-color="white"/>
</linearGradient>
<linearGradient id="paint3_linear_1677_1345" x1="4.20445" y1="6.62397" x2="6.88574" y2="8.51537" gradientUnits="userSpaceOnUse">
<stop stop-color="white" stop-opacity="0.6"/>
<stop offset="1" stop-color="white" stop-opacity="0"/>
</linearGradient>
<linearGradient id="paint4_linear_1677_1345" x1="13.6245" y1="11.0493" x2="7.67915" y2="10.0599" gradientUnits="userSpaceOnUse">
<stop offset="0.60731" stop-color="white" stop-opacity="0.81"/>
<stop offset="1" stop-color="white" stop-opacity="0"/>
</linearGradient>
<linearGradient id="paint5_linear_1677_1345" x1="10.2233" y1="7.80593" x2="2.50562" y2="4.94433" gradientUnits="userSpaceOnUse">
<stop stop-color="white" stop-opacity="0.81"/>
<stop offset="0.478389" stop-color="white"/>
</linearGradient>
<linearGradient id="paint6_linear_1677_1345" x1="11.1613" y1="5.387" x2="7.94599" y2="6.88101" gradientUnits="userSpaceOnUse">
<stop stop-color="white" stop-opacity="0.6"/>
<stop offset="1" stop-color="white" stop-opacity="0"/>
</linearGradient>
<linearGradient id="paint7_linear_1677_1345" x1="2.50967" y1="11.0925" x2="6.53464" y2="6.89506" gradientUnits="userSpaceOnUse">
<stop offset="0.54518" stop-color="white" stop-opacity="0.81"/>
<stop offset="1" stop-color="white" stop-opacity="0"/>
</linearGradient>
<linearGradient id="paint8_linear_1677_1345" x1="13.4907" y1="4.77726" x2="6.99191" y2="10.1826" gradientUnits="userSpaceOnUse">
<stop offset="0.518582" stop-color="white"/>
<stop offset="1" stop-color="white" stop-opacity="0.81"/>
</linearGradient>
<clipPath id="clip0_1677_1345">
<rect width="16" height="16" rx="4" fill="white"/>
</clipPath>
</defs>
</svg>
