<svg width="17" height="16" viewBox="0 0 17 16" fill="none" xmlns="http://www.w3.org/2000/svg">
<g clip-path="url(#clip0_1677_1345)">
<rect x="0.466675" width="16" height="16" rx="4" fill="#191659"/>
<path fill-rule="evenodd" clip-rule="evenodd" d="M9.11599 12.416C9.33009 11.4819 9.47895 10.1739 9.51491 8.69516L9.84294 8.70313C9.80664 10.1961 9.65632 11.5273 9.43583 12.4893C9.3259 12.969 9.19658 13.3657 9.05045 13.6463C8.9775 13.7864 8.89623 13.9057 8.80445 13.992C8.71203 14.0788 8.59847 14.1414 8.46673 14.1414C8.31552 14.1414 8.18893 14.0595 8.089 13.9516C7.98875 13.8434 7.89965 13.6931 7.8196 13.515C7.65899 13.1576 7.51904 12.6521 7.4054 12.0435L7.72794 11.9832C7.83956 12.581 7.97372 13.0574 8.11889 13.3805C8.19172 13.5425 8.26343 13.6571 8.32971 13.7286C8.39633 13.8005 8.44204 13.8133 8.46673 13.8133C8.48845 13.8133 8.5256 13.8038 8.57973 13.7529C8.63448 13.7014 8.69558 13.6173 8.75942 13.4948C8.88683 13.2501 9.00864 12.8844 9.11599 12.416Z" fill="url(#paint0_linear_1677_1345)"/>
<path fill-rule="evenodd" clip-rule="evenodd" d="M7.92008 3.18202C7.72372 3.86869 7.56778 4.84653 7.48225 5.99473L7.15503 5.97035C7.24146 4.81005 7.39981 3.80796 7.6046 3.09181C7.70665 2.73496 7.82279 2.43978 7.95292 2.23021C8.07669 2.03088 8.24525 1.8586 8.4666 1.8586C8.59834 1.8586 8.7119 1.92115 8.80432 2.00802C8.89609 2.09429 8.97737 2.21361 9.05031 2.3537C9.19645 2.63433 9.32575 3.03101 9.4357 3.51069C9.65619 4.4727 9.80651 5.80386 9.8428 7.29687L9.51478 7.30484C9.47882 5.82608 9.32996 4.51814 9.11586 3.584C9.00851 3.1156 8.8867 2.74993 8.75927 2.50525C8.69545 2.38266 8.63435 2.29859 8.57958 2.24711C8.52547 2.19624 8.48831 2.18672 8.4666 2.18672C8.42826 2.18672 8.34497 2.22086 8.23168 2.40331C8.12475 2.5755 8.01861 2.83746 7.92008 3.18202Z" fill="url(#paint1_linear_1677_1345)"/>
<path fill-rule="evenodd" clip-rule="evenodd" d="M7.48239 5.99473C7.43575 6.62078 7.41016 7.29594 7.41016 8C7.41016 9.53707 7.53212 10.9345 7.72795 11.9832L7.40538 12.0435C7.20504 10.9705 7.08203 9.55227 7.08203 8C7.08203 7.28812 7.1079 6.60481 7.15516 5.97035L7.48239 5.99473Z" fill="url(#paint2_linear_1677_1345)"/>
<path fill-rule="evenodd" clip-rule="evenodd" d="M7.32917 8.55737C6.26477 7.90757 5.34519 7.24868 4.66223 6.66641L4.44934 6.91612C5.1483 7.512 6.08261 8.18081 7.1582 8.83742L7.32917 8.55737Z" fill="url(#paint3_linear_1677_1345)"/>
<path fill-rule="evenodd" clip-rule="evenodd" d="M11.9597 10.7703C11.0438 10.4887 9.83673 9.96374 8.53821 9.25556L8.3811 9.54363C9.69214 10.2586 10.92 10.7939 11.8633 11.084C12.3336 11.2286 12.7418 11.3149 13.0579 11.3287C13.2157 11.3355 13.3596 11.3248 13.4802 11.2885C13.6016 11.2518 13.7126 11.1848 13.7785 11.0707C13.8896 10.8782 13.8237 10.645 13.712 10.4372C13.5944 10.2187 13.3951 9.96912 13.1349 9.7008C12.6127 9.1623 11.8177 8.52049 10.849 7.8624L10.6646 8.13381C11.6232 8.78507 12.3984 9.4127 12.8993 9.92923C13.1507 10.1884 13.3262 10.4128 13.423 10.5927C13.5256 10.7834 13.5136 10.8733 13.4943 10.9066C13.4834 10.9254 13.4566 10.9529 13.3855 10.9743C13.3135 10.996 13.2102 11.0069 13.0721 11.0009C12.7966 10.9889 12.419 10.9115 11.9597 10.7703Z" fill="url(#paint4_linear_1677_1345)"/>
<path fill-rule="evenodd" clip-rule="evenodd" d="M8.98813 7.08499C9.58846 7.43158 10.1521 7.78567 10.6646 8.13381L10.849 7.8624C10.3297 7.50959 9.75919 7.15128 9.15219 6.80082C7.71593 5.9716 6.34158 5.34026 5.28033 4.98772C4.75098 4.81189 4.29137 4.70262 3.9373 4.67587C3.7607 4.66252 3.60086 4.66888 3.4682 4.70348C3.3353 4.73816 3.21224 4.8063 3.14123 4.9293C3.06503 5.06128 3.0734 5.21316 3.11776 5.35463C3.16231 5.49671 3.24938 5.6504 3.36553 5.81037C3.59856 6.13133 3.97211 6.50928 4.44932 6.91613L4.66219 6.66644C4.19337 6.26674 3.84206 5.90821 3.63105 5.6176C3.52519 5.47179 3.46046 5.3509 3.43085 5.25647C3.40106 5.16146 3.41295 5.11491 3.42538 5.09336C3.43702 5.07323 3.46745 5.04279 3.55103 5.02099C3.63485 4.99912 3.7545 4.99111 3.91256 5.00306C4.22781 5.02688 4.6582 5.12682 5.17689 5.29913C6.21167 5.64286 7.56546 6.26361 8.98813 7.08499Z" fill="url(#paint5_linear_1677_1345)"/>
<path fill-rule="evenodd" clip-rule="evenodd" d="M8.58264 6.72769C9.68482 6.12838 10.7204 5.66137 11.5666 5.36403L11.4579 5.05446C10.5915 5.35889 9.53964 5.83384 8.4259 6.43942L8.58264 6.72769Z" fill="url(#paint6_linear_1677_1345)"/>
<path fill-rule="evenodd" clip-rule="evenodd" d="M4.31694 9.65276C5.01375 9.00359 6.0649 8.22442 7.32014 7.45648L7.1489 7.17659C5.88156 7.95194 4.81102 8.744 4.09326 9.41267C3.73538 9.74608 3.45856 10.0549 3.28995 10.3206C3.20577 10.4532 3.14359 10.5827 3.11511 10.7049C3.08643 10.8279 3.08926 10.957 3.15488 11.0707C3.26584 11.2629 3.50022 11.3226 3.73555 11.3298C3.98308 11.3375 4.2981 11.2899 4.6597 11.1992C5.38541 11.017 6.33642 10.6507 7.38845 10.1425L7.24573 9.84706C6.20465 10.35 5.27581 10.7062 4.57982 10.8809C4.23058 10.9686 3.94929 11.0081 3.74567 11.0019C3.52989 10.9952 3.45829 10.94 3.43905 10.9066C3.42822 10.8879 3.41793 10.8512 3.43468 10.7794C3.45162 10.7067 3.49341 10.6123 3.56698 10.4964C3.71383 10.265 3.96752 9.97826 4.31694 9.65276Z" fill="url(#paint7_linear_1677_1345)"/>
<path fill-rule="evenodd" clip-rule="evenodd" d="M9.00178 8.91501C8.39803 9.26359 7.80629 9.57627 7.24573 9.84705L7.38846 10.1425C7.95653 9.86809 8.5554 9.55163 9.16585 9.19917C10.6021 8.36996 11.836 7.49541 12.672 6.7526C13.0889 6.3821 13.4133 6.0387 13.6136 5.74542C13.7134 5.59918 13.7878 5.45756 13.8242 5.32537C13.8606 5.19294 13.8631 5.0523 13.7921 4.92929C13.7168 4.79884 13.5832 4.73019 13.4405 4.69745C13.2974 4.66459 13.1236 4.6623 12.9305 4.68163C12.543 4.7204 12.0383 4.8505 11.4578 5.05446L11.5666 5.36402C12.1366 5.16374 12.6132 5.04314 12.9632 5.00813C13.1387 4.99056 13.2728 4.9956 13.3671 5.01726C13.462 5.03903 13.4956 5.07206 13.508 5.09336C13.5196 5.1135 13.5307 5.15507 13.5078 5.23835C13.4848 5.32188 13.432 5.42949 13.3426 5.56042C13.1643 5.82151 12.8626 6.14427 12.454 6.50732C11.6389 7.2316 10.4245 8.09364 9.00178 8.91501Z" fill="url(#paint8_linear_1677_1345)"/>
<path d="M7.61868 12.4276C7.8554 12.4276 8.0473 12.2357 8.0473 11.9989C8.0473 11.7622 7.8554 11.5703 7.61868 11.5703C7.38196 11.5703 7.19006 11.7622 7.19006 11.9989C7.19006 12.2357 7.38196 12.4276 7.61868 12.4276Z" fill="white"/>
<path d="M4.20141 6.52057C4.31977 6.31557 4.58191 6.24533 4.78692 6.36369C4.99192 6.48205 5.06216 6.74419 4.9438 6.94919C4.82544 7.1542 4.5633 7.22444 4.3583 7.10608C4.15329 6.98772 4.08305 6.72558 4.20141 6.52057Z" fill="white"/>
<path d="M11.8838 5.05184C12.0022 5.25685 11.9319 5.51899 11.7269 5.63735C11.5219 5.75571 11.2598 5.68547 11.1414 5.48046C11.0231 5.27546 11.0933 5.01332 11.2983 4.89496C11.5033 4.7766 11.7655 4.84684 11.8838 5.05184Z" fill="white"/>
<path fill-rule="evenodd" clip-rule="evenodd" d="M8.46678 7.25397C8.8789 7.25397 9.21299 7.58805 9.21299 8.00016C9.21299 8.41229 8.8789 8.74638 8.46678 8.74638C8.05467 8.74638 7.72058 8.41229 7.72058 8.00016C7.72058 7.58805 8.05467 7.25397 8.46678 7.25397Z" fill="white"/>
</g>
<defs>
<linearGradient id="paint0_linear_1677_1345" x1="8.62416" y1="14.1414" x2="10.2095" y2="8.80403" gradientUnits="userSpaceOnUse">
<stop offset="0.377307" stop-color="white" stop-opacity="0.6"/>
<stop offset="0.992239" stop-color="white" stop-opacity="0"/>
</linearGradient>
<linearGradient id="paint1_linear_1677_1345" x1="8.49892" y1="1.8586" x2="10.5437" y2="7.0293" gradientUnits="userSpaceOnUse">
<stop offset="0.634963" stop-color="white" stop-opacity="0.81"/>
<stop offset="1" stop-color="white" stop-opacity="0"/>
</linearGradient>
<linearGradient id="paint2_linear_1677_1345" x1="7.7216" y1="5.97035" x2="7.7216" y2="12.0504" gradientUnits="userSpaceOnUse">
<stop stop-color="white" stop-opacity="0.81"/>
<stop offset="0.646422" stop-color="white"/>
</linearGradient>
<linearGradient id="paint3_linear_1677_1345" x1="4.67113" y1="6.62397" x2="7.35241" y2="8.51537" gradientUnits="userSpaceOnUse">
<stop stop-color="white" stop-opacity="0.6"/>
<stop offset="1" stop-color="white" stop-opacity="0"/>
</linearGradient>
<linearGradient id="paint4_linear_1677_1345" x1="14.0911" y1="11.0493" x2="8.14582" y2="10.0599" gradientUnits="userSpaceOnUse">
<stop offset="0.60731" stop-color="white" stop-opacity="0.81"/>
<stop offset="1" stop-color="white" stop-opacity="0"/>
</linearGradient>
<linearGradient id="paint5_linear_1677_1345" x1="10.69" y1="7.80593" x2="2.9723" y2="4.94433" gradientUnits="userSpaceOnUse">
<stop stop-color="white" stop-opacity="0.81"/>
<stop offset="0.478389" stop-color="white"/>
</linearGradient>
<linearGradient id="paint6_linear_1677_1345" x1="11.628" y1="5.387" x2="8.41267" y2="6.88101" gradientUnits="userSpaceOnUse">
<stop stop-color="white" stop-opacity="0.6"/>
<stop offset="1" stop-color="white" stop-opacity="0"/>
</linearGradient>
<linearGradient id="paint7_linear_1677_1345" x1="2.97634" y1="11.0925" x2="7.00131" y2="6.89506" gradientUnits="userSpaceOnUse">
<stop offset="0.54518" stop-color="white" stop-opacity="0.81"/>
<stop offset="1" stop-color="white" stop-opacity="0"/>
</linearGradient>
<linearGradient id="paint8_linear_1677_1345" x1="13.9574" y1="4.77726" x2="7.45859" y2="10.1826" gradientUnits="userSpaceOnUse">
<stop offset="0.518582" stop-color="white"/>
<stop offset="1" stop-color="white" stop-opacity="0.81"/>
</linearGradient>
<clipPath id="clip0_1677_1345">
<rect x="0.466675" width="16" height="16" rx="4" fill="white"/>
</clipPath>
</defs>
</svg>
