<svg width="16" height="16" viewBox="0 0 16 16" fill="none" xmlns="http://www.w3.org/2000/svg">
<g clip-path="url(#clip0_1739_9160)">
<rect width="16" height="16" rx="4" fill="white" fill-opacity="0.08"/>
<path fill-rule="evenodd" clip-rule="evenodd" d="M8.43407 2C9.46372 1.99937 10.4762 2.26374 11.3739 2.76765C12.2717 3.27155 13.0246 3.99801 13.5599 4.87706C13.1458 4.87116 12.7347 4.94758 12.3505 5.10186C11.9663 5.25614 11.6166 5.48521 11.3217 5.77575C11.0268 6.06628 10.7926 6.41253 10.6328 6.79431C10.473 7.17608 10.3907 7.58584 10.3907 7.99969C10.3907 8.41354 10.473 8.82325 10.6328 9.20502C10.7926 9.58684 11.0268 9.93305 11.3217 10.2236C11.6166 10.5141 11.9663 10.7432 12.3505 10.8975C12.7347 11.0518 13.1458 11.1282 13.5599 11.1223C13.0146 12.0166 12.2447 12.7526 11.3266 13.2573C10.4085 13.762 9.37419 14.0177 8.32655 13.999C7.27891 13.9804 6.25439 13.688 5.35484 13.151C4.4553 12.614 3.71205 11.851 3.19899 10.9379C2.68592 10.0248 2.42091 8.99345 2.43029 7.94626C2.43968 6.8991 2.72313 5.87259 3.25248 4.96884C3.78182 4.06508 4.53862 3.31553 5.44765 2.7947C6.35668 2.27386 7.38626 1.99989 8.43407 2Z" fill="#FFC780"/>
<path fill-rule="evenodd" clip-rule="evenodd" d="M13.5598 4.87516C13.1458 4.86927 12.7347 4.94568 12.3505 5.09996C11.9663 5.25425 11.6165 5.48331 11.3216 5.77386C11.0268 6.06442 10.7926 6.41062 10.6328 6.7924C10.473 7.17422 10.3907 7.58393 10.3907 7.99778C10.3907 8.41163 10.473 8.82138 10.6328 9.20316C10.7926 9.58493 11.0268 9.93114 11.3216 10.2217C11.6165 10.5123 11.9663 10.7413 12.3505 10.8956C12.7347 11.0499 13.1458 11.1263 13.5598 11.1204L13.5415 11.1508C12.9313 11.7038 12.1735 12.0676 11.3603 12.1979C10.5471 12.3282 9.71346 12.2195 8.96095 11.8849C8.20845 11.5503 7.56946 11.0043 7.12179 10.3134C6.67411 9.62241 6.43706 8.81627 6.43947 7.99311C6.44188 7.16995 6.68365 6.36527 7.13539 5.67694C7.58708 4.98862 8.22927 4.44638 8.98373 4.1162C9.73819 3.78603 10.5724 3.68216 11.3849 3.81725C12.1973 3.95233 12.953 4.32054 13.5598 4.87707V4.87516Z" fill="url(#paint0_linear_1739_9160)"/>
</g>
<defs>
<linearGradient id="paint0_linear_1739_9160" x1="9.99828" y1="12.2516" x2="9.99828" y2="3.7573" gradientUnits="userSpaceOnUse">
<stop stop-color="#FFC780"/>
<stop offset="1" stop-color="#964B48"/>
</linearGradient>
<clipPath id="clip0_1739_9160">
<rect width="16" height="16" rx="4" fill="white"/>
</clipPath>
</defs>
</svg>
