<svg width="17" height="16" viewBox="0 0 17 16" fill="none" xmlns="http://www.w3.org/2000/svg">
<g clip-path="url(#clip0_1739_9160)">
<rect x="0.466675" width="16" height="16" rx="4" fill="white" fill-opacity="0.08"/>
<path fill-rule="evenodd" clip-rule="evenodd" d="M8.90074 2C9.9304 1.99937 10.9429 2.26374 11.8406 2.76765C12.7384 3.27155 13.4912 3.99801 14.0266 4.87706C13.6125 4.87116 13.2014 4.94758 12.8172 5.10186C12.433 5.25614 12.0833 5.48521 11.7884 5.77575C11.4935 6.06628 11.2593 6.41253 11.0995 6.79431C10.9397 7.17608 10.8574 7.58584 10.8574 7.99969C10.8574 8.41354 10.9397 8.82325 11.0995 9.20502C11.2593 9.58684 11.4935 9.93305 11.7884 10.2236C12.0833 10.5141 12.433 10.7432 12.8172 10.8975C13.2014 11.0518 13.6125 11.1282 14.0266 11.1223C13.4813 12.0166 12.7114 12.7526 11.7932 13.2573C10.8752 13.762 9.84087 14.0177 8.79323 13.999C7.74559 13.9804 6.72106 13.688 5.82152 13.151C4.92197 12.614 4.17872 11.851 3.66566 10.9379C3.1526 10.0248 2.88759 8.99345 2.89697 7.94626C2.90635 6.8991 3.18981 5.87259 3.71915 4.96884C4.2485 4.06508 5.0053 3.31553 5.91432 2.7947C6.82335 2.27386 7.85294 1.99989 8.90074 2Z" fill="#FFC780"/>
<path fill-rule="evenodd" clip-rule="evenodd" d="M14.0265 4.87516C13.6125 4.86927 13.2014 4.94568 12.8172 5.09996C12.433 5.25425 12.0832 5.48331 11.7883 5.77386C11.4934 6.06442 11.2593 6.41062 11.0995 6.7924C10.9396 7.17422 10.8573 7.58393 10.8573 7.99778C10.8573 8.41163 10.9396 8.82138 11.0995 9.20316C11.2593 9.58493 11.4934 9.93114 11.7883 10.2217C12.0832 10.5123 12.433 10.7413 12.8172 10.8956C13.2014 11.0499 13.6125 11.1263 14.0265 11.1204L14.0082 11.1508C13.398 11.7038 12.6402 12.0676 11.827 12.1979C11.0138 12.3282 10.1801 12.2195 9.42763 11.8849C8.67512 11.5503 8.03613 11.0043 7.58846 10.3134C7.14079 9.62241 6.90374 8.81627 6.90615 7.99311C6.90856 7.16995 7.15033 6.36527 7.60206 5.67694C8.05375 4.98862 8.69595 4.44638 9.45041 4.1162C10.2049 3.78603 11.0391 3.68216 11.8515 3.81725C12.664 3.95233 13.4197 4.32054 14.0265 4.87707V4.87516Z" fill="url(#paint0_linear_1739_9160)"/>
</g>
<defs>
<linearGradient id="paint0_linear_1739_9160" x1="10.465" y1="12.2516" x2="10.465" y2="3.7573" gradientUnits="userSpaceOnUse">
<stop stop-color="#FFC780"/>
<stop offset="1" stop-color="#964B48"/>
</linearGradient>
<clipPath id="clip0_1739_9160">
<rect x="0.466675" width="16" height="16" rx="4" fill="white"/>
</clipPath>
</defs>
</svg>
