<svg width="16" height="16" viewBox="0 0 16 16" fill="none" xmlns="http://www.w3.org/2000/svg">
<g clip-path="url(#clip0_1677_1405)">
<rect width="16" height="16" rx="4" fill="#002D74"/>
<path d="M8.00599 10.8012L10.4267 9.40058L9.42386 8.82133L8.00599 9.64266L6.58813 8.82133V7.18733L7.99735 6.366L9.41522 7.18733L10.4267 6.59943L8.00599 5.19885L5.5766 6.59943V9.40058L8.00599 10.8012Z" fill="white"/>
<path fill-rule="evenodd" clip-rule="evenodd" d="M8.00602 2L13.1933 5V11L8.00602 14H7.99738L2.81006 11V5L7.99738 2V2.00499L8.00602 2ZM4.34896 10.1095V5.89049L8.00601 3.78099L11.6544 5.89049V10.1095L7.99738 12.219L4.34896 10.1095Z" fill="white"/>
</g>
<defs>
<clipPath id="clip0_1677_1405">
<rect width="16" height="16" rx="4" fill="white"/>
</clipPath>
</defs>
</svg>
