<svg width="16" height="16" viewBox="0 0 16 16" fill="none" xmlns="http://www.w3.org/2000/svg">
<g clip-path="url(#clip0_1740_9230)">
<rect width="16" height="16" rx="4" fill="#ED6C53"/>
<path fill-rule="evenodd" clip-rule="evenodd" d="M8.33125 12.9797C7.50858 13.3187 6.6979 13.5 5.98898 13.5C5.36371 13.5 4.84277 13.3551 4.49036 13.0757C4.10483 12.7707 3.82598 12.2333 3.64671 11.4807C3.46716 10.7268 3.38583 9.74962 3.40204 8.5555C3.41812 7.41388 3.49945 6.4871 3.65134 5.75917C3.80173 5.03838 4.02215 4.50765 4.32157 4.15691C4.52659 3.44793 4.8237 2.97393 5.22761 2.72471C5.648 2.46394 6.28936 2.43883 7.01912 2.6044C7.75148 2.7705 8.58422 3.13103 9.39735 3.6572C10.0394 4.07124 10.6855 4.60782 11.2068 5.2208C12.3027 6.21371 13.1745 7.53729 13.0035 8.92127C12.8613 10.0524 11.8806 11.5902 9.55988 12.553C9.1986 12.7039 8.83705 12.8226 8.48954 12.9092L8.48791 12.91L8.4777 12.9147C8.4548 12.9254 8.43152 12.9362 8.40809 12.9467C8.3826 12.9582 8.35699 12.9693 8.33125 12.9797ZM10.7531 10.7572C10.2601 11.1633 9.64242 11.5415 8.88147 11.8576C8.0588 12.1966 7.24784 12.378 6.53893 12.378C6.32219 12.378 6.11921 12.3597 5.93162 12.326L5.95956 12.3494C6.19822 12.5374 6.53798 12.6498 6.95141 12.6828C7.16202 12.6997 7.39075 12.6959 7.63336 12.6713C7.86522 12.6479 8.10988 12.6055 8.36339 12.5443C9.50198 12.0396 10.2721 11.3971 10.7531 10.7572ZM11.3638 9.44985C11.3739 9.39823 11.3818 9.34807 11.3869 9.29879C11.4883 8.48024 11.1718 7.67028 10.6416 6.9427C10.1119 6.21545 9.37187 5.57549 8.63694 5.09967C7.62545 4.44394 6.60445 4.05956 5.82796 4.00276C5.57934 4.3075 5.38591 4.79097 5.2505 5.46705C5.11209 6.15798 5.03539 7.04428 5.01946 8.13407C4.99466 9.8619 5.17434 11.0885 5.54407 11.8092C5.8909 11.9695 6.36088 12.027 6.9066 11.9777C7.46022 11.9276 8.08768 11.768 8.73502 11.4991C9.99662 10.9742 10.8291 10.281 11.3301 9.59742C11.3431 9.5466 11.3544 9.49759 11.3638 9.44985ZM6.25407 3.67909C7.03642 3.81893 7.95404 4.19787 8.84754 4.77559C9.58017 5.24967 10.32 5.88378 10.8749 6.61257C11.3763 7.27094 11.7291 8.00974 11.7857 8.77955C11.8671 8.5694 11.9171 8.36617 11.9404 8.17692C12.0555 7.23482 11.6169 6.30059 10.9411 5.50042C10.6013 5.19165 10.2369 4.9147 9.87252 4.68038C8.80205 3.98779 7.6771 3.57804 6.86028 3.57804C6.74925 3.57804 6.64627 3.58549 6.5516 3.6C6.4411 3.61691 6.34194 3.64344 6.25407 3.67909ZM4.88255 4.17202C4.80844 4.21734 4.73692 4.27528 4.67099 4.34321C4.46801 5.08128 4.35862 6.10756 4.34092 7.43502C4.32661 8.47245 4.3856 9.3315 4.51583 10.0091C4.612 10.5093 4.7466 10.9076 4.91729 11.2053C4.70981 10.4323 4.61527 9.40454 4.63394 8.1289C4.64824 7.08597 4.71717 6.22244 4.84468 5.52614C4.96156 4.88731 5.12844 4.38626 5.35021 4.01599C5.25607 4.02874 5.16917 4.04855 5.08988 4.07534C5.01387 4.10105 4.94467 4.13328 4.88255 4.17202ZM8.27594 3.46377C7.50735 3.08914 6.7645 2.87906 6.18187 2.87906C5.86677 2.87906 5.61775 2.93888 5.43631 3.05355C5.22598 3.1832 5.04085 3.40952 4.88854 3.74139C5.10868 3.65512 5.36996 3.61571 5.65931 3.61926C5.73831 3.54185 5.81869 3.47626 5.90956 3.42013C6.24835 3.20784 6.73332 3.15158 7.29129 3.22536C7.59863 3.26605 7.93034 3.34641 8.27594 3.46377ZM5.21521 12.0676L5.19641 12.0558L5.16072 12.0328C5.12081 12.0065 5.08239 11.9793 5.04493 11.951L5.04384 11.9502C4.65846 11.6452 4.37865 11.1078 4.19883 10.3552C4.01888 9.60132 3.93755 8.62412 3.95553 7.43C3.96234 6.8426 3.98863 6.31132 4.03318 5.83438C3.88714 6.53302 3.8065 7.43691 3.79097 8.55699C3.77503 9.7019 3.84723 10.6283 4.00621 11.3336C4.16546 12.0405 4.40998 12.5167 4.73093 12.7722C4.96783 12.9586 5.30594 13.0711 5.71774 13.1045C6.02875 13.1298 6.37981 13.1098 6.75688 13.0441C6.33717 12.9884 5.98352 12.8567 5.72225 12.6492C5.54761 12.5104 5.39572 12.3261 5.26603 12.0979C5.24887 12.0879 5.23183 12.0778 5.21521 12.0676ZM12.2476 7.12504C12.337 7.4837 12.3671 7.85269 12.3216 8.22579C12.2634 8.69207 12.0649 9.22817 11.6854 9.76266C11.5134 10.3746 11.1077 11.0631 10.4064 11.6997C11.8707 10.8253 12.5115 9.70982 12.6154 8.87582C12.6906 8.27969 12.5413 7.68546 12.2476 7.12504Z" fill="white"/>
</g>
<defs>
<clipPath id="clip0_1740_9230">
<rect width="16" height="16" rx="4" fill="white"/>
</clipPath>
</defs>
</svg>
