<svg width="17" height="16" viewBox="0 0 17 16" fill="none" xmlns="http://www.w3.org/2000/svg">
<g clip-path="url(#clip0_1740_9230)">
<rect x="0.466675" width="16" height="16" rx="4" fill="#ED6C53"/>
<path fill-rule="evenodd" clip-rule="evenodd" d="M8.79793 12.9797C7.97525 13.3187 7.16457 13.5 6.45566 13.5C5.83038 13.5 5.30945 13.3551 4.95703 13.0757C4.57151 12.7707 4.29266 12.2333 4.11338 11.4807C3.93384 10.7268 3.85251 9.74962 3.86872 8.5555C3.88479 7.41388 3.96612 6.4871 4.11801 5.75917C4.26841 5.03838 4.48882 4.50765 4.78825 4.15691C4.99327 3.44793 5.29037 2.97393 5.69429 2.72471C6.11468 2.46394 6.75603 2.43883 7.48579 2.6044C8.21815 2.7705 9.05089 3.13103 9.86403 3.6572C10.5061 4.07124 11.1522 4.60782 11.6735 5.2208C12.7693 6.21371 13.6412 7.53729 13.4702 8.92127C13.328 10.0524 12.3473 11.5902 10.0266 12.553C9.66528 12.7039 9.30372 12.8226 8.95622 12.9092L8.95458 12.91L8.94437 12.9147C8.92147 12.9254 8.89819 12.9362 8.87476 12.9467C8.84928 12.9582 8.82367 12.9693 8.79793 12.9797ZM11.2197 10.7572C10.7267 11.1633 10.1091 11.5415 9.34815 11.8576C8.52547 12.1966 7.71452 12.378 7.0056 12.378C6.78887 12.378 6.58588 12.3597 6.39829 12.326L6.42623 12.3494C6.6649 12.5374 7.00465 12.6498 7.41809 12.6828C7.6287 12.6997 7.85743 12.6959 8.10003 12.6713C8.33189 12.6479 8.57655 12.6055 8.83006 12.5443C9.96866 12.0396 10.7387 11.3971 11.2197 10.7572ZM11.8304 9.44985C11.8405 9.39823 11.8484 9.34807 11.8536 9.29879C11.955 8.48024 11.6385 7.67028 11.1083 6.9427C10.5785 6.21545 9.83854 5.57549 9.10362 5.09967C8.09213 4.44394 7.07113 4.05956 6.29464 4.00276C6.04602 4.3075 5.85258 4.79097 5.71717 5.46705C5.57877 6.15798 5.50207 7.04428 5.48613 8.13407C5.46134 9.8619 5.64102 11.0885 6.01075 11.8092C6.35758 11.9695 6.82755 12.027 7.37328 11.9777C7.92689 11.9276 8.55435 11.768 9.2017 11.4991C10.4633 10.9742 11.2958 10.281 11.7968 9.59742C11.8097 9.5466 11.8211 9.49759 11.8304 9.44985ZM6.72074 3.67909C7.5031 3.81893 8.42072 4.19787 9.31421 4.77559C10.0468 5.24967 10.7867 5.88378 11.3415 6.61257C11.843 7.27094 12.1958 8.00974 12.2523 8.77955C12.3338 8.5694 12.3838 8.36617 12.4071 8.17692C12.5222 7.23482 12.0836 6.30059 11.4077 5.50042C11.068 5.19165 10.7036 4.9147 10.3392 4.68038C9.26873 3.98779 8.14377 3.57804 7.32695 3.57804C7.21592 3.57804 7.11295 3.58549 7.01827 3.6C6.90778 3.61691 6.80861 3.64344 6.72074 3.67909ZM5.34922 4.17202C5.27512 4.21734 5.2036 4.27528 5.13767 4.34321C4.93469 5.08128 4.8253 6.10756 4.80759 7.43502C4.79329 8.47245 4.85227 9.3315 4.9825 10.0091C5.07868 10.5093 5.21327 10.9076 5.38396 11.2053C5.17649 10.4323 5.08195 9.40454 5.10061 8.1289C5.11492 7.08597 5.18385 6.22244 5.31135 5.52614C5.42824 4.88731 5.59511 4.38626 5.81689 4.01599C5.72275 4.02874 5.63584 4.04855 5.55656 4.07534C5.48055 4.10105 5.41134 4.13328 5.34922 4.17202ZM8.74261 3.46377C7.97403 3.08914 7.23118 2.87906 6.64854 2.87906C6.33345 2.87906 6.08443 2.93888 5.90298 3.05355C5.69265 3.1832 5.50752 3.40952 5.35522 3.74139C5.57536 3.65512 5.83663 3.61571 6.12599 3.61926C6.20499 3.54185 6.28536 3.47626 6.37624 3.42013C6.71502 3.20784 7.19999 3.15158 7.75797 3.22536C8.06531 3.26605 8.39701 3.34641 8.74261 3.46377ZM5.68189 12.0676L5.66309 12.0558L5.6274 12.0328C5.58748 12.0065 5.54907 11.9793 5.51161 11.951L5.51052 11.9502C5.12513 11.6452 4.84532 11.1078 4.66551 10.3552C4.48555 9.60132 4.40422 8.62412 4.42221 7.43C4.42902 6.8426 4.45531 6.31132 4.49986 5.83438C4.35382 6.53302 4.27317 7.43691 4.25764 8.55699C4.24171 9.7019 4.31391 10.6283 4.47288 11.3336C4.63213 12.0405 4.87666 12.5167 5.1976 12.7722C5.4345 12.9586 5.77261 13.0711 6.18442 13.1045C6.49542 13.1298 6.84649 13.1098 7.22355 13.0441C6.80385 12.9884 6.4502 12.8567 6.18893 12.6492C6.01428 12.5104 5.86239 12.3261 5.7327 12.0979C5.71554 12.0879 5.69851 12.0778 5.68189 12.0676ZM12.7143 7.12504C12.8037 7.4837 12.8338 7.85269 12.7882 8.22579C12.7301 8.69207 12.5316 9.22817 12.1521 9.76266C11.98 10.3746 11.5743 11.0631 10.8731 11.6997C12.3373 10.8253 12.9781 9.70982 13.0821 8.87582C13.1573 8.27969 13.008 7.68546 12.7143 7.12504Z" fill="white"/>
</g>
<defs>
<clipPath id="clip0_1740_9230">
<rect x="0.466675" width="16" height="16" rx="4" fill="white"/>
</clipPath>
</defs>
</svg>
