<svg width="17" height="16" viewBox="0 0 17 16" fill="none" xmlns="http://www.w3.org/2000/svg">
<g clip-path="url(#clip0_1740_9262)">
<rect x="0.466675" width="16" height="16" rx="4" fill="#191535"/>
<path d="M7.92629 10.8138C7.77043 10.66 7.60707 10.513 7.46153 10.3502C7.36588 10.2429 7.26123 10.2086 7.12769 10.2332C6.99678 10.109 6.99134 9.96873 7.117 9.84119C7.28805 9.66733 7.46003 9.49423 7.63502 9.32449C7.75055 9.21252 7.84301 9.08349 7.94167 8.95764C8.14853 8.69319 8.05288 8.36854 7.87884 8.1793C7.77943 8.07127 7.67197 7.97056 7.569 7.86553C7.54612 7.84227 7.51536 7.82464 7.50692 7.7892C7.54593 7.76181 7.58475 7.73443 7.62377 7.70705C7.68416 7.67554 7.73986 7.63803 7.78356 7.58476C7.79125 7.57764 7.79913 7.57051 7.80682 7.5632C7.81863 7.56901 7.83382 7.57182 7.8417 7.58101C8.20686 7.997 8.57859 8.40736 8.93325 8.83217C9.13074 9.06886 9.13243 9.34287 9.01052 9.62363C8.95257 9.75698 8.86329 9.8682 8.78677 9.9888C8.76014 10.0136 8.73257 10.0374 8.70706 10.0633C8.45312 10.3198 8.19655 10.5741 7.92629 10.8138ZM7.60876 10.0593C7.76293 9.90459 7.91147 9.74461 8.04501 9.57187C8.13259 9.4584 8.20105 9.33312 8.23293 9.19095C8.26388 9.15382 8.27307 9.10749 8.28451 9.06304C8.29407 9.02572 8.2862 8.99046 8.25262 8.96533C8.21511 8.9372 8.18211 8.95689 8.15266 8.97846C8.10671 9.01203 8.06845 9.05329 8.04613 9.10712C7.88953 9.38357 7.68097 9.62176 7.48573 9.86989C7.43546 9.91734 7.38501 9.96442 7.33531 10.0122C7.31806 10.0287 7.30774 10.0456 7.3205 10.073C7.38876 10.2206 7.46228 10.2337 7.57256 10.1167C7.58832 10.0998 7.60576 10.0843 7.60876 10.0593Z" fill="url(#paint0_linear_1740_9262)"/>
<path d="M7.23591 6.00333C6.33247 5.09952 5.42829 4.19646 4.52467 3.29284C4.43464 3.20263 4.33449 3.14224 4.20208 3.13342C3.93538 3.11579 3.74577 3.22551 3.62498 3.46107C3.59498 3.53797 3.57303 3.61637 3.58616 3.70039C3.58654 3.80336 3.61279 3.90313 3.68425 3.97478C4.6794 4.97293 5.67698 5.96864 6.67457 6.96434C6.95102 7.24023 7.22953 7.51425 7.50692 7.7892C7.54593 7.76181 7.58475 7.73443 7.62377 7.70705C7.68416 7.67554 7.73986 7.63803 7.78356 7.58476C7.79125 7.57764 7.79913 7.57051 7.80682 7.5632C7.86552 7.50974 7.92422 7.45667 7.98293 7.40322C8.04388 7.33026 8.10483 7.2573 8.16579 7.18434C8.18754 7.12789 8.23068 7.08625 8.26575 7.03918C7.92272 6.69371 7.58025 6.34768 7.23591 6.00333Z" fill="url(#paint1_linear_1740_9262)"/>
<path d="M9.80255 7.47899C9.68383 7.52925 9.57749 7.60652 9.45164 7.64103C9.43795 7.64309 9.42426 7.64516 9.41057 7.64722C9.40025 7.68904 9.36874 7.69955 9.33104 7.70067C9.28322 7.71905 9.19863 7.70986 9.25209 7.80514C9.27684 7.93286 9.29072 7.94205 9.40588 7.89629C9.58461 7.82502 9.73841 7.71886 9.85675 7.56507C9.9494 7.51875 10.0083 7.43622 10.0751 7.36214C9.97266 7.37358 9.8937 7.44035 9.80255 7.47899Z" fill="#DEB539"/>
<path d="M10.0751 7.36214C9.97266 7.37358 9.8937 7.44035 9.80255 7.47899C9.68383 7.52925 9.57749 7.60652 9.45164 7.64103C9.45239 7.63765 9.45202 7.63278 9.45389 7.63147C9.65532 7.50637 9.86031 7.3884 10.0906 7.32294L10.0936 7.32594C10.0874 7.33795 10.0811 7.35014 10.0751 7.36214Z" fill="#C18D05"/>
<path d="M9.41057 7.64722C9.40025 7.68904 9.36874 7.69955 9.33104 7.70067C9.3408 7.65791 9.37456 7.65078 9.41057 7.64722Z" fill="#C18D05"/>
<path d="M10.0906 7.32294C10.0972 7.31394 10.1038 7.30475 10.1103 7.29575C10.1139 7.29931 10.1174 7.30288 10.121 7.30644C10.1118 7.313 10.1028 7.31938 10.0936 7.32594L10.0906 7.32294Z" fill="#C18D05"/>
<path d="M8.25262 8.96533C8.21511 8.9372 8.18211 8.95689 8.15266 8.97846C8.10671 9.01203 8.06845 9.05329 8.04613 9.10712C7.88953 9.38357 7.68097 9.62176 7.48573 9.86989C7.43546 9.91734 7.38501 9.96442 7.33531 10.0122C7.31806 10.0287 7.30774 10.0456 7.3205 10.073C7.38876 10.2206 7.46228 10.2337 7.57256 10.1167C7.58832 10.0998 7.60576 10.0843 7.60876 10.0593C7.76293 9.90459 7.91147 9.74461 8.04501 9.57187C8.13259 9.4584 8.20105 9.33312 8.23293 9.19095C8.26388 9.15382 8.27307 9.10749 8.28451 9.06304C8.29407 9.02572 8.2862 8.99046 8.25262 8.96533Z" fill="#DEB539"/>
<path d="M13.0341 9.54899C12.9343 9.23916 12.8024 8.9462 12.5547 8.70763C11.9725 8.14723 11.4106 7.56545 10.8346 6.99848C10.7336 6.89908 10.6747 6.7993 10.696 6.65807C10.5811 6.5356 10.4417 6.52941 10.32 6.64213C10.2859 6.67383 10.2549 6.7089 10.2206 6.7406C9.93308 7.00561 9.69527 7.32444 9.34567 7.52287C9.22658 7.59039 9.11649 7.61721 8.98726 7.58533C8.84491 7.55026 8.72075 7.48349 8.6161 7.38033C8.50001 7.26593 8.38241 7.15302 8.26575 7.03918C8.23068 7.08625 8.18754 7.12789 8.16579 7.18434C8.10483 7.2573 8.04388 7.33026 7.98293 7.40322C8.012 7.48818 8.09377 7.52419 8.15135 7.58233C8.43061 7.86347 8.71119 8.14348 8.99364 8.42162C9.2262 8.65062 9.46271 8.87531 9.69583 9.10356C9.81605 9.22115 9.82018 9.18777 9.70108 9.31249C9.59549 9.42314 9.47508 9.51973 9.386 9.64577C9.28491 9.74686 9.18494 9.84907 9.08235 9.94847C9.01858 10.0104 8.98933 10.0839 8.99101 10.1713C9.00789 10.1904 9.02496 10.2097 9.04184 10.2289C9.06097 10.1377 9.11724 10.0691 9.18007 10.0053C9.27741 9.90665 9.37643 9.8095 9.47471 9.71178C9.82487 9.39276 10.1499 9.04879 10.4807 8.71045C10.5423 8.64743 10.6085 8.59417 10.6951 8.57128C10.7731 8.61555 10.8106 8.69919 10.875 8.75659C11.1094 8.96496 11.3232 9.1947 11.5498 9.41095C11.6685 9.52423 11.7677 9.64877 11.8414 9.79449C11.8739 9.7673 11.8876 9.79187 11.8981 9.81663C11.923 9.87627 11.9461 9.93647 11.9699 9.99668C12.0432 10.2373 12.0792 10.483 12.0693 10.7347C12.0655 10.7743 12.0569 10.814 12.0588 10.8534C12.068 11.0475 11.9956 11.2109 11.875 11.3574C11.8017 11.4466 11.8048 11.4845 11.8967 11.5575C11.9273 11.5819 11.9645 11.6031 12.0018 11.613C12.321 11.6989 12.6061 11.6287 12.8593 11.4196C13.0665 11.2518 13.1599 11.0305 13.1803 10.7679C13.2134 10.3511 13.161 9.94304 13.0341 9.54899ZM9.33104 7.70067C9.3408 7.65791 9.37456 7.65078 9.41057 7.64722C9.42426 7.64516 9.43795 7.64309 9.45164 7.64103C9.45239 7.63765 9.45202 7.63278 9.45389 7.63147C9.65532 7.50637 9.86031 7.3884 10.0906 7.32294C10.0972 7.31394 10.1038 7.30475 10.1103 7.29575C10.1139 7.29931 10.1174 7.30288 10.121 7.30644C10.1118 7.313 10.1028 7.31938 10.0936 7.32594C10.0874 7.33795 10.0811 7.35014 10.0751 7.36214C10.0083 7.43622 9.9494 7.51875 9.85675 7.56507C9.73841 7.71886 9.58461 7.82502 9.40588 7.89629C9.29072 7.94205 9.27684 7.93286 9.25209 7.80514C9.19863 7.70986 9.28322 7.71905 9.33104 7.70067Z" fill="url(#paint2_linear_1740_9262)"/>
<path d="M13.1376 9.37569C13.0534 9.09343 12.9108 8.8483 12.6957 8.63787C12.0537 8.00957 11.4219 7.37114 10.7855 6.73703C10.7574 6.70909 10.7261 6.68433 10.696 6.65807C10.6747 6.7993 10.7336 6.89908 10.8346 6.99848C11.4106 7.56545 11.9725 8.14723 12.5547 8.70763C12.8024 8.9462 12.9343 9.23916 13.0341 9.54899C13.161 9.94304 13.2134 10.3511 13.1803 10.7679C13.1599 11.0305 13.0665 11.2518 12.8593 11.4196C12.6061 11.6287 12.321 11.6989 12.0018 11.613C11.9645 11.6031 11.9273 11.5819 11.8967 11.5575C11.8048 11.4845 11.8017 11.4466 11.875 11.3574C11.9956 11.2109 12.068 11.0475 12.0588 10.8534C12.0569 10.814 12.0655 10.7743 12.0693 10.7347C12.0792 10.483 12.0432 10.2373 11.9699 9.99668C11.9461 9.93647 11.923 9.87627 11.8981 9.81663C11.8876 9.79187 11.8739 9.7673 11.8414 9.79449C11.9504 10.1293 11.9802 10.4723 11.953 10.823C11.9273 11.1563 11.6526 11.4395 11.3221 11.4624C11.0456 11.4815 10.7699 11.4907 10.4961 11.4361C10.3588 11.3988 10.2217 11.3613 10.0976 11.2885C10.0906 11.2835 10.0831 11.278 10.0762 11.273C10.0317 11.2279 9.98729 11.1829 9.94284 11.1381C9.64238 10.8354 9.3423 10.5318 9.04184 10.2289C9.02496 10.2097 9.00789 10.1904 8.99101 10.1713C8.98933 10.0839 9.01858 10.0104 9.08235 9.94847C9.18494 9.84907 9.28491 9.74686 9.386 9.64577C9.47508 9.51973 9.59549 9.42314 9.70108 9.31249C9.82018 9.18777 9.81605 9.22115 9.69583 9.10356C9.46271 8.87531 9.2262 8.65062 8.99364 8.42162C8.71119 8.14348 8.43061 7.86347 8.15135 7.58233C8.09377 7.52419 8.012 7.48818 7.98293 7.40322C7.92422 7.45667 7.86552 7.50974 7.80682 7.5632C7.81863 7.56901 7.83382 7.57182 7.8417 7.58101C8.20686 7.997 8.57859 8.40736 8.93325 8.83217C9.13074 9.06886 9.13243 9.34287 9.01052 9.62363C8.95257 9.75698 8.86329 9.8682 8.78677 9.9888C8.76014 10.0136 8.73257 10.0374 8.70706 10.0633C8.45312 10.3198 8.19655 10.5741 7.92629 10.8138C7.77043 10.66 7.60707 10.513 7.46153 10.3502C7.36588 10.2429 7.26123 10.2086 7.12769 10.2332C7.13613 10.2435 7.14363 10.2551 7.15301 10.2645C7.83532 10.9464 8.51801 11.6284 9.20013 12.3105C9.28134 12.3915 9.37324 12.4581 9.47583 12.5078C9.99329 12.7582 10.5469 12.8529 11.1148 12.8685C11.3679 12.8754 11.6218 12.8439 11.8754 12.8413C12.0603 12.8394 12.2342 12.7985 12.3964 12.7175C12.9577 12.4369 13.2996 12.002 13.3298 11.3562C13.3381 11.1796 13.3345 11.0021 13.345 10.8257C13.3752 10.327 13.2784 9.84776 13.1376 9.37569Z" fill="url(#paint3_linear_1740_9262)"/>
</g>
<defs>
<linearGradient id="paint0_linear_1740_9262" x1="8.67221" y1="14.3261" x2="8.4971" y2="3.8317" gradientUnits="userSpaceOnUse">
<stop offset="1.06556e-08" stop-color="#DAA700"/>
<stop offset="0.0239" stop-color="#D9A600"/>
<stop offset="0.6053" stop-color="#C69204"/>
<stop offset="1" stop-color="#BF8B05"/>
</linearGradient>
<linearGradient id="paint1_linear_1740_9262" x1="6.79922" y1="9.30837" x2="9.28234" y2="6.83116" gradientUnits="userSpaceOnUse">
<stop offset="5.32779e-09" stop-color="#9E8C4F"/>
<stop offset="0.052" stop-color="#A5955C"/>
<stop offset="0.2961" stop-color="#C5BA96"/>
<stop offset="0.5215" stop-color="#DED8C3"/>
<stop offset="0.7211" stop-color="#F0EDE4"/>
<stop offset="0.8874" stop-color="#FBFAF8"/>
<stop offset="1" stop-color="white"/>
</linearGradient>
<linearGradient id="paint2_linear_1740_9262" x1="3.58189" y1="8.00092" x2="13.3507" y2="8.00092" gradientUnits="userSpaceOnUse">
<stop offset="1.06556e-08" stop-color="#B88306"/>
<stop offset="1" stop-color="#BA8506"/>
</linearGradient>
<linearGradient id="paint3_linear_1740_9262" x1="8.39748" y1="7.40806" x2="12.2371" y2="12.5071" gradientUnits="userSpaceOnUse">
<stop offset="1.06556e-08" stop-color="#EDC960"/>
<stop offset="0.4523" stop-color="#EDC85E"/>
<stop offset="0.6357" stop-color="#EBC657"/>
<stop offset="0.7705" stop-color="#E8C14B"/>
<stop offset="0.8814" stop-color="#E4BB39"/>
<stop offset="0.9766" stop-color="#DFB223"/>
<stop offset="1" stop-color="#DDB01C"/>
</linearGradient>
<clipPath id="clip0_1740_9262">
<rect x="0.466675" width="16" height="16" rx="4" fill="white"/>
</clipPath>
</defs>
</svg>
