<svg width="16" height="16" viewBox="0 0 16 16" fill="none" xmlns="http://www.w3.org/2000/svg">
<g clip-path="url(#clip0_1740_9262)">
<rect width="16" height="16" rx="4" fill="#191535"/>
<path d="M7.45961 10.8138C7.30376 10.66 7.1404 10.513 6.99486 10.3502C6.89921 10.2429 6.79455 10.2086 6.66102 10.2332C6.53011 10.109 6.52467 9.96873 6.65033 9.84119C6.82137 9.66733 6.99336 9.49423 7.16834 9.32449C7.28388 9.21252 7.37634 9.08349 7.47499 8.95764C7.68186 8.69319 7.58621 8.36854 7.41216 8.1793C7.31276 8.07127 7.20529 7.97056 7.10233 7.86553C7.07944 7.84227 7.04869 7.82464 7.04025 7.7892C7.07926 7.76181 7.11808 7.73443 7.15709 7.70705C7.21748 7.67554 7.27318 7.63803 7.31688 7.58476C7.32457 7.57764 7.33245 7.57051 7.34014 7.5632C7.35196 7.56901 7.36715 7.57182 7.37503 7.58101C7.74019 7.997 8.11191 8.40736 8.46657 8.83217C8.66407 9.06886 8.66575 9.34287 8.54384 9.62363C8.48589 9.75698 8.39662 9.8682 8.3201 9.9888C8.29346 10.0136 8.26589 10.0374 8.24039 10.0633C7.98644 10.3198 7.72987 10.5741 7.45961 10.8138ZM7.14209 10.0593C7.29625 9.90459 7.44479 9.74461 7.57833 9.57187C7.66592 9.4584 7.73437 9.33312 7.76626 9.19095C7.7972 9.15382 7.80639 9.10749 7.81783 9.06304C7.8274 9.02572 7.81952 8.99046 7.78595 8.96533C7.74844 8.9372 7.71543 8.95689 7.68599 8.97846C7.64004 9.01203 7.60178 9.05329 7.57946 9.10712C7.42285 9.38357 7.21429 9.62176 7.01905 9.86989C6.96879 9.91734 6.91834 9.96442 6.86864 10.0122C6.85138 10.0287 6.84107 10.0456 6.85382 10.073C6.92209 10.2206 6.99561 10.2337 7.10589 10.1167C7.12164 10.0998 7.13909 10.0843 7.14209 10.0593Z" fill="url(#paint0_linear_1740_9262)"/>
<path d="M6.76923 6.00333C5.8658 5.09952 4.96161 4.19646 4.05799 3.29284C3.96797 3.20263 3.86782 3.14224 3.7354 3.13342C3.46871 3.11579 3.27909 3.22551 3.15831 3.46107C3.1283 3.53797 3.10636 3.61637 3.11949 3.70039C3.11986 3.80336 3.14612 3.90313 3.21758 3.97478C4.21272 4.97293 5.21031 5.96864 6.20789 6.96434C6.48434 7.24023 6.76286 7.51425 7.04025 7.7892C7.07926 7.76181 7.11808 7.73443 7.15709 7.70705C7.21748 7.67554 7.27318 7.63803 7.31688 7.58476C7.32457 7.57764 7.33245 7.57051 7.34014 7.5632C7.39884 7.50974 7.45755 7.45667 7.51625 7.40322C7.57721 7.33026 7.63816 7.2573 7.69911 7.18434C7.72087 7.12789 7.76401 7.08625 7.79908 7.03918C7.45605 6.69371 7.11358 6.34768 6.76923 6.00333Z" fill="url(#paint1_linear_1740_9262)"/>
<path d="M9.33587 7.47899C9.21715 7.52925 9.11081 7.60652 8.98496 7.64103C8.97127 7.64309 8.95758 7.64516 8.94389 7.64722C8.93358 7.68904 8.90207 7.69955 8.86437 7.70067C8.81654 7.71905 8.73196 7.70986 8.78541 7.80514C8.81017 7.93286 8.82405 7.94205 8.9392 7.89629C9.11794 7.82502 9.27173 7.71886 9.39008 7.56507C9.48273 7.51875 9.54162 7.43622 9.60839 7.36214C9.50598 7.37358 9.42702 7.44035 9.33587 7.47899Z" fill="#DEB539"/>
<path d="M9.60839 7.36214C9.50598 7.37358 9.42702 7.44035 9.33587 7.47899C9.21715 7.52925 9.11081 7.60652 8.98496 7.64103C8.98571 7.63765 8.98534 7.63278 8.98722 7.63147C9.18865 7.50637 9.39364 7.3884 9.62395 7.32294L9.62695 7.32594C9.62076 7.33795 9.61439 7.35014 9.60839 7.36214Z" fill="#C18D05"/>
<path d="M8.94389 7.64722C8.93358 7.68904 8.90207 7.69955 8.86437 7.70067C8.87412 7.65791 8.90788 7.65078 8.94389 7.64722Z" fill="#C18D05"/>
<path d="M9.62395 7.32294C9.63052 7.31394 9.63708 7.30475 9.64365 7.29575C9.64721 7.29931 9.65077 7.30288 9.65434 7.30644C9.64515 7.313 9.63614 7.31938 9.62695 7.32594L9.62395 7.32294Z" fill="#C18D05"/>
<path d="M7.78595 8.96533C7.74844 8.9372 7.71543 8.95689 7.68599 8.97846C7.64004 9.01203 7.60178 9.05329 7.57946 9.10712C7.42285 9.38357 7.21429 9.62176 7.01905 9.86989C6.96879 9.91734 6.91834 9.96442 6.86864 10.0122C6.85138 10.0287 6.84107 10.0456 6.85382 10.073C6.92209 10.2206 6.99561 10.2337 7.10589 10.1167C7.12164 10.0998 7.13909 10.0843 7.14209 10.0593C7.29625 9.90459 7.44479 9.74461 7.57833 9.57187C7.66592 9.4584 7.73437 9.33312 7.76626 9.19095C7.7972 9.15382 7.80639 9.10749 7.81783 9.06304C7.8274 9.02572 7.81952 8.99046 7.78595 8.96533Z" fill="#DEB539"/>
<path d="M12.5674 9.54899C12.4676 9.23916 12.3358 8.9462 12.088 8.70763C11.5058 8.14723 10.9439 7.56545 10.368 6.99848C10.2669 6.89908 10.208 6.7993 10.2294 6.65807C10.1144 6.5356 9.97505 6.52941 9.85333 6.64213C9.81919 6.67383 9.78825 6.7089 9.75393 6.7406C9.46641 7.00561 9.22859 7.32444 8.879 7.52287C8.7599 7.59039 8.64981 7.61721 8.52059 7.58533C8.37824 7.55026 8.25408 7.48349 8.14942 7.38033C8.03333 7.26593 7.91574 7.15302 7.79908 7.03918C7.76401 7.08625 7.72087 7.12789 7.69911 7.18434C7.63816 7.2573 7.57721 7.33026 7.51625 7.40322C7.54532 7.48818 7.62709 7.52419 7.68467 7.58233C7.96394 7.86347 8.24451 8.14348 8.52697 8.42162C8.75953 8.65062 8.99603 8.87531 9.22916 9.10356C9.34938 9.22115 9.3535 9.18777 9.23441 9.31249C9.12882 9.42314 9.00841 9.51973 8.91932 9.64577C8.81823 9.74686 8.71827 9.84907 8.61568 9.94847C8.55191 10.0104 8.52265 10.0839 8.52434 10.1713C8.54122 10.1904 8.55829 10.2097 8.57517 10.2289C8.5943 10.1377 8.65056 10.0691 8.71339 10.0053C8.81073 9.90665 8.90976 9.8095 9.00803 9.71178C9.35819 9.39276 9.68322 9.04879 10.0141 8.71045C10.0756 8.64743 10.1418 8.59417 10.2284 8.57128C10.3065 8.61555 10.344 8.69919 10.4083 8.75659C10.6427 8.96496 10.8565 9.1947 11.0831 9.41095C11.2018 9.52423 11.301 9.64877 11.3747 9.79449C11.4072 9.7673 11.4209 9.79187 11.4314 9.81663C11.4563 9.87627 11.4794 9.93647 11.5032 9.99668C11.5765 10.2373 11.6126 10.483 11.6026 10.7347C11.5989 10.7743 11.5902 10.814 11.5921 10.8534C11.6013 11.0475 11.5289 11.2109 11.4083 11.3574C11.335 11.4466 11.3382 11.4845 11.4301 11.5575C11.4606 11.5819 11.4978 11.6031 11.5351 11.613C11.8543 11.6989 12.1394 11.6287 12.3926 11.4196C12.5998 11.2518 12.6932 11.0305 12.7137 10.7679C12.7467 10.3511 12.6944 9.94304 12.5674 9.54899ZM8.86437 7.70067C8.87412 7.65791 8.90788 7.65078 8.94389 7.64722C8.95758 7.64516 8.97127 7.64309 8.98496 7.64103C8.98571 7.63765 8.98534 7.63278 8.98722 7.63147C9.18865 7.50637 9.39364 7.3884 9.62395 7.32294C9.63052 7.31394 9.63708 7.30475 9.64365 7.29575C9.64721 7.29931 9.65077 7.30288 9.65434 7.30644C9.64515 7.313 9.63614 7.31938 9.62695 7.32594C9.62076 7.33795 9.61439 7.35014 9.60839 7.36214C9.54162 7.43622 9.48273 7.51875 9.39008 7.56507C9.27173 7.71886 9.11794 7.82502 8.9392 7.89629C8.82405 7.94205 8.81017 7.93286 8.78541 7.80514C8.73196 7.70986 8.81654 7.71905 8.86437 7.70067Z" fill="url(#paint2_linear_1740_9262)"/>
<path d="M12.6709 9.37569C12.5867 9.09343 12.4442 8.8483 12.229 8.63787C11.5871 8.00957 10.9552 7.37114 10.3188 6.73703C10.2907 6.70909 10.2594 6.68433 10.2294 6.65807C10.208 6.7993 10.2669 6.89908 10.368 6.99848C10.9439 7.56545 11.5058 8.14723 12.088 8.70763C12.3358 8.9462 12.4676 9.23916 12.5674 9.54899C12.6944 9.94304 12.7467 10.3511 12.7137 10.7679C12.6932 11.0305 12.5998 11.2518 12.3926 11.4196C12.1394 11.6287 11.8543 11.6989 11.5351 11.613C11.4978 11.6031 11.4606 11.5819 11.4301 11.5575C11.3382 11.4845 11.335 11.4466 11.4083 11.3574C11.5289 11.2109 11.6013 11.0475 11.5921 10.8534C11.5902 10.814 11.5989 10.7743 11.6026 10.7347C11.6126 10.483 11.5765 10.2373 11.5032 9.99668C11.4794 9.93647 11.4563 9.87627 11.4314 9.81663C11.4209 9.79187 11.4072 9.7673 11.3747 9.79449C11.4837 10.1293 11.5135 10.4723 11.4863 10.823C11.4606 11.1563 11.1859 11.4395 10.8554 11.4624C10.579 11.4815 10.3033 11.4907 10.0294 11.4361C9.89215 11.3988 9.75505 11.3613 9.63089 11.2885C9.62395 11.2835 9.61645 11.278 9.60951 11.273C9.56506 11.2279 9.52061 11.1829 9.47616 11.1381C9.17571 10.8354 8.87562 10.5318 8.57517 10.2289C8.55829 10.2097 8.54122 10.1904 8.52434 10.1713C8.52265 10.0839 8.55191 10.0104 8.61568 9.94847C8.71827 9.84907 8.81823 9.74686 8.91932 9.64577C9.00841 9.51973 9.12882 9.42314 9.23441 9.31249C9.3535 9.18777 9.34938 9.22115 9.22916 9.10356C8.99603 8.87531 8.75953 8.65062 8.52697 8.42162C8.24451 8.14348 7.96394 7.86347 7.68467 7.58233C7.62709 7.52419 7.54532 7.48818 7.51625 7.40322C7.45755 7.45667 7.39884 7.50974 7.34014 7.5632C7.35196 7.56901 7.36715 7.57182 7.37503 7.58101C7.74019 7.997 8.11191 8.40736 8.46657 8.83217C8.66407 9.06886 8.66575 9.34287 8.54384 9.62363C8.48589 9.75698 8.39662 9.8682 8.3201 9.9888C8.29346 10.0136 8.26589 10.0374 8.24039 10.0633C7.98644 10.3198 7.72987 10.5741 7.45961 10.8138C7.30376 10.66 7.1404 10.513 6.99486 10.3502C6.89921 10.2429 6.79455 10.2086 6.66102 10.2332C6.66946 10.2435 6.67696 10.2551 6.68634 10.2645C7.36865 10.9464 8.05133 11.6284 8.73346 12.3105C8.81467 12.3915 8.90657 12.4581 9.00916 12.5078C9.52661 12.7582 10.0803 12.8529 10.6482 12.8685C10.9012 12.8754 11.1551 12.8439 11.4087 12.8413C11.5936 12.8394 11.7675 12.7985 11.9297 12.7175C12.491 12.4369 12.833 12.002 12.8632 11.3562C12.8714 11.1796 12.8678 11.0021 12.8783 10.8257C12.9085 10.327 12.8118 9.84776 12.6709 9.37569Z" fill="url(#paint3_linear_1740_9262)"/>
</g>
<defs>
<linearGradient id="paint0_linear_1740_9262" x1="8.20553" y1="14.3261" x2="8.03043" y2="3.8317" gradientUnits="userSpaceOnUse">
<stop offset="1.06556e-08" stop-color="#DAA700"/>
<stop offset="0.0239" stop-color="#D9A600"/>
<stop offset="0.6053" stop-color="#C69204"/>
<stop offset="1" stop-color="#BF8B05"/>
</linearGradient>
<linearGradient id="paint1_linear_1740_9262" x1="6.33255" y1="9.30837" x2="8.81567" y2="6.83116" gradientUnits="userSpaceOnUse">
<stop offset="5.32779e-09" stop-color="#9E8C4F"/>
<stop offset="0.052" stop-color="#A5955C"/>
<stop offset="0.2961" stop-color="#C5BA96"/>
<stop offset="0.5215" stop-color="#DED8C3"/>
<stop offset="0.7211" stop-color="#F0EDE4"/>
<stop offset="0.8874" stop-color="#FBFAF8"/>
<stop offset="1" stop-color="white"/>
</linearGradient>
<linearGradient id="paint2_linear_1740_9262" x1="3.11522" y1="8.00092" x2="12.884" y2="8.00092" gradientUnits="userSpaceOnUse">
<stop offset="1.06556e-08" stop-color="#B88306"/>
<stop offset="1" stop-color="#BA8506"/>
</linearGradient>
<linearGradient id="paint3_linear_1740_9262" x1="7.93081" y1="7.40806" x2="11.7704" y2="12.5071" gradientUnits="userSpaceOnUse">
<stop offset="1.06556e-08" stop-color="#EDC960"/>
<stop offset="0.4523" stop-color="#EDC85E"/>
<stop offset="0.6357" stop-color="#EBC657"/>
<stop offset="0.7705" stop-color="#E8C14B"/>
<stop offset="0.8814" stop-color="#E4BB39"/>
<stop offset="0.9766" stop-color="#DFB223"/>
<stop offset="1" stop-color="#DDB01C"/>
</linearGradient>
<clipPath id="clip0_1740_9262">
<rect width="16" height="16" rx="4" fill="white"/>
</clipPath>
</defs>
</svg>
