<svg width="16" height="16" viewBox="0 0 16 16" fill="none" xmlns="http://www.w3.org/2000/svg">
<g clip-path="url(#clip0_4623_116314)">
<rect width="16" height="16" rx="4" fill="#F8FAFF"/>
<path d="M5.6 9.07937C5.6 8.9391 5.48979 8.82539 5.35385 8.82539H4.24615C4.11021 8.82539 4 8.9391 4 9.07937V10.2222C4 10.3625 4.11021 10.4762 4.24615 10.4762H5.23077C5.36672 10.4762 5.47692 10.5899 5.47692 10.7302V11.746C5.47692 11.8863 5.58713 12 5.72308 12H6.83077C6.96672 12 7.07692 11.8863 7.07692 11.746V10.6032C7.07692 10.4629 6.96672 10.3492 6.83077 10.3492H5.84615C5.71021 10.3492 5.6 10.2355 5.6 10.0952V9.07937Z" fill="url(#paint0_linear_4623_116314)"/>
<path d="M7.07692 4.25397C7.07692 4.11371 6.96672 4 6.83077 4H5.72308C5.58713 4 5.47692 4.11371 5.47692 4.25397V5.26984C5.47692 5.4101 5.36672 5.52381 5.23077 5.52381H4.24615C4.11021 5.52381 4 5.63752 4 5.77778V6.92063C4 7.0609 4.11021 7.1746 4.24615 7.1746H5.35385C5.48979 7.1746 5.6 7.0609 5.6 6.92063V5.90476C5.6 5.7645 5.71021 5.65079 5.84615 5.65079H6.83077C6.96672 5.65079 7.07692 5.53709 7.07692 5.39682V4.25397Z" fill="url(#paint1_linear_4623_116314)"/>
<path d="M8.92306 4.25397C8.92306 4.11371 9.03329 4 9.16922 4H10.2769C10.4129 4 10.5231 4.11371 10.5231 4.25397V5.26984C10.5231 5.4101 10.6333 5.52381 10.7692 5.52381H11.7538C11.8898 5.52381 12 5.63752 12 5.77778V6.92063C12 7.0609 11.8898 7.1746 11.7538 7.1746H10.6462C10.5102 7.1746 10.4 7.0609 10.4 6.92063V5.90476C10.4 5.7645 10.2898 5.65079 10.1538 5.65079H9.16922C9.03329 5.65079 8.92306 5.53709 8.92306 5.39682V4.25397Z" fill="url(#paint2_linear_4623_116314)"/>
<path d="M10.4 9.07937C10.4 8.9391 10.5102 8.82539 10.6462 8.82539H11.7538C11.8898 8.82539 12 8.9391 12 9.07937V10.2222C12 10.3625 11.8898 10.4762 11.7538 10.4762H10.7692C10.6333 10.4762 10.5231 10.5899 10.5231 10.7302V11.746C10.5231 11.8863 10.4129 12 10.2769 12H9.16922C9.03329 12 8.92306 11.8863 8.92306 11.746V10.6032C8.92306 10.4629 9.03329 10.3492 9.16922 10.3492H10.1538C10.2898 10.3492 10.4 10.2355 10.4 10.0952V9.07937Z" fill="url(#paint3_linear_4623_116314)"/>
<path d="M6.80121 8.14243C6.74473 8.05642 6.74473 7.94358 6.80121 7.85756L7.79621 6.27412C7.89384 6.12541 8.10616 6.12541 8.20379 6.27412L9.19878 7.85756C9.25527 7.94358 9.25527 8.05642 9.19878 8.14243L8.20379 9.72588C8.10616 9.87457 7.89384 9.87457 7.79621 9.72588L6.80121 8.14243Z" fill="url(#paint4_linear_4623_116314)"/>
</g>
<defs>
<linearGradient id="paint0_linear_4623_116314" x1="14.4" y1="-8.15996" x2="14.4" y2="12" gradientUnits="userSpaceOnUse">
<stop stop-color="#1766FF"/>
<stop offset="1" stop-color="#16ABFF"/>
</linearGradient>
<linearGradient id="paint1_linear_4623_116314" x1="14.4" y1="4" x2="14.4" y2="24.16" gradientUnits="userSpaceOnUse">
<stop stop-color="#1766FF"/>
<stop offset="1" stop-color="#16ABFF"/>
</linearGradient>
<linearGradient id="paint2_linear_4623_116314" x1="1.60005" y1="4" x2="1.60005" y2="24.16" gradientUnits="userSpaceOnUse">
<stop stop-color="#1766FF"/>
<stop offset="1" stop-color="#16ABFF"/>
</linearGradient>
<linearGradient id="paint3_linear_4623_116314" x1="1.60005" y1="-8.15996" x2="1.60005" y2="12" gradientUnits="userSpaceOnUse">
<stop stop-color="#1766FF"/>
<stop offset="1" stop-color="#16ABFF"/>
</linearGradient>
<linearGradient id="paint4_linear_4623_116314" x1="8" y1="4" x2="8" y2="12" gradientUnits="userSpaceOnUse">
<stop stop-color="#1766FF"/>
<stop offset="1" stop-color="#16ABFF"/>
</linearGradient>
<clipPath id="clip0_4623_116314">
<rect width="16" height="16" rx="4" fill="white"/>
</clipPath>
</defs>
</svg>
