<svg width="17" height="16" viewBox="0 0 17 16" fill="none" xmlns="http://www.w3.org/2000/svg">
<g clip-path="url(#clip0_2530_65060)">
<rect x="0.533203" width="16" height="16" rx="4" fill="white" fill-opacity="0.08"/>
<path fill-rule="evenodd" clip-rule="evenodd" d="M9.99409 3.09564C9.18722 2.30145 7.87902 2.30145 7.07215 3.09564L5.00921 5.12619C3.06301 7.04181 3.06301 10.1477 5.00921 12.0633C6.95542 13.9789 10.1108 13.9789 12.057 12.0633C14.0032 10.1477 14.0032 7.04181 12.057 5.12619L9.99409 3.09564ZM9.13892 6.4503C9.37306 6.7024 9.678 6.80319 9.82001 6.67541C9.96203 6.54762 9.88736 6.23966 9.65323 5.98755C9.41909 5.73544 9.11415 5.63466 8.97214 5.76244C8.83012 5.89023 8.90479 6.19819 9.13892 6.4503ZM10.5145 7.40059C10.4216 7.48416 10.2222 7.41826 10.0691 7.25339C9.916 7.08852 9.86716 6.88712 9.96004 6.80356C10.0529 6.71999 10.2523 6.78591 10.4054 6.95077C10.5586 7.11564 10.6074 7.31703 10.5145 7.40059ZM8.96062 4.55556C8.71705 4.33353 8.34086 4.33353 8.09731 4.55556L6.20328 6.28219C6.10933 6.36784 6.04387 6.47944 6.01548 6.60235L5.44333 9.08017C5.41987 9.18176 5.42302 9.28354 5.44845 9.37821C5.44948 9.45023 5.46333 9.52359 5.49161 9.59544L5.89883 10.6304C5.9532 10.7685 6.05561 10.8832 6.18786 10.9539L8.22582 12.0441C8.41498 12.1453 8.64335 12.1453 8.83252 12.0441L10.8705 10.9539C11.0027 10.8832 11.1051 10.7685 11.1595 10.6304L11.5667 9.59544C11.5952 9.52304 11.6091 9.44911 11.6099 9.37656C11.6349 9.28236 11.6379 9.18117 11.6146 9.08017L11.0424 6.60235C11.0141 6.47944 10.9486 6.36784 10.8546 6.28219L8.96062 4.55556Z" fill="white"/>
</g>
<defs>
<clipPath id="clip0_2530_65060">
<path d="M0.533203 8C0.533203 4.22876 0.533203 2.34315 1.70478 1.17157C2.87635 0 4.76197 0 8.5332 0C12.3044 0 14.1901 0 15.3616 1.17157C16.5332 2.34315 16.5332 4.22876 16.5332 8C16.5332 11.7712 16.5332 13.6569 15.3616 14.8284C14.1901 16 12.3044 16 8.5332 16C4.76197 16 2.87635 16 1.70478 14.8284C0.533203 13.6569 0.533203 11.7712 0.533203 8Z" fill="white"/>
</clipPath>
</defs>
</svg>
