<svg width="19" height="18" viewBox="0 0 19 18" fill="none" xmlns="http://www.w3.org/2000/svg">
<g clip-path="url(#clip0_3659_50487)">
<rect x="1.46667" y="1" width="16" height="16" rx="4" fill="white" fill-opacity="0.08"/>
<g clip-path="url(#clip1_3659_50487)">
<path d="M4.73835 1H14.195C16.01 1 17.4667 2.45664 17.4667 4.27168V13.7283C17.4667 15.5434 16.01 17 14.195 17H4.73835C2.92331 17 1.46667 15.5434 1.46667 13.7283V4.27168C1.46667 2.45664 2.92331 1 4.73835 1Z" fill="url(#paint0_linear_3659_50487)"/>
<path d="M11.5352 4.63074L5.30859 13.3693H7.20811L13.4564 4.63074H11.5352Z" fill="white"/>
<path d="M7.41933 4.63074L9.25549 7.2061L8.28461 8.59874L5.47693 4.63074H7.41933Z" fill="url(#paint1_linear_3659_50487)"/>
<path d="M11.7041 13.3693L9.67786 10.52L10.6276 9.14783L13.6247 13.3693H11.7041Z" fill="url(#paint2_linear_3659_50487)"/>
<path d="M4.73835 1H14.195C16.01 1 17.4667 2.45664 17.4667 4.27168V13.7283C17.4667 15.5434 16.01 17 14.195 17H4.73835C2.92331 17 1.46667 15.5434 1.46667 13.7283V4.27168C1.46667 2.45664 2.92331 1 4.73835 1Z" stroke="#2D2D3D" stroke-width="0.042105" stroke-miterlimit="75.4132"/>
</g>
</g>
<rect x="0.966675" y="0.5" width="17" height="17" rx="4.5" stroke="#1F1A34"/>
<defs>
<linearGradient id="paint0_linear_3659_50487" x1="12.0374" y1="-1.77201" x2="8.15347" y2="14.5025" gradientUnits="userSpaceOnUse">
<stop stop-color="#2C2C3D"/>
<stop offset="1" stop-color="#1A1A27"/>
</linearGradient>
<linearGradient id="paint1_linear_3659_50487" x1="6.74042" y1="5.28421" x2="9.31564" y2="8.36603" gradientUnits="userSpaceOnUse">
<stop stop-color="white"/>
<stop offset="1" stop-color="white" stop-opacity="0.549"/>
</linearGradient>
<linearGradient id="paint2_linear_3659_50487" x1="12.176" y1="12.6361" x2="8.9886" y2="8.28782" gradientUnits="userSpaceOnUse">
<stop stop-color="#6966FF"/>
<stop offset="1" stop-color="#6966FF" stop-opacity="0.3608"/>
</linearGradient>
<clipPath id="clip0_3659_50487">
<rect x="1.46667" y="1" width="16" height="16" rx="4" fill="white"/>
</clipPath>
<clipPath id="clip1_3659_50487">
<rect width="16" height="16" fill="white" transform="translate(1.46667 1)"/>
</clipPath>
</defs>
</svg>
