<svg width="18" height="18" viewBox="0 0 18 18" fill="none" xmlns="http://www.w3.org/2000/svg">
<g clip-path="url(#clip0_3659_50487)">
<rect x="1" y="1" width="16" height="16" rx="4" fill="white" fill-opacity="0.08"/>
<g clip-path="url(#clip1_3659_50487)">
<path d="M4.27168 1H13.7283C15.5434 1 17 2.45664 17 4.27168V13.7283C17 15.5434 15.5434 17 13.7283 17H4.27168C2.45664 17 1 15.5434 1 13.7283V4.27168C1 2.45664 2.45664 1 4.27168 1Z" fill="url(#paint0_linear_3659_50487)"/>
<path d="M11.0685 4.63074L4.84192 13.3693H6.74144L12.9898 4.63074H11.0685Z" fill="white"/>
<path d="M6.95265 4.63074L8.78881 7.2061L7.81793 8.59874L5.01025 4.63074H6.95265Z" fill="url(#paint1_linear_3659_50487)"/>
<path d="M11.2374 13.3693L9.21118 10.52L10.1609 9.14783L13.1581 13.3693H11.2374Z" fill="url(#paint2_linear_3659_50487)"/>
<path d="M4.27168 1H13.7283C15.5434 1 17 2.45664 17 4.27168V13.7283C17 15.5434 15.5434 17 13.7283 17H4.27168C2.45664 17 1 15.5434 1 13.7283V4.27168C1 2.45664 2.45664 1 4.27168 1Z" stroke="#2D2D3D" stroke-width="0.042105" stroke-miterlimit="75.4132"/>
</g>
</g>
<rect x="0.5" y="0.5" width="17" height="17" rx="4.5" stroke="#1F1A34"/>
<defs>
<linearGradient id="paint0_linear_3659_50487" x1="11.5707" y1="-1.77201" x2="7.6868" y2="14.5025" gradientUnits="userSpaceOnUse">
<stop stop-color="#2C2C3D"/>
<stop offset="1" stop-color="#1A1A27"/>
</linearGradient>
<linearGradient id="paint1_linear_3659_50487" x1="6.27375" y1="5.28421" x2="8.84897" y2="8.36603" gradientUnits="userSpaceOnUse">
<stop stop-color="white"/>
<stop offset="1" stop-color="white" stop-opacity="0.549"/>
</linearGradient>
<linearGradient id="paint2_linear_3659_50487" x1="11.7093" y1="12.6361" x2="8.52193" y2="8.28782" gradientUnits="userSpaceOnUse">
<stop stop-color="#6966FF"/>
<stop offset="1" stop-color="#6966FF" stop-opacity="0.3608"/>
</linearGradient>
<clipPath id="clip0_3659_50487">
<rect x="1" y="1" width="16" height="16" rx="4" fill="white"/>
</clipPath>
<clipPath id="clip1_3659_50487">
<rect width="16" height="16" fill="white" transform="translate(1 1)"/>
</clipPath>
</defs>
</svg>