<svg width="16" height="16" viewBox="0 0 16 16" fill="none" xmlns="http://www.w3.org/2000/svg">
<g clip-path="url(#clip0_3659_50487)">
<rect width="16" height="16" rx="4" fill="white" fill-opacity="0.08"/>
<path d="M3.27168 0H12.7283C14.5434 0 16 1.45664 16 3.27168V12.7283C16 14.5434 14.5434 16 12.7283 16H3.27168C1.45664 16 0 14.5434 0 12.7283V3.27168C0 1.45664 1.45664 0 3.27168 0Z" fill="url(#paint0_linear_3659_50487)"/>
<path d="M3.27168 0H12.7283C14.5434 0 16 1.45664 16 3.27168V12.7283C16 14.5434 14.5434 16 12.7283 16H3.27168C1.45664 16 0 14.5434 0 12.7283V3.27168C0 1.45664 1.45664 0 3.27168 0Z" stroke="#2D2D3D" stroke-width="0.042105" stroke-miterlimit="75.4132"/>
<path d="M10.0685 3.63074L3.84192 12.3693H5.74144L11.9898 3.63074H10.0685Z" fill="white"/>
<path d="M5.95265 3.63074L7.78881 6.2061L6.81793 7.59874L4.01025 3.63074H5.95265Z" fill="url(#paint1_linear_3659_50487)"/>
<path d="M10.2374 12.3693L8.21118 9.51999L9.16094 8.14783L12.1581 12.3693H10.2374Z" fill="url(#paint2_linear_3659_50487)"/>
</g>
<defs>
<linearGradient id="paint0_linear_3659_50487" x1="10.5707" y1="-2.77201" x2="6.6868" y2="13.5025" gradientUnits="userSpaceOnUse">
<stop stop-color="#2C2C3D"/>
<stop offset="1" stop-color="#1A1A27"/>
</linearGradient>
<linearGradient id="paint1_linear_3659_50487" x1="5.27375" y1="4.28421" x2="7.84897" y2="7.36603" gradientUnits="userSpaceOnUse">
<stop stop-color="white"/>
<stop offset="1" stop-color="white" stop-opacity="0.549"/>
</linearGradient>
<linearGradient id="paint2_linear_3659_50487" x1="10.7093" y1="11.6361" x2="7.52193" y2="7.28782" gradientUnits="userSpaceOnUse">
<stop stop-color="#6966FF"/>
<stop offset="1" stop-color="#6966FF" stop-opacity="0.3608"/>
</linearGradient>
<clipPath id="clip0_3659_50487">
<rect width="16" height="16" rx="4" fill="white"/>
</clipPath>
</defs>
</svg>
