<svg width="16" height="16" viewBox="0 0 16 16" fill="none" xmlns="http://www.w3.org/2000/svg">
<g clip-path="url(#clip0_4858_80338)">
<rect width="16" height="16" rx="4" fill="#24201F"/>
<path d="M3.0586 9.34497C2.81164 9.09796 2.64602 8.81271 2.56174 8.48926C2.47942 8.16382 2.47942 7.83839 2.56174 7.51298C2.64602 7.18559 2.81066 6.89938 3.05566 6.65433C3.30458 6.40536 3.59172 6.2397 3.91708 6.15736C4.24244 6.07503 4.5678 6.07503 4.89315 6.15736C5.21853 6.2397 5.50468 6.40437 5.75165 6.65138L6.36316 7.26303L7.26868 6.35733L6.65716 5.74568C6.41019 5.49867 6.24456 5.21343 6.16029 4.88997C6.07797 4.56454 6.07701 4.2401 6.15737 3.91664C6.23968 3.59121 6.4053 3.30401 6.65423 3.05504C6.90118 2.80803 7.18733 2.64336 7.51271 2.56103C7.83806 2.47869 8.16243 2.47967 8.48583 2.56397C8.81119 2.6463 9.09736 2.81098 9.34433 3.05799C9.59128 3.305 9.75593 3.59121 9.83825 3.91664C9.92252 4.2401 9.92349 4.56454 9.84117 4.88997C9.76081 5.21736 9.59717 5.50456 9.3502 5.75157L8.74161 6.36027L9.64419 7.26303L10.2528 6.65433C10.4997 6.40732 10.7849 6.24166 11.1083 6.15736C11.4337 6.07503 11.7581 6.076 12.0815 6.16031C12.4068 6.24264 12.6939 6.4083 12.9429 6.65727C13.1898 6.90428 13.3545 7.19049 13.4368 7.51592C13.5211 7.83938 13.5211 8.16284 13.4368 8.48631C13.3545 8.81173 13.1898 9.09796 12.9429 9.34497C12.6939 9.59393 12.4068 9.75959 12.0815 9.84193C11.7581 9.92229 11.4337 9.92132 11.1083 9.83898C10.7869 9.75665 10.5027 9.59198 10.2557 9.34497L9.64714 8.73625L8.74161 9.64197L9.3502 10.2507C9.59717 10.4977 9.76081 10.7829 9.84117 11.1064C9.92349 11.4318 9.92349 11.7572 9.84117 12.0827C9.75886 12.4081 9.59324 12.6953 9.34433 12.9442C9.09933 13.1893 8.81316 13.354 8.48583 13.4382C8.16048 13.5206 7.83512 13.5206 7.50977 13.4382C7.18832 13.3559 6.90411 13.1912 6.65716 12.9442C6.40823 12.6953 6.24164 12.4091 6.15737 12.0856C6.07505 11.7602 6.07505 11.4347 6.15737 11.1093C6.2436 10.7839 6.40922 10.4986 6.65423 10.2536L7.26868 9.63902L6.3661 8.73625L5.75165 9.35084C5.50664 9.59589 5.2195 9.75959 4.89023 9.84193C4.56485 9.92426 4.2395 9.92426 3.91414 9.84193C3.59074 9.75762 3.30556 9.59198 3.0586 9.34497ZM3.7936 8.60981C3.90532 8.72155 4.03468 8.79606 4.18168 8.8333C4.33064 8.87251 4.47862 8.87349 4.62561 8.83625C4.77262 8.79898 4.90198 8.72449 5.0137 8.61275L5.62816 7.99816L5.01665 7.38652C4.90491 7.27478 4.77458 7.20128 4.62561 7.16599C4.47862 7.12874 4.33162 7.12874 4.18462 7.16599C4.03762 7.20323 3.90728 7.27871 3.7936 7.39241C3.68188 7.50415 3.60642 7.63256 3.56722 7.77763C3.52998 7.92466 3.52998 8.07169 3.56722 8.21872C3.60642 8.3677 3.68188 8.49807 3.7936 8.60981ZM7.39216 5.01052L8.00369 5.62217L8.61225 5.01347C8.72594 4.89977 8.80042 4.77039 8.83571 4.62532C8.87295 4.47829 8.87197 4.33028 8.83276 4.18129C8.79552 4.03426 8.72104 3.90487 8.60933 3.79313C8.49759 3.68139 8.36824 3.60689 8.22124 3.56965C8.07423 3.5324 7.92724 3.5324 7.78025 3.56965C7.6352 3.60493 7.50583 3.67943 7.39216 3.79313C7.28044 3.90487 7.20401 4.03426 7.16283 4.18129C7.12561 4.32832 7.12561 4.47535 7.16283 4.62238C7.20401 4.7694 7.28044 4.89879 7.39216 5.01052ZM10.21 8.00111L10.8185 8.60981C10.9303 8.72155 11.0587 8.79703 11.2037 8.83625C11.3507 8.87349 11.6689 8.87251 11.8139 8.8333C11.9609 8.79606 12.0913 8.72058 12.2049 8.60688C12.3186 8.49317 12.3931 8.36379 12.4284 8.21872C12.4676 8.07364 12.4686 7.9276 12.4313 7.78056C12.3941 7.63353 12.3196 7.50415 12.2079 7.39241C12.0942 7.27871 11.9639 7.20323 11.8169 7.16599C11.6698 7.12874 11.3507 7.12874 11.2037 7.16599C11.0606 7.20323 10.9322 7.27871 10.8185 7.39241L10.21 8.00111ZM7.39216 12.2091C7.50388 12.3208 7.63324 12.3953 7.78025 12.4326C7.92724 12.4698 8.07326 12.4688 8.21831 12.4296C8.3653 12.3924 8.49466 12.3179 8.60638 12.2061C8.72006 12.0925 8.79552 11.9621 8.83276 11.8151C8.87197 11.67 8.87295 11.5239 8.83571 11.3769C8.80042 11.2279 8.72691 11.0975 8.61519 10.9858L8.00661 10.3771L7.39216 10.9917C7.28044 11.1034 7.20498 11.2318 7.16578 11.3769C7.12853 11.5239 7.12853 11.671 7.16578 11.818C7.20302 11.965 7.27848 12.0954 7.39216 12.2091ZM7.10111 8.00111L8.00369 8.90388L8.90919 7.99816L8.00661 7.09541L7.10111 8.00111Z" fill="#F1E1D4"/>
</g>
<defs>
<clipPath id="clip0_4858_80338">
<rect width="16" height="16" rx="4" fill="white"/>
</clipPath>
</defs>
</svg>
