<svg width="16" height="16" viewBox="0 0 16 16" fill="none" xmlns="http://www.w3.org/2000/svg">
<g clip-path="url(#clip0_1742_9287)">
<rect width="16" height="16" rx="4" fill="#0F2D32"/>
<path d="M9.72632 7.42153C9.57906 6.46292 8.76613 5.75464 7.75185 5.75464C6.716 5.75464 5.871 6.45295 5.65998 7.42153H4.75761V8.14436H5.62186C5.73967 9.26222 6.65064 10.0834 7.7689 10.0834C8.62782 10.0834 9.32517 9.74316 9.63123 9.18191L8.87436 8.69729C8.67885 9.02033 8.25358 9.22439 7.78577 9.22439C7.11403 9.22439 6.65472 8.81616 6.55277 8.14436H10.3972L10.6358 7.42153H9.72632ZM7.70082 6.53706C8.27063 6.53706 8.70428 6.90264 8.75537 7.42153H6.5867C6.73129 6.87715 7.13102 6.53706 7.70082 6.53706Z" fill="#DFF5EF"/>
<path d="M8.22957 2.13C11.4114 2.13 14 4.71856 14 7.90043H13.0059C13.0059 5.26668 10.8633 3.12401 8.22957 3.12401V2.13Z" fill="#DFF5EF"/>
<path d="M2 7.90043H2.994C2.994 10.5341 5.13667 12.677 7.77043 12.677V13.671C4.58856 13.671 2 11.0823 2 7.90043Z" fill="#DFF5EF"/>
</g>
<defs>
<clipPath id="clip0_1742_9287">
<rect width="16" height="16" rx="4" fill="white"/>
</clipPath>
</defs>
</svg>
