<svg width="17" height="16" viewBox="0 0 17 16" fill="none" xmlns="http://www.w3.org/2000/svg">
<g clip-path="url(#clip0_1742_9287)">
<rect x="0.466675" width="16" height="16" rx="4" fill="#0F2D32"/>
<path d="M10.193 7.42153C10.0457 6.46292 9.2328 5.75464 8.21852 5.75464C7.18267 5.75464 6.33768 6.45295 6.12665 7.42153H5.22429V8.14436H6.08854C6.20634 9.26222 7.11731 10.0834 8.23557 10.0834C9.0945 10.0834 9.79185 9.74316 10.0979 9.18191L9.34103 8.69729C9.14553 9.02033 8.72025 9.22439 8.25245 9.22439C7.5807 9.22439 7.12139 8.81616 7.01945 8.14436H10.8638L11.1024 7.42153H10.193ZM8.1675 6.53706C8.7373 6.53706 9.17096 6.90264 9.22204 7.42153H7.05337C7.19796 6.87715 7.59769 6.53706 8.1675 6.53706Z" fill="#DFF5EF"/>
<path d="M8.69625 2.13C11.8781 2.13 14.4667 4.71856 14.4667 7.90043H13.4726C13.4726 5.26668 11.33 3.12401 8.69625 3.12401V2.13Z" fill="#DFF5EF"/>
<path d="M2.46667 7.90043H3.46068C3.46068 10.5341 5.60335 12.677 8.2371 12.677V13.671C5.05523 13.671 2.46667 11.0823 2.46667 7.90043Z" fill="#DFF5EF"/>
</g>
<defs>
<clipPath id="clip0_1742_9287">
<rect x="0.466675" width="16" height="16" rx="4" fill="white"/>
</clipPath>
</defs>
</svg>
