<svg width="17" height="16" viewBox="0 0 17 16" fill="none" xmlns="http://www.w3.org/2000/svg">
<g clip-path="url(#clip0_2576_449279)">
<rect x="0.533203" width="16" height="16" rx="4" fill="#627EEA"/>
<path d="M8.53312 2.66669V6.60973L11.8658 8.09893L8.53312 2.66669Z" fill="white" fill-opacity="0.602"/>
<path d="M8.53312 2.66669L5.19995 8.09893L8.53312 6.60973V2.66669Z" fill="white"/>
<path d="M8.53312 10.6541V13.3334L11.868 8.71951L8.53312 10.6541Z" fill="white" fill-opacity="0.602"/>
<path d="M8.53312 13.3334V10.6541L5.19995 8.71951L8.53312 13.3334Z" fill="white"/>
<path d="M8.53312 10.034L11.8658 8.09893L8.53312 6.61062V10.034Z" fill="white" fill-opacity="0.2"/>
<path d="M5.19995 8.09893L8.53312 10.034V6.61062L5.19995 8.09893Z" fill="white" fill-opacity="0.602"/>
</g>
<defs>
<clipPath id="clip0_2576_449279">
<path d="M0.533203 8C0.533203 4.22876 0.533203 2.34315 1.70478 1.17157C2.87635 0 4.76197 0 8.5332 0C12.3044 0 14.1901 0 15.3616 1.17157C16.5332 2.34315 16.5332 4.22876 16.5332 8C16.5332 11.7712 16.5332 13.6569 15.3616 14.8284C14.1901 16 12.3044 16 8.5332 16C4.76197 16 2.87635 16 1.70478 14.8284C0.533203 13.6569 0.533203 11.7712 0.533203 8Z" fill="white"/>
</clipPath>
</defs>
</svg>
