<?xml version="1.0" encoding="UTF-8" standalone="no"?>
<svg
   width="16"
   height="16"
   viewBox="0 0 16 16"
   fill="none"
   version="1.1"
   id="svg7"
   sodipodi:docname="ethereum.svg"
   inkscape:version="1.3.2 (091e20ef0f, 2023-11-25)"
   xmlns:inkscape="http://www.inkscape.org/namespaces/inkscape"
   xmlns:sodipodi="http://sodipodi.sourceforge.net/DTD/sodipodi-0.dtd"
   xmlns="http://www.w3.org/2000/svg"
   xmlns:svg="http://www.w3.org/2000/svg">
  <sodipodi:namedview
     id="namedview7"
     pagecolor="#ffffff"
     bordercolor="#000000"
     borderopacity="0.25"
     inkscape:showpageshadow="2"
     inkscape:pageopacity="0.0"
     inkscape:pagecheckerboard="0"
     inkscape:deskcolor="#d1d1d1"
     inkscape:zoom="50.8125"
     inkscape:cx="8.501845"
     inkscape:cy="8"
     inkscape:window-width="1920"
     inkscape:window-height="1011"
     inkscape:window-x="0"
     inkscape:window-y="32"
     inkscape:window-maximized="1"
     inkscape:current-layer="svg7" />
  <g
     clip-path="url(#clip0_2576_449279)"
     id="g6"
     transform="translate(-0.5310446,0.01071216)">
    <rect
       x="0.53320301"
       width="16"
       height="16"
       rx="4"
       fill="#627eea"
       id="rect1"
       y="0" />
    <path
       d="m 8.53312,2.66669 v 3.94304 l 3.33268,1.4892 z"
       fill="#ffffff"
       fill-opacity="0.602"
       id="path1" />
    <path
       d="M 8.53312,2.66669 5.19995,8.09893 8.53312,6.60973 Z"
       fill="#ffffff"
       id="path2" />
    <path
       d="m 8.53312,10.6541 v 2.6793 L 11.868,8.71951 Z"
       fill="#ffffff"
       fill-opacity="0.602"
       id="path3" />
    <path
       d="M 8.53312,13.3334 V 10.6541 L 5.19995,8.71951 Z"
       fill="#ffffff"
       id="path4" />
    <path
       d="M 8.53312,10.034 11.8658,8.09893 8.53312,6.61062 Z"
       fill="#ffffff"
       fill-opacity="0.2"
       id="path5" />
    <path
       d="M 5.19995,8.09893 8.53312,10.034 V 6.61062 Z"
       fill="#ffffff"
       fill-opacity="0.602"
       id="path6" />
  </g>
  <defs
     id="defs7">
    <clipPath
       id="clip0_2576_449279">
      <path
         d="m 0.533203,8 c 0,-3.77124 0,-5.65685 1.171577,-6.82843 C 2.87635,0 4.76197,0 8.5332,0 c 3.7712,0 5.6569,0 6.8284,1.17157 1.1716,1.17158 1.1716,3.05719 1.1716,6.82843 0,3.7712 0,5.6569 -1.1716,6.8284 C 14.1901,16 12.3044,16 8.5332,16 4.76197,16 2.87635,16 1.70478,14.8284 0.533203,13.6569 0.533203,11.7712 0.533203,8 Z"
         fill="#ffffff"
         id="path7" />
    </clipPath>
  </defs>
</svg>
