<svg width="16" height="16" viewBox="0 0 16 16" fill="none" xmlns="http://www.w3.org/2000/svg">
<g clip-path="url(#clip0_1750_5960)">
<rect width="16" height="16" rx="4" fill="#ED4E33"/>
<path d="M6.66784 4.51853C4.59393 5.31597 4.40395 7.35817 3.80928 8.31193C3.20756 9.27701 1.82905 9.80951 2.01756 10.3014C2.20605 10.7931 3.58621 10.2649 4.67811 10.5787C5.75708 10.8888 7.26251 12.2793 9.33642 11.4818C10.3929 11.0756 11.1579 10.2395 11.5098 9.24913C11.5476 9.14283 11.4768 9.02914 11.3646 9.01864C11.2948 9.01208 11.2279 9.04866 11.1964 9.11133C10.8782 9.74618 10.3324 10.269 9.61795 10.5436C8.43859 10.9971 7.1482 10.641 6.35568 9.74815C6.17569 9.54539 6.02173 9.31458 5.90021 9.05948C5.8668 8.98927 5.83503 8.91792 5.80686 8.84409C5.77853 8.77028 5.75445 8.69596 5.73234 8.62132C6.35568 8.3303 7.07498 8.02206 7.89044 7.70857C8.68999 7.40115 9.41765 7.1518 10.0656 6.95232C10.5039 6.81747 10.9056 6.70527 11.2683 6.61356C11.2945 6.607 11.3204 6.60044 11.3461 6.59404C11.401 6.58043 11.4573 6.60979 11.4776 6.66261C11.4896 6.69395 11.5003 6.72642 11.5113 6.75792C11.5831 6.96118 11.6369 7.16657 11.6724 7.37244C11.6879 7.46251 11.7862 7.51156 11.8668 7.46825C12.1645 7.30813 12.4369 7.15196 12.6802 7.00169C13.5871 6.4423 14.0899 5.96788 13.9867 5.69901C13.8837 5.42997 13.1932 5.41456 12.1455 5.60649C11.8126 5.66751 11.4434 5.74953 11.0456 5.85108C10.9768 5.86863 10.9072 5.88684 10.8368 5.90554C10.502 5.99446 10.1489 6.09632 9.78124 6.21034C9.09747 6.42245 8.36391 6.67656 7.60661 6.96774C6.89811 7.24022 6.22662 7.52271 5.61082 7.80421C5.60329 6.60947 6.3244 5.48 7.50375 5.02658C8.21799 4.75197 8.973 4.77445 9.63367 5.03315C9.69885 5.05874 9.77305 5.04102 9.82071 4.98935C9.89703 4.9065 9.8736 4.77461 9.77452 4.7208C8.85147 4.22096 7.72436 4.11236 6.66784 4.51853Z" fill="white"/>
</g>
<defs>
<clipPath id="clip0_1750_5960">
<rect width="16" height="16" rx="4" fill="white"/>
</clipPath>
</defs>
</svg>
