<svg width="17" height="16" viewBox="0 0 17 16" fill="none" xmlns="http://www.w3.org/2000/svg">
<g clip-path="url(#clip0_1750_5960)">
<rect x="0.466675" width="16" height="16" rx="4" fill="#ED4E33"/>
<path d="M7.13451 4.51853C5.0606 5.31597 4.87062 7.35817 4.27595 8.31193C3.67423 9.27701 2.29572 9.80951 2.48423 10.3014C2.67273 10.7931 4.05289 10.2649 5.14479 10.5787C6.22375 10.8888 7.72919 12.2793 9.80309 11.4818C10.8596 11.0756 11.6246 10.2395 11.9764 9.24913C12.0143 9.14283 11.9435 9.02914 11.8313 9.01864C11.7615 9.01208 11.6946 9.04866 11.6631 9.11133C11.3449 9.74618 10.799 10.269 10.0846 10.5436C8.90527 10.9971 7.61487 10.641 6.82235 9.74815C6.64236 9.54539 6.48841 9.31458 6.36688 9.05948C6.33347 8.98927 6.3017 8.91792 6.27354 8.84409C6.2452 8.77028 6.22112 8.69596 6.19901 8.62132C6.82235 8.3303 7.54166 8.02206 8.35711 7.70857C9.15667 7.40115 9.88433 7.1518 10.5322 6.95232C10.9705 6.81747 11.3722 6.70527 11.735 6.61356C11.7612 6.607 11.7871 6.60044 11.8128 6.59404C11.8677 6.58043 11.924 6.60979 11.9443 6.66261C11.9563 6.69395 11.9669 6.72642 11.978 6.75792C12.0497 6.96118 12.1035 7.16657 12.139 7.37244C12.1546 7.46251 12.2529 7.51156 12.3335 7.46825C12.6312 7.30813 12.9035 7.15196 13.1469 7.00169C14.0538 6.4423 14.5566 5.96788 14.4534 5.69901C14.3504 5.42997 13.6598 5.41456 12.6122 5.60649C12.2793 5.66751 11.9101 5.74953 11.5123 5.85108C11.4435 5.86863 11.3739 5.88684 11.3035 5.90554C10.9687 5.99446 10.6156 6.09632 10.2479 6.21034C9.56414 6.42245 8.83058 6.67656 8.07328 6.96774C7.36478 7.24022 6.69329 7.52271 6.07749 7.80421C6.06996 6.60947 6.79107 5.48 7.97043 5.02658C8.68466 4.75197 9.43967 4.77445 10.1003 5.03315C10.1655 5.05874 10.2397 5.04102 10.2874 4.98935C10.3637 4.9065 10.3403 4.77461 10.2412 4.7208C9.31815 4.22096 8.19103 4.11236 7.13451 4.51853Z" fill="white"/>
</g>
<defs>
<clipPath id="clip0_1750_5960">
<rect x="0.466675" width="16" height="16" rx="4" fill="white"/>
</clipPath>
</defs>
</svg>
