<svg width="16" height="16" viewBox="0 0 16 16" fill="none" xmlns="http://www.w3.org/2000/svg">
<g clip-path="url(#clip0_1677_1846)">
<rect width="16" height="16" rx="4" fill="#202944"/>
<path d="M3 3V13H12.84V3H3ZM6.44 4.16H7.36V5.12H6.44V4.16ZM4.12 4.16H5.08V5.12H4.12V4.16ZM5.04 6.48V7.44H4.08V6.48H5.04ZM4.8 11.76H4.4V11.4H4.76V11.76H4.8ZM5.08 9.84H4.12V8.92H5.08V9.84ZM7.12 11.76H6.76V11.4H7.12V11.76ZM7.12 9.52H6.76V9.16H7.12V9.52ZM7.4 7.48H6.44V6.52H7.4V7.48ZM9.44 11.76H9.08V11.4H9.44V11.76ZM9.44 9.52H9.08V9.16H9.44V9.52ZM9.44 7.16H9.08V6.8H9.44V7.16ZM9.76 5.12H8.8V4.16H9.76V5.12ZM11.8 11.76H11.44V11.4H11.8V11.76ZM11.8 9.52H11.44V9.16H11.8V9.52ZM11.8 7.16H11.44V6.8H11.8V7.16ZM11.8 4.84H11.44V4.48H11.8V4.84Z" fill="white"/>
</g>
<defs>
<clipPath id="clip0_1677_1846">
<rect width="16" height="16" rx="4" fill="white"/>
</clipPath>
</defs>
</svg>
