<svg width="17" height="16" viewBox="0 0 17 16" fill="none" xmlns="http://www.w3.org/2000/svg">
<g clip-path="url(#clip0_1677_1846)">
<rect x="0.466675" width="16" height="16" rx="4" fill="#202944"/>
<path d="M3.46667 3V13H13.3067V3H3.46667ZM6.90667 4.16H7.82667V5.12H6.90667V4.16ZM4.58667 4.16H5.54667V5.12H4.58667V4.16ZM5.50667 6.48V7.44H4.54667V6.48H5.50667ZM5.26667 11.76H4.86667V11.4H5.22667V11.76H5.26667ZM5.54667 9.84H4.58667V8.92H5.54667V9.84ZM7.58667 11.76H7.22667V11.4H7.58667V11.76ZM7.58667 9.52H7.22667V9.16H7.58667V9.52ZM7.86667 7.48H6.90667V6.52H7.86667V7.48ZM9.90667 11.76H9.54667V11.4H9.90667V11.76ZM9.90667 9.52H9.54667V9.16H9.90667V9.52ZM9.90667 7.16H9.54667V6.8H9.90667V7.16ZM10.2267 5.12H9.26667V4.16H10.2267V5.12ZM12.2667 11.76H11.9067V11.4H12.2667V11.76ZM12.2667 9.52H11.9067V9.16H12.2667V9.52ZM12.2667 7.16H11.9067V6.8H12.2667V7.16ZM12.2667 4.84H11.9067V4.48H12.2667V4.84Z" fill="white"/>
</g>
<defs>
<clipPath id="clip0_1677_1846">
<rect x="0.466675" width="16" height="16" rx="4" fill="white"/>
</clipPath>
</defs>
</svg>
