<?xml version="1.0" encoding="UTF-8" standalone="no"?>
<svg
   width="16"
   height="16"
   viewBox="0 0 16 16"
   fill="none"
   version="1.1"
   id="svg3"
   sodipodi:docname="galactica.svg"
   inkscape:version="1.3.2 (091e20ef0f, 2023-11-25)"
   xmlns:inkscape="http://www.inkscape.org/namespaces/inkscape"
   xmlns:sodipodi="http://sodipodi.sourceforge.net/DTD/sodipodi-0.dtd"
   xmlns="http://www.w3.org/2000/svg"
   xmlns:svg="http://www.w3.org/2000/svg">
  <sodipodi:namedview
     id="namedview3"
     pagecolor="#ffffff"
     bordercolor="#000000"
     borderopacity="0.25"
     inkscape:showpageshadow="2"
     inkscape:pageopacity="0.0"
     inkscape:pagecheckerboard="0"
     inkscape:deskcolor="#d1d1d1"
     inkscape:zoom="50.8125"
     inkscape:cx="8.501845"
     inkscape:cy="9.5744157"
     inkscape:window-width="1920"
     inkscape:window-height="1011"
     inkscape:window-x="0"
     inkscape:window-y="32"
     inkscape:window-maximized="1"
     inkscape:current-layer="svg3" />
  <g
     clip-path="url(#clip0_1326_142970)"
     id="g2"
     inkscape:label="g2"
     transform="translate(-0.51469769,0.01844298)">
    <rect
       x="0.53320301"
       width="16"
       height="16"
       rx="4"
       fill="#ffffff"
       fill-opacity="0.08"
       id="rect1"
       y="0" />
    <path
       fill-rule="evenodd"
       clip-rule="evenodd"
       d="M 10.7397,2.46838 C 10.7107,2.45531 10.6829,2.4375 10.6525,2.42989 9.52991,2.14865 8.421,2.19316 7.33437,2.59181 6.9117,2.74687 6.5139,2.9545 6.14405,3.21778 5.82393,3.44565 5.53079,3.70055 5.2729,3.99181 4.40367,4.97345 3.98999,6.11607 4.06658,7.42614 c 0.0513,0.87735 0.34322,1.67079 0.89911,2.35174 0.64769,0.79342 1.4812,1.28672 2.52192,1.38602 0.68549,0.0654 1.33969,-0.0489 1.9401,-0.3987 0.25832,-0.1505 0.49162,-0.3345 0.69869,-0.5506 0.0635,-0.0663 0.1306,-0.1313 0.2053,-0.1838 0.0322,-0.0226 0.0995,-0.0303 0.13,-0.0115 0.03,0.0185 0.0552,0.0851 0.0451,0.12 -0.0335,0.1154 -0.0681,0.2357 -0.1309,0.3365 C 10.189,10.7756 9.94842,11.0281 9.65,11.2247 8.5067,11.9779 7.3012,11.9883 6.06959,11.4919 5.4191,11.2297 4.87977,10.8044 4.42483,10.2682 3.64473,9.34875 3.29241,8.27752 3.26898,7.09496 3.25544,6.41103 3.40485,5.74766 3.657,5.11118 3.86306,4.59106 4.13485,4.10533 4.50111,3.6772 4.66264,3.48838 4.8368,3.31013 5.00505,3.12692 5.0369,3.09224 5.06794,3.05684 5.09935,3.02175 5.09441,3.01582 5.08947,3.00988 5.08451,3.00393 5.0413,3.03891 4.99418,3.07012 4.95547,3.10945 4.60269,3.46786 4.27384,3.84393 4.00774,4.27354 3.54341,5.02317 3.26103,5.83049 3.1869,6.70729 3.12406,7.45039 3.19824,8.17998 3.4448,8.88626 3.65651,9.4928 3.96176,10.0522 4.3931,10.5334 c 1.02878,1.1476 2.31008,1.7196 3.86975,1.6113 0.803,-0.0558 1.53611,-0.3256 2.16275,-0.8311 0.9602,-0.7745 1.4412,-1.77318 1.3721,-3.01315 -0.0057,-0.10333 -0.0165,-0.20737 -0.0093,-0.31002 0.0031,-0.04411 0.0398,-0.11315 0.0729,-0.12072 0.0376,-0.00856 0.104,0.0278 0.1304,0.06421 0.1184,0.1632 0.1553,0.35834 0.1833,0.55118 0.1116,0.76866 -0.0428,1.48731 -0.4254,2.1621 -0.3653,0.6443 -0.8686,1.1571 -1.5091,1.5306 C 9.08173,12.8535 7.84314,12.9836 6.55033,12.6663 5.74219,12.468 5.02956,12.0813 4.40066,11.5425 3.74411,10.98 3.24637,10.3015 2.90282,9.51206 2.82266,9.32788 2.7471,9.14171 2.65918,8.95854 2.69545,9.0764 2.72523,9.19667 2.76901,9.31171 3.20394,10.4544 3.91434,11.387 4.93935,12.0725 c 0.90485,0.6051 1.90616,0.9251 2.99892,0.9231 1.16077,-0.0022 2.20893,-0.3524 3.11543,-1.0807 0.9014,-0.7244 1.4451,-1.6602 1.612,-2.79816 C 12.7931,8.24778 12.6313,7.4196 12.1865,6.66161 11.8094,6.01889 11.2742,5.53388 10.5711,5.24866 10.4084,5.18266 10.241,5.12802 10.0759,5.06786 10.0311,5.05155 9.98007,5.04267 9.94393,5.01499 9.90779,4.98732 9.85966,4.93519 9.8659,4.90316 9.87367,4.86326 9.92648,4.8144 9.96917,4.80262 10.0452,4.78163 10.1286,4.77731 10.2084,4.78043 c 0.4947,0.01937 0.9366,0.19606 1.346,0.46012 0.8874,0.57235 1.4293,1.38605 1.6725,2.39749 0.2452,1.01991 0.1302,2.01143 -0.2916,2.96756 -0.3493,0.7915 -0.8868,1.4429 -1.5701,1.9723 -0.4416,0.3422 -0.9314,0.6041 -1.45871,0.8013 -0.49307,0.1844 -0.99929,0.2955 -1.5221,0.3422 -0.03843,0.0034 -0.0765,0.0108 -0.11467,0.0258 0.07672,0 0.15421,0.007 0.23006,-0.0011 0.58099,-0.0621 1.1521,-0.172 1.69222,-0.3994 0.6619,-0.2786 1.261,-0.6519 1.7764,-1.1575 0.3897,-0.3822 0.7236,-0.8019 0.9802,-1.2809 C 13.481,9.91429 13.675,8.86 13.4904,7.74704 13.295,6.56854 12.7293,5.59923 11.7593,4.88302 10.9969,4.32008 10.1345,4.04429 9.17718,4.09896 8.57126,4.13356 8.00624,4.3148 7.50301,4.64523 6.84691,5.07609 6.40312,5.66938 6.2207,6.43998 6.20171,6.52024 6.18034,6.60249 6.14246,6.67474 6.1213,6.71507 6.06416,6.7597 6.02264,6.76028 5.98153,6.76087 5.9127,6.71541 5.90299,6.67813 5.86913,6.54827 5.83825,6.41329 5.83772,6.28012 5.83624,5.91681 5.95748,5.58134 6.12368,5.26401 6.55026,4.44955 7.2241,3.91874 8.08648,3.61059 9.32499,3.16802 10.5145,3.32739 11.6599,3.9172 c 0.6417,0.33048 1.1715,0.79781 1.6104,1.3697 0.5562,0.72485 0.8974,1.53712 1.0336,2.43498 0.0386,0.25414 0.0612,0.51063 0.0934,0.78526 0.0294,-0.33632 -0.01,-0.65015 -0.062,-0.96132 C 14.1862,6.65392 13.8397,5.84216 13.2849,5.12456 12.8236,4.52796 12.2579,4.05022 11.5809,3.70128 10.8195,3.30891 10.0113,3.11069 9.15766,3.14549 8.17058,3.18572 7.25944,3.48648 6.50536,4.12941 5.37415,5.09387 4.86823,6.3113 5.17541,7.7911 5.35706,8.66605 5.86134,9.33082 6.6627,9.75412 c 0.18224,0.09627 0.38885,0.14741 0.5847,0.2181 0.06998,0.02527 0.14731,0.03698 0.20983,0.07388 0.04192,0.0248 0.08835,0.0835 0.0876,0.1262 -7.4e-4,0.0434 -0.04977,0.1131 -0.09025,0.1236 C 7.32357,10.33 7.18553,10.3655 7.05241,10.3587 6.48063,10.3292 5.98755,10.1056 5.55209,9.74012 4.8988,9.19185 4.53202,8.48696 4.37448,7.66456 4.18918,6.6973 4.36955,5.78275 4.82143,4.9223 5.22065,4.16214 5.80309,3.56231 6.53993,3.10577 7.45917,2.53622 8.4608,2.28158 9.53729,2.30411 9.94348,2.31261 10.3456,2.37137 10.741,2.46788 Z"
       fill="url(#paint0_linear_1326_142970)"
       id="path1"
       style="fill:url(#paint0_linear_1326_142970)" />
    <path
       d="M 7.60577,2.68958 7.66403,5.37946 C 7.67234,5.7628 7.98112,6.07158 8.36446,6.07988 L 11.0543,6.13815 8.36446,6.19642 C 7.98112,6.20473 7.67234,6.5135 7.66403,6.89684 L 7.60577,9.58673 7.5475,6.89684 C 7.5392,6.5135 7.23041,6.20473 6.84707,6.19642 L 4.15719,6.13815 6.84707,6.07988 C 7.23041,6.07158 7.5392,5.7628 7.5475,5.37946 Z"
       fill="#fdfcfb"
       id="path2" />
  </g>
  <defs
     id="defs3">
    <linearGradient
       id="paint0_linear_1326_142970"
       x1="6.9657402"
       y1="24.1674"
       x2="21.311899"
       y2="19.768999"
       gradientUnits="userSpaceOnUse">
      <stop
         stop-color="#F26F56"
         id="stop2" />
      <stop
         offset="1"
         stop-color="#F49756"
         id="stop3" />
    </linearGradient>
    <clipPath
       id="clip0_1326_142970">
      <path
         d="m 0.533203,8 c 0,-3.77124 0,-5.65685 1.171577,-6.82843 C 2.87635,0 4.76197,0 8.5332,0 c 3.7712,0 5.6569,0 6.8284,1.17157 1.1716,1.17158 1.1716,3.05719 1.1716,6.82843 0,3.7712 0,5.6569 -1.1716,6.8284 C 14.1901,16 12.3044,16 8.5332,16 4.76197,16 2.87635,16 1.70478,14.8284 0.533203,13.6569 0.533203,11.7712 0.533203,8 Z"
         fill="#ffffff"
         id="path3" />
    </clipPath>
  </defs>
</svg>
