<svg width="17" height="16" viewBox="0 0 17 16" fill="none" xmlns="http://www.w3.org/2000/svg">
<g clip-path="url(#clip0_1326_142970)">
<rect x="0.533203" width="16" height="16" rx="4" fill="white" fill-opacity="0.08"/>
<path fill-rule="evenodd" clip-rule="evenodd" d="M10.7397 2.46838C10.7107 2.45531 10.6829 2.4375 10.6525 2.42989C9.52991 2.14865 8.421 2.19316 7.33437 2.59181C6.9117 2.74687 6.5139 2.9545 6.14405 3.21778C5.82393 3.44565 5.53079 3.70055 5.2729 3.99181C4.40367 4.97345 3.98999 6.11607 4.06658 7.42614C4.11788 8.30349 4.4098 9.09693 4.96569 9.77788C5.61338 10.5713 6.44689 11.0646 7.48761 11.1639C8.1731 11.2293 8.8273 11.115 9.42771 10.7652C9.68603 10.6147 9.91933 10.4307 10.1264 10.2146C10.1899 10.1483 10.257 10.0833 10.3317 10.0308C10.3639 10.0082 10.4312 10.0005 10.4617 10.0193C10.4917 10.0378 10.5169 10.1044 10.5068 10.1393C10.4733 10.2547 10.4387 10.375 10.3759 10.4758C10.189 10.7756 9.94842 11.0281 9.65 11.2247C8.5067 11.9779 7.3012 11.9883 6.06959 11.4919C5.4191 11.2297 4.87977 10.8044 4.42483 10.2682C3.64473 9.34875 3.29241 8.27752 3.26898 7.09496C3.25544 6.41103 3.40485 5.74766 3.657 5.11118C3.86306 4.59106 4.13485 4.10533 4.50111 3.6772C4.66264 3.48838 4.8368 3.31013 5.00505 3.12692C5.0369 3.09224 5.06794 3.05684 5.09935 3.02175C5.09441 3.01582 5.08947 3.00988 5.08451 3.00393C5.0413 3.03891 4.99418 3.07012 4.95547 3.10945C4.60269 3.46786 4.27384 3.84393 4.00774 4.27354C3.54341 5.02317 3.26103 5.83049 3.1869 6.70729C3.12406 7.45039 3.19824 8.17998 3.4448 8.88626C3.65651 9.4928 3.96176 10.0522 4.3931 10.5334C5.42188 11.681 6.70318 12.253 8.26285 12.1447C9.06585 12.0889 9.79896 11.8191 10.4256 11.3136C11.3858 10.5391 11.8668 9.54042 11.7977 8.30045C11.792 8.19712 11.7812 8.09308 11.7884 7.99043C11.7915 7.94632 11.8282 7.87728 11.8613 7.86971C11.8989 7.86115 11.9653 7.89751 11.9917 7.93392C12.1101 8.09712 12.147 8.29226 12.175 8.4851C12.2866 9.25376 12.1322 9.97241 11.7496 10.6472C11.3843 11.2915 10.881 11.8043 10.2405 12.1778C9.08173 12.8535 7.84314 12.9836 6.55033 12.6663C5.74219 12.468 5.02956 12.0813 4.40066 11.5425C3.74411 10.98 3.24637 10.3015 2.90282 9.51206C2.82266 9.32788 2.7471 9.14171 2.65918 8.95854C2.69545 9.0764 2.72523 9.19667 2.76901 9.31171C3.20394 10.4544 3.91434 11.387 4.93935 12.0725C5.8442 12.6776 6.84551 12.9976 7.93827 12.9956C9.09904 12.9934 10.1472 12.6432 11.0537 11.9149C11.9551 11.1905 12.4988 10.2547 12.6657 9.11674C12.7931 8.24778 12.6313 7.4196 12.1865 6.66161C11.8094 6.01889 11.2742 5.53388 10.5711 5.24866C10.4084 5.18266 10.241 5.12802 10.0759 5.06786C10.0311 5.05155 9.98007 5.04267 9.94393 5.01499C9.90779 4.98732 9.85966 4.93519 9.8659 4.90316C9.87367 4.86326 9.92648 4.8144 9.96917 4.80262C10.0452 4.78163 10.1286 4.77731 10.2084 4.78043C10.7031 4.7998 11.145 4.97649 11.5544 5.24055C12.4418 5.8129 12.9837 6.6266 13.2269 7.63804C13.4721 8.65795 13.3571 9.64947 12.9353 10.6056C12.586 11.3971 12.0485 12.0485 11.3652 12.5779C10.9236 12.9201 10.4338 13.182 9.90649 13.3792C9.41342 13.5636 8.9072 13.6747 8.38439 13.7214C8.34596 13.7248 8.30789 13.7322 8.26972 13.7472C8.34644 13.7472 8.42393 13.7542 8.49978 13.7461C9.08077 13.684 9.65188 13.5741 10.192 13.3467C10.8539 13.0681 11.453 12.6948 11.9684 12.1892C12.3581 11.807 12.692 11.3873 12.9486 10.9083C13.481 9.91429 13.675 8.86 13.4904 7.74704C13.295 6.56854 12.7293 5.59923 11.7593 4.88302C10.9969 4.32008 10.1345 4.04429 9.17718 4.09896C8.57126 4.13356 8.00624 4.3148 7.50301 4.64523C6.84691 5.07609 6.40312 5.66938 6.2207 6.43998C6.20171 6.52024 6.18034 6.60249 6.14246 6.67474C6.1213 6.71507 6.06416 6.7597 6.02264 6.76028C5.98153 6.76087 5.9127 6.71541 5.90299 6.67813C5.86913 6.54827 5.83825 6.41329 5.83772 6.28012C5.83624 5.91681 5.95748 5.58134 6.12368 5.26401C6.55026 4.44955 7.2241 3.91874 8.08648 3.61059C9.32499 3.16802 10.5145 3.32739 11.6599 3.9172C12.3016 4.24768 12.8314 4.71501 13.2703 5.2869C13.8265 6.01175 14.1677 6.82402 14.3039 7.72188C14.3425 7.97602 14.3651 8.23251 14.3973 8.50714C14.4267 8.17082 14.3873 7.85699 14.3353 7.54582C14.1862 6.65392 13.8397 5.84216 13.2849 5.12456C12.8236 4.52796 12.2579 4.05022 11.5809 3.70128C10.8195 3.30891 10.0113 3.11069 9.15766 3.14549C8.17058 3.18572 7.25944 3.48648 6.50536 4.12941C5.37415 5.09387 4.86823 6.3113 5.17541 7.7911C5.35706 8.66605 5.86134 9.33082 6.6627 9.75412C6.84494 9.85039 7.05155 9.90153 7.2474 9.97222C7.31738 9.99749 7.39471 10.0092 7.45723 10.0461C7.49915 10.0709 7.54558 10.1296 7.54483 10.1723C7.54409 10.2157 7.49506 10.2854 7.45458 10.2959C7.32357 10.33 7.18553 10.3655 7.05241 10.3587C6.48063 10.3292 5.98755 10.1056 5.55209 9.74012C4.8988 9.19185 4.53202 8.48696 4.37448 7.66456C4.18918 6.6973 4.36955 5.78275 4.82143 4.9223C5.22065 4.16214 5.80309 3.56231 6.53993 3.10577C7.45917 2.53622 8.4608 2.28158 9.53729 2.30411C9.94348 2.31261 10.3456 2.37137 10.741 2.46788L10.7397 2.46838Z" fill="url(#paint0_linear_1326_142970)"/>
<path d="M7.60577 2.68958L7.66403 5.37946C7.67234 5.7628 7.98112 6.07158 8.36446 6.07988L11.0543 6.13815L8.36446 6.19642C7.98112 6.20473 7.67234 6.5135 7.66403 6.89684L7.60577 9.58673L7.5475 6.89684C7.5392 6.5135 7.23041 6.20473 6.84707 6.19642L4.15719 6.13815L6.84707 6.07988C7.23041 6.07158 7.5392 5.7628 7.5475 5.37946L7.60577 2.68958Z" fill="#FDFCFB"/>
</g>
<defs>
<linearGradient id="paint0_linear_1326_142970" x1="6.96574" y1="24.1674" x2="21.3119" y2="19.769" gradientUnits="userSpaceOnUse">
<stop stop-color="#F26F56"/>
<stop offset="1" stop-color="#F49756"/>
</linearGradient>
<clipPath id="clip0_1326_142970">
<path d="M0.533203 8C0.533203 4.22876 0.533203 2.34315 1.70478 1.17157C2.87635 0 4.76197 0 8.5332 0C12.3044 0 14.1901 0 15.3616 1.17157C16.5332 2.34315 16.5332 4.22876 16.5332 8C16.5332 11.7712 16.5332 13.6569 15.3616 14.8284C14.1901 16 12.3044 16 8.5332 16C4.76197 16 2.87635 16 1.70478 14.8284C0.533203 13.6569 0.533203 11.7712 0.533203 8Z" fill="white"/>
</clipPath>
</defs>
</svg>
