<svg width="17" height="16" viewBox="0 0 17 16" fill="none" xmlns="http://www.w3.org/2000/svg">
<g clip-path="url(#clip0_1750_5998)">
<rect x="0.466675" width="16" height="16" rx="4" fill="white" fill-opacity="0.08"/>
<path fill-rule="evenodd" clip-rule="evenodd" d="M7.80111 2H9.15496V3.21777C10.5084 3.51953 11.5201 4.7276 11.5201 6.17197C11.5201 7.84358 10.165 9.19871 8.49339 9.19871C6.82178 9.19871 5.46667 7.84358 5.46667 6.17197C5.46667 4.73855 6.46311 3.53786 7.80111 3.22479V2ZM10.2278 6.17197C10.2278 7.12986 9.45128 7.90638 8.49339 7.90638C7.5355 7.90638 6.75898 7.12986 6.75898 6.17197C6.75898 5.21408 7.5355 4.43756 8.49339 4.43756C9.45128 4.43756 10.2278 5.21408 10.2278 6.17197Z" fill="#883BE6"/>
<path d="M9.73145 11.0321C9.40495 11.3586 8.96213 11.542 8.50039 11.542C8.03866 11.542 7.59583 11.3586 7.26934 11.0321C6.94284 10.7056 6.75942 10.2628 6.75942 9.80104H5.46711C5.46711 10.6055 5.78669 11.377 6.35554 11.9459C6.75651 12.3468 7.25818 12.624 7.80111 12.7526V14H9.15496V12.7629C9.71504 12.6391 10.2333 12.3578 10.6452 11.9459C11.2141 11.377 11.5337 10.6055 11.5337 9.80104H10.2414C10.2414 10.2628 10.0579 10.7056 9.73145 11.0321Z" fill="#883BE6"/>
</g>
<defs>
<clipPath id="clip0_1750_5998">
<rect x="0.466675" width="16" height="16" rx="4" fill="white"/>
</clipPath>
</defs>
</svg>
