<svg width="16" height="16" viewBox="0 0 16 16" fill="none" xmlns="http://www.w3.org/2000/svg">
<g clip-path="url(#clip0_1750_5998)">
<rect width="16" height="16" rx="4" fill="white" fill-opacity="0.08"/>
<path fill-rule="evenodd" clip-rule="evenodd" d="M7.33443 2H8.68828V3.21777C10.0417 3.51953 11.0534 4.7276 11.0534 6.17197C11.0534 7.84358 9.69833 9.19871 8.02672 9.19871C6.35511 9.19871 5 7.84358 5 6.17197C5 4.73855 5.99644 3.53786 7.33443 3.22479V2ZM9.76113 6.17197C9.76113 7.12986 8.98461 7.90638 8.02672 7.90638C7.06883 7.90638 6.29231 7.12986 6.29231 6.17197C6.29231 5.21408 7.06883 4.43756 8.02672 4.43756C8.98461 4.43756 9.76113 5.21408 9.76113 6.17197Z" fill="#883BE6"/>
<path d="M9.26478 11.0321C8.93828 11.3586 8.49545 11.542 8.03372 11.542C7.57198 11.542 7.12916 11.3586 6.80267 11.0321C6.47617 10.7056 6.29275 10.2628 6.29275 9.80104H5.00044C5.00044 10.6055 5.32001 11.377 5.88886 11.9459C6.28984 12.3468 6.79151 12.624 7.33443 12.7526V14H8.68828V12.7629C9.24837 12.6391 9.76662 12.3578 10.1786 11.9459C10.7474 11.377 11.067 10.6055 11.067 9.80104H9.7747C9.7747 10.2628 9.59127 10.7056 9.26478 11.0321Z" fill="#883BE6"/>
</g>
<defs>
<clipPath id="clip0_1750_5998">
<rect width="16" height="16" rx="4" fill="white"/>
</clipPath>
</defs>
</svg>
