<svg width="17" height="16" viewBox="0 0 17 16" fill="none" xmlns="http://www.w3.org/2000/svg">
<g clip-path="url(#clip0_748_182832)">
<rect x="0.533203" width="16" height="16" fill="url(#paint0_linear_748_182832)"/>
<path fill-rule="evenodd" clip-rule="evenodd" d="M8.329 9.30052V7.80458H5.57968V8.49865H7.54733V9.03776C7.20363 9.57682 6.52978 9.79245 5.70093 9.79245C4.3465 9.79245 3.51766 9.18599 3.51766 8C3.51766 6.81401 4.33303 6.20755 5.66051 6.20755C6.44895 6.20755 7.0015 6.43667 7.41926 6.90833L8.07968 6.43667C7.60796 5.93125 6.8128 5.5 5.65379 5.5C3.80742 5.5 2.69556 6.44339 2.69556 8C2.69556 9.55661 3.80742 10.5 5.66728 10.5C6.96103 10.5 7.8977 9.99458 8.329 9.30052ZM14.3707 9.30052V7.80458H11.6213V8.49865H13.589V9.03776C13.2453 9.57682 12.5714 9.79245 11.7426 9.79245C10.3882 9.79245 9.55931 9.18599 9.55931 8C9.55931 6.81401 10.3747 6.20755 11.7022 6.20755C12.4906 6.20755 13.0432 6.43667 13.4609 6.90833L14.1213 6.43667C13.6496 5.93125 12.8545 5.5 11.6955 5.5C9.8491 5.5 8.73723 6.44339 8.73723 8C8.73723 9.55661 9.8491 10.5 11.7089 10.5C13.0027 10.5 13.9394 9.99458 14.3707 9.30052Z" fill="#0C0C0C"/>
</g>
<defs>
<linearGradient id="paint0_linear_748_182832" x1="0.533203" y1="0" x2="15.9072" y2="-0.580485" gradientUnits="userSpaceOnUse">
<stop stop-color="#D1E9CC"/>
<stop offset="1" stop-color="#03C5DC"/>
</linearGradient>
<clipPath id="clip0_748_182832">
<path d="M0.533203 8C0.533203 4.22876 0.533203 2.34315 1.70478 1.17157C2.87635 0 4.76197 0 8.5332 0C12.3044 0 14.1901 0 15.3616 1.17157C16.5332 2.34315 16.5332 4.22876 16.5332 8C16.5332 11.7712 16.5332 13.6569 15.3616 14.8284C14.1901 16 12.3044 16 8.5332 16C4.76197 16 2.87635 16 1.70478 14.8284C0.533203 13.6569 0.533203 11.7712 0.533203 8Z" fill="white"/>
</clipPath>
</defs>
</svg>
