<?xml version="1.0" encoding="UTF-8" standalone="no"?>
<svg
   width="16"
   height="16"
   viewBox="0 0 16 16"
   fill="none"
   version="1.1"
   id="svg2"
   sodipodi:docname="govgen.svg"
   inkscape:version="1.3.2 (091e20ef0f, 2023-11-25)"
   xmlns:inkscape="http://www.inkscape.org/namespaces/inkscape"
   xmlns:sodipodi="http://sodipodi.sourceforge.net/DTD/sodipodi-0.dtd"
   xmlns="http://www.w3.org/2000/svg"
   xmlns:svg="http://www.w3.org/2000/svg">
  <sodipodi:namedview
     id="namedview2"
     pagecolor="#ffffff"
     bordercolor="#000000"
     borderopacity="0.25"
     inkscape:showpageshadow="2"
     inkscape:pageopacity="0.0"
     inkscape:pagecheckerboard="0"
     inkscape:deskcolor="#d1d1d1"
     showgrid="false"
     inkscape:zoom="50.8125"
     inkscape:cx="8.501845"
     inkscape:cy="8"
     inkscape:window-width="1920"
     inkscape:window-height="1011"
     inkscape:window-x="0"
     inkscape:window-y="32"
     inkscape:window-maximized="1"
     inkscape:current-layer="svg2" />
  <g
     clip-path="url(#clip0_748_182832)"
     id="g1"
     transform="translate(-0.51804058,0.00939236)">
    <rect
       x="0.53320301"
       width="16"
       height="16"
       fill="url(#paint0_linear_748_182832)"
       id="rect1"
       y="0"
       style="fill:url(#paint0_linear_748_182832)" />
    <path
       fill-rule="evenodd"
       clip-rule="evenodd"
       d="M 8.329,9.30052 V 7.80458 H 5.57968 V 8.49865 H 7.54733 V 9.03776 C 7.20363,9.57682 6.52978,9.79245 5.70093,9.79245 4.3465,9.79245 3.51766,9.18599 3.51766,8 c 0,-1.18599 0.81537,-1.79245 2.14285,-1.79245 0.78844,0 1.34099,0.22912 1.75875,0.70078 L 8.07968,6.43667 C 7.60796,5.93125 6.8128,5.5 5.65379,5.5 3.80742,5.5 2.69556,6.44339 2.69556,8 c 0,1.55661 1.11186,2.5 2.97172,2.5 1.29375,0 2.23042,-0.50542 2.66172,-1.19948 z m 6.0417,0 V 7.80458 H 11.6213 V 8.49865 H 13.589 V 9.03776 C 13.2453,9.57682 12.5714,9.79245 11.7426,9.79245 10.3882,9.79245 9.55931,9.18599 9.55931,8 c 0,-1.18599 0.81539,-1.79245 2.14289,-1.79245 0.7884,0 1.341,0.22912 1.7587,0.70078 L 14.1213,6.43667 C 13.6496,5.93125 12.8545,5.5 11.6955,5.5 9.8491,5.5 8.73723,6.44339 8.73723,8 c 0,1.55661 1.11187,2.5 2.97167,2.5 1.2938,0 2.2305,-0.50542 2.6618,-1.19948 z"
       fill="#0c0c0c"
       id="path1" />
  </g>
  <defs
     id="defs2">
    <linearGradient
       id="paint0_linear_748_182832"
       x1="0.53320301"
       y1="0"
       x2="15.9072"
       y2="-0.58048499"
       gradientUnits="userSpaceOnUse">
      <stop
         stop-color="#D1E9CC"
         id="stop1" />
      <stop
         offset="1"
         stop-color="#03C5DC"
         id="stop2" />
    </linearGradient>
    <clipPath
       id="clip0_748_182832">
      <path
         d="m 0.533203,8 c 0,-3.77124 0,-5.65685 1.171577,-6.82843 C 2.87635,0 4.76197,0 8.5332,0 c 3.7712,0 5.6569,0 6.8284,1.17157 1.1716,1.17158 1.1716,3.05719 1.1716,6.82843 0,3.7712 0,5.6569 -1.1716,6.8284 C 14.1901,16 12.3044,16 8.5332,16 4.76197,16 2.87635,16 1.70478,14.8284 0.533203,13.6569 0.533203,11.7712 0.533203,8 Z"
         fill="#ffffff"
         id="path2" />
    </clipPath>
  </defs>
</svg>
