<svg width="17" height="16" viewBox="0 0 17 16" fill="none" xmlns="http://www.w3.org/2000/svg">
<g clip-path="url(#clip0_1750_6206)">
<rect x="0.466675" width="16" height="16" rx="4" fill="#002FA7"/>
<path d="M8.96977 9.96329L8.84606 9.98346H8.83692C8.82777 9.98588 8.81863 9.98588 8.81002 9.9883L8.77775 9.9926C7.1563 10.2583 5.78443 10.2927 4.58684 10.1002C4.26411 10.0464 3.78997 9.95818 3.38467 9.78391C2.90542 9.57817 2.63298 9.29981 2.5757 8.95315C2.43074 8.10813 3.6832 7.4304 4.09656 7.20799C5.19115 6.61632 6.54043 6.18897 8.21916 5.9047C9.89789 5.62043 11.3128 5.5774 12.5413 5.77668C13.3419 5.90712 14.4239 6.16477 14.5522 6.92318C14.6805 7.68159 13.7454 8.28133 13.0313 8.66834C11.9634 9.24575 10.6587 9.66342 9.03916 9.94877L9.00715 9.95334C8.99828 9.95576 8.98887 9.95576 8.98026 9.95791C8.97165 9.96006 8.97192 9.96329 8.96977 9.96329ZM8.82992 9.91757H8.83423L8.96036 9.89471H8.96278C8.97165 9.89229 8.98107 9.89229 8.98967 9.89014L9.02168 9.8853C10.6318 9.60345 11.9305 9.18605 12.9931 8.61213C14.6148 7.73484 14.5113 7.13484 14.4798 6.93797C14.347 6.14083 12.9775 5.91842 12.5284 5.84768C11.3082 5.65055 9.90192 5.69197 8.23018 5.97651C6.55845 6.26105 5.21804 6.68382 4.12803 7.27227C2.50631 8.14928 2.60958 8.74956 2.64159 8.94642C2.77606 9.7433 4.14766 9.96329 4.59598 10.0364C5.78712 10.229 7.15092 10.1946 8.76672 9.92887L8.79899 9.92429C8.80814 9.92214 8.81755 9.92214 8.82589 9.91999L8.82992 9.91757Z" fill="white"/>
<path d="M8.85004 9.64028C8.81804 9.64512 8.78361 9.65185 8.74704 9.65642C8.67819 9.66771 8.60046 9.67928 8.51548 9.693L8.50634 9.69542C8.46976 9.69972 8.43103 9.70698 8.38962 9.71128C8.35304 9.71586 8.31404 9.72285 8.27289 9.72742H8.2651C8.20351 9.73656 8.13708 9.74329 8.07038 9.7527H8.06151L7.97652 9.76158C7.95366 9.764 7.92838 9.76642 7.90579 9.77099H7.90256C7.3827 9.82827 6.88785 9.8627 6.43441 9.86942C5.60984 9.88072 4.94798 9.80514 4.47114 9.64512C4.01583 9.49156 3.72483 9.25758 3.61241 8.95099C3.5929 8.89867 3.57832 8.84465 3.56885 8.78962C3.52851 8.54919 3.58713 8.31118 3.74527 8.08446C3.96419 7.76711 4.38078 7.46482 4.98401 7.18673C5.54879 6.92478 6.26202 6.68946 7.10488 6.48345C7.63846 6.35275 8.06689 6.27502 8.27532 6.2414C8.48374 6.20779 8.92077 6.1384 9.46161 6.08327C10.057 6.02302 10.9276 5.9687 11.6992 6.04454C12.3611 6.10855 12.8557 6.25754 13.1676 6.48883C13.3852 6.6502 13.5172 6.85298 13.5568 7.09314C13.5663 7.15072 13.5701 7.20909 13.5683 7.26742C13.5589 7.59472 13.3645 7.90857 12.9909 8.1993C12.594 8.50777 11.994 8.7985 11.2081 9.05991C10.773 9.20406 10.2937 9.33477 9.78273 9.45149C9.76506 9.45646 9.7471 9.46033 9.72894 9.46305L9.55279 9.50124C9.5068 9.51012 9.46323 9.51953 9.41831 9.52813L9.37502 9.53755C9.34973 9.54185 9.32687 9.54669 9.30186 9.55126C9.27685 9.55584 9.24808 9.56283 9.22118 9.5674L9.17761 9.57627C9.0929 9.59241 9.0149 9.60613 8.94632 9.61984C8.91701 9.62899 8.88366 9.63571 8.85004 9.64028ZM8.05747 9.68627H8.06904C8.13305 9.67928 8.19705 9.67014 8.25891 9.66099H8.2651C8.30436 9.65642 8.34309 9.64943 8.38208 9.64512C8.42108 9.64082 8.46277 9.63356 8.49881 9.62899L8.50795 9.62684C8.59267 9.61285 8.66931 9.60156 8.73709 9.59214C8.81051 9.58085 8.86752 9.57197 8.94094 9.55799C9.00952 9.54642 9.08752 9.53109 9.17223 9.51442L9.2158 9.50527C9.24108 9.5007 9.26825 9.49613 9.29353 9.48941L9.3648 9.47542L9.40809 9.46628C9.45166 9.45713 9.49523 9.44799 9.54095 9.43938L9.71738 9.40039C9.73567 9.39581 9.7518 9.39339 9.77117 9.38882C10.2822 9.27452 10.7566 9.14167 11.1896 8.99913C11.9695 8.74041 12.5612 8.45398 12.9509 8.14927C13.3075 7.87011 13.493 7.57455 13.5025 7.26742C13.5043 7.21337 13.5004 7.15928 13.4909 7.10605C13.4543 6.88444 13.3295 6.69592 13.1265 6.54477C12.8245 6.32316 12.3433 6.17605 11.693 6.11446C10.9257 6.04104 10.06 6.09429 9.46888 6.15346C8.92857 6.20725 8.49558 6.27422 8.28715 6.30918C8.07872 6.34414 7.65057 6.42348 7.12156 6.55123C6.29537 6.75266 5.56385 6.9931 5.01198 7.25047C4.42112 7.52425 4.01421 7.8174 3.80067 8.12426C3.6541 8.33484 3.59924 8.55699 3.63581 8.77913C3.64438 8.83069 3.65788 8.88131 3.67615 8.93028C3.78373 9.21885 4.05886 9.43885 4.49589 9.58542C4.96546 9.74329 5.61818 9.81671 6.43576 9.80514C6.88946 9.79842 7.38189 9.76642 7.89934 9.70698H7.90391C7.92772 9.70507 7.95142 9.70193 7.97491 9.69757L8.05747 9.68627Z" fill="white"/>
<path d="M6.17301 8.96929L6.16628 8.96714H6.15983L6.16628 9.03115C6.18645 9.029 6.20501 9.029 6.22652 9.02658C6.28022 9.02255 6.3341 9.02174 6.38789 9.02416C6.31523 9.01018 6.24347 8.99186 6.17301 8.96929ZM6.94836 9.07526H6.94621V9.07902H6.95078M13.5525 7.09827C13.5138 6.85622 13.3809 6.65613 13.1633 6.49369C12.8519 6.2624 12.3565 6.11368 11.6949 6.0494C10.9233 5.97383 10.0544 6.02923 9.45839 6.0884C8.91782 6.14219 8.48267 6.20915 8.27209 6.24627C8.06151 6.28338 7.63443 6.35895 7.10058 6.48831C6.25799 6.69459 5.54315 6.93045 4.97971 7.19159C4.37702 7.46914 3.96204 7.77143 3.7407 8.08744C3.58256 8.31415 3.52313 8.5527 3.56428 8.79287C3.57127 8.83441 3.58124 8.8754 3.59413 8.91551C3.5987 8.92922 3.603 8.9424 3.60785 8.95585C3.61107 8.96418 3.6143 8.97252 3.6178 8.98086C3.73855 9.27669 4.02551 9.50045 4.46899 9.64971C4.94556 9.81108 5.60742 9.88558 6.43226 9.87428H6.44598L6.45486 9.86298C6.57373 9.73712 6.70174 9.60695 6.82976 9.49615L6.83756 9.48943L6.90856 9.42757H6.79937C6.1878 9.43349 5.6951 9.37889 5.33418 9.26136H5.33095L5.33525 9.25975C5.6518 9.13254 5.91402 9.06208 6.15552 9.03465C6.36609 9.09567 6.58327 9.13098 6.80233 9.1398C6.65342 9.13226 6.50523 9.11428 6.35884 9.08601L6.28112 9.0688L6.24965 9.05966C6.21926 9.05159 6.18941 9.04298 6.16144 9.03276L6.15472 9.03115H6.1523C6.11038 9.01832 6.06925 9.00306 6.02912 8.98543C5.79353 9.02443 5.53373 9.10376 5.22714 9.23286L5.15237 9.26486L5.14753 9.26701L5.22822 9.29686C5.58752 9.43133 6.09447 9.50072 6.73079 9.4983C6.62321 9.59458 6.51994 9.70216 6.42151 9.80516C5.61173 9.817 4.96573 9.74169 4.49992 9.58571C4.07822 9.44478 3.80767 9.23608 3.6931 8.96123C3.68853 8.95101 3.68422 8.94106 3.68046 8.9303C3.67669 8.91954 3.67212 8.90771 3.66863 8.89641C3.65608 8.85807 3.64629 8.81889 3.63931 8.77915C3.60274 8.55755 3.6576 8.33486 3.80417 8.12401C4.0161 7.81742 4.42274 7.52427 5.01441 7.25157C5.56627 6.995 6.29699 6.75456 7.12371 6.55232C7.65272 6.42404 8.08114 6.34389 8.28957 6.31027C8.498 6.27666 8.93073 6.20727 9.4713 6.15456C10.063 6.09404 10.9279 6.04214 11.6952 6.11556C12.3457 6.17742 12.8266 6.32399 13.1289 6.54587C13.333 6.69701 13.4565 6.88473 13.493 7.10715C13.5027 7.16036 13.5066 7.21446 13.5046 7.26851C13.4955 7.57537 13.3099 7.87067 12.9527 8.1501C12.5657 8.45239 11.977 8.73881 11.2046 8.99538C11.0763 8.92895 10.9389 8.86091 10.8012 8.80067C11.3991 8.59009 11.8547 8.36095 12.1569 8.1181L12.2234 8.06431H12.2097L12.1365 8.06027C11.7105 8.03338 11.3921 8.0557 11.1379 8.12885L11.1309 8.13127L11.1242 8.13585C10.9451 8.25754 10.7529 8.35859 10.5511 8.43706L10.5188 8.44836C10.457 8.47364 10.3905 8.49892 10.3244 8.52151L10.283 8.53549L10.2843 8.52796C10.2867 8.51209 10.2891 8.49596 10.291 8.48009C10.303 8.38827 10.3081 8.29567 10.3061 8.20308C10.3064 8.18844 10.3058 8.1738 10.3042 8.15924C10.3023 8.14445 10.3026 8.12993 10.3013 8.11487C10.2999 8.09981 10.2988 8.08502 10.2975 8.06995C10.2961 8.05489 10.2943 8.0401 10.2921 8.02504C10.2894 8.00487 10.2865 7.9847 10.283 7.96453C10.2795 7.94436 10.2746 7.92446 10.2709 7.90429C10.269 7.89407 10.2668 7.88412 10.2647 7.87443C10.2295 7.71844 10.172 7.56835 10.0939 7.4288C10.0672 7.38093 10.0383 7.33458 10.0073 7.28976C9.99789 7.27604 9.9882 7.26286 9.97825 7.24942C9.9683 7.23597 9.96131 7.22629 9.95136 7.21499C9.94141 7.2037 9.93253 7.19079 9.92285 7.17895C9.81599 7.0471 9.69009 6.9319 9.54929 6.83713C9.43803 6.76229 9.31799 6.70141 9.19187 6.65586C8.93034 6.56134 8.64965 6.53226 8.37429 6.57115C8.34718 6.57387 8.32025 6.57809 8.29361 6.58379H8.28661C8.01377 6.63793 7.7583 6.75796 7.54245 6.93341C7.443 7.01251 7.35366 7.10356 7.27647 7.2045L7.27002 7.21365C7.21766 7.28175 7.17047 7.35367 7.12882 7.4288C7.12048 7.44386 7.11269 7.45892 7.10489 7.47398C7.09709 7.48904 7.09251 7.49792 7.08687 7.51056C7.08122 7.5232 7.07665 7.53073 7.07234 7.54149C7.04954 7.5916 7.02934 7.64285 7.01183 7.69505C7.00699 7.70904 7.00242 7.72195 6.99785 7.73727C6.99328 7.7526 6.98924 7.76417 6.98521 7.77977L6.97606 7.81231C6.97672 7.81432 6.97672 7.81649 6.97606 7.81849C6.97606 7.82199 6.97391 7.82576 6.97311 7.82952C6.97042 7.83893 6.96826 7.84969 6.96611 7.85857C6.96584 7.85972 6.96584 7.86091 6.96611 7.86206V7.86502C6.96396 7.87309 6.96262 7.88035 6.961 7.88815C6.95939 7.89595 6.95804 7.90214 6.95643 7.90832C6.95347 7.92311 6.95078 7.93817 6.94836 7.95297C6.94273 7.98601 6.93789 8.01919 6.93384 8.05247C6.93384 8.06377 6.93142 8.07533 6.93034 8.08663C6.92927 8.09792 6.92792 8.11702 6.92685 8.13235C6.92281 8.20033 6.92281 8.26849 6.92685 8.33648C6.92846 8.36337 6.93034 8.39026 6.9333 8.41716C6.93301 8.42314 6.93364 8.42912 6.93518 8.43491C6.93787 8.45481 6.94056 8.47256 6.94352 8.49058C6.9432 8.49444 6.94385 8.49832 6.9454 8.50187C6.94513 8.50257 6.94513 8.50333 6.9454 8.50403C6.94557 8.50711 6.94602 8.51017 6.94675 8.51317C6.94648 8.51386 6.94648 8.51463 6.94675 8.51532C6.947 8.51903 6.94754 8.52272 6.94836 8.52635C6.94836 8.53442 6.95078 8.54222 6.9524 8.55028C6.96709 8.62913 6.98722 8.70686 7.01264 8.78292C7.04593 8.88554 7.08926 8.98463 7.142 9.07875H7.14334C7.15222 9.09462 7.16163 9.11049 7.17024 9.12662L7.18046 9.14276H7.16916L7.0866 9.1468H7.20144L7.26195 9.14437L7.23021 9.09462C7.22672 9.08924 7.22349 9.08386 7.22026 9.07795C7.15998 8.9786 7.11108 8.87278 7.0745 8.76248C7.0473 8.68179 7.02661 8.59905 7.01264 8.51505C7.00834 8.48547 7.0035 8.45804 7.00108 8.42818C6.99946 8.41232 6.99785 8.39618 6.9965 8.38031C6.98411 8.24106 6.99035 8.10078 7.01506 7.96319C7.0585 7.70438 7.16448 7.4601 7.3238 7.25157C7.34586 7.22467 7.36899 7.1959 7.39292 7.169C7.45151 7.10194 7.51565 7.03996 7.58468 6.9837C7.7919 6.81581 8.03687 6.70089 8.29845 6.64887L8.30517 6.64753L8.33986 6.64161L8.3802 6.63489C8.64496 6.59758 8.91483 6.62594 9.16605 6.71745C9.42129 6.80984 9.64912 6.96506 9.82849 7.16879C10.0079 7.37251 10.133 7.61816 10.1923 7.88304C10.1966 7.90993 10.2036 7.93683 10.2082 7.96803C10.2214 8.04366 10.2291 8.12015 10.2313 8.1969C10.2338 8.31691 10.2232 8.43684 10.1999 8.55459C10.1995 8.55969 10.1986 8.56473 10.1972 8.56965L10.1859 8.62908L10.2432 8.6108L10.2666 8.60273L10.3413 8.57583C10.4102 8.55297 10.4744 8.52769 10.5385 8.50268L10.5705 8.49112C10.775 8.41031 10.97 8.30741 11.1522 8.18425C11.3813 8.12025 11.6699 8.09712 12.0365 8.11325L12.0338 8.11541C11.7266 8.34589 11.274 8.56292 10.6891 8.76086L10.5998 8.79072L10.6858 8.82487L10.6931 8.82756C10.8597 8.89517 11.0223 8.97194 11.1804 9.05751L11.1941 9.0645H11.2033C11.9891 8.80255 12.5891 8.51236 12.9853 8.20389C13.3602 7.91289 13.5549 7.60011 13.5632 7.27228C13.5654 7.21406 13.5618 7.15577 13.5525 7.09827ZM6.94729 9.07526H6.94514V9.07902H6.94971M6.92658 9.14706H6.93034L6.96961 9.14841H7.00108C6.97418 9.14841 6.94729 9.1468 6.92228 9.14545H6.89135M6.16037 8.96902L6.16682 9.03303C6.18699 9.03088 6.20555 9.03088 6.22733 9.02873C6.28101 9.02446 6.3349 9.02356 6.3887 9.02604C6.31596 9.01246 6.24411 8.9945 6.17354 8.97225L6.16655 8.9701L6.16037 8.96902ZM6.17354 8.97118L6.16682 8.96902H6.16037L6.16682 9.03303C6.18699 9.03088 6.20555 9.03088 6.22733 9.02873C6.28101 9.02446 6.3349 9.02356 6.3887 9.02604C6.31591 9.01145 6.24406 8.9925 6.17354 8.96929V8.97118ZM6.94917 9.07499H6.94702V9.07875H6.95159M6.94917 9.07553H6.94702V9.07875H6.95159M6.17623 8.96902L6.16951 8.96687H6.16305L6.16951 9.03088C6.18968 9.02873 6.20824 9.02873 6.22975 9.02631C6.28344 9.02228 6.33733 9.02147 6.39112 9.02389C6.31839 9.01028 6.24654 8.99232 6.17596 8.9701L6.17623 8.96902Z" fill="white"/>
<path d="M6.17301 8.96929L6.16628 8.96714H6.15983L6.16628 9.03115C6.18645 9.029 6.20501 9.029 6.22652 9.02658C6.28022 9.02255 6.3341 9.02174 6.38789 9.02416C6.31523 9.01018 6.24347 8.99186 6.17301 8.96929ZM6.94836 9.07526H6.94621V9.07902H6.95078M13.5525 7.09827C13.5138 6.85622 13.3809 6.65613 13.1633 6.49369C12.8519 6.2624 12.3565 6.11368 11.6949 6.0494C10.9233 5.97383 10.0544 6.02923 9.45839 6.0884C8.91782 6.14219 8.48267 6.20915 8.27209 6.24627C8.06151 6.28338 7.63443 6.35895 7.10058 6.48831C6.25799 6.69459 5.54315 6.93045 4.97971 7.19159C4.37702 7.46914 3.96204 7.77143 3.7407 8.08744C3.58256 8.31415 3.52313 8.5527 3.56428 8.79287C3.57127 8.83441 3.58124 8.8754 3.59413 8.91551C3.5987 8.92922 3.603 8.9424 3.60785 8.95585C3.61107 8.96418 3.6143 8.97252 3.6178 8.98086C3.73855 9.27669 4.02551 9.50045 4.46899 9.64971C4.94556 9.81108 5.60742 9.88558 6.43226 9.87428H6.44598L6.45486 9.86298C6.57373 9.73712 6.70174 9.60695 6.82976 9.49615L6.83756 9.48943L6.90856 9.42757H6.79937C6.1878 9.43349 5.6951 9.37889 5.33418 9.26136H5.33095L5.33525 9.25975C5.6518 9.13254 5.91402 9.06208 6.15552 9.03465C6.36609 9.09567 6.58327 9.13098 6.80233 9.1398C6.65342 9.13226 6.50523 9.11428 6.35884 9.08601L6.28112 9.0688L6.24965 9.05966C6.21926 9.05159 6.18941 9.04298 6.16144 9.03276L6.15472 9.03115H6.1523C6.11038 9.01832 6.06925 9.00306 6.02912 8.98543C5.79353 9.02443 5.53373 9.10376 5.22714 9.23286L5.15237 9.26486L5.14753 9.26701L5.22822 9.29686C5.58752 9.43133 6.09447 9.50072 6.73079 9.4983C6.62321 9.59458 6.51994 9.70216 6.42151 9.80516C5.61173 9.817 4.96573 9.74169 4.49992 9.58571C4.07822 9.44478 3.80767 9.23608 3.6931 8.96123C3.68853 8.95101 3.68422 8.94106 3.68046 8.9303C3.67669 8.91954 3.67212 8.90771 3.66863 8.89641C3.65608 8.85807 3.64629 8.81889 3.63931 8.77915C3.60274 8.55755 3.6576 8.33486 3.80417 8.12401C4.0161 7.81742 4.42274 7.52427 5.01441 7.25157C5.56627 6.995 6.29699 6.75456 7.12371 6.55232C7.65272 6.42404 8.08114 6.34389 8.28957 6.31027C8.498 6.27666 8.93073 6.20727 9.4713 6.15456C10.063 6.09404 10.9279 6.04214 11.6952 6.11556C12.3457 6.17742 12.8266 6.32399 13.1289 6.54587C13.333 6.69701 13.4565 6.88473 13.493 7.10715C13.5027 7.16036 13.5066 7.21446 13.5046 7.26851C13.4955 7.57537 13.3099 7.87067 12.9527 8.1501C12.5657 8.45239 11.977 8.73881 11.2046 8.99538C11.0763 8.92895 10.9389 8.86091 10.8012 8.80067C11.3991 8.59009 11.8547 8.36095 12.1569 8.1181L12.2234 8.06431H12.2097L12.1365 8.06027C11.7105 8.03338 11.3921 8.0557 11.1379 8.12885L11.1309 8.13127L11.1242 8.13585C10.9451 8.25754 10.7529 8.35859 10.5511 8.43706L10.5188 8.44836C10.457 8.47364 10.3905 8.49892 10.3244 8.52151L10.283 8.53549L10.2843 8.52796C10.2867 8.51209 10.2891 8.49596 10.291 8.48009C10.303 8.38827 10.3081 8.29567 10.3061 8.20308C10.3064 8.18844 10.3058 8.1738 10.3042 8.15924C10.3023 8.14445 10.3026 8.12993 10.3013 8.11487C10.2999 8.09981 10.2988 8.08502 10.2975 8.06995C10.2961 8.05489 10.2943 8.0401 10.2921 8.02504C10.2894 8.00487 10.2865 7.9847 10.283 7.96453C10.2795 7.94436 10.2746 7.92446 10.2709 7.90429C10.269 7.89407 10.2668 7.88412 10.2647 7.87443C10.2295 7.71844 10.172 7.56835 10.0939 7.4288C10.0672 7.38093 10.0383 7.33458 10.0073 7.28976C9.99789 7.27604 9.9882 7.26286 9.97825 7.24942C9.9683 7.23597 9.96131 7.22629 9.95136 7.21499C9.94141 7.2037 9.93253 7.19079 9.92285 7.17895C9.81599 7.0471 9.69009 6.9319 9.54929 6.83713C9.43803 6.76229 9.31799 6.70141 9.19187 6.65586C8.93034 6.56134 8.64965 6.53226 8.37429 6.57115C8.34718 6.57387 8.32025 6.57809 8.29361 6.58379H8.28661C8.01377 6.63793 7.7583 6.75796 7.54245 6.93341C7.443 7.01251 7.35366 7.10356 7.27647 7.2045L7.27002 7.21365C7.21766 7.28175 7.17047 7.35367 7.12882 7.4288C7.12048 7.44386 7.11269 7.45892 7.10489 7.47398C7.09709 7.48904 7.09251 7.49792 7.08687 7.51056C7.08122 7.5232 7.07665 7.53073 7.07234 7.54149C7.04954 7.5916 7.02934 7.64285 7.01183 7.69505C7.00699 7.70904 7.00242 7.72195 6.99785 7.73727C6.99328 7.7526 6.98924 7.76417 6.98521 7.77977L6.97606 7.81231C6.97672 7.81432 6.97672 7.81649 6.97606 7.81849C6.97606 7.82199 6.97391 7.82576 6.97311 7.82952C6.97042 7.83893 6.96826 7.84969 6.96611 7.85857C6.96584 7.85972 6.96584 7.86091 6.96611 7.86206V7.86502C6.96396 7.87309 6.96262 7.88035 6.961 7.88815C6.95939 7.89595 6.95804 7.90214 6.95643 7.90832C6.95347 7.92311 6.95078 7.93817 6.94836 7.95297C6.94273 7.98601 6.93789 8.01919 6.93384 8.05247C6.93384 8.06377 6.93142 8.07533 6.93034 8.08663C6.92927 8.09792 6.92792 8.11702 6.92685 8.13235C6.92281 8.20033 6.92281 8.26849 6.92685 8.33648C6.92846 8.36337 6.93034 8.39026 6.9333 8.41716C6.93301 8.42314 6.93364 8.42912 6.93518 8.43491C6.93787 8.45481 6.94056 8.47256 6.94352 8.49058C6.9432 8.49444 6.94385 8.49832 6.9454 8.50187C6.94513 8.50257 6.94513 8.50333 6.9454 8.50403C6.94557 8.50711 6.94602 8.51017 6.94675 8.51317C6.94648 8.51386 6.94648 8.51463 6.94675 8.51532C6.947 8.51903 6.94754 8.52272 6.94836 8.52635C6.94836 8.53442 6.95078 8.54222 6.9524 8.55028C6.96709 8.62913 6.98722 8.70686 7.01264 8.78292C7.04593 8.88554 7.08926 8.98463 7.142 9.07875H7.14334C7.15222 9.09462 7.16163 9.11049 7.17024 9.12662L7.18046 9.14276H7.16916L7.0866 9.1468H7.20144L7.26195 9.14437L7.23021 9.09462C7.22672 9.08924 7.22349 9.08386 7.22026 9.07795C7.15998 8.9786 7.11108 8.87278 7.0745 8.76248C7.0473 8.68179 7.02661 8.59905 7.01264 8.51505C7.00834 8.48547 7.0035 8.45804 7.00108 8.42818C6.99946 8.41232 6.99785 8.39618 6.9965 8.38031C6.98411 8.24106 6.99035 8.10078 7.01506 7.96319C7.0585 7.70438 7.16448 7.4601 7.3238 7.25157C7.34586 7.22467 7.36899 7.1959 7.39292 7.169C7.45151 7.10194 7.51565 7.03996 7.58468 6.9837C7.7919 6.81581 8.03687 6.70089 8.29845 6.64887L8.30517 6.64753L8.33986 6.64161L8.3802 6.63489C8.64496 6.59758 8.91483 6.62594 9.16605 6.71745C9.42129 6.80984 9.64912 6.96506 9.82849 7.16879C10.0079 7.37251 10.133 7.61816 10.1923 7.88304C10.1966 7.90993 10.2036 7.93683 10.2082 7.96803C10.2214 8.04366 10.2291 8.12015 10.2313 8.1969C10.2338 8.31691 10.2232 8.43684 10.1999 8.55459C10.1995 8.55969 10.1986 8.56473 10.1972 8.56965L10.1859 8.62908L10.2432 8.6108L10.2666 8.60273L10.3413 8.57583C10.4102 8.55297 10.4744 8.52769 10.5385 8.50268L10.5705 8.49112C10.775 8.41031 10.97 8.30741 11.1522 8.18425C11.3813 8.12025 11.6699 8.09712 12.0365 8.11325L12.0338 8.11541C11.7266 8.34589 11.274 8.56292 10.6891 8.76086L10.5998 8.79072L10.6858 8.82487L10.6931 8.82756C10.8597 8.89517 11.0223 8.97194 11.1804 9.05751L11.1941 9.0645H11.2033C11.9891 8.80255 12.5891 8.51236 12.9853 8.20389C13.3602 7.91289 13.5549 7.60011 13.5632 7.27228C13.5654 7.21406 13.5618 7.15577 13.5525 7.09827ZM6.94729 9.07526H6.94514V9.07902H6.94971M6.92658 9.14706H6.93034L6.96961 9.14841H7.00108C6.97418 9.14841 6.94729 9.1468 6.92228 9.14545H6.89135M6.16037 8.96902L6.16682 9.03303C6.18699 9.03088 6.20555 9.03088 6.22733 9.02873C6.28101 9.02446 6.3349 9.02356 6.3887 9.02604C6.31596 9.01246 6.24411 8.9945 6.17354 8.97225L6.16655 8.9701L6.16037 8.96902ZM6.17354 8.97118L6.16682 8.96902H6.16037L6.16682 9.03303C6.18699 9.03088 6.20555 9.03088 6.22733 9.02873C6.28101 9.02446 6.3349 9.02356 6.3887 9.02604C6.31591 9.01145 6.24406 8.9925 6.17354 8.96929V8.97118ZM6.17381 8.96902L6.16709 8.96687H6.16063L6.16709 9.03088C6.18726 9.02873 6.20582 9.02873 6.22733 9.02631C6.28102 9.02228 6.33491 9.02147 6.3887 9.02389C6.31597 9.01028 6.24412 8.99232 6.17354 8.9701L6.17381 8.96902Z" fill="white"/>
<path d="M6.92719 9.07281L6.91509 9.0747H6.91267C6.87071 9.0747 6.82903 9.07147 6.78895 9.06905C6.7375 9.06582 6.68774 9.06179 6.63969 9.05695C6.55901 9.04888 6.48371 9.03839 6.41378 9.02521C6.33113 9.01048 6.24955 8.99026 6.16958 8.9647L6.16232 8.96228H6.1556C6.11176 8.96712 6.06685 8.97384 6.02113 8.98245C5.7893 9.02279 5.53515 9.09998 5.23528 9.2245C4.92492 9.10724 4.72967 8.93673 4.65356 8.71835C4.64926 8.70625 4.64549 8.69415 4.642 8.68177C4.6385 8.6694 4.63662 8.66053 4.6342 8.65004C4.63178 8.63955 4.62882 8.6218 4.62613 8.60835C4.59386 8.42009 4.64442 8.23533 4.77485 8.05891L4.784 8.04734C4.96096 7.81309 5.28181 7.58826 5.74008 7.3801C5.98786 7.26916 6.2417 7.17227 6.50038 7.08991C6.7825 6.99793 7.09205 6.91134 7.42123 6.83254C7.56754 6.79757 7.70147 6.76664 7.82249 6.7419C7.82841 6.74029 7.83433 6.73948 7.84051 6.73814C7.73436 6.79195 7.63444 6.85725 7.54253 6.93285C7.4419 7.01294 7.35157 7.10517 7.27359 7.20744L7.27009 7.21363C7.24831 7.24213 7.22733 7.27118 7.2077 7.30103C7.12519 7.42307 7.05934 7.55557 7.01191 7.69503C7.00707 7.70901 7.00249 7.72192 6.99792 7.73725C6.99335 7.75258 6.98932 7.76415 6.98528 7.77975C6.9834 7.78593 6.98179 7.79212 6.98017 7.79857C6.97912 7.80323 6.97778 7.80781 6.97614 7.81229V7.81847C6.97614 7.82036 6.97399 7.82574 6.97318 7.8295C6.97049 7.83891 6.96834 7.84967 6.96619 7.85855C6.96591 7.8597 6.96591 7.86089 6.96619 7.86204V7.865C6.96404 7.87307 6.96269 7.88033 6.96108 7.88813C6.95946 7.89593 6.95812 7.90211 6.9565 7.9083C6.95622 7.91077 6.95568 7.9132 6.95489 7.91556C6.95247 7.92739 6.95032 7.93896 6.94844 7.95052C6.94225 7.98441 6.93768 8.0183 6.93391 8.05245C6.93391 8.06375 6.93149 8.07531 6.93042 8.08661C6.93042 8.10194 6.928 8.117 6.92692 8.13233C6.92289 8.20031 6.92289 8.26847 6.92692 8.33645C6.92853 8.36335 6.93069 8.39024 6.93364 8.41714C6.93337 8.42248 6.93391 8.42783 6.93526 8.433C6.93795 8.45317 6.94091 8.472 6.94386 8.49083C6.94376 8.49289 6.94376 8.49495 6.94386 8.49701L6.9479 8.52391C6.95113 8.54408 6.95462 8.56425 6.95919 8.58442C6.9587 8.58636 6.9587 8.58839 6.95919 8.59033C6.96161 8.60163 6.96404 8.61293 6.96672 8.62368C6.97694 8.66752 6.98851 8.70867 7.00088 8.7482C7.00411 8.75896 7.0076 8.76837 7.01083 8.77994L7.02428 8.81759C7.02885 8.8305 7.03342 8.84287 7.03853 8.85551C7.04848 8.88052 7.0587 8.90553 7.06946 8.93028C7.0743 8.94076 7.07887 8.95018 7.08398 8.96147C7.08909 8.97277 7.09393 8.98164 7.09904 8.99213C7.11276 9.01903 7.12782 9.04834 7.14342 9.07524C7.15229 9.0911 7.16171 9.10697 7.17031 9.12311L7.18026 9.13924H7.16897L7.0864 9.14301H7.20474L7.26417 9.14059L7.23486 9.09083C7.23136 9.08546 7.22814 9.07981 7.22464 9.07416C7.16322 8.97546 7.11307 8.87018 7.07511 8.76031C7.04838 8.67957 7.02815 8.59683 7.0146 8.51288C7.01029 8.4833 7.00572 8.4556 7.0033 8.42601C7.00115 8.40853 6.99927 8.39132 6.99792 8.37384C6.98646 8.23594 6.99324 8.09713 7.01809 7.96101C7.06198 7.70264 7.16834 7.4589 7.32791 7.25101C7.34512 7.22922 7.36261 7.20798 7.3817 7.187C7.61944 6.90806 7.94506 6.71836 8.30498 6.64912V6.64885L8.29395 6.58484V6.5835L8.17454 6.60501C7.99811 6.63728 7.72917 6.69053 7.40886 6.76638C6.73786 6.92774 6.16985 7.1125 5.71642 7.31851C5.25707 7.52829 4.92761 7.755 4.74204 7.99517L4.73263 8.00673C4.58391 8.20387 4.52662 8.41014 4.5632 8.62072C4.56562 8.63471 4.56858 8.64762 4.5718 8.66107C4.57503 8.67451 4.57799 8.68796 4.58149 8.69979C4.58498 8.71163 4.5874 8.71996 4.59036 8.72884C4.66486 8.95583 4.85231 9.1344 5.14761 9.26107L5.15272 9.26349C5.17665 9.27371 5.20166 9.28366 5.22748 9.29335L5.2412 9.29765L5.25276 9.29335L5.33345 9.25973L5.33802 9.25812C5.65268 9.13171 5.91328 9.05991 6.15614 9.03247H6.15936C6.18841 9.04162 6.2188 9.04995 6.25 9.05937C6.21961 9.0513 6.18948 9.04269 6.16178 9.03247L6.15479 9.03086H6.15264C6.11065 9.01799 6.06944 9.00272 6.0292 8.98514C6.07357 8.97761 6.11687 8.97142 6.15936 8.96685L6.16582 9.03086C6.18599 9.02871 6.20481 9.02871 6.22633 9.02656C6.28001 9.02229 6.3339 9.02139 6.38769 9.02387C6.48179 9.04215 6.57676 9.05561 6.67223 9.06421C6.71231 9.06797 6.75292 9.07093 6.79514 9.07362C6.83736 9.07631 6.87797 9.07792 6.92047 9.07927H6.92262L6.93015 9.07766H6.94548V9.08115H6.97425C7.01164 9.08115 7.04875 9.0833 7.08398 9.0833H7.14154C7.14099 9.08256 7.14054 9.08174 7.14019 9.08088H7.07968C7.04472 9.08088 7.00787 9.07927 6.97076 9.079H6.9444M6.92961 9.15027L6.9678 9.15161H7.00115C6.97425 9.15161 6.94736 9.15 6.92235 9.14893H6.89546M6.92638 9.07766L6.93096 9.07927L6.92638 9.07766ZM7.13992 9.08411H7.07941C7.04445 9.08411 7.00787 9.0825 6.97183 9.08223H6.95677L6.95032 9.08061H6.94575V9.0825H6.97425C7.01164 9.0825 7.04875 9.08465 7.08425 9.08465H7.14154V9.0825L7.13992 9.08411Z" fill="white"/>
<path d="M10.1905 8.63258L10.202 8.57206C10.2274 8.44931 10.2388 8.32409 10.2362 8.19877C10.2342 8.12238 10.2266 8.04624 10.2133 7.97098C10.2087 7.94113 10.202 7.9137 10.1974 7.88626C10.1062 7.47848 9.86061 7.12186 9.51218 6.89118C9.40578 6.82039 9.29118 6.76277 9.1709 6.7196C8.91966 6.62815 8.64979 6.59989 8.38505 6.6373L8.37268 6.57168C8.5284 6.5464 8.85355 6.49611 9.26583 6.45711C9.73056 6.41112 10.4134 6.36997 11.0271 6.42484H11.0317C11.5446 6.47083 11.9343 6.5784 12.1927 6.74568L12.2043 6.75241C12.4081 6.88688 12.5294 7.05927 12.5639 7.26797C12.5691 7.29819 12.5721 7.32875 12.573 7.35941C12.5821 7.6227 12.4401 7.87954 12.15 8.11755L12.1384 8.1267H12.1247C11.7172 8.10142 11.3985 8.12213 11.1514 8.19313C10.9692 8.31618 10.7741 8.41907 10.5697 8.49999L10.5377 8.51155C10.4734 8.53656 10.4094 8.56184 10.3405 8.5847C10.3085 8.596 10.2765 8.60756 10.2421 8.61913L10.1905 8.63258ZM8.85005 6.56818C8.96677 6.58463 9.08149 6.61301 9.19241 6.6529C9.31853 6.69845 9.43857 6.75933 9.54984 6.83417C9.77609 6.98507 9.96292 7.18795 10.0947 7.42584C10.1725 7.56554 10.2295 7.71585 10.2639 7.87201C10.2706 7.90186 10.2752 7.93252 10.2819 7.9613C10.2952 8.04008 10.303 8.11971 10.305 8.19958C10.3077 8.31077 10.2999 8.42197 10.2819 8.53172L10.3233 8.51801C10.3897 8.49515 10.4562 8.46987 10.518 8.44459L10.55 8.43329C10.7517 8.35335 10.9438 8.25095 11.1226 8.12804L11.1293 8.12347L11.1363 8.12105C11.3883 8.0479 11.7011 8.02692 12.1212 8.0522C12.3869 7.83059 12.5176 7.595 12.5082 7.35833C12.5074 7.32989 12.5044 7.30156 12.499 7.27362C12.467 7.08805 12.3595 6.93233 12.1785 6.80862L12.1693 6.80189C11.9219 6.64053 11.5395 6.53295 11.0333 6.48562H11.0287C10.4196 6.43183 9.73917 6.4719 9.27444 6.51789C9.11872 6.53457 8.97645 6.5507 8.85005 6.56818Z" fill="white"/>
<path d="M6.94951 9.07712V9.07901H6.95624L6.94951 9.07712ZM7.14073 9.07927H7.08022C7.04526 9.07927 7.00841 9.07766 6.9713 9.07712L6.97479 9.07954C7.01218 9.07954 7.04929 9.08143 7.08452 9.08143H7.14207C7.14153 9.08068 7.14107 9.07987 7.14073 9.07901V9.07927ZM6.93176 9.07443L6.91697 9.07685C6.87475 9.07685 6.83387 9.07363 6.7938 9.07094C6.74754 9.06852 6.70316 9.06529 6.65933 9.06072C6.57165 9.05292 6.48478 9.04055 6.39845 9.02414C6.32147 9.0099 6.24547 8.99077 6.17093 8.96686L6.16394 8.96471H6.16178L6.15694 8.96309C5.91812 8.88241 5.75595 8.76273 5.67446 8.60244C5.66656 8.58713 5.65947 8.57143 5.65322 8.55538C5.64999 8.54731 5.64676 8.53897 5.6438 8.53063C5.6338 8.50218 5.62615 8.47294 5.62094 8.44323C5.60077 8.33323 5.63708 8.22162 5.72852 8.10651C5.80749 8.01199 5.8997 7.92938 6.0023 7.86124C6.13909 7.76764 6.28296 7.68482 6.43261 7.61355C6.68259 7.49365 6.93984 7.38954 7.20286 7.30184L7.20797 7.29996C7.17964 7.34191 7.15346 7.38495 7.12943 7.42905C7.1211 7.44411 7.1133 7.45917 7.1055 7.47423C7.0977 7.48929 7.0934 7.49817 7.08748 7.51054C7.08156 7.52291 7.07726 7.53071 7.07296 7.54174C7.05037 7.59176 7.03019 7.64313 7.01244 7.6953C7.0076 7.70929 7.00303 7.7222 6.99846 7.73753C6.99389 7.75286 6.98985 7.76442 6.98582 7.77975C6.98179 7.79508 6.97963 7.80153 6.97694 7.81256C6.97722 7.81475 6.97664 7.81697 6.97533 7.81875C6.97533 7.82224 6.97318 7.82601 6.97237 7.8295C6.96968 7.83919 6.96753 7.84968 6.96538 7.85882C6.96512 7.85997 6.96512 7.86117 6.96538 7.86232V7.86527C6.96323 7.87307 6.96188 7.8806 6.96027 7.8884C6.95866 7.8962 6.95597 7.90723 6.95435 7.9153C6.95274 7.92337 6.94951 7.93843 6.94763 7.95026C6.94171 7.98415 6.93687 8.01803 6.93311 8.05219C6.93311 8.06348 6.93069 8.07478 6.92961 8.08634C6.92854 8.09791 6.92719 8.11673 6.92638 8.13179C6.92235 8.19978 6.92235 8.26794 6.92638 8.33592C6.928 8.36282 6.92988 8.38971 6.93284 8.4166C6.93256 8.42194 6.9331 8.4273 6.93445 8.43247C6.93714 8.45264 6.9401 8.47147 6.94306 8.49002C6.94293 8.49217 6.94293 8.49433 6.94306 8.49648L6.94709 8.52337C6.95032 8.54363 6.95408 8.5638 6.95839 8.58388C6.9579 8.58583 6.9579 8.58786 6.95839 8.5898C6.96108 8.60083 6.9635 8.61212 6.96592 8.62315C6.97641 8.66699 6.9877 8.70814 7.00007 8.74767C7.0033 8.75816 7.0068 8.76784 7.01002 8.7794L7.02347 8.81706C7.02804 8.8297 7.03262 8.84234 7.03773 8.85498C7.04768 8.87999 7.0579 8.905 7.06892 8.92947C7.07349 8.94023 7.07834 8.94964 7.08318 8.96094C7.08802 8.97224 7.09313 8.98111 7.09851 8.9916C7.11222 9.01849 7.12701 9.04754 7.14261 9.0747C7.15149 9.09057 7.16117 9.10617 7.16951 9.1223L7.17946 9.13871H7.16816L7.0856 9.14248H7.2042L7.26364 9.14005L7.23674 9.09272C7.23251 9.08622 7.22865 9.07948 7.22518 9.07255C7.16569 8.97386 7.11734 8.86887 7.08102 8.7595C7.05358 8.67898 7.03289 8.59631 7.01917 8.51235C7.0146 8.48249 7.01002 8.45506 7.0076 8.42521C6.98931 8.27038 6.99393 8.11369 7.02132 7.96021C7.06588 7.7017 7.17288 7.45798 7.33302 7.25021L7.38654 7.18674L7.40241 7.16656L7.39595 7.16845L7.29698 7.20018L7.28058 7.20556H7.27816C7.27714 7.20546 7.27611 7.20557 7.27513 7.2059C7.27416 7.20622 7.27327 7.20675 7.27251 7.20744C7.11115 7.26123 6.95982 7.31583 6.81854 7.37123C6.67134 7.42932 6.53498 7.48885 6.40948 7.54981C6.06147 7.71709 5.81404 7.88894 5.67904 8.06079C5.57576 8.1915 5.53461 8.32409 5.55801 8.45237C5.56334 8.478 5.57007 8.50332 5.57818 8.52821C5.58329 8.54516 5.58921 8.5621 5.59566 8.57851C5.59862 8.58523 5.60131 8.59222 5.60454 8.59868C5.67661 8.76165 5.81727 8.8894 6.02489 8.97977H6.02812L6.0335 8.98219C6.07761 8.97466 6.12117 8.96847 6.16367 8.96363L6.17012 9.02791C6.19029 9.02549 6.20885 9.02549 6.23036 9.02333C6.28405 9.01921 6.33794 9.01831 6.39173 9.02065C6.48569 9.0392 6.58059 9.05267 6.676 9.06099C6.71634 9.06502 6.75668 9.06798 6.79917 9.0704C6.84167 9.07282 6.88174 9.0747 6.92423 9.07605H6.92638L6.93418 9.07443H6.94924M7.14638 9.08062C7.14583 9.07987 7.14538 9.07906 7.14503 9.0782H7.08452C7.04956 9.0782 7.01271 9.07658 6.97694 9.07632L6.98017 9.07847C7.01755 9.07847 7.05467 9.08062 7.09017 9.08062H7.14638ZM6.95408 9.07739L6.96054 9.07605H6.95408V9.07739ZM6.93391 9.1449L6.9721 9.14651H7.00303C6.97614 9.14651 6.94924 9.1449 6.92423 9.14355H6.89357M7.13858 9.08008H7.07807C7.0431 9.08008 7.00626 9.07847 6.96915 9.0782H6.94225V9.08008H6.97426C7.01164 9.08008 7.04875 9.08223 7.08398 9.08223H7.14154C7.14108 9.08121 7.14081 9.08012 7.14073 9.07901L7.13858 9.08008Z" fill="white"/>
<path d="M10.1905 8.63257L10.202 8.57206C10.2274 8.4493 10.2388 8.32409 10.2362 8.19877C10.2342 8.12238 10.2266 8.04624 10.2133 7.97098C10.2088 7.94112 10.2021 7.91369 10.1975 7.88626C10.1062 7.47848 9.86064 7.12186 9.51222 6.89118L9.42078 6.82932L9.53077 6.82717C9.84193 6.82205 10.1531 6.83552 10.4627 6.86751C10.8475 6.91323 11.135 6.99095 11.3233 7.10579C11.4698 7.19266 11.5546 7.30266 11.5753 7.43094C11.5819 7.47489 11.5842 7.5194 11.582 7.5638C11.5704 7.78541 11.4284 7.9941 11.1606 8.18452L11.1536 8.18882C11.0024 8.29639 10.8058 8.39752 10.5743 8.49353L10.5423 8.50509C10.478 8.5301 10.414 8.55538 10.3454 8.57824C10.3134 8.58981 10.2811 8.60137 10.2467 8.61267L10.1905 8.63257ZM9.63674 6.8944C9.82421 7.03709 9.97992 7.21725 10.0939 7.42341C10.1719 7.5633 10.2292 7.71377 10.2639 7.87012C10.2706 7.89998 10.2752 7.93063 10.2819 7.95941C10.2953 8.03819 10.303 8.11782 10.3051 8.19769C10.3077 8.30889 10.3 8.42009 10.2819 8.52984L10.3233 8.51612C10.3898 8.49326 10.4562 8.46798 10.5181 8.4427L10.5501 8.4314C10.7517 8.35206 10.9437 8.2503 11.1226 8.12804L11.1294 8.12347C11.3746 7.94704 11.5059 7.7569 11.5142 7.55869C11.5166 7.51956 11.5143 7.4803 11.5075 7.4417C11.4895 7.33412 11.4158 7.24403 11.288 7.16523C11.1095 7.05765 10.8308 6.98208 10.4543 6.93636C10.1828 6.9071 9.90983 6.89309 9.63674 6.8944Z" fill="white"/>
<path d="M7.14071 9.07901H7.0802C7.04523 9.07901 7.00839 9.0774 6.97127 9.07713L6.97477 9.07928C7.01215 9.07928 7.04927 9.08116 7.0845 9.08116H7.14205C7.14145 9.08055 7.141 9.07982 7.14071 9.07901ZM7.26281 9.14248L7.23591 9.09515C7.23158 9.08871 7.22772 9.08197 7.22435 9.07498C7.16491 8.97635 7.11657 8.87145 7.0802 8.7622C7.05275 8.68158 7.03206 8.59882 7.01834 8.51477C7.01377 8.48519 7.0092 8.45776 7.00678 8.42791L7.00113 8.37277L6.99494 8.37708L6.95595 8.40236L6.93147 8.41849H6.93013C6.87141 8.45816 6.81649 8.50318 6.76607 8.55296C6.68082 8.63822 6.6394 8.72347 6.64209 8.80469V8.81626C6.64244 8.83569 6.64552 8.85497 6.65124 8.87354C6.65285 8.87973 6.655 8.88591 6.65688 8.8921C6.67145 8.93356 6.69402 8.97176 6.72331 9.00451C6.74353 9.02756 6.76606 9.04847 6.79055 9.06691L6.79377 9.06906C6.79476 9.06976 6.79566 9.07057 6.79646 9.07148C6.83654 9.0739 6.87849 9.07578 6.92152 9.07713H6.9234L6.91856 9.07471L6.91453 9.07256L6.90996 9.07041L6.90081 9.06368H6.89839L6.87849 9.05185C6.83013 9.0249 6.78784 8.98828 6.75424 8.94427C6.73537 8.91875 6.72167 8.88979 6.7139 8.85902C6.7139 8.85337 6.71175 8.84665 6.71094 8.83885C6.71013 8.83105 6.70825 8.8211 6.70691 8.81195C6.69991 8.74768 6.73676 8.67748 6.81018 8.6011C6.85048 8.56029 6.89431 8.52312 6.94115 8.49003V8.51585C6.94154 8.51883 6.94208 8.5218 6.94277 8.52472C6.94599 8.54498 6.94976 8.56515 6.95406 8.58524C6.95357 8.58718 6.95357 8.58921 6.95406 8.59115C6.95675 8.60245 6.95917 8.61374 6.96159 8.6245C6.97208 8.66834 6.98338 8.70949 6.99575 8.74902C6.99898 8.75978 7.00247 8.76919 7.00597 8.78076L7.01915 8.81868C7.02372 8.83132 7.02829 8.84369 7.0334 8.85633C7.04335 8.88134 7.05357 8.90635 7.0646 8.93109C7.06944 8.94158 7.07401 8.951 7.07885 8.96229C7.08369 8.97359 7.0888 8.98246 7.09418 8.99295C7.1079 9.01984 7.12269 9.04916 7.13829 9.07605C7.14716 9.09192 7.15684 9.10779 7.16518 9.12392L7.17513 9.14006H7.16384L7.08127 9.14383H7.19987L7.25931 9.14141L7.26281 9.14248ZM7.14205 9.08197C7.14145 9.08136 7.141 9.08062 7.14071 9.07982H7.0802C7.04523 9.07982 7.00839 9.0782 6.97127 9.07794L6.97477 9.08009C7.01215 9.08009 7.04927 9.08197 7.0845 9.08197H7.14205ZM7.14071 9.07982H7.0802C7.04523 9.07982 7.00839 9.0782 6.97127 9.07794H6.95595L6.94949 9.07928H6.97423C7.01162 9.07928 7.04873 9.08116 7.08423 9.08116H7.14151C7.14137 9.08045 7.14137 9.07972 7.14151 9.07901L7.14071 9.07982Z" fill="white"/>
<path d="M10.1905 8.63258L10.202 8.57207C10.2274 8.44931 10.2388 8.3241 10.2362 8.19878C10.2342 8.12239 10.2266 8.04625 10.2133 7.97099C10.2088 7.94114 10.202 7.9137 10.1975 7.88627L10.1859 7.83221L10.241 7.84593C10.315 7.86334 10.387 7.88793 10.4562 7.91935C10.5799 7.97664 10.6531 8.05006 10.6738 8.1345C10.6762 8.14607 10.6783 8.15763 10.6805 8.17135C10.6966 8.2835 10.6555 8.39296 10.5546 8.49892L10.5501 8.50322L10.5431 8.50564C10.4791 8.53092 10.4151 8.5562 10.3462 8.57906C10.3142 8.59036 10.2819 8.60192 10.2478 8.61322L10.1905 8.63258ZM10.2752 7.925L10.2819 7.95915C10.2953 8.03793 10.303 8.11756 10.3051 8.19744C10.3077 8.30863 10.3 8.41983 10.2819 8.52958L10.3233 8.51586C10.3873 8.493 10.4492 8.46987 10.5116 8.44486C10.5923 8.35557 10.6264 8.26629 10.6149 8.17915C10.6125 8.17 10.6125 8.16086 10.6103 8.1493C10.5942 8.08529 10.5323 8.02854 10.4288 7.97986C10.3791 7.95753 10.3278 7.93919 10.2752 7.925Z" fill="white"/>
<path d="M11.6174 9.274C11.5142 9.23043 11.3905 9.16643 11.26 9.09973L11.1844 9.061L11.2165 9.00049L11.292 9.03948C11.4227 9.10591 11.544 9.17019 11.6449 9.21134L11.6174 9.274Z" fill="white"/>
<path d="M10.5829 8.48841L10.5393 8.43462C10.7086 8.29645 10.903 8.19234 11.1119 8.12803C11.1187 8.1261 11.1253 8.12376 11.1318 8.12103L11.1479 8.18746C11.1433 8.18961 11.1364 8.18961 11.1318 8.19203C10.9316 8.25494 10.7453 8.35553 10.5829 8.48841Z" fill="white"/>
<path d="M13.6536 8.27999C13.4519 8.26843 13.2233 8.24099 12.9684 8.20657L12.9482 8.20442C12.6793 8.17241 12.4031 8.13799 12.1306 8.1197L12.1344 8.05139C12.4092 8.06753 12.6862 8.10195 12.9565 8.13638L12.9767 8.13853C13.2309 8.17053 13.4576 8.19904 13.6593 8.20953L13.6536 8.27999Z" fill="white"/>
<path d="M10.3599 8.56856L10.3062 8.52822C10.4229 8.37707 10.5237 8.25928 10.6197 8.1517C10.9129 7.83354 11.2017 7.63668 11.529 7.53126L11.536 7.52883C11.8625 7.42911 12.1977 7.36006 12.537 7.32256C12.8692 7.28248 13.208 7.2564 13.5321 7.23354L13.5665 7.23112C13.8987 7.20718 14.2096 7.18432 14.5078 7.14532L14.517 7.21417C14.2168 7.2529 13.9032 7.27603 13.5711 7.29889L13.5367 7.30104C13.2115 7.32417 12.8748 7.34918 12.5416 7.39033C12.1522 7.43847 11.827 7.50517 11.5522 7.59419L11.5454 7.59661C11.2327 7.69773 10.9546 7.89056 10.6668 8.19984C10.5751 8.30043 10.4769 8.41957 10.3599 8.56856Z" fill="white"/>
<path d="M10.2981 8.21814L10.2402 8.18184C10.3021 8.08556 10.3572 8.00299 10.4097 7.92984C10.6856 7.54687 10.9572 7.28814 11.2732 7.11414L11.2778 7.11199C11.2819 7.11008 11.2858 7.10774 11.2894 7.105C11.5298 6.97214 11.8205 6.85515 12.1734 6.74219H12.1755C12.4757 6.64833 12.7755 6.57276 13.1354 6.48347L13.1556 6.4789C13.4514 6.40575 13.7303 6.33771 13.996 6.25729L14.0162 6.3213C13.7507 6.40198 13.4689 6.47245 13.1733 6.54587L13.1531 6.55044C12.7946 6.64107 12.4945 6.71557 12.1946 6.80943H12.1917C11.8437 6.91943 11.5572 7.03615 11.319 7.16685C11.3144 7.16927 11.3122 7.17142 11.3098 7.17142L11.3055 7.17358C11.0008 7.34328 10.7327 7.59501 10.4648 7.97072C10.415 8.04172 10.3599 8.12428 10.2981 8.21814Z" fill="white"/>
<path d="M10.094 7.45569L10.0345 7.42127C10.1358 7.23894 10.258 7.06907 10.3987 6.91512C10.4103 6.90356 10.4216 6.88984 10.4331 6.87855C10.6073 6.70544 10.8009 6.55318 11.0103 6.42484L11.017 6.42054C11.2257 6.28741 11.45 6.16854 11.6789 6.04725L11.7133 6.02869C11.8988 5.93026 12.0761 5.83855 12.2372 5.74469L12.2724 5.80493C12.1075 5.90094 11.9311 5.99319 11.7455 6.09109L11.7114 6.10964C11.4798 6.2304 11.2555 6.34981 11.0466 6.48293L11.0396 6.48724C10.836 6.61065 10.648 6.7581 10.4796 6.92642L10.4455 6.96057C10.3122 7.11356 10.1945 7.27942 10.094 7.45569Z" fill="white"/>
<path d="M9.21257 6.69727L9.14856 6.67199C9.17384 6.61014 9.20369 6.54828 9.24 6.47056C9.30186 6.34469 9.3707 6.21856 9.43498 6.10184L9.45757 6.06284C9.51513 5.95769 9.57671 5.84984 9.62943 5.74442L9.69048 5.77454C9.63669 5.87996 9.57564 5.98969 9.51862 6.09538L9.49576 6.13438C9.43149 6.2511 9.36291 6.37481 9.30105 6.50095C9.26501 6.57598 9.23543 6.63784 9.21257 6.69727Z" fill="white"/>
<path d="M7.5404 6.98128C7.49468 6.9275 7.44438 6.87828 7.38925 6.82315C7.29539 6.72929 7.19696 6.64188 7.08696 6.54399L7.05684 6.51709C6.96056 6.43049 6.86858 6.35008 6.78198 6.26536L6.83066 6.21857C6.91538 6.30113 7.00682 6.38343 7.1031 6.46814L7.13295 6.49342C7.24295 6.59186 7.34138 6.68168 7.43766 6.77527C7.49145 6.82906 7.54282 6.88285 7.59096 6.93664L7.5404 6.98128Z" fill="white"/>
<path d="M11.1522 8.18613C10.9701 8.30929 10.775 8.41219 10.5705 8.49299L10.5385 8.50456C10.4745 8.52957 10.4102 8.55485 10.3414 8.57771L10.2666 8.6046L10.2432 8.61267L10.1859 8.63096L10.1972 8.57152C10.1984 8.56655 10.1993 8.56152 10.1999 8.55646C10.1295 8.57986 10.0531 8.60326 9.97051 8.62881C9.82393 8.67211 9.6658 8.71325 9.49179 8.75467C9.31779 8.79609 9.13679 8.83535 8.94907 8.86897C8.86426 8.88511 8.78869 8.89855 8.72235 8.90931C8.65834 8.91846 8.58035 8.93244 8.49321 8.94589C8.29635 8.97816 8.11992 9.00317 7.95291 9.02146C7.77407 9.04163 7.60463 9.0583 7.44434 9.06745C7.37119 9.07148 7.29616 9.07363 7.22435 9.07552H7.21628C7.21951 9.08143 7.22301 9.08681 7.2265 9.09219L7.25797 9.14195H7.26254C7.3053 9.14195 7.34779 9.13899 7.38975 9.1371L7.45349 9.13361C7.61485 9.12446 7.78563 9.10833 7.96448 9.08789C8.13176 9.0696 8.30791 9.04432 8.5072 9.01205C8.54404 9.00748 8.57927 9.0021 8.61289 8.99672L8.67072 8.98704L8.69089 8.98327L8.7358 8.97574C8.80223 8.96418 8.87995 8.95046 8.96467 8.93432C9.14814 8.90094 9.33072 8.86282 9.51223 8.82002C9.58969 8.80209 9.664 8.78345 9.73518 8.76408H9.73922C9.82824 8.74042 9.91322 8.71621 9.99552 8.69228C10.0845 8.66726 10.1674 8.63983 10.2451 8.61455C10.2518 8.61213 10.2588 8.60998 10.2653 8.60729C10.2922 8.59842 10.3177 8.58927 10.3433 8.5804C10.4121 8.55754 10.4761 8.53226 10.5401 8.50698L10.5724 8.49568C10.7768 8.41477 10.9719 8.31188 11.1541 8.18882C11.3819 8.12481 11.6689 8.10195 12.0333 8.11755L12.036 8.11567C11.671 8.09899 11.3814 8.12212 11.1522 8.18613ZM6.93174 9.07363L6.91695 9.07605C6.87473 9.07605 6.83385 9.07283 6.79377 9.07014C6.74752 9.06772 6.70314 9.06449 6.6593 9.05992C6.57163 9.05212 6.48476 9.03975 6.39843 9.02334C6.32145 9.00911 6.24545 8.98997 6.17091 8.96606L6.16391 8.96391H6.15692C6.11416 8.96875 6.07086 8.9744 6.02622 8.98219C5.79089 9.02146 5.53163 9.10026 5.22504 9.22935L5.15001 9.26136L5.1449 9.26378L5.15001 9.26593L5.22397 9.29282C5.6021 9.43375 6.13837 9.5034 6.81798 9.49426H6.83089C7.02883 9.49157 7.2421 9.48269 7.46182 9.46736L7.50082 9.46521C7.51427 9.46306 7.5304 9.46306 7.54654 9.46064L7.56483 9.45822C7.65654 9.4515 7.7461 9.4445 7.83377 9.43536C7.88756 9.43106 7.93704 9.42406 7.98492 9.41949L8.08335 9.40793C8.12692 9.40336 8.17048 9.39636 8.2119 9.39179L8.2232 9.38964C8.36054 9.3735 8.49339 9.35513 8.62177 9.33451C8.69035 9.32563 8.7479 9.31622 8.79577 9.30761C8.84364 9.29901 8.90335 9.28906 8.96063 9.27534C9.0951 9.25033 9.22957 9.22155 9.36162 9.19278C9.40734 9.1839 9.45306 9.17449 9.5012 9.16319L9.59507 9.14033C9.63863 9.12877 9.6822 9.12016 9.72792 9.10833C9.81049 9.08977 9.8952 9.06691 9.98207 9.04405L10.0359 9.03034C10.056 9.02576 10.0749 9.01904 10.0953 9.0142L10.1026 9.01178C10.3099 8.95315 10.5105 8.89237 10.6983 8.82944L10.7069 8.82648H10.7093C11.3515 8.60864 11.8351 8.36928 12.1495 8.11083L12.2113 8.06L12.2156 8.05596L12.1285 8.05139C11.7028 8.0245 11.3843 8.04682 11.1299 8.12024L11.1232 8.12239L11.1165 8.12696C10.9376 8.24905 10.7454 8.35046 10.5436 8.42925L10.5116 8.44082C10.4498 8.46583 10.3836 8.49111 10.3172 8.51397L10.2862 8.52499L10.222 8.54759L10.2039 8.55404C10.1335 8.57744 10.0571 8.60084 9.97454 8.62639C9.82797 8.66968 9.66983 8.71083 9.49583 8.75225C9.32182 8.79367 9.14082 8.83293 8.9531 8.86655C8.8683 8.88269 8.79272 8.89613 8.72639 8.90689C8.66238 8.91603 8.58438 8.93002 8.49725 8.94347C8.30038 8.97574 8.12396 9.00075 7.95695 9.01904C7.7781 9.03921 7.60867 9.05588 7.44838 9.06503C7.37523 9.06906 7.30019 9.07121 7.22838 9.0731H7.20149C7.18293 9.0731 7.16464 9.07471 7.1477 9.07525H7.08611C7.05115 9.07525 7.01458 9.07363 6.97854 9.0731H6.95164V9.07794H6.97423C7.01135 9.07794 7.04846 9.08009 7.08396 9.08009H7.14125L7.1399 9.07767H7.14125C7.15012 9.0938 7.1598 9.1094 7.16814 9.12554L7.17809 9.14195H7.26173C7.30449 9.1406 7.34699 9.13872 7.38894 9.13684L7.45268 9.13334C7.61405 9.1242 7.78455 9.10833 7.96367 9.08762C8.13068 9.06933 8.30791 9.04513 8.5072 9.01285C8.54404 9.00828 8.57928 9.0029 8.61262 8.99752L8.67045 8.98784L8.69062 8.98408L8.73553 8.97655C8.80223 8.96498 8.87995 8.95127 8.96467 8.93513C9.14816 8.90185 9.33075 8.86373 9.51223 8.82083C9.58969 8.8029 9.664 8.78425 9.73518 8.76489H9.73895C9.82824 8.74149 9.91322 8.71729 9.99525 8.69335C10.0845 8.66807 10.1671 8.63956 10.2451 8.61536C10.2518 8.61294 10.2585 8.61079 10.265 8.6081C10.2919 8.59922 10.3188 8.59035 10.3433 8.5812C10.4121 8.55834 10.4761 8.53306 10.5401 8.50778L10.5724 8.49649C10.7769 8.41562 10.9719 8.31273 11.1541 8.18963C11.3819 8.12562 11.6689 8.10276 12.0333 8.11836H12.0381C11.7313 8.34964 11.28 8.56507 10.6934 8.76381H10.6913L10.6006 8.7942C10.4374 8.84799 10.2663 8.89882 10.0896 8.94723L10.0827 8.94938C10.0625 8.95422 10.0439 8.96095 10.0221 8.96552L9.95814 8.98166C9.87584 9.00452 9.79327 9.02496 9.71609 9.04351C9.67037 9.05481 9.62707 9.06368 9.5835 9.07552L9.48964 9.09838C9.4415 9.10752 9.39551 9.11855 9.34979 9.12823C9.21693 9.15512 9.08408 9.18336 8.95122 9.20891C8.88694 9.22021 8.83047 9.22908 8.77937 9.2385C8.72827 9.24791 8.67421 9.25678 8.60778 9.26539C8.4803 9.28448 8.34583 9.30492 8.21136 9.32106L8.20007 9.32321C8.15973 9.3302 8.11535 9.33478 8.07178 9.33935L7.97335 9.35064C7.92521 9.35764 7.87492 9.36221 7.82436 9.36678C7.73749 9.37377 7.6482 9.38292 7.55864 9.38964L7.54278 9.39206C7.52664 9.39421 7.51292 9.39421 7.49706 9.39663L7.45779 9.39878C7.25931 9.41304 7.06756 9.42191 6.88629 9.42568L6.81664 9.42702H6.80077C6.19027 9.43294 5.69811 9.37834 5.33773 9.26136H5.33262C5.64862 9.13415 5.90842 9.06288 6.15477 9.03544H6.15235C6.11048 9.0225 6.06936 9.00723 6.02918 8.98972C6.07355 8.98219 6.11685 8.97601 6.15934 8.97117L6.1658 9.03544C6.18597 9.03302 6.20453 9.03302 6.22631 9.03087C6.27999 9.02674 6.33388 9.02584 6.38767 9.02818C6.48164 9.04672 6.57653 9.06019 6.67194 9.06852C6.71229 9.07229 6.75263 9.07552 6.79512 9.07794C6.83761 9.08036 6.87768 9.08224 6.92018 9.08359H6.92045L6.92825 9.08197H6.94358" fill="white"/>
<path d="M6.95884 7.98227C6.80593 7.84945 6.63837 7.7345 6.45942 7.63964L6.40563 7.61275C6.18668 7.51075 5.95689 7.43388 5.72064 7.38361C5.48693 7.32982 5.24192 7.2919 4.99208 7.25317L4.952 7.24618C4.74196 7.21364 4.54537 7.18378 4.35522 7.14721L4.36921 7.08078C4.55908 7.11736 4.75622 7.14721 4.96088 7.17921L5.00122 7.1862C5.25322 7.2252 5.49822 7.26151 5.73435 7.31664C5.97548 7.36803 6.21004 7.44642 6.4336 7.55035L6.48873 7.57725C6.67311 7.6742 6.84535 7.79264 7.00187 7.9301L6.95884 7.98227Z" fill="white"/>
<path d="M7.02288 8.7969C6.93117 8.7259 6.84672 8.66243 6.76416 8.6046C6.39087 8.34319 6.0598 8.18774 5.71744 8.1189L5.69458 8.11432C5.43263 8.06403 5.1298 8.04574 4.76001 8.06054H4.75786C4.42571 8.07183 4.07986 8.10626 3.77515 8.13611H3.76815C3.45242 8.16704 3.15524 8.19689 2.87742 8.20872L2.875 8.14014C3.14986 8.12885 3.44784 8.0998 3.76251 8.06699H3.76923C4.07313 8.0366 4.41926 8.00217 4.75328 7.99088H4.75571C5.129 7.97689 5.44097 7.99518 5.70614 8.04816L5.72927 8.05247C6.0789 8.12374 6.42099 8.2816 6.801 8.54947C6.88357 8.60998 6.97044 8.67049 7.06295 8.74418L7.02288 8.7969Z" fill="white"/>
<path d="M7.10542 9.08144H7.08525C7.04975 9.08144 7.01264 9.07982 6.97526 9.07956L6.97203 9.07714C6.89323 9.02738 6.82142 8.98489 6.75338 8.94697C6.72299 8.93002 6.69287 8.91362 6.66409 8.89829L6.65602 8.89426C6.30237 8.706 5.98959 8.61402 5.67304 8.60219H5.59989C5.33095 8.60219 5.02032 8.64145 4.65295 8.71891L4.61853 8.7259L4.59163 8.73208C4.28181 8.79824 3.96984 8.88484 3.68987 8.96284L3.65222 8.97306L3.6186 8.98193C3.29318 9.07364 2.98632 9.15836 2.6999 9.21779L2.68457 9.15002C2.96642 9.09058 3.27248 9.00667 3.59386 8.9155L3.59843 8.91416L3.63259 8.90501L3.66432 8.89614C3.9451 8.81841 4.26057 8.73182 4.57092 8.66216L4.60131 8.65517L4.63278 8.64871C4.99666 8.57072 5.30513 8.53145 5.57407 8.52957H5.64158C5.96726 8.53656 6.28704 8.62451 6.63989 8.80604L6.69368 8.83294L6.709 8.84127C6.82519 8.9034 6.9524 8.98032 7.10247 9.07794L7.10542 9.08144Z" fill="white"/>
<path d="M6.93847 9.07633H6.9296L6.92207 9.07794H6.92045C6.87796 9.0766 6.83627 9.07471 6.79513 9.07229C6.75398 9.06987 6.71202 9.06665 6.67222 9.06288L6.6585 9.05965C6.65247 9.05805 6.64637 9.05671 6.64022 9.05562C6.56589 9.03899 6.49034 9.02838 6.41431 9.02388H6.38849C6.33469 9.02154 6.28081 9.02244 6.22712 9.02657C6.20695 9.02873 6.1884 9.02873 6.16661 9.03115L6.16016 8.96687V8.96176C6.18069 8.95926 6.20133 8.95783 6.22201 8.95746C6.39039 8.94587 6.55952 8.96232 6.72251 9.00613C6.77343 9.01958 6.82516 9.03527 6.87769 9.0532L6.89759 9.06046H6.90243L6.90916 9.06503L6.92798 9.07229L6.93256 9.07391C6.93453 9.07473 6.93661 9.07527 6.93874 9.07552L6.93847 9.07633Z" fill="white"/>
<path d="M3.8693 9.93829L3.84375 9.87616C4.04088 9.7936 4.24716 9.69274 4.46474 9.58517L4.48087 9.57817C4.72292 9.4593 4.97303 9.33613 5.22503 9.23016L5.25031 9.29202C5.00073 9.39745 4.75089 9.51874 4.51045 9.63788L4.49459 9.64702C4.27459 9.75487 4.06966 9.85572 3.8693 9.93829Z" fill="white"/>
<path d="M8.85012 9.6403C8.81812 9.64514 8.78369 9.65187 8.74712 9.65644C8.67827 9.66773 8.60054 9.6793 8.51556 9.69301L8.49539 9.69543L8.38996 9.70915C8.35339 9.71372 8.31466 9.72072 8.27351 9.72502H8.26517C8.20359 9.73443 8.13716 9.74115 8.07046 9.75191H8.06374L7.97902 9.76079C7.4661 9.82186 6.95042 9.85704 6.43395 9.86621L6.35327 9.86836L6.40706 9.80812C6.5296 9.67563 6.65877 9.54942 6.79407 9.42999L6.80321 9.42085H6.81451C7.04122 9.41843 7.2865 9.40713 7.54065 9.38642L7.5592 9.38427C7.65064 9.37755 7.74047 9.36813 7.82492 9.36141C7.87871 9.35657 7.93034 9.34985 7.98063 9.34527L8.07234 9.33398C8.11591 9.32914 8.15679 9.32456 8.19579 9.31784L8.20977 9.31569C8.3472 9.29955 8.47871 9.27884 8.60592 9.26056C8.67244 9.25141 8.72972 9.24245 8.77778 9.23366C8.82807 9.22452 8.88535 9.21537 8.94936 9.20381C9.08222 9.1788 9.21507 9.15002 9.34793 9.12313C9.39365 9.11371 9.43964 9.10296 9.48751 9.09328L9.59078 9.06799C9.63193 9.05885 9.67308 9.04971 9.7145 9.03814C9.79222 9.01985 9.87237 8.99942 9.95466 8.97629L10.0189 8.96042C10.2526 8.89641 10.4761 8.82971 10.6854 8.75898L10.6994 8.75656L10.7082 8.75898C10.8793 8.82909 11.0468 8.90772 11.2101 8.99457L11.2832 9.03142L11.2063 9.05831C10.7114 9.22 10.2088 9.35679 9.70024 9.46818L9.56308 9.49803C9.51252 9.5096 9.46438 9.5182 9.41866 9.52788L9.37509 9.53703L9.30194 9.55074C9.27666 9.55532 9.24815 9.56204 9.22395 9.56688L9.18065 9.57576C9.09566 9.59189 9.01928 9.60561 8.94909 9.61932C8.9169 9.62965 8.88374 9.63668 8.85012 9.6403ZM8.05755 9.68629H8.06669C8.13097 9.6793 8.19498 9.67015 8.25684 9.66101H8.26517C8.3039 9.65644 8.34317 9.64945 8.37947 9.64514C8.41578 9.64084 8.45289 9.63573 8.4849 9.63116L8.50319 9.62901C8.58817 9.61538 8.66455 9.6039 8.73232 9.59458C8.76634 9.58731 8.80072 9.58192 8.83533 9.57845C8.8676 9.57387 8.90176 9.56715 8.93618 9.56016C9.00476 9.54886 9.08249 9.53326 9.16747 9.51659L9.21077 9.50771C9.23605 9.50314 9.26133 9.4983 9.28876 9.49158L9.35976 9.47786L9.40333 9.46845C9.44905 9.45957 9.49719 9.44828 9.54748 9.43886L9.68195 9.40901C10.1929 9.29444 10.6717 9.16697 11.1044 9.02631C10.9715 8.95746 10.8319 8.89184 10.6945 8.83617C10.4885 8.90502 10.2661 8.9736 10.0348 9.03545L9.98102 9.04917C9.89388 9.0723 9.80943 9.09516 9.72687 9.11345C9.68572 9.12259 9.6443 9.13335 9.60316 9.14303L9.49773 9.16831C9.44959 9.17987 9.40387 9.18848 9.35815 9.19816C9.22529 9.22801 9.08921 9.25545 8.95716 9.28046C8.89315 9.29202 8.8364 9.30359 8.78557 9.31031C8.73474 9.31703 8.68015 9.3286 8.61157 9.33721C8.48302 9.358 8.35016 9.37638 8.213 9.39234L8.19928 9.39476C8.15787 9.39906 8.11672 9.40363 8.07315 9.41063L7.98171 9.42219C7.93115 9.42676 7.87844 9.43349 7.82357 9.43833C7.7367 9.4472 7.64715 9.45419 7.55463 9.46092L7.53634 9.46334C7.28408 9.48163 7.04391 9.49292 6.81935 9.49776C6.71177 9.59162 6.60419 9.6992 6.50334 9.80462C6.95435 9.79548 7.44463 9.75864 7.95993 9.6992L8.05621 9.68548L8.05755 9.68629Z" fill="white"/>
<path d="M6.11823 10.2061L6.07251 10.1556C6.15507 10.0824 6.25109 9.97943 6.35194 9.87185L6.40922 9.81L6.45952 9.85814L6.4025 9.91838C6.29923 10.0276 6.20322 10.1303 6.11823 10.2061Z" fill="white"/>
<path d="M10.2666 8.54404L10.717 8.76478L10.6868 8.82637L10.2365 8.60562L10.2666 8.54404Z" fill="white"/>
<path d="M7.17163 9.14383L7.16921 9.14625C7.14662 9.16803 6.99305 9.31783 6.88709 9.4238L6.88386 9.42729L6.84702 9.46414L6.797 9.42944L6.80157 9.42514L6.80614 9.4203C6.80614 9.4203 7.03124 9.17825 7.0853 9.14786L7.16814 9.14383H7.17163Z" fill="white"/>
<path d="M7.19929 9.14329H7.16809L7.08526 9.14706H7.00108C6.97418 9.14706 6.94729 9.14545 6.92255 9.14437H6.8338C6.83003 9.14464 6.82626 9.14464 6.8225 9.14437H6.80421C6.65532 9.13669 6.50714 9.11872 6.36073 9.09058C6.33383 9.0852 6.30855 9.07929 6.283 9.07337L6.25154 9.05992C6.22115 9.05185 6.1913 9.04325 6.16333 9.03303L6.1566 9.03142H6.15418C6.11227 9.01859 6.07114 9.00332 6.03101 8.9857C6.07538 8.97816 6.11868 8.97198 6.16117 8.96741L6.16763 9.03142C6.1878 9.02926 6.20636 9.02926 6.22814 9.02711C6.28182 9.02284 6.33571 9.02194 6.3895 9.02442C6.48351 9.0427 6.57839 9.05616 6.67378 9.06476C6.71412 9.06853 6.75446 9.07149 6.79695 9.07418C6.83944 9.07687 6.87952 9.07848 6.92201 9.07982H6.92416L6.93196 9.07821H6.94729V9.0809H6.97714C7.01425 9.0809 7.05137 9.08305 7.08687 9.08305H7.14415L7.14281 9.08063H7.14415C7.15303 9.09677 7.16271 9.11237 7.17105 9.1285L7.181 9.14491L7.19929 9.14329Z" fill="white"/>
<path d="M10.29 8.47766C10.2876 8.4938 10.2852 8.51021 10.2822 8.52634C10.2787 8.54651 10.2744 8.56776 10.2699 8.58847L10.2666 8.60299V8.60756L10.2483 8.61375C10.1588 8.6436 10.0711 8.66996 9.99742 8.69228C9.91674 8.71595 9.83202 8.73934 9.74058 8.76274H9.73655C9.66662 8.78103 9.59266 8.79905 9.51494 8.81653C9.31834 8.86386 9.136 8.8999 8.96845 8.93137C8.89772 8.94482 8.82457 8.95826 8.73877 8.97279L8.69252 8.98112L8.67235 8.98462L8.61452 8.9943C8.58171 8.99941 8.54594 9.00452 8.50883 9.00963C8.31519 9.0411 8.13688 9.06584 7.96503 9.0852C7.78861 9.10537 7.61541 9.12043 7.45243 9.13119L7.39219 9.13469C7.35023 9.13684 7.30774 9.13845 7.26498 9.1398H7.18026L7.17004 9.12339C7.16063 9.10726 7.15122 9.09166 7.14315 9.07579C7.12728 9.0489 7.11249 9.02039 7.09877 8.99269C7.09339 8.98247 7.08855 8.97252 7.08371 8.96203C7.07887 8.95154 7.07403 8.94186 7.06919 8.93056C7.05762 8.90555 7.0474 8.88081 7.03799 8.85606C7.03315 8.84342 7.02831 8.83078 7.02374 8.81814C7.01917 8.8055 7.01459 8.79125 7.01002 8.7778L7.00034 8.74929C6.98824 8.70895 6.97667 8.66861 6.96645 8.62478C6.96376 8.61402 6.96134 8.60272 6.95865 8.59143C6.95919 8.58949 6.95919 8.58745 6.95865 8.58551C6.95623 8.57395 6.95381 8.56265 6.95139 8.55055C6.94897 8.53845 6.94763 8.53145 6.94601 8.5215L6.94117 8.49138L6.93203 8.43087C6.93203 8.42657 6.93203 8.42226 6.93068 8.41796C6.91317 8.26053 6.91834 8.1014 6.94601 7.94543C6.98616 7.71405 7.07449 7.49368 7.20527 7.29863C7.22544 7.26716 7.24803 7.23677 7.27089 7.20665C7.3504 7.10425 7.44055 7.01058 7.53984 6.92722C7.72638 6.77513 7.94294 6.66414 8.17534 6.60153C8.21111 6.59185 8.24715 6.58351 8.28292 6.57652L8.36629 6.56227C8.65682 6.51982 8.9534 6.55399 9.22667 6.6614C9.49993 6.76881 9.7404 6.94573 9.92427 7.17464C9.93395 7.18648 9.94417 7.19858 9.95277 7.21068C9.96138 7.22279 9.97026 7.23381 9.97967 7.24511C9.98908 7.2564 9.99984 7.272 10.0087 7.28545C10.0372 7.3274 10.0641 7.37052 10.0894 7.41481C10.1668 7.55437 10.2242 7.70411 10.2599 7.85964C10.2642 7.87362 10.2685 7.88653 10.2717 7.90105C10.2766 7.91961 10.2806 7.93817 10.2836 7.95699V7.96049C10.2868 7.98066 10.29 8.00083 10.2924 8.021C10.2949 8.03579 10.2965 8.05086 10.2981 8.06592C10.2997 8.08098 10.3005 8.09577 10.3019 8.11083C10.3032 8.12589 10.3037 8.13987 10.3045 8.1552C10.3054 8.17053 10.3059 8.1821 10.3064 8.19528V8.19877C10.3094 8.29204 10.3039 8.38539 10.29 8.47766Z" fill="white"/>
</g>
<defs>
<clipPath id="clip0_1750_6206">
<rect x="0.466675" width="16" height="16" rx="4" fill="white"/>
</clipPath>
</defs>
</svg>
