<svg width="16" height="16" viewBox="0 0 16 16" fill="none" xmlns="http://www.w3.org/2000/svg">
<g clip-path="url(#clip0_1750_6206)">
<rect width="16" height="16" rx="4" fill="#002FA7"/>
<path d="M8.5031 9.96329L8.37938 9.98346H8.37024C8.3611 9.98588 8.35195 9.98588 8.34335 9.9883L8.31107 9.9926C6.68963 10.2583 5.31776 10.2927 4.12016 10.1002C3.79744 10.0464 3.32329 9.95818 2.918 9.78391C2.43875 9.57817 2.16631 9.29981 2.10902 8.95315C1.96406 8.10813 3.21652 7.4304 3.62989 7.20799C4.72448 6.61632 6.07375 6.18897 7.75248 5.9047C9.43121 5.62043 10.8461 5.5774 12.0746 5.77668C12.8753 5.90712 13.9572 6.16477 14.0855 6.92318C14.2138 7.68159 13.2787 8.28133 12.5646 8.66834C11.4967 9.24575 10.192 9.66342 8.57248 9.94877L8.54048 9.95334C8.5316 9.95576 8.52219 9.95576 8.51359 9.95791C8.50498 9.96006 8.50525 9.96329 8.5031 9.96329ZM8.36325 9.91757H8.36755L8.49368 9.89471H8.4961C8.50498 9.89229 8.51439 9.89229 8.523 9.89014L8.555 9.8853C10.1652 9.60345 11.4639 9.18605 12.5265 8.61213C14.1482 7.73484 14.0446 7.13484 14.0132 6.93797C13.8803 6.14083 12.5109 5.91842 12.0617 5.84768C10.8415 5.65055 9.43525 5.69197 7.76351 5.97651C6.09177 6.26105 4.75137 6.68382 3.66135 7.27227C2.03964 8.14928 2.14291 8.74956 2.17491 8.94642C2.30938 9.7433 3.68098 9.96329 4.12931 10.0364C5.32045 10.229 6.68425 10.1946 8.30005 9.92887L8.33232 9.92429C8.34146 9.92214 8.35088 9.92214 8.35921 9.91999L8.36325 9.91757Z" fill="white"/>
<path d="M8.38337 9.64028C8.35136 9.64512 8.31694 9.65185 8.28036 9.65642C8.21151 9.66771 8.13379 9.67928 8.0488 9.693L8.03966 9.69542C8.00308 9.69972 7.96436 9.70698 7.92294 9.71128C7.88636 9.71586 7.84737 9.72285 7.80622 9.72742H7.79842C7.73683 9.73656 7.6704 9.74329 7.60371 9.7527H7.59483L7.50985 9.76158C7.48699 9.764 7.46171 9.76642 7.43912 9.77099H7.43589C6.91603 9.82827 6.42117 9.8627 5.96774 9.86942C5.14317 9.88072 4.4813 9.80514 4.00447 9.64512C3.54915 9.49156 3.25816 9.25758 3.14574 8.95099C3.12623 8.89867 3.11164 8.84465 3.10217 8.78962C3.06183 8.54919 3.12046 8.31118 3.2786 8.08446C3.49752 7.76711 3.9141 7.46482 4.51734 7.18673C5.08212 6.92478 5.79535 6.68946 6.63821 6.48345C7.17179 6.35275 7.60021 6.27502 7.80864 6.2414C8.01707 6.20779 8.4541 6.1384 8.99494 6.08327C9.59037 6.02302 10.4609 5.9687 11.2325 6.04454C11.8944 6.10855 12.389 6.25754 12.7009 6.48883C12.9185 6.6502 13.0506 6.85298 13.0901 7.09314C13.0996 7.15072 13.1035 7.20909 13.1017 7.26742C13.0923 7.59472 12.8978 7.90857 12.5243 8.1993C12.1273 8.50777 11.5273 8.7985 10.7414 9.05991C10.3063 9.20406 9.82704 9.33477 9.31605 9.45149C9.29839 9.45646 9.28042 9.46033 9.26227 9.46305L9.08611 9.50124C9.04012 9.51012 8.99655 9.51953 8.95164 9.52813L8.90834 9.53755C8.88306 9.54185 8.8602 9.54669 8.83519 9.55126C8.81018 9.55584 8.7814 9.56283 8.75451 9.5674L8.71094 9.57627C8.62622 9.59241 8.54823 9.60613 8.47965 9.61984C8.45033 9.62899 8.41699 9.63571 8.38337 9.64028ZM7.5908 9.68627H7.60236C7.66637 9.67928 7.73038 9.67014 7.79223 9.66099H7.79842C7.83769 9.65642 7.87641 9.64943 7.91541 9.64512C7.95441 9.64082 7.99609 9.63356 8.03213 9.62899L8.04127 9.62684C8.12599 9.61285 8.20264 9.60156 8.27041 9.59214C8.34383 9.58085 8.40085 9.57197 8.47427 9.55799C8.54285 9.54642 8.62084 9.53109 8.70556 9.51442L8.74913 9.50527C8.77441 9.5007 8.80157 9.49613 8.82685 9.48941L8.89812 9.47542L8.94142 9.46628C8.98499 9.45713 9.02856 9.44799 9.07428 9.43938L9.2507 9.40039C9.26899 9.39581 9.28513 9.39339 9.30449 9.38882C9.81548 9.27452 10.2899 9.14167 10.7229 8.99913C11.5028 8.74041 12.0945 8.45398 12.4842 8.14927C12.8408 7.87011 13.0264 7.57455 13.0358 7.26742C13.0376 7.21337 13.0337 7.15928 13.0242 7.10605C12.9876 6.88444 12.8629 6.69592 12.6598 6.54477C12.3578 6.32316 11.8766 6.17605 11.2263 6.11446C10.4591 6.04104 9.59333 6.09429 9.0022 6.15346C8.4619 6.20725 8.0289 6.27422 7.82047 6.30918C7.61204 6.34414 7.18389 6.42348 6.65488 6.55123C5.8287 6.75266 5.09718 6.9931 4.54531 7.25047C3.95445 7.52425 3.54754 7.8174 3.334 8.12426C3.18743 8.33484 3.13256 8.55699 3.16914 8.77913C3.1777 8.83069 3.19121 8.88131 3.20948 8.93028C3.31706 9.21885 3.59218 9.43885 4.02921 9.58542C4.49878 9.74329 5.1515 9.81671 5.96908 9.80514C6.42279 9.79842 6.91522 9.76642 7.43266 9.70698H7.43723C7.46105 9.70507 7.48474 9.70193 7.50823 9.69757L7.5908 9.68627Z" fill="white"/>
<path d="M5.70633 8.96929L5.69961 8.96714H5.69315L5.69961 9.03115C5.71978 9.029 5.73833 9.029 5.75985 9.02658C5.81354 9.02255 5.86743 9.02174 5.92121 9.02416C5.84855 9.01018 5.7768 8.99186 5.70633 8.96929ZM6.48169 9.07526H6.47954V9.07902H6.48411M13.0858 7.09827C13.0471 6.85622 12.9142 6.65613 12.6966 6.49369C12.3852 6.2624 11.8898 6.11368 11.2282 6.0494C10.4566 5.97383 9.58769 6.02923 8.99171 6.0884C8.45114 6.14219 8.016 6.20915 7.80542 6.24627C7.59483 6.28338 7.16776 6.35895 6.63391 6.48831C5.79132 6.69459 5.07647 6.93045 4.51304 7.19159C3.91034 7.46914 3.49537 7.77143 3.27403 8.08744C3.11589 8.31415 3.05645 8.5527 3.0976 8.79287C3.10459 8.83441 3.11457 8.8754 3.12745 8.91551C3.13203 8.92922 3.13633 8.9424 3.14117 8.95585C3.1444 8.96418 3.14763 8.97252 3.15112 8.98086C3.27188 9.27669 3.55884 9.50045 4.00232 9.64971C4.47888 9.81108 5.14075 9.88558 5.96559 9.87428H5.97931L5.98818 9.86298C6.10705 9.73712 6.23507 9.60695 6.36308 9.49615L6.37088 9.48943L6.44188 9.42757H6.33269C5.72112 9.43349 5.22842 9.37889 4.8675 9.26136H4.86428L4.86858 9.25975C5.18512 9.13254 5.44734 9.06208 5.68885 9.03465C5.89942 9.09567 6.1166 9.13098 6.33565 9.1398C6.18675 9.13226 6.03856 9.11428 5.89217 9.08601L5.81444 9.0688L5.78298 9.05966C5.75259 9.05159 5.72274 9.04298 5.69477 9.03276L5.68804 9.03115H5.68562C5.64371 9.01832 5.60258 9.00306 5.56245 8.98543C5.32685 9.02443 5.06706 9.10376 4.76046 9.23286L4.6857 9.26486L4.68086 9.26701L4.76154 9.29686C5.12085 9.43133 5.6278 9.50072 6.26411 9.4983C6.15654 9.59458 6.05326 9.70216 5.95483 9.80516C5.14505 9.817 4.49905 9.74169 4.03325 9.58571C3.61155 9.44478 3.34099 9.23608 3.22642 8.96123C3.22185 8.95101 3.21755 8.94106 3.21378 8.9303C3.21002 8.91954 3.20545 8.90771 3.20195 8.89641C3.18941 8.85807 3.17961 8.81889 3.17264 8.77915C3.13606 8.55755 3.19092 8.33486 3.3375 8.12401C3.54942 7.81742 3.95606 7.52427 4.54773 7.25157C5.0996 6.995 5.83031 6.75456 6.65704 6.55232C7.18604 6.42404 7.61447 6.34389 7.8229 6.31027C8.03133 6.27666 8.46405 6.20727 9.00462 6.15456C9.59629 6.09404 10.4612 6.04214 11.2285 6.11556C11.8791 6.17742 12.3599 6.32399 12.6622 6.54587C12.8663 6.69701 12.9898 6.88473 13.0264 7.10715C13.036 7.16036 13.0399 7.21446 13.0379 7.26851C13.0288 7.57537 12.8432 7.87067 12.4861 8.1501C12.0991 8.45239 11.5103 8.73881 10.7379 8.99538C10.6097 8.92895 10.4722 8.86091 10.3345 8.80067C10.9324 8.59009 11.388 8.36095 11.6903 8.1181L11.7567 8.06431H11.743L11.6698 8.06027C11.2438 8.03338 10.9254 8.0557 10.6713 8.12885L10.6643 8.13127L10.6575 8.13585C10.4785 8.25754 10.2862 8.35859 10.0844 8.43706L10.0521 8.44836C9.99029 8.47364 9.92386 8.49892 9.85771 8.52151L9.81629 8.53549L9.81763 8.52796C9.82005 8.51209 9.82247 8.49596 9.82436 8.48009C9.83637 8.38827 9.84141 8.29567 9.83942 8.20308C9.83972 8.18844 9.83909 8.1738 9.83753 8.15924C9.83565 8.14445 9.83592 8.12993 9.83458 8.11487C9.83323 8.09981 9.83216 8.08502 9.83081 8.06995C9.82947 8.05489 9.82758 8.0401 9.82543 8.02504C9.82274 8.00487 9.81978 7.9847 9.81629 7.96453C9.81279 7.94436 9.80795 7.92446 9.80419 7.90429C9.8023 7.89407 9.80015 7.88412 9.798 7.87443C9.76283 7.71844 9.70531 7.56835 9.62722 7.4288C9.60051 7.38093 9.57164 7.33458 9.54062 7.28976C9.53121 7.27604 9.52153 7.26286 9.51158 7.24942C9.50163 7.23597 9.49464 7.22629 9.48468 7.21499C9.47473 7.2037 9.46586 7.19079 9.45618 7.17895C9.34931 7.0471 9.22341 6.9319 9.08262 6.83713C8.97135 6.76229 8.85131 6.70141 8.72519 6.65586C8.46366 6.56134 8.18297 6.53226 7.90761 6.57115C7.88051 6.57387 7.85357 6.57809 7.82693 6.58379H7.81994C7.5471 6.63793 7.29163 6.75796 7.07578 6.93341C6.97632 7.01251 6.88699 7.10356 6.8098 7.2045L6.80334 7.21365C6.75099 7.28175 6.70379 7.35367 6.66215 7.4288C6.65381 7.44386 6.64601 7.45892 6.63821 7.47398C6.63041 7.48904 6.62584 7.49792 6.62019 7.51056C6.61454 7.5232 6.60997 7.53073 6.60567 7.54149C6.58286 7.5916 6.56267 7.64285 6.54516 7.69505C6.54032 7.70904 6.53575 7.72195 6.53117 7.73727C6.5266 7.7526 6.52257 7.76417 6.51853 7.77977L6.50939 7.81231C6.51005 7.81432 6.51005 7.81649 6.50939 7.81849C6.50939 7.82199 6.50724 7.82576 6.50643 7.82952C6.50374 7.83893 6.50159 7.84969 6.49944 7.85857C6.49916 7.85972 6.49916 7.86091 6.49944 7.86206V7.86502C6.49729 7.87309 6.49594 7.88035 6.49433 7.88815C6.49271 7.89595 6.49137 7.90214 6.48976 7.90832C6.4868 7.92311 6.48411 7.93817 6.48169 7.95297C6.47606 7.98601 6.47122 8.01919 6.46716 8.05247C6.46716 8.06377 6.46474 8.07533 6.46367 8.08663C6.46259 8.09792 6.46125 8.11702 6.46017 8.13235C6.45614 8.20033 6.45614 8.26849 6.46017 8.33648C6.46179 8.36337 6.46367 8.39026 6.46663 8.41716C6.46633 8.42314 6.46697 8.42912 6.46851 8.43491C6.4712 8.45481 6.47389 8.47256 6.47685 8.49058C6.47653 8.49444 6.47718 8.49832 6.47873 8.50187C6.47846 8.50257 6.47846 8.50333 6.47873 8.50403C6.47889 8.50711 6.47934 8.51017 6.48007 8.51317C6.4798 8.51386 6.4798 8.51463 6.48007 8.51532C6.48033 8.51903 6.48087 8.52272 6.48169 8.52635C6.48169 8.53442 6.48411 8.54222 6.48572 8.55028C6.50041 8.62913 6.52054 8.70686 6.54596 8.78292C6.57925 8.88554 6.62258 8.98463 6.67533 9.07875H6.67667C6.68554 9.09462 6.69496 9.11049 6.70356 9.12662L6.71378 9.14276H6.70249L6.61992 9.1468H6.73476L6.79527 9.14437L6.76354 9.09462C6.76004 9.08924 6.75681 9.08386 6.75359 9.07795C6.6933 8.9786 6.6444 8.87278 6.60782 8.76248C6.58062 8.68179 6.55994 8.59905 6.54596 8.51505C6.54166 8.48547 6.53682 8.45804 6.5344 8.42818C6.53279 8.41232 6.53117 8.39618 6.52983 8.38031C6.51743 8.24106 6.52367 8.10078 6.54839 7.96319C6.59182 7.70438 6.69781 7.4601 6.85713 7.25157C6.87918 7.22467 6.90231 7.1959 6.92625 7.169C6.98483 7.10194 7.04898 7.03996 7.118 6.9837C7.32522 6.81581 7.5702 6.70089 7.83177 6.64887L7.8385 6.64753L7.87319 6.64161L7.91353 6.63489C8.17829 6.59758 8.44815 6.62594 8.69938 6.71745C8.95461 6.80984 9.18244 6.96506 9.36182 7.16879C9.54119 7.37251 9.66633 7.61816 9.72566 7.88304C9.72996 7.90993 9.73695 7.93683 9.74152 7.96803C9.75473 8.04366 9.76246 8.12015 9.76465 8.1969C9.76711 8.31691 9.75656 8.43684 9.73319 8.55459C9.73281 8.55969 9.73191 8.56473 9.7305 8.56965L9.7192 8.62908L9.77648 8.6108L9.79988 8.60273L9.87465 8.57583C9.9435 8.55297 10.0078 8.52769 10.0718 8.50268L10.1038 8.49112C10.3083 8.41031 10.5033 8.30741 10.6855 8.18425C10.9146 8.12025 11.2032 8.09712 11.5698 8.11325L11.5671 8.11541C11.26 8.34589 10.8073 8.56292 10.2224 8.76086L10.1331 8.79072L10.2192 8.82487L10.2264 8.82756C10.393 8.89517 10.5557 8.97194 10.7137 9.05751L10.7275 9.0645H10.7366C11.5225 8.80255 12.1225 8.51236 12.5186 8.20389C12.8935 7.91289 13.0882 7.60011 13.0966 7.27228C13.0988 7.21406 13.0952 7.15577 13.0858 7.09827ZM6.48061 9.07526H6.47846V9.07902H6.48303M6.4599 9.14706H6.46367L6.50293 9.14841H6.5344C6.50751 9.14841 6.48061 9.1468 6.4556 9.14545H6.42467M5.69369 8.96902L5.70014 9.03303C5.72032 9.03088 5.73887 9.03088 5.76066 9.02873C5.81434 9.02446 5.86823 9.02356 5.92202 9.02604C5.84929 9.01246 5.77744 8.9945 5.70687 8.97225L5.69988 8.9701L5.69369 8.96902ZM5.70687 8.97118L5.70014 8.96902H5.69369L5.70014 9.03303C5.72032 9.03088 5.73887 9.03088 5.76066 9.02873C5.81434 9.02446 5.86823 9.02356 5.92202 9.02604C5.84923 9.01145 5.77738 8.9925 5.70687 8.96929V8.97118ZM6.48249 9.07499H6.48034V9.07875H6.48492M6.48249 9.07553H6.48034V9.07875H6.48492M5.70956 8.96902L5.70283 8.96687H5.69638L5.70283 9.03088C5.723 9.02873 5.74156 9.02873 5.76308 9.02631C5.81677 9.02228 5.87065 9.02147 5.92444 9.02389C5.85171 9.01028 5.77987 8.99232 5.70929 8.9701L5.70956 8.96902Z" fill="white"/>
<path d="M5.70633 8.96929L5.69961 8.96714H5.69315L5.69961 9.03115C5.71978 9.029 5.73833 9.029 5.75985 9.02658C5.81354 9.02255 5.86743 9.02174 5.92121 9.02416C5.84855 9.01018 5.7768 8.99186 5.70633 8.96929ZM6.48169 9.07526H6.47954V9.07902H6.48411M13.0858 7.09827C13.0471 6.85622 12.9142 6.65613 12.6966 6.49369C12.3852 6.2624 11.8898 6.11368 11.2282 6.0494C10.4566 5.97383 9.58769 6.02923 8.99171 6.0884C8.45114 6.14219 8.016 6.20915 7.80542 6.24627C7.59483 6.28338 7.16776 6.35895 6.63391 6.48831C5.79132 6.69459 5.07647 6.93045 4.51304 7.19159C3.91034 7.46914 3.49537 7.77143 3.27403 8.08744C3.11589 8.31415 3.05645 8.5527 3.0976 8.79287C3.10459 8.83441 3.11457 8.8754 3.12745 8.91551C3.13203 8.92922 3.13633 8.9424 3.14117 8.95585C3.1444 8.96418 3.14763 8.97252 3.15112 8.98086C3.27188 9.27669 3.55884 9.50045 4.00232 9.64971C4.47888 9.81108 5.14075 9.88558 5.96559 9.87428H5.97931L5.98818 9.86298C6.10705 9.73712 6.23507 9.60695 6.36308 9.49615L6.37088 9.48943L6.44188 9.42757H6.33269C5.72112 9.43349 5.22842 9.37889 4.8675 9.26136H4.86428L4.86858 9.25975C5.18512 9.13254 5.44734 9.06208 5.68885 9.03465C5.89942 9.09567 6.1166 9.13098 6.33565 9.1398C6.18675 9.13226 6.03856 9.11428 5.89217 9.08601L5.81444 9.0688L5.78298 9.05966C5.75259 9.05159 5.72274 9.04298 5.69477 9.03276L5.68804 9.03115H5.68562C5.64371 9.01832 5.60258 9.00306 5.56245 8.98543C5.32685 9.02443 5.06706 9.10376 4.76046 9.23286L4.6857 9.26486L4.68086 9.26701L4.76154 9.29686C5.12085 9.43133 5.6278 9.50072 6.26411 9.4983C6.15654 9.59458 6.05326 9.70216 5.95483 9.80516C5.14505 9.817 4.49905 9.74169 4.03325 9.58571C3.61155 9.44478 3.34099 9.23608 3.22642 8.96123C3.22185 8.95101 3.21755 8.94106 3.21378 8.9303C3.21002 8.91954 3.20545 8.90771 3.20195 8.89641C3.18941 8.85807 3.17961 8.81889 3.17264 8.77915C3.13606 8.55755 3.19092 8.33486 3.3375 8.12401C3.54942 7.81742 3.95606 7.52427 4.54773 7.25157C5.0996 6.995 5.83031 6.75456 6.65704 6.55232C7.18604 6.42404 7.61447 6.34389 7.8229 6.31027C8.03133 6.27666 8.46405 6.20727 9.00462 6.15456C9.59629 6.09404 10.4612 6.04214 11.2285 6.11556C11.8791 6.17742 12.3599 6.32399 12.6622 6.54587C12.8663 6.69701 12.9898 6.88473 13.0264 7.10715C13.036 7.16036 13.0399 7.21446 13.0379 7.26851C13.0288 7.57537 12.8432 7.87067 12.4861 8.1501C12.0991 8.45239 11.5103 8.73881 10.7379 8.99538C10.6097 8.92895 10.4722 8.86091 10.3345 8.80067C10.9324 8.59009 11.388 8.36095 11.6903 8.1181L11.7567 8.06431H11.743L11.6698 8.06027C11.2438 8.03338 10.9254 8.0557 10.6713 8.12885L10.6643 8.13127L10.6575 8.13585C10.4785 8.25754 10.2862 8.35859 10.0844 8.43706L10.0521 8.44836C9.99029 8.47364 9.92386 8.49892 9.85771 8.52151L9.81629 8.53549L9.81763 8.52796C9.82005 8.51209 9.82247 8.49596 9.82436 8.48009C9.83637 8.38827 9.84141 8.29567 9.83942 8.20308C9.83972 8.18844 9.83909 8.1738 9.83753 8.15924C9.83565 8.14445 9.83592 8.12993 9.83458 8.11487C9.83323 8.09981 9.83216 8.08502 9.83081 8.06995C9.82947 8.05489 9.82758 8.0401 9.82543 8.02504C9.82274 8.00487 9.81978 7.9847 9.81629 7.96453C9.81279 7.94436 9.80795 7.92446 9.80419 7.90429C9.8023 7.89407 9.80015 7.88412 9.798 7.87443C9.76283 7.71844 9.70531 7.56835 9.62722 7.4288C9.60051 7.38093 9.57164 7.33458 9.54062 7.28976C9.53121 7.27604 9.52153 7.26286 9.51158 7.24942C9.50163 7.23597 9.49464 7.22629 9.48468 7.21499C9.47473 7.2037 9.46586 7.19079 9.45618 7.17895C9.34931 7.0471 9.22341 6.9319 9.08262 6.83713C8.97135 6.76229 8.85131 6.70141 8.72519 6.65586C8.46366 6.56134 8.18297 6.53226 7.90761 6.57115C7.88051 6.57387 7.85357 6.57809 7.82693 6.58379H7.81994C7.5471 6.63793 7.29163 6.75796 7.07578 6.93341C6.97632 7.01251 6.88699 7.10356 6.8098 7.2045L6.80334 7.21365C6.75099 7.28175 6.70379 7.35367 6.66215 7.4288C6.65381 7.44386 6.64601 7.45892 6.63821 7.47398C6.63041 7.48904 6.62584 7.49792 6.62019 7.51056C6.61454 7.5232 6.60997 7.53073 6.60567 7.54149C6.58286 7.5916 6.56267 7.64285 6.54516 7.69505C6.54032 7.70904 6.53575 7.72195 6.53117 7.73727C6.5266 7.7526 6.52257 7.76417 6.51853 7.77977L6.50939 7.81231C6.51005 7.81432 6.51005 7.81649 6.50939 7.81849C6.50939 7.82199 6.50724 7.82576 6.50643 7.82952C6.50374 7.83893 6.50159 7.84969 6.49944 7.85857C6.49916 7.85972 6.49916 7.86091 6.49944 7.86206V7.86502C6.49729 7.87309 6.49594 7.88035 6.49433 7.88815C6.49271 7.89595 6.49137 7.90214 6.48976 7.90832C6.4868 7.92311 6.48411 7.93817 6.48169 7.95297C6.47606 7.98601 6.47122 8.01919 6.46716 8.05247C6.46716 8.06377 6.46474 8.07533 6.46367 8.08663C6.46259 8.09792 6.46125 8.11702 6.46017 8.13235C6.45614 8.20033 6.45614 8.26849 6.46017 8.33648C6.46179 8.36337 6.46367 8.39026 6.46663 8.41716C6.46633 8.42314 6.46697 8.42912 6.46851 8.43491C6.4712 8.45481 6.47389 8.47256 6.47685 8.49058C6.47653 8.49444 6.47718 8.49832 6.47873 8.50187C6.47846 8.50257 6.47846 8.50333 6.47873 8.50403C6.47889 8.50711 6.47934 8.51017 6.48007 8.51317C6.4798 8.51386 6.4798 8.51463 6.48007 8.51532C6.48033 8.51903 6.48087 8.52272 6.48169 8.52635C6.48169 8.53442 6.48411 8.54222 6.48572 8.55028C6.50041 8.62913 6.52054 8.70686 6.54596 8.78292C6.57925 8.88554 6.62258 8.98463 6.67533 9.07875H6.67667C6.68554 9.09462 6.69496 9.11049 6.70356 9.12662L6.71378 9.14276H6.70249L6.61992 9.1468H6.73476L6.79527 9.14437L6.76354 9.09462C6.76004 9.08924 6.75681 9.08386 6.75359 9.07795C6.6933 8.9786 6.6444 8.87278 6.60782 8.76248C6.58062 8.68179 6.55994 8.59905 6.54596 8.51505C6.54166 8.48547 6.53682 8.45804 6.5344 8.42818C6.53279 8.41232 6.53117 8.39618 6.52983 8.38031C6.51743 8.24106 6.52367 8.10078 6.54839 7.96319C6.59182 7.70438 6.69781 7.4601 6.85713 7.25157C6.87918 7.22467 6.90231 7.1959 6.92625 7.169C6.98483 7.10194 7.04898 7.03996 7.118 6.9837C7.32522 6.81581 7.5702 6.70089 7.83177 6.64887L7.8385 6.64753L7.87319 6.64161L7.91353 6.63489C8.17829 6.59758 8.44815 6.62594 8.69938 6.71745C8.95461 6.80984 9.18244 6.96506 9.36182 7.16879C9.54119 7.37251 9.66633 7.61816 9.72566 7.88304C9.72996 7.90993 9.73695 7.93683 9.74152 7.96803C9.75473 8.04366 9.76246 8.12015 9.76465 8.1969C9.76711 8.31691 9.75656 8.43684 9.73319 8.55459C9.73281 8.55969 9.73191 8.56473 9.7305 8.56965L9.7192 8.62908L9.77648 8.6108L9.79988 8.60273L9.87465 8.57583C9.9435 8.55297 10.0078 8.52769 10.0718 8.50268L10.1038 8.49112C10.3083 8.41031 10.5033 8.30741 10.6855 8.18425C10.9146 8.12025 11.2032 8.09712 11.5698 8.11325L11.5671 8.11541C11.26 8.34589 10.8073 8.56292 10.2224 8.76086L10.1331 8.79072L10.2192 8.82487L10.2264 8.82756C10.393 8.89517 10.5557 8.97194 10.7137 9.05751L10.7275 9.0645H10.7366C11.5225 8.80255 12.1225 8.51236 12.5186 8.20389C12.8935 7.91289 13.0882 7.60011 13.0966 7.27228C13.0988 7.21406 13.0952 7.15577 13.0858 7.09827ZM6.48061 9.07526H6.47846V9.07902H6.48303M6.4599 9.14706H6.46367L6.50293 9.14841H6.5344C6.50751 9.14841 6.48061 9.1468 6.4556 9.14545H6.42467M5.69369 8.96902L5.70014 9.03303C5.72032 9.03088 5.73887 9.03088 5.76066 9.02873C5.81434 9.02446 5.86823 9.02356 5.92202 9.02604C5.84929 9.01246 5.77744 8.9945 5.70687 8.97225L5.69988 8.9701L5.69369 8.96902ZM5.70687 8.97118L5.70014 8.96902H5.69369L5.70014 9.03303C5.72032 9.03088 5.73887 9.03088 5.76066 9.02873C5.81434 9.02446 5.86823 9.02356 5.92202 9.02604C5.84923 9.01145 5.77738 8.9925 5.70687 8.96929V8.97118ZM5.70714 8.96902L5.70041 8.96687H5.69396L5.70041 9.03088C5.72058 9.02873 5.73914 9.02873 5.76066 9.02631C5.81435 9.02228 5.86823 9.02147 5.92202 9.02389C5.84929 9.01028 5.77745 8.99232 5.70687 8.9701L5.70714 8.96902Z" fill="white"/>
<path d="M6.46052 9.07281L6.44841 9.0747H6.44599C6.40404 9.0747 6.36235 9.07147 6.32228 9.06905C6.27082 9.06582 6.22107 9.06179 6.17302 9.05695C6.09233 9.04888 6.01703 9.03839 5.94711 9.02521C5.86446 9.01048 5.78288 8.99026 5.70291 8.9647L5.69565 8.96228H5.68892C5.64509 8.96712 5.60017 8.97384 5.55445 8.98245C5.32263 9.02279 5.06848 9.09998 4.76861 9.2245C4.45825 9.10724 4.263 8.93673 4.18689 8.71835C4.18258 8.70625 4.17882 8.69415 4.17532 8.68177C4.17183 8.6694 4.16994 8.66053 4.16752 8.65004C4.1651 8.63955 4.16214 8.6218 4.15946 8.60835C4.12718 8.42009 4.17774 8.23533 4.30818 8.05891L4.31732 8.04734C4.49429 7.81309 4.81513 7.58826 5.27341 7.3801C5.52119 7.26916 5.77502 7.17227 6.03371 7.08991C6.31583 6.99793 6.62538 6.91134 6.95456 6.83254C7.10086 6.79757 7.2348 6.76664 7.35582 6.7419C7.36174 6.74029 7.36765 6.73948 7.37384 6.73814C7.26769 6.79195 7.16776 6.85725 7.07585 6.93285C6.97523 7.01294 6.8849 7.10517 6.80691 7.20744L6.80342 7.21363C6.78163 7.24213 6.76065 7.27118 6.74102 7.30103C6.65851 7.42307 6.59267 7.55557 6.54523 7.69503C6.54039 7.70901 6.53582 7.72192 6.53125 7.73725C6.52667 7.75258 6.52264 7.76415 6.51861 7.77975C6.51672 7.78593 6.51511 7.79212 6.5135 7.79857C6.51245 7.80323 6.5111 7.80781 6.50946 7.81229V7.81847C6.50946 7.82036 6.50731 7.82574 6.5065 7.8295C6.50381 7.83891 6.50166 7.84967 6.49951 7.85855C6.49924 7.8597 6.49924 7.86089 6.49951 7.86204V7.865C6.49736 7.87307 6.49602 7.88033 6.4944 7.88813C6.49279 7.89593 6.49144 7.90211 6.48983 7.9083C6.48955 7.91077 6.48901 7.9132 6.48822 7.91556C6.4858 7.92739 6.48364 7.93896 6.48176 7.95052C6.47558 7.98441 6.471 8.0183 6.46724 8.05245C6.46724 8.06375 6.46482 8.07531 6.46374 8.08661C6.46374 8.10194 6.46132 8.117 6.46025 8.13233C6.45621 8.20031 6.45621 8.26847 6.46025 8.33645C6.46186 8.36335 6.46401 8.39024 6.46697 8.41714C6.46669 8.42248 6.46724 8.42783 6.46858 8.433C6.47127 8.45317 6.47423 8.472 6.47719 8.49083C6.47708 8.49289 6.47708 8.49495 6.47719 8.49701L6.48122 8.52391C6.48445 8.54408 6.48795 8.56425 6.49252 8.58442C6.49203 8.58636 6.49203 8.58839 6.49252 8.59033C6.49494 8.60163 6.49736 8.61293 6.50005 8.62368C6.51027 8.66752 6.52183 8.70867 6.53421 8.7482C6.53743 8.75896 6.54093 8.76837 6.54416 8.77994L6.5576 8.81759C6.56218 8.8305 6.56675 8.84287 6.57186 8.85551C6.58181 8.88052 6.59203 8.90553 6.60278 8.93028C6.60763 8.94076 6.6122 8.95018 6.61731 8.96147C6.62242 8.97277 6.62726 8.98164 6.63237 8.99213C6.64608 9.01903 6.66115 9.04834 6.67674 9.07524C6.68562 9.0911 6.69503 9.10697 6.70364 9.12311L6.71359 9.13924H6.70229L6.61973 9.14301H6.73806L6.7975 9.14059L6.76818 9.09083C6.76469 9.08546 6.76146 9.07981 6.75796 9.07416C6.69655 8.97546 6.64639 8.87018 6.60843 8.76031C6.58171 8.67957 6.56147 8.59683 6.54792 8.51288C6.54362 8.4833 6.53905 8.4556 6.53663 8.42601C6.53447 8.40853 6.53259 8.39132 6.53125 8.37384C6.51978 8.23594 6.52657 8.09713 6.55142 7.96101C6.59531 7.70264 6.70167 7.4589 6.86124 7.25101C6.87845 7.22922 6.89593 7.20798 6.91503 7.187C7.15277 6.90806 7.47839 6.71836 7.8383 6.64912V6.64885L7.82727 6.58484V6.5835L7.70786 6.60501C7.53144 6.63728 7.2625 6.69053 6.94219 6.76638C6.27118 6.92774 5.70318 7.1125 5.24974 7.31851C4.79039 7.52829 4.46094 7.755 4.27537 7.99517L4.26596 8.00673C4.11723 8.20387 4.05995 8.41014 4.09652 8.62072C4.09894 8.63471 4.1019 8.64762 4.10513 8.66107C4.10836 8.67451 4.11131 8.68796 4.11481 8.69979C4.11831 8.71163 4.12073 8.71996 4.12369 8.72884C4.19818 8.95583 4.38563 9.1344 4.68093 9.26107L4.68604 9.26349C4.70998 9.27371 4.73499 9.28366 4.76081 9.29335L4.77452 9.29765L4.78609 9.29335L4.86677 9.25973L4.87134 9.25812C5.186 9.13171 5.44661 9.05991 5.68946 9.03247H5.69269C5.72173 9.04162 5.75212 9.04995 5.78332 9.05937C5.75293 9.0513 5.72281 9.04269 5.69511 9.03247L5.68812 9.03086H5.68596C5.64398 9.01799 5.60276 9.00272 5.56252 8.98514C5.6069 8.97761 5.6502 8.97142 5.69269 8.96685L5.69914 9.03086C5.71931 9.02871 5.73814 9.02871 5.75965 9.02656C5.81333 9.02229 5.86723 9.02139 5.92102 9.02387C6.01512 9.04215 6.11009 9.05561 6.20556 9.06421C6.24563 9.06797 6.28624 9.07093 6.32847 9.07362C6.37069 9.07631 6.4113 9.07792 6.45379 9.07927H6.45594L6.46347 9.07766H6.4788V9.08115H6.50758C6.54496 9.08115 6.58208 9.0833 6.61731 9.0833H6.67486C6.67431 9.08256 6.67386 9.08174 6.67352 9.08088H6.613C6.57804 9.08088 6.5412 9.07927 6.50408 9.079H6.47773M6.46294 9.15027L6.50113 9.15161H6.53447C6.50758 9.15161 6.48069 9.15 6.45567 9.14893H6.42878M6.45971 9.07766L6.46428 9.07927L6.45971 9.07766ZM6.67325 9.08411H6.61274C6.57777 9.08411 6.5412 9.0825 6.50516 9.08223H6.4901L6.48364 9.08061H6.47907V9.0825H6.50758C6.54496 9.0825 6.58208 9.08465 6.61758 9.08465H6.67486V9.0825L6.67325 9.08411Z" fill="white"/>
<path d="M9.72378 8.63258L9.73534 8.57206C9.76068 8.44931 9.77214 8.32409 9.7695 8.19877C9.76753 8.12238 9.75989 8.04624 9.74664 7.97098C9.74207 7.94113 9.73534 7.9137 9.73077 7.88626C9.63952 7.47848 9.39393 7.12186 9.04551 6.89118C8.93911 6.82039 8.82451 6.76277 8.70422 6.7196C8.45298 6.62815 8.18311 6.59989 7.91838 6.6373L7.90601 6.57168C8.06172 6.5464 8.38687 6.49611 8.79916 6.45711C9.26389 6.41112 9.94673 6.36997 10.5605 6.42484H10.565C11.0779 6.47083 11.4676 6.5784 11.726 6.74568L11.7376 6.75241C11.9415 6.88688 12.0628 7.05927 12.0972 7.26797C12.1024 7.29819 12.1054 7.32875 12.1063 7.35941C12.1155 7.6227 11.9735 7.87954 11.6833 8.11755L11.6717 8.1267H11.658C11.2506 8.10142 10.9319 8.12213 10.6847 8.19313C10.5025 8.31618 10.3074 8.41907 10.103 8.49999L10.071 8.51155C10.0067 8.53656 9.9427 8.56184 9.87385 8.5847C9.84184 8.596 9.80984 8.60756 9.77542 8.61913L9.72378 8.63258ZM8.38338 6.56818C8.5001 6.58463 8.61482 6.61301 8.72574 6.6529C8.85186 6.69845 8.9719 6.75933 9.08316 6.83417C9.30941 6.98507 9.49624 7.18795 9.62804 7.42584C9.70582 7.56554 9.76281 7.71585 9.7972 7.87201C9.80392 7.90186 9.80849 7.93252 9.81522 7.9613C9.82857 8.04008 9.83629 8.11971 9.83835 8.19958C9.84102 8.31077 9.83327 8.42197 9.81522 8.53172L9.85664 8.51801C9.92306 8.49515 9.98949 8.46987 10.0513 8.44459L10.0834 8.43329C10.2851 8.35335 10.4771 8.25095 10.6559 8.12804L10.6627 8.12347L10.6696 8.12105C10.9216 8.0479 11.2344 8.02692 11.6545 8.0522C11.9202 7.83059 12.0509 7.595 12.0415 7.35833C12.0408 7.32989 12.0377 7.30156 12.0324 7.27362C12.0004 7.08805 11.8928 6.93233 11.7118 6.80862L11.7026 6.80189C11.4552 6.64053 11.0728 6.53295 10.5666 6.48562H10.5621C9.95292 6.43183 9.2725 6.4719 8.80777 6.51789C8.65205 6.53457 8.50978 6.5507 8.38338 6.56818Z" fill="white"/>
<path d="M6.48284 9.07712V9.07901H6.48956L6.48284 9.07712ZM6.67406 9.07927H6.61354C6.57858 9.07927 6.54174 9.07766 6.50462 9.07712L6.50812 9.07954C6.5455 9.07954 6.58262 9.08143 6.61785 9.08143H6.6754C6.67485 9.08068 6.6744 9.07987 6.67406 9.07901V9.07927ZM6.46509 9.07443L6.4503 9.07685C6.40807 9.07685 6.36719 9.07363 6.32712 9.07094C6.28086 9.06852 6.23649 9.06529 6.19265 9.06072C6.10498 9.05292 6.01811 9.04055 5.93178 9.02414C5.8548 9.0099 5.7788 8.99077 5.70425 8.96686L5.69726 8.96471H5.69511L5.69027 8.96309C5.45145 8.88241 5.28928 8.76273 5.20779 8.60244C5.19989 8.58713 5.1928 8.57143 5.18654 8.55538C5.18331 8.54731 5.18009 8.53897 5.17713 8.53063C5.16712 8.50218 5.15948 8.47294 5.15427 8.44323C5.1341 8.33323 5.17041 8.22162 5.26185 8.10651C5.34081 8.01199 5.43302 7.92938 5.53563 7.86124C5.67242 7.76764 5.81629 7.68482 5.96593 7.61355C6.21591 7.49365 6.47317 7.38954 6.73618 7.30184L6.74129 7.29996C6.71296 7.34191 6.68678 7.38495 6.66276 7.42905C6.65442 7.44411 6.64662 7.45917 6.63882 7.47423C6.63102 7.48929 6.62672 7.49817 6.6208 7.51054C6.61489 7.52291 6.61058 7.53071 6.60628 7.54174C6.58369 7.59176 6.56352 7.64313 6.54577 7.6953C6.54093 7.70929 6.53636 7.7222 6.53179 7.73753C6.52721 7.75286 6.52318 7.76442 6.51914 7.77975C6.51511 7.79508 6.51296 7.80153 6.51027 7.81256C6.51055 7.81475 6.50997 7.81697 6.50866 7.81875C6.50866 7.82224 6.5065 7.82601 6.5057 7.8295C6.50301 7.83919 6.50086 7.84968 6.49871 7.85882C6.49844 7.85997 6.49844 7.86117 6.49871 7.86232V7.86527C6.49655 7.87307 6.49521 7.8806 6.4936 7.8884C6.49198 7.8962 6.48929 7.90723 6.48768 7.9153C6.48607 7.92337 6.48284 7.93843 6.48096 7.95026C6.47504 7.98415 6.4702 8.01803 6.46643 8.05219C6.46643 8.06348 6.46401 8.07478 6.46294 8.08634C6.46186 8.09791 6.46052 8.11673 6.45971 8.13179C6.45568 8.19978 6.45568 8.26794 6.45971 8.33592C6.46132 8.36282 6.46321 8.38971 6.46616 8.4166C6.46589 8.42194 6.46643 8.4273 6.46778 8.43247C6.47047 8.45264 6.47342 8.47147 6.47638 8.49002C6.47625 8.49217 6.47625 8.49433 6.47638 8.49648L6.48042 8.52337C6.48364 8.54363 6.48741 8.5638 6.49171 8.58388C6.49122 8.58583 6.49122 8.58786 6.49171 8.5898C6.4944 8.60083 6.49682 8.61212 6.49924 8.62315C6.50973 8.66699 6.52103 8.70814 6.5334 8.74767C6.53663 8.75816 6.54012 8.76784 6.54335 8.7794L6.5568 8.81706C6.56137 8.8297 6.56594 8.84234 6.57105 8.85498C6.581 8.87999 6.59122 8.905 6.60225 8.92947C6.60682 8.94023 6.61166 8.94964 6.6165 8.96094C6.62134 8.97224 6.62645 8.98111 6.63183 8.9916C6.64555 9.01849 6.66034 9.04754 6.67594 9.0747C6.68481 9.09057 6.69449 9.10617 6.70283 9.1223L6.71278 9.13871H6.70149L6.61892 9.14248H6.73753L6.79696 9.14005L6.77007 9.09272C6.76584 9.08622 6.76198 9.07948 6.7585 9.07255C6.69901 8.97386 6.65067 8.86887 6.61435 8.7595C6.5869 8.67898 6.56621 8.59631 6.55249 8.51235C6.54792 8.48249 6.54335 8.45506 6.54093 8.42521C6.52263 8.27038 6.52725 8.11369 6.55465 7.96021C6.59921 7.7017 6.70621 7.45798 6.86635 7.25021L6.91987 7.18674L6.93573 7.16656L6.92928 7.16845L6.83031 7.20018L6.8139 7.20556H6.81148C6.81046 7.20546 6.80943 7.20557 6.80846 7.2059C6.80748 7.20622 6.80659 7.20675 6.80584 7.20744C6.64447 7.26123 6.49315 7.31583 6.35186 7.37123C6.20466 7.42932 6.06831 7.48885 5.9428 7.54981C5.59479 7.71709 5.34737 7.88894 5.21236 8.06079C5.10909 8.1915 5.06794 8.32409 5.09134 8.45237C5.09667 8.478 5.1034 8.50332 5.11151 8.52821C5.11662 8.54516 5.12253 8.5621 5.12899 8.57851C5.13195 8.58523 5.13464 8.59222 5.13786 8.59868C5.20994 8.76165 5.3506 8.8894 5.55822 8.97977H5.56145L5.56682 8.98219C5.61093 8.97466 5.6545 8.96847 5.69699 8.96363L5.70345 9.02791C5.72362 9.02549 5.74217 9.02549 5.76369 9.02333C5.81738 9.01921 5.87126 9.01831 5.92505 9.02065C6.01902 9.0392 6.11391 9.05267 6.20932 9.06099C6.24967 9.06502 6.29001 9.06798 6.3325 9.0704C6.37499 9.07282 6.41506 9.0747 6.45756 9.07605H6.45971L6.46751 9.07443H6.48257M6.6797 9.08062C6.67915 9.07987 6.6787 9.07906 6.67836 9.0782H6.61785C6.58288 9.0782 6.54604 9.07658 6.51027 9.07632L6.5135 9.07847C6.55088 9.07847 6.58799 9.08062 6.62349 9.08062H6.6797ZM6.48741 9.07739L6.49386 9.07605H6.48741V9.07739ZM6.46724 9.1449L6.50543 9.14651H6.53636C6.50946 9.14651 6.48257 9.1449 6.45756 9.14355H6.4269M6.6719 9.08008H6.61139C6.57643 9.08008 6.53958 9.07847 6.50247 9.0782H6.47558V9.08008H6.50758C6.54496 9.08008 6.58208 9.08223 6.61731 9.08223H6.67486C6.6744 9.08121 6.67413 9.08012 6.67406 9.07901L6.6719 9.08008Z" fill="white"/>
<path d="M9.72381 8.63257L9.73538 8.57206C9.76071 8.4493 9.77217 8.32409 9.76953 8.19877C9.76757 8.12238 9.75993 8.04624 9.74667 7.97098C9.7421 7.94112 9.73538 7.91369 9.7308 7.88626C9.63955 7.47848 9.39397 7.12186 9.04554 6.89118L8.9541 6.82932L9.0641 6.82717C9.37525 6.82205 9.68643 6.83552 9.99598 6.86751C10.3808 6.91323 10.6683 6.99095 10.8566 7.10579C11.0032 7.19266 11.0879 7.30266 11.1086 7.43094C11.1153 7.47489 11.1175 7.5194 11.1153 7.5638C11.1037 7.78541 10.9617 7.9941 10.6939 8.18452L10.6869 8.18882C10.5357 8.29639 10.3391 8.39752 10.1076 8.49353L10.0756 8.50509C10.0113 8.5301 9.9473 8.55538 9.87872 8.57824C9.84672 8.58981 9.81444 8.60137 9.78002 8.61267L9.72381 8.63257ZM9.17006 6.8944C9.35753 7.03709 9.51324 7.21725 9.62726 7.42341C9.70526 7.5633 9.76251 7.71377 9.79723 7.87012C9.80396 7.89998 9.80853 7.93063 9.81525 7.95941C9.8286 8.03819 9.83633 8.11782 9.83838 8.19769C9.84105 8.30889 9.8333 8.42009 9.81525 8.52984L9.85667 8.51612C9.9231 8.49326 9.98952 8.46798 10.0514 8.4427L10.0834 8.4314C10.285 8.35206 10.4771 8.2503 10.656 8.12804L10.6627 8.12347C10.908 7.94704 11.0392 7.7569 11.0475 7.55869C11.0499 7.51956 11.0476 7.4803 11.0408 7.4417C11.0228 7.33412 10.9491 7.24403 10.8214 7.16523C10.6428 7.05765 10.3642 6.98208 9.98764 6.93636C9.71611 6.9071 9.44316 6.89309 9.17006 6.8944Z" fill="white"/>
<path d="M6.67403 9.07901H6.61352C6.57856 9.07901 6.54171 9.0774 6.5046 9.07713L6.5081 9.07928C6.54548 9.07928 6.58259 9.08116 6.61782 9.08116H6.67538C6.67478 9.08055 6.67432 9.07982 6.67403 9.07901ZM6.79613 9.14248L6.76924 9.09515C6.76491 9.08871 6.76105 9.08197 6.75767 9.07498C6.69824 8.97635 6.64989 8.87145 6.61352 8.7622C6.58607 8.68158 6.56538 8.59882 6.55166 8.51477C6.54709 8.48519 6.54252 8.45776 6.5401 8.42791L6.53445 8.37277L6.52827 8.37708L6.48927 8.40236L6.4648 8.41849H6.46345C6.40474 8.45816 6.34982 8.50318 6.2994 8.55296C6.21414 8.63822 6.17273 8.72347 6.17542 8.80469V8.81626C6.17576 8.83569 6.17884 8.85497 6.18456 8.87354C6.18617 8.87973 6.18833 8.88591 6.19021 8.8921C6.20477 8.93356 6.22734 8.97176 6.25664 9.00451C6.27685 9.02756 6.29938 9.04847 6.32387 9.06691L6.3271 9.06906C6.32809 9.06976 6.32899 9.07057 6.32979 9.07148C6.36986 9.0739 6.41182 9.07578 6.45485 9.07713H6.45673L6.45189 9.07471L6.44785 9.07256L6.44328 9.07041L6.43414 9.06368H6.43172L6.41182 9.05185C6.36346 9.0249 6.32116 8.98828 6.28756 8.94427C6.2687 8.91875 6.255 8.88979 6.24722 8.85902C6.24722 8.85337 6.24507 8.84665 6.24427 8.83885C6.24346 8.83105 6.24158 8.8211 6.24023 8.81195C6.23324 8.74768 6.27008 8.67748 6.3435 8.6011C6.3838 8.56029 6.42763 8.52312 6.47448 8.49003V8.51585C6.47486 8.51883 6.4754 8.5218 6.47609 8.52472C6.47932 8.54498 6.48308 8.56515 6.48739 8.58524C6.4869 8.58718 6.4869 8.58921 6.48739 8.59115C6.49008 8.60245 6.4925 8.61374 6.49492 8.6245C6.50541 8.66834 6.5167 8.70949 6.52907 8.74902C6.5323 8.75978 6.5358 8.76919 6.53929 8.78076L6.55247 8.81868C6.55704 8.83132 6.56162 8.84369 6.56673 8.85633C6.57668 8.88134 6.5869 8.90635 6.59792 8.93109C6.60276 8.94158 6.60734 8.951 6.61218 8.96229C6.61702 8.97359 6.62213 8.98246 6.62751 8.99295C6.64122 9.01984 6.65601 9.04916 6.67161 9.07605C6.68049 9.09192 6.69017 9.10779 6.69851 9.12392L6.70846 9.14006H6.69716L6.6146 9.14383H6.7332L6.79264 9.14141L6.79613 9.14248ZM6.67538 9.08197C6.67478 9.08136 6.67432 9.08062 6.67403 9.07982H6.61352C6.57856 9.07982 6.54171 9.0782 6.5046 9.07794L6.5081 9.08009C6.54548 9.08009 6.58259 9.08197 6.61782 9.08197H6.67538ZM6.67403 9.07982H6.61352C6.57856 9.07982 6.54171 9.0782 6.5046 9.07794H6.48927L6.48282 9.07928H6.50756C6.54494 9.07928 6.58205 9.08116 6.61756 9.08116H6.67484C6.67469 9.08045 6.67469 9.07972 6.67484 9.07901L6.67403 9.07982Z" fill="white"/>
<path d="M9.72381 8.63258L9.73537 8.57207C9.76071 8.44931 9.77217 8.3241 9.76953 8.19878C9.76757 8.12239 9.75992 8.04625 9.74667 7.97099C9.7421 7.94114 9.73537 7.9137 9.7308 7.88627L9.71924 7.83221L9.77437 7.84593C9.84831 7.86334 9.92037 7.88793 9.98952 7.91935C10.1132 7.97664 10.1864 8.05006 10.2071 8.1345C10.2095 8.14607 10.2117 8.15763 10.2138 8.17135C10.23 8.2835 10.1888 8.39296 10.088 8.49892L10.0834 8.50322L10.0764 8.50564C10.0124 8.53092 9.94838 8.5562 9.87953 8.57906C9.84752 8.59036 9.81525 8.60192 9.78109 8.61322L9.72381 8.63258ZM9.80853 7.925L9.81525 7.95915C9.8286 8.03793 9.83633 8.11756 9.83838 8.19744C9.84105 8.30863 9.8333 8.41983 9.81525 8.52958L9.85667 8.51586C9.92067 8.493 9.98253 8.46987 10.0449 8.44486C10.1256 8.35557 10.1598 8.26629 10.1482 8.17915C10.1458 8.17 10.1458 8.16086 10.1436 8.1493C10.1275 8.08529 10.0656 8.02854 9.96209 7.97986C9.91244 7.95753 9.86109 7.93919 9.80853 7.925Z" fill="white"/>
<path d="M11.1508 9.274C11.0475 9.23043 10.9238 9.16643 10.7933 9.09973L10.7178 9.061L10.7498 9.00049L10.8253 9.03948C10.9561 9.10591 11.0773 9.17019 11.1782 9.21134L11.1508 9.274Z" fill="white"/>
<path d="M10.1162 8.48841L10.0726 8.43462C10.2419 8.29645 10.4364 8.19234 10.6452 8.12803C10.652 8.1261 10.6586 8.12376 10.6651 8.12103L10.6812 8.18746C10.6767 8.18961 10.6697 8.18961 10.6651 8.19203C10.4649 8.25494 10.2786 8.35553 10.1162 8.48841Z" fill="white"/>
<path d="M13.187 8.27999C12.9852 8.26843 12.7566 8.24099 12.5017 8.20657L12.4815 8.20442C12.2126 8.17241 11.9364 8.13799 11.6639 8.1197L11.6677 8.05139C11.9426 8.06753 12.2196 8.10195 12.4899 8.13638L12.51 8.13853C12.7642 8.17053 12.9909 8.19904 13.1926 8.20953L13.187 8.27999Z" fill="white"/>
<path d="M9.89327 8.56856L9.83948 8.52822C9.9562 8.37707 10.0571 8.25928 10.1531 8.1517C10.4462 7.83354 10.7351 7.63668 11.0624 7.53126L11.0693 7.52883C11.3959 7.42911 11.731 7.36006 12.0703 7.32256C12.4025 7.28248 12.7414 7.2564 13.0654 7.23354L13.0998 7.23112C13.432 7.20718 13.7429 7.18432 14.0411 7.14532L14.0503 7.21417C13.7501 7.2529 13.4366 7.27603 13.1044 7.29889L13.07 7.30104C12.7448 7.32417 12.4081 7.34918 12.0749 7.39033C11.6855 7.43847 11.3603 7.50517 11.0855 7.59419L11.0788 7.59661C10.766 7.69773 10.4879 7.89056 10.2001 8.19984C10.1084 8.30043 10.0103 8.41957 9.89327 8.56856Z" fill="white"/>
<path d="M9.83138 8.21814L9.77356 8.18184C9.83542 8.08556 9.89055 8.00299 9.94299 7.92984C10.2189 7.54687 10.4906 7.28814 10.8066 7.11414L10.8111 7.11199C10.8152 7.11008 10.8191 7.10774 10.8227 7.105C11.0631 6.97214 11.3539 6.85515 11.7067 6.74219H11.7089C12.009 6.64833 12.3089 6.57276 12.6687 6.48347L12.6889 6.4789C12.9847 6.40575 13.2636 6.33771 13.5293 6.25729L13.5495 6.3213C13.284 6.40198 13.0022 6.47245 12.7066 6.54587L12.6865 6.55044C12.328 6.64107 12.0278 6.71557 11.728 6.80943H11.725C11.377 6.91943 11.0906 7.03615 10.8523 7.16685C10.8477 7.16927 10.8456 7.17142 10.8431 7.17142L10.8388 7.17358C10.5341 7.34328 10.266 7.59501 9.99813 7.97072C9.94837 8.04172 9.89324 8.12428 9.83138 8.21814Z" fill="white"/>
<path d="M9.62731 7.45569L9.56787 7.42127C9.66912 7.23894 9.79133 7.06907 9.93202 6.91512C9.94358 6.90356 9.95488 6.88984 9.96644 6.87855C10.1406 6.70544 10.3343 6.55318 10.5436 6.42484L10.5503 6.42054C10.759 6.28741 10.9833 6.16854 11.2122 6.04725L11.2466 6.02869C11.4322 5.93026 11.6094 5.83855 11.7705 5.74469L11.8057 5.80493C11.6409 5.90094 11.4644 5.99319 11.2789 6.09109L11.2447 6.10964C11.0132 6.2304 10.7889 6.34981 10.5799 6.48293L10.5729 6.48724C10.3693 6.61065 10.1813 6.7581 10.013 6.92642L9.97881 6.96057C9.84553 7.11356 9.72778 7.27942 9.62731 7.45569Z" fill="white"/>
<path d="M8.74589 6.69727L8.68188 6.67199C8.70717 6.61014 8.73702 6.54828 8.77332 6.47056C8.83518 6.34469 8.90403 6.21856 8.96831 6.10184L8.9909 6.06284C9.04845 5.95769 9.11004 5.84984 9.16275 5.74442L9.2238 5.77454C9.17001 5.87996 9.10896 5.98969 9.05195 6.09538L9.02909 6.13438C8.96481 6.2511 8.89623 6.37481 8.83437 6.50095C8.79834 6.57598 8.76875 6.63784 8.74589 6.69727Z" fill="white"/>
<path d="M7.07372 6.98128C7.028 6.9275 6.97771 6.87828 6.92258 6.82315C6.82872 6.72929 6.73028 6.64188 6.62029 6.54399L6.59017 6.51709C6.49388 6.43049 6.40191 6.35008 6.31531 6.26536L6.36399 6.21857C6.4487 6.30113 6.54014 6.38343 6.63642 6.46814L6.66628 6.49342C6.77627 6.59186 6.8747 6.68168 6.97099 6.77527C7.02477 6.82906 7.07614 6.88285 7.12428 6.93664L7.07372 6.98128Z" fill="white"/>
<path d="M10.6856 8.18613C10.5034 8.30929 10.3083 8.41219 10.1038 8.49299L10.0718 8.50456C10.0078 8.52957 9.94355 8.55485 9.8747 8.57771L9.79994 8.6046L9.77654 8.61267L9.71925 8.63096L9.73055 8.57152C9.73171 8.56655 9.7326 8.56152 9.73324 8.55646C9.66278 8.57986 9.5864 8.60326 9.50383 8.62881C9.35726 8.67211 9.19912 8.71325 9.02512 8.75467C8.85111 8.79609 8.67011 8.83535 8.48239 8.86897C8.39759 8.88511 8.32202 8.89855 8.25568 8.90931C8.19167 8.91846 8.11368 8.93244 8.02654 8.94589C7.82967 8.97816 7.65325 9.00317 7.48624 9.02146C7.30739 9.04163 7.13796 9.0583 6.97767 9.06745C6.90452 9.07148 6.82948 9.07363 6.75767 9.07552H6.74961C6.75283 9.08143 6.75633 9.08681 6.75983 9.09219L6.79129 9.14195H6.79586C6.83863 9.14195 6.88112 9.13899 6.92307 9.1371L6.98681 9.13361C7.14818 9.12446 7.31896 9.10833 7.4978 9.08789C7.66508 9.0696 7.84124 9.04432 8.04052 9.01205C8.07737 9.00748 8.1126 9.0021 8.14622 8.99672L8.20404 8.98704L8.22421 8.98327L8.26912 8.97574C8.33555 8.96418 8.41328 8.95046 8.49799 8.93432C8.68147 8.90094 8.86405 8.86282 9.04556 8.82002C9.12301 8.80209 9.19733 8.78345 9.26851 8.76408H9.27254C9.36156 8.74042 9.44655 8.71621 9.52884 8.69228C9.61786 8.66726 9.7007 8.63983 9.77842 8.61455C9.78514 8.61213 9.79214 8.60998 9.79859 8.60729C9.82549 8.59842 9.85103 8.58927 9.87658 8.5804C9.94543 8.55754 10.0094 8.53226 10.0734 8.50698L10.1057 8.49568C10.3102 8.41477 10.5052 8.31188 10.6874 8.18882C10.9152 8.12481 11.2022 8.10195 11.5666 8.11755L11.5693 8.11567C11.2043 8.09899 10.9147 8.12212 10.6856 8.18613ZM6.46507 9.07363L6.45028 9.07605C6.40805 9.07605 6.36717 9.07283 6.3271 9.07014C6.28084 9.06772 6.23647 9.06449 6.19263 9.05992C6.10495 9.05212 6.01809 9.03975 5.93176 9.02334C5.85477 9.00911 5.77878 8.98997 5.70423 8.96606L5.69724 8.96391H5.69025C5.64749 8.96875 5.60419 8.9744 5.55954 8.98219C5.32422 9.02146 5.06496 9.10026 4.75837 9.22935L4.68333 9.26136L4.67822 9.26378L4.68333 9.26593L4.75729 9.29282C5.13542 9.43375 5.67169 9.5034 6.35131 9.49426H6.36421C6.56215 9.49157 6.77543 9.48269 6.99515 9.46736L7.03415 9.46521C7.04759 9.46306 7.06373 9.46306 7.07987 9.46064L7.09815 9.45822C7.18986 9.4515 7.27942 9.4445 7.3671 9.43536C7.42088 9.43106 7.47037 9.42406 7.51824 9.41949L7.61667 9.40793C7.66024 9.40336 7.70381 9.39636 7.74523 9.39179L7.75652 9.38964C7.89386 9.3735 8.02672 9.35513 8.15509 9.33451C8.22367 9.32563 8.28123 9.31622 8.3291 9.30761C8.37697 9.29901 8.43667 9.28906 8.49396 9.27534C8.62843 9.25033 8.7629 9.22155 8.89495 9.19278C8.94067 9.1839 8.98639 9.17449 9.03453 9.16319L9.12839 9.14033C9.17196 9.12877 9.21553 9.12016 9.26125 9.10833C9.34381 9.08977 9.42853 9.06691 9.5154 9.04405L9.56918 9.03034C9.58935 9.02576 9.60818 9.01904 9.62862 9.0142L9.63588 9.01178C9.84324 8.95315 10.0439 8.89237 10.2316 8.82944L10.2402 8.82648H10.2426C10.8848 8.60864 11.3684 8.36928 11.6828 8.11083L11.7446 8.06L11.749 8.05596L11.6618 8.05139C11.2361 8.0245 10.9177 8.04682 10.6632 8.12024L10.6565 8.12239L10.6498 8.12696C10.4709 8.24905 10.2787 8.35046 10.0769 8.42925L10.0449 8.44082C9.98309 8.46583 9.91693 8.49111 9.8505 8.51397L9.81957 8.52499L9.75529 8.54759L9.73727 8.55404C9.66681 8.57744 9.59043 8.60084 9.50787 8.62639C9.36129 8.66968 9.20316 8.71083 9.02915 8.75225C8.85515 8.79367 8.67415 8.83293 8.48643 8.86655C8.40162 8.88269 8.32605 8.89613 8.25971 8.90689C8.1957 8.91603 8.11771 8.93002 8.03057 8.94347C7.83371 8.97574 7.65728 9.00075 7.49027 9.01904C7.31142 9.03921 7.14199 9.05588 6.9817 9.06503C6.90855 9.06906 6.83352 9.07121 6.76171 9.0731H6.73481C6.71626 9.0731 6.69797 9.07471 6.68103 9.07525H6.61944C6.58448 9.07525 6.5479 9.07363 6.51186 9.0731H6.48497V9.07794H6.50756C6.54467 9.07794 6.58179 9.08009 6.61729 9.08009H6.67457L6.67323 9.07767H6.67457C6.68345 9.0938 6.69313 9.1094 6.70147 9.12554L6.71142 9.14195H6.79506C6.83782 9.1406 6.88031 9.13872 6.92227 9.13684L6.98601 9.13334C7.14737 9.1242 7.31788 9.10833 7.49699 9.08762C7.66401 9.06933 7.84124 9.04513 8.04052 9.01285C8.07737 9.00828 8.1126 9.0029 8.14595 8.99752L8.20377 8.98784L8.22394 8.98408L8.26886 8.97655C8.33555 8.96498 8.41328 8.95127 8.49799 8.93513C8.68149 8.90185 8.86407 8.86373 9.04556 8.82083C9.12301 8.8029 9.19733 8.78425 9.26851 8.76489H9.27227C9.36156 8.74149 9.44655 8.71729 9.52857 8.69335C9.61786 8.66807 9.70043 8.63956 9.77842 8.61536C9.78514 8.61294 9.79187 8.61079 9.79832 8.6081C9.82522 8.59922 9.85211 8.59035 9.87658 8.5812C9.94543 8.55834 10.0094 8.53306 10.0734 8.50778L10.1057 8.49649C10.3102 8.41562 10.5053 8.31273 10.6874 8.18963C10.9152 8.12562 11.2022 8.10276 11.5666 8.11836H11.5715C11.2646 8.34964 10.8133 8.56507 10.2267 8.76381H10.2246L10.134 8.7942C9.97071 8.84799 9.79967 8.89882 9.62297 8.94723L9.61598 8.94938C9.59581 8.95422 9.57725 8.96095 9.55547 8.96552L9.49146 8.98166C9.40916 9.00452 9.3266 9.02496 9.24941 9.04351C9.20369 9.05481 9.16039 9.06368 9.11683 9.07552L9.02297 9.09838C8.97482 9.10752 8.92884 9.11855 8.88312 9.12823C8.75026 9.15512 8.6174 9.18336 8.48455 9.20891C8.42027 9.22021 8.36379 9.22908 8.31269 9.2385C8.26159 9.24791 8.20754 9.25678 8.14111 9.26539C8.01363 9.28448 7.87916 9.30492 7.74469 9.32106L7.73339 9.32321C7.69305 9.3302 7.64868 9.33478 7.60511 9.33935L7.50668 9.35064C7.45854 9.35764 7.40824 9.36221 7.35768 9.36678C7.27081 9.37377 7.18153 9.38292 7.09197 9.38964L7.0761 9.39206C7.05996 9.39421 7.04625 9.39421 7.03038 9.39663L6.99112 9.39878C6.79264 9.41304 6.60088 9.42191 6.41962 9.42568L6.34996 9.42702H6.33409C5.7236 9.43294 5.23143 9.37834 4.87105 9.26136H4.86594C5.18195 9.13415 5.44175 9.06288 5.6881 9.03544H5.68568C5.6438 9.0225 5.60268 9.00723 5.5625 8.98972C5.60688 8.98219 5.65018 8.97601 5.69267 8.97117L5.69912 9.03544C5.71929 9.03302 5.73785 9.03302 5.75963 9.03087C5.81332 9.02674 5.86721 9.02584 5.921 9.02818C6.01496 9.04672 6.10986 9.06019 6.20527 9.06852C6.24561 9.07229 6.28595 9.07552 6.32844 9.07794C6.37094 9.08036 6.41101 9.08224 6.4535 9.08359H6.45377L6.46157 9.08197H6.4769" fill="white"/>
<path d="M6.49217 7.98227C6.33925 7.84945 6.1717 7.7345 5.99274 7.63964L5.93896 7.61275C5.72001 7.51075 5.49021 7.43388 5.25396 7.38361C5.02025 7.32982 4.77525 7.2919 4.5254 7.25317L4.48533 7.24618C4.27529 7.21364 4.07869 7.18378 3.88855 7.14721L3.90253 7.08078C4.09241 7.11736 4.28954 7.14721 4.4942 7.17921L4.53455 7.1862C4.78654 7.2252 5.03155 7.26151 5.26768 7.31664C5.5088 7.36803 5.74336 7.44642 5.96693 7.55035L6.02206 7.57725C6.20643 7.6742 6.37868 7.79264 6.5352 7.9301L6.49217 7.98227Z" fill="white"/>
<path d="M6.5562 8.7969C6.46449 8.7259 6.38005 8.66243 6.29748 8.6046C5.92419 8.34319 5.59313 8.18774 5.25076 8.1189L5.2279 8.11432C4.96595 8.06403 4.66313 8.04574 4.29333 8.06054H4.29118C3.95904 8.07183 3.61318 8.10626 3.30847 8.13611H3.30148C2.98574 8.16704 2.68856 8.19689 2.41075 8.20872L2.40833 8.14014C2.68318 8.12885 2.98117 8.0998 3.29583 8.06699H3.30255C3.60646 8.0366 3.95258 8.00217 4.28661 7.99088H4.28903C4.66232 7.97689 4.97429 7.99518 5.23947 8.04816L5.2626 8.05247C5.61222 8.12374 5.95431 8.2816 6.33433 8.54947C6.41689 8.60998 6.50376 8.67049 6.59628 8.74418L6.5562 8.7969Z" fill="white"/>
<path d="M6.63875 9.08144H6.61858C6.58308 9.08144 6.54596 9.07982 6.50858 9.07956L6.50535 9.07714C6.42655 9.02738 6.35475 8.98489 6.28671 8.94697C6.25631 8.93002 6.22619 8.91362 6.19742 8.89829L6.18935 8.89426C5.83569 8.706 5.52291 8.61402 5.20637 8.60219H5.13322C4.86428 8.60219 4.55365 8.64145 4.18628 8.71891L4.15185 8.7259L4.12496 8.73208C3.81514 8.79824 3.50316 8.88484 3.2232 8.96284L3.18555 8.97306L3.15193 8.98193C2.82651 9.07364 2.51965 9.15836 2.23323 9.21779L2.2179 9.15002C2.49975 9.09058 2.8058 9.00667 3.12719 8.9155L3.13176 8.91416L3.16591 8.90501L3.19765 8.89614C3.47842 8.81841 3.79389 8.73182 4.10425 8.66216L4.13464 8.65517L4.1661 8.64871C4.52998 8.57072 4.83846 8.53145 5.1074 8.52957H5.1749C5.50059 8.53656 5.82036 8.62451 6.17321 8.80604L6.227 8.83294L6.24233 8.84127C6.35851 8.9034 6.48572 8.98032 6.63579 9.07794L6.63875 9.08144Z" fill="white"/>
<path d="M6.4718 9.07633H6.46292L6.45539 9.07794H6.45378C6.41129 9.0766 6.3696 9.07471 6.32845 9.07229C6.2873 9.06987 6.24535 9.06665 6.20555 9.06288L6.19183 9.05965C6.18579 9.05805 6.17969 9.05671 6.17354 9.05562C6.09921 9.03899 6.02366 9.02838 5.94763 9.02388H5.92181C5.86802 9.02154 5.81413 9.02244 5.76045 9.02657C5.74028 9.02873 5.72172 9.02873 5.69994 9.03115L5.69348 8.96687V8.96176C5.71401 8.95926 5.73466 8.95783 5.75534 8.95746C5.92372 8.94587 6.09285 8.96232 6.25584 9.00613C6.30676 9.01958 6.35848 9.03527 6.41102 9.0532L6.43092 9.06046H6.43576L6.44248 9.06503L6.46131 9.07229L6.46588 9.07391C6.46786 9.07473 6.46994 9.07527 6.47207 9.07552L6.4718 9.07633Z" fill="white"/>
<path d="M3.40262 9.93829L3.37708 9.87616C3.57421 9.7936 3.78049 9.69274 3.99806 9.58517L4.0142 9.57817C4.25624 9.4593 4.50636 9.33613 4.75836 9.23016L4.78364 9.29202C4.53406 9.39745 4.28421 9.51874 4.04378 9.63788L4.02791 9.64702C3.80792 9.75487 3.60299 9.85572 3.40262 9.93829Z" fill="white"/>
<path d="M8.38345 9.6403C8.35144 9.64514 8.31702 9.65187 8.28044 9.65644C8.21159 9.66773 8.13387 9.6793 8.04888 9.69301L8.02871 9.69543L7.92329 9.70915C7.88671 9.71372 7.84798 9.72072 7.80684 9.72502H7.7985C7.73691 9.73443 7.67048 9.74115 7.60379 9.75191H7.59706L7.51235 9.76079C6.99942 9.82186 6.48374 9.85704 5.96728 9.86621L5.8866 9.86836L5.94038 9.80812C6.06292 9.67563 6.19209 9.54942 6.32739 9.42999L6.33653 9.42085H6.34783C6.57455 9.41843 6.81982 9.40713 7.07397 9.38642L7.09253 9.38427C7.18397 9.37755 7.27379 9.36813 7.35824 9.36141C7.41203 9.35657 7.46367 9.34985 7.51396 9.34527L7.60567 9.33398C7.64924 9.32914 7.69012 9.32456 7.72911 9.31784L7.7431 9.31569C7.88053 9.29955 8.01204 9.27884 8.13925 9.26056C8.20577 9.25141 8.26305 9.24245 8.3111 9.23366C8.36139 9.22452 8.41868 9.21537 8.48268 9.20381C8.61554 9.1788 8.7484 9.15002 8.88126 9.12313C8.92698 9.11371 8.97296 9.10296 9.02084 9.09328L9.12411 9.06799C9.16526 9.05885 9.20641 9.04971 9.24782 9.03814C9.32555 9.01985 9.40569 8.99942 9.48799 8.97629L9.55226 8.96042C9.78597 8.89641 10.0095 8.82971 10.2187 8.75898L10.2327 8.75656L10.2416 8.75898C10.4127 8.82909 10.5802 8.90772 10.7434 8.99457L10.8166 9.03142L10.7396 9.05831C10.2448 9.22 9.74212 9.35679 9.23357 9.46818L9.09641 9.49803C9.04585 9.5096 8.99771 9.5182 8.95199 9.52788L8.90842 9.53703L8.83527 9.55074C8.80999 9.55532 8.78148 9.56204 8.75727 9.56688L8.71397 9.57576C8.62899 9.59189 8.55261 9.60561 8.48242 9.61932C8.45022 9.62965 8.41706 9.63668 8.38345 9.6403ZM7.59088 9.68629H7.60002C7.6643 9.6793 7.72831 9.67015 7.79016 9.66101H7.7985C7.83723 9.65644 7.87649 9.64945 7.9128 9.64514C7.94911 9.64084 7.98622 9.63573 8.01822 9.63116L8.03651 9.62901C8.1215 9.61538 8.19788 9.6039 8.26565 9.59458C8.29966 9.58731 8.33405 9.58192 8.36865 9.57845C8.40093 9.57387 8.43508 9.56715 8.46951 9.56016C8.53809 9.54886 8.61581 9.53326 8.7008 9.51659L8.7441 9.50771C8.76938 9.50314 8.79466 9.4983 8.82209 9.49158L8.89309 9.47786L8.93666 9.46845C8.98238 9.45957 9.03052 9.44828 9.08081 9.43886L9.21528 9.40901C9.72627 9.29444 10.205 9.16697 10.6377 9.02631C10.5049 8.95746 10.3653 8.89184 10.2278 8.83617C10.0218 8.90502 9.79942 8.9736 9.56813 9.03545L9.51434 9.04917C9.42721 9.0723 9.34276 9.09516 9.26019 9.11345C9.21905 9.12259 9.17763 9.13335 9.13648 9.14303L9.03106 9.16831C8.98291 9.17987 8.9372 9.18848 8.89148 9.19816C8.75862 9.22801 8.62253 9.25545 8.49048 9.28046C8.42648 9.29202 8.36973 9.30359 8.3189 9.31031C8.26807 9.31703 8.21347 9.3286 8.14489 9.33721C8.01634 9.358 7.88348 9.37638 7.74632 9.39234L7.73261 9.39476C7.69119 9.39906 7.65004 9.40363 7.60647 9.41063L7.51503 9.42219C7.46447 9.42676 7.41176 9.43349 7.3569 9.43833C7.27003 9.4472 7.18047 9.45419 7.08796 9.46092L7.06967 9.46334C6.8174 9.48163 6.57724 9.49292 6.35267 9.49776C6.2451 9.59162 6.13752 9.6992 6.03667 9.80462C6.48768 9.79548 6.97796 9.75864 7.49325 9.6992L7.58953 9.68548L7.59088 9.68629Z" fill="white"/>
<path d="M5.65155 10.2061L5.60583 10.1556C5.6884 10.0824 5.78441 9.97943 5.88526 9.87185L5.94255 9.81L5.99284 9.85814L5.93583 9.91838C5.83255 10.0276 5.73654 10.1303 5.65155 10.2061Z" fill="white"/>
<path d="M9.79995 8.54404L10.2503 8.76478L10.2202 8.82637L9.76978 8.60562L9.79995 8.54404Z" fill="white"/>
<path d="M6.70496 9.14383L6.70254 9.14625C6.67995 9.16803 6.52638 9.31783 6.42042 9.4238L6.41719 9.42729L6.38035 9.46414L6.33032 9.42944L6.33489 9.42514L6.33947 9.4203C6.33947 9.4203 6.56457 9.17825 6.61863 9.14786L6.70146 9.14383H6.70496Z" fill="white"/>
<path d="M6.73261 9.14329H6.70141L6.61858 9.14706H6.5344C6.50751 9.14706 6.48061 9.14545 6.45587 9.14437H6.36712C6.36336 9.14464 6.35959 9.14464 6.35582 9.14437H6.33754C6.18865 9.13669 6.04046 9.11872 5.89405 9.09058C5.86716 9.0852 5.84188 9.07929 5.81633 9.07337L5.78486 9.05992C5.75447 9.05185 5.72462 9.04325 5.69665 9.03303L5.68993 9.03142H5.68751C5.64559 9.01859 5.60446 9.00332 5.56433 8.9857C5.60871 8.97816 5.65201 8.97198 5.6945 8.96741L5.70095 9.03142C5.72112 9.02926 5.73968 9.02926 5.76146 9.02711C5.81514 9.02284 5.86904 9.02194 5.92283 9.02442C6.01684 9.0427 6.11172 9.05616 6.2071 9.06476C6.24744 9.06853 6.28778 9.07149 6.33028 9.07418C6.37277 9.07687 6.41284 9.07848 6.45533 9.07982H6.45748L6.46528 9.07821H6.48061V9.0809H6.51047C6.54758 9.0809 6.58469 9.08305 6.62019 9.08305H6.67748L6.67613 9.08063H6.67748C6.68635 9.09677 6.69604 9.11237 6.70437 9.1285L6.71432 9.14491L6.73261 9.14329Z" fill="white"/>
<path d="M9.82335 8.47766C9.82093 8.4938 9.81851 8.51021 9.81555 8.52634C9.81206 8.54651 9.80775 8.56776 9.80318 8.58847L9.79995 8.60299V8.60756L9.78167 8.61375C9.69211 8.6436 9.60443 8.66996 9.53074 8.69228C9.45006 8.71595 9.36535 8.73934 9.27391 8.76274H9.26987C9.19995 8.78103 9.12599 8.79905 9.04826 8.81653C8.85167 8.86386 8.66933 8.8999 8.50178 8.93137C8.43104 8.94482 8.35789 8.95826 8.2721 8.97279L8.22584 8.98112L8.20567 8.98462L8.14785 8.9943C8.11504 8.99941 8.07927 9.00452 8.04216 9.00963C7.84852 9.0411 7.67021 9.06584 7.49836 9.0852C7.32193 9.10537 7.14873 9.12043 6.98575 9.13119L6.92551 9.13469C6.88356 9.13684 6.84106 9.13845 6.7983 9.1398H6.71359L6.70337 9.12339C6.69395 9.10726 6.68454 9.09166 6.67647 9.07579C6.6606 9.0489 6.64581 9.02039 6.6321 8.99269C6.62672 8.98247 6.62188 8.97252 6.61704 8.96203C6.6122 8.95154 6.60735 8.94186 6.60251 8.93056C6.59095 8.90555 6.58073 8.88081 6.57132 8.85606C6.56648 8.84342 6.56163 8.83078 6.55706 8.81814C6.55249 8.8055 6.54792 8.79125 6.54335 8.7778L6.53366 8.74929C6.52156 8.70895 6.51 8.66861 6.49978 8.62478C6.49709 8.61402 6.49467 8.60272 6.49198 8.59143C6.49252 8.58949 6.49252 8.58745 6.49198 8.58551C6.48956 8.57395 6.48714 8.56265 6.48472 8.55055C6.4823 8.53845 6.48095 8.53145 6.47934 8.5215L6.4745 8.49138L6.46535 8.43087C6.46535 8.42657 6.46535 8.42226 6.46401 8.41796C6.4465 8.26053 6.45166 8.1014 6.47934 7.94543C6.51949 7.71405 6.60782 7.49368 6.7386 7.29863C6.75877 7.26716 6.78136 7.23677 6.80422 7.20665C6.88373 7.10425 6.97388 7.01058 7.07316 6.92722C7.25971 6.77513 7.47627 6.66414 7.70867 6.60153C7.74444 6.59185 7.78048 6.58351 7.81624 6.57652L7.89962 6.56227C8.19015 6.51982 8.48673 6.55399 8.75999 6.6614C9.03325 6.76881 9.27372 6.94573 9.45759 7.17464C9.46727 7.18648 9.47749 7.19858 9.4861 7.21068C9.49471 7.22279 9.50358 7.23381 9.51299 7.24511C9.52241 7.2564 9.53316 7.272 9.54204 7.28545C9.57055 7.3274 9.59744 7.37052 9.62272 7.41481C9.7001 7.55437 9.7575 7.70411 9.79323 7.85964C9.79753 7.87362 9.80184 7.88653 9.80506 7.90105C9.8099 7.91961 9.81394 7.93817 9.8169 7.95699V7.96049C9.82012 7.98066 9.82335 8.00083 9.82577 8.021C9.82819 8.03579 9.82981 8.05086 9.83142 8.06592C9.83303 8.08098 9.83384 8.09577 9.83519 8.11083C9.83653 8.12589 9.83707 8.13987 9.83787 8.1552C9.83868 8.17053 9.83922 8.1821 9.83976 8.19528V8.19877C9.84271 8.29204 9.83722 8.38539 9.82335 8.47766Z" fill="white"/>
</g>
<defs>
<clipPath id="clip0_1750_6206">
<rect width="16" height="16" rx="4" fill="white"/>
</clipPath>
</defs>
</svg>
