<?xml version="1.0" encoding="UTF-8" standalone="no"?>
<svg
   width="16"
   height="16"
   viewBox="0 0 16 16"
   fill="none"
   version="1.1"
   id="svg3"
   sodipodi:docname="Islamic Coin (ISLM).svg"
   inkscape:version="1.3.2 (091e20e, 2023-11-25, custom)"
   xmlns:inkscape="http://www.inkscape.org/namespaces/inkscape"
   xmlns:sodipodi="http://sodipodi.sourceforge.net/DTD/sodipodi-0.dtd"
   xmlns="http://www.w3.org/2000/svg"
   xmlns:svg="http://www.w3.org/2000/svg">
  <sodipodi:namedview
     id="namedview3"
     pagecolor="#ffffff"
     bordercolor="#000000"
     borderopacity="0.25"
     inkscape:showpageshadow="2"
     inkscape:pageopacity="0.0"
     inkscape:pagecheckerboard="0"
     inkscape:deskcolor="#d1d1d1"
     inkscape:zoom="51.3125"
     inkscape:cx="8.4969549"
     inkscape:cy="8"
     inkscape:window-width="1920"
     inkscape:window-height="1017"
     inkscape:window-x="1912"
     inkscape:window-y="-8"
     inkscape:window-maximized="1"
     inkscape:current-layer="svg3" />
  <g
     clip-path="url(#clip0_2825_386977)"
     id="g1"
     transform="translate(-0.51887942)">
    <rect
       x="0.53320301"
       width="16"
       height="16"
       fill="url(#paint0_linear_2825_386977)"
       id="rect1"
       y="0"
       style="fill:url(#paint0_linear_2825_386977)" />
    <path
       fill-rule="evenodd"
       clip-rule="evenodd"
       d="m 8.5332,2.25 c 1.5878,0 3.0253,0.64367 4.0659,1.68426 1.0281,1.02818 1.6687,2.44424 1.6839,4.00955 V 7.947 l 10e-5,0.02131 1e-4,0.03169 -5e-4,0.053 V 8.0565 C 14.2678,9.62181 13.6272,11.0376 12.5989,12.0659 11.5585,13.1064 10.1211,13.75 8.5332,13.75 6.94539,13.75 5.50787,13.1064 4.46735,12.0658 3.42684,11.0251 2.7832,9.5875 2.7832,7.99969 2.7832,6.41188 3.42684,4.9744 4.46735,3.93396 5.50787,2.89338 6.94539,2.25 8.5332,2.25 Z m 3.3049,3.30475 c 0.2179,0 0.4294,0.02875 0.6308,0.08215 C 11.876,5.06137 11.0672,4.70708 10.1756,4.70708 9.26627,4.70708 8.44302,5.07554 7.84727,5.67149 7.25139,6.26731 6.88283,7.09075 6.88283,8 c 0,0.90925 0.36856,1.73269 0.96444,2.3284 0.59587,0.5959 1.41918,0.9644 2.32833,0.9644 0.8916,0 1.7005,-0.3545 2.2933,-0.9299 -0.2012,0.0536 -0.4126,0.0822 -0.6306,0.0822 -0.675,0 -1.2865,-0.2737 -1.7288,-0.71616 C 9.66702,9.28644 9.39333,8.67506 9.39333,7.99988 c 0,-0.67519 0.27369,-1.28663 0.71617,-1.72907 0.442,-0.44216 1.0532,-0.71606 1.7286,-0.71606 z m 1.1527,1.29244 C 12.6957,6.55231 12.2883,6.36975 11.8379,6.36975 c -0.4502,0 -0.8578,0.18256 -1.1529,0.47744 -0.295,0.29506 -0.4774,0.70262 -0.4774,1.15293 0,0.45032 0.1827,0.85794 0.4774,1.153 0.2951,0.29488 0.7026,0.47744 1.1529,0.47744 0.4504,0 0.8578,-0.18256 1.1529,-0.47744 0.2948,-0.29506 0.4774,-0.70268 0.4774,-1.153 L 13.468,7.97913 C 13.4626,7.53713 13.2811,7.13756 12.9908,6.84719 Z m -2.8155,-2.9551 c 0.5122,0 1.0022,0.09368 1.4545,0.265 C 10.783,3.47401 9.70577,3.06499 8.53308,3.06499 7.17045,3.06499 5.93647,3.61745 5.04328,4.51036 4.15038,5.40328 3.59795,6.63719 3.59795,8 c 0,1.36294 0.55229,2.5968 1.44533,3.4897 0.89305,0.893 2.12686,1.4454 3.4898,1.4454 1.17281,0 2.24972,-0.409 3.09672,-1.0922 -0.4523,0.1713 -0.9423,0.265 -1.4545,0.265 -1.13416,0 -2.16135,-0.4598 -2.90453,-1.2032 C 6.52753,10.1614 6.06764,9.13444 6.06764,8.00012 6.06764,6.86587 6.52753,5.83871 7.27077,5.09538 8.01395,4.35189 9.04114,3.89209 10.1753,3.89209 Z"
       fill="#ffffff"
       id="path1" />
  </g>
  <defs
     id="defs3">
    <linearGradient
       id="paint0_linear_2825_386977"
       x1="0.40786201"
       y1="15.7112"
       x2="16.1465"
       y2="0.77473098"
       gradientUnits="userSpaceOnUse">
      <stop
         stop-color="#04BF77"
         id="stop1" />
      <stop
         offset="0.612453"
         stop-color="#04D082"
         id="stop2" />
      <stop
         offset="1"
         stop-color="#04D484"
         id="stop3" />
    </linearGradient>
    <clipPath
       id="clip0_2825_386977">
      <path
         d="m 0.533203,8 c 0,-3.77124 0,-5.65685 1.171577,-6.82843 C 2.87635,0 4.76197,0 8.5332,0 c 3.7712,0 5.6569,0 6.8284,1.17157 1.1716,1.17158 1.1716,3.05719 1.1716,6.82843 0,3.7712 0,5.6569 -1.1716,6.8284 C 14.1901,16 12.3044,16 8.5332,16 4.76197,16 2.87635,16 1.70478,14.8284 0.533203,13.6569 0.533203,11.7712 0.533203,8 Z"
         fill="#ffffff"
         id="path3" />
    </clipPath>
  </defs>
</svg>
