<?xml version="1.0" encoding="UTF-8" standalone="no"?>
<svg
   width="16"
   height="16"
   viewBox="0 0 16 16"
   fill="none"
   version="1.1"
   id="svg2"
   sodipodi:docname="humans_ai.svg"
   inkscape:version="1.3.2 (091e20ef0f, 2023-11-25)"
   xmlns:inkscape="http://www.inkscape.org/namespaces/inkscape"
   xmlns:sodipodi="http://sodipodi.sourceforge.net/DTD/sodipodi-0.dtd"
   xmlns="http://www.w3.org/2000/svg"
   xmlns:svg="http://www.w3.org/2000/svg">
  <sodipodi:namedview
     id="namedview2"
     pagecolor="#ffffff"
     bordercolor="#000000"
     borderopacity="0.25"
     inkscape:showpageshadow="2"
     inkscape:pageopacity="0.0"
     inkscape:pagecheckerboard="0"
     inkscape:deskcolor="#d1d1d1"
     inkscape:zoom="50.8125"
     inkscape:cx="8.4920049"
     inkscape:cy="6.4255843"
     inkscape:window-width="1920"
     inkscape:window-height="1011"
     inkscape:window-x="0"
     inkscape:window-y="32"
     inkscape:window-maximized="1"
     inkscape:current-layer="g1" />
  <g
     clip-path="url(#clip0_1775_6081)"
     id="g1"
     transform="translate(-4.4263781e-4,0.02907045)">
    <rect
       x="0.020875463"
       width="16"
       height="16"
       rx="4"
       fill="#ffffff"
       fill-opacity="0.08"
       id="rect1"
       y="-0.025722753" />
    <path
       fill-rule="evenodd"
       clip-rule="evenodd"
       d="m 6.3348105,2.9742773 v 3.99905 c 0.63417,-0.83192 1.4124699,-1.08004 2.2195899,-1.08004 2.0178096,0 2.9114096,1.38653 2.9114096,3.50281 l -0.0016,2.6961797 c -0.5868,0.0634 -1.1728,0.1298 -1.7579996,0.199 l 0.0012,-2.8805897 c 0,-1.31355 -0.67738,-1.86816 -1.61422,-1.86816 -1.0377299,0 -1.7583799,0.8903 -1.7583799,1.97033 l -0.00167,3.2103197 c -0.58665,0.0808 -1.17239,0.1645 -1.7572,0.2511 l 5e-4,-9.9999997 z"
       fill="#ffffff"
       id="path1" />
  </g>
  <defs
     id="defs2">
    <clipPath
       id="clip0_1775_6081">
      <rect
         x="0.46667501"
         width="16"
         height="16"
         rx="4"
         fill="#ffffff"
         id="rect2"
         y="0" />
    </clipPath>
  </defs>
</svg>
