<svg width="17" height="16" viewBox="0 0 17 16" fill="none" xmlns="http://www.w3.org/2000/svg">
<g clip-path="url(#clip0_1750_6254)">
<rect x="0.466675" width="16" height="16" rx="4" fill="white" fill-opacity="0.16"/>
<g filter="url(#filter0_f_1750_6254)">
<mask id="mask0_1750_6254" style="mask-type:alpha" maskUnits="userSpaceOnUse" x="3" y="3" width="11" height="11">
<path d="M8.46671 13.47C11.3579 13.47 13.7017 11.1262 13.7017 8.23502C13.7017 5.3438 11.3579 3 8.46671 3C5.57549 3 3.23169 5.3438 3.23169 8.23502C3.23169 11.1262 5.57549 13.47 8.46671 13.47Z" fill="#C4C4C4"/>
</mask>
<g mask="url(#mask0_1750_6254)">
<g filter="url(#filter1_f_1750_6254)">
<path d="M4.46097 17.2481C7.35219 17.2481 9.69599 14.9043 9.69599 12.0131C9.69599 9.12187 7.35219 6.77808 4.46097 6.77808C1.56975 6.77808 -0.774048 9.12187 -0.774048 12.0131C-0.774048 14.9043 1.56975 17.2481 4.46097 17.2481Z" fill="#F868EC"/>
</g>
<g filter="url(#filter2_f_1750_6254)">
<path d="M4.09024 16.9305C6.98146 16.9305 9.32526 14.5867 9.32526 11.6955C9.32526 8.80425 6.98146 6.46045 4.09024 6.46045C1.19902 6.46045 -1.14478 8.80425 -1.14478 11.6955C-1.14478 14.5867 1.19902 16.9305 4.09024 16.9305Z" fill="#F868EC"/>
</g>
<g filter="url(#filter3_f_1750_6254)">
<path d="M14.048 18.0996C16.9392 18.0996 19.283 15.7558 19.283 12.8646C19.283 9.9734 16.9392 7.62961 14.048 7.62961C11.1568 7.62961 8.81299 9.9734 8.81299 12.8646C8.81299 15.7558 11.1568 18.0996 14.048 18.0996Z" fill="#F98C2A"/>
</g>
<g filter="url(#filter4_f_1750_6254)">
<path d="M17.4867 16.2951C20.3779 16.2951 22.7217 13.9513 22.7217 11.0601C22.7217 8.16884 20.3779 5.82504 17.4867 5.82504C14.5955 5.82504 12.2517 8.16884 12.2517 11.0601C12.2517 13.9513 14.5955 16.2951 17.4867 16.2951Z" fill="#F98C2A"/>
</g>
<g filter="url(#filter5_f_1750_6254)">
<path d="M5.11453 6.65674C8.00575 6.65674 10.3496 4.31294 10.3496 1.42172C10.3496 -1.4695 8.00575 -3.81329 5.11453 -3.81329C2.22331 -3.81329 -0.120483 -1.4695 -0.120483 1.42172C-0.120483 4.31294 2.22331 6.65674 5.11453 6.65674Z" fill="#00D1EA"/>
</g>
<g filter="url(#filter6_f_1750_6254)">
<path d="M3.87845 7.92896C6.76967 7.92896 9.11347 5.58516 9.11347 2.69394C9.11347 -0.19728 6.76967 -2.54108 3.87845 -2.54108C0.987229 -2.54108 -1.35657 -0.19728 -1.35657 2.69394C-1.35657 5.58516 0.987229 7.92896 3.87845 7.92896Z" fill="#00D1EA"/>
</g>
</g>
<g opacity="0.4">
<mask id="mask1_1750_6254" style="mask-type:alpha" maskUnits="userSpaceOnUse" x="3" y="3" width="11" height="11">
<path d="M8.46671 13.47C11.3579 13.47 13.7017 11.1262 13.7017 8.23502C13.7017 5.3438 11.3579 3 8.46671 3C5.57549 3 3.23169 5.3438 3.23169 8.23502C3.23169 11.1262 5.57549 13.47 8.46671 13.47Z" fill="#C4C4C4"/>
</mask>
<g mask="url(#mask1_1750_6254)">
<g filter="url(#filter7_f_1750_6254)">
<path d="M4.40811 16.8246C7.29933 16.8246 9.64313 14.4808 9.64313 11.5896C9.64313 8.69838 7.29933 6.35458 4.40811 6.35458C1.51689 6.35458 -0.826904 8.69838 -0.826904 11.5896C-0.826904 14.4808 1.51689 16.8246 4.40811 16.8246Z" fill="#F868EC"/>
</g>
<g filter="url(#filter8_f_1750_6254)">
<path d="M13.8861 16.8775C16.7774 16.8775 19.1212 14.5337 19.1212 11.6425C19.1212 8.75127 16.7774 6.40747 13.8861 6.40747C10.9949 6.40747 8.65112 8.75127 8.65112 11.6425C8.65112 14.5337 10.9949 16.8775 13.8861 16.8775Z" fill="#F98C2A"/>
</g>
<g filter="url(#filter9_f_1750_6254)">
<path d="M14.4687 11.7943C17.3599 11.7943 19.7037 9.45055 19.7037 6.55933C19.7037 3.66811 17.3599 1.32431 14.4687 1.32431C11.5774 1.32431 9.23364 3.66811 9.23364 6.55933C9.23364 9.45055 11.5774 11.7943 14.4687 11.7943Z" fill="#F98C2A"/>
</g>
<g filter="url(#filter10_f_1750_6254)">
<path d="M6.1553 7.34659C9.04653 7.34659 11.3903 5.00279 11.3903 2.11157C11.3903 -0.779647 9.04653 -3.12344 6.1553 -3.12344C3.26408 -3.12344 0.920288 -0.779647 0.920288 2.11157C0.920288 5.00279 3.26408 7.34659 6.1553 7.34659Z" fill="#00D1EA"/>
</g>
<g filter="url(#filter11_f_1750_6254)">
<path d="M7.74393 6.44641C10.6351 6.44641 12.9789 4.10261 12.9789 1.2114C12.9789 -1.67982 10.6351 -4.02362 7.74393 -4.02362C4.85271 -4.02362 2.50891 -1.67982 2.50891 1.2114C2.50891 4.10261 4.85271 6.44641 7.74393 6.44641Z" fill="#00D1EA"/>
</g>
</g>
</g>
</g>
<g filter="url(#filter12_f_1750_6254)">
<mask id="mask2_1750_6254" style="mask-type:alpha" maskUnits="userSpaceOnUse" x="4" y="4" width="9" height="9">
<path d="M8.46656 12.095C10.5984 12.095 12.3265 10.3668 12.3265 8.23499C12.3265 6.10318 10.5984 4.375 8.46656 4.375C6.33474 4.375 4.60657 6.10318 4.60657 8.23499C4.60657 10.3668 6.33474 12.095 8.46656 12.095Z" fill="#C4C4C4"/>
</mask>
<g mask="url(#mask2_1750_6254)">
<g filter="url(#filter13_f_1750_6254)">
<path d="M5.51319 14.8808C7.645 14.8808 9.37318 13.1526 9.37318 11.0208C9.37318 8.88897 7.645 7.1608 5.51319 7.1608C3.38137 7.1608 1.6532 8.88897 1.6532 11.0208C1.6532 13.1526 3.38137 14.8808 5.51319 14.8808Z" fill="#F868EC"/>
</g>
<g filter="url(#filter14_f_1750_6254)">
<path d="M5.23975 14.6465C7.37156 14.6465 9.09974 12.9183 9.09974 10.7865C9.09974 8.65469 7.37156 6.92651 5.23975 6.92651C3.10794 6.92651 1.37976 8.65469 1.37976 10.7865C1.37976 12.9183 3.10794 14.6465 5.23975 14.6465Z" fill="#F868EC"/>
</g>
<g filter="url(#filter15_f_1750_6254)">
<path d="M12.5819 15.5086C14.7137 15.5086 16.4419 13.7804 16.4419 11.6486C16.4419 9.51675 14.7137 7.78857 12.5819 7.78857C10.4501 7.78857 8.72192 9.51675 8.72192 11.6486C8.72192 13.7804 10.4501 15.5086 12.5819 15.5086Z" fill="#F98C2A"/>
</g>
<g filter="url(#filter16_f_1750_6254)">
<path d="M15.1174 14.178C17.2492 14.178 18.9774 12.4499 18.9774 10.3181C18.9774 8.18624 17.2492 6.45807 15.1174 6.45807C12.9856 6.45807 11.2574 8.18624 11.2574 10.3181C11.2574 12.4499 12.9856 14.178 15.1174 14.178Z" fill="#F98C2A"/>
</g>
<g filter="url(#filter17_f_1750_6254)">
<path d="M5.99512 7.0713C8.12693 7.0713 9.85511 5.34312 9.85511 3.21131C9.85511 1.07949 8.12693 -0.648682 5.99512 -0.648682C3.86331 -0.648682 2.13513 1.07949 2.13513 3.21131C2.13513 5.34312 3.86331 7.0713 5.99512 7.0713Z" fill="#00D1EA"/>
</g>
<g filter="url(#filter18_f_1750_6254)">
<path d="M5.08374 8.00941C7.21556 8.00941 8.94373 6.28123 8.94373 4.14942C8.94373 2.0176 7.21556 0.289429 5.08374 0.289429C2.95193 0.289429 1.22375 2.0176 1.22375 4.14942C1.22375 6.28123 2.95193 8.00941 5.08374 8.00941Z" fill="#00D1EA"/>
</g>
</g>
<g opacity="0.4">
<mask id="mask3_1750_6254" style="mask-type:alpha" maskUnits="userSpaceOnUse" x="4" y="4" width="9" height="9">
<path d="M8.46656 12.095C10.5984 12.095 12.3265 10.3668 12.3265 8.23499C12.3265 6.10318 10.5984 4.375 8.46656 4.375C6.33474 4.375 4.60657 6.10318 4.60657 8.23499C4.60657 10.3668 6.33474 12.095 8.46656 12.095Z" fill="#C4C4C4"/>
</mask>
<g mask="url(#mask3_1750_6254)">
<g filter="url(#filter19_f_1750_6254)">
<path d="M5.474 14.5685C7.60581 14.5685 9.33399 12.8403 9.33399 10.7085C9.33399 8.57666 7.60581 6.84848 5.474 6.84848C3.34219 6.84848 1.61401 8.57666 1.61401 10.7085C1.61401 12.8403 3.34219 14.5685 5.474 14.5685Z" fill="#F868EC"/>
</g>
<g filter="url(#filter20_f_1750_6254)">
<path d="M12.4627 14.6074C14.5945 14.6074 16.3226 12.8793 16.3226 10.7474C16.3226 8.61563 14.5945 6.88745 12.4627 6.88745C10.3308 6.88745 8.60266 8.61563 8.60266 10.7474C8.60266 12.8793 10.3308 14.6074 12.4627 14.6074Z" fill="#F98C2A"/>
</g>
<g filter="url(#filter21_f_1750_6254)">
<path d="M12.8921 10.8594C15.0239 10.8594 16.7521 9.13124 16.7521 6.99942C16.7521 4.86761 15.0239 3.13943 12.8921 3.13943C10.7603 3.13943 9.0321 4.86761 9.0321 6.99942C9.0321 9.13124 10.7603 10.8594 12.8921 10.8594Z" fill="#F98C2A"/>
</g>
<g filter="url(#filter22_f_1750_6254)">
<path d="M6.76233 7.57987C8.89415 7.57987 10.6223 5.8517 10.6223 3.71988C10.6223 1.58807 8.89415 -0.140106 6.76233 -0.140106C4.63052 -0.140106 2.90234 1.58807 2.90234 3.71988C2.90234 5.8517 4.63052 7.57987 6.76233 7.57987Z" fill="#00D1EA"/>
</g>
<g filter="url(#filter23_f_1750_6254)">
<path d="M7.93384 6.91614C10.0657 6.91614 11.7938 5.18797 11.7938 3.05616C11.7938 0.924343 10.0657 -0.803833 7.93384 -0.803833C5.80203 -0.803833 4.07385 0.924343 4.07385 3.05616C4.07385 5.18797 5.80203 6.91614 7.93384 6.91614Z" fill="#00D1EA"/>
</g>
</g>
</g>
</g>
<path d="M8.46666 12.3529C10.8547 12.3529 12.7906 10.417 12.7906 8.02892C12.7906 5.64086 10.8547 3.70496 8.46666 3.70496C6.0786 3.70496 4.1427 5.64086 4.1427 8.02892C4.1427 10.417 6.0786 12.3529 8.46666 12.3529Z" fill="white"/>
<mask id="mask4_1750_6254" style="mask-type:alpha" maskUnits="userSpaceOnUse" x="4" y="4" width="9" height="8">
<path d="M8.46677 11.8358C10.5606 11.8358 12.258 10.1384 12.258 8.04459C12.258 5.95075 10.5606 4.25336 8.46677 4.25336C6.37293 4.25336 4.67554 5.95075 4.67554 8.04459C4.67554 10.1384 6.37293 11.8358 8.46677 11.8358Z" fill="#C4C4C4"/>
</mask>
<g mask="url(#mask4_1750_6254)">
<g filter="url(#filter24_f_1750_6254)">
<path d="M5.56577 14.5719C7.65962 14.5719 9.35701 12.8745 9.35701 10.7807C9.35701 8.68684 7.65962 6.98944 5.56577 6.98944C3.47193 6.98944 1.77454 8.68684 1.77454 10.7807C1.77454 12.8745 3.47193 14.5719 5.56577 14.5719Z" fill="#F868EC"/>
</g>
<g filter="url(#filter25_f_1750_6254)">
<path d="M5.29734 14.3418C7.39118 14.3418 9.08858 12.6444 9.08858 10.5506C9.08858 8.45676 7.39118 6.75937 5.29734 6.75937C3.2035 6.75937 1.5061 8.45676 1.5061 10.5506C1.5061 12.6444 3.2035 14.3418 5.29734 14.3418Z" fill="#F868EC"/>
</g>
<g filter="url(#filter26_f_1750_6254)">
<path d="M12.5088 15.1885C14.6026 15.1885 16.3 13.4911 16.3 11.3972C16.3 9.30338 14.6026 7.60599 12.5088 7.60599C10.4149 7.60599 8.71753 9.30338 8.71753 11.3972C8.71753 13.4911 10.4149 15.1885 12.5088 15.1885Z" fill="#F98C2A"/>
</g>
<g filter="url(#filter27_f_1750_6254)">
<path d="M14.999 13.8817C17.0928 13.8817 18.7902 12.1843 18.7902 10.0904C18.7902 7.99659 17.0928 6.29919 14.999 6.29919C12.9052 6.29919 11.2078 7.99659 11.2078 10.0904C11.2078 12.1843 12.9052 13.8817 14.999 13.8817Z" fill="#F98C2A"/>
</g>
<g filter="url(#filter28_f_1750_6254)">
<path d="M6.03916 6.90151C8.13301 6.90151 9.8304 5.20411 9.8304 3.11027C9.8304 1.01643 8.13301 -0.680969 6.03916 -0.680969C3.94532 -0.680969 2.24792 1.01643 2.24792 3.11027C2.24792 5.20411 3.94532 6.90151 6.03916 6.90151Z" fill="#00D1EA"/>
</g>
<g filter="url(#filter29_f_1750_6254)">
<path d="M5.1439 7.82286C7.23774 7.82286 8.93514 6.12547 8.93514 4.03162C8.93514 1.93778 7.23774 0.240387 5.1439 0.240387C3.05006 0.240387 1.35266 1.93778 1.35266 4.03162C1.35266 6.12547 3.05006 7.82286 5.1439 7.82286Z" fill="#00D1EA"/>
</g>
</g>
<g opacity="0.4">
<mask id="mask5_1750_6254" style="mask-type:alpha" maskUnits="userSpaceOnUse" x="4" y="4" width="9" height="8">
<path d="M8.46677 11.8358C10.5606 11.8358 12.258 10.1384 12.258 8.04459C12.258 5.95075 10.5606 4.25336 8.46677 4.25336C6.37293 4.25336 4.67554 5.95075 4.67554 8.04459C4.67554 10.1384 6.37293 11.8358 8.46677 11.8358Z" fill="#C4C4C4"/>
</mask>
<g mask="url(#mask5_1750_6254)">
<g filter="url(#filter30_f_1750_6254)">
<path d="M5.52744 14.2652C7.62129 14.2652 9.31868 12.5678 9.31868 10.474C9.31868 8.38013 7.62129 6.68274 5.52744 6.68274C3.4336 6.68274 1.73621 8.38013 1.73621 10.474C1.73621 12.5678 3.4336 14.2652 5.52744 14.2652Z" fill="#F868EC"/>
</g>
<g filter="url(#filter31_f_1750_6254)">
<path d="M12.3913 14.3035C14.4852 14.3035 16.1826 12.6061 16.1826 10.5123C16.1826 8.41843 14.4852 6.72104 12.3913 6.72104C10.2975 6.72104 8.6001 8.41843 8.6001 10.5123C8.6001 12.6061 10.2975 14.3035 12.3913 14.3035Z" fill="#F98C2A"/>
</g>
<g filter="url(#filter32_f_1750_6254)">
<path d="M12.8132 10.6222C14.9071 10.6222 16.6044 8.92478 16.6044 6.83094C16.6044 4.7371 14.9071 3.0397 12.8132 3.0397C10.7194 3.0397 9.02197 4.7371 9.02197 6.83094C9.02197 8.92478 10.7194 10.6222 12.8132 10.6222Z" fill="#F98C2A"/>
</g>
<g filter="url(#filter33_f_1750_6254)">
<path d="M6.79282 7.40114C8.88667 7.40114 10.5841 5.70374 10.5841 3.6099C10.5841 1.51606 8.88667 -0.181335 6.79282 -0.181335C4.69898 -0.181335 3.00159 1.51606 3.00159 3.6099C3.00159 5.70374 4.69898 7.40114 6.79282 7.40114Z" fill="#00D1EA"/>
</g>
<g filter="url(#filter34_f_1750_6254)">
<path d="M7.94309 6.74922C10.0369 6.74922 11.7343 5.05183 11.7343 2.95799C11.7343 0.864143 10.0369 -0.833252 7.94309 -0.833252C5.84925 -0.833252 4.15186 0.864143 4.15186 2.95799C4.15186 5.05183 5.84925 6.74922 7.94309 6.74922Z" fill="#00D1EA"/>
</g>
</g>
</g>
<path fill-rule="evenodd" clip-rule="evenodd" d="M9.28821 9.87036C13.1271 8.14298 15.8713 5.92524 15.4176 4.91687C14.9886 3.96347 11.8542 4.43264 8.2689 5.94674C9.26367 5.7602 10.1828 5.65339 11.2543 5.7329C11.3703 5.7415 11.4688 5.75044 11.5518 5.75964C12.2827 5.67399 12.7844 5.76081 12.912 6.04434C13.2021 6.6892 11.4471 8.1075 8.99207 9.21221C6.537 10.3169 4.31155 10.6897 4.02137 10.0448C3.89284 9.75915 4.16563 9.32171 4.7228 8.827C4.65907 8.52464 4.64362 8.26366 4.6454 8.14931C4.5438 8.1367 4.41973 8.0899 4.33414 7.99177C2.3653 9.25458 1.2088 10.4902 1.51573 11.1723C1.96946 12.1806 5.44932 11.5977 9.28821 9.87036Z" fill="white"/>
</g>
<defs>
<filter id="filter0_f_1750_6254" x="-0.893091" y="-1.12478" width="18.7197" height="18.7196" filterUnits="userSpaceOnUse" color-interpolation-filters="sRGB">
<feFlood flood-opacity="0" result="BackgroundImageFix"/>
<feBlend mode="normal" in="SourceGraphic" in2="BackgroundImageFix" result="shape"/>
<feGaussianBlur stdDeviation="2.06239" result="effect1_foregroundBlur_1750_6254"/>
</filter>
<filter id="filter1_f_1750_6254" x="-3.96008" y="3.59204" width="16.8422" height="16.8421" filterUnits="userSpaceOnUse" color-interpolation-filters="sRGB">
<feFlood flood-opacity="0" result="BackgroundImageFix"/>
<feBlend mode="normal" in="SourceGraphic" in2="BackgroundImageFix" result="shape"/>
<feGaussianBlur stdDeviation="1.59302" result="effect1_foregroundBlur_1750_6254"/>
</filter>
<filter id="filter2_f_1750_6254" x="-4.33081" y="3.27441" width="16.8422" height="16.8421" filterUnits="userSpaceOnUse" color-interpolation-filters="sRGB">
<feFlood flood-opacity="0" result="BackgroundImageFix"/>
<feBlend mode="normal" in="SourceGraphic" in2="BackgroundImageFix" result="shape"/>
<feGaussianBlur stdDeviation="1.59302" result="effect1_foregroundBlur_1750_6254"/>
</filter>
<filter id="filter3_f_1750_6254" x="6.82172" y="5.63834" width="14.4526" height="14.4526" filterUnits="userSpaceOnUse" color-interpolation-filters="sRGB">
<feFlood flood-opacity="0" result="BackgroundImageFix"/>
<feBlend mode="normal" in="SourceGraphic" in2="BackgroundImageFix" result="shape"/>
<feGaussianBlur stdDeviation="0.995637" result="effect1_foregroundBlur_1750_6254"/>
</filter>
<filter id="filter4_f_1750_6254" x="10.2604" y="3.83377" width="14.4526" height="14.4526" filterUnits="userSpaceOnUse" color-interpolation-filters="sRGB">
<feFlood flood-opacity="0" result="BackgroundImageFix"/>
<feBlend mode="normal" in="SourceGraphic" in2="BackgroundImageFix" result="shape"/>
<feGaussianBlur stdDeviation="0.995637" result="effect1_foregroundBlur_1750_6254"/>
</filter>
<filter id="filter5_f_1750_6254" x="-3.30652" y="-6.99933" width="16.8422" height="16.8421" filterUnits="userSpaceOnUse" color-interpolation-filters="sRGB">
<feFlood flood-opacity="0" result="BackgroundImageFix"/>
<feBlend mode="normal" in="SourceGraphic" in2="BackgroundImageFix" result="shape"/>
<feGaussianBlur stdDeviation="1.59302" result="effect1_foregroundBlur_1750_6254"/>
</filter>
<filter id="filter6_f_1750_6254" x="-4.5426" y="-5.72711" width="16.8422" height="16.8421" filterUnits="userSpaceOnUse" color-interpolation-filters="sRGB">
<feFlood flood-opacity="0" result="BackgroundImageFix"/>
<feBlend mode="normal" in="SourceGraphic" in2="BackgroundImageFix" result="shape"/>
<feGaussianBlur stdDeviation="1.59302" result="effect1_foregroundBlur_1750_6254"/>
</filter>
<filter id="filter7_f_1750_6254" x="-4.01294" y="3.16855" width="16.8422" height="16.8421" filterUnits="userSpaceOnUse" color-interpolation-filters="sRGB">
<feFlood flood-opacity="0" result="BackgroundImageFix"/>
<feBlend mode="normal" in="SourceGraphic" in2="BackgroundImageFix" result="shape"/>
<feGaussianBlur stdDeviation="1.59302" result="effect1_foregroundBlur_1750_6254"/>
</filter>
<filter id="filter8_f_1750_6254" x="6.65985" y="4.4162" width="14.4526" height="14.4526" filterUnits="userSpaceOnUse" color-interpolation-filters="sRGB">
<feFlood flood-opacity="0" result="BackgroundImageFix"/>
<feBlend mode="normal" in="SourceGraphic" in2="BackgroundImageFix" result="shape"/>
<feGaussianBlur stdDeviation="0.995637" result="effect1_foregroundBlur_1750_6254"/>
</filter>
<filter id="filter9_f_1750_6254" x="7.24237" y="-0.666963" width="14.4526" height="14.4526" filterUnits="userSpaceOnUse" color-interpolation-filters="sRGB">
<feFlood flood-opacity="0" result="BackgroundImageFix"/>
<feBlend mode="normal" in="SourceGraphic" in2="BackgroundImageFix" result="shape"/>
<feGaussianBlur stdDeviation="0.995637" result="effect1_foregroundBlur_1750_6254"/>
</filter>
<filter id="filter10_f_1750_6254" x="-2.26575" y="-6.30948" width="16.8422" height="16.8421" filterUnits="userSpaceOnUse" color-interpolation-filters="sRGB">
<feFlood flood-opacity="0" result="BackgroundImageFix"/>
<feBlend mode="normal" in="SourceGraphic" in2="BackgroundImageFix" result="shape"/>
<feGaussianBlur stdDeviation="1.59302" result="effect1_foregroundBlur_1750_6254"/>
</filter>
<filter id="filter11_f_1750_6254" x="-0.677126" y="-7.20966" width="16.8422" height="16.8421" filterUnits="userSpaceOnUse" color-interpolation-filters="sRGB">
<feFlood flood-opacity="0" result="BackgroundImageFix"/>
<feBlend mode="normal" in="SourceGraphic" in2="BackgroundImageFix" result="shape"/>
<feGaussianBlur stdDeviation="1.59302" result="effect1_foregroundBlur_1750_6254"/>
</filter>
<filter id="filter12_f_1750_6254" x="0.481787" y="0.25022" width="15.9695" height="15.9695" filterUnits="userSpaceOnUse" color-interpolation-filters="sRGB">
<feFlood flood-opacity="0" result="BackgroundImageFix"/>
<feBlend mode="normal" in="SourceGraphic" in2="BackgroundImageFix" result="shape"/>
<feGaussianBlur stdDeviation="2.06239" result="effect1_foregroundBlur_1750_6254"/>
</filter>
<filter id="filter13_f_1750_6254" x="-1.53284" y="3.97476" width="14.092" height="14.092" filterUnits="userSpaceOnUse" color-interpolation-filters="sRGB">
<feFlood flood-opacity="0" result="BackgroundImageFix"/>
<feBlend mode="normal" in="SourceGraphic" in2="BackgroundImageFix" result="shape"/>
<feGaussianBlur stdDeviation="1.59302" result="effect1_foregroundBlur_1750_6254"/>
</filter>
<filter id="filter14_f_1750_6254" x="-1.80628" y="3.74048" width="14.092" height="14.092" filterUnits="userSpaceOnUse" color-interpolation-filters="sRGB">
<feFlood flood-opacity="0" result="BackgroundImageFix"/>
<feBlend mode="normal" in="SourceGraphic" in2="BackgroundImageFix" result="shape"/>
<feGaussianBlur stdDeviation="1.59302" result="effect1_foregroundBlur_1750_6254"/>
</filter>
<filter id="filter15_f_1750_6254" x="6.73065" y="5.7973" width="11.7025" height="11.7025" filterUnits="userSpaceOnUse" color-interpolation-filters="sRGB">
<feFlood flood-opacity="0" result="BackgroundImageFix"/>
<feBlend mode="normal" in="SourceGraphic" in2="BackgroundImageFix" result="shape"/>
<feGaussianBlur stdDeviation="0.995637" result="effect1_foregroundBlur_1750_6254"/>
</filter>
<filter id="filter16_f_1750_6254" x="9.26617" y="4.4668" width="11.7025" height="11.7025" filterUnits="userSpaceOnUse" color-interpolation-filters="sRGB">
<feFlood flood-opacity="0" result="BackgroundImageFix"/>
<feBlend mode="normal" in="SourceGraphic" in2="BackgroundImageFix" result="shape"/>
<feGaussianBlur stdDeviation="0.995637" result="effect1_foregroundBlur_1750_6254"/>
</filter>
<filter id="filter17_f_1750_6254" x="-1.05091" y="-3.83472" width="14.092" height="14.092" filterUnits="userSpaceOnUse" color-interpolation-filters="sRGB">
<feFlood flood-opacity="0" result="BackgroundImageFix"/>
<feBlend mode="normal" in="SourceGraphic" in2="BackgroundImageFix" result="shape"/>
<feGaussianBlur stdDeviation="1.59302" result="effect1_foregroundBlur_1750_6254"/>
</filter>
<filter id="filter18_f_1750_6254" x="-1.96228" y="-2.89661" width="14.092" height="14.092" filterUnits="userSpaceOnUse" color-interpolation-filters="sRGB">
<feFlood flood-opacity="0" result="BackgroundImageFix"/>
<feBlend mode="normal" in="SourceGraphic" in2="BackgroundImageFix" result="shape"/>
<feGaussianBlur stdDeviation="1.59302" result="effect1_foregroundBlur_1750_6254"/>
</filter>
<filter id="filter19_f_1750_6254" x="-1.57202" y="3.66244" width="14.092" height="14.092" filterUnits="userSpaceOnUse" color-interpolation-filters="sRGB">
<feFlood flood-opacity="0" result="BackgroundImageFix"/>
<feBlend mode="normal" in="SourceGraphic" in2="BackgroundImageFix" result="shape"/>
<feGaussianBlur stdDeviation="1.59302" result="effect1_foregroundBlur_1750_6254"/>
</filter>
<filter id="filter20_f_1750_6254" x="6.61139" y="4.89618" width="11.7025" height="11.7025" filterUnits="userSpaceOnUse" color-interpolation-filters="sRGB">
<feFlood flood-opacity="0" result="BackgroundImageFix"/>
<feBlend mode="normal" in="SourceGraphic" in2="BackgroundImageFix" result="shape"/>
<feGaussianBlur stdDeviation="0.995637" result="effect1_foregroundBlur_1750_6254"/>
</filter>
<filter id="filter21_f_1750_6254" x="7.04083" y="1.14816" width="11.7025" height="11.7025" filterUnits="userSpaceOnUse" color-interpolation-filters="sRGB">
<feFlood flood-opacity="0" result="BackgroundImageFix"/>
<feBlend mode="normal" in="SourceGraphic" in2="BackgroundImageFix" result="shape"/>
<feGaussianBlur stdDeviation="0.995637" result="effect1_foregroundBlur_1750_6254"/>
</filter>
<filter id="filter22_f_1750_6254" x="-0.283693" y="-3.32614" width="14.092" height="14.092" filterUnits="userSpaceOnUse" color-interpolation-filters="sRGB">
<feFlood flood-opacity="0" result="BackgroundImageFix"/>
<feBlend mode="normal" in="SourceGraphic" in2="BackgroundImageFix" result="shape"/>
<feGaussianBlur stdDeviation="1.59302" result="effect1_foregroundBlur_1750_6254"/>
</filter>
<filter id="filter23_f_1750_6254" x="0.887815" y="-3.98987" width="14.092" height="14.092" filterUnits="userSpaceOnUse" color-interpolation-filters="sRGB">
<feFlood flood-opacity="0" result="BackgroundImageFix"/>
<feBlend mode="normal" in="SourceGraphic" in2="BackgroundImageFix" result="shape"/>
<feGaussianBlur stdDeviation="1.59302" result="effect1_foregroundBlur_1750_6254"/>
</filter>
<filter id="filter24_f_1750_6254" x="-1.4115" y="3.8034" width="13.9546" height="13.9546" filterUnits="userSpaceOnUse" color-interpolation-filters="sRGB">
<feFlood flood-opacity="0" result="BackgroundImageFix"/>
<feBlend mode="normal" in="SourceGraphic" in2="BackgroundImageFix" result="shape"/>
<feGaussianBlur stdDeviation="1.59302" result="effect1_foregroundBlur_1750_6254"/>
</filter>
<filter id="filter25_f_1750_6254" x="-1.67993" y="3.57333" width="13.9546" height="13.9546" filterUnits="userSpaceOnUse" color-interpolation-filters="sRGB">
<feFlood flood-opacity="0" result="BackgroundImageFix"/>
<feBlend mode="normal" in="SourceGraphic" in2="BackgroundImageFix" result="shape"/>
<feGaussianBlur stdDeviation="1.59302" result="effect1_foregroundBlur_1750_6254"/>
</filter>
<filter id="filter26_f_1750_6254" x="6.72626" y="5.61471" width="11.5651" height="11.565" filterUnits="userSpaceOnUse" color-interpolation-filters="sRGB">
<feFlood flood-opacity="0" result="BackgroundImageFix"/>
<feBlend mode="normal" in="SourceGraphic" in2="BackgroundImageFix" result="shape"/>
<feGaussianBlur stdDeviation="0.995637" result="effect1_foregroundBlur_1750_6254"/>
</filter>
<filter id="filter27_f_1750_6254" x="9.21649" y="4.30792" width="11.5651" height="11.565" filterUnits="userSpaceOnUse" color-interpolation-filters="sRGB">
<feFlood flood-opacity="0" result="BackgroundImageFix"/>
<feBlend mode="normal" in="SourceGraphic" in2="BackgroundImageFix" result="shape"/>
<feGaussianBlur stdDeviation="0.995637" result="effect1_foregroundBlur_1750_6254"/>
</filter>
<filter id="filter28_f_1750_6254" x="-0.938112" y="-3.86701" width="13.9546" height="13.9546" filterUnits="userSpaceOnUse" color-interpolation-filters="sRGB">
<feFlood flood-opacity="0" result="BackgroundImageFix"/>
<feBlend mode="normal" in="SourceGraphic" in2="BackgroundImageFix" result="shape"/>
<feGaussianBlur stdDeviation="1.59302" result="effect1_foregroundBlur_1750_6254"/>
</filter>
<filter id="filter29_f_1750_6254" x="-1.83338" y="-2.94565" width="13.9546" height="13.9546" filterUnits="userSpaceOnUse" color-interpolation-filters="sRGB">
<feFlood flood-opacity="0" result="BackgroundImageFix"/>
<feBlend mode="normal" in="SourceGraphic" in2="BackgroundImageFix" result="shape"/>
<feGaussianBlur stdDeviation="1.59302" result="effect1_foregroundBlur_1750_6254"/>
</filter>
<filter id="filter30_f_1750_6254" x="-1.44983" y="3.4967" width="13.9546" height="13.9546" filterUnits="userSpaceOnUse" color-interpolation-filters="sRGB">
<feFlood flood-opacity="0" result="BackgroundImageFix"/>
<feBlend mode="normal" in="SourceGraphic" in2="BackgroundImageFix" result="shape"/>
<feGaussianBlur stdDeviation="1.59302" result="effect1_foregroundBlur_1750_6254"/>
</filter>
<filter id="filter31_f_1750_6254" x="6.60882" y="4.72977" width="11.5651" height="11.565" filterUnits="userSpaceOnUse" color-interpolation-filters="sRGB">
<feFlood flood-opacity="0" result="BackgroundImageFix"/>
<feBlend mode="normal" in="SourceGraphic" in2="BackgroundImageFix" result="shape"/>
<feGaussianBlur stdDeviation="0.995637" result="effect1_foregroundBlur_1750_6254"/>
</filter>
<filter id="filter32_f_1750_6254" x="7.0307" y="1.04843" width="11.5651" height="11.565" filterUnits="userSpaceOnUse" color-interpolation-filters="sRGB">
<feFlood flood-opacity="0" result="BackgroundImageFix"/>
<feBlend mode="normal" in="SourceGraphic" in2="BackgroundImageFix" result="shape"/>
<feGaussianBlur stdDeviation="0.995637" result="effect1_foregroundBlur_1750_6254"/>
</filter>
<filter id="filter33_f_1750_6254" x="-0.18445" y="-3.36737" width="13.9546" height="13.9546" filterUnits="userSpaceOnUse" color-interpolation-filters="sRGB">
<feFlood flood-opacity="0" result="BackgroundImageFix"/>
<feBlend mode="normal" in="SourceGraphic" in2="BackgroundImageFix" result="shape"/>
<feGaussianBlur stdDeviation="1.59302" result="effect1_foregroundBlur_1750_6254"/>
</filter>
<filter id="filter34_f_1750_6254" x="0.965818" y="-4.01929" width="13.9546" height="13.9546" filterUnits="userSpaceOnUse" color-interpolation-filters="sRGB">
<feFlood flood-opacity="0" result="BackgroundImageFix"/>
<feBlend mode="normal" in="SourceGraphic" in2="BackgroundImageFix" result="shape"/>
<feGaussianBlur stdDeviation="1.59302" result="effect1_foregroundBlur_1750_6254"/>
</filter>
<clipPath id="clip0_1750_6254">
<rect x="0.466675" width="16" height="16" rx="4" fill="white"/>
</clipPath>
</defs>
</svg>
