<svg width="16" height="16" viewBox="0 0 16 16" fill="none" xmlns="http://www.w3.org/2000/svg">
<g clip-path="url(#clip0_1750_6254)">
<rect width="16" height="16" rx="4" fill="white" fill-opacity="0.16"/>
<g filter="url(#filter0_f_1750_6254)">
<mask id="mask0_1750_6254" style="mask-type:alpha" maskUnits="userSpaceOnUse" x="2" y="3" width="12" height="11">
<path d="M8.00003 13.47C10.8913 13.47 13.235 11.1262 13.235 8.23502C13.235 5.3438 10.8913 3 8.00003 3C5.10881 3 2.76501 5.3438 2.76501 8.23502C2.76501 11.1262 5.10881 13.47 8.00003 13.47Z" fill="#C4C4C4"/>
</mask>
<g mask="url(#mask0_1750_6254)">
<g filter="url(#filter1_f_1750_6254)">
<path d="M3.99429 17.2481C6.88551 17.2481 9.22931 14.9043 9.22931 12.0131C9.22931 9.12187 6.88551 6.77808 3.99429 6.77808C1.10307 6.77808 -1.24072 9.12187 -1.24072 12.0131C-1.24072 14.9043 1.10307 17.2481 3.99429 17.2481Z" fill="#F868EC"/>
</g>
<g filter="url(#filter2_f_1750_6254)">
<path d="M3.62357 16.9305C6.51479 16.9305 8.85858 14.5867 8.85858 11.6955C8.85858 8.80425 6.51479 6.46045 3.62357 6.46045C0.732347 6.46045 -1.61145 8.80425 -1.61145 11.6955C-1.61145 14.5867 0.732347 16.9305 3.62357 16.9305Z" fill="#F868EC"/>
</g>
<g filter="url(#filter3_f_1750_6254)">
<path d="M13.5813 18.0996C16.4726 18.0996 18.8163 15.7558 18.8163 12.8646C18.8163 9.9734 16.4726 7.62961 13.5813 7.62961C10.6901 7.62961 8.34631 9.9734 8.34631 12.8646C8.34631 15.7558 10.6901 18.0996 13.5813 18.0996Z" fill="#F98C2A"/>
</g>
<g filter="url(#filter4_f_1750_6254)">
<path d="M17.0201 16.2951C19.9113 16.2951 22.2551 13.9513 22.2551 11.0601C22.2551 8.16884 19.9113 5.82504 17.0201 5.82504C14.1288 5.82504 11.785 8.16884 11.785 11.0601C11.785 13.9513 14.1288 16.2951 17.0201 16.2951Z" fill="#F98C2A"/>
</g>
<g filter="url(#filter5_f_1750_6254)">
<path d="M4.64786 6.65674C7.53908 6.65674 9.88288 4.31294 9.88288 1.42172C9.88288 -1.4695 7.53908 -3.81329 4.64786 -3.81329C1.75664 -3.81329 -0.587158 -1.4695 -0.587158 1.42172C-0.587158 4.31294 1.75664 6.65674 4.64786 6.65674Z" fill="#00D1EA"/>
</g>
<g filter="url(#filter6_f_1750_6254)">
<path d="M3.41177 7.92896C6.30299 7.92896 8.64679 5.58516 8.64679 2.69394C8.64679 -0.19728 6.30299 -2.54108 3.41177 -2.54108C0.520555 -2.54108 -1.82324 -0.19728 -1.82324 2.69394C-1.82324 5.58516 0.520555 7.92896 3.41177 7.92896Z" fill="#00D1EA"/>
</g>
</g>
<g opacity="0.4">
<mask id="mask1_1750_6254" style="mask-type:alpha" maskUnits="userSpaceOnUse" x="2" y="3" width="12" height="11">
<path d="M8.00003 13.47C10.8913 13.47 13.235 11.1262 13.235 8.23502C13.235 5.3438 10.8913 3 8.00003 3C5.10881 3 2.76501 5.3438 2.76501 8.23502C2.76501 11.1262 5.10881 13.47 8.00003 13.47Z" fill="#C4C4C4"/>
</mask>
<g mask="url(#mask1_1750_6254)">
<g filter="url(#filter7_f_1750_6254)">
<path d="M3.94144 16.8246C6.83266 16.8246 9.17645 14.4808 9.17645 11.5896C9.17645 8.69838 6.83266 6.35458 3.94144 6.35458C1.05022 6.35458 -1.29358 8.69838 -1.29358 11.5896C-1.29358 14.4808 1.05022 16.8246 3.94144 16.8246Z" fill="#F868EC"/>
</g>
<g filter="url(#filter8_f_1750_6254)">
<path d="M13.4195 16.8775C16.3107 16.8775 18.6545 14.5337 18.6545 11.6425C18.6545 8.75127 16.3107 6.40747 13.4195 6.40747C10.5282 6.40747 8.18445 8.75127 8.18445 11.6425C8.18445 14.5337 10.5282 16.8775 13.4195 16.8775Z" fill="#F98C2A"/>
</g>
<g filter="url(#filter9_f_1750_6254)">
<path d="M14.002 11.7943C16.8932 11.7943 19.237 9.45055 19.237 6.55933C19.237 3.66811 16.8932 1.32431 14.002 1.32431C11.1108 1.32431 8.76697 3.66811 8.76697 6.55933C8.76697 9.45055 11.1108 11.7943 14.002 11.7943Z" fill="#F98C2A"/>
</g>
<g filter="url(#filter10_f_1750_6254)">
<path d="M5.68863 7.34659C8.57985 7.34659 10.9236 5.00279 10.9236 2.11157C10.9236 -0.779647 8.57985 -3.12344 5.68863 -3.12344C2.79741 -3.12344 0.453613 -0.779647 0.453613 2.11157C0.453613 5.00279 2.79741 7.34659 5.68863 7.34659Z" fill="#00D1EA"/>
</g>
<g filter="url(#filter11_f_1750_6254)">
<path d="M7.27725 6.44641C10.1685 6.44641 12.5123 4.10261 12.5123 1.2114C12.5123 -1.67982 10.1685 -4.02362 7.27725 -4.02362C4.38603 -4.02362 2.04224 -1.67982 2.04224 1.2114C2.04224 4.10261 4.38603 6.44641 7.27725 6.44641Z" fill="#00D1EA"/>
</g>
</g>
</g>
</g>
<g filter="url(#filter12_f_1750_6254)">
<mask id="mask2_1750_6254" style="mask-type:alpha" maskUnits="userSpaceOnUse" x="4" y="4" width="8" height="9">
<path d="M7.99988 12.095C10.1317 12.095 11.8599 10.3668 11.8599 8.23499C11.8599 6.10318 10.1317 4.375 7.99988 4.375C5.86807 4.375 4.13989 6.10318 4.13989 8.23499C4.13989 10.3668 5.86807 12.095 7.99988 12.095Z" fill="#C4C4C4"/>
</mask>
<g mask="url(#mask2_1750_6254)">
<g filter="url(#filter13_f_1750_6254)">
<path d="M5.04651 14.8808C7.17832 14.8808 8.9065 13.1526 8.9065 11.0208C8.9065 8.88897 7.17832 7.1608 5.04651 7.1608C2.9147 7.1608 1.18652 8.88897 1.18652 11.0208C1.18652 13.1526 2.9147 14.8808 5.04651 14.8808Z" fill="#F868EC"/>
</g>
<g filter="url(#filter14_f_1750_6254)">
<path d="M4.77307 14.6465C6.90489 14.6465 8.63306 12.9183 8.63306 10.7865C8.63306 8.65469 6.90489 6.92651 4.77307 6.92651C2.64126 6.92651 0.913086 8.65469 0.913086 10.7865C0.913086 12.9183 2.64126 14.6465 4.77307 14.6465Z" fill="#F868EC"/>
</g>
<g filter="url(#filter15_f_1750_6254)">
<path d="M12.1152 15.5086C14.2471 15.5086 15.9752 13.7804 15.9752 11.6486C15.9752 9.51675 14.2471 7.78857 12.1152 7.78857C9.98343 7.78857 8.25525 9.51675 8.25525 11.6486C8.25525 13.7804 9.98343 15.5086 12.1152 15.5086Z" fill="#F98C2A"/>
</g>
<g filter="url(#filter16_f_1750_6254)">
<path d="M14.6508 14.178C16.7826 14.178 18.5107 12.4499 18.5107 10.3181C18.5107 8.18624 16.7826 6.45807 14.6508 6.45807C12.5189 6.45807 10.7908 8.18624 10.7908 10.3181C10.7908 12.4499 12.5189 14.178 14.6508 14.178Z" fill="#F98C2A"/>
</g>
<g filter="url(#filter17_f_1750_6254)">
<path d="M5.52845 7.0713C7.66026 7.0713 9.38843 5.34312 9.38843 3.21131C9.38843 1.07949 7.66026 -0.648682 5.52845 -0.648682C3.39663 -0.648682 1.66846 1.07949 1.66846 3.21131C1.66846 5.34312 3.39663 7.0713 5.52845 7.0713Z" fill="#00D1EA"/>
</g>
<g filter="url(#filter18_f_1750_6254)">
<path d="M4.61707 8.00941C6.74888 8.00941 8.47706 6.28123 8.47706 4.14942C8.47706 2.0176 6.74888 0.289429 4.61707 0.289429C2.48526 0.289429 0.75708 2.0176 0.75708 4.14942C0.75708 6.28123 2.48526 8.00941 4.61707 8.00941Z" fill="#00D1EA"/>
</g>
</g>
<g opacity="0.4">
<mask id="mask3_1750_6254" style="mask-type:alpha" maskUnits="userSpaceOnUse" x="4" y="4" width="8" height="9">
<path d="M7.99988 12.095C10.1317 12.095 11.8599 10.3668 11.8599 8.23499C11.8599 6.10318 10.1317 4.375 7.99988 4.375C5.86807 4.375 4.13989 6.10318 4.13989 8.23499C4.13989 10.3668 5.86807 12.095 7.99988 12.095Z" fill="#C4C4C4"/>
</mask>
<g mask="url(#mask3_1750_6254)">
<g filter="url(#filter19_f_1750_6254)">
<path d="M5.00733 14.5685C7.13914 14.5685 8.86732 12.8403 8.86732 10.7085C8.86732 8.57666 7.13914 6.84848 5.00733 6.84848C2.87551 6.84848 1.14734 8.57666 1.14734 10.7085C1.14734 12.8403 2.87551 14.5685 5.00733 14.5685Z" fill="#F868EC"/>
</g>
<g filter="url(#filter20_f_1750_6254)">
<path d="M11.996 14.6074C14.1278 14.6074 15.856 12.8793 15.856 10.7474C15.856 8.61563 14.1278 6.88745 11.996 6.88745C9.86416 6.88745 8.13599 8.61563 8.13599 10.7474C8.13599 12.8793 9.86416 14.6074 11.996 14.6074Z" fill="#F98C2A"/>
</g>
<g filter="url(#filter21_f_1750_6254)">
<path d="M12.4254 10.8594C14.5572 10.8594 16.2854 9.13124 16.2854 6.99942C16.2854 4.86761 14.5572 3.13943 12.4254 3.13943C10.2936 3.13943 8.56543 4.86761 8.56543 6.99942C8.56543 9.13124 10.2936 10.8594 12.4254 10.8594Z" fill="#F98C2A"/>
</g>
<g filter="url(#filter22_f_1750_6254)">
<path d="M6.29566 7.57987C8.42747 7.57987 10.1556 5.8517 10.1556 3.71988C10.1556 1.58807 8.42747 -0.140106 6.29566 -0.140106C4.16384 -0.140106 2.43567 1.58807 2.43567 3.71988C2.43567 5.8517 4.16384 7.57987 6.29566 7.57987Z" fill="#00D1EA"/>
</g>
<g filter="url(#filter23_f_1750_6254)">
<path d="M7.46717 6.91614C9.59898 6.91614 11.3272 5.18797 11.3272 3.05616C11.3272 0.924343 9.59898 -0.803833 7.46717 -0.803833C5.33535 -0.803833 3.60718 0.924343 3.60718 3.05616C3.60718 5.18797 5.33535 6.91614 7.46717 6.91614Z" fill="#00D1EA"/>
</g>
</g>
</g>
</g>
<path d="M7.99999 12.3529C10.388 12.3529 12.324 10.417 12.324 8.02892C12.324 5.64086 10.388 3.70496 7.99999 3.70496C5.61193 3.70496 3.67603 5.64086 3.67603 8.02892C3.67603 10.417 5.61193 12.3529 7.99999 12.3529Z" fill="white"/>
<mask id="mask4_1750_6254" style="mask-type:alpha" maskUnits="userSpaceOnUse" x="4" y="4" width="8" height="8">
<path d="M8.0001 11.8358C10.0939 11.8358 11.7913 10.1384 11.7913 8.04459C11.7913 5.95075 10.0939 4.25336 8.0001 4.25336C5.90626 4.25336 4.20886 5.95075 4.20886 8.04459C4.20886 10.1384 5.90626 11.8358 8.0001 11.8358Z" fill="#C4C4C4"/>
</mask>
<g mask="url(#mask4_1750_6254)">
<g filter="url(#filter24_f_1750_6254)">
<path d="M5.0991 14.5719C7.19294 14.5719 8.89034 12.8745 8.89034 10.7807C8.89034 8.68684 7.19294 6.98944 5.0991 6.98944C3.00526 6.98944 1.30786 8.68684 1.30786 10.7807C1.30786 12.8745 3.00526 14.5719 5.0991 14.5719Z" fill="#F868EC"/>
</g>
<g filter="url(#filter25_f_1750_6254)">
<path d="M4.83067 14.3418C6.92451 14.3418 8.6219 12.6444 8.6219 10.5506C8.6219 8.45676 6.92451 6.75937 4.83067 6.75937C2.73682 6.75937 1.03943 8.45676 1.03943 10.5506C1.03943 12.6444 2.73682 14.3418 4.83067 14.3418Z" fill="#F868EC"/>
</g>
<g filter="url(#filter26_f_1750_6254)">
<path d="M12.0421 15.1885C14.1359 15.1885 15.8333 13.4911 15.8333 11.3972C15.8333 9.30338 14.1359 7.60599 12.0421 7.60599C9.94825 7.60599 8.25085 9.30338 8.25085 11.3972C8.25085 13.4911 9.94825 15.1885 12.0421 15.1885Z" fill="#F98C2A"/>
</g>
<g filter="url(#filter27_f_1750_6254)">
<path d="M14.5323 13.8817C16.6262 13.8817 18.3236 12.1843 18.3236 10.0904C18.3236 7.99659 16.6262 6.29919 14.5323 6.29919C12.4385 6.29919 10.7411 7.99659 10.7411 10.0904C10.7411 12.1843 12.4385 13.8817 14.5323 13.8817Z" fill="#F98C2A"/>
</g>
<g filter="url(#filter28_f_1750_6254)">
<path d="M5.57249 6.90151C7.66633 6.90151 9.36373 5.20411 9.36373 3.11027C9.36373 1.01643 7.66633 -0.680969 5.57249 -0.680969C3.47864 -0.680969 1.78125 1.01643 1.78125 3.11027C1.78125 5.20411 3.47864 6.90151 5.57249 6.90151Z" fill="#00D1EA"/>
</g>
<g filter="url(#filter29_f_1750_6254)">
<path d="M4.67722 7.82286C6.77107 7.82286 8.46846 6.12547 8.46846 4.03162C8.46846 1.93778 6.77107 0.240387 4.67722 0.240387C2.58338 0.240387 0.885986 1.93778 0.885986 4.03162C0.885986 6.12547 2.58338 7.82286 4.67722 7.82286Z" fill="#00D1EA"/>
</g>
</g>
<g opacity="0.4">
<mask id="mask5_1750_6254" style="mask-type:alpha" maskUnits="userSpaceOnUse" x="4" y="4" width="8" height="8">
<path d="M8.0001 11.8358C10.0939 11.8358 11.7913 10.1384 11.7913 8.04459C11.7913 5.95075 10.0939 4.25336 8.0001 4.25336C5.90626 4.25336 4.20886 5.95075 4.20886 8.04459C4.20886 10.1384 5.90626 11.8358 8.0001 11.8358Z" fill="#C4C4C4"/>
</mask>
<g mask="url(#mask5_1750_6254)">
<g filter="url(#filter30_f_1750_6254)">
<path d="M5.06077 14.2652C7.15461 14.2652 8.85201 12.5678 8.85201 10.474C8.85201 8.38013 7.15461 6.68274 5.06077 6.68274C2.96693 6.68274 1.26953 8.38013 1.26953 10.474C1.26953 12.5678 2.96693 14.2652 5.06077 14.2652Z" fill="#F868EC"/>
</g>
<g filter="url(#filter31_f_1750_6254)">
<path d="M11.9247 14.3035C14.0185 14.3035 15.7159 12.6061 15.7159 10.5123C15.7159 8.41843 14.0185 6.72104 11.9247 6.72104C9.83082 6.72104 8.13342 8.41843 8.13342 10.5123C8.13342 12.6061 9.83082 14.3035 11.9247 14.3035Z" fill="#F98C2A"/>
</g>
<g filter="url(#filter32_f_1750_6254)">
<path d="M12.3465 10.6222C14.4404 10.6222 16.1378 8.92478 16.1378 6.83094C16.1378 4.7371 14.4404 3.0397 12.3465 3.0397C10.2527 3.0397 8.5553 4.7371 8.5553 6.83094C8.5553 8.92478 10.2527 10.6222 12.3465 10.6222Z" fill="#F98C2A"/>
</g>
<g filter="url(#filter33_f_1750_6254)">
<path d="M6.32615 7.40114C8.41999 7.40114 10.1174 5.70374 10.1174 3.6099C10.1174 1.51606 8.41999 -0.181335 6.32615 -0.181335C4.23231 -0.181335 2.53491 1.51606 2.53491 3.6099C2.53491 5.70374 4.23231 7.40114 6.32615 7.40114Z" fill="#00D1EA"/>
</g>
<g filter="url(#filter34_f_1750_6254)">
<path d="M7.47642 6.74922C9.57026 6.74922 11.2677 5.05183 11.2677 2.95799C11.2677 0.864143 9.57026 -0.833252 7.47642 -0.833252C5.38258 -0.833252 3.68518 0.864143 3.68518 2.95799C3.68518 5.05183 5.38258 6.74922 7.47642 6.74922Z" fill="#00D1EA"/>
</g>
</g>
</g>
<path fill-rule="evenodd" clip-rule="evenodd" d="M8.82153 9.87036C12.6604 8.14298 15.4047 5.92524 14.9509 4.91687C14.5219 3.96347 11.3875 4.43264 7.80223 5.94674C8.797 5.7602 9.71617 5.65339 10.7876 5.7329C10.9036 5.7415 11.0021 5.75044 11.0851 5.75964C11.816 5.67399 12.3177 5.76081 12.4453 6.04434C12.7355 6.6892 10.9805 8.1075 8.5254 9.21221C6.07033 10.3169 3.84488 10.6897 3.55469 10.0448C3.42616 9.75915 3.69895 9.32171 4.25613 8.827C4.19239 8.52464 4.17695 8.26366 4.17872 8.14931C4.07712 8.1367 3.95306 8.0899 3.86746 7.99177C1.89863 9.25458 0.742126 10.4902 1.04906 11.1723C1.50278 12.1806 4.98264 11.5977 8.82153 9.87036Z" fill="white"/>
</g>
<defs>
<filter id="filter0_f_1750_6254" x="-1.35977" y="-1.12478" width="18.7197" height="18.7196" filterUnits="userSpaceOnUse" color-interpolation-filters="sRGB">
<feFlood flood-opacity="0" result="BackgroundImageFix"/>
<feBlend mode="normal" in="SourceGraphic" in2="BackgroundImageFix" result="shape"/>
<feGaussianBlur stdDeviation="2.06239" result="effect1_foregroundBlur_1750_6254"/>
</filter>
<filter id="filter1_f_1750_6254" x="-4.42676" y="3.59204" width="16.8422" height="16.8421" filterUnits="userSpaceOnUse" color-interpolation-filters="sRGB">
<feFlood flood-opacity="0" result="BackgroundImageFix"/>
<feBlend mode="normal" in="SourceGraphic" in2="BackgroundImageFix" result="shape"/>
<feGaussianBlur stdDeviation="1.59302" result="effect1_foregroundBlur_1750_6254"/>
</filter>
<filter id="filter2_f_1750_6254" x="-4.79749" y="3.27441" width="16.8422" height="16.8421" filterUnits="userSpaceOnUse" color-interpolation-filters="sRGB">
<feFlood flood-opacity="0" result="BackgroundImageFix"/>
<feBlend mode="normal" in="SourceGraphic" in2="BackgroundImageFix" result="shape"/>
<feGaussianBlur stdDeviation="1.59302" result="effect1_foregroundBlur_1750_6254"/>
</filter>
<filter id="filter3_f_1750_6254" x="6.35504" y="5.63834" width="14.4526" height="14.4526" filterUnits="userSpaceOnUse" color-interpolation-filters="sRGB">
<feFlood flood-opacity="0" result="BackgroundImageFix"/>
<feBlend mode="normal" in="SourceGraphic" in2="BackgroundImageFix" result="shape"/>
<feGaussianBlur stdDeviation="0.995637" result="effect1_foregroundBlur_1750_6254"/>
</filter>
<filter id="filter4_f_1750_6254" x="9.79376" y="3.83377" width="14.4526" height="14.4526" filterUnits="userSpaceOnUse" color-interpolation-filters="sRGB">
<feFlood flood-opacity="0" result="BackgroundImageFix"/>
<feBlend mode="normal" in="SourceGraphic" in2="BackgroundImageFix" result="shape"/>
<feGaussianBlur stdDeviation="0.995637" result="effect1_foregroundBlur_1750_6254"/>
</filter>
<filter id="filter5_f_1750_6254" x="-3.7732" y="-6.99933" width="16.8422" height="16.8421" filterUnits="userSpaceOnUse" color-interpolation-filters="sRGB">
<feFlood flood-opacity="0" result="BackgroundImageFix"/>
<feBlend mode="normal" in="SourceGraphic" in2="BackgroundImageFix" result="shape"/>
<feGaussianBlur stdDeviation="1.59302" result="effect1_foregroundBlur_1750_6254"/>
</filter>
<filter id="filter6_f_1750_6254" x="-5.00928" y="-5.72711" width="16.8422" height="16.8421" filterUnits="userSpaceOnUse" color-interpolation-filters="sRGB">
<feFlood flood-opacity="0" result="BackgroundImageFix"/>
<feBlend mode="normal" in="SourceGraphic" in2="BackgroundImageFix" result="shape"/>
<feGaussianBlur stdDeviation="1.59302" result="effect1_foregroundBlur_1750_6254"/>
</filter>
<filter id="filter7_f_1750_6254" x="-4.47962" y="3.16855" width="16.8422" height="16.8421" filterUnits="userSpaceOnUse" color-interpolation-filters="sRGB">
<feFlood flood-opacity="0" result="BackgroundImageFix"/>
<feBlend mode="normal" in="SourceGraphic" in2="BackgroundImageFix" result="shape"/>
<feGaussianBlur stdDeviation="1.59302" result="effect1_foregroundBlur_1750_6254"/>
</filter>
<filter id="filter8_f_1750_6254" x="6.19318" y="4.4162" width="14.4526" height="14.4526" filterUnits="userSpaceOnUse" color-interpolation-filters="sRGB">
<feFlood flood-opacity="0" result="BackgroundImageFix"/>
<feBlend mode="normal" in="SourceGraphic" in2="BackgroundImageFix" result="shape"/>
<feGaussianBlur stdDeviation="0.995637" result="effect1_foregroundBlur_1750_6254"/>
</filter>
<filter id="filter9_f_1750_6254" x="6.77569" y="-0.666963" width="14.4526" height="14.4526" filterUnits="userSpaceOnUse" color-interpolation-filters="sRGB">
<feFlood flood-opacity="0" result="BackgroundImageFix"/>
<feBlend mode="normal" in="SourceGraphic" in2="BackgroundImageFix" result="shape"/>
<feGaussianBlur stdDeviation="0.995637" result="effect1_foregroundBlur_1750_6254"/>
</filter>
<filter id="filter10_f_1750_6254" x="-2.73242" y="-6.30948" width="16.8422" height="16.8421" filterUnits="userSpaceOnUse" color-interpolation-filters="sRGB">
<feFlood flood-opacity="0" result="BackgroundImageFix"/>
<feBlend mode="normal" in="SourceGraphic" in2="BackgroundImageFix" result="shape"/>
<feGaussianBlur stdDeviation="1.59302" result="effect1_foregroundBlur_1750_6254"/>
</filter>
<filter id="filter11_f_1750_6254" x="-1.1438" y="-7.20966" width="16.8422" height="16.8421" filterUnits="userSpaceOnUse" color-interpolation-filters="sRGB">
<feFlood flood-opacity="0" result="BackgroundImageFix"/>
<feBlend mode="normal" in="SourceGraphic" in2="BackgroundImageFix" result="shape"/>
<feGaussianBlur stdDeviation="1.59302" result="effect1_foregroundBlur_1750_6254"/>
</filter>
<filter id="filter12_f_1750_6254" x="0.0151124" y="0.25022" width="15.9695" height="15.9695" filterUnits="userSpaceOnUse" color-interpolation-filters="sRGB">
<feFlood flood-opacity="0" result="BackgroundImageFix"/>
<feBlend mode="normal" in="SourceGraphic" in2="BackgroundImageFix" result="shape"/>
<feGaussianBlur stdDeviation="2.06239" result="effect1_foregroundBlur_1750_6254"/>
</filter>
<filter id="filter13_f_1750_6254" x="-1.99951" y="3.97476" width="14.092" height="14.092" filterUnits="userSpaceOnUse" color-interpolation-filters="sRGB">
<feFlood flood-opacity="0" result="BackgroundImageFix"/>
<feBlend mode="normal" in="SourceGraphic" in2="BackgroundImageFix" result="shape"/>
<feGaussianBlur stdDeviation="1.59302" result="effect1_foregroundBlur_1750_6254"/>
</filter>
<filter id="filter14_f_1750_6254" x="-2.27295" y="3.74048" width="14.092" height="14.092" filterUnits="userSpaceOnUse" color-interpolation-filters="sRGB">
<feFlood flood-opacity="0" result="BackgroundImageFix"/>
<feBlend mode="normal" in="SourceGraphic" in2="BackgroundImageFix" result="shape"/>
<feGaussianBlur stdDeviation="1.59302" result="effect1_foregroundBlur_1750_6254"/>
</filter>
<filter id="filter15_f_1750_6254" x="6.26398" y="5.7973" width="11.7025" height="11.7025" filterUnits="userSpaceOnUse" color-interpolation-filters="sRGB">
<feFlood flood-opacity="0" result="BackgroundImageFix"/>
<feBlend mode="normal" in="SourceGraphic" in2="BackgroundImageFix" result="shape"/>
<feGaussianBlur stdDeviation="0.995637" result="effect1_foregroundBlur_1750_6254"/>
</filter>
<filter id="filter16_f_1750_6254" x="8.7995" y="4.4668" width="11.7025" height="11.7025" filterUnits="userSpaceOnUse" color-interpolation-filters="sRGB">
<feFlood flood-opacity="0" result="BackgroundImageFix"/>
<feBlend mode="normal" in="SourceGraphic" in2="BackgroundImageFix" result="shape"/>
<feGaussianBlur stdDeviation="0.995637" result="effect1_foregroundBlur_1750_6254"/>
</filter>
<filter id="filter17_f_1750_6254" x="-1.51758" y="-3.83472" width="14.092" height="14.092" filterUnits="userSpaceOnUse" color-interpolation-filters="sRGB">
<feFlood flood-opacity="0" result="BackgroundImageFix"/>
<feBlend mode="normal" in="SourceGraphic" in2="BackgroundImageFix" result="shape"/>
<feGaussianBlur stdDeviation="1.59302" result="effect1_foregroundBlur_1750_6254"/>
</filter>
<filter id="filter18_f_1750_6254" x="-2.42896" y="-2.89661" width="14.092" height="14.092" filterUnits="userSpaceOnUse" color-interpolation-filters="sRGB">
<feFlood flood-opacity="0" result="BackgroundImageFix"/>
<feBlend mode="normal" in="SourceGraphic" in2="BackgroundImageFix" result="shape"/>
<feGaussianBlur stdDeviation="1.59302" result="effect1_foregroundBlur_1750_6254"/>
</filter>
<filter id="filter19_f_1750_6254" x="-2.0387" y="3.66244" width="14.092" height="14.092" filterUnits="userSpaceOnUse" color-interpolation-filters="sRGB">
<feFlood flood-opacity="0" result="BackgroundImageFix"/>
<feBlend mode="normal" in="SourceGraphic" in2="BackgroundImageFix" result="shape"/>
<feGaussianBlur stdDeviation="1.59302" result="effect1_foregroundBlur_1750_6254"/>
</filter>
<filter id="filter20_f_1750_6254" x="6.14471" y="4.89618" width="11.7025" height="11.7025" filterUnits="userSpaceOnUse" color-interpolation-filters="sRGB">
<feFlood flood-opacity="0" result="BackgroundImageFix"/>
<feBlend mode="normal" in="SourceGraphic" in2="BackgroundImageFix" result="shape"/>
<feGaussianBlur stdDeviation="0.995637" result="effect1_foregroundBlur_1750_6254"/>
</filter>
<filter id="filter21_f_1750_6254" x="6.57416" y="1.14816" width="11.7025" height="11.7025" filterUnits="userSpaceOnUse" color-interpolation-filters="sRGB">
<feFlood flood-opacity="0" result="BackgroundImageFix"/>
<feBlend mode="normal" in="SourceGraphic" in2="BackgroundImageFix" result="shape"/>
<feGaussianBlur stdDeviation="0.995637" result="effect1_foregroundBlur_1750_6254"/>
</filter>
<filter id="filter22_f_1750_6254" x="-0.750368" y="-3.32614" width="14.092" height="14.092" filterUnits="userSpaceOnUse" color-interpolation-filters="sRGB">
<feFlood flood-opacity="0" result="BackgroundImageFix"/>
<feBlend mode="normal" in="SourceGraphic" in2="BackgroundImageFix" result="shape"/>
<feGaussianBlur stdDeviation="1.59302" result="effect1_foregroundBlur_1750_6254"/>
</filter>
<filter id="filter23_f_1750_6254" x="0.421141" y="-3.98987" width="14.092" height="14.092" filterUnits="userSpaceOnUse" color-interpolation-filters="sRGB">
<feFlood flood-opacity="0" result="BackgroundImageFix"/>
<feBlend mode="normal" in="SourceGraphic" in2="BackgroundImageFix" result="shape"/>
<feGaussianBlur stdDeviation="1.59302" result="effect1_foregroundBlur_1750_6254"/>
</filter>
<filter id="filter24_f_1750_6254" x="-1.87818" y="3.8034" width="13.9546" height="13.9546" filterUnits="userSpaceOnUse" color-interpolation-filters="sRGB">
<feFlood flood-opacity="0" result="BackgroundImageFix"/>
<feBlend mode="normal" in="SourceGraphic" in2="BackgroundImageFix" result="shape"/>
<feGaussianBlur stdDeviation="1.59302" result="effect1_foregroundBlur_1750_6254"/>
</filter>
<filter id="filter25_f_1750_6254" x="-2.14661" y="3.57333" width="13.9546" height="13.9546" filterUnits="userSpaceOnUse" color-interpolation-filters="sRGB">
<feFlood flood-opacity="0" result="BackgroundImageFix"/>
<feBlend mode="normal" in="SourceGraphic" in2="BackgroundImageFix" result="shape"/>
<feGaussianBlur stdDeviation="1.59302" result="effect1_foregroundBlur_1750_6254"/>
</filter>
<filter id="filter26_f_1750_6254" x="6.25958" y="5.61471" width="11.5651" height="11.565" filterUnits="userSpaceOnUse" color-interpolation-filters="sRGB">
<feFlood flood-opacity="0" result="BackgroundImageFix"/>
<feBlend mode="normal" in="SourceGraphic" in2="BackgroundImageFix" result="shape"/>
<feGaussianBlur stdDeviation="0.995637" result="effect1_foregroundBlur_1750_6254"/>
</filter>
<filter id="filter27_f_1750_6254" x="8.74982" y="4.30792" width="11.5651" height="11.565" filterUnits="userSpaceOnUse" color-interpolation-filters="sRGB">
<feFlood flood-opacity="0" result="BackgroundImageFix"/>
<feBlend mode="normal" in="SourceGraphic" in2="BackgroundImageFix" result="shape"/>
<feGaussianBlur stdDeviation="0.995637" result="effect1_foregroundBlur_1750_6254"/>
</filter>
<filter id="filter28_f_1750_6254" x="-1.40479" y="-3.86701" width="13.9546" height="13.9546" filterUnits="userSpaceOnUse" color-interpolation-filters="sRGB">
<feFlood flood-opacity="0" result="BackgroundImageFix"/>
<feBlend mode="normal" in="SourceGraphic" in2="BackgroundImageFix" result="shape"/>
<feGaussianBlur stdDeviation="1.59302" result="effect1_foregroundBlur_1750_6254"/>
</filter>
<filter id="filter29_f_1750_6254" x="-2.30005" y="-2.94565" width="13.9546" height="13.9546" filterUnits="userSpaceOnUse" color-interpolation-filters="sRGB">
<feFlood flood-opacity="0" result="BackgroundImageFix"/>
<feBlend mode="normal" in="SourceGraphic" in2="BackgroundImageFix" result="shape"/>
<feGaussianBlur stdDeviation="1.59302" result="effect1_foregroundBlur_1750_6254"/>
</filter>
<filter id="filter30_f_1750_6254" x="-1.91651" y="3.4967" width="13.9546" height="13.9546" filterUnits="userSpaceOnUse" color-interpolation-filters="sRGB">
<feFlood flood-opacity="0" result="BackgroundImageFix"/>
<feBlend mode="normal" in="SourceGraphic" in2="BackgroundImageFix" result="shape"/>
<feGaussianBlur stdDeviation="1.59302" result="effect1_foregroundBlur_1750_6254"/>
</filter>
<filter id="filter31_f_1750_6254" x="6.14215" y="4.72977" width="11.5651" height="11.565" filterUnits="userSpaceOnUse" color-interpolation-filters="sRGB">
<feFlood flood-opacity="0" result="BackgroundImageFix"/>
<feBlend mode="normal" in="SourceGraphic" in2="BackgroundImageFix" result="shape"/>
<feGaussianBlur stdDeviation="0.995637" result="effect1_foregroundBlur_1750_6254"/>
</filter>
<filter id="filter32_f_1750_6254" x="6.56402" y="1.04843" width="11.5651" height="11.565" filterUnits="userSpaceOnUse" color-interpolation-filters="sRGB">
<feFlood flood-opacity="0" result="BackgroundImageFix"/>
<feBlend mode="normal" in="SourceGraphic" in2="BackgroundImageFix" result="shape"/>
<feGaussianBlur stdDeviation="0.995637" result="effect1_foregroundBlur_1750_6254"/>
</filter>
<filter id="filter33_f_1750_6254" x="-0.651125" y="-3.36737" width="13.9546" height="13.9546" filterUnits="userSpaceOnUse" color-interpolation-filters="sRGB">
<feFlood flood-opacity="0" result="BackgroundImageFix"/>
<feBlend mode="normal" in="SourceGraphic" in2="BackgroundImageFix" result="shape"/>
<feGaussianBlur stdDeviation="1.59302" result="effect1_foregroundBlur_1750_6254"/>
</filter>
<filter id="filter34_f_1750_6254" x="0.499144" y="-4.01929" width="13.9546" height="13.9546" filterUnits="userSpaceOnUse" color-interpolation-filters="sRGB">
<feFlood flood-opacity="0" result="BackgroundImageFix"/>
<feBlend mode="normal" in="SourceGraphic" in2="BackgroundImageFix" result="shape"/>
<feGaussianBlur stdDeviation="1.59302" result="effect1_foregroundBlur_1750_6254"/>
</filter>
<clipPath id="clip0_1750_6254">
<rect width="16" height="16" rx="4" fill="white"/>
</clipPath>
</defs>
</svg>
