<svg width="17" height="16" viewBox="0 0 17 16" fill="none" xmlns="http://www.w3.org/2000/svg">
<g clip-path="url(#clip0_1677_1859)">
<rect x="0.466675" width="16" height="16" rx="4" fill="white" fill-opacity="0.08"/>
<path d="M3.92193 4.07164C3.99877 3.98039 4.0756 3.88915 4.15244 3.7979C4.15724 3.7931 4.16205 3.7931 4.16685 3.7883C4.17645 3.77869 4.18606 3.77389 4.19086 3.76429L4.19566 3.75468C4.24849 3.70185 4.31092 3.64903 4.37815 3.601C4.61827 3.41851 4.8632 3.27924 5.12733 3.1928C5.96775 2.89985 6.89941 3.07754 7.63418 3.76909C8.65709 4.72957 8.56585 6.27114 7.74944 7.29885C6.71692 8.83081 4.94484 10.9631 7.39886 12.8744C7.84068 13.2202 8.16725 13.5035 9.55994 13.9021C8.65229 14.0702 7.80707 14.0174 6.8706 13.7773C6.20787 13.4027 5.16575 12.6007 4.80557 11.5154C4.2677 9.87293 5.75164 7.41411 6.4672 6.46803C7.45169 5.15698 5.85729 3.74027 4.69031 5.32506C4.0756 6.15108 3.00947 8.48504 3.37926 10.2139C3.59536 11.1936 3.88831 11.9092 5.03608 12.8936C4.82478 12.7688 4.61347 12.6247 4.41657 12.4662C1.74644 9.97859 2.05379 6.12706 3.92193 4.06684V4.07164Z" fill="url(#paint0_linear_1677_1859)"/>
<path d="M13.0177 11.9284C12.9408 12.0196 12.864 12.1109 12.7872 12.2021C12.7824 12.2069 12.7775 12.2069 12.7727 12.2117C12.7679 12.2213 12.7535 12.2261 12.7487 12.2357L12.7391 12.2453C12.6863 12.2981 12.6239 12.351 12.5566 12.399C12.3165 12.5815 12.0668 12.7208 11.8075 12.8072C10.967 13.1001 10.0354 12.9225 9.30061 12.2309C8.2777 11.2704 8.36895 9.72886 9.18535 8.70115C10.2179 7.16918 11.99 5.03692 9.53593 3.12557C9.09411 2.77979 8.76755 2.49645 7.37485 2.09785C8.2825 1.92977 9.12773 1.9826 10.0642 2.22272C10.7269 2.5973 11.769 3.3993 12.1292 4.48465C12.6671 6.12706 11.1832 8.58589 10.4676 9.53196C9.4831 10.843 11.0775 12.2597 12.2445 10.6749C12.8592 9.84892 13.9253 7.51496 13.5555 5.78609C13.3394 4.80641 13.0465 4.09085 11.8987 3.10636C12.11 3.23122 12.3213 3.37529 12.5182 3.53377C15.1884 6.02141 14.881 9.87293 13.0129 11.9332L13.0177 11.9284Z" fill="url(#paint1_linear_1677_1859)"/>
</g>
<defs>
<linearGradient id="paint0_linear_1677_1859" x1="3.57194" y1="8" x2="21.8135" y2="8" gradientUnits="userSpaceOnUse">
<stop stop-color="#0082FA"/>
<stop offset="1" stop-color="#00F2FE"/>
</linearGradient>
<linearGradient id="paint1_linear_1677_1859" x1="2.91826" y1="7.47134" x2="13.6996" y2="7.47134" gradientUnits="userSpaceOnUse">
<stop stop-color="#0082FA"/>
<stop offset="1" stop-color="#00F2FE"/>
</linearGradient>
<clipPath id="clip0_1677_1859">
<rect x="0.466675" width="16" height="16" rx="4" fill="white"/>
</clipPath>
</defs>
</svg>
