<?xml version="1.0" encoding="UTF-8" standalone="no"?>
<svg
   width="16"
   height="16"
   viewBox="0 0 16 16"
   fill="none"
   version="1.1"
   id="svg2"
   sodipodi:docname="Injective (INJ).svg"
   inkscape:version="1.3.2 (091e20e, 2023-11-25, custom)"
   xmlns:inkscape="http://www.inkscape.org/namespaces/inkscape"
   xmlns:sodipodi="http://sodipodi.sourceforge.net/DTD/sodipodi-0.dtd"
   xmlns="http://www.w3.org/2000/svg"
   xmlns:svg="http://www.w3.org/2000/svg">
  <sodipodi:namedview
     id="namedview2"
     pagecolor="#ffffff"
     bordercolor="#000000"
     borderopacity="0.25"
     inkscape:showpageshadow="2"
     inkscape:pageopacity="0.0"
     inkscape:pagecheckerboard="0"
     inkscape:deskcolor="#d1d1d1"
     inkscape:zoom="51.3125"
     inkscape:cx="8.4969549"
     inkscape:cy="8"
     inkscape:window-width="1920"
     inkscape:window-height="1017"
     inkscape:window-x="1912"
     inkscape:window-y="-8"
     inkscape:window-maximized="1"
     inkscape:current-layer="svg2" />
  <g
     clip-path="url(#clip0_1677_1859)"
     id="g1"
     transform="translate(-0.05846529)">
    <rect
       x="0.066162102"
       width="16"
       height="16"
       fill="#4d3dff"
       id="rect1"
       y="0" />
    <path
       d="m 9.26,2.14001 -0.036,0.072 c 1.248,0.54 1.956,1.656 1.956,2.88 0,1.32 -0.864,2.52 -2.544,3.54 L 8.36,8.80001 C 7.1,9.56801 6.464,10.432 6.464,11.476 c 0,1.344 1.056,2.328 2.508,2.328 2.328,0 5.028,-2.484 5.028,-5.79599 0,-0.54 -0.072,-1.068 -0.204,-1.572 l -0.084,0.024 c 0.036,0.276 0.048,0.48 0.048,0.672 0,1.956 -1.104,3.63599 -2.952,4.75199 l -0.18,0.108 c -0.396,0.228 -0.732,0.36 -1.068,0.36 -0.444,0 -0.78,-0.288 -0.78,-0.708 0,-0.36 0.24,-0.72 1.02,-1.176 l 0.228,-0.132 c 1.728,-1.00799 2.688,-2.42399 2.688,-3.99599 0,-1.992 -1.488,-3.636 -3.456,-4.2 z M 6.74,13.864 6.776,13.792 C 5.528,13.252 4.82,12.136 4.82,10.912 4.82,9.59201 5.684,8.39201 7.364,7.37201 l 0.276,-0.168 c 1.26,-0.768 1.896,-1.632 1.896,-2.676 0,-1.344 -1.056,-2.328 -2.508,-2.328 -2.328,0 -5.028,2.484 -5.028,5.796 0,0.54 0.072,1.068 0.204,1.572 l 0.084,-0.024 c -0.036,-0.276 -0.048,-0.48 -0.048,-0.672 0,-1.956 1.104,-3.636 2.952,-4.752 l 0.18,-0.108 c 0.396,-0.228 0.732,-0.36 1.068,-0.36 0.444,0 0.78,0.288 0.78,0.708 0,0.36 -0.24,0.72 -1.02,1.176 l -0.228,0.132 c -1.728,1.008 -2.688,2.424 -2.688,3.996 0,1.99199 1.488,3.63599 3.456,4.19999 z"
       fill="#ffffff"
       id="path1" />
  </g>
  <defs
     id="defs2">
    <clipPath
       id="clip0_1677_1859">
      <path
         d="m 0.0661621,8 c 0,-3.77124 0,-5.65685 1.1715779,-6.82843 C 2.40931,0 4.29493,0 8.06616,0 11.8374,0 13.723,0 14.8946,1.17157 16.0662,2.34315 16.0662,4.22876 16.0662,8 c 0,3.7712 0,5.6569 -1.1716,6.8284 C 13.723,16 11.8374,16 8.06616,16 4.29493,16 2.40931,16 1.23774,14.8284 0.0661621,13.6569 0.0661621,11.7712 0.0661621,8 Z"
         fill="#ffffff"
         id="path2" />
    </clipPath>
  </defs>
</svg>
