<svg width="16" height="16" viewBox="0 0 16 16" fill="none" xmlns="http://www.w3.org/2000/svg">
<g clip-path="url(#clip0_1677_1859)">
<rect width="16" height="16" rx="4" fill="white" fill-opacity="0.08"/>
<path d="M3.45525 4.07164C3.53209 3.98039 3.60893 3.88915 3.68577 3.7979C3.69057 3.7931 3.69537 3.7931 3.70017 3.7883C3.70978 3.77869 3.71938 3.77389 3.72419 3.76429L3.72899 3.75468C3.78182 3.70185 3.84425 3.64903 3.91148 3.601C4.1516 3.41851 4.39652 3.27924 4.66065 3.1928C5.50107 2.89985 6.43274 3.07754 7.16751 3.76909C8.19042 4.72957 8.09917 6.27114 7.28276 7.29885C6.25025 8.83081 4.47816 10.9631 6.93219 12.8744C7.37401 13.2202 7.70057 13.5035 9.09327 13.9021C8.18561 14.0702 7.34039 14.0174 6.40392 13.7773C5.74119 13.4027 4.69907 12.6007 4.33889 11.5154C3.80102 9.87293 5.28497 7.41411 6.00052 6.46803C6.98501 5.15698 5.39062 3.74027 4.22364 5.32506C3.60893 6.15108 2.5428 8.48504 2.91258 10.2139C3.12869 11.1936 3.42164 11.9092 4.56941 12.8936C4.3581 12.7688 4.1468 12.6247 3.9499 12.4662C1.27977 9.97859 1.58712 6.12706 3.45525 4.06684V4.07164Z" fill="url(#paint0_linear_1677_1859)"/>
<path d="M12.551 11.9284C12.4742 12.0196 12.3973 12.1109 12.3205 12.2021C12.3157 12.2069 12.3109 12.2069 12.3061 12.2117C12.3013 12.2213 12.2869 12.2261 12.2821 12.2357L12.2725 12.2453C12.2196 12.2981 12.1572 12.351 12.09 12.399C11.8498 12.5815 11.6001 12.7208 11.3408 12.8072C10.5004 13.1001 9.5687 12.9225 8.83394 12.2309C7.81103 11.2704 7.90227 9.72886 8.71868 8.70115C9.7512 7.16918 11.5233 5.03692 9.06926 3.12557C8.62743 2.77979 8.30087 2.49645 6.90818 2.09785C7.81583 1.92977 8.66105 1.9826 9.59752 2.22272C10.2602 2.5973 11.3024 3.3993 11.6625 4.48465C12.2004 6.12706 10.7165 8.58589 10.0009 9.53196C9.01643 10.843 10.6108 12.2597 11.7778 10.6749C12.3925 9.84892 13.4586 7.51496 13.0889 5.78609C12.8728 4.80641 12.5798 4.09085 11.432 3.10636C11.6433 3.23122 11.8546 3.37529 12.0515 3.53377C14.7217 6.02141 14.4143 9.87293 12.5462 11.9332L12.551 11.9284Z" fill="url(#paint1_linear_1677_1859)"/>
</g>
<defs>
<linearGradient id="paint0_linear_1677_1859" x1="3.10527" y1="8" x2="21.3468" y2="8" gradientUnits="userSpaceOnUse">
<stop stop-color="#0082FA"/>
<stop offset="1" stop-color="#00F2FE"/>
</linearGradient>
<linearGradient id="paint1_linear_1677_1859" x1="2.45159" y1="7.47134" x2="13.233" y2="7.47134" gradientUnits="userSpaceOnUse">
<stop stop-color="#0082FA"/>
<stop offset="1" stop-color="#00F2FE"/>
</linearGradient>
<clipPath id="clip0_1677_1859">
<rect width="16" height="16" rx="4" fill="white"/>
</clipPath>
</defs>
</svg>
