<svg width="17" height="16" viewBox="0 0 17 16" fill="none" xmlns="http://www.w3.org/2000/svg">
<g clip-path="url(#clip0_1750_6616)">
<rect x="0.466675" width="16" height="16" rx="4" fill="#0C192B"/>
<path d="M6.10868 10.6964L3.35587 11.006L4.97228 7.2764L3.31747 5.0204L7.34108 4.562L8.43428 2.048L10.8295 5.3036L13.5823 4.994L11.9731 8.7056L13.6159 10.946L9.61267 11.402L8.50267 13.952L6.10868 10.6964ZM7.25227 10.4492C7.14668 10.5008 7.03387 10.544 6.91748 10.5764L6.81188 10.6052L8.36347 12.7148L8.91428 11.4476L8.81468 11.4344C8.27228 11.366 7.77908 11.0732 7.46108 10.634L7.30627 10.4204L7.25227 10.4492ZM6.71228 8.5364L7.96388 10.268C8.21828 10.6196 8.62988 10.8296 9.06427 10.8296C9.11468 10.8296 9.16507 10.8272 9.21427 10.8212L12.4807 10.4492L11.1799 8.6744C11.1151 8.5868 11.0407 8.5076 10.9579 8.438L10.8811 8.3744L9.94987 10.478L8.32987 8.3336L6.71228 8.5364ZM6.76627 6.428C6.28147 6.4796 5.85908 6.7904 5.66467 7.2392L4.35307 10.2668L6.53227 10.022C6.64028 10.01 6.74587 9.9848 6.84788 9.9476L6.94147 9.9128L5.59267 8.0504L8.25188 7.7132L8.88427 6.2024L6.76627 6.428ZM8.82427 7.9556L9.80947 9.26L10.4107 7.9028L10.6747 7.3052C10.8727 6.8576 10.8163 6.3356 10.5259 5.942L8.57348 3.2852L7.69508 5.3036C7.65188 5.4032 7.62068 5.5076 7.60148 5.6156L7.58468 5.714L9.86347 5.4728L8.82427 7.9556ZM11.2183 5.8868L11.2567 5.9792C11.4679 6.4844 11.4631 7.0604 11.2423 7.5584L11.1355 7.7984L11.1871 7.8332C11.2855 7.8992 11.3779 7.976 11.4631 8.0612L11.5411 8.138L12.5839 5.732L11.2183 5.8868ZM4.45267 5.5172L5.28307 6.65L5.34427 6.5708C5.67427 6.1424 6.16988 5.864 6.70148 5.8076L6.96188 5.78L6.96667 5.7164C6.97507 5.5856 6.99787 5.4548 7.03267 5.3276L7.06267 5.2196L4.45267 5.5172Z" fill="url(#paint0_linear_1750_6616)"/>
<path d="M7.88588 14C6.15788 13.8332 4.60507 12.9344 3.58867 11.51L4.28467 11.432C4.39987 11.5736 4.52227 11.7092 4.64827 11.8364C5.40307 12.5948 6.34748 13.106 7.38308 13.3172L7.88588 14Z" fill="url(#paint1_linear_1750_6616)"/>
<path d="M9.33547 13.3556C10.4563 13.1744 11.4751 12.65 12.2851 11.8364C12.3571 11.7632 12.4303 11.6852 12.5035 11.6036L13.3471 11.5076C12.3343 12.9308 10.7839 13.8308 9.05587 14L9.33547 13.3556Z" fill="url(#paint2_linear_1750_6616)"/>
<path d="M13.5187 9.9236C13.7491 9.3104 13.8667 8.6636 13.8667 8C13.8667 7.4144 13.7743 6.8384 13.5931 6.2888L13.9315 5.5088C14.2867 6.2924 14.4667 7.13 14.4667 8C14.4667 8.8688 14.2867 9.7052 13.9327 10.4888L13.5187 9.9236Z" fill="url(#paint3_linear_1750_6616)"/>
<path d="M3.00427 10.4972C2.64787 9.7112 2.46667 8.8724 2.46667 8C2.46667 7.1228 2.64907 6.2792 3.01027 5.4908L3.42307 6.0548C3.18667 6.674 3.06667 7.328 3.06667 8C3.06667 8.588 3.15907 9.1652 3.34147 9.7172L3.00427 10.4972Z" fill="url(#paint4_linear_1750_6616)"/>
<path d="M3.61387 4.4552C4.62907 3.0536 6.16987 2.1656 7.88228 2L7.60267 2.6432C6.48067 2.8232 5.45947 3.3488 4.64827 4.1636C4.58707 4.2248 4.52587 4.2908 4.46467 4.358L3.61387 4.4552Z" fill="url(#paint5_linear_1750_6616)"/>
<path d="M12.6499 4.568C12.5347 4.4264 12.4123 4.2908 12.2851 4.1636C11.5315 3.4064 10.5883 2.8952 9.55508 2.684L9.05228 2C10.7791 2.168 12.3295 3.0668 13.3447 4.49L12.6499 4.568Z" fill="url(#paint6_linear_1750_6616)"/>
</g>
<defs>
<linearGradient id="paint0_linear_1750_6616" x1="2.819" y1="12.869" x2="12.1561" y2="2.07619" gradientUnits="userSpaceOnUse">
<stop stop-color="#009DDE"/>
<stop offset="0.5" stop-color="#694D9F"/>
<stop offset="1" stop-color="#ED3554"/>
</linearGradient>
<linearGradient id="paint1_linear_1750_6616" x1="5.40543" y1="13.3048" x2="43.9241" y2="-9.71385" gradientUnits="userSpaceOnUse">
<stop stop-color="#009DDE"/>
<stop offset="0.5" stop-color="#694D9F"/>
<stop offset="1" stop-color="#ED3554"/>
</linearGradient>
<linearGradient id="paint2_linear_1750_6616" x1="-2.41162" y1="26.1405" x2="36.7313" y2="3.40567" gradientUnits="userSpaceOnUse">
<stop stop-color="#009DDE"/>
<stop offset="0.5" stop-color="#694D9F"/>
<stop offset="1" stop-color="#ED3554"/>
</linearGradient>
<linearGradient id="paint3_linear_1750_6616" x1="-88.1451" y1="26.2451" x2="-79.8587" y2="-17.2847" gradientUnits="userSpaceOnUse">
<stop stop-color="#009DDE"/>
<stop offset="0.5" stop-color="#694D9F"/>
<stop offset="1" stop-color="#ED3554"/>
</linearGradient>
<linearGradient id="paint4_linear_1750_6616" x1="-17.2464" y1="13.0617" x2="-8.97654" y2="-30.2279" gradientUnits="userSpaceOnUse">
<stop stop-color="#009DDE"/>
<stop offset="0.5" stop-color="#694D9F"/>
<stop offset="1" stop-color="#ED3554"/>
</linearGradient>
<linearGradient id="paint5_linear_1750_6616" x1="-7.84372" y1="36.9788" x2="31.7001" y2="14.233" gradientUnits="userSpaceOnUse">
<stop stop-color="#009DDE"/>
<stop offset="0.5" stop-color="#694D9F"/>
<stop offset="1" stop-color="#ED3554"/>
</linearGradient>
<linearGradient id="paint6_linear_1750_6616" x1="2.61664" y1="11.8268" x2="11.9764" y2="2.46707" gradientUnits="userSpaceOnUse">
<stop stop-color="#009DDE"/>
<stop offset="0.5" stop-color="#694D9F"/>
<stop offset="1" stop-color="#ED3554"/>
</linearGradient>
<clipPath id="clip0_1750_6616">
<rect x="0.466675" width="16" height="16" rx="4" fill="white"/>
</clipPath>
</defs>
</svg>
