<svg width="16" height="16" viewBox="0 0 16 16" fill="none" xmlns="http://www.w3.org/2000/svg">
<g clip-path="url(#clip0_1750_6616)">
<rect width="16" height="16" rx="4" fill="#0C192B"/>
<path d="M5.642 10.6964L2.8892 11.006L4.5056 7.2764L2.8508 5.0204L6.8744 4.562L7.9676 2.048L10.3628 5.3036L13.1156 4.994L11.5064 8.7056L13.1492 10.946L9.146 11.402L8.036 13.952L5.642 10.6964ZM6.7856 10.4492C6.68 10.5008 6.5672 10.544 6.4508 10.5764L6.3452 10.6052L7.8968 12.7148L8.4476 11.4476L8.348 11.4344C7.8056 11.366 7.3124 11.0732 6.9944 10.634L6.8396 10.4204L6.7856 10.4492ZM6.2456 8.5364L7.4972 10.268C7.7516 10.6196 8.1632 10.8296 8.5976 10.8296C8.648 10.8296 8.6984 10.8272 8.7476 10.8212L12.014 10.4492L10.7132 8.6744C10.6484 8.5868 10.574 8.5076 10.4912 8.438L10.4144 8.3744L9.4832 10.478L7.8632 8.3336L6.2456 8.5364ZM6.2996 6.428C5.8148 6.4796 5.3924 6.7904 5.198 7.2392L3.8864 10.2668L6.0656 10.022C6.1736 10.01 6.2792 9.9848 6.3812 9.9476L6.4748 9.9128L5.126 8.0504L7.7852 7.7132L8.4176 6.2024L6.2996 6.428ZM8.3576 7.9556L9.3428 9.26L9.944 7.9028L10.208 7.3052C10.406 6.8576 10.3496 6.3356 10.0592 5.942L8.1068 3.2852L7.2284 5.3036C7.1852 5.4032 7.154 5.5076 7.1348 5.6156L7.118 5.714L9.3968 5.4728L8.3576 7.9556ZM10.7516 5.8868L10.79 5.9792C11.0012 6.4844 10.9964 7.0604 10.7756 7.5584L10.6688 7.7984L10.7204 7.8332C10.8188 7.8992 10.9112 7.976 10.9964 8.0612L11.0744 8.138L12.1172 5.732L10.7516 5.8868ZM3.986 5.5172L4.8164 6.65L4.8776 6.5708C5.2076 6.1424 5.7032 5.864 6.2348 5.8076L6.4952 5.78L6.5 5.7164C6.5084 5.5856 6.5312 5.4548 6.566 5.3276L6.596 5.2196L3.986 5.5172Z" fill="url(#paint0_linear_1750_6616)"/>
<path d="M7.4192 14C5.6912 13.8332 4.1384 12.9344 3.122 11.51L3.818 11.432C3.9332 11.5736 4.0556 11.7092 4.1816 11.8364C4.9364 12.5948 5.8808 13.106 6.9164 13.3172L7.4192 14Z" fill="url(#paint1_linear_1750_6616)"/>
<path d="M8.8688 13.3556C9.9896 13.1744 11.0084 12.65 11.8184 11.8364C11.8904 11.7632 11.9636 11.6852 12.0368 11.6036L12.8804 11.5076C11.8676 12.9308 10.3172 13.8308 8.5892 14L8.8688 13.3556Z" fill="url(#paint2_linear_1750_6616)"/>
<path d="M13.052 9.9236C13.2824 9.3104 13.4 8.6636 13.4 8C13.4 7.4144 13.3076 6.8384 13.1264 6.2888L13.4648 5.5088C13.82 6.2924 14 7.13 14 8C14 8.8688 13.82 9.7052 13.466 10.4888L13.052 9.9236Z" fill="url(#paint3_linear_1750_6616)"/>
<path d="M2.5376 10.4972C2.1812 9.7112 2 8.8724 2 8C2 7.1228 2.1824 6.2792 2.5436 5.4908L2.9564 6.0548C2.72 6.674 2.6 7.328 2.6 8C2.6 8.588 2.6924 9.1652 2.8748 9.7172L2.5376 10.4972Z" fill="url(#paint4_linear_1750_6616)"/>
<path d="M3.1472 4.4552C4.1624 3.0536 5.7032 2.1656 7.4156 2L7.136 2.6432C6.014 2.8232 4.9928 3.3488 4.1816 4.1636C4.1204 4.2248 4.0592 4.2908 3.998 4.358L3.1472 4.4552Z" fill="url(#paint5_linear_1750_6616)"/>
<path d="M12.1832 4.568C12.068 4.4264 11.9456 4.2908 11.8184 4.1636C11.0648 3.4064 10.1216 2.8952 9.0884 2.684L8.5856 2C10.3124 2.168 11.8628 3.0668 12.878 4.49L12.1832 4.568Z" fill="url(#paint6_linear_1750_6616)"/>
</g>
<defs>
<linearGradient id="paint0_linear_1750_6616" x1="2.35233" y1="12.869" x2="11.6894" y2="2.07619" gradientUnits="userSpaceOnUse">
<stop stop-color="#009DDE"/>
<stop offset="0.5" stop-color="#694D9F"/>
<stop offset="1" stop-color="#ED3554"/>
</linearGradient>
<linearGradient id="paint1_linear_1750_6616" x1="4.93876" y1="13.3048" x2="43.4574" y2="-9.71385" gradientUnits="userSpaceOnUse">
<stop stop-color="#009DDE"/>
<stop offset="0.5" stop-color="#694D9F"/>
<stop offset="1" stop-color="#ED3554"/>
</linearGradient>
<linearGradient id="paint2_linear_1750_6616" x1="-2.87829" y1="26.1405" x2="36.2646" y2="3.40567" gradientUnits="userSpaceOnUse">
<stop stop-color="#009DDE"/>
<stop offset="0.5" stop-color="#694D9F"/>
<stop offset="1" stop-color="#ED3554"/>
</linearGradient>
<linearGradient id="paint3_linear_1750_6616" x1="-88.6118" y1="26.2451" x2="-80.3254" y2="-17.2847" gradientUnits="userSpaceOnUse">
<stop stop-color="#009DDE"/>
<stop offset="0.5" stop-color="#694D9F"/>
<stop offset="1" stop-color="#ED3554"/>
</linearGradient>
<linearGradient id="paint4_linear_1750_6616" x1="-17.7131" y1="13.0617" x2="-9.44321" y2="-30.2279" gradientUnits="userSpaceOnUse">
<stop stop-color="#009DDE"/>
<stop offset="0.5" stop-color="#694D9F"/>
<stop offset="1" stop-color="#ED3554"/>
</linearGradient>
<linearGradient id="paint5_linear_1750_6616" x1="-8.31039" y1="36.9788" x2="31.2334" y2="14.233" gradientUnits="userSpaceOnUse">
<stop stop-color="#009DDE"/>
<stop offset="0.5" stop-color="#694D9F"/>
<stop offset="1" stop-color="#ED3554"/>
</linearGradient>
<linearGradient id="paint6_linear_1750_6616" x1="2.14997" y1="11.8268" x2="11.5097" y2="2.46707" gradientUnits="userSpaceOnUse">
<stop stop-color="#009DDE"/>
<stop offset="0.5" stop-color="#694D9F"/>
<stop offset="1" stop-color="#ED3554"/>
</linearGradient>
<clipPath id="clip0_1750_6616">
<rect width="16" height="16" rx="4" fill="white"/>
</clipPath>
</defs>
</svg>
