<svg width="16" height="16" viewBox="0 0 16 16" fill="none" xmlns="http://www.w3.org/2000/svg">
<g clip-path="url(#clip0_1750_6803)">
<rect width="16" height="16" rx="4" fill="white" fill-opacity="0.08"/>
<path fill-rule="evenodd" clip-rule="evenodd" d="M3.95996 4V5.99975L5.96021 7.9998L3.96016 9.99965V12H6.0483L8.00425 10.044L9.96001 12H12.0484V9.99985L10.0483 7.99999L12.0482 5.99994V4H9.96022L8.00426 5.95596L6.04851 4H3.95996ZM4.45087 4.40272V5.83292L6.61796 7.9998L4.45107 10.1665V11.5973H5.79329L7.96017 9.43041L8.00426 9.4745L8.04836 9.43041L10.215 11.5973H11.5574V10.1667L9.39057 8.00001L11.5572 5.83314V4.40272H10.2152L8.04846 6.56949L8.00436 6.52539L7.96026 6.56949L5.79349 4.40272H4.45087Z" fill="#00D2FF"/>
</g>
<defs>
<clipPath id="clip0_1750_6803">
<rect width="16" height="16" rx="4" fill="white"/>
</clipPath>
</defs>
</svg>
