<svg width="17" height="16" viewBox="0 0 17 16" fill="none" xmlns="http://www.w3.org/2000/svg">
<g clip-path="url(#clip0_1750_6803)">
<rect x="0.466675" width="16" height="16" rx="4" fill="white" fill-opacity="0.08"/>
<path fill-rule="evenodd" clip-rule="evenodd" d="M4.42664 4V5.99975L6.42688 7.9998L4.42684 9.99965V12H6.51497L8.47092 10.044L10.4267 12H12.515V9.99985L10.515 7.99999L12.5148 5.99994V4H10.4269L8.47094 5.95596L6.51518 4H4.42664ZM4.91755 4.40272V5.83292L7.08463 7.9998L4.91775 10.1665V11.5973H6.25997L8.42684 9.43041L8.47094 9.4745L8.51504 9.43041L10.6817 11.5973H12.0241V10.1667L9.85725 8.00001L12.0239 5.83314V4.40272H10.6819L8.51513 6.56949L8.47103 6.52539L8.42694 6.56949L6.26016 4.40272H4.91755Z" fill="#00D2FF"/>
</g>
<defs>
<clipPath id="clip0_1750_6803">
<rect x="0.466675" width="16" height="16" rx="4" fill="white"/>
</clipPath>
</defs>
</svg>
