<svg width="16" height="16" viewBox="0 0 16 16" fill="none" xmlns="http://www.w3.org/2000/svg">
<g clip-path="url(#clip0_1750_6821)">
<rect width="16" height="16" rx="4" fill="white" fill-opacity="0.08"/>
<path fill-rule="evenodd" clip-rule="evenodd" d="M8.00553 2.55238C5.00455 2.55238 2.57107 4.9907 2.57107 7.99997C2.57107 11.0092 5.00455 13.4475 8.00553 13.4475C11.0065 13.4475 13.44 11.0092 13.44 7.99997C13.44 4.99178 11.0065 2.55238 8.00553 2.55238ZM2.02002 7.99997C2.02002 4.68557 4.70029 2 8.00553 2C11.3108 2 13.9911 4.6867 13.9911 7.99997C13.9911 11.3144 11.3108 14 8.00553 14C4.70029 14 2.02002 11.3144 2.02002 7.99997Z" fill="#FF7B7C"/>
<path fill-rule="evenodd" clip-rule="evenodd" d="M10.3684 6.5704L8.85857 6.50744L9.88461 5.39383L9.47133 4.98064L8.35931 6.00587L8.29869 4.49233H7.71568L7.65286 6.00587L6.54194 4.97733L6.12976 5.39161L7.1536 6.50632L5.64263 6.56598V7.15152L7.1525 7.21447L6.12644 8.32807L6.53974 8.74127L7.63413 7.73152L7.68262 10.1841L6.80865 10.2482V10.7928L7.69585 10.8602L7.71238 11.712H8.29538L8.31302 10.8613L9.20903 10.7928V10.2482L8.32625 10.1841L8.37584 7.73261L9.46913 8.74348L9.88131 8.33029L8.85857 7.21558L10.3684 7.15483L10.3684 6.5704Z" fill="#FF7B7C"/>
</g>
<defs>
<clipPath id="clip0_1750_6821">
<rect width="16" height="16" rx="4" fill="white"/>
</clipPath>
</defs>
</svg>
