<svg width="17" height="16" viewBox="0 0 17 16" fill="none" xmlns="http://www.w3.org/2000/svg">
<g clip-path="url(#clip0_1750_6821)">
<rect x="0.466675" width="16" height="16" rx="4" fill="white" fill-opacity="0.08"/>
<path fill-rule="evenodd" clip-rule="evenodd" d="M8.47221 2.55238C5.47123 2.55238 3.03775 4.9907 3.03775 7.99997C3.03775 11.0092 5.47123 13.4475 8.47221 13.4475C11.4732 13.4475 13.9066 11.0092 13.9066 7.99997C13.9066 4.99178 11.4732 2.55238 8.47221 2.55238ZM2.48669 7.99997C2.48669 4.68557 5.16697 2 8.47221 2C11.7775 2 14.4578 4.6867 14.4578 7.99997C14.4578 11.3144 11.7775 14 8.47221 14C5.16697 14 2.48669 11.3144 2.48669 7.99997Z" fill="#FF7B7C"/>
<path fill-rule="evenodd" clip-rule="evenodd" d="M10.8351 6.5704L9.32524 6.50744L10.3513 5.39383L9.938 4.98064L8.82598 6.00587L8.76536 4.49233H8.18236L8.11953 6.00587L7.00862 4.97733L6.59643 5.39161L7.62028 6.50632L6.1093 6.56598V7.15152L7.61918 7.21447L6.59312 8.32807L7.00641 8.74127L8.1008 7.73152L8.1493 10.1841L7.27533 10.2482V10.7928L8.16252 10.8602L8.17906 11.712H8.76206L8.7797 10.8613L9.6757 10.7928V10.2482L8.79292 10.1841L8.84252 7.73261L9.93581 8.74348L10.348 8.33029L9.32524 7.21558L10.8351 7.15483L10.8351 6.5704Z" fill="#FF7B7C"/>
</g>
<defs>
<clipPath id="clip0_1750_6821">
<rect x="0.466675" width="16" height="16" rx="4" fill="white"/>
</clipPath>
</defs>
</svg>
