<svg width="16" height="16" viewBox="0 0 16 16" fill="none" xmlns="http://www.w3.org/2000/svg">
<g clip-path="url(#clip0_1750_6905)">
<rect width="16" height="16" rx="4" fill="white" fill-opacity="0.08"/>
<path d="M8.53711 12.9606C11.021 12.9606 13.0346 10.9512 13.0346 8.47245C13.0346 5.9937 11.021 3.98425 8.53711 3.98425C6.05324 3.98425 4.03968 5.9937 4.03968 8.47245C4.03968 10.9512 6.05324 12.9606 8.53711 12.9606Z" fill="#3D7BC2"/>
<path d="M10.4465 7.18109C10.7305 7.18109 10.9673 6.94488 10.9673 6.66142C10.9673 6.37795 10.7305 6.14172 10.4465 6.14172C10.1625 6.14172 9.92574 6.37795 9.92574 6.66142C9.92574 6.94488 10.1625 7.18109 10.4465 7.18109Z" fill="#102E5E"/>
<path d="M11.1093 9.98424C11.4722 9.98424 11.7721 9.68504 11.7721 9.32282C11.7721 8.96063 11.4722 8.6614 11.1093 8.6614C10.7464 8.6614 10.4465 8.96063 10.4465 9.32282C10.4465 9.68504 10.7464 9.98424 11.1093 9.98424Z" fill="#102E5E"/>
<path d="M13.0661 8.64567C13.3503 8.56692 13.5712 8.31495 13.5712 7.99999C13.5712 7.68503 13.3659 7.43306 13.0661 7.35433C12.8768 5.73227 11.9457 4.33071 10.6359 3.49606L10.8569 3.25984C10.9358 3.29134 11.0304 3.30709 11.1251 3.30709C11.4881 3.30709 11.7879 3.00787 11.7879 2.64567C11.7879 2.28346 11.4881 2 11.1093 2C10.7306 2 10.4465 2.29921 10.4465 2.66142C10.4465 2.7874 10.4781 2.89764 10.5412 3.00787L10.2572 3.30709C9.51551 2.91339 8.66335 2.69291 7.76386 2.69291C4.8287 2.69291 2.43005 5.08661 2.43005 8.01575C2.43005 10.9449 4.8287 13.3386 7.76386 13.3386C8.66335 13.3386 9.51551 13.1181 10.2572 12.7244L10.5412 13.0079C10.4781 13.1023 10.4465 13.2126 10.4465 13.3386C10.4465 13.7008 10.7464 14 11.1093 14C11.4723 14 11.7721 13.7008 11.7721 13.3386C11.7721 12.9764 11.4723 12.6772 11.1093 12.6772C11.0147 12.6772 10.92 12.6929 10.8411 12.7402L10.6201 12.5197C11.9299 11.6535 12.861 10.2677 13.0661 8.64567ZM12.6558 7.38583C12.4033 7.48032 12.2297 7.71652 12.2297 7.99999C12.2297 8.28345 12.4033 8.51968 12.64 8.61417C12.4507 10.126 11.567 11.4173 10.3203 12.1732L6.64344 8.33071C6.6908 8.23622 6.72234 8.12597 6.72234 7.99999C6.72234 7.874 6.6908 7.76378 6.62768 7.66929L10.3203 3.81102C11.5827 4.56692 12.4665 5.87402 12.6558 7.38583ZM7.76386 12.8976C5.04962 12.8976 2.84033 10.6929 2.84033 7.98425C2.84033 5.27559 5.04962 3.07087 7.76386 3.07087C8.5529 3.07087 9.29458 3.25984 9.95736 3.59055L6.32785 7.38583C6.31206 7.38583 6.29628 7.37007 6.28049 7.37007V5.29133C6.54878 5.19684 6.72234 4.96063 6.72234 4.6614C6.72234 4.29921 6.42251 4 6.05957 4C5.69662 4 5.39679 4.29921 5.39679 4.6614C5.39679 4.96063 5.60193 5.2126 5.87021 5.29133V7.35433C5.60193 7.43306 5.39679 7.68503 5.39679 7.98425C5.39679 8.28345 5.60193 8.53542 5.87021 8.61417V10.6614C5.60193 10.7401 5.39679 10.9921 5.39679 11.2913C5.39679 11.6535 5.69662 11.9528 6.05957 11.9528C6.42251 11.9528 6.72234 11.6535 6.72234 11.2913C6.72234 11.0079 6.53299 10.7559 6.28049 10.6614V8.62991C6.29628 8.62991 6.31206 8.61417 6.32785 8.61417L9.94157 12.3937C9.29458 12.7244 8.5529 12.8976 7.76386 12.8976Z" fill="white"/>
</g>
<defs>
<clipPath id="clip0_1750_6905">
<rect width="16" height="16" rx="4" fill="white"/>
</clipPath>
</defs>
</svg>
