<svg width="17" height="16" viewBox="0 0 17 16" fill="none" xmlns="http://www.w3.org/2000/svg">
<g clip-path="url(#clip0_1750_6905)">
<rect x="0.533203" width="16" height="16" rx="4" fill="#012F61"/>
<path d="M5.8388 3.06405V6.84805C5.8388 6.97605 5.9604 7.08005 6.0884 7.08005C6.2164 7.08005 6.338 6.97605 6.338 6.84805V3.25765C6.5684 3.21765 6.8276 3.19685 7.0804 3.19685C9.5092 3.19685 11.498 5.01925 11.7156 7.43365C11.7268 7.56165 11.8372 7.65605 11.9636 7.64325C12.0916 7.63205 12.1844 7.52005 12.1716 7.39205C12.058 6.12325 11.4756 4.94725 10.5332 4.08325C9.586 3.21285 8.354 2.73285 7.0676 2.73285C6.7204 2.73285 6.3668 2.76805 6.0292 2.83685C5.922 2.85925 5.8388 2.95365 5.8388 3.06405Z" fill="white"/>
<path d="M7.1892 12.736C7.1892 12.7408 7.1892 12.7472 7.1892 12.752C7.1988 12.88 7.3092 12.976 7.4372 12.9664C8.6516 12.88 9.8004 12.3584 10.6692 11.5008C11.538 10.6432 12.0724 9.50245 12.1732 8.29125C12.1844 8.16325 12.09 8.05125 11.962 8.04005C11.834 8.02885 11.722 8.12325 11.7108 8.25125C11.5204 10.5136 9.6692 12.3424 7.4036 12.504C7.2836 12.5136 7.1892 12.616 7.1892 12.736Z" fill="white"/>
<path d="M6.8372 3.97125V7.72965C6.8372 7.85765 6.9396 7.96165 7.0676 7.96165C7.1956 7.96165 7.298 7.85765 7.298 7.72965V4.21125C9.1796 4.33125 10.7204 5.92005 10.7204 7.85605C10.7204 8.72645 10.41 9.56805 9.8452 10.2288C9.762 10.3264 9.7732 10.472 9.8708 10.5552C9.9684 10.6384 10.114 10.6272 10.1972 10.5296C10.834 9.78565 11.1828 8.83685 11.1828 7.85605C11.1828 6.75685 10.754 5.72325 9.9764 4.94565C9.1988 4.16805 8.1652 3.73925 7.066 3.73925C6.9412 3.73925 6.8372 3.84325 6.8372 3.97125Z" fill="#99D7FD"/>
<path d="M7.1892 10.696C7.1892 10.7056 7.1892 10.7152 7.1908 10.7248C7.2068 10.8512 7.322 10.9424 7.4484 10.9264C8.9956 10.736 10.162 9.41605 10.162 7.85605C10.162 7.21445 9.9668 6.59845 9.5988 6.07525C9.2388 5.56485 8.7396 5.17765 8.1572 4.95845C8.0868 4.93125 8.002 4.94085 7.9396 4.98405C7.8772 5.02725 7.8356 5.09925 7.8356 5.17445V8.44805C7.8356 8.57605 7.938 8.68005 8.066 8.68005C8.194 8.68005 8.2964 8.57605 8.2964 8.44805V5.53605C9.1412 5.98885 9.6932 6.88325 9.6932 7.85605C9.6932 9.18245 8.7044 10.304 7.3908 10.4656C7.2724 10.4816 7.1892 10.5808 7.1892 10.696Z" fill="white"/>
<path d="M6.0724 7.64485C6.3702 7.64485 6.6116 7.40344 6.6116 7.10565C6.6116 6.80786 6.3702 6.56645 6.0724 6.56645C5.77461 6.56645 5.5332 6.80786 5.5332 7.10565C5.5332 7.40344 5.77461 7.64485 6.0724 7.64485Z" fill="white"/>
<path d="M7.1892 13.2672C7.48699 13.2672 7.7284 13.0258 7.7284 12.728C7.7284 12.4303 7.48699 12.1888 7.1892 12.1888C6.89141 12.1888 6.65 12.4303 6.65 12.728C6.65 13.0258 6.89141 13.2672 7.1892 13.2672Z" fill="white"/>
</g>
<defs>
<clipPath id="clip0_1750_6905">
<path d="M0.533203 8C0.533203 4.22876 0.533203 2.34315 1.70478 1.17157C2.87635 0 4.76197 0 8.5332 0C12.3044 0 14.1901 0 15.3616 1.17157C16.5332 2.34315 16.5332 4.22876 16.5332 8C16.5332 11.7712 16.5332 13.6569 15.3616 14.8284C14.1901 16 12.3044 16 8.5332 16C4.76197 16 2.87635 16 1.70478 14.8284C0.533203 13.6569 0.533203 11.7712 0.533203 8Z" fill="white"/>
</clipPath>
</defs>
</svg>
