<svg width="17" height="16" viewBox="0 0 17 16" fill="none" xmlns="http://www.w3.org/2000/svg">
<g clip-path="url(#clip0_1750_6905)">
<rect x="0.466675" width="16" height="16" rx="4" fill="white" fill-opacity="0.08"/>
<path d="M9.00379 12.9606C11.4877 12.9606 13.5012 10.9512 13.5012 8.47245C13.5012 5.9937 11.4877 3.98425 9.00379 3.98425C6.51991 3.98425 4.50636 5.9937 4.50636 8.47245C4.50636 10.9512 6.51991 12.9606 9.00379 12.9606Z" fill="#3D7BC2"/>
<path d="M10.9132 7.18109C11.1972 7.18109 11.4339 6.94488 11.4339 6.66142C11.4339 6.37795 11.1972 6.14172 10.9132 6.14172C10.6291 6.14172 10.3924 6.37795 10.3924 6.66142C10.3924 6.94488 10.6291 7.18109 10.9132 7.18109Z" fill="#102E5E"/>
<path d="M11.576 9.98424C11.9389 9.98424 12.2388 9.68504 12.2388 9.32282C12.2388 8.96063 11.9389 8.6614 11.576 8.6614C11.213 8.6614 10.9132 8.96063 10.9132 9.32282C10.9132 9.68504 11.213 9.98424 11.576 9.98424Z" fill="#102E5E"/>
<path d="M13.5328 8.64567C13.817 8.56692 14.0379 8.31495 14.0379 7.99999C14.0379 7.68503 13.8326 7.43306 13.5328 7.35433C13.3434 5.73227 12.4124 4.33071 11.1026 3.49606L11.3235 3.25984C11.4024 3.29134 11.4971 3.30709 11.5918 3.30709C11.9547 3.30709 12.2546 3.00787 12.2546 2.64567C12.2546 2.28346 11.9547 2 11.576 2C11.1973 2 10.9132 2.29921 10.9132 2.66142C10.9132 2.7874 10.9448 2.89764 11.0079 3.00787L10.7239 3.30709C9.98218 2.91339 9.13002 2.69291 8.23053 2.69291C5.29537 2.69291 2.89673 5.08661 2.89673 8.01575C2.89673 10.9449 5.29537 13.3386 8.23053 13.3386C9.13002 13.3386 9.98218 13.1181 10.7239 12.7244L11.0079 13.0079C10.9448 13.1023 10.9132 13.2126 10.9132 13.3386C10.9132 13.7008 11.2131 14 11.576 14C11.939 14 12.2388 13.7008 12.2388 13.3386C12.2388 12.9764 11.939 12.6772 11.576 12.6772C11.4813 12.6772 11.3866 12.6929 11.3077 12.7402L11.0868 12.5197C12.3966 11.6535 13.3276 10.2677 13.5328 8.64567ZM13.1225 7.38583C12.87 7.48032 12.6964 7.71652 12.6964 7.99999C12.6964 8.28345 12.87 8.51968 13.1067 8.61417C12.9173 10.126 12.0336 11.4173 10.787 12.1732L7.11012 8.33071C7.15747 8.23622 7.18902 8.12597 7.18902 7.99999C7.18902 7.874 7.15747 7.76378 7.09435 7.66929L10.787 3.81102C12.0494 4.56692 12.9331 5.87402 13.1225 7.38583ZM8.23053 12.8976C5.5163 12.8976 3.30701 10.6929 3.30701 7.98425C3.30701 5.27559 5.5163 3.07087 8.23053 3.07087C9.01957 3.07087 9.76126 3.25984 10.424 3.59055L6.79452 7.38583C6.77874 7.38583 6.76295 7.37007 6.74717 7.37007V5.29133C7.01545 5.19684 7.18902 4.96063 7.18902 4.6614C7.18902 4.29921 6.88919 4 6.52624 4C6.16329 4 5.86346 4.29921 5.86346 4.6614C5.86346 4.96063 6.0686 5.2126 6.33689 5.29133V7.35433C6.0686 7.43306 5.86346 7.68503 5.86346 7.98425C5.86346 8.28345 6.0686 8.53542 6.33689 8.61417V10.6614C6.0686 10.7401 5.86346 10.9921 5.86346 11.2913C5.86346 11.6535 6.16329 11.9528 6.52624 11.9528C6.88919 11.9528 7.18902 11.6535 7.18902 11.2913C7.18902 11.0079 6.99966 10.7559 6.74717 10.6614V8.62991C6.76295 8.62991 6.77874 8.61417 6.79452 8.61417L10.4082 12.3937C9.76125 12.7244 9.01957 12.8976 8.23053 12.8976Z" fill="white"/>
</g>
<defs>
<clipPath id="clip0_1750_6905">
<rect x="0.466675" width="16" height="16" rx="4" fill="white"/>
</clipPath>
</defs>
</svg>
