<?xml version="1.0" encoding="UTF-8" standalone="no"?>
<svg
   width="16"
   height="16"
   viewBox="0 0 16 16"
   fill="none"
   version="1.1"
   id="svg7"
   sodipodi:docname="konstellation.svg"
   inkscape:version="1.3.2 (091e20ef0f, 2023-11-25)"
   xmlns:inkscape="http://www.inkscape.org/namespaces/inkscape"
   xmlns:sodipodi="http://sodipodi.sourceforge.net/DTD/sodipodi-0.dtd"
   xmlns="http://www.w3.org/2000/svg"
   xmlns:svg="http://www.w3.org/2000/svg">
  <sodipodi:namedview
     id="namedview7"
     pagecolor="#ffffff"
     bordercolor="#000000"
     borderopacity="0.25"
     inkscape:showpageshadow="2"
     inkscape:pageopacity="0.0"
     inkscape:pagecheckerboard="0"
     inkscape:deskcolor="#d1d1d1"
     inkscape:zoom="50.8125"
     inkscape:cx="8.501845"
     inkscape:cy="8"
     inkscape:window-width="1920"
     inkscape:window-height="1011"
     inkscape:window-x="0"
     inkscape:window-y="32"
     inkscape:window-maximized="1"
     inkscape:current-layer="svg7" />
  <g
     clip-path="url(#clip0_1750_6905)"
     id="g6"
     transform="translate(-0.52789269,0.00806175)">
    <rect
       x="0.53320301"
       width="16"
       height="16"
       rx="4"
       fill="#012f61"
       id="rect1"
       y="0" />
    <path
       d="m 5.8388,3.06405 v 3.784 c 0,0.128 0.1216,0.232 0.2496,0.232 0.128,0 0.2496,-0.104 0.2496,-0.232 v -3.5904 c 0.2304,-0.04 0.4896,-0.0608 0.7424,-0.0608 2.4288,0 4.4176,1.8224 4.6352,4.2368 0.0112,0.128 0.1216,0.2224 0.248,0.2096 0.128,-0.0112 0.2208,-0.1232 0.208,-0.2512 C 12.058,6.12325 11.4756,4.94725 10.5332,4.08325 9.586,3.21285 8.354,2.73285 7.0676,2.73285 c -0.3472,0 -0.7008,0.0352 -1.0384,0.104 -0.1072,0.0224 -0.1904,0.1168 -0.1904,0.2272 z"
       fill="#ffffff"
       id="path1" />
    <path
       d="m 7.1892,12.736 c 0,0.0048 0,0.0112 0,0.016 0.0096,0.128 0.12,0.224 0.248,0.2144 1.2144,-0.0864 2.3632,-0.608 3.232,-1.4656 0.8688,-0.8576 1.4032,-1.99835 1.504,-3.20955 0.0112,-0.128 -0.0832,-0.24 -0.2112,-0.2512 -0.128,-0.0112 -0.24,0.0832 -0.2512,0.2112 -0.1904,2.26235 -2.0416,4.09115 -4.3072,4.25275 -0.12,0.0096 -0.2144,0.112 -0.2144,0.232 z"
       fill="#ffffff"
       id="path2" />
    <path
       d="m 6.8372,3.97125 v 3.7584 c 0,0.128 0.1024,0.232 0.2304,0.232 0.128,0 0.2304,-0.104 0.2304,-0.232 v -3.5184 c 1.8816,0.12 3.4224,1.7088 3.4224,3.6448 0,0.8704 -0.3104,1.712 -0.8752,2.37275 -0.0832,0.0976 -0.072,0.2432 0.0256,0.3264 0.0976,0.0832 0.2432,0.072 0.3264,-0.0256 0.6368,-0.74395 0.9856,-1.69275 0.9856,-2.67355 0,-1.0992 -0.4288,-2.1328 -1.2064,-2.9104 -0.7776,-0.7776 -1.8112,-1.2064 -2.9104,-1.2064 -0.1248,0 -0.2288,0.104 -0.2288,0.232 z"
       fill="#99d7fd"
       id="path3" />
    <path
       d="m 7.1892,10.696 c 0,0.0096 0,0.0192 0.0016,0.0288 0.016,0.1264 0.1312,0.2176 0.2576,0.2016 1.5472,-0.1904 2.7136,-1.51035 2.7136,-3.07035 0,-0.6416 -0.1952,-1.2576 -0.5632,-1.7808 -0.36,-0.5104 -0.8592,-0.8976 -1.4416,-1.1168 -0.0704,-0.0272 -0.1552,-0.0176 -0.2176,0.0256 -0.0624,0.0432 -0.104,0.1152 -0.104,0.1904 v 3.2736 c 0,0.128 0.1024,0.232 0.2304,0.232 0.128,0 0.2304,-0.104 0.2304,-0.232 v -2.912 c 0.8448,0.4528 1.3968,1.3472 1.3968,2.32 0,1.3264 -0.9888,2.44795 -2.3024,2.60955 -0.1184,0.016 -0.2016,0.1152 -0.2016,0.2304 z"
       fill="#ffffff"
       id="path4" />
    <path
       d="m 6.0724,7.64485 c 0.2978,0 0.5392,-0.24141 0.5392,-0.5392 0,-0.29779 -0.2414,-0.5392 -0.5392,-0.5392 -0.29779,0 -0.5392,0.24141 -0.5392,0.5392 0,0.29779 0.24141,0.5392 0.5392,0.5392 z"
       fill="#ffffff"
       id="path5" />
    <path
       d="m 7.1892,13.2672 c 0.29779,0 0.5392,-0.2414 0.5392,-0.5392 0,-0.2977 -0.24141,-0.5392 -0.5392,-0.5392 -0.29779,0 -0.5392,0.2415 -0.5392,0.5392 0,0.2978 0.24141,0.5392 0.5392,0.5392 z"
       fill="#ffffff"
       id="path6" />
  </g>
  <defs
     id="defs7">
    <clipPath
       id="clip0_1750_6905">
      <path
         d="m 0.533203,8 c 0,-3.77124 0,-5.65685 1.171577,-6.82843 C 2.87635,0 4.76197,0 8.5332,0 c 3.7712,0 5.6569,0 6.8284,1.17157 1.1716,1.17158 1.1716,3.05719 1.1716,6.82843 0,3.7712 0,5.6569 -1.1716,6.8284 C 14.1901,16 12.3044,16 8.5332,16 4.76197,16 2.87635,16 1.70478,14.8284 0.533203,13.6569 0.533203,11.7712 0.533203,8 Z"
         fill="#ffffff"
         id="path7" />
    </clipPath>
  </defs>
</svg>
