<svg width="16" height="16" viewBox="0 0 16 16" fill="none" xmlns="http://www.w3.org/2000/svg">
<g clip-path="url(#clip0_1750_6960)">
<rect width="16" height="16" rx="4" fill="white" fill-opacity="0.08"/>
<path d="M11.5293 5.28434V5.79305H7.67773V5.28434H9.38342C9.29694 4.99478 9.20262 4.72869 9.1083 4.49391L9.65066 4.4C9.74498 4.66609 9.83144 4.95565 9.9179 5.28434H11.5293Z" fill="#E53935"/>
<path fill-rule="evenodd" clip-rule="evenodd" d="M7.40262 6.32522V9.57304H4.81658V6.54435C4.72227 6.64609 4.62009 6.74 4.5179 6.83391L4.4 6.27826C4.89519 5.80087 5.26462 5.18261 5.50045 4.41566L6.00349 4.57217C5.94061 4.73652 5.87773 4.89304 5.80698 5.04957H7.10394V5.42522C6.93887 5.78522 6.7738 6.08261 6.60873 6.32522H7.40262ZM5.01309 6.32522H6.06637C6.23929 6.09044 6.40436 5.80869 6.57729 5.49565H5.58691C5.41396 5.79304 5.21747 6.07478 5.01309 6.32522ZM5.30394 7.71827H5.88559V6.78695H5.30394V7.71827ZM6.34149 7.71827H6.91528V6.78695H6.34149V7.71827ZM6.34149 9.10348H6.91528V8.17217H6.34149V9.10348ZM5.30394 9.10348H5.88559V8.17217H5.30394V9.10348Z" fill="#E53935"/>
<path fill-rule="evenodd" clip-rule="evenodd" d="M9.90219 10.9504C9.90219 11.3809 9.69783 11.6 9.30481 11.6H8.66813L8.55809 11.0757C8.74672 11.0991 8.93538 11.1148 9.11616 11.1148C9.27337 11.1148 9.35196 11.013 9.35196 10.8174V8.72H8.09432V6.49739H11.152V8.72H9.90219V10.9504ZM8.62882 8.22696H10.6175V6.99826H8.62882V8.22696Z" fill="#E53935"/>
<path d="M11.6 10.9504L11.1834 11.24C10.9633 10.7 10.6568 10.1052 10.2795 9.45565L10.6961 9.20522C11.0891 9.87043 11.3878 10.4496 11.6 10.9504Z" fill="#E53935"/>
<path d="M8.78602 9.45565C8.5345 10.1913 8.2358 10.833 7.88995 11.373L7.4655 11.0678C7.79564 10.5513 8.08646 9.94087 8.33012 9.23652L8.78602 9.45565Z" fill="#E53935"/>
<path d="M7.62271 10.747L7.23755 10.8409C7.14323 10.5044 7.03319 10.1835 6.90743 9.87043L7.27686 9.76087C7.40262 10.0426 7.51266 10.3713 7.62271 10.747Z" fill="#E53935"/>
<path d="M6.81309 11.2478L6.40436 11.2948C6.36507 10.6843 6.28646 10.2148 6.16071 9.88609L6.55371 9.83913C6.67948 10.1835 6.76594 10.653 6.81309 11.2478Z" fill="#E53935"/>
<path d="M5.21747 9.92522C5.17031 10.52 5.06813 11.0443 4.90306 11.5061L4.47073 11.373C4.64368 10.9348 4.75371 10.4339 4.79302 9.87043L5.21747 9.92522Z" fill="#E53935"/>
<path d="M5.97205 11.3652L5.56332 11.4122C5.5476 10.7783 5.52401 10.2852 5.48472 9.94087L5.86201 9.89392C5.91703 10.2539 5.95632 10.747 5.97205 11.3652Z" fill="#E53935"/>
<path fill-rule="evenodd" clip-rule="evenodd" d="M14 8C14 4.68629 11.3137 2 8 2C4.68629 2 2 4.68629 2 8C2 11.3137 4.68629 14 8 14C11.3137 14 14 11.3137 14 8ZM2.55999 8C2.55999 4.99557 4.99557 2.56 8 2.56C11.0044 2.56 13.44 4.99557 13.44 8C13.44 11.0044 11.0044 13.44 8 13.44C4.99557 13.44 2.55999 11.0044 2.55999 8Z" fill="#E53935"/>
</g>
<defs>
<clipPath id="clip0_1750_6960">
<rect width="16" height="16" rx="4" fill="white"/>
</clipPath>
</defs>
</svg>
