<svg width="17" height="16" viewBox="0 0 17 16" fill="none" xmlns="http://www.w3.org/2000/svg">
<g clip-path="url(#clip0_1750_6960)">
<rect x="0.466675" width="16" height="16" rx="4" fill="white" fill-opacity="0.08"/>
<path d="M11.9959 5.28434V5.79305H8.14441V5.28434H9.85009C9.76361 4.99478 9.66929 4.72869 9.57498 4.49391L10.1173 4.4C10.2117 4.66609 10.2981 4.95565 10.3846 5.28434H11.9959Z" fill="#E53935"/>
<path fill-rule="evenodd" clip-rule="evenodd" d="M7.86929 6.32522V9.57304H5.28326V6.54435C5.18894 6.64609 5.08677 6.74 4.98458 6.83391L4.86667 6.27826C5.36187 5.80087 5.7313 5.18261 5.96712 4.41566L6.47017 4.57217C6.40729 4.73652 6.34441 4.89304 6.27366 5.04957H7.57061V5.42522C7.40554 5.78522 7.24047 6.08261 7.0754 6.32522H7.86929ZM5.47977 6.32522H6.53304C6.70597 6.09044 6.87104 5.80869 7.04396 5.49565H6.05358C5.88064 5.79304 5.68415 6.07478 5.47977 6.32522ZM5.77061 7.71827H6.35226V6.78695H5.77061V7.71827ZM6.80816 7.71827H7.38196V6.78695H6.80816V7.71827ZM6.80816 9.10348H7.38196V8.17217H6.80816V9.10348ZM5.77061 9.10348H6.35226V8.17217H5.77061V9.10348Z" fill="#E53935"/>
<path fill-rule="evenodd" clip-rule="evenodd" d="M10.3689 10.9504C10.3689 11.3809 10.1645 11.6 9.77148 11.6H9.13481L9.02476 11.0757C9.2134 11.0991 9.40205 11.1148 9.58283 11.1148C9.74005 11.1148 9.81863 11.013 9.81863 10.8174V8.72H8.56099V6.49739H11.6186V8.72H10.3689V10.9504ZM9.0955 8.22696H11.0841V6.99826H9.0955V8.22696Z" fill="#E53935"/>
<path d="M12.0667 10.9504L11.6501 11.24C11.43 10.7 11.1234 10.1052 10.7462 9.45565L11.1627 9.20522C11.5558 9.87043 11.8545 10.4496 12.0667 10.9504Z" fill="#E53935"/>
<path d="M9.25269 9.45565C9.00118 10.1913 8.70248 10.833 8.35663 11.373L7.93217 11.0678C8.26231 10.5513 8.55314 9.94087 8.7968 9.23652L9.25269 9.45565Z" fill="#E53935"/>
<path d="M8.08939 10.747L7.70422 10.8409C7.60991 10.5044 7.49986 10.1835 7.3741 9.87043L7.74354 9.76087C7.86929 10.0426 7.97934 10.3713 8.08939 10.747Z" fill="#E53935"/>
<path d="M7.27977 11.2478L6.87104 11.2948C6.83174 10.6843 6.75314 10.2148 6.62738 9.88609L7.02038 9.83913C7.14615 10.1835 7.23262 10.653 7.27977 11.2478Z" fill="#E53935"/>
<path d="M5.68415 9.92522C5.63698 10.52 5.53481 11.0443 5.36974 11.5061L4.93741 11.373C5.11035 10.9348 5.22038 10.4339 5.25969 9.87043L5.68415 9.92522Z" fill="#E53935"/>
<path d="M6.43873 11.3652L6.03 11.4122C6.01427 10.7783 5.99069 10.2852 5.95139 9.94087L6.32868 9.89392C6.3837 10.2539 6.423 10.747 6.43873 11.3652Z" fill="#E53935"/>
<path fill-rule="evenodd" clip-rule="evenodd" d="M14.4667 8C14.4667 4.68629 11.7804 2 8.46667 2C5.15296 2 2.46667 4.68629 2.46667 8C2.46667 11.3137 5.15296 14 8.46667 14C11.7804 14 14.4667 11.3137 14.4667 8ZM3.02667 8C3.02667 4.99557 5.46224 2.56 8.46667 2.56C11.4711 2.56 13.9067 4.99557 13.9067 8C13.9067 11.0044 11.4711 13.44 8.46667 13.44C5.46224 13.44 3.02667 11.0044 3.02667 8Z" fill="#E53935"/>
</g>
<defs>
<clipPath id="clip0_1750_6960">
<rect x="0.466675" width="16" height="16" rx="4" fill="white"/>
</clipPath>
</defs>
</svg>
