<svg width="16" height="16" xmlns="http://www.w3.org/2000/svg" fill="none">
 <defs>
  <clipPath id="clip0_1775_6096">
   <rect x="0.46668" width="16" height="16" rx="4" fill="white" id="svg_1"/>
  </clipPath>
 </defs>
 <g>
  <title>Layer 1</title>
  <g id="svg_2">
   <path d="m13.62642,11.0837l-0.2626,0l-2.002,-0.9923l-0.1167,-0.18673l-0.1167,-0.18677l0,-2.95331l0.1167,-0.07004l2.7549,4.20235l-0.3736,0.1868z" fill="#FFA80A" id="svg_4"/>
   <path d="m8,11.5097l-0.26265,0l-2.98249,-1.4766l0,-0.12843l0.11673,-0.18677l3.01751,-1.49416l0.1109,0.07587l0.11673,-0.07587l3.01169,1.49416l0.1167,0.18677l0,0.14003l-2.98248,1.465l-0.26264,0z" fill="#95001A" id="svg_5"/>
   <path d="m11.24512,9.90467l0.1167,0.18673l0,2.0078l-0.1167,0.1693l-0.8638,0.4261l-0.2626,0l-2.11872,-1.0506l0,-0.1343l3.24512,-1.60503z" fill="#520033" id="svg_6"/>
   <path d="m11.24512,6.69455l-2.42217,-3.69455l-0.82295,0l0,2.08366l0.11673,0.18677l3.01169,1.49416l0.1167,-0.07004z" fill="#FFE50A" id="svg_7"/>
   <path d="m4.75486,6.69455l2.42218,-3.69455l0.82296,0l0,2.08366l-0.09339,0.17509l-3.03502,1.50584l-0.11673,-0.07004z" fill="#FFA80A" id="svg_8"/>
   <path d="m13.62642,11.0837l-2.3813,1.1848l0,-2.36383l2.3813,1.17903z" fill="#6D0044" id="svg_9"/>
   <path d="m2.37354,11.0837l0.26264,0l2.00195,-0.9923l0.11673,-0.18673l0.11673,-0.18677l0,-2.95331l-0.11673,-0.07004l-2.75487,4.20235l0.37355,0.1868z" fill="#FF3417" id="svg_10"/>
   <path d="m4.75486,9.90467l-0.11673,0.18673l0,2.0078l0.11673,0.1693l0.86381,0.4261l0.26265,0l2.11868,-1.0506l0,-0.1343l-3.24514,-1.60503z" fill="#40004D" id="svg_11"/>
   <path d="m2.37354,11.0837l2.38132,1.1848l0,-2.36383l-2.38132,1.17903z" fill="#6D0044" id="svg_12"/>
   <path d="m8,13.8735l2.38132,-1.1789l-2.38132,-1.1849l-2.38133,1.1849l2.38133,1.1789z" fill="#6D0074" id="svg_13"/>
   <path d="m4.75486,9.99014l3.24514,-1.60506l0.11673,-0.07587l0,-2.95331l-0.11673,-0.18677l-3.24514,1.61089l0,3.21012z" fill="#D7001F" id="svg_14"/>
   <path d="m11.24512,9.90467l-3.24512,-1.60506l0,-3.21595l3.24512,1.61089l0,3.21012z" fill="#EF8109" id="svg_15"/>
  </g>
 </g>
</svg>
