<svg width="17" height="16" viewBox="0 0 17 16" fill="none" xmlns="http://www.w3.org/2000/svg">
<g clip-path="url(#clip0_1775_6096)">
<rect x="0.466675" width="16" height="16" rx="4" fill="white" fill-opacity="0.08"/>
<path d="M14.0931 11.0837H13.8305L11.8285 10.0914L11.7118 9.90467L11.5951 9.7179V6.76459L11.7118 6.69455L14.4667 10.8969L14.0931 11.0837Z" fill="#FFA80A"/>
<path d="M8.46668 11.5097H8.20403L5.22154 10.0331V9.90467L5.33827 9.7179L8.35578 8.22374L8.46668 8.29961L8.58341 8.22374L11.5951 9.7179L11.7118 9.90467V10.0447L8.72932 11.5097H8.46668Z" fill="#95001A"/>
<path d="M11.7118 9.90467L11.8285 10.0914V12.0992L11.7118 12.2685L10.848 12.6946H10.5854L8.46668 11.644V11.5097L11.7118 9.90467Z" fill="#520033"/>
<path d="M11.7118 6.69455L9.28963 3H8.46668V5.08366L8.58341 5.27043L11.5951 6.76459L11.7118 6.69455Z" fill="#FFE50A"/>
<path d="M5.22154 6.69455L7.64372 3H8.46668V5.08366L8.37329 5.25875L5.33827 6.76459L5.22154 6.69455Z" fill="#FFA80A"/>
<path d="M14.0931 11.0837L11.7118 12.2685V9.90467L14.0931 11.0837Z" fill="#6D0044"/>
<path d="M2.84022 11.0837H3.10286L5.10481 10.0914L5.22154 9.90467L5.33827 9.7179V6.76459L5.22154 6.69455L2.46667 10.8969L2.84022 11.0837Z" fill="#FF3417"/>
<path d="M5.22154 9.90467L5.10481 10.0914V12.0992L5.22154 12.2685L6.08535 12.6946H6.348L8.46668 11.644V11.5097L5.22154 9.90467Z" fill="#40004D"/>
<path d="M2.84022 11.0837L5.22154 12.2685V9.90467L2.84022 11.0837Z" fill="#6D0044"/>
<path d="M8.46668 13.8735L10.848 12.6946L8.46668 11.5097L6.08535 12.6946L8.46668 13.8735Z" fill="#6D0074"/>
<path d="M5.22154 9.90467L8.46668 8.29961L8.58341 8.22374V5.27043L8.46668 5.08366L5.22154 6.69455V9.90467Z" fill="#D7001F"/>
<path d="M11.7118 9.90467L8.46668 8.29961V5.08366L11.7118 6.69455V9.90467Z" fill="#EF8109"/>
</g>
<defs>
<clipPath id="clip0_1775_6096">
<rect x="0.466675" width="16" height="16" rx="4" fill="white"/>
</clipPath>
</defs>
</svg>
