<?xml version="1.0" encoding="UTF-8" standalone="no"?>
<svg
   width="16"
   height="16"
   viewBox="0 0 16 16"
   fill="none"
   version="1.1"
   id="svg12"
   sodipodi:docname="lava.svg"
   inkscape:version="1.3.2 (091e20ef0f, 2023-11-25)"
   xmlns:inkscape="http://www.inkscape.org/namespaces/inkscape"
   xmlns:sodipodi="http://sodipodi.sourceforge.net/DTD/sodipodi-0.dtd"
   xmlns="http://www.w3.org/2000/svg"
   xmlns:svg="http://www.w3.org/2000/svg">
  <sodipodi:namedview
     id="namedview12"
     pagecolor="#ffffff"
     bordercolor="#000000"
     borderopacity="0.25"
     inkscape:showpageshadow="2"
     inkscape:pageopacity="0.0"
     inkscape:pagecheckerboard="0"
     inkscape:deskcolor="#d1d1d1"
     inkscape:zoom="50.8125"
     inkscape:cx="8.4920049"
     inkscape:cy="8"
     inkscape:window-width="1920"
     inkscape:window-height="1011"
     inkscape:window-x="0"
     inkscape:window-y="32"
     inkscape:window-maximized="1"
     inkscape:current-layer="g12" />
  <g
     clip-path="url(#clip0_1775_6096)"
     id="g12"
     transform="translate(-0.46059276,0.00332487)">
    <rect
       x="0.46667501"
       width="16"
       height="16"
       rx="4"
       fill="#ffffff"
       fill-opacity="0.08"
       id="rect1"
       y="0" />
    <path
       d="M 14.0931,11.0837 H 13.8305 L 11.8285,10.0914 11.7118,9.90467 11.5951,9.7179 V 6.76459 l 0.1167,-0.07004 2.7549,4.20235 z"
       fill="#ffa80a"
       id="path1" />
    <path
       d="M 8.46668,11.5097 H 8.20403 L 5.22154,10.0331 V 9.90467 L 5.33827,9.7179 8.35578,8.22374 8.46668,8.29961 8.58341,8.22374 11.5951,9.7179 11.7118,9.90467 v 0.14003 l -2.98248,1.465 z"
       fill="#95001a"
       id="path2" />
    <path
       d="m 11.7118,9.90467 0.1167,0.18673 v 2.0078 l -0.1167,0.1693 -0.8638,0.4261 H 10.5854 L 8.46668,11.644 v -0.1343 z"
       fill="#520033"
       id="path3" />
    <path
       d="M 11.7118,6.69455 9.28963,3 H 8.46668 v 2.08366 l 0.11673,0.18677 3.01169,1.49416 z"
       fill="#ffe50a"
       id="path4" />
    <path
       d="M 5.22154,6.69455 7.64372,3 H 8.46668 V 5.08366 L 8.37329,5.25875 5.33827,6.76459 Z"
       fill="#ffa80a"
       id="path5" />
    <path
       d="m 14.0931,11.0837 -2.3813,1.1848 V 9.90467 Z"
       fill="#6d0044"
       id="path6" />
    <path
       d="M 2.84022,11.0837 H 3.10286 L 5.10481,10.0914 5.22154,9.90467 5.33827,9.7179 V 6.76459 L 5.22154,6.69455 2.46667,10.8969 Z"
       fill="#ff3417"
       id="path7" />
    <path
       d="M 5.22154,9.90467 5.10481,10.0914 v 2.0078 l 0.11673,0.1693 0.86381,0.4261 H 6.348 L 8.46668,11.644 v -0.1343 z"
       fill="#40004d"
       id="path8" />
    <path
       d="m 2.84022,11.0837 2.38132,1.1848 V 9.90467 Z"
       fill="#6d0044"
       id="path9" />
    <path
       d="M 8.46668,13.8735 10.848,12.6946 8.46668,11.5097 6.08535,12.6946 Z"
       fill="#6d0074"
       id="path10" />
    <path
       d="M 5.22154,9.90467 8.46668,8.29961 8.58341,8.22374 V 5.27043 L 8.46668,5.08366 5.22154,6.69455 Z"
       fill="#d7001f"
       id="path11" />
    <path
       d="M 11.7118,9.90467 8.46668,8.29961 V 5.08366 l 3.24512,1.61089 z"
       fill="#ef8109"
       id="path12" />
  </g>
  <defs
     id="defs12">
    <clipPath
       id="clip0_1775_6096">
      <rect
         x="0.46667501"
         width="16"
         height="16"
         rx="4"
         fill="#ffffff"
         id="rect12"
         y="0" />
    </clipPath>
  </defs>
</svg>
