<svg width="16" height="16" viewBox="0 0 16 16" fill="none" xmlns="http://www.w3.org/2000/svg">
<g clip-path="url(#clip0_4167_47735)">
<rect width="16" height="16" rx="4" fill="white" fill-opacity="0.08"/>
<g clip-path="url(#clip1_4167_47735)">
<path d="M4.31789 7.14999L4.22559 7.28846C3.16405 8.94999 3.39482 11.1192 4.82559 12.5038C5.6102 13.3346 6.7179 13.75 7.82559 13.75C7.82559 13.75 7.82559 13.75 4.31789 7.14999Z" fill="#00A3FF"/>
<path opacity="0.6" d="M7.82569 9.13462L4.31799 7.10385C7.82569 13.75 7.82569 13.75 7.82569 13.75C7.82569 12.3192 7.82569 10.6577 7.82569 9.13462Z" fill="#00A3FF"/>
<path opacity="0.6" d="M11.3334 7.14999L11.4257 7.28846C12.4872 8.94999 12.2565 11.1192 10.8257 12.5038C9.99491 13.3346 8.93338 13.75 7.82568 13.75C7.82568 13.75 7.82568 13.75 11.3334 7.14999Z" fill="#00A3FF"/>
<path opacity="0.2" d="M7.82568 9.13462L11.3334 7.10385C7.82568 13.75 7.82568 13.75 7.82568 13.75C7.82568 12.3192 7.82568 10.6577 7.82568 9.13462Z" fill="#00A3FF"/>
<path opacity="0.2" d="M7.82568 4.65768V8.11922L10.8718 6.41153L7.82568 4.65768Z" fill="#00A3FF"/>
<path opacity="0.6" d="M7.82557 4.65768L4.77942 6.41153L7.82557 8.11922V4.65768Z" fill="#00A3FF"/>
<path d="M7.82557 1.75L4.77942 6.41154L7.82557 4.65769V1.75Z" fill="#00A3FF"/>
<path opacity="0.6" d="M7.82568 4.65769L10.8718 6.41154L7.82568 1.75V4.65769Z" fill="#00A3FF"/>
</g>
</g>
<defs>
<clipPath id="clip0_4167_47735">
<rect width="16" height="16" rx="4" fill="white"/>
</clipPath>
<clipPath id="clip1_4167_47735">
<rect width="8.58462" height="12" fill="white" transform="translate(3.53333 1.75)"/>
</clipPath>
</defs>
</svg>
