<svg width="17" height="16" viewBox="0 0 17 16" fill="none" xmlns="http://www.w3.org/2000/svg">
<g clip-path="url(#clip0_4167_47735)">
<rect x="0.466675" width="16" height="16" rx="4" fill="white" fill-opacity="0.08"/>
<g clip-path="url(#clip1_4167_47735)">
<path d="M4.78457 7.14999L4.69226 7.28846C3.63072 8.94999 3.86149 11.1192 5.29226 12.5038C6.07688 13.3346 7.18457 13.75 8.29226 13.75C8.29226 13.75 8.29226 13.75 4.78457 7.14999Z" fill="#00A3FF"/>
<path opacity="0.6" d="M8.29236 9.13462L4.78467 7.10385C8.29236 13.75 8.29236 13.75 8.29236 13.75C8.29236 12.3192 8.29236 10.6577 8.29236 9.13462Z" fill="#00A3FF"/>
<path opacity="0.6" d="M11.8001 7.14999L11.8924 7.28846C12.9539 8.94999 12.7231 11.1192 11.2924 12.5038C10.4616 13.3346 9.40005 13.75 8.29236 13.75C8.29236 13.75 8.29236 13.75 11.8001 7.14999Z" fill="#00A3FF"/>
<path opacity="0.2" d="M8.29236 9.13462L11.8001 7.10385C8.29236 13.75 8.29236 13.75 8.29236 13.75C8.29236 12.3192 8.29236 10.6577 8.29236 9.13462Z" fill="#00A3FF"/>
<path opacity="0.2" d="M8.29236 4.65768V8.11922L11.3385 6.41153L8.29236 4.65768Z" fill="#00A3FF"/>
<path opacity="0.6" d="M8.29225 4.65768L5.24609 6.41153L8.29225 8.11922V4.65768Z" fill="#00A3FF"/>
<path d="M8.29225 1.75L5.24609 6.41154L8.29225 4.65769V1.75Z" fill="#00A3FF"/>
<path opacity="0.6" d="M8.29236 4.65769L11.3385 6.41154L8.29236 1.75V4.65769Z" fill="#00A3FF"/>
</g>
</g>
<defs>
<clipPath id="clip0_4167_47735">
<rect x="0.466675" width="16" height="16" rx="4" fill="white"/>
</clipPath>
<clipPath id="clip1_4167_47735">
<rect width="8.58462" height="12" fill="white" transform="translate(4 1.75)"/>
</clipPath>
</defs>
</svg>
