<svg width="16" height="16" viewBox="0 0 16 16" fill="none" xmlns="http://www.w3.org/2000/svg">
<g clip-path="url(#clip0_7333_683847)">
<rect width="16" height="16" rx="4" fill="white" fill-opacity="0.08"/>
<path fill-rule="evenodd" clip-rule="evenodd" d="M7.99717 2.00193L7.99992 2L8.00267 2.00193C9.25357 2.87809 13.0525 5.53897 13.0525 9.01325C13.0525 11.7549 10.798 14 7.99992 14C5.22196 14 2.94727 11.7748 2.94727 9.01325C2.94727 5.53898 6.74624 2.87809 7.99717 2.00193ZM8.58915 5.95078L10.6117 7.118C10.971 7.32545 11.1913 7.70795 11.1913 8.12175V10.4573C11.1913 10.8711 10.9699 11.2536 10.6117 11.4611L8.58915 12.6294C8.231 12.837 7.7882 12.837 7.43004 12.6294L5.40743 11.4611C5.04927 11.2536 4.82788 10.8711 4.82788 10.4573V8.12175C4.82788 7.70795 5.04927 7.32545 5.40743 7.118L7.43004 5.95078C7.7882 5.7433 8.231 5.7433 8.58915 5.95078Z" fill="#46F19B"/>
<path d="M10.6117 7.118L8.58915 5.95078C8.231 5.7433 7.7882 5.7433 7.43004 5.95078L5.40743 7.118C5.04927 7.32545 4.82788 7.70795 4.82788 8.12175V10.4573C4.82788 10.8711 5.04927 11.2536 5.40743 11.4611L7.43004 12.6295C7.7882 12.837 8.231 12.837 8.58915 12.6295L10.6117 11.4611C10.9699 11.2536 11.1913 10.8711 11.1913 10.4573V8.12175C11.1913 7.70795 10.971 7.32545 10.6117 7.118ZM9.61495 9.52195L9.01335 10.564C8.93105 10.7077 8.77805 10.7958 8.6123 10.7958H7.40802C7.24227 10.7958 7.08927 10.7077 7.00698 10.564L6.40425 9.52195C6.32195 9.3782 6.32195 9.202 6.40425 9.0583L7.00582 8.01625C7.08811 7.87255 7.24111 7.78445 7.40686 7.78445H8.61C8.77575 7.78445 8.92875 7.87255 9.01105 8.01625L9.6126 9.0583C9.69725 9.202 9.69725 9.3782 9.61495 9.52195Z" fill="#01085B"/>
<path d="M9.61495 9.52195L9.01335 10.564C8.93105 10.7077 8.77805 10.7958 8.6123 10.7958H7.40802C7.24227 10.7958 7.08927 10.7077 7.00698 10.564L6.40425 9.52195C6.32195 9.3782 6.32195 9.202 6.40425 9.0583L7.00582 8.01625C7.08811 7.87255 7.24111 7.78445 7.40686 7.78445H8.61C8.77575 7.78445 8.92875 7.87255 9.01105 8.01625L9.6126 9.0583C9.69725 9.202 9.69725 9.3782 9.61495 9.52195Z" fill="#46F19B"/>
</g>
<defs>
<clipPath id="clip0_7333_683847">
<path d="M0 8C0 4.22876 0 2.34315 1.17157 1.17157C2.34315 0 4.22876 0 8 0C11.7712 0 13.6569 0 14.8284 1.17157C16 2.34315 16 4.22876 16 8C16 11.7712 16 13.6569 14.8284 14.8284C13.6569 16 11.7712 16 8 16C4.22876 16 2.34315 16 1.17157 14.8284C0 13.6569 0 11.7712 0 8Z" fill="white"/>
</clipPath>
</defs>
</svg>
