<svg width="16" height="16" viewBox="0 0 16 16" fill="none" xmlns="http://www.w3.org/2000/svg">
<g clip-path="url(#clip0_7332_463072)">
<rect width="16" height="16" rx="4" fill="white" fill-opacity="0.08"/>
<g clip-path="url(#clip1_7332_463072)">
<path d="M12.0825 4.59264L8.90977 2.76173C8.34795 2.43628 7.6534 2.43628 7.09158 2.76173L3.91886 4.59264C3.35704 4.91809 3.00977 5.51809 3.00977 6.16718V9.83082C3.00977 10.4799 3.35704 11.0799 3.91886 11.4054L7.09158 13.2381C7.6534 13.5635 8.34795 13.5635 8.90977 13.2381L12.0825 11.4054C12.6443 11.0799 12.9916 10.4799 12.9916 9.83082V6.16718C12.9916 5.51809 12.6461 4.91809 12.0825 4.59264ZM10.5189 8.36355L9.57522 9.99809C9.44613 10.2235 9.20613 10.3617 8.94613 10.3617H7.05704C6.79704 10.3617 6.55704 10.2235 6.42795 9.99809L5.48249 8.36355C5.3534 8.13809 5.3534 7.86173 5.48249 7.63627L6.42613 6.00173C6.55522 5.77628 6.79522 5.63809 7.05522 5.63809H8.94249C9.20249 5.63809 9.44249 5.77628 9.57158 6.00173L10.5152 7.63627C10.6479 7.86173 10.6479 8.13809 10.5189 8.36355Z" fill="#FE005B"/>
<path d="M10.5184 8.36382L9.5748 9.99837C9.44571 10.2238 9.20571 10.362 8.94571 10.362H7.05662C6.79662 10.362 6.55662 10.2238 6.42753 9.99837L5.48207 8.36382C5.35298 8.13837 5.35298 7.862 5.48207 7.63655L6.42571 6.002C6.5548 5.77655 6.7948 5.63837 7.0548 5.63837H8.94207C9.20207 5.63837 9.44207 5.77655 9.57116 6.002L10.5148 7.63655C10.6475 7.862 10.6475 8.13837 10.5184 8.36382Z" fill="#FFF1F8"/>
</g>
</g>
<defs>
<clipPath id="clip0_7332_463072">
<path d="M0 8C0 4.22876 0 2.34315 1.17157 1.17157C2.34315 0 4.22876 0 8 0C11.7712 0 13.6569 0 14.8284 1.17157C16 2.34315 16 4.22876 16 8C16 11.7712 16 13.6569 14.8284 14.8284C13.6569 16 11.7712 16 8 16C4.22876 16 2.34315 16 1.17157 14.8284C0 13.6569 0 11.7712 0 8Z" fill="white"/>
</clipPath>
<clipPath id="clip1_7332_463072">
<rect width="10" height="10.9818" fill="white" transform="translate(3 2.50909)"/>
</clipPath>
</defs>
</svg>
