<svg width="17" height="16" viewBox="0 0 17 16" fill="none" xmlns="http://www.w3.org/2000/svg">
<g clip-path="url(#clip0_1758_7084)">
<rect x="0.466675" width="16" height="16" fill="url(#paint0_linear_1758_7084)"/>
<path d="M8.46669 4.8155C9.10609 4.8155 9.62444 4.29716 9.62444 3.65775C9.62444 3.01834 9.10609 2.5 8.46669 2.5C7.82728 2.5 7.30894 3.01834 7.30894 3.65775C7.30894 4.29716 7.82728 4.8155 8.46669 4.8155Z" fill="white"/>
<path d="M4.12442 9.15883C4.76383 9.15883 5.28217 8.64049 5.28217 8.00108C5.28217 7.36168 4.76383 6.84334 4.12442 6.84334C3.48502 6.84334 2.96667 7.36168 2.96667 8.00108C2.96667 8.64049 3.48502 9.15883 4.12442 9.15883Z" fill="white"/>
<path d="M13.9661 8.00108C13.9661 8.64049 13.4478 9.15883 12.8083 9.15883C12.1689 9.15883 11.6506 8.64049 11.6506 8.00108C11.6506 7.36168 12.1689 6.84334 12.8083 6.84334C13.4478 6.84334 13.9661 7.36168 13.9661 8.00108Z" fill="white"/>
<path d="M8.46666 11.1845C7.82726 11.1845 7.30891 11.7028 7.30891 12.3423C7.30891 12.9817 7.82726 13.5 8.46666 13.5C9.10607 13.5 9.62441 12.9817 9.62441 12.3423C9.62441 11.7028 9.10607 11.1845 8.46666 11.1845Z" fill="white"/>
<path d="M6.15008 4.67306C6.15008 5.0728 5.82602 5.39686 5.42628 5.39686C5.02653 5.39686 4.70248 5.0728 4.70248 4.67306C4.70248 4.27331 5.02653 3.94926 5.42628 3.94926C5.82602 3.94926 6.15008 4.27331 6.15008 4.67306Z" fill="white"/>
<path d="M11.5071 10.6042C11.1073 10.6042 10.7833 10.9283 10.7833 11.328C10.7833 11.7278 11.1073 12.0518 11.5071 12.0518C11.9068 12.0518 12.2309 11.7278 12.2309 11.328C12.2309 10.9283 11.9068 10.6042 11.5071 10.6042Z" fill="white"/>
<path d="M12.2304 4.67306C12.2304 5.0728 11.9063 5.39686 11.5066 5.39686C11.1068 5.39686 10.7828 5.0728 10.7828 4.67306C10.7828 4.27331 11.1068 3.94926 11.5066 3.94926C11.9063 3.94926 12.2304 4.27331 12.2304 4.67306Z" fill="white"/>
<path d="M5.42679 10.6042C5.02705 10.6042 4.70299 10.9283 4.70299 11.328C4.70299 11.7278 5.02705 12.0518 5.42679 12.0518C5.82654 12.0518 6.15059 11.7278 6.15059 11.328C6.15059 10.9283 5.82654 10.6042 5.42679 10.6042Z" fill="white"/>
<path d="M8.46666 9.15883C7.82726 9.15883 7.30891 8.64049 7.30891 8.00108C7.30891 7.36168 7.82726 6.84334 8.46666 6.84334C9.10607 6.84334 9.62441 7.36168 9.62441 8.00108C9.62441 8.64049 9.10607 9.15883 8.46666 9.15883Z" fill="white"/>
</g>
<defs>
<linearGradient id="paint0_linear_1758_7084" x1="8.46667" y1="0" x2="8.46667" y2="16" gradientUnits="userSpaceOnUse">
<stop stop-color="#3286FF"/>
<stop offset="1" stop-color="#0F2478"/>
</linearGradient>
<clipPath id="clip0_1758_7084">
<rect x="0.466675" width="16" height="16" rx="4" fill="white"/>
</clipPath>
</defs>
</svg>
