<svg width="16" height="16" viewBox="0 0 16 16" fill="none" xmlns="http://www.w3.org/2000/svg">
<g clip-path="url(#clip0_1758_7084)">
<rect width="16" height="16" fill="url(#paint0_linear_1758_7084)"/>
<path d="M8.00001 4.8155C8.63942 4.8155 9.15776 4.29716 9.15776 3.65775C9.15776 3.01834 8.63942 2.5 8.00001 2.5C7.3606 2.5 6.84226 3.01834 6.84226 3.65775C6.84226 4.29716 7.3606 4.8155 8.00001 4.8155Z" fill="white"/>
<path d="M3.65775 9.15883C4.29716 9.15883 4.8155 8.64049 4.8155 8.00108C4.8155 7.36168 4.29716 6.84334 3.65775 6.84334C3.01834 6.84334 2.5 7.36168 2.5 8.00108C2.5 8.64049 3.01834 9.15883 3.65775 9.15883Z" fill="white"/>
<path d="M13.4994 8.00108C13.4994 8.64049 12.9811 9.15883 12.3417 9.15883C11.7023 9.15883 11.1839 8.64049 11.1839 8.00108C11.1839 7.36168 11.7023 6.84334 12.3417 6.84334C12.9811 6.84334 13.4994 7.36168 13.4994 8.00108Z" fill="white"/>
<path d="M7.99999 11.1845C7.36058 11.1845 6.84224 11.7028 6.84224 12.3423C6.84224 12.9817 7.36058 13.5 7.99999 13.5C8.6394 13.5 9.15774 12.9817 9.15774 12.3423C9.15774 11.7028 8.6394 11.1845 7.99999 11.1845Z" fill="white"/>
<path d="M5.6834 4.67306C5.6834 5.0728 5.35935 5.39686 4.9596 5.39686C4.55986 5.39686 4.2358 5.0728 4.2358 4.67306C4.2358 4.27331 4.55986 3.94926 4.9596 3.94926C5.35935 3.94926 5.6834 4.27331 5.6834 4.67306Z" fill="white"/>
<path d="M11.0404 10.6042C10.6407 10.6042 10.3166 10.9283 10.3166 11.328C10.3166 11.7278 10.6407 12.0518 11.0404 12.0518C11.4401 12.0518 11.7642 11.7278 11.7642 11.328C11.7642 10.9283 11.4401 10.6042 11.0404 10.6042Z" fill="white"/>
<path d="M11.7637 4.67306C11.7637 5.0728 11.4396 5.39686 11.0399 5.39686C10.6401 5.39686 10.3161 5.0728 10.3161 4.67306C10.3161 4.27331 10.6401 3.94926 11.0399 3.94926C11.4396 3.94926 11.7637 4.27331 11.7637 4.67306Z" fill="white"/>
<path d="M4.96012 10.6042C4.56037 10.6042 4.23632 10.9283 4.23632 11.328C4.23632 11.7278 4.56037 12.0518 4.96012 12.0518C5.35986 12.0518 5.68392 11.7278 5.68392 11.328C5.68392 10.9283 5.35986 10.6042 4.96012 10.6042Z" fill="white"/>
<path d="M7.99999 9.15883C7.36058 9.15883 6.84224 8.64049 6.84224 8.00108C6.84224 7.36168 7.36058 6.84334 7.99999 6.84334C8.6394 6.84334 9.15774 7.36168 9.15774 8.00108C9.15774 8.64049 8.6394 9.15883 7.99999 9.15883Z" fill="white"/>
</g>
<defs>
<linearGradient id="paint0_linear_1758_7084" x1="8" y1="0" x2="8" y2="16" gradientUnits="userSpaceOnUse">
<stop stop-color="#3286FF"/>
<stop offset="1" stop-color="#0F2478"/>
</linearGradient>
<clipPath id="clip0_1758_7084">
<rect width="16" height="16" rx="4" fill="white"/>
</clipPath>
</defs>
</svg>
