<svg width="17" height="16" viewBox="0 0 17 16" fill="none" xmlns="http://www.w3.org/2000/svg">
<g clip-path="url(#clip0_3112_68040)">
<rect x="0.533203" width="16" height="16" fill="url(#paint0_linear_3112_68040)"/>
<path d="M9.73508 5.97901L8.5349 4.77472L7.34051 5.97323L8.54069 7.17753L9.73508 5.97901ZM12.8751 5.92866L9.60931 9.12994C9.01558 9.7118 8.05024 9.7118 7.45651 9.12994L4.19125 5.92866L3.0332 7.11789L6.29906 10.3192C6.91527 10.9231 7.72426 11.2253 8.5332 11.2253C9.34214 11.2253 10.1517 10.9231 10.7673 10.3192L14.0332 7.11789L12.8751 5.92866Z" fill="#302E2D"/>
</g>
<defs>
<linearGradient id="paint0_linear_3112_68040" x1="12.8784" y1="1.2298" x2="-0.366785" y2="4.968" gradientUnits="userSpaceOnUse">
<stop offset="0.372396" stop-color="#FF97D6"/>
<stop offset="0.802083" stop-color="#F8B994"/>
</linearGradient>
<clipPath id="clip0_3112_68040">
<path d="M0.533203 8C0.533203 4.22876 0.533203 2.34315 1.70478 1.17157C2.87635 0 4.76197 0 8.5332 0C12.3044 0 14.1901 0 15.3616 1.17157C16.5332 2.34315 16.5332 4.22876 16.5332 8C16.5332 11.7712 16.5332 13.6569 15.3616 14.8284C14.1901 16 12.3044 16 8.5332 16C4.76197 16 2.87635 16 1.70478 14.8284C0.533203 13.6569 0.533203 11.7712 0.533203 8Z" fill="white"/>
</clipPath>
</defs>
</svg>
