<svg width="17" height="16" viewBox="0 0 17 16" fill="none" xmlns="http://www.w3.org/2000/svg">
<g clip-path="url(#clip0_1758_7129)">
<rect x="0.466675" width="16" height="16" rx="4" fill="#110815"/>
<g filter="url(#filter0_f_1758_7129)">
<path d="M13.3202 4.473L11.993 3.14581L10.3204 2.29402L8.4664 2L6.61241 2.29402L4.9398 3.14581L3.6126 4.473L2.76079 6.14561L2.4668 7.99961L2.76079 9.85361L3.6126 11.5262L4.9398 12.8534L6.61241 13.706L8.4664 14L10.3204 13.706L11.993 12.8534L13.3202 11.5262L14.1727 9.85361L14.4668 7.99961L14.1727 6.14561L13.3202 4.473Z" stroke="white" stroke-width="0.363908" stroke-miterlimit="10"/>
</g>
<path d="M13.3202 4.473L11.993 3.14581L10.3204 2.29402L8.4664 2L6.61241 2.29402L4.9398 3.14581L3.6126 4.473L2.76079 6.14561L2.4668 7.99961L2.76079 9.85361L3.6126 11.5262L4.9398 12.8534L6.61241 13.706L8.4664 14L10.3204 13.706L11.993 12.8534L13.3202 11.5262L14.1727 9.85361L14.4668 7.99961L14.1727 6.14561L13.3202 4.473Z" stroke="white" stroke-width="0.151162" stroke-miterlimit="10"/>
<path d="M11.9929 3.14584L8.46631 7.99965" stroke="white" stroke-width="0.0755808" stroke-miterlimit="10"/>
<path d="M4.9397 3.14584L8.4663 7.99965" stroke="white" stroke-width="0.0755808" stroke-miterlimit="10"/>
<path d="M2.76074 9.85354L8.46633 7.99954" stroke="white" stroke-width="0.0755808" stroke-miterlimit="10"/>
<path d="M8.46631 13.9992V7.99954" stroke="white" stroke-width="0.0755808" stroke-miterlimit="10"/>
<path d="M14.1727 9.85354L8.46631 7.99954" stroke="white" stroke-width="0.0755808" stroke-miterlimit="10"/>
<path d="M8.46639 9.67382L10.0581 8.51745L9.45042 6.64606H7.48232L6.87463 8.51745L8.46639 9.67382Z" stroke="white" stroke-width="0.0755808" stroke-miterlimit="10"/>
<path d="M6.6123 2.29401L8.4663 4.89775L10.3203 2.29401" stroke="white" stroke-width="0.0755808" stroke-miterlimit="10"/>
<path d="M8.46631 2.68704V2L6.8927 2.68704H8.46631ZM8.46631 2.68704L7.49885 3.53883H9.43374L8.46631 2.68704Z" stroke="white" stroke-width="0.0755808" stroke-miterlimit="10"/>
<path d="M8.46631 2L10.0407 2.68704H8.46631" stroke="white" stroke-width="0.0755808" stroke-miterlimit="10"/>
<path d="M7.48218 6.64599L8.46624 4.8978L9.45031 6.64599" stroke="white" stroke-width="0.0755808" stroke-miterlimit="10"/>
<path d="M8.4663 4.89771L6.35533 5.09348L7.49885 3.53877L5.51109 3.93254L6.8927 2.68698L4.9397 3.14575" stroke="white" stroke-width="0.0755808" stroke-miterlimit="10"/>
<path d="M8.46631 4.89771L10.578 5.09348L9.43376 3.53877L11.4215 3.93254L10.0407 2.68698L11.9929 3.14575" stroke="white" stroke-width="0.0755808" stroke-miterlimit="10"/>
<path d="M2.46667 7.99966L5.51637 7.04129L3.61248 4.47305" stroke="white" stroke-width="0.0755808" stroke-miterlimit="10"/>
<path d="M3.41289 6.35812L2.75989 6.14574L2.92692 7.85461L3.41289 6.35812ZM3.41289 6.35812L3.92459 7.54169L4.52244 5.70132L3.41289 6.35812Z" stroke="white" stroke-width="0.0755808" stroke-miterlimit="10"/>
<path d="M2.75989 6.14566L3.89965 4.86078L3.41289 6.35805" stroke="white" stroke-width="0.0755808" stroke-miterlimit="10"/>
<path d="M6.87455 8.51745L5.51636 7.04133L7.48221 6.64606" stroke="white" stroke-width="0.0755808" stroke-miterlimit="10"/>
<path d="M5.51632 7.04114L5.04999 9.1098L3.92459 7.54149L3.68498 9.55347L2.92692 7.85441L2.75989 9.85351" stroke="white" stroke-width="0.0755808" stroke-miterlimit="10"/>
<path d="M5.51558 7.04128L6.35451 5.09357L4.52245 5.70123L5.51103 3.93188L3.89966 4.86079L4.93966 3.14584" stroke="white" stroke-width="0.0755808" stroke-miterlimit="10"/>
<path d="M6.6115 13.7059L6.64249 10.5088L3.61169 11.5261" stroke="white" stroke-width="0.0755808" stroke-miterlimit="10"/>
<path d="M5.34253 12.2978L4.9397 12.8533L6.61682 13.2229L5.34253 12.2978ZM5.34253 12.2978L6.62666 12.1769L5.06138 11.0401L5.34253 12.2978Z" stroke="white" stroke-width="0.0755808" stroke-miterlimit="10"/>
<path d="M4.93965 12.8533L4.06897 11.3727L5.34251 12.2978" stroke="white" stroke-width="0.0755808" stroke-miterlimit="10"/>
<path d="M8.46634 9.67385L6.64258 10.509L6.87461 8.51746" stroke="white" stroke-width="0.0755808" stroke-miterlimit="10"/>
<path d="M6.64252 10.5088L8.46628 11.5919L6.62663 12.1769L8.46628 13.0272L6.61682 13.2229L8.46628 13.9991" stroke="white" stroke-width="0.0755808" stroke-miterlimit="10"/>
<path d="M6.64247 10.5097L5.04999 9.10992L5.06131 11.0403L3.68423 9.55359L4.06969 11.3728L2.75989 9.85365" stroke="white" stroke-width="0.0755808" stroke-miterlimit="10"/>
<path d="M13.3194 11.5269L10.2893 10.5096L10.3203 13.7059" stroke="white" stroke-width="0.0755808" stroke-miterlimit="10"/>
<path d="M11.5885 12.2985L11.9921 12.8541L12.8621 11.3734L11.5885 12.2985ZM11.5885 12.2985L11.8705 11.0401L10.3052 12.1776L11.5885 12.2985Z" stroke="white" stroke-width="0.0755808" stroke-miterlimit="10"/>
<path d="M11.9922 12.8541L10.3151 13.2237L11.5886 12.2986" stroke="white" stroke-width="0.0755808" stroke-miterlimit="10"/>
<path d="M10.0581 8.51746L10.2893 10.5098L8.46631 9.67385" stroke="white" stroke-width="0.0755808" stroke-miterlimit="10"/>
<path d="M10.2893 10.5097L11.8825 9.10992L11.8705 11.0403L13.2476 9.55359L12.8621 11.3736L14.1719 9.85441" stroke="white" stroke-width="0.0755808" stroke-miterlimit="10"/>
<path d="M10.2893 10.5096L8.46631 11.5919L10.3052 12.1777L8.46631 13.028L10.3158 13.2237L8.46631 13.9999" stroke="white" stroke-width="0.0755808" stroke-miterlimit="10"/>
<path d="M13.3201 4.47382L11.4163 7.04206L14.466 8.00042" stroke="white" stroke-width="0.0755808" stroke-miterlimit="10"/>
<path d="M13.5197 6.35884L14.1727 6.14646L13.0329 4.86157L13.5197 6.35884ZM13.5197 6.35884L12.4102 5.70129L13.008 7.54169L13.5197 6.35884Z" stroke="white" stroke-width="0.0755808" stroke-miterlimit="10"/>
<path d="M14.1727 6.14627L14.0057 7.85517L13.5197 6.35865" stroke="white" stroke-width="0.0755808" stroke-miterlimit="10"/>
<path d="M9.45032 6.64606L11.4162 7.04211L10.058 8.51745" stroke="white" stroke-width="0.0755808" stroke-miterlimit="10"/>
<path d="M11.4162 7.04207L10.578 5.09434L12.4101 5.70124L11.4215 3.93267L13.0329 4.86155L11.9929 3.14661" stroke="white" stroke-width="0.0755808" stroke-miterlimit="10"/>
<path d="M11.4163 7.04114L11.8826 9.1098L13.008 7.54149L13.2483 9.55347L14.0057 7.85516L14.1719 9.85426" stroke="white" stroke-width="0.0755808" stroke-miterlimit="10"/>
</g>
<defs>
<filter id="filter0_f_1758_7129" x="-0.446703" y="-0.91353" width="17.827" height="17.8271" filterUnits="userSpaceOnUse" color-interpolation-filters="sRGB">
<feFlood flood-opacity="0" result="BackgroundImageFix"/>
<feBlend mode="normal" in="SourceGraphic" in2="BackgroundImageFix" result="shape"/>
<feGaussianBlur stdDeviation="1.36465" result="effect1_foregroundBlur_1758_7129"/>
</filter>
<clipPath id="clip0_1758_7129">
<rect x="0.466675" width="16" height="16" rx="4" fill="white"/>
</clipPath>
</defs>
</svg>
