<svg width="17" height="16" viewBox="0 0 17 16" fill="none" xmlns="http://www.w3.org/2000/svg">
<g clip-path="url(#clip0_1758_7276)">
<rect x="0.466675" width="16" height="16" rx="4" fill="white" fill-opacity="0.08"/>
<path fill-rule="evenodd" clip-rule="evenodd" d="M5.49177 4.38842C5.68471 3.99009 6.16395 3.8096 6.57473 3.99009C6.98551 4.17058 7.17223 4.64983 7.00418 5.06061C6.0208 7.23276 5.02497 9.40491 4.05404 11.5833C3.86732 12.0003 3.37563 12.187 2.95863 12.0065C2.54162 11.8198 2.35491 11.3281 2.5354 10.9111C3.50633 8.73273 4.50216 6.56057 5.48554 4.38842H5.49177Z" fill="#2073E9"/>
<path fill-rule="evenodd" clip-rule="evenodd" d="M9.15766 4.38842C9.3506 3.99009 9.82985 3.8096 10.2406 3.99009C10.6514 4.17058 10.8381 4.64983 10.6701 5.06061C9.6867 7.23276 10.2344 6.1249 9.26347 8.30327C9.07675 8.72028 8.58506 8.907 8.16806 8.7265C7.75105 8.53978 7.56434 8.04809 7.74483 7.63109C8.71576 5.45271 8.16806 6.56057 9.15144 4.38842H9.15766Z" fill="#2073E9"/>
<path fill-rule="evenodd" clip-rule="evenodd" d="M12.8858 4.38842C13.0787 3.99009 13.558 3.8096 13.9688 3.99009C14.3795 4.17058 14.5663 4.64983 14.3982 5.06061C13.4148 7.23276 12.419 9.40491 11.4481 11.5833C11.2614 12.0003 10.7697 12.187 10.3527 12.0065C9.93565 11.8198 9.74894 11.3281 9.92943 10.9111C10.9004 8.73273 11.8962 6.56057 12.8796 4.38842H12.8858Z" fill="#C8E3FF"/>
<path d="M13.6389 5.57719C14.0961 5.57719 14.4667 5.20658 14.4667 4.74941C14.4667 4.29224 14.0961 3.92163 13.6389 3.92163C13.1817 3.92163 12.8111 4.29224 12.8111 4.74941C12.8111 5.20658 13.1817 5.57719 13.6389 5.57719Z" fill="#2073E9"/>
<path d="M10.695 12.075C11.1521 12.075 11.5228 11.7044 11.5228 11.2472C11.5228 10.79 11.1521 10.4194 10.695 10.4194C10.2378 10.4194 9.86719 10.79 9.86719 11.2472C9.86719 11.7044 10.2378 12.075 10.695 12.075Z" fill="#2073E9"/>
</g>
<defs>
<clipPath id="clip0_1758_7276">
<rect x="0.466675" width="16" height="16" rx="4" fill="white"/>
</clipPath>
</defs>
</svg>
