<svg width="16" height="16" viewBox="0 0 16 16" fill="none" xmlns="http://www.w3.org/2000/svg">
<g clip-path="url(#clip0_1758_7276)">
<rect width="16" height="16" rx="4" fill="white" fill-opacity="0.08"/>
<path fill-rule="evenodd" clip-rule="evenodd" d="M5.02509 4.38845C5.21803 3.99012 5.69728 3.80963 6.10806 3.99012C6.51884 4.17061 6.70555 4.64986 6.53751 5.06064C5.55413 7.23279 4.5583 9.40494 3.58736 11.5833C3.40065 12.0003 2.90896 12.187 2.49195 12.0065C2.07495 11.8198 1.88823 11.3281 2.06872 10.9111C3.03966 8.73276 4.03549 6.5606 5.01887 4.38845H5.02509Z" fill="#2073E9"/>
<path fill-rule="evenodd" clip-rule="evenodd" d="M8.69099 4.38845C8.88393 3.99012 9.36317 3.80963 9.77395 3.99012C10.1847 4.17061 10.3714 4.64986 10.2034 5.06064C9.22002 7.23279 9.76773 6.12493 8.79679 8.3033C8.61008 8.72031 8.11839 8.90703 7.70138 8.72653C7.28438 8.53981 7.09766 8.04812 7.27815 7.63112C8.24909 5.45274 7.70138 6.5606 8.68476 4.38845H8.69099Z" fill="#2073E9"/>
<path fill-rule="evenodd" clip-rule="evenodd" d="M12.4191 4.38845C12.6121 3.99012 13.0913 3.80963 13.5021 3.99012C13.9129 4.17061 14.0996 4.64986 13.9315 5.06064C12.9482 7.23279 11.9523 9.40494 10.9814 11.5833C10.7947 12.0003 10.303 12.187 9.88598 12.0065C9.46898 11.8198 9.28226 11.3281 9.46275 10.9111C10.4337 8.73276 11.4295 6.5606 12.4129 4.38845H12.4191Z" fill="#C8E3FF"/>
<path d="M13.1722 5.57722C13.6294 5.57722 14 5.20661 14 4.74944C14 4.29227 13.6294 3.92166 13.1722 3.92166C12.715 3.92166 12.3444 4.29227 12.3444 4.74944C12.3444 5.20661 12.715 5.57722 13.1722 5.57722Z" fill="#2073E9"/>
<path d="M10.2283 12.075C10.6855 12.075 11.0561 11.7044 11.0561 11.2472C11.0561 10.7901 10.6855 10.4194 10.2283 10.4194C9.77113 10.4194 9.40052 10.7901 9.40052 11.2472C9.40052 11.7044 9.77113 12.075 10.2283 12.075Z" fill="#2073E9"/>
</g>
<defs>
<clipPath id="clip0_1758_7276">
<rect width="16" height="16" rx="4" fill="white"/>
</clipPath>
</defs>
</svg>
