<svg width="17" height="16" viewBox="0 0 17 16" fill="none" xmlns="http://www.w3.org/2000/svg">
<g clip-path="url(#clip0_1758_7313)">
<rect x="0.466675" width="16" height="16" rx="4" fill="white" fill-opacity="0.08"/>
<path d="M4.96667 2.5H9.24643C11.2262 2.5 12.8303 4.08242 12.8303 6.03218C12.8303 7.98195 11.2262 9.56247 9.24741 9.56247H5.68363V6.73768H9.24643C9.6422 6.73768 9.96341 6.42119 9.96341 6.03124C9.96341 5.64128 9.6422 5.3248 9.24643 5.3248H4.96667V2.5Z" fill="#7D5AFF"/>
<path d="M9.88403 12.3854C9.88403 13.5533 8.92321 14.5 7.73795 14.5C6.55269 14.5 5.59185 13.5533 5.59185 12.3854C5.59185 11.2176 6.55269 10.2708 7.73795 10.2708C8.92321 10.2708 9.88403 11.2176 9.88403 12.3854Z" fill="#7D5AFF"/>
</g>
<defs>
<clipPath id="clip0_1758_7313">
<rect x="0.466675" width="16" height="16" rx="4" fill="white"/>
</clipPath>
</defs>
</svg>
