<svg width="16" height="16" viewBox="0 0 16 16" fill="none" xmlns="http://www.w3.org/2000/svg">
<g clip-path="url(#clip0_1758_7313)">
<rect width="16" height="16" rx="4" fill="white" fill-opacity="0.08"/>
<path d="M4.5 2.5H8.77976C10.7595 2.5 12.3636 4.08242 12.3636 6.03218C12.3636 7.98195 10.7595 9.56247 8.78073 9.56247H5.21696V6.73768H8.77976C9.17552 6.73768 9.49674 6.42119 9.49674 6.03124C9.49674 5.64128 9.17552 5.3248 8.77976 5.3248H4.5V2.5Z" fill="#7D5AFF"/>
<path d="M9.41736 12.3854C9.41736 13.5533 8.45654 14.5 7.27127 14.5C6.08601 14.5 5.12517 13.5533 5.12517 12.3854C5.12517 11.2176 6.08601 10.2708 7.27127 10.2708C8.45654 10.2708 9.41736 11.2176 9.41736 12.3854Z" fill="#7D5AFF"/>
</g>
<defs>
<clipPath id="clip0_1758_7313">
<rect width="16" height="16" rx="4" fill="white"/>
</clipPath>
</defs>
</svg>
