<svg width="17" height="16" viewBox="0 0 17 16" fill="none" xmlns="http://www.w3.org/2000/svg">
<g clip-path="url(#clip0_1758_7536)">
<rect x="0.466675" width="16" height="16" rx="4" fill="#191919"/>
<path d="M15.1575 5.57159C15.1575 5.57159 15.01 6.17892 13.9767 6.17892C13.63 6.17892 13.5118 6.28201 13.4332 6.37577C13.3765 6.44312 13.3398 6.50594 13.2537 6.52237C13.1165 6.49593 13.1052 6.35256 12.938 6.25979C12.8539 6.21305 12.7302 6.17892 12.5307 6.17892C11.4975 6.17892 11.2839 5.57159 11.2839 5.57159C11.0512 6.45695 11.7874 7.09585 12.2485 7.41837C12.4802 7.58042 12.5658 7.88328 12.4531 8.14266C11.916 9.37825 11.3 9.76359 10.4633 9.76359C10.3115 9.76359 10.1546 9.75165 9.99158 9.73135C9.94713 9.72588 9.90232 9.71945 9.85692 9.71267C9.82662 9.70814 9.79635 9.70334 9.76573 9.69817C9.73511 9.69301 9.70453 9.68785 9.67328 9.68237C9.39426 9.63244 9.09945 9.56446 8.78725 9.49167C8.75663 9.48458 8.72569 9.47717 8.69476 9.47007C8.23501 9.36245 7.73818 9.24741 7.20045 9.16592C7.14729 9.15788 7.0948 9.15047 7.04325 9.14337C7.03036 9.14144 7.01748 9.13983 7.00459 9.13821C6.97913 9.13498 6.95367 9.13175 6.92821 9.12887C6.91564 9.12726 6.90307 9.12596 6.89054 9.12434C6.8654 9.12146 6.84057 9.11886 6.81578 9.11598C6.76648 9.11082 6.71781 9.10598 6.66981 9.1018C6.4546 9.08312 6.2542 9.07441 6.06796 9.07441C5.70615 9.07441 5.3975 9.10696 5.1359 9.15882C5.10819 9.1643 5.08144 9.16978 5.05503 9.17557C5.02859 9.18136 5.0025 9.18751 4.97704 9.19394C4.9387 9.20328 4.90165 9.21297 4.86555 9.22326C4.84171 9.23003 4.81787 9.23681 4.79501 9.24391C4.7718 9.25096 4.74926 9.25805 4.72735 9.26546C4.70512 9.27287 4.68352 9.28028 4.66228 9.28769C4.65164 9.29159 4.64132 9.2951 4.63103 9.29931C4.61038 9.30704 4.59009 9.31476 4.57046 9.32249C4.56045 9.32635 4.5508 9.33025 4.54114 9.33443C4.52179 9.34247 4.5028 9.35055 4.48443 9.35859C4.47541 9.36276 4.46607 9.36698 4.45704 9.37084C4.43899 9.3792 4.42157 9.38728 4.40452 9.39532C4.25921 9.46554 4.14483 9.539 4.05655 9.60603C4.04624 9.61376 4.03625 9.62148 4.02659 9.62921C4.01048 9.64209 3.99502 9.65502 3.98084 9.66724C3.97826 9.66984 3.97568 9.67177 3.9731 9.67401C3.97279 9.67433 3.97214 9.67464 3.97182 9.67496C3.97085 9.67563 3.9702 9.67658 3.96924 9.67725C3.96731 9.67886 3.9657 9.68044 3.96376 9.68205C3.95861 9.6869 3.95313 9.69139 3.9483 9.69593C3.87001 9.76678 3.81523 9.82802 3.77174 9.90436C3.70601 10.0194 3.68443 10.099 3.68443 10.099C3.94153 10.6854 4.30883 11.2247 4.77472 11.6909C4.77728 11.6935 4.78019 11.696 4.78276 11.6986C4.78532 11.7016 4.78855 11.7048 4.79115 11.7074C5.73452 12.6514 6.97621 13.1888 8.30331 13.2326C8.39966 13.4462 8.59395 13.7371 8.92999 13.7001C8.92999 13.7001 9.1439 14.2945 9.72352 14.1624C9.72352 14.1624 9.77412 14.7278 11.0477 14.7198C11.0477 14.7198 10.2374 14.29 10.2332 13.5477C10.2319 13.3366 10.1958 13.1456 10.1218 12.9729C10.8728 12.7245 11.5616 12.3047 12.1403 11.7331C12.1489 11.7244 12.1577 11.716 12.1664 11.7074C12.5002 11.3736 12.783 11.0021 13.0114 10.6029C13.4113 9.90373 13.6432 9.11855 13.6864 8.29861C13.6871 8.28729 13.6877 8.27602 13.6881 8.26475C13.6996 8.17841 13.7087 8.1001 13.7161 8.03118C13.7348 7.85396 13.834 7.6964 13.9832 7.5991C14.5167 7.25116 15.4656 6.3922 15.1575 5.57159Z" fill="white"/>
<path d="M3.6909 8.01683C3.6909 6.73679 4.18901 5.53372 5.09338 4.62838C5.35048 4.37096 5.6321 4.14641 5.93235 3.95693C6.91375 3.3377 8.21476 4.00107 8.24857 5.16095C8.24924 5.18318 8.24956 5.20576 8.24956 5.22862V8.84166L8.708 8.92607V5.22862C8.708 5.20544 8.70835 5.18255 8.70898 5.15969C8.74378 4.00012 10.0435 3.33706 11.0252 3.95567C11.3261 4.14542 11.608 4.37033 11.8658 4.62806C12.1857 4.9483 12.4548 5.30594 12.669 5.69096C12.8607 5.70448 13.0221 5.74736 13.16 5.82014C13.1861 5.83402 13.2103 5.84852 13.2328 5.86334C12.977 5.29821 12.6184 4.77821 12.167 4.32651C11.6447 3.80391 11.031 3.40568 10.3621 3.14696C10.3286 3.13408 10.2951 3.12151 10.2616 3.10927C10.1727 3.07705 10.0828 3.04709 9.99194 3.0197C9.81795 2.96719 9.6414 2.92401 9.46193 2.88986C9.21223 2.8425 8.95773 2.81318 8.69996 2.80287C8.62682 2.79965 8.55336 2.79803 8.47958 2.79803C8.40581 2.79803 8.33137 2.79965 8.25759 2.80287C8.00081 2.8135 7.74757 2.8425 7.49917 2.88953C7.31939 2.92337 7.14217 2.96686 6.96821 3.01938C6.87671 3.04676 6.78615 3.07673 6.69661 3.10959C6.66307 3.12183 6.62926 3.1344 6.59608 3.14729C5.92755 3.406 5.31411 3.80391 4.79182 4.32651C3.80721 5.3124 3.26465 6.62306 3.26465 8.01683C3.26465 8.52009 3.33521 9.01206 3.47214 9.48249C3.51402 9.43287 3.57234 9.371 3.64967 9.30334C3.70572 9.25435 3.76501 9.20765 3.82816 9.1632C3.73762 8.79236 3.6909 8.40797 3.6909 8.01683Z" fill="#3CCD64"/>
</g>
<defs>
<clipPath id="clip0_1758_7536">
<rect x="0.466675" width="16" height="16" rx="4" fill="white"/>
</clipPath>
</defs>
</svg>
