<svg width="16" height="16" viewBox="0 0 16 16" fill="none" xmlns="http://www.w3.org/2000/svg">
<g clip-path="url(#clip0_1758_7536)">
<rect width="16" height="16" rx="4" fill="#191919"/>
<path d="M14.6909 5.57159C14.6909 5.57159 14.5433 6.17892 13.5101 6.17892C13.1634 6.17892 13.0451 6.28201 12.9665 6.37577C12.9098 6.44312 12.8731 6.50594 12.7871 6.52237C12.6498 6.49593 12.6385 6.35256 12.4713 6.25979C12.3872 6.21305 12.2635 6.17892 12.0641 6.17892C11.0308 6.17892 10.8172 5.57159 10.8172 5.57159C10.5846 6.45695 11.3208 7.09585 11.7819 7.41837C12.0135 7.58042 12.0992 7.88328 11.9864 8.14266C11.4493 9.37825 10.8333 9.76359 9.99659 9.76359C9.84483 9.76359 9.68794 9.75165 9.52491 9.73135C9.48046 9.72588 9.43565 9.71945 9.39025 9.71267C9.35994 9.70814 9.32968 9.70334 9.29906 9.69817C9.26844 9.69301 9.23785 9.68785 9.2066 9.68237C8.92759 9.63244 8.63277 9.56446 8.32057 9.49167C8.28995 9.48458 8.25902 9.47717 8.22808 9.47007C7.76834 9.36245 7.27151 9.24741 6.73378 9.16592C6.68061 9.15788 6.62812 9.15047 6.57657 9.14337C6.56369 9.14144 6.5508 9.13983 6.53791 9.13821C6.51246 9.13498 6.487 9.13175 6.46154 9.12887C6.44897 9.12726 6.4364 9.12596 6.42386 9.12434C6.39872 9.12146 6.37389 9.11886 6.34911 9.11598C6.29981 9.11082 6.25114 9.10598 6.20314 9.1018C5.98792 9.08312 5.78753 9.07441 5.60128 9.07441C5.23947 9.07441 4.93082 9.10696 4.66922 9.15882C4.64152 9.1643 4.61476 9.16978 4.58836 9.17557C4.56191 9.18136 4.53583 9.18751 4.51037 9.19394C4.47202 9.20328 4.43498 9.21297 4.39888 9.22326C4.37504 9.23003 4.35119 9.23681 4.32834 9.24391C4.30513 9.25096 4.28258 9.25805 4.26067 9.26546C4.23845 9.27287 4.21685 9.28028 4.19561 9.28769C4.18497 9.29159 4.17464 9.2951 4.16436 9.29931C4.14371 9.30704 4.12341 9.31476 4.10379 9.32249C4.09378 9.32635 4.08412 9.33025 4.07447 9.33443C4.05512 9.34247 4.03612 9.35055 4.01776 9.35859C4.00873 9.36276 3.99939 9.36698 3.99037 9.37084C3.97232 9.3792 3.9549 9.38728 3.93784 9.39532C3.79253 9.46554 3.67816 9.539 3.58988 9.60603C3.57957 9.61376 3.56958 9.62148 3.55992 9.62921C3.54381 9.64209 3.52834 9.65502 3.51416 9.66724C3.51158 9.66984 3.50901 9.67177 3.50643 9.67401C3.50611 9.67433 3.50546 9.67464 3.50514 9.67496C3.50418 9.67563 3.50353 9.67658 3.50256 9.67725C3.50063 9.67886 3.49902 9.68044 3.49709 9.68205C3.49193 9.6869 3.48645 9.69139 3.48162 9.69593C3.40333 9.76678 3.34856 9.82802 3.30506 9.90436C3.23934 10.0194 3.21775 10.099 3.21775 10.099C3.47486 10.6854 3.84215 11.2247 4.30804 11.6909C4.3106 11.6935 4.31352 11.696 4.31608 11.6986C4.31864 11.7016 4.32187 11.7048 4.32448 11.7074C5.26784 12.6514 6.50954 13.1888 7.83663 13.2326C7.93299 13.4462 8.12727 13.7371 8.46331 13.7001C8.46331 13.7001 8.67722 14.2945 9.25685 14.1624C9.25685 14.1624 9.30745 14.7278 10.581 14.7198C10.581 14.7198 9.77074 14.29 9.76656 13.5477C9.76526 13.3366 9.72916 13.1456 9.65508 12.9729C10.4061 12.7245 11.0949 12.3047 11.6736 11.7331C11.6823 11.7244 11.691 11.716 11.6997 11.7074C12.0335 11.3736 12.3164 11.0021 12.5448 10.6029C12.9446 9.90373 13.1766 9.11855 13.2198 8.29861C13.2204 8.28729 13.2211 8.27602 13.2214 8.26475C13.233 8.17841 13.242 8.1001 13.2494 8.03118C13.2681 7.85396 13.3673 7.6964 13.5165 7.5991C14.05 7.25116 14.9989 6.3922 14.6909 5.57159Z" fill="white"/>
<path d="M3.22423 8.01683C3.22423 6.73679 3.72233 5.53372 4.6267 4.62838C4.88381 4.37096 5.16542 4.14641 5.46568 3.95693C6.44708 3.3377 7.74808 4.00107 7.7819 5.16095C7.78257 5.18318 7.78288 5.20576 7.78288 5.22862V8.84166L8.24132 8.92607V5.22862C8.24132 5.20544 8.24168 5.18255 8.24231 5.15969C8.27711 4.00012 9.57681 3.33706 10.5585 3.95567C10.8595 4.14542 11.1413 4.37033 11.3991 4.62806C11.719 4.9483 11.9881 5.30594 12.2023 5.69096C12.394 5.70448 12.5555 5.74736 12.6933 5.82014C12.7194 5.83402 12.7436 5.84852 12.7662 5.86334C12.5103 5.29821 12.1517 4.77821 11.7004 4.32651C11.1781 3.80391 10.5643 3.40568 9.89547 3.14696C9.86193 3.13408 9.82844 3.12151 9.79494 3.10927C9.70599 3.07705 9.6161 3.04709 9.52526 3.0197C9.35127 2.96719 9.17472 2.92401 8.99525 2.88986C8.74556 2.8425 8.49106 2.81318 8.23328 2.80287C8.16014 2.79965 8.08668 2.79803 8.01291 2.79803C7.93914 2.79803 7.86469 2.79965 7.79092 2.80287C7.53413 2.8135 7.28089 2.8425 7.0325 2.88953C6.85271 2.92337 6.67549 2.96686 6.50154 3.01938C6.41003 3.04676 6.31947 3.07673 6.22993 3.10959C6.1964 3.12183 6.16259 3.1344 6.1294 3.14729C5.46087 3.406 4.84743 3.80391 4.32515 4.32651C3.34054 5.3124 2.79797 6.62306 2.79797 8.01683C2.79797 8.52009 2.86853 9.01206 3.00546 9.48249C3.04735 9.43287 3.10566 9.371 3.18299 9.30334C3.23905 9.25435 3.29833 9.20765 3.36148 9.1632C3.27095 8.79236 3.22423 8.40797 3.22423 8.01683Z" fill="#3CCD64"/>
</g>
<defs>
<clipPath id="clip0_1758_7536">
<rect width="16" height="16" rx="4" fill="white"/>
</clipPath>
</defs>
</svg>
