<svg width="24" height="24" viewBox="0 0 24 24" fill="none" xmlns="http://www.w3.org/2000/svg">
<g filter="url(#filter0_d_5500_92922)">
<g clip-path="url(#clip0_5500_92922)">
<rect x="4" width="16" height="16" rx="4" fill="white" fill-opacity="0.08"/>
<path d="M7.27168 0H16.7283C18.5434 0 20 1.45664 20 3.27168V12.7283C20 14.5434 18.5434 16 16.7283 16H7.27168C5.45664 16 4 14.5434 4 12.7283V3.27168C4 1.45664 5.45664 0 7.27168 0Z" fill="#00EC97"/>
<path d="M14.715 3.96L12.835 6.75C12.705 6.94 12.955 7.17 13.135 7.01L14.985 5.4C15.035 5.36 15.105 5.39 15.105 5.46V10.49C15.105 10.56 15.015 10.59 14.975 10.54L9.375 3.84C9.195 3.62 8.935 3.5 8.645 3.5H8.445C7.925 3.5 7.495 3.93 7.495 4.46V11.54C7.495 12.07 7.925 12.5 8.455 12.5C8.785 12.5 9.095 12.33 9.275 12.04L11.155 9.25C11.285 9.06 11.035 8.83 10.855 8.99L9.005 10.59C8.955 10.63 8.885 10.6 8.885 10.53V5.51C8.885 5.44 8.975 5.41 9.015 5.46L14.615 12.16C14.795 12.38 15.065 12.5 15.345 12.5H15.545C16.075 12.5 16.505 12.07 16.505 11.54V4.46C16.505 3.93 16.075 3.5 15.545 3.5C15.205 3.5 14.895 3.67 14.715 3.96Z" fill="black"/>
</g>
</g>
<defs>
<filter id="filter0_d_5500_92922" x="0" y="0" width="24" height="24" filterUnits="userSpaceOnUse" color-interpolation-filters="sRGB">
<feFlood flood-opacity="0" result="BackgroundImageFix"/>
<feColorMatrix in="SourceAlpha" type="matrix" values="0 0 0 0 0 0 0 0 0 0 0 0 0 0 0 0 0 0 127 0" result="hardAlpha"/>
<feOffset dy="4"/>
<feGaussianBlur stdDeviation="2"/>
<feComposite in2="hardAlpha" operator="out"/>
<feColorMatrix type="matrix" values="0 0 0 0 0 0 0 0 0 0 0 0 0 0 0 0 0 0 0.25 0"/>
<feBlend mode="normal" in2="BackgroundImageFix" result="effect1_dropShadow_5500_92922"/>
<feBlend mode="normal" in="SourceGraphic" in2="effect1_dropShadow_5500_92922" result="shape"/>
</filter>
<clipPath id="clip0_5500_92922">
<rect x="4" width="16" height="16" rx="4" fill="white"/>
</clipPath>
</defs>
</svg>
