<svg width="16" height="16" viewBox="0 0 16 16" fill="none" xmlns="http://www.w3.org/2000/svg">
<g clip-path="url(#clip0_5500_92922)">
<rect width="16" height="16" fill="#00EC97"/>
<path d="M10.715 3.96L8.835 6.75C8.705 6.94 8.955 7.17 9.135 7.01L10.985 5.4C11.035 5.36 11.105 5.39 11.105 5.46V10.49C11.105 10.56 11.015 10.59 10.975 10.54L5.375 3.84C5.195 3.62 4.935 3.5 4.645 3.5H4.445C3.925 3.5 3.495 3.93 3.495 4.46V11.54C3.495 12.07 3.925 12.5 4.455 12.5C4.785 12.5 5.095 12.33 5.275 12.04L7.155 9.25C7.285 9.06 7.035 8.83 6.855 8.99L5.005 10.59C4.955 10.63 4.885 10.6 4.885 10.53V5.51C4.885 5.44 4.975 5.41 5.015 5.46L10.615 12.16C10.795 12.38 11.065 12.5 11.345 12.5H11.545C12.075 12.5 12.505 12.07 12.505 11.54V4.46C12.505 3.93 12.075 3.5 11.545 3.5C11.205 3.5 10.895 3.67 10.715 3.96Z" fill="black"/>
</g>
<defs>
<clipPath id="clip0_5500_92922">
<rect width="16" height="16" rx="4" fill="white"/>
</clipPath>
</defs>
</svg>
