<svg width="16" height="16" viewBox="0 0 16 16" fill="none" xmlns="http://www.w3.org/2000/svg">
<g clip-path="url(#clip0_1758_7537)">
<rect width="16" height="16" rx="4" fill="white" fill-opacity="0.08"/>
<path fill-rule="evenodd" clip-rule="evenodd" d="M12.9767 3H3.72528L6.35906 6.11869C6.79694 5.73344 7.3705 5.5 7.99838 5.5C9.37306 5.5 10.4875 6.61931 10.4875 8C10.4875 8.62281 10.2608 9.19244 9.88569 9.63013L12.9767 12.3013V3ZM11.758 13L9.31019 10.1251C8.92925 10.3628 8.47975 10.5 7.99838 10.5C6.62363 10.5 5.50919 9.38069 5.50919 8C5.50919 7.52081 5.64338 7.07319 5.87613 6.69281L3.02002 4.19485V13H11.758Z" fill="white"/>
</g>
<defs>
<clipPath id="clip0_1758_7537">
<rect width="16" height="16" rx="4" fill="white"/>
</clipPath>
</defs>
</svg>
