<svg width="17" height="16" viewBox="0 0 17 16" fill="none" xmlns="http://www.w3.org/2000/svg">
<g clip-path="url(#clip0_1758_7599)">
<rect x="0.466675" width="16" height="16" rx="4" fill="black"/>
<path d="M12.6785 5.26953C12.0235 5.47833 11.3807 5.72399 10.7543 6.00921C7.18551 7.62096 4.7986 10.0652 5.42228 11.4654C5.5492 11.7302 5.75937 11.943 6.02139 12.0727C6.87026 12.5026 7.83512 12.6445 8.77132 12.4767C9.70752 12.3088 10.5646 11.8407 11.2142 11.142C11.8638 10.4432 12.2732 9.55068 12.3783 8.59947C12.4834 7.64825 12.2814 6.68748 11.7997 5.86046L12.6772 5.26953H12.6785Z" fill="url(#paint0_linear_1758_7599)"/>
<path d="M11.5103 5.39102C10.8621 4.48348 9.89176 3.85434 8.79452 3.62916C7.69728 3.40398 6.555 3.59913 5.59696 4.17778C4.63892 4.75506 3.93745 5.67079 3.63312 6.7421C3.32878 7.81341 3.44479 8.95842 3.95656 9.94785C4.79314 8.73597 6.6478 7.34804 9.00469 6.29857C9.81533 5.93555 10.6533 5.63258 11.5103 5.39239V5.39102Z" fill="url(#paint1_linear_1758_7599)"/>
<path d="M15.4667 4.97203C14.2139 4.75368 14.0406 4.84375 13.4947 5.99285C13.7131 4.74003 13.623 4.56534 12.4739 4.02082C13.7267 4.23917 13.9 4.1491 14.4459 3C14.2276 4.25282 14.3176 4.42614 15.4667 4.97203Z" fill="#4A13E5"/>
</g>
<defs>
<linearGradient id="paint0_linear_1758_7599" x1="6.48404" y1="9.86593" x2="17.7621" y2="7.23337" gradientUnits="userSpaceOnUse">
<stop stop-color="#2810B3"/>
<stop offset="1" stop-color="#8A76FF"/>
</linearGradient>
<linearGradient id="paint1_linear_1758_7599" x1="9.33632" y1="4.28423" x2="-0.167648" y2="10.3518" gradientUnits="userSpaceOnUse">
<stop stop-color="#6000FF"/>
<stop offset="1" stop-color="#7472C9"/>
</linearGradient>
<clipPath id="clip0_1758_7599">
<rect x="0.466675" width="16" height="16" rx="4" fill="white"/>
</clipPath>
</defs>
</svg>
