<svg width="16" height="16" viewBox="0 0 16 16" fill="none" xmlns="http://www.w3.org/2000/svg">
<g clip-path="url(#clip0_1758_7599)">
<rect width="16" height="16" rx="4" fill="black"/>
<path d="M12.2119 5.26953C11.5568 5.47833 10.914 5.72399 10.2876 6.00921C6.71883 7.62096 4.33192 10.0652 4.9556 11.4654C5.08252 11.7302 5.29269 11.943 5.55472 12.0727C6.40358 12.5026 7.36844 12.6445 8.30465 12.4767C9.24085 12.3088 10.0979 11.8407 10.7475 11.142C11.3971 10.4432 11.8065 9.55068 11.9116 8.59947C12.0167 7.64825 11.8147 6.68748 11.333 5.86046L12.2105 5.26953H12.2119Z" fill="url(#paint0_linear_1758_7599)"/>
<path d="M11.0437 5.39099C10.3954 4.48345 9.42508 3.85431 8.32784 3.62913C7.2306 3.40395 6.08833 3.5991 5.13029 4.17775C4.17225 4.75503 3.47078 5.67076 3.16644 6.74207C2.86211 7.81338 2.97811 8.95839 3.48988 9.94782C4.32646 8.73594 6.18113 7.34801 8.53801 6.29854C9.34866 5.93552 10.1866 5.63255 11.0437 5.39236V5.39099Z" fill="url(#paint1_linear_1758_7599)"/>
<path d="M15 4.97203C13.7472 4.75368 13.5739 4.84375 13.028 5.99285C13.2464 4.74003 13.1563 4.56534 12.0072 4.02082C13.26 4.23917 13.4333 4.1491 13.9792 3C13.7609 4.25282 13.8509 4.42614 15 4.97203Z" fill="#4A13E5"/>
</g>
<defs>
<linearGradient id="paint0_linear_1758_7599" x1="6.01736" y1="9.86593" x2="17.2955" y2="7.23337" gradientUnits="userSpaceOnUse">
<stop stop-color="#2810B3"/>
<stop offset="1" stop-color="#8A76FF"/>
</linearGradient>
<linearGradient id="paint1_linear_1758_7599" x1="8.86964" y1="4.2842" x2="-0.634323" y2="10.3518" gradientUnits="userSpaceOnUse">
<stop stop-color="#6000FF"/>
<stop offset="1" stop-color="#7472C9"/>
</linearGradient>
<clipPath id="clip0_1758_7599">
<rect width="16" height="16" rx="4" fill="white"/>
</clipPath>
</defs>
</svg>
