<svg width="16" height="16" xmlns="http://www.w3.org/2000/svg" fill="none">
 <defs>
  <clipPath id="clip0_1758_7615">
   <rect id="svg_1" fill="white" rx="4" height="16" width="16" x="0.46668"/>
  </clipPath>
 </defs>
 <g>
  <title>Layer 1</title>
  <rect y="0" stroke="null" id="svg_3" fill="#181C49" rx="4" height="16" width="16" x="0"/>
  <path stroke="null" id="svg_4" fill="white" d="m6.39577,12.8734l-4.39578,-4.45428l4.44285,-4.38392l1.03428,1.04614l-0.58774,0.57588l-0.44654,-0.45841l-3.27923,3.23217l3.23216,3.27922l0.42282,-0.4117l0.57626,0.5877l-0.99908,0.9872z"/>
  <path stroke="null" id="svg_5" fill="white" d="m9.62792,10.1467l-0.57624,-0.58731l1.09324,-1.08134l-1.12844,-1.15175l0.57584,-0.57626l1.7162,1.73949l-1.6806,1.65717z"/>
  <path stroke="null" id="svg_6" fill="white" d="m9.55712,12.8268l-4.38388,-4.44288l3.33815,-3.29072l1.10473,-1.0932l4.3839,4.45432l-4.4429,4.37208l0,0.0004zm-3.22027,-4.43102l3.23217,3.27922l3.2674,-3.23216l-3.2322,-3.27923l-3.26737,3.23217z"/>
 </g>
</svg>
