<svg width="17" height="16" viewBox="0 0 17 16" fill="none" xmlns="http://www.w3.org/2000/svg">
<g clip-path="url(#clip0_1758_7615)">
<rect x="0.466675" width="16" height="16" rx="4" fill="#181C49"/>
<path d="M6.86245 12.8734L2.46667 8.41912L6.90952 4.0352L7.9438 5.08134L7.35606 5.65722L6.90952 5.19881L3.63029 8.43098L6.86245 11.7102L7.28527 11.2985L7.86153 11.8862L6.86245 12.8734Z" fill="white"/>
<path d="M10.0946 10.1467L9.51836 9.55939L10.6116 8.47805L9.48316 7.3263L10.059 6.75004L11.7752 8.48953L10.0946 10.1467Z" fill="white"/>
<path d="M10.0238 12.8268L5.63992 8.38392L8.97807 5.0932L10.0828 4L14.4667 8.45432L10.0238 12.8264V12.8268ZM6.80353 8.39578L10.0357 11.675L13.3031 8.44284L10.0709 5.16361L6.80353 8.39578Z" fill="white"/>
</g>
<defs>
<clipPath id="clip0_1758_7615">
<rect x="0.466675" width="16" height="16" rx="4" fill="white"/>
</clipPath>
</defs>
</svg>
