<svg width="17" height="16" viewBox="0 0 17 16" fill="none" xmlns="http://www.w3.org/2000/svg">
<g clip-path="url(#clip0_1758_7785)">
<rect x="0.466675" width="16" height="16" rx="4" fill="#010102"/>
<path d="M7.43646 7.1245L7.81671 8.24754H6.95892L7.36128 7.1245H7.43646ZM9.48804 8.84889H8.86017V9.06996H10.4077V8.84889H9.7887V7.08028H10.4077V6.85921H8.86017V7.08028H9.48804V8.84889ZM6.66267 9.06996L6.87492 8.47746H7.89627L8.09526 9.06996H8.42244L7.62657 6.85921H7.17558L6.36646 9.06996H6.66267ZM11.6413 11.1746H5.29202V4.82531H11.6413V11.1746Z" fill="white"/>
<path d="M9.08568 14C11.9199 13.7082 14.1748 11.4532 14.4667 8.61903H13.7194C13.4541 11.0774 11.5927 13.0361 9.08568 13.3147V14Z" fill="white"/>
<path d="M2.46667 8.61903C2.75849 11.4532 5.01346 13.7082 7.84764 14V13.3147C5.34065 13.0361 3.48362 11.073 3.21391 8.61903H2.46667Z" fill="white"/>
<path d="M14.4667 7.38097C14.1748 4.54679 11.9199 2.29182 9.08568 2V2.68533C11.5927 2.96389 13.4497 4.92704 13.7194 7.38097H14.4667Z" fill="white"/>
<path d="M7.84764 2C5.01346 2.29182 2.75849 4.54679 2.46667 7.38097H3.21391C3.4792 4.92262 5.34066 2.96389 7.84764 2.68533V2Z" fill="white"/>
</g>
<defs>
<clipPath id="clip0_1758_7785">
<rect x="0.466675" width="16" height="16" rx="4" fill="white"/>
</clipPath>
</defs>
</svg>
