<svg width="16" height="16" viewBox="0 0 16 16" fill="none" xmlns="http://www.w3.org/2000/svg">
<g clip-path="url(#clip0_1758_7785)">
<rect width="16" height="16" rx="4" fill="#010102"/>
<path d="M6.96979 7.1245L7.35004 8.24754H6.49225L6.89461 7.1245H6.96979ZM9.02136 8.84889H8.39349V9.06996H9.94101V8.84889H9.32202V7.08028H9.94101V6.85921H8.39349V7.08028H9.02136V8.84889ZM6.196 9.06996L6.40825 8.47746H7.4296L7.62859 9.06996H7.95577L7.1599 6.85921H6.70891L5.89978 9.06996H6.196ZM11.1746 11.1746H4.82534V4.82531H11.1746V11.1746Z" fill="white"/>
<path d="M8.619 14C11.4532 13.7082 13.7082 11.4532 14 8.61903H13.2528C12.9875 11.0774 11.126 13.0361 8.619 13.3147V14Z" fill="white"/>
<path d="M2 8.61903C2.29182 11.4532 4.54679 13.7082 7.38097 14V13.3147C4.87398 13.0361 3.01695 11.073 2.74724 8.61903H2Z" fill="white"/>
<path d="M14 7.38097C13.7082 4.54679 11.4532 2.29182 8.619 2V2.68533C11.126 2.96389 12.983 4.92704 13.2528 7.38097H14Z" fill="white"/>
<path d="M7.38097 2C4.54679 2.29182 2.29182 4.54679 2 7.38097H2.74724C3.01252 4.92262 4.87398 2.96389 7.38097 2.68533V2Z" fill="white"/>
</g>
<defs>
<clipPath id="clip0_1758_7785">
<rect width="16" height="16" rx="4" fill="white"/>
</clipPath>
</defs>
</svg>
