<svg width="17" height="16" viewBox="0 0 17 16" fill="none" xmlns="http://www.w3.org/2000/svg">
<g clip-path="url(#clip0_1677_1687)">
<rect opacity="0.4" x="0.466675" width="16" height="16" rx="4" fill="#412CD6"/>
<g clip-path="url(#clip1_1677_1687)">
<path d="M13.9285 4.12112C13.8066 3.65072 13.4144 3.18032 12.7083 2.65664C12.1419 2.23952 11.5405 2 11.061 2C10.965 2 10.8781 2.00864 10.7907 2.0264C10.5728 2.07056 10.3813 2.2304 10.2589 2.4704C10.1106 2.75456 10.076 3.13616 10.1715 3.36704C10.2066 3.43808 10.2498 3.52688 10.3021 3.60656C9.84034 3.89072 9.57874 3.9704 9.5437 3.97952C10.7466 4.388 11.7488 5.24 12.3767 6.34928L12.3853 6.24272C12.4112 5.94992 12.4986 5.61248 12.6205 5.2664C12.7424 5.30192 12.8643 5.31968 12.9867 5.31968C13.3093 5.31968 13.5882 5.18672 13.7624 4.94672C13.9376 4.7072 14.0072 4.38752 13.9285 4.12112Z" fill="#602F92"/>
<path d="M12.6738 5.00912C13.4668 5.23088 13.7893 4.60976 13.6847 4.19264C13.5714 3.77552 13.2052 3.34928 12.5605 2.87024C11.9154 2.39072 11.2617 2.19584 10.8436 2.28464C10.425 2.37344 10.3031 3.02144 10.4077 3.27008C10.4514 3.36752 10.5474 3.5096 10.678 3.66944C10.5124 3.78464 10.3554 3.87344 10.2249 3.9536C11.0269 4.31744 11.7239 4.88576 12.2471 5.59568C12.3081 5.35616 12.3954 5.14304 12.4737 4.9568C12.5341 4.96448 12.6037 4.98224 12.6738 5.00912Z" fill="url(#paint0_radial_1677_1687)"/>
<path d="M8.13249 13.7072C10.8234 13.7072 13.005 11.4858 13.005 8.74545C13.005 6.00512 10.8234 3.78416 8.13249 3.78416C5.44161 3.78416 3.26001 6.0056 3.26001 8.74592C3.26001 11.4862 5.44161 13.7072 8.13249 13.7072Z" fill="url(#paint1_radial_1677_1687)"/>
<path opacity="0.6" d="M13.2839 3.78416C12.6215 3.07424 12.0637 2.88752 11.3927 2.7368C10.8695 2.61248 11.0092 2.31056 11.6457 2.37296C11.3404 2.2664 11.0529 2.24 10.8436 2.28416C10.425 2.37296 10.3031 3.02096 10.4077 3.2696C10.4514 3.36704 10.5474 3.50912 10.678 3.66896C10.4428 3.8288 10.2421 3.944 10.0765 4.0328C10.1548 4.06832 10.2508 4.11248 10.3641 4.17488C10.6602 4.33472 10.9828 4.60112 10.9828 4.60112C10.4946 4.17488 10.5993 3.98 11.2703 3.50048C11.4796 3.34976 11.8631 3.36752 12.2202 3.55376C12.5773 3.74 12.9959 4.2104 12.9959 4.2104L12.5951 4.99136C12.621 5.00048 12.6474 5.00912 12.6733 5.01824C12.9263 5.08928 13.1265 5.07152 13.2834 5.00912C13.4668 4.89344 13.9463 4.50272 13.2839 3.78416Z" fill="#A98798"/>
<path d="M11.3836 3.16256C11.5579 3.2336 11.7844 3.35792 12.0633 3.54416C12.3945 3.76592 12.682 4.01456 12.8654 4.20992C12.5601 4.6184 12.3599 5.1776 12.238 5.56784C12.299 5.65664 12.3686 5.74544 12.43 5.83424C12.491 5.61248 12.5956 5.28368 12.7353 4.95536C12.7703 4.96448 12.8135 4.96448 12.8572 4.96448C12.9619 4.96448 13.0838 4.94672 13.1798 4.86704C13.2494 4.81376 13.3281 4.71632 13.3195 4.53872C13.3195 4.37024 13.1889 4.15712 12.9187 3.89984C12.7267 3.7136 12.4655 3.50912 12.2039 3.32288C11.4542 2.81696 10.9315 2.67488 10.6963 2.9144C10.5393 3.07424 10.5566 3.2696 10.6089 3.41168C10.33 3.59792 10.0948 3.73136 9.93787 3.82016C10.0425 3.85568 10.1385 3.89984 10.2431 3.94448C10.5206 3.7928 10.9219 3.53552 11.3836 3.16256ZM13.031 4.43216C13.0569 4.47632 13.066 4.52096 13.066 4.54736C13.066 4.62704 13.0401 4.65392 13.0223 4.67168C12.9873 4.69808 12.9177 4.71584 12.8567 4.71584C12.9091 4.60928 12.97 4.52048 13.031 4.43216ZM10.8782 3.10928C10.9041 3.08288 10.9742 3.06512 11.0875 3.08288C11.0001 3.15392 10.9132 3.21584 10.8259 3.27824C10.8172 3.21584 10.8259 3.15392 10.8782 3.10928Z" fill="#602F92"/>
<path d="M8.13253 3.49088C5.28229 3.49088 2.97253 5.84288 2.97253 8.74544C2.97253 11.648 5.28229 14 8.13253 14C10.9828 14 13.2925 11.648 13.2925 8.74544C13.2925 5.84336 10.9741 3.49088 8.13253 3.49088ZM8.13253 13.7072C5.43925 13.7072 3.26005 11.4882 3.26005 8.74544C3.26005 6.00272 5.43925 3.78368 8.13253 3.78368C10.8258 3.78368 13.005 6.00272 13.005 8.74544C13.0045 11.4882 10.8172 13.7072 8.13253 13.7072Z" fill="#602F92"/>
<path opacity="0.6" d="M8.13249 13.7072C10.8234 13.7072 13.005 11.4858 13.005 8.74545C13.005 6.00512 10.8234 3.78416 8.13249 3.78416C5.44161 3.78416 3.26001 6.0056 3.26001 8.74592C3.26001 11.4862 5.44161 13.7072 8.13249 13.7072Z" fill="url(#paint2_linear_1677_1687)"/>
<path opacity="0.6" d="M8.09751 13.1034C5.43927 12.6685 3.63495 10.1211 4.07079 7.41392C4.26279 6.21584 4.85511 5.19488 5.69223 4.45808C4.47159 5.1776 3.56535 6.42896 3.32103 7.95584C2.89383 10.663 4.69815 13.2104 7.34775 13.6453C8.82951 13.8939 10.259 13.4235 11.3135 12.5005C10.3814 13.0501 9.24807 13.2901 8.09751 13.1034Z" fill="#A98798"/>
<path opacity="0.6" d="M8.90821 3.8552C7.67941 3.6512 6.48516 3.93488 5.50884 4.56512C5.49156 4.58288 5.4738 4.60064 5.4738 4.60064C5.84868 4.36976 6.3978 4.16576 6.3978 4.16576C4.98564 5 4.5498 5.94992 4.5498 5.94992C5.09892 4.86704 6.71125 4.10384 7.97509 4.05056C9.23892 3.99728 10.0669 4.37888 11.0778 5.20448C12.0887 6.03872 12.6992 7.74271 12.6378 9.09199C12.5855 10.4413 11.888 11.5328 11.888 11.5328C12.3676 10.9026 12.6551 10.4413 12.838 9.97087C12.873 9.82879 12.9076 9.68671 12.9253 9.53599C13.3621 6.83743 11.5664 4.29008 8.90821 3.8552Z" fill="url(#paint3_linear_1677_1687)"/>
<path d="M12.7607 8.70128C12.7607 11.3019 10.6861 13.4144 8.13253 13.4144C5.57893 13.4144 3.49573 11.3019 3.49573 8.70128H12.7607Z" fill="url(#paint4_linear_1677_1687)"/>
<g opacity="0.6">
<path opacity="0.6" d="M12.3945 8.70128C12.3945 11.2395 10.4246 13.3165 7.94922 13.4144C8.01018 13.4144 8.07114 13.4144 8.1321 13.4144C10.6857 13.4144 12.7603 11.3019 12.7603 8.70128H12.3945Z" fill="url(#paint5_linear_1677_1687)"/>
</g>
<g opacity="0.7">
<path opacity="0.7" d="M4.14949 8.70128H3.49573C3.49573 11.3019 5.57029 13.4144 8.12389 13.4144C8.23717 13.4144 8.34181 13.4144 8.44645 13.4053C6.04933 13.2277 4.14949 11.1862 4.14949 8.70128Z" fill="url(#paint6_linear_1677_1687)"/>
</g>
<path d="M12.752 8.74544C12.752 8.204 11.828 7.89344 10.5992 7.78688C9.71029 7.71584 8.81269 7.80464 7.78405 8.12432C6.89509 8.39072 6.09301 8.34608 5.50933 8.27504C4.21045 8.12432 3.49573 8.10656 3.49573 8.74544C3.49573 9.66848 5.34373 10.8224 8.11525 10.423C9.51877 10.219 10.2421 9.80192 11.0701 9.51776C11.9677 9.21584 12.752 9.22496 12.752 8.74544Z" fill="url(#paint7_linear_1677_1687)"/>
<path d="M9.64882 6.50863C10.0823 6.50863 10.4331 6.15103 10.4331 5.70991C10.4331 5.26879 10.0818 4.91119 9.64882 4.91119C9.21586 4.91119 8.8645 5.26879 8.8645 5.70991C8.8645 6.15103 9.21586 6.50863 9.64882 6.50863Z" fill="white"/>
<path d="M10.9304 7.10336C11.1133 7.10336 11.2616 6.95216 11.2616 6.76592C11.2616 6.57968 11.1133 6.42848 10.9304 6.42848C10.7476 6.42848 10.5992 6.57968 10.5992 6.76592C10.5992 6.95264 10.7476 7.10336 10.9304 7.10336Z" fill="white"/>
<g opacity="0.6">
<path opacity="0.6" d="M12.1155 5.07105C12.1069 5.07105 12.0982 5.07105 12.0982 5.07105C12.0459 5.06192 12.0109 5.00913 12.02 4.94673C12.0982 4.53825 12.4294 4.148 12.4472 4.13024C12.4822 4.08608 12.5518 4.08608 12.5869 4.12112C12.6306 4.15664 12.6306 4.22768 12.5955 4.2632C12.5869 4.27184 12.2816 4.63616 12.212 4.99088C12.2029 5.04416 12.1592 5.07105 12.1155 5.07105Z" fill="url(#paint8_linear_1677_1687)"/>
</g>
<path opacity="0.2" d="M7.81049 12.4467C7.94537 12.4467 8.05433 12.3354 8.05433 12.1981C8.05433 12.0608 7.94489 11.9494 7.81049 11.9494C7.67561 11.9494 7.56665 12.0608 7.56665 12.1981C7.56665 12.3354 7.67561 12.4467 7.81049 12.4467Z" fill="white"/>
<g opacity="0.4">
<path opacity="0.6" d="M7.67076 12.3584C7.57476 12.261 7.57476 12.1011 7.67076 12.0032C7.68804 11.9854 7.7058 11.9768 7.72308 11.959C7.68804 11.9682 7.66212 11.9854 7.63572 12.0123C7.53972 12.1098 7.53972 12.2696 7.63572 12.3675C7.71396 12.4472 7.83636 12.465 7.93188 12.4117C7.845 12.4472 7.74036 12.4294 7.67076 12.3584Z" fill="url(#paint9_linear_1677_1687)"/>
</g>
<path opacity="0.3" d="M7.89729 12.127C7.92609 12.127 7.94961 12.103 7.94961 12.0738C7.94961 12.0445 7.92609 12.0205 7.89729 12.0205C7.86849 12.0205 7.84497 12.0445 7.84497 12.0738C7.84497 12.1035 7.86801 12.127 7.89729 12.127Z" fill="white"/>
<path opacity="0.2" d="M9.08295 12.3224C9.21783 12.3224 9.32679 12.211 9.32679 12.0738C9.32679 11.9365 9.21735 11.8251 9.08295 11.8251C8.94807 11.8251 8.83911 11.9365 8.83911 12.0738C8.83911 12.211 8.94855 12.3224 9.08295 12.3224Z" fill="white"/>
<g opacity="0.4">
<path opacity="0.6" d="M8.94322 12.2341C8.84722 12.1366 8.84722 11.9768 8.94322 11.8789C8.9605 11.8611 8.97826 11.8525 8.99554 11.8347C8.9605 11.8438 8.93458 11.8611 8.90818 11.888C8.81218 11.9854 8.81218 12.1453 8.90818 12.2432C8.98642 12.3229 9.10882 12.3406 9.20434 12.2874C9.11746 12.3229 9.01282 12.3051 8.94322 12.2341Z" fill="url(#paint10_linear_1677_1687)"/>
</g>
<path opacity="0.3" d="M9.16987 12.0032C9.19867 12.0032 9.22219 11.9792 9.22219 11.9499C9.22219 11.9206 9.19867 11.8966 9.16987 11.8966C9.14107 11.8966 9.11755 11.9206 9.11755 11.9499C9.11755 11.9792 9.14107 12.0032 9.16987 12.0032Z" fill="white"/>
<path opacity="0.2" d="M8.4551 12.8994C8.55638 12.8994 8.63798 12.8158 8.63798 12.7131C8.63798 12.6104 8.5559 12.5269 8.4551 12.5269C8.35382 12.5269 8.27222 12.6104 8.27222 12.7131C8.27222 12.8158 8.35382 12.8994 8.4551 12.8994Z" fill="white"/>
<g opacity="0.4">
<path opacity="0.6" d="M8.35046 12.8288C8.28086 12.7578 8.28086 12.6334 8.35046 12.5624C8.3591 12.5533 8.37638 12.5446 8.3855 12.5355C8.35958 12.5446 8.34182 12.5624 8.32454 12.5797C8.25494 12.6507 8.25494 12.775 8.32454 12.8461C8.3855 12.908 8.47286 12.9171 8.5511 12.873C8.48102 12.8998 8.40278 12.8821 8.35046 12.8288Z" fill="url(#paint11_linear_1677_1687)"/>
</g>
<path opacity="0.3" d="M8.516 12.6507C8.5352 12.6507 8.55104 12.6349 8.55104 12.6152C8.55104 12.5955 8.5352 12.5797 8.516 12.5797C8.4968 12.5797 8.48096 12.5955 8.48096 12.6152C8.48096 12.6349 8.4968 12.6507 8.516 12.6507Z" fill="white"/>
<path opacity="0.2" d="M9.57924 12.7664C9.68052 12.7664 9.76212 12.6829 9.76212 12.5802C9.76212 12.4774 9.68004 12.3939 9.57924 12.3939C9.47844 12.3939 9.39636 12.4774 9.39636 12.5802C9.39636 12.6829 9.47844 12.7664 9.57924 12.7664Z" fill="white"/>
<g opacity="0.4">
<path opacity="0.6" d="M9.47509 12.6954C9.40549 12.6243 9.40549 12.5 9.47509 12.429C9.48373 12.4198 9.50101 12.4112 9.51013 12.4026C9.48421 12.4117 9.46645 12.429 9.44917 12.4467C9.37957 12.5178 9.37957 12.6421 9.44917 12.7131C9.51013 12.775 9.59749 12.7842 9.67573 12.7395C9.60565 12.7664 9.52741 12.7486 9.47509 12.6954Z" fill="url(#paint12_linear_1677_1687)"/>
</g>
<path opacity="0.3" d="M9.64026 12.5178C9.65946 12.5178 9.67531 12.5019 9.67531 12.4822C9.67531 12.4626 9.65946 12.4467 9.64026 12.4467C9.62106 12.4467 9.60522 12.4626 9.60522 12.4822C9.6057 12.5019 9.62106 12.5178 9.64026 12.5178Z" fill="white"/>
<path opacity="0.2" d="M6.77275 12.3579C6.99403 12.3579 7.17355 12.175 7.17355 11.9494C7.17355 11.7238 6.99403 11.541 6.77275 11.541C6.55147 11.541 6.37195 11.7238 6.37195 11.9494C6.37195 12.175 6.55147 12.3579 6.77275 12.3579Z" fill="white"/>
<g opacity="0.4">
<path opacity="0.6" d="M6.54663 12.2072C6.38967 12.0474 6.38967 11.7901 6.54663 11.6302C6.57255 11.6038 6.59895 11.5861 6.63399 11.5683C6.58167 11.5861 6.53799 11.6216 6.49431 11.6571C6.33735 11.817 6.33735 12.0742 6.49431 12.2341C6.62487 12.367 6.82551 12.3939 6.98247 12.296C6.83415 12.3579 6.65991 12.3315 6.54663 12.2072Z" fill="url(#paint13_linear_1677_1687)"/>
</g>
<path opacity="0.3" d="M6.91243 11.8256C6.96043 11.8256 6.99979 11.7858 6.99979 11.7368C6.99979 11.6878 6.96091 11.648 6.91243 11.648C6.86443 11.648 6.82507 11.6878 6.82507 11.7368C6.82507 11.7858 6.86395 11.8256 6.91243 11.8256Z" fill="white"/>
<path opacity="0.2" d="M10.3554 11.3552C10.5767 11.3552 10.7562 11.1723 10.7562 10.9467C10.7562 10.7211 10.5767 10.5382 10.3554 10.5382C10.1341 10.5382 9.95459 10.7211 9.95459 10.9467C9.95459 11.1723 10.1336 11.3552 10.3554 11.3552Z" fill="white"/>
<g opacity="0.4">
<path opacity="0.6" d="M10.1197 11.204C9.96279 11.0442 9.96279 10.7869 10.1197 10.627C10.1457 10.6002 10.1721 10.5829 10.2071 10.5651C10.1548 10.5829 10.1111 10.6184 10.0674 10.6539C9.91047 10.8138 9.91047 11.071 10.0674 11.2309C10.198 11.3638 10.3986 11.3907 10.5556 11.2928C10.4073 11.3552 10.2417 11.3283 10.1197 11.204Z" fill="url(#paint14_linear_1677_1687)"/>
</g>
<path opacity="0.3" d="M10.4946 10.8224C10.5426 10.8224 10.5819 10.7826 10.5819 10.7336C10.5819 10.6846 10.5431 10.6448 10.4946 10.6448C10.4466 10.6448 10.4072 10.6846 10.4072 10.7336C10.4072 10.7826 10.4461 10.8224 10.4946 10.8224Z" fill="white"/>
</g>
</g>
<defs>
<radialGradient id="paint0_radial_1677_1687" cx="0" cy="0" r="1" gradientUnits="userSpaceOnUse" gradientTransform="translate(13.5258 3.63335) scale(3.89562 3.96696)">
<stop stop-color="#FBEAF3" stop-opacity="0.6"/>
<stop offset="0.6807" stop-color="#A087BF"/>
<stop offset="1" stop-color="#17102E"/>
</radialGradient>
<radialGradient id="paint1_radial_1677_1687" cx="0" cy="0" r="1" gradientUnits="userSpaceOnUse" gradientTransform="translate(11.3584 5.32461) scale(9.53115 9.70572)">
<stop stop-color="#FBEAF3" stop-opacity="0.6"/>
<stop offset="0.6807" stop-color="#A087BF"/>
<stop offset="1" stop-color="#17102E"/>
</radialGradient>
<linearGradient id="paint2_linear_1677_1687" x1="7.32469" y1="13.6393" x2="8.9402" y2="3.85185" gradientUnits="userSpaceOnUse">
<stop stop-color="#9AD9E5"/>
<stop offset="0.6202" stop-color="white" stop-opacity="0"/>
</linearGradient>
<linearGradient id="paint3_linear_1677_1687" x1="11.6106" y1="5.42534" x2="7.5149" y2="9.11566" gradientUnits="userSpaceOnUse">
<stop offset="0.2888" stop-color="white"/>
<stop offset="0.7796" stop-color="white" stop-opacity="0"/>
</linearGradient>
<linearGradient id="paint4_linear_1677_1687" x1="3.49556" y1="11.0577" x2="12.7608" y2="11.0577" gradientUnits="userSpaceOnUse">
<stop stop-color="#384EA2"/>
<stop offset="0.9952" stop-color="#D54799"/>
</linearGradient>
<linearGradient id="paint5_linear_1677_1687" x1="13.2226" y1="9.14253" x2="8.09673" y2="13.8996" gradientUnits="userSpaceOnUse">
<stop offset="0.2888" stop-color="white"/>
<stop offset="0.7796" stop-color="white" stop-opacity="0"/>
</linearGradient>
<linearGradient id="paint6_linear_1677_1687" x1="3.49556" y1="11.0577" x2="8.44629" y2="11.0577" gradientUnits="userSpaceOnUse">
<stop stop-color="#2B2F82"/>
<stop offset="0.9952" stop-color="#72439A"/>
</linearGradient>
<linearGradient id="paint7_linear_1677_1687" x1="3.50569" y1="9.1342" x2="12.7523" y2="9.1342" gradientUnits="userSpaceOnUse">
<stop stop-color="#2B2F82"/>
<stop offset="0.9952" stop-color="#A14298"/>
</linearGradient>
<linearGradient id="paint8_linear_1677_1687" x1="12.6127" y1="4.09455" x2="11.9305" y2="5.1832" gradientUnits="userSpaceOnUse">
<stop offset="0.2888" stop-color="white"/>
<stop offset="0.7796" stop-color="white" stop-opacity="0"/>
</linearGradient>
<linearGradient id="paint9_linear_1677_1687" x1="7.56378" y1="12.2004" x2="7.93255" y2="12.2004" gradientUnits="userSpaceOnUse">
<stop offset="0.2888" stop-color="white"/>
<stop offset="0.7796" stop-color="white" stop-opacity="0"/>
</linearGradient>
<linearGradient id="paint10_linear_1677_1687" x1="8.83518" y1="12.0761" x2="9.20394" y2="12.0761" gradientUnits="userSpaceOnUse">
<stop offset="0.2888" stop-color="white"/>
<stop offset="0.7796" stop-color="white" stop-opacity="0"/>
</linearGradient>
<linearGradient id="paint11_linear_1677_1687" x1="8.27083" y1="12.7183" x2="8.54768" y2="12.7183" gradientUnits="userSpaceOnUse">
<stop offset="0.2888" stop-color="white"/>
<stop offset="0.7796" stop-color="white" stop-opacity="0"/>
</linearGradient>
<linearGradient id="paint12_linear_1677_1687" x1="9.39153" y1="12.5851" x2="9.66835" y2="12.5851" gradientUnits="userSpaceOnUse">
<stop offset="0.2888" stop-color="white"/>
<stop offset="0.7796" stop-color="white" stop-opacity="0"/>
</linearGradient>
<linearGradient id="paint13_linear_1677_1687" x1="6.37246" y1="11.9613" x2="6.97466" y2="11.9613" gradientUnits="userSpaceOnUse">
<stop offset="0.2888" stop-color="white"/>
<stop offset="0.7796" stop-color="white" stop-opacity="0"/>
</linearGradient>
<linearGradient id="paint14_linear_1677_1687" x1="9.94913" y1="10.9583" x2="10.5514" y2="10.9583" gradientUnits="userSpaceOnUse">
<stop offset="0.2888" stop-color="white"/>
<stop offset="0.7796" stop-color="white" stop-opacity="0"/>
</linearGradient>
<clipPath id="clip0_1677_1687">
<rect x="0.466675" width="16" height="16" rx="4" fill="white"/>
</clipPath>
<clipPath id="clip1_1677_1687">
<rect width="12" height="12" fill="white" transform="translate(2.46667 2)"/>
</clipPath>
</defs>
</svg>
