<svg width="16" height="16" viewBox="0 0 16 16" fill="none" xmlns="http://www.w3.org/2000/svg">
<g clip-path="url(#clip0_1677_1687)">
<rect opacity="0.4" width="16" height="16" rx="4" fill="#412CD6"/>
<g clip-path="url(#clip1_1677_1687)">
<path d="M13.4618 4.12112C13.3399 3.65072 12.9477 3.18032 12.2417 2.65664C11.6753 2.23952 11.0738 2 10.5943 2C10.4983 2 10.4114 2.00864 10.3241 2.0264C10.1061 2.07056 9.91463 2.2304 9.79223 2.4704C9.64391 2.75456 9.60935 3.13616 9.70487 3.36704C9.73991 3.43808 9.78311 3.52688 9.83543 3.60656C9.37367 3.89072 9.11207 3.9704 9.07703 3.97952C10.2799 4.388 11.2821 5.24 11.91 6.34928L11.9186 6.24272C11.9445 5.94992 12.0319 5.61248 12.1538 5.2664C12.2757 5.30192 12.3977 5.31968 12.5201 5.31968C12.8426 5.31968 13.1215 5.18672 13.2957 4.94672C13.4709 4.7072 13.5405 4.38752 13.4618 4.12112Z" fill="#602F92"/>
<path d="M12.2071 5.00912C13.0001 5.23088 13.3227 4.60976 13.218 4.19264C13.1047 3.77552 12.7385 3.34928 12.0939 2.87024C11.4487 2.39072 10.795 2.19584 10.3769 2.28464C9.95834 2.37344 9.83642 3.02144 9.94106 3.27008C9.98474 3.36752 10.0807 3.5096 10.2113 3.66944C10.0457 3.78464 9.88874 3.87344 9.75818 3.9536C10.5603 4.31744 11.2572 4.88576 11.7804 5.59568C11.8414 5.35616 11.9287 5.14304 12.007 4.9568C12.0675 4.96448 12.1371 4.98224 12.2071 5.00912Z" fill="url(#paint0_radial_1677_1687)"/>
<path d="M7.66581 13.7072C10.3567 13.7072 12.5383 11.4858 12.5383 8.74545C12.5383 6.00512 10.3567 3.78416 7.66581 3.78416C4.97494 3.78416 2.79333 6.0056 2.79333 8.74592C2.79333 11.4862 4.97494 13.7072 7.66581 13.7072Z" fill="url(#paint1_radial_1677_1687)"/>
<path opacity="0.6" d="M12.8172 3.78416C12.1548 3.07424 11.5971 2.88752 10.926 2.7368C10.4028 2.61248 10.5425 2.31056 11.179 2.37296C10.8737 2.2664 10.5862 2.24 10.3769 2.28416C9.95834 2.37296 9.83642 3.02096 9.94106 3.2696C9.98474 3.36704 10.0807 3.50912 10.2113 3.66896C9.9761 3.8288 9.77546 3.944 9.60986 4.0328C9.6881 4.06832 9.7841 4.11248 9.89738 4.17488C10.1935 4.33472 10.5161 4.60112 10.5161 4.60112C10.0279 4.17488 10.1326 3.98 10.8036 3.50048C11.0129 3.34976 11.3964 3.36752 11.7535 3.55376C12.1107 3.74 12.5292 4.2104 12.5292 4.2104L12.1284 4.99136C12.1543 5.00048 12.1807 5.00912 12.2067 5.01824C12.4596 5.08928 12.6598 5.07152 12.8167 5.00912C13.0001 4.89344 13.4796 4.50272 12.8172 3.78416Z" fill="#A98798"/>
<path d="M10.917 3.16256C11.0912 3.2336 11.3178 3.35792 11.5966 3.54416C11.9278 3.76592 12.2154 4.01456 12.3987 4.20992C12.0934 4.6184 11.8933 5.1776 11.7714 5.56784C11.8323 5.65664 11.9019 5.74544 11.9634 5.83424C12.0243 5.61248 12.129 5.28368 12.2686 4.95536C12.3037 4.96448 12.3469 4.96448 12.3906 4.96448C12.4952 4.96448 12.6171 4.94672 12.7131 4.86704C12.7827 4.81376 12.8614 4.71632 12.8528 4.53872C12.8528 4.37024 12.7222 4.15712 12.452 3.89984C12.26 3.7136 11.9989 3.50912 11.7373 3.32288C10.9875 2.81696 10.4648 2.67488 10.2296 2.9144C10.0726 3.07424 10.0899 3.2696 10.1422 3.41168C9.86335 3.59792 9.62815 3.73136 9.47119 3.82016C9.57583 3.85568 9.67183 3.89984 9.77647 3.94448C10.0539 3.7928 10.4552 3.53552 10.917 3.16256ZM12.5643 4.43216C12.5902 4.47632 12.5994 4.52096 12.5994 4.54736C12.5994 4.62704 12.5734 4.65392 12.5557 4.67168C12.5206 4.69808 12.451 4.71584 12.3901 4.71584C12.4424 4.60928 12.5034 4.52048 12.5643 4.43216ZM10.4115 3.10928C10.4374 3.08288 10.5075 3.06512 10.6208 3.08288C10.5334 3.15392 10.4466 3.21584 10.3592 3.27824C10.3506 3.21584 10.3592 3.15392 10.4115 3.10928Z" fill="#602F92"/>
<path d="M7.66586 3.49088C4.81562 3.49088 2.50586 5.84288 2.50586 8.74544C2.50586 11.648 4.81562 14 7.66586 14C10.5161 14 12.8259 11.648 12.8259 8.74544C12.8259 5.84336 10.5075 3.49088 7.66586 3.49088ZM7.66586 13.7072C4.97258 13.7072 2.79338 11.4882 2.79338 8.74544C2.79338 6.00272 4.97258 3.78368 7.66586 3.78368C10.3591 3.78368 12.5383 6.00272 12.5383 8.74544C12.5379 11.4882 10.3505 13.7072 7.66586 13.7072Z" fill="#602F92"/>
<path opacity="0.6" d="M7.66581 13.7072C10.3567 13.7072 12.5383 11.4858 12.5383 8.74545C12.5383 6.00512 10.3567 3.78416 7.66581 3.78416C4.97494 3.78416 2.79333 6.0056 2.79333 8.74592C2.79333 11.4862 4.97494 13.7072 7.66581 13.7072Z" fill="url(#paint2_linear_1677_1687)"/>
<path opacity="0.6" d="M7.63084 13.1034C4.9726 12.6685 3.16828 10.1211 3.60412 7.41392C3.79612 6.21584 4.38844 5.19488 5.22556 4.45808C4.00492 5.1776 3.09868 6.42896 2.85436 7.95584C2.42716 10.663 4.23148 13.2104 6.88108 13.6453C8.36284 13.8939 9.79228 13.4235 10.8468 12.5005C9.91468 13.0501 8.7814 13.2901 7.63084 13.1034Z" fill="#A98798"/>
<path opacity="0.6" d="M8.44153 3.8552C7.21273 3.6512 6.01849 3.93488 5.04217 4.56512C5.02489 4.58288 5.00713 4.60064 5.00713 4.60064C5.38201 4.36976 5.93113 4.16576 5.93113 4.16576C4.51897 5 4.08313 5.94992 4.08313 5.94992C4.63225 4.86704 6.24457 4.10384 7.50841 4.05056C8.77225 3.99728 9.60025 4.37888 10.6111 5.20448C11.622 6.03872 12.2326 7.74271 12.1711 9.09199C12.1188 10.4413 11.4214 11.5328 11.4214 11.5328C11.9009 10.9026 12.1884 10.4413 12.3713 9.97087C12.4063 9.82879 12.4409 9.68671 12.4587 9.53599C12.8955 6.83743 11.0998 4.29008 8.44153 3.8552Z" fill="url(#paint3_linear_1677_1687)"/>
<path d="M12.294 8.70128C12.294 11.3019 10.2195 13.4144 7.66585 13.4144C5.11225 13.4144 3.02905 11.3019 3.02905 8.70128H12.294Z" fill="url(#paint4_linear_1677_1687)"/>
<g opacity="0.6">
<path opacity="0.6" d="M11.9278 8.70128C11.9278 11.2395 9.9579 13.3165 7.48254 13.4144C7.5435 13.4144 7.60446 13.4144 7.66542 13.4144C10.219 13.4144 12.2936 11.3019 12.2936 8.70128H11.9278Z" fill="url(#paint5_linear_1677_1687)"/>
</g>
<g opacity="0.7">
<path opacity="0.7" d="M3.68281 8.70128H3.02905C3.02905 11.3019 5.10361 13.4144 7.65721 13.4144C7.77049 13.4144 7.87513 13.4144 7.97977 13.4053C5.58265 13.2277 3.68281 11.1862 3.68281 8.70128Z" fill="url(#paint6_linear_1677_1687)"/>
</g>
<path d="M12.2854 8.74544C12.2854 8.204 11.3614 7.89344 10.1326 7.78688C9.24361 7.71584 8.34601 7.80464 7.31737 8.12432C6.42841 8.39072 5.62633 8.34608 5.04265 8.27504C3.74377 8.12432 3.02905 8.10656 3.02905 8.74544C3.02905 9.66848 4.87705 10.8224 7.64857 10.423C9.05209 10.219 9.77545 9.80192 10.6035 9.51776C11.5011 9.21584 12.2854 9.22496 12.2854 8.74544Z" fill="url(#paint7_linear_1677_1687)"/>
<path d="M9.18215 6.50863C9.61559 6.50863 9.96647 6.15103 9.96647 5.70991C9.96647 5.26879 9.61511 4.91119 9.18215 4.91119C8.74919 4.91119 8.39783 5.26879 8.39783 5.70991C8.39783 6.15103 8.74919 6.50863 9.18215 6.50863Z" fill="white"/>
<path d="M10.4638 7.10336C10.6466 7.10336 10.795 6.95216 10.795 6.76592C10.795 6.57968 10.6466 6.42848 10.4638 6.42848C10.2809 6.42848 10.1326 6.57968 10.1326 6.76592C10.1326 6.95264 10.2809 7.10336 10.4638 7.10336Z" fill="white"/>
<g opacity="0.6">
<path opacity="0.6" d="M11.6488 5.07105C11.6402 5.07105 11.6316 5.07105 11.6316 5.07105C11.5792 5.06192 11.5442 5.00913 11.5533 4.94673C11.6316 4.53825 11.9628 4.148 11.9805 4.13024C12.0156 4.08608 12.0852 4.08608 12.1202 4.12112C12.1639 4.15664 12.1639 4.22768 12.1288 4.2632C12.1202 4.27184 11.8149 4.63616 11.7453 4.99088C11.7362 5.04416 11.6925 5.07105 11.6488 5.07105Z" fill="url(#paint8_linear_1677_1687)"/>
</g>
<path opacity="0.2" d="M7.34382 12.4467C7.4787 12.4467 7.58766 12.3354 7.58766 12.1981C7.58766 12.0608 7.47822 11.9494 7.34382 11.9494C7.20894 11.9494 7.09998 12.0608 7.09998 12.1981C7.09998 12.3354 7.20894 12.4467 7.34382 12.4467Z" fill="white"/>
<g opacity="0.4">
<path opacity="0.6" d="M7.20409 12.3584C7.10809 12.261 7.10809 12.1011 7.20409 12.0032C7.22137 11.9854 7.23913 11.9768 7.25641 11.959C7.22137 11.9682 7.19545 11.9854 7.16905 12.0123C7.07305 12.1098 7.07305 12.2696 7.16905 12.3675C7.24729 12.4472 7.36969 12.465 7.46521 12.4117C7.37833 12.4472 7.27369 12.4294 7.20409 12.3584Z" fill="url(#paint9_linear_1677_1687)"/>
</g>
<path opacity="0.3" d="M7.43062 12.127C7.45942 12.127 7.48294 12.103 7.48294 12.0738C7.48294 12.0445 7.45942 12.0205 7.43062 12.0205C7.40182 12.0205 7.3783 12.0445 7.3783 12.0738C7.3783 12.1035 7.40134 12.127 7.43062 12.127Z" fill="white"/>
<path opacity="0.2" d="M8.61628 12.3224C8.75116 12.3224 8.86012 12.211 8.86012 12.0738C8.86012 11.9365 8.75068 11.8251 8.61628 11.8251C8.4814 11.8251 8.37244 11.9365 8.37244 12.0738C8.37244 12.211 8.48188 12.3224 8.61628 12.3224Z" fill="white"/>
<g opacity="0.4">
<path opacity="0.6" d="M8.47655 12.2341C8.38055 12.1366 8.38055 11.9768 8.47655 11.8789C8.49383 11.8611 8.51159 11.8525 8.52887 11.8347C8.49383 11.8438 8.46791 11.8611 8.44151 11.888C8.34551 11.9854 8.34551 12.1453 8.44151 12.2432C8.51975 12.3229 8.64215 12.3406 8.73767 12.2874C8.65079 12.3229 8.54615 12.3051 8.47655 12.2341Z" fill="url(#paint10_linear_1677_1687)"/>
</g>
<path opacity="0.3" d="M8.7032 12.0032C8.732 12.0032 8.75552 11.9792 8.75552 11.9499C8.75552 11.9206 8.732 11.8966 8.7032 11.8966C8.6744 11.8966 8.65088 11.9206 8.65088 11.9499C8.65088 11.9792 8.6744 12.0032 8.7032 12.0032Z" fill="white"/>
<path opacity="0.2" d="M7.98842 12.8994C8.0897 12.8994 8.1713 12.8158 8.1713 12.7131C8.1713 12.6104 8.08922 12.5269 7.98842 12.5269C7.88714 12.5269 7.80554 12.6104 7.80554 12.7131C7.80554 12.8158 7.88714 12.8994 7.98842 12.8994Z" fill="white"/>
<g opacity="0.4">
<path opacity="0.6" d="M7.88378 12.8288C7.81418 12.7578 7.81418 12.6334 7.88378 12.5624C7.89242 12.5533 7.9097 12.5446 7.91882 12.5355C7.8929 12.5446 7.87514 12.5624 7.85786 12.5797C7.78826 12.6507 7.78826 12.775 7.85786 12.8461C7.91882 12.908 8.00618 12.9171 8.08442 12.873C8.01434 12.8998 7.9361 12.8821 7.88378 12.8288Z" fill="url(#paint11_linear_1677_1687)"/>
</g>
<path opacity="0.3" d="M8.04932 12.6507C8.06852 12.6507 8.08436 12.6349 8.08436 12.6152C8.08436 12.5955 8.06852 12.5797 8.04932 12.5797C8.03012 12.5797 8.01428 12.5955 8.01428 12.6152C8.01428 12.6349 8.03012 12.6507 8.04932 12.6507Z" fill="white"/>
<path opacity="0.2" d="M9.11257 12.7664C9.21385 12.7664 9.29545 12.6829 9.29545 12.5802C9.29545 12.4774 9.21337 12.3939 9.11257 12.3939C9.01177 12.3939 8.92969 12.4774 8.92969 12.5802C8.92969 12.6829 9.01177 12.7664 9.11257 12.7664Z" fill="white"/>
<g opacity="0.4">
<path opacity="0.6" d="M9.00842 12.6954C8.93882 12.6243 8.93882 12.5 9.00842 12.429C9.01706 12.4198 9.03434 12.4112 9.04346 12.4026C9.01754 12.4117 8.99978 12.429 8.9825 12.4467C8.9129 12.5178 8.9129 12.6421 8.9825 12.7131C9.04346 12.775 9.13082 12.7842 9.20906 12.7395C9.13898 12.7664 9.06074 12.7486 9.00842 12.6954Z" fill="url(#paint12_linear_1677_1687)"/>
</g>
<path opacity="0.3" d="M9.17359 12.5178C9.19279 12.5178 9.20863 12.5019 9.20863 12.4822C9.20863 12.4626 9.19279 12.4467 9.17359 12.4467C9.15439 12.4467 9.13855 12.4626 9.13855 12.4822C9.13903 12.5019 9.15439 12.5178 9.17359 12.5178Z" fill="white"/>
<path opacity="0.2" d="M6.30607 12.3579C6.52735 12.3579 6.70687 12.175 6.70687 11.9494C6.70687 11.7238 6.52735 11.541 6.30607 11.541C6.08479 11.541 5.90527 11.7238 5.90527 11.9494C5.90527 12.175 6.08479 12.3579 6.30607 12.3579Z" fill="white"/>
<g opacity="0.4">
<path opacity="0.6" d="M6.07995 12.2072C5.92299 12.0474 5.92299 11.7901 6.07995 11.6302C6.10587 11.6038 6.13227 11.5861 6.16731 11.5683C6.11499 11.5861 6.07131 11.6216 6.02763 11.6571C5.87067 11.817 5.87067 12.0742 6.02763 12.2341C6.15819 12.367 6.35883 12.3939 6.51579 12.296C6.36747 12.3579 6.19323 12.3315 6.07995 12.2072Z" fill="url(#paint13_linear_1677_1687)"/>
</g>
<path opacity="0.3" d="M6.44576 11.8256C6.49376 11.8256 6.53312 11.7858 6.53312 11.7368C6.53312 11.6878 6.49424 11.648 6.44576 11.648C6.39776 11.648 6.3584 11.6878 6.3584 11.7368C6.3584 11.7858 6.39728 11.8256 6.44576 11.8256Z" fill="white"/>
<path opacity="0.2" d="M9.88872 11.3552C10.11 11.3552 10.2895 11.1723 10.2895 10.9467C10.2895 10.7211 10.11 10.5382 9.88872 10.5382C9.66744 10.5382 9.48792 10.7211 9.48792 10.9467C9.48792 11.1723 9.66696 11.3552 9.88872 11.3552Z" fill="white"/>
<g opacity="0.4">
<path opacity="0.6" d="M9.65307 11.204C9.49611 11.0442 9.49611 10.7869 9.65307 10.627C9.67899 10.6002 9.70539 10.5829 9.74043 10.5651C9.68811 10.5829 9.64443 10.6184 9.60075 10.6539C9.44379 10.8138 9.44379 11.071 9.60075 11.2309C9.73131 11.3638 9.93195 11.3907 10.0889 11.2928C9.94059 11.3552 9.77499 11.3283 9.65307 11.204Z" fill="url(#paint14_linear_1677_1687)"/>
</g>
<path opacity="0.3" d="M10.0279 10.8224C10.0759 10.8224 10.1153 10.7826 10.1153 10.7336C10.1153 10.6846 10.0764 10.6448 10.0279 10.6448C9.97991 10.6448 9.94055 10.6846 9.94055 10.7336C9.94055 10.7826 9.97943 10.8224 10.0279 10.8224Z" fill="white"/>
</g>
</g>
<defs>
<radialGradient id="paint0_radial_1677_1687" cx="0" cy="0" r="1" gradientUnits="userSpaceOnUse" gradientTransform="translate(13.0591 3.63335) scale(3.89562 3.96696)">
<stop stop-color="#FBEAF3" stop-opacity="0.6"/>
<stop offset="0.6807" stop-color="#A087BF"/>
<stop offset="1" stop-color="#17102E"/>
</radialGradient>
<radialGradient id="paint1_radial_1677_1687" cx="0" cy="0" r="1" gradientUnits="userSpaceOnUse" gradientTransform="translate(10.8918 5.32461) scale(9.53115 9.70572)">
<stop stop-color="#FBEAF3" stop-opacity="0.6"/>
<stop offset="0.6807" stop-color="#A087BF"/>
<stop offset="1" stop-color="#17102E"/>
</radialGradient>
<linearGradient id="paint2_linear_1677_1687" x1="6.85801" y1="13.6393" x2="8.47353" y2="3.85185" gradientUnits="userSpaceOnUse">
<stop stop-color="#9AD9E5"/>
<stop offset="0.6202" stop-color="white" stop-opacity="0"/>
</linearGradient>
<linearGradient id="paint3_linear_1677_1687" x1="11.1439" y1="5.42534" x2="7.04822" y2="9.11566" gradientUnits="userSpaceOnUse">
<stop offset="0.2888" stop-color="white"/>
<stop offset="0.7796" stop-color="white" stop-opacity="0"/>
</linearGradient>
<linearGradient id="paint4_linear_1677_1687" x1="3.02888" y1="11.0577" x2="12.2941" y2="11.0577" gradientUnits="userSpaceOnUse">
<stop stop-color="#384EA2"/>
<stop offset="0.9952" stop-color="#D54799"/>
</linearGradient>
<linearGradient id="paint5_linear_1677_1687" x1="12.7559" y1="9.14253" x2="7.63006" y2="13.8996" gradientUnits="userSpaceOnUse">
<stop offset="0.2888" stop-color="white"/>
<stop offset="0.7796" stop-color="white" stop-opacity="0"/>
</linearGradient>
<linearGradient id="paint6_linear_1677_1687" x1="3.02888" y1="11.0577" x2="7.97962" y2="11.0577" gradientUnits="userSpaceOnUse">
<stop stop-color="#2B2F82"/>
<stop offset="0.9952" stop-color="#72439A"/>
</linearGradient>
<linearGradient id="paint7_linear_1677_1687" x1="3.03902" y1="9.1342" x2="12.2856" y2="9.1342" gradientUnits="userSpaceOnUse">
<stop stop-color="#2B2F82"/>
<stop offset="0.9952" stop-color="#A14298"/>
</linearGradient>
<linearGradient id="paint8_linear_1677_1687" x1="12.146" y1="4.09455" x2="11.4638" y2="5.1832" gradientUnits="userSpaceOnUse">
<stop offset="0.2888" stop-color="white"/>
<stop offset="0.7796" stop-color="white" stop-opacity="0"/>
</linearGradient>
<linearGradient id="paint9_linear_1677_1687" x1="7.09711" y1="12.2004" x2="7.46587" y2="12.2004" gradientUnits="userSpaceOnUse">
<stop offset="0.2888" stop-color="white"/>
<stop offset="0.7796" stop-color="white" stop-opacity="0"/>
</linearGradient>
<linearGradient id="paint10_linear_1677_1687" x1="8.3685" y1="12.0761" x2="8.73727" y2="12.0761" gradientUnits="userSpaceOnUse">
<stop offset="0.2888" stop-color="white"/>
<stop offset="0.7796" stop-color="white" stop-opacity="0"/>
</linearGradient>
<linearGradient id="paint11_linear_1677_1687" x1="7.80416" y1="12.7183" x2="8.08101" y2="12.7183" gradientUnits="userSpaceOnUse">
<stop offset="0.2888" stop-color="white"/>
<stop offset="0.7796" stop-color="white" stop-opacity="0"/>
</linearGradient>
<linearGradient id="paint12_linear_1677_1687" x1="8.92486" y1="12.5851" x2="9.20168" y2="12.5851" gradientUnits="userSpaceOnUse">
<stop offset="0.2888" stop-color="white"/>
<stop offset="0.7796" stop-color="white" stop-opacity="0"/>
</linearGradient>
<linearGradient id="paint13_linear_1677_1687" x1="5.90578" y1="11.9613" x2="6.50799" y2="11.9613" gradientUnits="userSpaceOnUse">
<stop offset="0.2888" stop-color="white"/>
<stop offset="0.7796" stop-color="white" stop-opacity="0"/>
</linearGradient>
<linearGradient id="paint14_linear_1677_1687" x1="9.48246" y1="10.9583" x2="10.0847" y2="10.9583" gradientUnits="userSpaceOnUse">
<stop offset="0.2888" stop-color="white"/>
<stop offset="0.7796" stop-color="white" stop-opacity="0"/>
</linearGradient>
<clipPath id="clip0_1677_1687">
<rect width="16" height="16" rx="4" fill="white"/>
</clipPath>
<clipPath id="clip1_1677_1687">
<rect width="12" height="12" fill="white" transform="translate(2 2)"/>
</clipPath>
</defs>
</svg>
