<svg width="16" height="16" viewBox="0 0 16 16" fill="none" xmlns="http://www.w3.org/2000/svg">
<g clip-path="url(#clip0_1758_7838)">
<rect width="16" height="16" rx="4" fill="white" fill-opacity="0.08"/>
<path d="M8 2.5104C11.0284 2.5104 13.4783 4.9603 13.4783 7.98866C13.4783 11.017 11.0284 13.4669 8 13.4669C4.97164 13.4669 2.52174 11.017 2.52174 7.98866C2.52174 4.9603 4.97164 2.5104 8 2.5104ZM8 2C7.19471 2 6.4121 2.15879 5.66351 2.47637C4.94896 2.78261 4.3138 3.21361 3.75803 3.75803C3.21361 4.30246 2.77127 4.94896 2.47637 5.66352C2.15879 6.40076 2 7.18337 2 8C2 8.80529 2.15879 9.5879 2.47637 10.3365C2.78261 11.051 3.21361 11.6862 3.75803 12.242C4.30246 12.7864 4.94896 13.2287 5.66351 13.5236C6.40075 13.8412 7.18336 14 8 14C8.81663 14 9.5879 13.8412 10.3365 13.5236C11.051 13.2174 11.6862 12.7864 12.242 12.242C12.7864 11.6975 13.2287 11.051 13.5236 10.3365C13.8412 9.59925 14 8.81664 14 8C14 7.19471 13.8412 6.4121 13.5236 5.66352C13.2174 4.94896 12.7864 4.3138 12.242 3.75803C11.6975 3.21361 11.051 2.77127 10.3365 2.47637C9.5879 2.15879 8.80529 2 8 2Z" fill="white"/>
<path d="M8 3.16824C5.33459 3.16824 3.17958 5.32325 3.17958 7.98866C3.17958 10.6541 5.33459 12.8091 8 12.8091C10.6654 12.8091 12.8204 10.6541 12.8204 7.98866C12.8091 5.32325 10.6541 3.16824 8 3.16824ZM6.61626 7.41021L5.87902 8.14745H6.61626V8.95274C6.61626 9.53119 6.15123 9.98488 5.58412 9.98488C5.00567 9.98488 4.55199 9.51985 4.55199 8.95274V7.03592C4.55199 6.45747 5.01701 6.00378 5.58412 6.00378C6.16257 6.00378 6.61626 6.46881 6.61626 7.03592V7.41021ZM11.4594 8.14745V8.95274C11.4594 9.53119 10.9943 9.98488 10.4272 9.98488C9.86011 9.98488 9.39509 9.51985 9.39509 8.95274V7.03592C9.39509 6.45747 9.86011 6.00378 10.4272 6.00378C10.9943 6.00378 11.4594 6.46881 11.4594 7.03592V7.42155L10.7221 8.15879H11.4594V8.14745Z" fill="white"/>
</g>
<defs>
<clipPath id="clip0_1758_7838">
<rect width="16" height="16" rx="4" fill="white"/>
</clipPath>
</defs>
</svg>
