<svg width="17" height="16" viewBox="0 0 17 16" fill="none" xmlns="http://www.w3.org/2000/svg">
<g clip-path="url(#clip0_1758_7838)">
<rect x="0.466675" width="16" height="16" rx="4" fill="white" fill-opacity="0.08"/>
<path d="M8.46667 2.5104C11.495 2.5104 13.9449 4.9603 13.9449 7.98866C13.9449 11.017 11.495 13.4669 8.46667 13.4669C5.43832 13.4669 2.98841 11.017 2.98841 7.98866C2.98841 4.9603 5.43832 2.5104 8.46667 2.5104ZM8.46667 2C7.66138 2 6.87877 2.15879 6.13019 2.47637C5.41563 2.78261 4.78047 3.21361 4.22471 3.75803C3.68029 4.30246 3.23794 4.94896 2.94304 5.66352C2.62546 6.40076 2.46667 7.18337 2.46667 8C2.46667 8.80529 2.62546 9.5879 2.94304 10.3365C3.24928 11.051 3.68029 11.6862 4.22471 12.242C4.76913 12.7864 5.41563 13.2287 6.13019 13.5236C6.86743 13.8412 7.65004 14 8.46667 14C9.28331 14 10.0546 13.8412 10.8032 13.5236C11.5177 13.2174 12.1529 12.7864 12.7086 12.242C13.2531 11.6975 13.6954 11.051 13.9903 10.3365C14.3079 9.59925 14.4667 8.81664 14.4667 8C14.4667 7.19471 14.3079 6.4121 13.9903 5.66352C13.6841 4.94896 13.2531 4.3138 12.7086 3.75803C12.1642 3.21361 11.5177 2.77127 10.8032 2.47637C10.0546 2.15879 9.27197 2 8.46667 2Z" fill="white"/>
<path d="M8.46667 3.16824C5.80127 3.16824 3.64626 5.32325 3.64626 7.98866C3.64626 10.6541 5.80127 12.8091 8.46667 12.8091C11.1321 12.8091 13.2871 10.6541 13.2871 7.98866C13.2757 5.32325 11.1207 3.16824 8.46667 3.16824ZM7.08293 7.41021L6.34569 8.14745H7.08293V8.95274C7.08293 9.53119 6.6179 9.98488 6.0508 9.98488C5.47235 9.98488 5.01866 9.51985 5.01866 8.95274V7.03592C5.01866 6.45747 5.48369 6.00378 6.0508 6.00378C6.62925 6.00378 7.08293 6.46881 7.08293 7.03592V7.41021ZM11.926 8.14745V8.95274C11.926 9.53119 11.461 9.98488 10.8939 9.98488C10.3268 9.98488 9.86176 9.51985 9.86176 8.95274V7.03592C9.86176 6.45747 10.3268 6.00378 10.8939 6.00378C11.461 6.00378 11.926 6.46881 11.926 7.03592V7.42155L11.1888 8.15879H11.926V8.14745Z" fill="white"/>
</g>
<defs>
<clipPath id="clip0_1758_7838">
<rect x="0.466675" width="16" height="16" rx="4" fill="white"/>
</clipPath>
</defs>
</svg>
