<svg width="16" height="16" viewBox="0 0 16 16" fill="none" xmlns="http://www.w3.org/2000/svg">
<g clip-path="url(#clip0_1766_5920)">
<rect width="16" height="16" rx="4" fill="white" fill-opacity="0.08"/>
<path d="M11.3306 7.33995C11.3306 7.80217 11.2245 8.22647 11.0124 8.61288C10.8002 8.99176 10.4744 9.29862 10.0349 9.53352C9.59544 9.76841 9.0499 9.88586 8.39827 9.88586H7.19352V12.75H5.25V4.77132H8.39827C9.03473 4.77132 9.5727 4.88119 10.0122 5.10093C10.4516 5.32066 10.7812 5.62376 11.001 6.01017C11.2207 6.39663 11.3306 6.83989 11.3306 7.33995ZM8.2505 8.34013C8.6218 8.34013 8.89838 8.25301 9.08022 8.07871C9.26205 7.90445 9.35297 7.65819 9.35297 7.33995C9.35297 7.02172 9.26205 6.77545 9.08022 6.6012C8.89838 6.4269 8.6218 6.33977 8.2505 6.33977H7.19352V8.34013H8.2505Z" fill="white"/>
<path d="M11.3307 2.75H5.25006V4.03405H11.3307V2.75Z" fill="#E50913"/>
</g>
<defs>
<clipPath id="clip0_1766_5920">
<rect width="16" height="16" rx="4" fill="white"/>
</clipPath>
</defs>
</svg>
