<svg width="17" height="16" viewBox="0 0 17 16" fill="none" xmlns="http://www.w3.org/2000/svg">
<g clip-path="url(#clip0_1766_5920)">
<rect x="0.466675" width="16" height="16" rx="4" fill="white" fill-opacity="0.08"/>
<path d="M11.7973 7.33995C11.7973 7.80217 11.6912 8.22647 11.479 8.61288C11.2669 8.99176 10.9411 9.29862 10.5016 9.53352C10.0621 9.76841 9.51657 9.88586 8.86494 9.88586H7.66019V12.75H5.71667V4.77132H8.86494C9.50141 4.77132 10.0394 4.88119 10.4788 5.10093C10.9183 5.32066 11.2479 5.62376 11.4677 6.01017C11.6874 6.39663 11.7973 6.83989 11.7973 7.33995ZM8.71718 8.34013C9.08847 8.34013 9.36506 8.25301 9.54689 8.07871C9.72872 7.90445 9.81964 7.65819 9.81964 7.33995C9.81964 7.02172 9.72872 6.77545 9.54689 6.6012C9.36506 6.4269 9.08847 6.33977 8.71718 6.33977H7.66019V8.34013H8.71718Z" fill="white"/>
<path d="M11.7973 2.75H5.71673V4.03405H11.7973V2.75Z" fill="#E50913"/>
</g>
<defs>
<clipPath id="clip0_1766_5920">
<rect x="0.466675" width="16" height="16" rx="4" fill="white"/>
</clipPath>
</defs>
</svg>
