<?xml version="1.0" encoding="UTF-8" standalone="no"?>
<svg
   width="16"
   height="16"
   viewBox="0 0 16 16"
   fill="none"
   version="1.1"
   id="svg3"
   sodipodi:docname="persistence.svg"
   inkscape:version="1.3.2 (091e20e, 2023-11-25, custom)"
   xmlns:inkscape="http://www.inkscape.org/namespaces/inkscape"
   xmlns:sodipodi="http://sodipodi.sourceforge.net/DTD/sodipodi-0.dtd"
   xmlns="http://www.w3.org/2000/svg"
   xmlns:svg="http://www.w3.org/2000/svg">
  <sodipodi:namedview
     id="namedview3"
     pagecolor="#ffffff"
     bordercolor="#000000"
     borderopacity="0.25"
     inkscape:showpageshadow="2"
     inkscape:pageopacity="0.0"
     inkscape:pagecheckerboard="0"
     inkscape:deskcolor="#d1d1d1"
     inkscape:zoom="50.8125"
     inkscape:cx="8.501845"
     inkscape:cy="7.9803198"
     inkscape:window-width="1920"
     inkscape:window-height="1017"
     inkscape:window-x="1912"
     inkscape:window-y="-8"
     inkscape:window-maximized="1"
     inkscape:current-layer="svg3" />
  <g
     clip-path="url(#clip0_1766_5920)"
     id="g2"
     transform="translate(-0.53136531)">
    <rect
       x="0.53320301"
       width="16"
       height="16"
       rx="4"
       fill="#ffffff"
       fill-opacity="0.08"
       id="rect1"
       y="0" />
    <path
       d="m 11.8638,7.33995 c 0,0.46222 -0.1061,0.88652 -0.3182,1.27293 -0.2122,0.37888 -0.538,0.68574 -0.9775,0.92064 -0.4395,0.23489 -0.985,0.35234 -1.63663,0.35234 H 7.72672 V 12.75 H 5.7832 V 4.77132 h 3.14827 c 0.63647,0 1.17443,0.10987 1.61393,0.32961 0.4394,0.21973 0.769,0.52283 0.9888,0.90924 0.2197,0.38646 0.3296,0.82972 0.3296,1.32978 z M 8.7837,8.34013 c 0.3713,0 0.64788,-0.08712 0.82972,-0.26142 C 9.79525,7.90445 9.88617,7.65819 9.88617,7.33995 9.88617,7.02172 9.79525,6.77545 9.61342,6.6012 9.43158,6.4269 9.155,6.33977 8.7837,6.33977 H 7.72672 v 2.00036 z"
       fill="#ffffff"
       id="path1" />
    <path
       d="M 11.8639,2.75 H 5.78326 v 1.28405 h 6.08064 z"
       fill="#da9a4a"
       id="path2" />
  </g>
  <defs
     id="defs3">
    <clipPath
       id="clip0_1766_5920">
      <path
         d="m 0.533203,8 c 0,-3.77124 0,-5.65685 1.171577,-6.82843 C 2.87635,0 4.76197,0 8.5332,0 c 3.7712,0 5.6569,0 6.8284,1.17157 1.1716,1.17158 1.1716,3.05719 1.1716,6.82843 0,3.7712 0,5.6569 -1.1716,6.8284 C 14.1901,16 12.3044,16 8.5332,16 4.76197,16 2.87635,16 1.70478,14.8284 0.533203,13.6569 0.533203,11.7712 0.533203,8 Z"
         fill="#ffffff"
         id="path3" />
    </clipPath>
  </defs>
</svg>
