<svg width="17" height="16" viewBox="0 0 17 16" fill="none" xmlns="http://www.w3.org/2000/svg">
<g clip-path="url(#clip0_1766_5969)">
<rect x="0.466675" width="16" height="16" rx="4" fill="white" fill-opacity="0.08"/>
<path fill-rule="evenodd" clip-rule="evenodd" d="M13.3825 10.8587C13.4741 10.7847 13.6339 10.9805 13.6582 11.1508C13.6826 11.3211 13.6069 11.3968 13.5447 11.4131C13.4825 11.4293 13.3746 11.273 13.3474 11.1048C13.3284 10.9885 13.3122 10.9155 13.3825 10.8587Z" fill="url(#paint0_linear_1766_5969)"/>
<path fill-rule="evenodd" clip-rule="evenodd" d="M7.62552 8.0772C7.41448 7.76057 7.73982 7.30552 8.09421 7.15121C8.44864 6.99687 8.78585 6.98543 8.95163 7.15121C9.11741 7.31699 9.0431 7.81421 8.55151 8.0772C8.05987 8.34011 7.78556 8.3172 7.62552 8.0772Z" fill="#EDECEC"/>
<path fill-rule="evenodd" clip-rule="evenodd" d="M13.7465 9.28137C14.4659 9.61626 14.9667 10.3638 14.9667 11.2313C14.9667 12.4117 14.0393 13.3701 12.8969 13.3701C12.2366 13.3701 11.648 13.0498 11.2693 12.551C11.1456 12.3708 11.0629 11.9932 11.3779 11.6092C11.5542 11.3942 11.9614 11.1427 12.5392 10.8687C12.9874 10.6593 13.4288 10.4095 13.711 10.1148C13.8166 10.0045 13.8862 9.88057 13.9222 9.7625C13.9748 9.5897 13.9178 9.36787 13.7465 9.28137Z" fill="#848788"/>
<path fill-rule="evenodd" clip-rule="evenodd" d="M13.8829 9.86475C14.4914 10.2635 14.5411 10.8755 14.5639 11.2349C14.5881 11.6164 14.3278 12.7303 13.1775 12.9059C12.0512 13.0779 11.5317 12.2302 11.3567 11.6358C11.3636 11.6269 11.3706 11.618 11.3778 11.6092C11.5542 11.3942 11.9614 11.1426 12.5392 10.8687C12.9874 10.6593 13.4287 10.4095 13.711 10.1148C13.7864 10.0361 13.8434 9.95036 13.8829 9.86475Z" fill="url(#paint1_linear_1766_5969)"/>
<path fill-rule="evenodd" clip-rule="evenodd" d="M13.198 10.5171C13.2221 10.5569 13.2449 10.5924 13.2688 10.6195C13.7418 11.1569 14.0037 10.6812 14.2975 10.9807C14.4473 11.1333 14.5282 11.2506 14.5565 11.4269C14.5009 11.9019 14.1715 12.7542 13.1775 12.9059C12.0512 13.0779 11.5317 12.2302 11.3567 11.6358C11.3636 11.6269 11.3706 11.618 11.3778 11.6092C11.5542 11.3942 11.9614 11.1427 12.5392 10.8687C12.7672 10.7622 12.9935 10.6452 13.198 10.5171Z" fill="url(#paint2_linear_1766_5969)"/>
<path fill-rule="evenodd" clip-rule="evenodd" d="M13.0253 10.6199C13.2418 10.7467 13.4721 10.9499 13.6921 11.3499C13.883 11.6971 14.1159 11.905 14.3813 12.0168C14.1897 12.4117 13.8244 12.8071 13.1775 12.9059C12.0512 13.0778 11.5317 12.2302 11.3567 11.6357C11.3636 11.6269 11.3706 11.618 11.3778 11.6091C11.5542 11.3942 11.9614 11.1426 12.5392 10.8687C12.7047 10.7914 12.8693 10.7085 13.0253 10.6199Z" fill="url(#paint3_linear_1766_5969)"/>
<path fill-rule="evenodd" clip-rule="evenodd" d="M11.6277 11.3834C11.8202 11.5315 11.8474 11.686 11.9243 12.0462C12.0084 12.4405 12.6996 13.1269 13.6689 12.7539C13.5267 12.8245 13.3638 12.8775 13.1775 12.9059C12.0512 13.0779 11.5317 12.2302 11.3567 11.6358C11.3636 11.6269 11.3706 11.618 11.3778 11.6092C11.4364 11.5377 11.5205 11.4623 11.6277 11.3834Z" fill="url(#paint4_linear_1766_5969)"/>
<path fill-rule="evenodd" clip-rule="evenodd" d="M12.9309 10.7939C13.119 10.6784 13.1851 10.7776 13.2175 10.8155C13.2499 10.8534 13.1769 11.0751 13.0255 11.1508C12.8741 11.2265 12.7524 11.1967 12.7092 11.1508C12.6659 11.1049 12.7768 10.8885 12.9309 10.7939Z" fill="#EDECEC"/>
<path fill-rule="evenodd" clip-rule="evenodd" d="M12.5057 10.885L12.5055 10.8846C12.5209 10.4482 12.6423 9.98633 12.82 9.65208C12.995 9.32289 13.422 9.15314 13.7128 9.26673L13.7463 9.28137C13.9177 9.36787 13.9747 9.5897 13.9221 9.7625C13.8861 9.88057 13.8164 10.0045 13.7109 10.1148C13.4287 10.4095 12.9873 10.6593 12.5391 10.8687L12.5057 10.885Z" fill="url(#paint5_linear_1766_5969)"/>
<path fill-rule="evenodd" clip-rule="evenodd" d="M6.1205 13.2265C4.26124 12.3889 2.96667 10.5192 2.96667 8.34946C2.96667 5.39702 5.36371 3 8.31611 3C10.0229 3 11.5441 3.80108 12.5229 5.04867C12.8425 5.49925 13.0563 6.44389 12.2422 7.40434C11.7864 7.94196 10.7341 8.57117 9.24069 9.25615C8.08228 9.78009 6.94157 10.4049 6.21218 11.142C5.9394 11.4177 5.75938 11.7279 5.66638 12.0232C5.53021 12.4552 5.67765 13.01 6.1205 13.2265Z" fill="url(#paint6_linear_1766_5969)"/>
<path fill-rule="evenodd" clip-rule="evenodd" d="M5.74341 11.82C5.17935 11.4375 4.75552 10.8557 4.29686 9.75898C3.63979 8.18769 4.11359 4.15402 8.16798 3.7166C10.0135 3.51754 11.9788 5.12398 12.4608 7.11049C12.398 7.20794 12.3254 7.30608 12.2422 7.40433C11.7864 7.94195 10.734 8.57116 9.24069 9.25614C8.08228 9.78008 6.94157 10.4049 6.21218 11.142C6.00134 11.3551 5.846 11.5886 5.74341 11.82Z" fill="url(#paint7_linear_1766_5969)"/>
<path fill-rule="evenodd" clip-rule="evenodd" d="M4.08545 8.90295C4.28268 8.02523 4.76204 7.17848 5.81101 6.71637C6.06666 6.6038 7.36372 6.26606 8.34808 6.46795C9.30375 6.66386 9.29906 7.31786 10.1921 7.32051C10.8381 7.32236 11.2813 7.28938 11.5007 7.40894C11.6413 7.48549 11.788 7.59397 11.9264 7.71406C11.379 8.17833 10.4558 8.69874 9.24068 9.25613C8.08228 9.78007 6.94157 10.4049 6.21217 11.142C6.00134 11.355 5.84599 11.5886 5.7434 11.82C5.17935 11.4375 4.75552 10.8557 4.29686 9.75897C4.198 9.5225 4.12471 9.23026 4.08545 8.90295Z" fill="url(#paint8_linear_1766_5969)"/>
<path fill-rule="evenodd" clip-rule="evenodd" d="M8.69391 6.57245C9.31959 6.83211 9.42238 7.31821 10.1921 7.32054C10.8381 7.32238 11.2813 7.28941 11.5007 7.40897C11.6413 7.48552 11.788 7.594 11.9264 7.71408C11.3789 8.17836 10.4558 8.69877 9.24067 9.25616C8.08227 9.7801 6.94156 10.4049 6.21216 11.142C6.14625 11.2087 6.08574 11.2773 6.03062 11.3471C5.55158 10.6444 5.0471 9.40316 5.71423 8.27276C6.41935 7.07809 7.44812 6.59953 8.69391 6.57245Z" fill="url(#paint9_linear_1766_5969)"/>
<path fill-rule="evenodd" clip-rule="evenodd" d="M9.32698 9.21552L9.3275 9.2164C9.28758 10.3081 8.97384 11.4632 8.5147 12.2993C8.06254 13.1227 6.9589 13.5473 6.20736 13.2633L6.12053 13.2265C5.67768 13.01 5.53028 12.4552 5.66641 12.0232C5.75945 11.728 5.93943 11.4177 6.21221 11.142C6.9416 10.4049 8.08232 9.78009 9.24072 9.25616L9.32698 9.21552Z" fill="url(#paint10_linear_1766_5969)"/>
<path fill-rule="evenodd" clip-rule="evenodd" d="M8.74963 6.59674C9.32641 6.86114 9.44573 7.31831 10.1921 7.32052C10.838 7.32236 11.2812 7.28938 11.5007 7.40894C11.6413 7.48549 11.7879 7.59398 11.9263 7.71406C11.5487 8.03443 10.992 8.38147 10.2841 8.74898C9.79389 7.83137 9.24753 7.39282 8.74963 6.59674Z" fill="url(#paint11_linear_1766_5969)"/>
<path fill-rule="evenodd" clip-rule="evenodd" d="M9.40308 7.32272C9.60866 7.24794 9.88894 7.44276 10.0318 7.78572C10.1748 8.12867 10.2073 8.55106 9.77468 8.67166C9.42595 8.76883 9.3116 8.20867 9.27734 7.96289C9.24304 7.71711 9.21447 7.39133 9.40308 7.32272Z" fill="url(#paint12_linear_1766_5969)"/>
</g>
<defs>
<linearGradient id="paint0_linear_1766_5969" x1="13.3949" y1="10.8439" x2="13.6024" y2="11.3957" gradientUnits="userSpaceOnUse">
<stop stop-color="#ECEBEA"/>
<stop offset="1" stop-color="#D4D4D3"/>
</linearGradient>
<linearGradient id="paint1_linear_1766_5969" x1="14.6233" y1="10.6418" x2="13.6172" y2="11.3754" gradientUnits="userSpaceOnUse">
<stop stop-color="#BEC0BD"/>
<stop offset="1" stop-color="#ABADAD"/>
</linearGradient>
<linearGradient id="paint2_linear_1766_5969" x1="13.1845" y1="11.7441" x2="14.526" y2="10.9476" gradientUnits="userSpaceOnUse">
<stop stop-color="#5C5E61"/>
<stop offset="1" stop-color="#5C5E61"/>
</linearGradient>
<linearGradient id="paint3_linear_1766_5969" x1="11.9805" y1="12.2593" x2="13.888" y2="11.4628" gradientUnits="userSpaceOnUse">
<stop stop-color="#060808"/>
<stop offset="0.00510204" stop-color="#060808"/>
<stop offset="1" stop-color="#3C3D3F"/>
</linearGradient>
<linearGradient id="paint4_linear_1766_5969" x1="11.2018" y1="11.8525" x2="13.3736" y2="12.559" gradientUnits="userSpaceOnUse">
<stop stop-color="#595C5E"/>
<stop offset="1" stop-color="#1F2021"/>
</linearGradient>
<linearGradient id="paint5_linear_1766_5969" x1="12.7257" y1="9.58914" x2="13.4285" y2="10.4217" gradientUnits="userSpaceOnUse">
<stop stop-color="#B9BBB9"/>
<stop offset="0.994898" stop-color="#7D8182"/>
<stop offset="1" stop-color="#7D8182"/>
</linearGradient>
<linearGradient id="paint6_linear_1766_5969" x1="2.96325" y1="10.1445" x2="12.5172" y2="4.66619" gradientUnits="userSpaceOnUse">
<stop stop-color="#AFB1AF"/>
<stop offset="0.994898" stop-color="#898C8D"/>
<stop offset="1" stop-color="#898C8D"/>
</linearGradient>
<linearGradient id="paint7_linear_1766_5969" x1="3.69976" y1="8.47411" x2="12.4243" y2="6.53199" gradientUnits="userSpaceOnUse">
<stop stop-color="#BEC0BD"/>
<stop offset="1" stop-color="#ABADAD"/>
</linearGradient>
<linearGradient id="paint8_linear_1766_5969" x1="4.07058" y1="9.1125" x2="7.72886" y2="9.1125" gradientUnits="userSpaceOnUse">
<stop stop-color="#818485"/>
<stop offset="1" stop-color="#28282A"/>
</linearGradient>
<linearGradient id="paint9_linear_1766_5969" x1="5.17862" y1="9.62908" x2="11.8819" y2="7.21306" gradientUnits="userSpaceOnUse">
<stop stop-color="#060808"/>
<stop offset="0.00510204" stop-color="#060808"/>
<stop offset="1" stop-color="#3C3D3F"/>
</linearGradient>
<linearGradient id="paint10_linear_1766_5969" x1="8.69616" y1="12.405" x2="7.00102" y2="10.4316" gradientUnits="userSpaceOnUse">
<stop stop-color="#B9BBB9"/>
<stop offset="0.994898" stop-color="#7D8182"/>
<stop offset="1" stop-color="#7D8182"/>
</linearGradient>
<linearGradient id="paint11_linear_1766_5969" x1="11.993" y1="7.48525" x2="9.13563" y2="7.70174" gradientUnits="userSpaceOnUse">
<stop stop-color="#818485"/>
<stop offset="1" stop-color="#28282A"/>
</linearGradient>
<linearGradient id="paint12_linear_1766_5969" x1="9.37716" y1="7.22812" x2="9.93083" y2="8.66765" gradientUnits="userSpaceOnUse">
<stop stop-color="#ECEBEA"/>
<stop offset="1" stop-color="#D4D4D3"/>
</linearGradient>
<clipPath id="clip0_1766_5969">
<rect x="0.466675" width="16" height="16" rx="4" fill="white"/>
</clipPath>
</defs>
</svg>
