<svg width="16" height="16" viewBox="0 0 16 16" fill="none" xmlns="http://www.w3.org/2000/svg">
<g clip-path="url(#clip0_1766_5969)">
<rect width="16" height="16" rx="4" fill="white" fill-opacity="0.08"/>
<path fill-rule="evenodd" clip-rule="evenodd" d="M12.9158 10.8588C13.0074 10.7848 13.1673 10.9805 13.1916 11.1508C13.2159 11.3211 13.1402 11.3969 13.078 11.4131C13.0158 11.4294 12.908 11.273 12.8807 11.1049C12.8617 10.9886 12.8455 10.9155 12.9158 10.8588Z" fill="url(#paint0_linear_1766_5969)"/>
<path fill-rule="evenodd" clip-rule="evenodd" d="M7.15884 8.0772C6.94781 7.76057 7.27315 7.30552 7.62753 7.15121C7.98196 6.99687 8.31918 6.98543 8.48495 7.15121C8.65073 7.31699 8.57643 7.81421 8.08483 8.0772C7.59319 8.34011 7.31889 8.3172 7.15884 8.0772Z" fill="#EDECEC"/>
<path fill-rule="evenodd" clip-rule="evenodd" d="M13.2798 9.28134C13.9992 9.61623 14.5001 10.3638 14.5001 11.2312C14.5001 12.4117 13.5726 13.3701 12.4303 13.3701C11.7699 13.3701 11.1813 13.0498 10.8026 12.551C10.679 12.3708 10.5962 11.9932 10.9112 11.6091C11.0875 11.3942 11.4947 11.1426 12.0726 10.8687C12.5207 10.6592 12.9621 10.4095 13.2443 10.1148C13.3499 10.0045 13.4195 9.88054 13.4555 9.76247C13.5082 9.58967 13.4511 9.36784 13.2798 9.28134Z" fill="#848788"/>
<path fill-rule="evenodd" clip-rule="evenodd" d="M13.4162 9.86475C14.0247 10.2635 14.0744 10.8755 14.0972 11.2349C14.1215 11.6164 13.8612 12.7303 12.7109 12.9059C11.5845 13.0779 11.065 12.2302 10.89 11.6358C10.8969 11.6269 10.9039 11.618 10.9112 11.6092C11.0875 11.3942 11.4947 11.1426 12.0725 10.8687C12.5207 10.6593 12.962 10.4095 13.2443 10.1148C13.3197 10.0361 13.3767 9.95036 13.4162 9.86475Z" fill="url(#paint1_linear_1766_5969)"/>
<path fill-rule="evenodd" clip-rule="evenodd" d="M12.7314 10.5171C12.7554 10.5569 12.7782 10.5924 12.8021 10.6194C13.2751 11.1569 13.537 10.6812 13.8309 10.9807C13.9806 11.1333 14.0616 11.2506 14.0898 11.4269C14.0343 11.9018 13.7048 12.7542 12.7109 12.9059C11.5845 13.0778 11.065 12.2302 10.89 11.6357C10.8969 11.6269 10.9039 11.618 10.9112 11.6091C11.0875 11.3942 11.4947 11.1426 12.0725 10.8687C12.3005 10.7622 12.5269 10.6451 12.7314 10.5171Z" fill="url(#paint2_linear_1766_5969)"/>
<path fill-rule="evenodd" clip-rule="evenodd" d="M12.5587 10.6199C12.7752 10.7467 13.0054 10.9499 13.2254 11.35C13.4164 11.6971 13.6492 11.905 13.9146 12.0168C13.723 12.4118 13.3577 12.8072 12.7109 12.9059C11.5845 13.0779 11.065 12.2302 10.89 11.6358C10.8969 11.6269 10.9039 11.618 10.9112 11.6092C11.0875 11.3942 11.4947 11.1426 12.0725 10.8687C12.238 10.7915 12.4026 10.7085 12.5587 10.6199Z" fill="url(#paint3_linear_1766_5969)"/>
<path fill-rule="evenodd" clip-rule="evenodd" d="M11.1611 11.3834C11.3535 11.5315 11.3808 11.686 11.4576 12.0462C11.5417 12.4405 12.2329 13.1269 13.2023 12.7539C13.06 12.8245 12.8971 12.8775 12.7109 12.9059C11.5845 13.0779 11.065 12.2302 10.89 11.6358C10.8969 11.6269 10.9039 11.618 10.9112 11.6092C10.9697 11.5377 11.0538 11.4623 11.1611 11.3834Z" fill="url(#paint4_linear_1766_5969)"/>
<path fill-rule="evenodd" clip-rule="evenodd" d="M12.4643 10.7939C12.6523 10.6784 12.7184 10.7776 12.7508 10.8155C12.7833 10.8534 12.7102 11.0751 12.5588 11.1508C12.4074 11.2265 12.2858 11.1967 12.2425 11.1508C12.1992 11.1049 12.3101 10.8885 12.4643 10.7939Z" fill="#EDECEC"/>
<path fill-rule="evenodd" clip-rule="evenodd" d="M12.0391 10.885L12.0388 10.8846C12.0542 10.4482 12.1757 9.9863 12.3533 9.65205C12.5283 9.32286 12.9553 9.15311 13.2461 9.26669L13.2797 9.28134C13.451 9.36784 13.508 9.58967 13.4554 9.76247C13.4194 9.88054 13.3498 10.0045 13.2442 10.1148C12.962 10.4095 12.5206 10.6592 12.0724 10.8687L12.0391 10.885Z" fill="url(#paint5_linear_1766_5969)"/>
<path fill-rule="evenodd" clip-rule="evenodd" d="M5.65383 13.2265C3.79456 12.3889 2.5 10.5192 2.5 8.34946C2.5 5.39702 4.89703 3 7.84943 3C9.55621 3 11.0774 3.80108 12.0562 5.04867C12.3758 5.49925 12.5897 6.44389 11.7755 7.40434C11.3197 7.94196 10.2674 8.57117 8.77401 9.25615C7.61561 9.78009 6.4749 10.4049 5.7455 11.142C5.47272 11.4177 5.2927 11.7279 5.1997 12.0232C5.06353 12.4552 5.21097 13.01 5.65383 13.2265Z" fill="url(#paint6_linear_1766_5969)"/>
<path fill-rule="evenodd" clip-rule="evenodd" d="M5.27673 11.82C4.71268 11.4375 4.28885 10.8557 3.83019 9.75898C3.17312 8.18769 3.64692 4.15402 7.70131 3.7166C9.54678 3.51754 11.5122 5.12398 11.9941 7.11049C11.9314 7.20794 11.8588 7.30608 11.7755 7.40433C11.3197 7.94195 10.2673 8.57116 8.77401 9.25614C7.61561 9.78008 6.4749 10.4049 5.7455 11.142C5.53467 11.3551 5.37932 11.5886 5.27673 11.82Z" fill="url(#paint7_linear_1766_5969)"/>
<path fill-rule="evenodd" clip-rule="evenodd" d="M3.61877 8.90298C3.81601 8.02526 4.29537 7.17852 5.34433 6.7164C5.59998 6.60383 6.89704 6.26609 7.8814 6.46798C8.83708 6.66389 8.83239 7.31789 9.72539 7.32054C10.3714 7.32239 10.8146 7.28941 11.034 7.40897C11.1746 7.48552 11.3213 7.59401 11.4597 7.71409C10.9123 8.17836 9.98915 8.69877 8.77401 9.25617C7.61561 9.7801 6.47489 10.4049 5.7455 11.142C5.53467 11.3551 5.37932 11.5887 5.27673 11.82C4.71267 11.4376 4.28884 10.8557 3.83018 9.759C3.73132 9.52253 3.65804 9.23029 3.61877 8.90298Z" fill="url(#paint8_linear_1766_5969)"/>
<path fill-rule="evenodd" clip-rule="evenodd" d="M8.22724 6.57245C8.85292 6.83211 8.95571 7.31821 9.72538 7.32054C10.3714 7.32238 10.8146 7.28941 11.034 7.40897C11.1746 7.48552 11.3213 7.594 11.4597 7.71408C10.9123 8.17836 9.98914 8.69877 8.774 9.25616C7.6156 9.7801 6.47488 10.4049 5.74549 11.142C5.67957 11.2087 5.61907 11.2773 5.56394 11.3471C5.0849 10.6444 4.58042 9.40316 5.24755 8.27276C5.95267 7.07809 6.98145 6.59953 8.22724 6.57245Z" fill="url(#paint9_linear_1766_5969)"/>
<path fill-rule="evenodd" clip-rule="evenodd" d="M8.86031 9.21552L8.86083 9.2164C8.82091 10.3081 8.50716 11.4632 8.04802 12.2993C7.59586 13.1227 6.49222 13.5473 5.74068 13.2633L5.65386 13.2265C5.21101 13.01 5.0636 12.4552 5.19973 12.0232C5.29277 11.728 5.47276 11.4177 5.74554 11.142C6.47493 10.4049 7.61564 9.78009 8.77405 9.25616L8.86031 9.21552Z" fill="url(#paint10_linear_1766_5969)"/>
<path fill-rule="evenodd" clip-rule="evenodd" d="M8.28296 6.59674C8.85973 6.86114 8.97905 7.31831 9.72538 7.32052C10.3714 7.32236 10.8146 7.28938 11.034 7.40894C11.1746 7.48549 11.3213 7.59398 11.4596 7.71406C11.082 8.03443 10.5253 8.38147 9.81741 8.74898C9.32722 7.83137 8.78086 7.39282 8.28296 6.59674Z" fill="url(#paint11_linear_1766_5969)"/>
<path fill-rule="evenodd" clip-rule="evenodd" d="M8.9364 7.32269C9.14198 7.24791 9.42227 7.44273 9.56514 7.78568C9.70809 8.12864 9.74058 8.55103 9.308 8.67163C8.95927 8.7688 8.84493 8.20864 8.81067 7.96286C8.77636 7.71708 8.7478 7.3913 8.9364 7.32269Z" fill="url(#paint12_linear_1766_5969)"/>
</g>
<defs>
<linearGradient id="paint0_linear_1766_5969" x1="12.9282" y1="10.844" x2="13.1358" y2="11.3957" gradientUnits="userSpaceOnUse">
<stop stop-color="#ECEBEA"/>
<stop offset="1" stop-color="#D4D4D3"/>
</linearGradient>
<linearGradient id="paint1_linear_1766_5969" x1="14.1566" y1="10.6418" x2="13.1505" y2="11.3754" gradientUnits="userSpaceOnUse">
<stop stop-color="#BEC0BD"/>
<stop offset="1" stop-color="#ABADAD"/>
</linearGradient>
<linearGradient id="paint2_linear_1766_5969" x1="12.7178" y1="11.7441" x2="14.0593" y2="10.9476" gradientUnits="userSpaceOnUse">
<stop stop-color="#5C5E61"/>
<stop offset="1" stop-color="#5C5E61"/>
</linearGradient>
<linearGradient id="paint3_linear_1766_5969" x1="11.5138" y1="12.2593" x2="13.4213" y2="11.4628" gradientUnits="userSpaceOnUse">
<stop stop-color="#060808"/>
<stop offset="0.00510204" stop-color="#060808"/>
<stop offset="1" stop-color="#3C3D3F"/>
</linearGradient>
<linearGradient id="paint4_linear_1766_5969" x1="10.7351" y1="11.8525" x2="12.9069" y2="12.559" gradientUnits="userSpaceOnUse">
<stop stop-color="#595C5E"/>
<stop offset="1" stop-color="#1F2021"/>
</linearGradient>
<linearGradient id="paint5_linear_1766_5969" x1="12.259" y1="9.5891" x2="12.9618" y2="10.4216" gradientUnits="userSpaceOnUse">
<stop stop-color="#B9BBB9"/>
<stop offset="0.994898" stop-color="#7D8182"/>
<stop offset="1" stop-color="#7D8182"/>
</linearGradient>
<linearGradient id="paint6_linear_1766_5969" x1="2.49658" y1="10.1445" x2="12.0506" y2="4.66619" gradientUnits="userSpaceOnUse">
<stop stop-color="#AFB1AF"/>
<stop offset="0.994898" stop-color="#898C8D"/>
<stop offset="1" stop-color="#898C8D"/>
</linearGradient>
<linearGradient id="paint7_linear_1766_5969" x1="3.23309" y1="8.47411" x2="11.9576" y2="6.53199" gradientUnits="userSpaceOnUse">
<stop stop-color="#BEC0BD"/>
<stop offset="1" stop-color="#ABADAD"/>
</linearGradient>
<linearGradient id="paint8_linear_1766_5969" x1="3.6039" y1="9.11253" x2="7.26218" y2="9.11253" gradientUnits="userSpaceOnUse">
<stop stop-color="#818485"/>
<stop offset="1" stop-color="#28282A"/>
</linearGradient>
<linearGradient id="paint9_linear_1766_5969" x1="4.71194" y1="9.62908" x2="11.4152" y2="7.21306" gradientUnits="userSpaceOnUse">
<stop stop-color="#060808"/>
<stop offset="0.00510204" stop-color="#060808"/>
<stop offset="1" stop-color="#3C3D3F"/>
</linearGradient>
<linearGradient id="paint10_linear_1766_5969" x1="8.22949" y1="12.405" x2="6.53435" y2="10.4316" gradientUnits="userSpaceOnUse">
<stop stop-color="#B9BBB9"/>
<stop offset="0.994898" stop-color="#7D8182"/>
<stop offset="1" stop-color="#7D8182"/>
</linearGradient>
<linearGradient id="paint11_linear_1766_5969" x1="11.5263" y1="7.48525" x2="8.66896" y2="7.70174" gradientUnits="userSpaceOnUse">
<stop stop-color="#818485"/>
<stop offset="1" stop-color="#28282A"/>
</linearGradient>
<linearGradient id="paint12_linear_1766_5969" x1="8.91049" y1="7.22809" x2="9.46415" y2="8.66762" gradientUnits="userSpaceOnUse">
<stop stop-color="#ECEBEA"/>
<stop offset="1" stop-color="#D4D4D3"/>
</linearGradient>
<clipPath id="clip0_1766_5969">
<rect width="16" height="16" rx="4" fill="white"/>
</clipPath>
</defs>
</svg>
