<svg width="16" height="16" viewBox="0 0 16 16" fill="none" xmlns="http://www.w3.org/2000/svg">
<g clip-path="url(#clip0_6221_93856)">
<rect width="16" height="16" rx="4" fill="white" fill-opacity="0.08"/>
<g opacity="0.998">
<path fill-rule="evenodd" clip-rule="evenodd" d="M7.96318 2.79999C7.96318 3.46501 7.96318 4.13004 7.96318 4.79507C7.86895 4.79754 7.77484 4.80272 7.68093 4.81053C7.68093 4.14422 7.68093 3.4779 7.68093 2.81159C7.7743 2.80516 7.86837 2.80129 7.96318 2.79999Z" fill="#E8553D"/>
<path fill-rule="evenodd" clip-rule="evenodd" d="M7.96318 2.79999C8.13748 2.80116 8.31147 2.8089 8.48515 2.82319C8.48515 3.49466 8.48515 4.16613 8.48515 4.8376C8.31232 4.80984 8.13833 4.79565 7.96318 4.79507C7.96318 4.13004 7.96318 3.46501 7.96318 2.79999Z" fill="#E95A3B"/>
<path fill-rule="evenodd" clip-rule="evenodd" d="M7.64226 2.81159C7.64226 3.47919 7.64226 4.14679 7.64226 4.8144C7.57534 4.82434 7.50833 4.83466 7.44121 4.84533C7.44121 4.17386 7.44121 3.50239 7.44121 2.83092C7.50787 2.82236 7.57487 2.81591 7.64226 2.81159Z" fill="#E7523F"/>
<path fill-rule="evenodd" clip-rule="evenodd" d="M7.64226 2.81159C7.65514 2.81159 7.66805 2.81159 7.68093 2.81159C7.68093 3.4779 7.68093 4.14422 7.68093 4.81053C7.66844 4.81405 7.65556 4.81537 7.64226 4.8144C7.64226 4.14679 7.64226 3.47919 7.64226 2.81159Z" fill="#E7543E"/>
<path fill-rule="evenodd" clip-rule="evenodd" d="M8.48515 2.82319C8.53904 2.83018 8.59317 2.83662 8.64754 2.84252C8.64754 3.51786 8.64754 4.19318 8.64754 4.86853C8.59368 4.85674 8.53955 4.84641 8.48515 4.8376C8.48515 4.16613 8.48515 3.49466 8.48515 2.82319Z" fill="#EA5E39"/>
<path fill-rule="evenodd" clip-rule="evenodd" d="M7.44121 2.83092C7.44121 3.50239 7.44121 4.17386 7.44121 4.84533C7.24708 4.88322 7.05762 4.93735 6.87284 5.00772C6.86241 4.94532 6.84953 4.88345 6.83418 4.82213C6.83418 4.1919 6.83418 3.56168 6.83418 2.93145C7.03411 2.88416 7.23644 2.85065 7.44121 2.83092Z" fill="#E64D41"/>
<path fill-rule="evenodd" clip-rule="evenodd" d="M8.64754 2.84252C8.75483 2.85718 8.86181 2.87393 8.96845 2.89278C8.96845 3.58101 8.96845 4.26923 8.96845 4.95746C8.86305 4.92243 8.75611 4.89277 8.64754 4.86853C8.64754 4.19318 8.64754 3.51786 8.64754 2.84252Z" fill="#EA6137"/>
<path fill-rule="evenodd" clip-rule="evenodd" d="M8.96845 2.89278C9.17225 2.93343 9.3733 2.98498 9.57161 3.04744C9.57161 3.77562 9.57161 4.50381 9.57161 5.23197C9.38026 5.11954 9.17921 5.02806 8.96845 4.95746C8.96845 4.26923 8.96845 3.58101 8.96845 2.89278Z" fill="#EC6634"/>
<path fill-rule="evenodd" clip-rule="evenodd" d="M6.83418 2.93145C6.83418 3.56168 6.83418 4.1919 6.83418 4.82213C6.80193 4.71376 6.76196 4.60809 6.71432 4.50508C6.71432 3.98956 6.71432 3.47403 6.71432 2.95851C6.75414 2.949 6.79412 2.93998 6.83418 2.93145Z" fill="#E54944"/>
<path fill-rule="evenodd" clip-rule="evenodd" d="M6.71432 2.95851C6.71432 3.47403 6.71432 3.98956 6.71432 4.50508C6.61994 4.32274 6.50008 4.15905 6.35474 4.01405C6.35474 3.69829 6.35474 3.38253 6.35474 3.06677C6.47336 3.02649 6.59322 2.9904 6.71432 2.95851Z" fill="#E44645"/>
<path fill-rule="evenodd" clip-rule="evenodd" d="M9.57161 3.04744C9.63893 3.06988 9.70593 3.09308 9.77267 3.11704C9.77267 3.86454 9.77267 4.61207 9.77267 5.35957C9.70694 5.3151 9.63993 5.27257 9.57161 5.23197C9.57161 4.50381 9.57161 3.77562 9.57161 3.04744Z" fill="#ED6B32"/>
<path fill-rule="evenodd" clip-rule="evenodd" d="M6.35474 3.06677C6.35474 3.38253 6.35474 3.69829 6.35474 4.01405C6.20152 3.86348 6.02625 3.74491 5.82891 3.65834C5.82891 3.53203 5.82891 3.40573 5.82891 3.27943C5.99953 3.198 6.17484 3.12712 6.35474 3.06677Z" fill="#E34247"/>
<path fill-rule="evenodd" clip-rule="evenodd" d="M9.77267 3.11704C9.78585 3.12144 9.79877 3.12659 9.81133 3.1325C9.81133 3.88388 9.81133 4.63527 9.81133 5.38663C9.79695 5.37948 9.78407 5.37043 9.77267 5.35957C9.77267 4.61207 9.77267 3.86454 9.77267 3.11704Z" fill="#ED6D31"/>
<path fill-rule="evenodd" clip-rule="evenodd" d="M9.81133 3.1325C9.90676 3.16797 10.0008 3.20664 10.0936 3.24849C10.0936 4.03725 10.0936 4.826 10.0936 5.61475C10.0028 5.53421 9.90869 5.45816 9.81133 5.38663C9.81133 4.63527 9.81133 3.88388 9.81133 3.1325Z" fill="#EE6E30"/>
<path fill-rule="evenodd" clip-rule="evenodd" d="M10.0936 3.24849C10.274 3.32776 10.448 3.41798 10.6156 3.51914C10.6156 4.41743 10.6156 5.31576 10.6156 6.21405C10.4657 5.99455 10.2917 5.79477 10.0936 5.61475C10.0936 4.826 10.0936 4.03725 10.0936 3.24849Z" fill="#EF732E"/>
<path fill-rule="evenodd" clip-rule="evenodd" d="M5.82891 3.27943C5.82891 3.40573 5.82891 3.53203 5.82891 3.65834C5.78939 3.64052 5.74945 3.62376 5.70905 3.60807C5.70905 3.51786 5.70905 3.42764 5.70905 3.33742C5.74733 3.31507 5.78727 3.29574 5.82891 3.27943Z" fill="#E23D4A"/>
<path fill-rule="evenodd" clip-rule="evenodd" d="M5.70905 3.33742C5.70905 3.42764 5.70905 3.51786 5.70905 3.60807C5.59897 3.57121 5.48684 3.54221 5.37267 3.52108C5.48128 3.45387 5.5934 3.39265 5.70905 3.33742Z" fill="#E13B4B"/>
<path fill-rule="evenodd" clip-rule="evenodd" d="M10.6156 3.51914C10.671 3.55073 10.7251 3.58424 10.7779 3.61967C10.7779 4.57468 10.7779 5.52969 10.7779 6.4847C10.7258 6.39322 10.6717 6.30301 10.6156 6.21405C10.6156 5.31576 10.6156 4.41743 10.6156 3.51914Z" fill="#F0772C"/>
<path fill-rule="evenodd" clip-rule="evenodd" d="M10.7779 3.61967C10.9031 3.69902 11.0243 3.78408 11.1414 3.87486C11.1414 6.20759 11.1414 8.54036 11.1414 10.8731C11.0193 10.8191 10.8981 10.7637 10.7779 10.7068C10.7779 10.2622 10.7779 9.81756 10.7779 9.37292C11.1113 8.72448 11.2112 8.0414 11.0776 7.32371C11.0169 7.02975 10.9171 6.75009 10.7779 6.4847C10.7779 5.52969 10.7779 4.57468 10.7779 3.61967Z" fill="#F07A2A"/>
<path fill-rule="evenodd" clip-rule="evenodd" d="M11.1414 3.87486C11.341 4.02807 11.528 4.19689 11.702 4.38136C11.702 6.62903 11.702 8.87674 11.702 11.1244C11.5147 11.0417 11.3278 10.9579 11.1414 10.8731C11.1414 8.54036 11.1414 6.20759 11.1414 3.87486Z" fill="#F27F27"/>
<path fill-rule="evenodd" clip-rule="evenodd" d="M4.98603 4.2383C5.35133 4.22477 5.64711 4.36009 5.87337 4.64428C6.08313 4.94362 6.12952 5.26712 6.01256 5.61475C5.87743 5.94815 5.63578 6.16015 5.28761 6.25078C4.95691 6.31898 4.66047 6.24807 4.39833 6.03813C4.10066 5.76891 3.98789 5.43577 4.06002 5.03865C4.15431 4.66082 4.38565 4.40885 4.75404 4.28276C4.8304 4.25995 4.90773 4.24514 4.98603 4.2383Z" fill="#00E7FF"/>
<path fill-rule="evenodd" clip-rule="evenodd" d="M11.702 4.38136C11.719 4.39447 11.7332 4.40993 11.7445 4.42776C11.7445 6.66642 11.7445 8.90508 11.7445 11.1437C11.7291 11.1395 11.7149 11.133 11.702 11.1244C11.702 8.87674 11.702 6.62903 11.702 4.38136Z" fill="#F28425"/>
<path fill-rule="evenodd" clip-rule="evenodd" d="M11.7445 4.42776C11.8001 4.48339 11.8529 4.54139 11.9031 4.60175C11.9031 6.80689 11.9031 9.01207 11.9031 11.2172C11.8495 11.1937 11.7967 11.1692 11.7445 11.1437C11.7445 8.90508 11.7445 6.66642 11.7445 4.42776Z" fill="#F38425"/>
<path fill-rule="evenodd" clip-rule="evenodd" d="M11.9031 4.60175C12.0188 4.7378 12.1271 4.87959 12.2279 5.02705C12.2279 6.95254 12.2279 8.87802 12.2279 10.8035C12.1281 10.9483 12.0198 11.0862 11.9031 11.2172C11.9031 9.01207 11.9031 6.80689 11.9031 4.60175Z" fill="#F48723"/>
<path fill-rule="evenodd" clip-rule="evenodd" d="M12.2279 5.02705C12.4197 5.30099 12.5808 5.59356 12.7112 5.90473C12.7112 7.25025 12.7112 8.59577 12.7112 9.94129C12.5787 10.2463 12.4176 10.5338 12.2279 10.8035C12.2279 8.87802 12.2279 6.95254 12.2279 5.02705Z" fill="#F58C21"/>
<path fill-rule="evenodd" clip-rule="evenodd" d="M3.61731 6.30684C3.61731 7.73228 3.61731 9.15768 3.61731 10.5831C3.43854 10.2965 3.29162 9.99356 3.17654 9.6745C3.17654 8.5133 3.17654 7.35205 3.17654 6.19085C3.22903 6.03789 3.29025 5.88842 3.36019 5.74234C3.41568 5.94479 3.50139 6.13297 3.61731 6.30684Z" fill="#DB2258"/>
<path fill-rule="evenodd" clip-rule="evenodd" d="M12.7112 5.90473C12.727 5.9328 12.7399 5.96246 12.7498 5.99366C12.7498 7.27991 12.7498 8.56611 12.7498 9.85236C12.7384 9.88294 12.7255 9.9126 12.7112 9.94129C12.7112 8.59577 12.7112 7.25025 12.7112 5.90473Z" fill="#F58F1E"/>
<path fill-rule="evenodd" clip-rule="evenodd" d="M12.7498 5.99366C13.0724 6.7925 13.1904 7.62124 13.1036 8.47978C13.0527 8.95527 12.9348 9.41279 12.7498 9.85236C12.7498 8.56611 12.7498 7.27991 12.7498 5.99366Z" fill="#F6911E"/>
<path fill-rule="evenodd" clip-rule="evenodd" d="M3.17654 6.19085C3.17654 7.35205 3.17654 8.5133 3.17654 9.6745C3.1282 9.54826 3.08695 9.4194 3.05281 9.28786C3.05281 8.38571 3.05281 7.48351 3.05281 6.58136C3.08639 6.44839 3.12763 6.31825 3.17654 6.19085Z" fill="#DB1E5A"/>
<path fill-rule="evenodd" clip-rule="evenodd" d="M3.61731 6.30684C3.64531 6.3435 3.67237 6.38088 3.6985 6.41897C3.6985 7.84955 3.6985 9.28013 3.6985 10.7107C3.67004 10.6693 3.64298 10.6268 3.61731 10.5831C3.61731 9.15768 3.61731 7.73228 3.61731 6.30684Z" fill="#DB2556"/>
<path fill-rule="evenodd" clip-rule="evenodd" d="M3.6985 6.41897C3.83719 6.58608 3.99829 6.72654 4.18181 6.84041C4.18181 8.33799 4.18181 9.83562 4.18181 11.3332C4.00161 11.1402 3.84051 10.9327 3.6985 10.7107C3.6985 9.28013 3.6985 7.84955 3.6985 6.41897Z" fill="#DD2855"/>
<path fill-rule="evenodd" clip-rule="evenodd" d="M3.05281 6.58136C3.05281 7.48351 3.05281 8.38571 3.05281 9.28786C2.89907 8.73771 2.84172 8.17707 2.88075 7.60596C2.90309 7.25802 2.96044 6.91646 3.05281 6.58136Z" fill="#DA1D5B"/>
<path fill-rule="evenodd" clip-rule="evenodd" d="M4.18181 6.84041C4.30847 6.91488 4.44252 6.97287 4.58392 7.0144C4.58392 8.58804 4.58392 10.1617 4.58392 11.7353C4.44078 11.6102 4.30673 11.4762 4.18181 11.3332C4.18181 9.83562 4.18181 8.33799 4.18181 6.84041Z" fill="#DE2D52"/>
<path fill-rule="evenodd" clip-rule="evenodd" d="M4.58392 7.0144C4.62397 7.02689 4.66391 7.03849 4.70378 7.0492C4.70378 8.64476 4.70378 10.2403 4.70378 11.8358C4.66167 11.8051 4.62173 11.7716 4.58392 11.7353C4.58392 10.1617 4.58392 8.58804 4.58392 7.0144Z" fill="#DF3051"/>
<path fill-rule="evenodd" clip-rule="evenodd" d="M4.70378 7.0492C4.79599 7.06698 4.88878 7.08117 4.98216 7.09173C4.77631 7.84951 4.84459 8.58158 5.18708 9.28786C5.18708 10.2571 5.18708 11.2262 5.18708 12.1954C5.01823 12.0859 4.85716 11.966 4.70378 11.8358C4.70378 10.2403 4.70378 8.64476 4.70378 7.0492Z" fill="#DF334F"/>
<path fill-rule="evenodd" clip-rule="evenodd" d="M5.18708 9.28786C5.22605 9.3619 5.26599 9.43537 5.30694 9.50825C5.30694 10.4285 5.30694 11.3487 5.30694 12.2689C5.26603 12.246 5.22609 12.2216 5.18708 12.1954C5.18708 11.2262 5.18708 10.2571 5.18708 9.28786Z" fill="#E1374D"/>
<path fill-rule="evenodd" clip-rule="evenodd" d="M10.7779 9.37292C10.7779 9.81756 10.7779 10.2622 10.7779 10.7068C10.7226 10.6843 10.6685 10.6598 10.6156 10.6334C10.6156 10.3035 10.6156 9.9735 10.6156 9.64357C10.6736 9.55577 10.7278 9.46556 10.7779 9.37292Z" fill="#F0772C"/>
<path fill-rule="evenodd" clip-rule="evenodd" d="M5.30694 9.50825C5.42309 9.69786 5.55714 9.87444 5.70905 10.0379C5.70905 10.8564 5.70905 11.6747 5.70905 12.4931C5.56997 12.4262 5.43596 12.3515 5.30694 12.2689C5.30694 11.3487 5.30694 10.4285 5.30694 9.50825Z" fill="#E13A4B"/>
<path fill-rule="evenodd" clip-rule="evenodd" d="M10.6156 9.64357C10.6156 9.9735 10.6156 10.3035 10.6156 10.6334C10.5465 10.605 10.4782 10.5747 10.4106 10.5425C10.3006 10.5057 10.2123 10.5347 10.1458 10.6295C10.1243 10.6673 10.1147 10.7079 10.1168 10.7513C10.1425 11.3444 10.1657 11.9373 10.1864 12.5299C10.1561 12.5453 10.1252 12.5588 10.0936 12.5705C10.0936 11.7933 10.0936 11.0162 10.0936 10.239C10.2932 10.0615 10.4672 9.86295 10.6156 9.64357Z" fill="#EF732E"/>
<path fill-rule="evenodd" clip-rule="evenodd" d="M5.70905 10.0379C5.74771 10.0792 5.78765 10.1191 5.82891 10.1578C5.82891 10.9556 5.82891 11.7534 5.82891 12.5511C5.78823 12.5327 5.74829 12.5134 5.70905 12.4931C5.70905 11.6747 5.70905 10.8564 5.70905 10.0379Z" fill="#E23D4A"/>
<path fill-rule="evenodd" clip-rule="evenodd" d="M5.82891 10.1578C5.99172 10.3113 6.16703 10.4479 6.35474 10.5676C6.35474 11.2984 6.35474 12.0292 6.35474 12.7599C6.17515 12.701 5.99988 12.6314 5.82891 12.5511C5.82891 11.7534 5.82891 10.9556 5.82891 10.1578Z" fill="#E34148"/>
<path fill-rule="evenodd" clip-rule="evenodd" d="M10.0936 10.239C10.0936 11.0162 10.0936 11.7933 10.0936 12.5705C10.0014 12.6141 9.90726 12.6541 9.81133 12.6903C9.81133 11.9467 9.81133 11.203 9.81133 10.4594C9.90892 10.3906 10.003 10.3171 10.0936 10.239Z" fill="#EE6E30"/>
<path fill-rule="evenodd" clip-rule="evenodd" d="M9.81133 10.4594C9.81133 11.203 9.81133 11.9467 9.81133 12.6903C9.79815 12.6947 9.78523 12.6999 9.77267 12.7058C9.77267 11.966 9.77267 11.2262 9.77267 10.4865C9.78554 10.4774 9.79846 10.4684 9.81133 10.4594Z" fill="#ED6D31"/>
<path fill-rule="evenodd" clip-rule="evenodd" d="M9.77267 10.4865C9.77267 11.2262 9.77267 11.966 9.77267 12.7058C9.70593 12.7298 9.63889 12.753 9.57161 12.7754C9.57161 12.055 9.57161 11.3345 9.57161 10.614C9.63982 10.5735 9.70682 10.531 9.77267 10.4865Z" fill="#ED6B32"/>
<path fill-rule="evenodd" clip-rule="evenodd" d="M6.35474 10.5676C6.47155 10.6357 6.59141 10.6989 6.71432 10.7571C6.71432 11.4608 6.71432 12.1645 6.71432 12.8682C6.59276 12.8367 6.4729 12.8006 6.35474 12.7599C6.35474 12.0292 6.35474 11.2984 6.35474 10.5676Z" fill="#E44645"/>
<path fill-rule="evenodd" clip-rule="evenodd" d="M9.57161 10.614C9.57161 11.3345 9.57161 12.055 9.57161 12.7754C9.37373 12.839 9.17268 12.8906 8.96845 12.93C8.96845 12.2457 8.96845 11.5613 8.96845 10.877C9.17786 10.8083 9.37891 10.7207 9.57161 10.614Z" fill="#EC6634"/>
<path fill-rule="evenodd" clip-rule="evenodd" d="M6.71432 10.7571C6.75384 10.7749 6.79378 10.7917 6.83418 10.8074C6.83418 11.5033 6.83418 12.1993 6.83418 12.8952C6.79409 12.8868 6.75414 12.8778 6.71432 12.8682C6.71432 12.1645 6.71432 11.4608 6.71432 10.7571Z" fill="#E54944"/>
<path fill-rule="evenodd" clip-rule="evenodd" d="M6.83418 10.8074C7.03036 10.8865 7.23269 10.9445 7.44121 10.9814C7.44121 11.6528 7.44121 12.3243 7.44121 12.9958C7.23633 12.9769 7.03396 12.9434 6.83418 12.8952C6.83418 12.1993 6.83418 11.5033 6.83418 10.8074Z" fill="#E64D41"/>
<path fill-rule="evenodd" clip-rule="evenodd" d="M10.5421 10.8422C10.5932 10.8385 10.6422 10.8468 10.689 10.8673C11.4933 11.2502 12.2976 11.6329 13.1017 12.0156C12.2243 12.6099 11.3473 13.2047 10.4706 13.8C10.4191 12.9031 10.3695 12.0061 10.3217 11.109C10.3261 10.9628 10.3995 10.8739 10.5421 10.8422Z" fill="#00E7FF"/>
<path fill-rule="evenodd" clip-rule="evenodd" d="M8.96845 10.877C8.96845 11.5613 8.96845 12.2457 8.96845 12.93C8.86208 12.951 8.7551 12.9691 8.64754 12.9842C8.64754 12.3101 8.64754 11.6361 8.64754 10.962C8.75599 10.9391 8.86294 10.9108 8.96845 10.877Z" fill="#EA6137"/>
<path fill-rule="evenodd" clip-rule="evenodd" d="M8.64754 10.962C8.64754 11.6361 8.64754 12.3101 8.64754 12.9842C8.59356 12.9907 8.53943 12.9959 8.48515 12.9996C8.48515 12.3307 8.48515 11.6619 8.48515 10.993C8.53924 10.9832 8.59337 10.9729 8.64754 10.962Z" fill="#EA5E39"/>
<path fill-rule="evenodd" clip-rule="evenodd" d="M7.44121 10.9814C7.50771 10.9942 7.57472 11.0045 7.64226 11.0123C7.64226 11.6799 7.64226 12.3475 7.64226 13.0151C7.57445 13.0112 7.50744 13.0047 7.44121 12.9958C7.44121 12.3243 7.44121 11.6528 7.44121 10.9814Z" fill="#E7523F"/>
<path fill-rule="evenodd" clip-rule="evenodd" d="M8.48515 10.993C8.48515 11.6619 8.48515 12.3307 8.48515 12.9996C8.31224 13.0182 8.13825 13.0272 7.96318 13.0267C7.96318 12.3617 7.96318 11.6966 7.96318 11.0316C8.1381 11.031 8.31209 11.0181 8.48515 10.993Z" fill="#E95A3B"/>
<path fill-rule="evenodd" clip-rule="evenodd" d="M7.64226 11.0123C7.65526 11.0128 7.66813 11.014 7.68093 11.0162C7.68093 11.6838 7.68093 12.3514 7.68093 13.019C7.66844 13.0154 7.65556 13.0141 7.64226 13.0151C7.64226 12.3475 7.64226 11.6799 7.64226 11.0123Z" fill="#E7543E"/>
<path fill-rule="evenodd" clip-rule="evenodd" d="M7.68093 11.0162C7.77481 11.0246 7.86888 11.0298 7.96318 11.0316C7.96318 11.6966 7.96318 12.3617 7.96318 13.0267C7.86907 13.0247 7.775 13.0221 7.68093 13.019C7.68093 12.3514 7.68093 11.6838 7.68093 11.0162Z" fill="#E8553D"/>
</g>
</g>
<defs>
<clipPath id="clip0_6221_93856">
<rect width="16" height="16" rx="4" fill="white"/>
</clipPath>
</defs>
</svg>
