<svg width="16" height="16" viewBox="0 0 16 16" fill="none" xmlns="http://www.w3.org/2000/svg">
<g clip-path="url(#clip0_1766_6005)">
<rect width="16" height="16" rx="4" fill="white" fill-opacity="0.08"/>
<path fill-rule="evenodd" clip-rule="evenodd" d="M9.09969 4.25096C7.76076 2.91202 5.58989 2.91202 4.25096 4.25096C2.91202 5.58989 2.91202 7.76076 4.25096 9.09969C5.58989 10.4386 7.76076 10.4386 9.09969 9.09969C10.4386 7.76076 10.4386 5.58989 9.09969 4.25096ZM3.36937 3.36937C5.19519 1.54354 8.15546 1.54354 9.98128 3.36937C11.8071 5.19519 11.8071 8.15546 9.98128 9.98128C8.15546 11.8071 5.19519 11.8071 3.36937 9.98128C1.54354 8.15546 1.54354 5.19519 3.36937 3.36937Z" fill="url(#paint0_linear_1766_6005)"/>
<path fill-rule="evenodd" clip-rule="evenodd" d="M11.749 6.90031C10.4101 5.56137 8.23924 5.56137 6.90031 6.90031C5.56137 8.23924 5.56137 10.4101 6.90031 11.749C8.23924 13.088 10.4101 13.088 11.749 11.749C13.088 10.4101 13.088 8.23924 11.749 6.90031ZM6.01872 6.01872C7.84454 4.19289 10.8048 4.19289 12.6306 6.01872C14.4565 7.84454 14.4565 10.8048 12.6306 12.6306C10.8048 14.4565 7.84454 14.4565 6.01872 12.6306C4.19289 10.8048 4.19289 7.84454 6.01872 6.01872Z" fill="url(#paint1_linear_1766_6005)"/>
<path fill-rule="evenodd" clip-rule="evenodd" d="M10.0302 5.96514C8.93231 5.73392 7.74578 6.04558 6.89572 6.89563C6.04564 7.74572 5.73399 8.93223 5.96522 10.0301C7.06307 10.2613 8.24961 9.94977 9.09969 9.09969C9.94976 8.24961 10.2614 7.06301 10.0302 5.96514ZM6.01414 6.01405C7.2894 4.73878 9.11861 4.35417 10.7274 4.86048L11.0373 4.95802L11.1349 5.26796C11.6412 6.87672 11.2565 8.70599 9.98128 9.98128C8.70598 11.2566 6.87677 11.6411 5.26804 11.1348L4.95811 11.0372L4.86057 10.7273C4.35424 9.11852 4.73884 7.28934 6.01414 6.01405Z" fill="url(#paint2_linear_1766_6005)"/>
</g>
<defs>
<linearGradient id="paint0_linear_1766_6005" x1="2" y1="2" x2="16.1176" y2="5.52941" gradientUnits="userSpaceOnUse">
<stop stop-color="#E95062"/>
<stop offset="1" stop-color="#E950D0"/>
</linearGradient>
<linearGradient id="paint1_linear_1766_6005" x1="-0.181824" y1="1.99999" x2="18.6305" y2="7.5582" gradientUnits="userSpaceOnUse">
<stop stop-color="#5084E9"/>
<stop offset="1" stop-color="#6F50E9"/>
</linearGradient>
<linearGradient id="paint2_linear_1766_6005" x1="4.64477" y1="4.6447" x2="12.5341" y2="6.61703" gradientUnits="userSpaceOnUse">
<stop stop-color="#5084E9"/>
<stop offset="1" stop-color="#E95062"/>
</linearGradient>
<clipPath id="clip0_1766_6005">
<rect width="16" height="16" rx="4" fill="white"/>
</clipPath>
</defs>
</svg>
