<svg width="17" height="16" viewBox="0 0 17 16" fill="none" xmlns="http://www.w3.org/2000/svg">
<g clip-path="url(#clip0_1766_6005)">
<rect x="0.466675" width="16" height="16" rx="4" fill="white" fill-opacity="0.08"/>
<path fill-rule="evenodd" clip-rule="evenodd" d="M9.56637 4.25096C8.22743 2.91202 6.05657 2.91202 4.71763 4.25096C3.37869 5.58989 3.37869 7.76076 4.71763 9.09969C6.05656 10.4386 8.22743 10.4386 9.56637 9.09969C10.9053 7.76076 10.9053 5.58989 9.56637 4.25096ZM3.83605 3.36937C5.66187 1.54354 8.62213 1.54354 10.448 3.36937C12.2738 5.19519 12.2738 8.15546 10.448 9.98128C8.62213 11.8071 5.66186 11.8071 3.83604 9.98128C2.01022 8.15546 2.01022 5.19519 3.83605 3.36937Z" fill="url(#paint0_linear_1766_6005)"/>
<path fill-rule="evenodd" clip-rule="evenodd" d="M12.2157 6.90031C10.8768 5.56137 8.70592 5.56137 7.36698 6.90031C6.02805 8.23924 6.02804 10.4101 7.36698 11.749C8.70591 13.088 10.8768 13.088 12.2157 11.749C13.5547 10.4101 13.5547 8.23924 12.2157 6.90031ZM6.4854 6.01872C8.31122 4.19289 11.2715 4.19289 13.0973 6.01872C14.9231 7.84454 14.9231 10.8048 13.0973 12.6306C11.2715 14.4565 8.31121 14.4565 6.4854 12.6306C4.65957 10.8048 4.65957 7.84454 6.4854 6.01872Z" fill="url(#paint1_linear_1766_6005)"/>
<path fill-rule="evenodd" clip-rule="evenodd" d="M10.4969 5.96514C9.39899 5.73392 8.21245 6.04558 7.3624 6.89563C6.51231 7.74572 6.20067 8.93223 6.4319 10.0301C7.52975 10.2613 8.71629 9.94977 9.56637 9.09969C10.4164 8.24961 10.7281 7.06301 10.4969 5.96514ZM6.48081 6.01405C7.75608 4.73878 9.58529 4.35417 11.194 4.86048L11.504 4.95802L11.6015 5.26796C12.1078 6.87672 11.7232 8.70599 10.448 9.98128C9.17266 11.2566 7.34345 11.6411 5.73472 11.1348L5.42479 11.0372L5.32724 10.7273C4.82091 9.11852 5.20551 7.28934 6.48081 6.01405Z" fill="url(#paint2_linear_1766_6005)"/>
</g>
<defs>
<linearGradient id="paint0_linear_1766_6005" x1="2.46668" y1="2" x2="16.5843" y2="5.52941" gradientUnits="userSpaceOnUse">
<stop stop-color="#E95062"/>
<stop offset="1" stop-color="#E950D0"/>
</linearGradient>
<linearGradient id="paint1_linear_1766_6005" x1="0.284851" y1="1.99999" x2="19.0972" y2="7.5582" gradientUnits="userSpaceOnUse">
<stop stop-color="#5084E9"/>
<stop offset="1" stop-color="#6F50E9"/>
</linearGradient>
<linearGradient id="paint2_linear_1766_6005" x1="5.11145" y1="4.6447" x2="13.0007" y2="6.61703" gradientUnits="userSpaceOnUse">
<stop stop-color="#5084E9"/>
<stop offset="1" stop-color="#E95062"/>
</linearGradient>
<clipPath id="clip0_1766_6005">
<rect x="0.466675" width="16" height="16" rx="4" fill="white"/>
</clipPath>
</defs>
</svg>
