<svg width="16" height="16" viewBox="0 0 16 16" fill="none" xmlns="http://www.w3.org/2000/svg">
<g clip-path="url(#clip0_1768_6083)">
<rect width="16" height="16" rx="4" fill="white" fill-opacity="0.08"/>
<path d="M7.46212 5.89514V5.90262L6.7584 2.18727L6.17447 2L5.80763 2.49438L7.46212 5.89514Z" fill="white"/>
<path d="M7.84393 4.34456L8.14339 5.78276L8.4653 4.32209L8.15087 4.11236L7.84393 4.34456Z" fill="white"/>
<path d="M10.0674 4.59926L9.68557 4.63672L9.23638 6.05994L10.2246 4.94384L10.0674 4.59926Z" fill="white"/>
<path d="M13.3314 4.89889V4.29214L12.74 4.10488L9.97005 6.70413L13.3314 4.89889Z" fill="white"/>
<path d="M6.56374 6.43445L5.74024 5.1985L5.36593 5.25842L5.30604 5.63294L6.56374 6.43445Z" fill="white"/>
<path d="M11.8641 7.6929L10.3893 7.98504L11.8641 8.30713L12.0887 8.00002L11.8641 7.6929Z" fill="white"/>
<path d="M5.90495 7.99252L2.11683 7.51312L1.75 8.0075L2.11683 8.50189L5.90495 7.99252Z" fill="white"/>
<path d="M4.50498 8.81648L4.39269 9.16853L4.69962 9.39325L6.00975 8.65916L4.50498 8.81648Z" fill="white"/>
<path d="M4.93919 9.85767L4.92423 10.2322L5.28357 10.3596L6.33167 9.25842L4.93919 9.85767Z" fill="white"/>
<path d="M6.82576 9.76779L5.71029 10.7491L5.80761 11.1086L6.18942 11.1236L6.82576 9.76779Z" fill="white"/>
<path d="M8.15087 10.2022L7.85141 11.6554L8.15836 11.8727L8.4653 11.6479L8.15087 10.2022Z" fill="white"/>
<path d="M13.3389 11.0861L9.97005 9.29588L12.755 11.8802L13.3389 11.6929V11.0861Z" fill="white"/>
<path d="M9.62567 11.3633L8.86954 10.0974L9.04174 11.5506L9.40108 11.6629L9.62567 11.3633Z" fill="white"/>
<path d="M7.4696 10.0974L5.83009 13.5056L6.19692 14L6.78085 13.8127L7.4696 10.0974Z" fill="white"/>
</g>
<defs>
<clipPath id="clip0_1768_6083">
<rect width="16" height="16" rx="4" fill="white"/>
</clipPath>
</defs>
</svg>
