<svg width="17" height="16" viewBox="0 0 17 16" fill="none" xmlns="http://www.w3.org/2000/svg">
<g clip-path="url(#clip0_1768_6083)">
<rect x="0.466675" width="16" height="16" rx="4" fill="white" fill-opacity="0.08"/>
<path d="M7.92879 5.89514V5.90262L7.22508 2.18727L6.64114 2L6.2743 2.49438L7.92879 5.89514Z" fill="white"/>
<path d="M8.3106 4.34456L8.61006 5.78276L8.93198 4.32209L8.61755 4.11236L8.3106 4.34456Z" fill="white"/>
<path d="M10.534 4.59926L10.1522 4.63672L9.70306 6.05994L10.6913 4.94384L10.534 4.59926Z" fill="white"/>
<path d="M13.7981 4.89889V4.29214L13.2067 4.10488L10.4367 6.70413L13.7981 4.89889Z" fill="white"/>
<path d="M7.03042 6.43445L6.20691 5.1985L5.8326 5.25842L5.77271 5.63294L7.03042 6.43445Z" fill="white"/>
<path d="M12.3308 7.6929L10.856 7.98504L12.3308 8.30713L12.5554 8.00002L12.3308 7.6929Z" fill="white"/>
<path d="M6.37162 7.99252L2.58351 7.51312L2.21667 8.0075L2.58351 8.50189L6.37162 7.99252Z" fill="white"/>
<path d="M4.97165 8.81648L4.85937 9.16853L5.1663 9.39325L6.47643 8.65916L4.97165 8.81648Z" fill="white"/>
<path d="M5.40587 9.85767L5.3909 10.2322L5.75025 10.3596L6.79834 9.25842L5.40587 9.85767Z" fill="white"/>
<path d="M7.29244 9.76779L6.17696 10.7491L6.27429 11.1086L6.65609 11.1236L7.29244 9.76779Z" fill="white"/>
<path d="M8.61755 10.2022L8.31808 11.6554L8.62503 11.8727L8.93198 11.6479L8.61755 10.2022Z" fill="white"/>
<path d="M13.8056 11.0861L10.4367 9.29588L13.2217 11.8802L13.8056 11.6929V11.0861Z" fill="white"/>
<path d="M10.0923 11.3633L9.33622 10.0974L9.50841 11.5506L9.86776 11.6629L10.0923 11.3633Z" fill="white"/>
<path d="M7.93628 10.0974L6.29677 13.5056L6.66359 14L7.24752 13.8127L7.93628 10.0974Z" fill="white"/>
</g>
<defs>
<clipPath id="clip0_1768_6083">
<rect x="0.466675" width="16" height="16" rx="4" fill="white"/>
</clipPath>
</defs>
</svg>
