<svg width="17" height="16" viewBox="0 0 17 16" fill="none" xmlns="http://www.w3.org/2000/svg">
<g clip-path="url(#clip0_1768_6173)">
<rect x="0.466675" width="16" height="16" rx="4" fill="url(#paint0_linear_1768_6173)"/>
<path d="M13.6751 11.0089C13.6573 11.0445 13.6395 11.0801 13.6217 11.0979L13.5861 11.1513C13.4614 11.3294 13.319 11.4718 13.1409 11.5786L9.34866 13.7685C9.0816 13.9288 8.77893 14 8.49406 14C8.19139 14 7.90653 13.9288 7.63946 13.7685L4.31009 11.8635C4.27448 11.8279 4.23887 11.8101 4.20326 11.7923C4.16765 11.7389 4.14985 11.7033 4.14985 11.6499C4.18546 11.5252 4.47032 11.4718 4.48813 11.454C4.55934 11.4362 4.63056 11.4362 4.70178 11.4184H4.75519C4.87982 11.4006 5.00445 11.3828 5.11127 11.365C5.2359 11.3472 5.34273 11.3294 5.46736 11.3116C5.94807 11.2404 6.41098 11.1869 6.87388 11.1335C7.31899 11.0801 7.76409 11.0267 8.227 10.9911C8.70771 10.9377 9.15282 10.9021 9.54451 10.8843C9.97181 10.8665 10.3991 10.8309 10.8086 10.8131C11.2181 10.7953 11.6276 10.7953 12.0371 10.7774C12.0727 10.7774 12.1261 10.7774 12.1617 10.7774H12.2863C12.589 10.7774 12.9095 10.7774 13.23 10.7953C13.2656 10.7953 13.3012 10.7953 13.3546 10.7953H13.4258C13.5504 10.8131 13.6217 10.8487 13.6573 10.9021C13.6929 10.9377 13.6929 10.9733 13.6751 11.0089Z" fill="url(#paint1_linear_1768_6173)"/>
<path d="M13.9065 7.66172V8.90801C13.9065 9.37092 13.9065 9.38873 12.9451 9.49555L12.322 9.54896C12.2329 9.54896 12.1617 9.56677 12.0727 9.56677L11.8769 9.60238C10.2923 9.76261 8.68991 9.90505 7.10534 9.99407C6.39317 10.0297 5.69881 10.0653 4.98664 10.1009C4.66617 10.1187 4.32789 10.1187 4.00742 10.1365C3.84718 10.1365 3.68694 10.1365 3.5267 10.1365C3.40207 10.1365 3.20623 10.1721 3.0994 10.0831C3.01038 9.99407 3.02819 9.81602 3.02819 9.6914V6.55786C3.02819 6.11276 3.17062 6.02374 4.07863 5.97033C4.23887 5.97033 4.3813 5.97033 4.59495 5.97033C7.26558 5.97033 10.0964 6.36202 13.5148 7.21662H13.5326C13.5682 7.21662 13.5861 7.23442 13.6217 7.23442C13.7641 7.28783 13.9065 7.25223 13.9065 7.66172Z" fill="url(#paint2_linear_1768_6173)"/>
<path d="M13.6751 5.59644C13.6573 5.61424 13.6395 5.61424 13.6217 5.63205C13.5148 5.66766 13.3902 5.64985 13.2834 5.63205C13.1588 5.63205 13.0341 5.61424 12.9095 5.61424C12.678 5.59644 12.4288 5.57864 12.1973 5.54303C11.8769 5.50742 11.5564 5.47181 11.2537 5.4362C10.773 5.38279 10.2923 5.32938 9.82937 5.27596C9.27745 5.22255 8.70771 5.15134 8.15578 5.09792C7.60386 5.04451 7.05193 4.97329 6.5 4.91988C6.01929 4.86647 5.55638 4.81306 5.07567 4.77745C4.77299 4.74184 4.45252 4.70623 4.14985 4.67062C4.07863 4.67062 3.98961 4.65282 3.91839 4.65282C3.90059 4.65282 3.88279 4.65282 3.86498 4.65282C3.81157 4.63502 3.75816 4.63502 3.72255 4.59941C3.70474 4.5816 3.70474 4.54599 3.74035 4.49258L3.75816 4.47478C3.77596 4.45697 3.81157 4.43917 3.82937 4.42137C3.86498 4.40356 3.88279 4.38576 3.91839 4.36795L7.62166 2.23145C7.88872 2.08902 8.19139 2 8.49406 2C8.79673 2 9.0994 2.07122 9.34866 2.23145C9.34866 2.23145 12.9985 4.33234 13.0519 4.36795C13.3546 4.54599 13.6039 4.84866 13.6751 5.20475C13.6929 5.29377 13.7463 5.50742 13.6751 5.59644Z" fill="url(#paint3_linear_1768_6173)"/>
</g>
<defs>
<linearGradient id="paint0_linear_1768_6173" x1="3.13937" y1="13.1197" x2="12.9031" y2="3.73639" gradientUnits="userSpaceOnUse">
<stop offset="0.0156851" stop-color="#2E0E5B"/>
<stop offset="1" stop-color="#2E205B"/>
</linearGradient>
<linearGradient id="paint1_linear_1768_6173" x1="15.7668" y1="-30.9789" x2="-10.092" y2="-19.3486" gradientUnits="userSpaceOnUse">
<stop offset="0.0403439" stop-color="#6AF2A6"/>
<stop offset="0.197" stop-color="#64EFAB"/>
<stop offset="0.4077" stop-color="#53E8B9"/>
<stop offset="0.6492" stop-color="#37DCD1"/>
<stop offset="0.9118" stop-color="#10CBF1"/>
<stop offset="1" stop-color="#01C5FD"/>
</linearGradient>
<linearGradient id="paint2_linear_1768_6173" x1="13.363" y1="-13.4717" x2="-8.25459" y2="-2.4348" gradientUnits="userSpaceOnUse">
<stop offset="0.0403439" stop-color="#6AF2A6"/>
<stop offset="0.197" stop-color="#64EFAB"/>
<stop offset="0.4077" stop-color="#53E8B9"/>
<stop offset="0.6492" stop-color="#37DCD1"/>
<stop offset="0.9118" stop-color="#10CBF1"/>
<stop offset="1" stop-color="#01C5FD"/>
</linearGradient>
<linearGradient id="paint3_linear_1768_6173" x1="12.2478" y1="-0.169793" x2="3.61073" y2="12.5102" gradientUnits="userSpaceOnUse">
<stop offset="0.0403439" stop-color="#6AF2A6"/>
<stop offset="0.197" stop-color="#64EFAB"/>
<stop offset="0.4077" stop-color="#53E8B9"/>
<stop offset="0.6492" stop-color="#37DCD1"/>
<stop offset="0.9118" stop-color="#10CBF1"/>
<stop offset="1" stop-color="#01C5FD"/>
</linearGradient>
<clipPath id="clip0_1768_6173">
<rect x="0.466675" width="16" height="16" rx="4" fill="white"/>
</clipPath>
</defs>
</svg>
