<svg width="16" height="16" viewBox="0 0 16 16" fill="none" xmlns="http://www.w3.org/2000/svg">
<g clip-path="url(#clip0_1768_6173)">
<rect width="16" height="16" rx="4" fill="url(#paint0_linear_1768_6173)"/>
<path d="M13.2084 11.0089C13.1906 11.0445 13.1728 11.0801 13.155 11.0979L13.1194 11.1513C12.9947 11.3294 12.8523 11.4718 12.6743 11.5786L8.88199 13.7685C8.61493 13.9288 8.31225 14 8.02739 14C7.72472 14 7.43985 13.9288 7.17279 13.7685L3.84341 11.8635C3.8078 11.8279 3.77219 11.8101 3.73659 11.7923C3.70098 11.7389 3.68317 11.7033 3.68317 11.6499C3.71878 11.5252 4.00365 11.4718 4.02145 11.454C4.09267 11.4362 4.16389 11.4362 4.2351 11.4184H4.28851C4.41314 11.4006 4.53777 11.3828 4.6446 11.365C4.76923 11.3472 4.87605 11.3294 5.00068 11.3116C5.48139 11.2404 5.9443 11.1869 6.40721 11.1335C6.85231 11.0801 7.29742 11.0267 7.76033 10.9911C8.24104 10.9377 8.68614 10.9021 9.07783 10.8843C9.50513 10.8665 9.93243 10.8309 10.3419 10.8131C10.7514 10.7953 11.1609 10.7953 11.5704 10.7774C11.606 10.7774 11.6594 10.7774 11.695 10.7774H11.8197C12.1223 10.7774 12.4428 10.7774 12.7633 10.7953C12.7989 10.7953 12.8345 10.7953 12.8879 10.7953H12.9591C13.0838 10.8131 13.155 10.8487 13.1906 10.9021C13.2262 10.9377 13.2262 10.9733 13.2084 11.0089Z" fill="url(#paint1_linear_1768_6173)"/>
<path d="M13.4399 7.66172V8.90801C13.4399 9.37092 13.4399 9.38873 12.4784 9.49555L11.8553 9.54896C11.7663 9.54896 11.695 9.56677 11.606 9.56677L11.4102 9.60238C9.82561 9.76261 8.22323 9.90505 6.63866 9.99407C5.9265 10.0297 5.23214 10.0653 4.51997 10.1009C4.19949 10.1187 3.86122 10.1187 3.54074 10.1365C3.3805 10.1365 3.22027 10.1365 3.06003 10.1365C2.9354 10.1365 2.73955 10.1721 2.63273 10.0831C2.54371 9.99407 2.56151 9.81602 2.56151 9.6914V6.55786C2.56151 6.11276 2.70395 6.02374 3.61196 5.97033C3.77219 5.97033 3.91463 5.97033 4.12828 5.97033C6.7989 5.97033 9.62976 6.36202 13.0482 7.21662H13.066C13.1016 7.21662 13.1194 7.23442 13.155 7.23442C13.2974 7.28783 13.4399 7.25223 13.4399 7.66172Z" fill="url(#paint2_linear_1768_6173)"/>
<path d="M13.2084 5.59644C13.1906 5.61424 13.1728 5.61424 13.155 5.63205C13.0482 5.66766 12.9235 5.64985 12.8167 5.63205C12.6921 5.63205 12.5674 5.61424 12.4428 5.61424C12.2114 5.59644 11.9621 5.57864 11.7307 5.54303C11.4102 5.50742 11.0897 5.47181 10.787 5.4362C10.3063 5.38279 9.82561 5.32938 9.3627 5.27596C8.81077 5.22255 8.24104 5.15134 7.68911 5.09792C7.13718 5.04451 6.58525 4.97329 6.03332 4.91988C5.55261 4.86647 5.0897 4.81306 4.60899 4.77745C4.30632 4.74184 3.98584 4.70623 3.68317 4.67062C3.61196 4.67062 3.52294 4.65282 3.45172 4.65282C3.43392 4.65282 3.41611 4.65282 3.39831 4.65282C3.3449 4.63502 3.29148 4.63502 3.25587 4.59941C3.23807 4.5816 3.23807 4.54599 3.27368 4.49258L3.29148 4.47478C3.30929 4.45697 3.34489 4.43917 3.3627 4.42137C3.39831 4.40356 3.41611 4.38576 3.45172 4.36795L7.15498 2.23145C7.42205 2.08902 7.72472 2 8.02739 2C8.33006 2 8.63273 2.07122 8.88199 2.23145C8.88199 2.23145 12.5318 4.33234 12.5853 4.36795C12.8879 4.54599 13.1372 4.84866 13.2084 5.20475C13.2262 5.29377 13.2796 5.50742 13.2084 5.59644Z" fill="url(#paint3_linear_1768_6173)"/>
</g>
<defs>
<linearGradient id="paint0_linear_1768_6173" x1="2.6727" y1="13.1197" x2="12.4365" y2="3.73639" gradientUnits="userSpaceOnUse">
<stop offset="0.0156851" stop-color="#2E0E5B"/>
<stop offset="1" stop-color="#2E205B"/>
</linearGradient>
<linearGradient id="paint1_linear_1768_6173" x1="15.3001" y1="-30.9789" x2="-10.5587" y2="-19.3486" gradientUnits="userSpaceOnUse">
<stop offset="0.0403439" stop-color="#6AF2A6"/>
<stop offset="0.197" stop-color="#64EFAB"/>
<stop offset="0.4077" stop-color="#53E8B9"/>
<stop offset="0.6492" stop-color="#37DCD1"/>
<stop offset="0.9118" stop-color="#10CBF1"/>
<stop offset="1" stop-color="#01C5FD"/>
</linearGradient>
<linearGradient id="paint2_linear_1768_6173" x1="12.8963" y1="-13.4717" x2="-8.72126" y2="-2.4348" gradientUnits="userSpaceOnUse">
<stop offset="0.0403439" stop-color="#6AF2A6"/>
<stop offset="0.197" stop-color="#64EFAB"/>
<stop offset="0.4077" stop-color="#53E8B9"/>
<stop offset="0.6492" stop-color="#37DCD1"/>
<stop offset="0.9118" stop-color="#10CBF1"/>
<stop offset="1" stop-color="#01C5FD"/>
</linearGradient>
<linearGradient id="paint3_linear_1768_6173" x1="11.7812" y1="-0.169793" x2="3.14405" y2="12.5102" gradientUnits="userSpaceOnUse">
<stop offset="0.0403439" stop-color="#6AF2A6"/>
<stop offset="0.197" stop-color="#64EFAB"/>
<stop offset="0.4077" stop-color="#53E8B9"/>
<stop offset="0.6492" stop-color="#37DCD1"/>
<stop offset="0.9118" stop-color="#10CBF1"/>
<stop offset="1" stop-color="#01C5FD"/>
</linearGradient>
<clipPath id="clip0_1768_6173">
<rect width="16" height="16" rx="4" fill="white"/>
</clipPath>
</defs>
</svg>
