<?xml version="1.0" encoding="UTF-8" standalone="no"?>
<svg
   width="16"
   height="16"
   viewBox="0 0 16 16"
   fill="none"
   version="1.1"
   id="svg6"
   sodipodi:docname="router.svg"
   inkscape:version="1.3.2 (091e20ef0f, 2023-11-25)"
   xmlns:inkscape="http://www.inkscape.org/namespaces/inkscape"
   xmlns:sodipodi="http://sodipodi.sourceforge.net/DTD/sodipodi-0.dtd"
   xmlns="http://www.w3.org/2000/svg"
   xmlns:svg="http://www.w3.org/2000/svg">
  <sodipodi:namedview
     id="namedview6"
     pagecolor="#ffffff"
     bordercolor="#000000"
     borderopacity="0.25"
     inkscape:showpageshadow="2"
     inkscape:pageopacity="0.0"
     inkscape:pagecheckerboard="0"
     inkscape:deskcolor="#d1d1d1"
     showgrid="false"
     inkscape:zoom="50.8125"
     inkscape:cx="8.501845"
     inkscape:cy="8"
     inkscape:window-width="1920"
     inkscape:window-height="1011"
     inkscape:window-x="0"
     inkscape:window-y="32"
     inkscape:window-maximized="1"
     inkscape:current-layer="svg6" />
  <g
     clip-path="url(#clip0_2428_64339)"
     id="g3"
     transform="translate(-0.52502667,0.00351947)">
    <rect
       x="0.53320301"
       width="16"
       height="16"
       rx="4"
       fill="#ffffff"
       fill-opacity="0.08"
       id="rect1"
       y="0" />
    <path
       d="m 7.74856,9.70283 c -0.07153,0 -0.12874,0 -0.20026,-0.07133 L 6.48979,8.57615 C 6.46118,8.54764 6.44687,8.53336 6.44687,8.50485 6.43257,8.4906 6.41827,8.43355 6.43257,8.37648 6.43257,8.34797 6.44687,8.33372 6.46118,8.31944 6.47548,8.30518 6.48979,8.29093 6.50409,8.27667 6.5327,8.24814 6.547,8.2196 6.56131,8.20535 6.81879,7.96292 7.06196,7.72046 7.31943,7.49228 7.8916,6.93607 8.46377,6.37985 9.03594,5.82367 9.03594,5.79513 9.07884,5.624 9.20759,5.58121 9.2505,5.56696 9.30772,5.56696 9.33632,5.56696 c 0.07153,0 0.12875,0 0.20025,0.07129 l 1.11573,1.05536 c 0.0429,0.05704 0.0859,0.12837 0.0715,0.19967 -0.0143,0.0713 -0.0858,0.11409 -0.1144,0.12837 -0.1288,0.0713 -0.5293,0.4706 -1.28737,1.26928 C 8.86428,8.73303 8.42086,9.17515 7.96312,9.603 7.94882,9.61725 7.93451,9.66004 7.8916,9.68858 7.84869,9.70283 7.80577,9.70283 7.74856,9.70283 Z"
       fill="#af145b"
       id="path1" />
    <path
       d="M 8.07756,9.31777 C 7.41956,8.59043 7.34804,7.54933 8.00604,6.82201 L 6.56131,8.20535 c -0.329,0.32801 -0.52925,0.78441 -0.52925,1.24079 0,0.45636 0.20026,0.91276 0.52925,1.24076 l 3.16123,3.2089 c 0.07153,0.0713 0.12875,0.0713 0.20026,0.0713 0.07153,0 0.1287,0 0.2002,-0.0713 0.3291,-0.328 0.5293,-0.7844 0.5293,-1.2408 0,-0.4564 -0.2002,-0.9127 -0.5293,-1.2408 L 8.14908,9.44614 C 8.13478,9.37482 8.07756,9.37482 8.07756,9.31777 Z"
       fill="url(#paint0_linear_2428_64339)"
       id="path2"
       style="fill:url(#paint0_linear_2428_64339)" />
    <path
       d="M 10.638,4.58286 8.46377,2.4864 C 8.13478,2.22969 7.73426,2.03003 7.27652,2.03003 c -0.45773,0 -0.91546,0.19966 -1.24446,0.52768 -0.12874,0.07131 -0.12874,0.12835 -0.12874,0.19966 0,0.07131 0,0.12836 0.07152,0.19967 l 2.96097,2.82381 c 0.07153,0.0713 0.12875,0.0713 0.12875,0.12834 0.65798,0.72735 0.72951,1.76845 0.12872,2.4958 L 10.638,7.02159 c 0.329,-0.25668 0.5293,-0.72732 0.5293,-1.1837 0,-0.45638 -0.2003,-0.92701 -0.5293,-1.25503 z"
       fill="url(#paint1_linear_2428_64339)"
       id="path3"
       style="fill:url(#paint1_linear_2428_64339)" />
  </g>
  <defs
     id="defs6">
    <linearGradient
       id="paint0_linear_2428_64339"
       x1="5.84481"
       y1="7.9985299"
       x2="11.1428"
       y2="7.9985299"
       gradientUnits="userSpaceOnUse">
      <stop
         stop-color="#CB0766"
         id="stop3" />
      <stop
         offset="1"
         stop-color="#E04391"
         id="stop4" />
    </linearGradient>
    <linearGradient
       id="paint1_linear_2428_64339"
       x1="5.9033198"
       y1="5.2174902"
       x2="11.1673"
       y2="5.2174902"
       gradientUnits="userSpaceOnUse">
      <stop
         stop-color="#CB0766"
         id="stop5" />
      <stop
         offset="1"
         stop-color="#E04391"
         id="stop6" />
    </linearGradient>
    <clipPath
       id="clip0_2428_64339">
      <path
         d="m 0.533203,8 c 0,-3.77124 0,-5.65685 1.171577,-6.82843 C 2.87635,0 4.76197,0 8.5332,0 c 3.7712,0 5.6569,0 6.8284,1.17157 1.1716,1.17158 1.1716,3.05719 1.1716,6.82843 0,3.7712 0,5.6569 -1.1716,6.8284 C 14.1901,16 12.3044,16 8.5332,16 4.76197,16 2.87635,16 1.70478,14.8284 0.533203,13.6569 0.533203,11.7712 0.533203,8 Z"
         fill="#ffffff"
         id="path6" />
    </clipPath>
  </defs>
</svg>
