<svg width="17" height="16" viewBox="0 0 17 16" fill="none" xmlns="http://www.w3.org/2000/svg">
<g clip-path="url(#clip0_2428_64339)">
<rect x="0.533203" width="16" height="16" rx="4" fill="white" fill-opacity="0.08"/>
<path d="M7.74856 9.70283C7.67703 9.70283 7.61982 9.70283 7.5483 9.6315L6.48979 8.57615C6.46118 8.54764 6.44687 8.53336 6.44687 8.50485C6.43257 8.4906 6.41827 8.43355 6.43257 8.37648C6.43257 8.34797 6.44687 8.33372 6.46118 8.31944C6.47548 8.30518 6.48979 8.29093 6.50409 8.27667C6.5327 8.24814 6.547 8.2196 6.56131 8.20535C6.81879 7.96292 7.06196 7.72046 7.31943 7.49228C7.8916 6.93607 8.46377 6.37985 9.03594 5.82367C9.03594 5.79513 9.07884 5.624 9.20759 5.58121C9.2505 5.56696 9.30772 5.56696 9.33632 5.56696C9.40785 5.56696 9.46507 5.56696 9.53657 5.63825L10.6523 6.69361C10.6952 6.75065 10.7382 6.82198 10.7238 6.89328C10.7095 6.96458 10.638 7.00737 10.6094 7.02165C10.4806 7.09295 10.0801 7.49225 9.32203 8.29093C8.86428 8.73303 8.42086 9.17515 7.96312 9.603C7.94882 9.61725 7.93451 9.66004 7.8916 9.68858C7.84869 9.70283 7.80577 9.70283 7.74856 9.70283Z" fill="#AF145B"/>
<path d="M8.07756 9.31777C7.41956 8.59043 7.34804 7.54933 8.00604 6.82201L6.56131 8.20535C6.23231 8.53336 6.03206 8.98976 6.03206 9.44614C6.03206 9.9025 6.23232 10.3589 6.56131 10.6869L9.72254 13.8958C9.79407 13.9671 9.85129 13.9671 9.9228 13.9671C9.99433 13.9671 10.0515 13.9671 10.123 13.8958C10.4521 13.5678 10.6523 13.1114 10.6523 12.655C10.6523 12.1986 10.4521 11.7423 10.123 11.4142L8.14908 9.44614C8.13478 9.37482 8.07756 9.37482 8.07756 9.31777Z" fill="url(#paint0_linear_2428_64339)"/>
<path d="M10.638 4.58286L8.46377 2.4864C8.13478 2.22969 7.73426 2.03003 7.27652 2.03003C6.81879 2.03003 6.36106 2.22969 6.03206 2.55771C5.90332 2.62902 5.90332 2.68606 5.90332 2.75737C5.90332 2.82868 5.90332 2.88573 5.97484 2.95704L8.93581 5.78085C9.00734 5.85215 9.06456 5.85215 9.06456 5.90919C9.72254 6.63654 9.79407 7.67764 9.19328 8.40499L10.638 7.02159C10.967 6.76491 11.1673 6.29427 11.1673 5.83789C11.1673 5.38151 10.967 4.91088 10.638 4.58286Z" fill="url(#paint1_linear_2428_64339)"/>
</g>
<defs>
<linearGradient id="paint0_linear_2428_64339" x1="5.84481" y1="7.99853" x2="11.1428" y2="7.99853" gradientUnits="userSpaceOnUse">
<stop stop-color="#CB0766"/>
<stop offset="1" stop-color="#E04391"/>
</linearGradient>
<linearGradient id="paint1_linear_2428_64339" x1="5.90332" y1="5.21749" x2="11.1673" y2="5.21749" gradientUnits="userSpaceOnUse">
<stop stop-color="#CB0766"/>
<stop offset="1" stop-color="#E04391"/>
</linearGradient>
<clipPath id="clip0_2428_64339">
<path d="M0.533203 8C0.533203 4.22876 0.533203 2.34315 1.70478 1.17157C2.87635 0 4.76197 0 8.5332 0C12.3044 0 14.1901 0 15.3616 1.17157C16.5332 2.34315 16.5332 4.22876 16.5332 8C16.5332 11.7712 16.5332 13.6569 15.3616 14.8284C14.1901 16 12.3044 16 8.5332 16C4.76197 16 2.87635 16 1.70478 14.8284C0.533203 13.6569 0.533203 11.7712 0.533203 8Z" fill="white"/>
</clipPath>
</defs>
</svg>
