<svg width="18" height="18" viewBox="0 0 18 18" fill="none" xmlns="http://www.w3.org/2000/svg">
<g clip-path="url(#clip0_1677_1607)">
<rect x="1" y="1" width="16" height="16" rx="4" fill="#1B1B1B"/>
<path d="M9 14.8033C12.2051 14.8033 14.8033 12.2051 14.8033 9C14.8033 5.79494 12.2051 3.19672 9 3.19672C5.79494 3.19672 3.19672 5.79494 3.19672 9C3.19672 12.2051 5.79494 14.8033 9 14.8033Z" fill="#1B1B1B"/>
<path fill-rule="evenodd" clip-rule="evenodd" d="M10.7016 7.29838C10.7803 7.37707 10.9082 7.36723 10.9672 7.2787C11.0262 7.20985 11.0164 7.10166 10.9475 7.04264C10.2983 6.42297 9.718 6.10821 8.75406 6.15739C7.74095 6.20657 6.84587 6.73772 6.90488 7.85903C6.95377 8.84649 7.90642 9.212 8.7486 9.53513L8.7639 9.541C9.41308 9.7869 9.98357 10.0033 10.0131 10.4656C10.0426 10.9771 9.52128 11.282 9.06882 11.3115C8.21308 11.3607 7.71144 11.0558 7.15078 10.5148C7.08193 10.4459 6.97373 10.4459 6.90488 10.5049C6.82619 10.5738 6.82619 10.6918 6.89505 10.7705C7.52455 11.4 8.17373 11.7148 9.118 11.6656C10.0623 11.5967 11.2229 11.0656 11.1639 9.94428C11.1147 8.97051 10.1901 8.60657 9.35406 8.29182L9.35143 8.2908C8.66391 8.02562 8.02616 7.77963 7.99669 7.21969C7.97701 6.81641 8.45898 6.52133 8.80324 6.50166C9.63931 6.46231 10.1606 6.75739 10.7016 7.29838ZM10.8098 9.96395C10.8098 10.3967 10.5737 10.7705 10.2196 10.9869L10.2 10.9771C10.3278 10.8 10.3475 10.5738 10.3475 10.3574C10.3475 9.72347 9.66093 9.47634 8.93018 9.21332L8.91144 9.20657L8.89916 9.20213C8.08649 8.90842 7.23931 8.60223 7.23931 7.741C7.23931 7.34756 7.41636 6.92461 7.76062 6.72789L7.77046 6.74756C7.68193 6.93444 7.64259 7.141 7.64259 7.34756C7.64259 8.04971 8.40643 8.3361 9.18638 8.62853L9.20652 8.63608C10.0131 8.93116 10.8098 9.22625 10.8098 9.96395Z" fill="white"/>
<path fill-rule="evenodd" clip-rule="evenodd" d="M8.95079 4.18034C6.31942 4.18034 4.1803 6.31946 4.1803 8.95084C4.1803 11.5822 6.31942 13.7213 8.95079 13.7213C11.5822 13.7213 13.7213 11.5822 13.7213 8.95084C13.7213 6.31946 11.5822 4.18034 8.95079 4.18034ZM4.37702 8.95084C4.37702 6.42811 6.42806 4.37707 8.95079 4.37707C11.4735 4.37707 13.5246 6.42811 13.5246 8.95084C13.5246 11.4736 11.4735 13.5246 8.95079 13.5246C6.42806 13.5246 4.37702 11.4736 4.37702 8.95084Z" fill="white"/>
<path fill-rule="evenodd" clip-rule="evenodd" d="M3 9C3 5.68629 5.68629 3 9 3C12.3137 3 15 5.68629 15 9C15 12.3137 12.3137 15 9 15C5.68629 15 3 12.3137 3 9ZM9 3.39344C5.90358 3.39344 3.39344 5.90358 3.39344 9C3.39344 12.0964 5.90358 14.6066 9 14.6066C12.0964 14.6066 14.6066 12.0964 14.6066 9C14.6066 5.90358 12.0964 3.39344 9 3.39344Z" fill="white"/>
</g>
<rect x="0.5" y="0.5" width="17" height="17" rx="4.5" stroke="#1F1A34"/>
<defs>
<clipPath id="clip0_1677_1607">
<rect x="1" y="1" width="16" height="16" rx="4" fill="white"/>
</clipPath>
</defs>
</svg>
