<svg width="17" height="16" viewBox="0 0 17 16" fill="none" xmlns="http://www.w3.org/2000/svg">
<g clip-path="url(#clip0_748_182814)">
<rect x="0.533203" width="16" height="16" rx="4" fill="white" fill-opacity="0.08"/>
<path d="M8.6388 3C8.59311 3.12263 8.54585 3.27388 8.51521 3.43535C8.42693 3.8988 8.51054 4.23349 8.76447 4.4292C9.00335 4.61366 9.69608 4.91207 10.4293 5.22785C10.6687 5.33107 10.9138 5.43633 11.1631 5.54619C10.878 4.60702 9.46448 3.53141 8.6388 3Z" fill="white"/>
<path d="M7.18223 3.86918C6.2688 4.63769 5.78586 5.32801 5.78586 5.86607C5.78586 6.93605 7.79915 7.67288 8.57445 7.86654C8.69389 7.89618 11.2462 8.54767 11.7395 9.9646C11.9971 9.80722 12.3559 9.58086 12.7142 9.33201C13.9585 8.46745 13.999 8.16648 14 8.15371C14 7.98917 13.8432 7.62025 12.7937 7.01219C12.0241 6.56662 11.0468 6.14557 10.1848 5.7741C9.34923 5.41437 8.68921 5.12976 8.39062 4.89931C7.84173 4.4752 7.81836 3.82626 7.92378 3.29893C7.69685 3.45938 7.43876 3.65355 7.18223 3.86918Z" fill="white"/>
<path d="M8.23487 11.8838C7.996 11.6994 7.30378 11.4009 6.57054 11.0852C6.33115 10.9819 6.08604 10.8767 5.83679 10.7663C6.12188 11.7055 7.53538 12.7811 8.36106 13.3125C8.40675 13.1899 8.45401 13.0386 8.48465 12.8777C8.57293 12.4142 8.48932 12.0795 8.23539 11.8838H8.23487Z" fill="white"/>
<path d="M9.81777 12.4433C10.7312 11.6748 11.2141 10.9845 11.2141 10.4459C11.2141 9.37595 9.20137 8.63912 8.42555 8.44546C8.30611 8.41583 5.7538 7.76433 5.26047 6.3474C5.0029 6.50478 4.64407 6.73114 4.28576 6.97999C3.04154 7.84456 3.00104 8.14552 3 8.15778C3 8.32232 3.15683 8.69124 4.20631 9.2993C4.9759 9.74487 5.95321 10.1659 6.81523 10.5374C7.65077 10.8971 8.31079 11.1817 8.6099 11.4122C9.15879 11.8363 9.18216 12.4852 9.07674 13.0126C9.30367 12.8521 9.56176 12.6579 9.81829 12.4423L9.81777 12.4433Z" fill="white"/>
</g>
<defs>
<clipPath id="clip0_748_182814">
<path d="M0.533203 8C0.533203 4.22876 0.533203 2.34315 1.70478 1.17157C2.87635 0 4.76197 0 8.5332 0C12.3044 0 14.1901 0 15.3616 1.17157C16.5332 2.34315 16.5332 4.22876 16.5332 8C16.5332 11.7712 16.5332 13.6569 15.3616 14.8284C14.1901 16 12.3044 16 8.5332 16C4.76197 16 2.87635 16 1.70478 14.8284C0.533203 13.6569 0.533203 11.7712 0.533203 8Z" fill="white"/>
</clipPath>
</defs>
</svg>
