<svg width="16" height="16" xmlns="http://www.w3.org/2000/svg" fill="none">
 <defs>
  <clipPath id="clip0_748_182814">
   <path id="svg_1" fill="white" d="m0.5332,8c0,-3.77124 0,-5.65685 1.17158,-6.82843c1.17157,-1.17157 3.05719,-1.17157 6.82842,-1.17157c3.7712,0 5.6569,0 6.8284,1.17157c1.1716,1.17158 1.1716,3.05719 1.1716,6.82843c0,3.7712 0,5.6569 -1.1716,6.8284c-1.1715,1.1716 -3.0572,1.1716 -6.8284,1.1716c-3.77123,0 -5.65685,0 -6.82842,-1.1716c-1.17158,-1.1715 -1.17158,-3.0572 -1.17158,-6.8284z"/>
  </clipPath>
 </defs>
 <g>
  <title>Layer 1</title>
  <g stroke="null" id="svg_2" clip-path="url(#clip0_748_182814)">
   <rect stroke="null" y="0.125" id="svg_3" fill-opacity="0.08" fill="white" rx="4" height="15.875" width="15.875" x="0.125"/>
   <path stroke="null" id="svg_4" fill="white" d="m8.16727,3.10156c-0.04533,0.12167 -0.09222,0.27174 -0.12262,0.43195c-0.08759,0.45983 -0.00463,0.7919 0.24731,0.98609c0.23701,0.18302 0.92433,0.4791 1.65182,0.79241c0.23753,0.10241 0.48071,0.20685 0.72807,0.31585c-0.28287,-0.93183 -1.68535,-1.99904 -2.50458,-2.5263z"/>
   <path stroke="null" id="svg_5" fill="white" d="m6.72208,3.96395c-0.90629,0.76251 -1.38546,1.44743 -1.38546,1.98129c0,1.06162 1.99756,1.79269 2.7668,1.98484c0.11851,0.02941 2.65088,0.67581 3.14032,2.08167c0.25559,-0.15615 0.61158,-0.38074 0.96709,-0.62765c1.23458,-0.85781 1.27476,-1.15642 1.27575,-1.16909c0,-0.16325 -0.15558,-0.52929 -1.19688,-1.1326c-0.76359,-0.44209 -1.73325,-0.85985 -2.58852,-1.22842c-0.82904,-0.35692 -1.48391,-0.63931 -1.78016,-0.86796c-0.5446,-0.4208 -0.56779,-1.06467 -0.46319,-1.58788c-0.22516,0.1592 -0.48123,0.35185 -0.73576,0.56579z"/>
   <path stroke="null" id="svg_6" fill="white" d="m7.7665,11.91596c-0.237,-0.18296 -0.92382,-0.47913 -1.65133,-0.79236c-0.23752,-0.10249 -0.48071,-0.20687 -0.72802,-0.31641c0.28286,0.93186 1.68532,1.99906 2.50455,2.52631c0.04533,-0.12164 0.09222,-0.27176 0.12262,-0.4314c0.08759,-0.45988 0.00463,-0.79196 -0.24731,-0.98614l-0.00052,0z"/>
   <path stroke="null" id="svg_7" fill="white" d="m9.33703,12.47109c0.90629,-0.7625 1.38542,-1.4474 1.38542,-1.9818c0,-1.06159 -1.99701,-1.79266 -2.76676,-1.98481c-0.11851,-0.0294 -2.65088,-0.67581 -3.14035,-2.08167c-0.25556,0.15615 -0.61158,0.38074 -0.9671,0.62765c-1.2345,0.85782 -1.27468,1.15642 -1.27571,1.16859c0,0.16325 0.1556,0.52929 1.19689,1.1326c0.76358,0.44209 1.73325,0.85983 2.58854,1.22843c0.82901,0.35689 1.48388,0.63927 1.78065,0.86797c0.5446,0.42079 0.56779,1.06462 0.46319,1.5879c0.22516,-0.15925 0.48123,-0.35193 0.73576,-0.56584l-0.00052,0.00099z"/>
  </g>
 </g>
</svg>