<svg width="16" height="16" xmlns="http://www.w3.org/2000/svg" fill="none">
 <defs>
  <clipPath id="clip0_748_182814">
   <path id="svg_1" fill="white" d="m0.5332,8c0,-3.77124 0,-5.65685 1.17158,-6.82843c1.17157,-1.17157 3.05719,-1.17157 6.82842,-1.17157c3.7712,0 5.6569,0 6.8284,1.17157c1.1716,1.17158 1.1716,3.05719 1.1716,6.82843c0,3.7712 0,5.6569 -1.1716,6.8284c-1.1715,1.1716 -3.0572,1.1716 -6.8284,1.1716c-3.77123,0 -5.65685,0 -6.82842,-1.1716c-1.17158,-1.1715 -1.17158,-3.0572 -1.17158,-6.8284z"/>
  </clipPath>
 </defs>
 <g>
  <title>Layer 1</title>
  <g id="svg_2" clip-path="url(#clip0_748_182814)">
   <rect id="svg_3" fill-opacity="0.08" fill="white" rx="4" height="16" width="16" x="0.5332"/>
   <path id="svg_4" fill="white" d="m8.6388,3c-0.04569,0.12263 -0.09295,0.27388 -0.12359,0.43535c-0.08828,0.46345 -0.00467,0.79814 0.24926,0.99385c0.23888,0.18446 0.93161,0.48287 1.66483,0.79865c0.2394,0.10322 0.4845,0.20848 0.7338,0.31834c-0.2851,-0.93917 -1.69862,-2.01478 -2.5243,-2.54619z"/>
   <path id="svg_5" fill="white" d="m7.18223,3.86918c-0.91343,0.76851 -1.39637,1.45883 -1.39637,1.99689c0,1.06998 2.01329,1.80681 2.78859,2.00047c0.11944,0.02964 2.67175,0.68113 3.16505,2.09806c0.2576,-0.15738 0.6164,-0.38374 0.9747,-0.63259c1.2443,-0.86456 1.2848,-1.16553 1.2858,-1.1783c0,-0.16454 -0.1568,-0.53346 -1.2063,-1.14152c-0.7696,-0.44557 -1.7469,-0.86662 -2.6089,-1.23809c-0.83557,-0.35973 -1.49559,-0.64434 -1.79418,-0.87479c-0.54889,-0.42411 -0.57226,-1.07305 -0.46684,-1.60038c-0.22693,0.16045 -0.48502,0.35462 -0.74155,0.57025z"/>
   <path id="svg_6" fill="white" d="m8.23487,11.8838c-0.23887,-0.1844 -0.93109,-0.4829 -1.66433,-0.7986c-0.23939,-0.1033 -0.4845,-0.2085 -0.73375,-0.3189c0.28509,0.9392 1.69859,2.0148 2.52427,2.5462c0.04569,-0.1226 0.09295,-0.2739 0.12359,-0.4348c0.08828,-0.4635 0.00467,-0.7982 -0.24926,-0.9939l-0.00052,0z"/>
   <path id="svg_7" fill="white" d="m9.81777,12.4433c0.91343,-0.7685 1.39633,-1.4588 1.39633,-1.9974c0,-1.06995 -2.01273,-1.80678 -2.78855,-2.00044c-0.11944,-0.02963 -2.67175,-0.68113 -3.16508,-2.09806c-0.25757,0.15738 -0.6164,0.38374 -0.97471,0.63259c-1.24422,0.86457 -1.28472,1.16553 -1.28576,1.17779c0,0.16454 0.15683,0.53346 1.20631,1.14152c0.76959,0.44557 1.7469,0.8666 2.60892,1.2381c0.83554,0.3597 1.49556,0.6443 1.79467,0.8748c0.54889,0.4241 0.57226,1.073 0.46684,1.6004c0.22693,-0.1605 0.48502,-0.3547 0.74155,-0.5703l-0.00052,0.001z"/>
  </g>
 </g>
</svg>