<svg width="19" height="18" viewBox="0 0 19 18" fill="none" xmlns="http://www.w3.org/2000/svg">
<g clip-path="url(#clip0_1775_6111)">
<rect x="1.46667" y="1" width="16" height="16" rx="4" fill="white" fill-opacity="0.08"/>
<path fill-rule="evenodd" clip-rule="evenodd" d="M9.43616 15C11.2141 15 12.8113 14.2268 13.91 12.9981C13.3989 12.5538 12.6287 12.5269 12.0846 12.9659L11.9807 13.0498C10.9845 13.8537 9.53284 13.7349 8.68045 12.78C8.21554 12.2591 7.41935 12.2059 6.88931 12.6603L5.69085 13.6878C6.71732 14.509 8.01938 15 9.43616 15ZM11.3815 12.0947C12.3304 11.3289 13.6642 11.3564 14.5769 12.0958C15.1223 11.192 15.4362 10.1328 15.4362 8.9999C15.4362 7.74138 15.0487 6.57332 14.3864 5.60856C13.9595 5.51764 13.4967 5.62382 13.1455 5.93509L13.0455 6.02368C12.0874 6.87268 10.6319 6.82109 9.73631 5.90642C9.24788 5.40754 8.45008 5.39115 7.94156 5.86957L6.5469 7.18164L5.77969 6.36615L7.17436 5.05405C8.12691 4.15788 9.62138 4.18858 10.5363 5.12308C11.0144 5.61139 11.7914 5.63892 12.3029 5.1857L12.4029 5.0971C12.7133 4.822 13.0725 4.63651 13.4486 4.53898C12.3856 3.58224 10.9789 3 9.43616 3C6.39033 3 3.87459 5.26954 3.48775 8.20964C4.41289 7.76572 5.55403 7.93672 6.30836 8.70917C6.78455 9.19682 7.55132 9.24828 8.08844 8.82851L8.86823 8.21934C9.84821 7.45375 11.2336 7.4908 12.1712 8.3078L13.6894 9.63045L12.9539 10.4745L11.4357 9.1519C10.9025 8.6874 10.1148 8.66642 9.55754 9.10163L8.77776 9.711C7.79093 10.4819 6.38218 10.3873 5.50727 9.49132C4.99851 8.97041 4.16643 8.95221 3.63541 9.45055L3.46667 9.60888C3.59296 10.8621 4.10486 12.0012 4.88194 12.9065L6.16053 11.8103C7.15346 10.959 8.64492 11.0586 9.5158 12.0343C9.97084 12.5443 10.7457 12.6076 11.2776 12.1784L11.3815 12.0947Z" fill="#BA364E"/>
</g>
<rect x="0.966675" y="0.5" width="17" height="17" rx="4.5" stroke="#1F1A34"/>
<defs>
<clipPath id="clip0_1775_6111">
<rect x="1.46667" y="1" width="16" height="16" rx="4" fill="white"/>
</clipPath>
</defs>
</svg>
