<svg width="17" height="16" viewBox="0 0 17 16" fill="none" xmlns="http://www.w3.org/2000/svg">
<g clip-path="url(#clip0_1775_6111)">
<rect x="0.533203" width="16" height="16" rx="4" fill="white" fill-opacity="0.08"/>
<path fill-rule="evenodd" clip-rule="evenodd" d="M8.50269 14C10.2806 14 11.8779 13.2268 12.9766 11.9981C12.4655 11.5538 11.6953 11.5269 11.1512 11.9659L11.0472 12.0498C10.051 12.8537 8.59937 12.7349 7.74698 11.78C7.28206 11.2591 6.48588 11.2059 5.95583 11.6603L4.75738 12.6878C5.78385 13.509 7.08591 14 8.50269 14ZM10.448 11.0947C11.397 10.3289 12.7307 10.3564 13.6434 11.0958C14.1888 10.192 14.5027 9.13275 14.5027 7.9999C14.5027 6.74138 14.1152 5.57332 13.4529 4.60856C13.026 4.51764 12.5633 4.62382 12.212 4.93509L12.112 5.02368C11.154 5.87268 9.69839 5.82109 8.80284 4.90642C8.31441 4.40754 7.51661 4.39115 7.00809 4.86957L5.61343 6.18164L4.84622 5.36615L6.24089 4.05405C7.19344 3.15788 8.68791 3.18858 9.60288 4.12308C10.081 4.61139 10.858 4.63892 11.3694 4.1857L11.4694 4.0971C11.7799 3.822 12.1391 3.63651 12.5151 3.53898C11.4521 2.58224 10.0454 2 8.50269 2C5.45686 2 2.94112 4.26954 2.55428 7.20964C3.47942 6.76572 4.62056 6.93672 5.37488 7.70917C5.85108 8.19682 6.61785 8.24828 7.15496 7.82851L7.93476 7.21934C8.91474 6.45375 10.3001 6.4908 11.2378 7.3078L12.7559 8.63045L12.0204 9.47454L10.5023 8.1519C9.96908 7.6874 9.18132 7.66642 8.62406 8.10163L7.84429 8.711C6.85746 9.48187 5.4487 9.38727 4.5738 8.49132C4.06504 7.97041 3.23296 7.95221 2.70194 8.45055L2.5332 8.60888C2.65949 9.86206 3.17139 11.0012 3.94847 11.9065L5.22706 10.8103C6.21999 9.95903 7.71145 10.0586 8.58232 11.0343C9.03736 11.5443 9.81227 11.6076 10.3441 11.1784L10.448 11.0947Z" fill="url(#paint0_linear_1775_6111)"/>
</g>
<defs>
<linearGradient id="paint0_linear_1775_6111" x1="8.51796" y1="2" x2="8.51796" y2="14" gradientUnits="userSpaceOnUse">
<stop stop-color="#90305D"/>
<stop offset="1" stop-color="#E33C3F"/>
</linearGradient>
<clipPath id="clip0_1775_6111">
<path d="M0.533203 8C0.533203 4.22876 0.533203 2.34315 1.70478 1.17157C2.87635 0 4.76197 0 8.5332 0C12.3044 0 14.1901 0 15.3616 1.17157C16.5332 2.34315 16.5332 4.22876 16.5332 8C16.5332 11.7712 16.5332 13.6569 15.3616 14.8284C14.1901 16 12.3044 16 8.5332 16C4.76197 16 2.87635 16 1.70478 14.8284C0.533203 13.6569 0.533203 11.7712 0.533203 8Z" fill="white"/>
</clipPath>
</defs>
</svg>
