<svg width="16" height="16" viewBox="0 0 16 16" fill="none" xmlns="http://www.w3.org/2000/svg">
<g clip-path="url(#clip0_1768_6206)">
<rect width="16" height="16" rx="4" fill="#142D52"/>
<path d="M8.023 14.4992C8.00892 14.5003 7.99478 14.5003 7.9807 14.4992C7.07439 14.4209 6.13478 14.0657 5.26477 13.4714C4.41246 12.8894 3.68885 12.1235 3.17195 11.2562C2.41414 9.98748 2.42524 8.37466 2.43124 7.41105L2.43214 7.17105V2.7469C2.43214 2.6104 2.54344 2.5 2.67994 2.5H13.3253C13.4618 2.5 13.5722 2.6104 13.5722 2.7469L13.5713 7.17135L13.5722 7.41135C13.5791 8.37496 13.5902 9.98778 12.8324 11.2565C12.3145 12.1238 11.5906 12.8894 10.7386 13.4717C9.86832 14.066 8.92901 14.4221 8.0227 14.4995L8.023 14.4992ZM3.17405 2.99381C3.03754 2.99381 2.92714 3.10421 2.92714 3.24071V7.17135L2.92624 7.41525C2.92234 7.90006 2.91814 8.50427 3.00244 9.14567C3.10085 9.89238 3.29465 10.5008 3.59555 11.0045C4.57206 12.6425 6.32768 13.8431 7.9777 14.0045C7.9939 14.0066 8.0098 14.0066 8.026 14.0045C9.67422 13.844 11.4304 12.6434 12.4081 11.0045C12.7081 10.5017 12.9029 9.89328 13.0013 9.14567C13.0856 8.50427 13.0817 7.90006 13.0787 7.41525L13.0778 7.17135L13.0787 3.24071C13.0787 3.10421 12.9683 2.99381 12.8318 2.99381H3.17405Z" fill="#00B6FA"/>
<path d="M12.16 7.97116C12.2323 8.02546 12.3355 7.97416 12.3355 7.88386L12.3334 7.38705L12.3343 3.84491C12.3343 3.78371 12.2851 3.73451 12.2239 3.73451H3.78005C3.71885 3.73451 3.66965 3.78371 3.66965 3.84491V6.02384C3.66962 6.11721 3.69138 6.20931 3.7332 6.2928C3.77502 6.37628 3.83575 6.44886 3.91055 6.50474L10.2622 11.2544C10.3174 11.2955 10.3213 11.3759 10.2712 11.423C10.1536 11.5337 10.0303 11.6382 9.90192 11.7362C9.86262 11.7662 9.80862 11.7662 9.76932 11.7371L3.84545 7.29765C3.77315 7.24335 3.66995 7.29465 3.66995 7.38585C3.66995 8.14666 3.60275 9.56688 4.24206 10.655C4.95667 11.8706 6.18308 12.83 7.44489 13.1402C7.62759 13.1843 7.8094 13.2164 7.9918 13.2326C7.9987 13.2335 8.0059 13.2335 8.0128 13.2326C8.83871 13.1582 9.67902 12.7808 10.4005 12.2108C10.5811 12.0674 10.7548 11.9126 10.9195 11.747C11.2449 11.4198 11.5281 11.0533 11.7625 10.6559C11.9743 10.2965 12.1078 9.90108 12.193 9.50568C12.2119 9.41985 12.2283 9.33352 12.2422 9.24677C12.2794 9.01997 12.1879 8.79107 12.0043 8.65367L6.62768 4.63182C6.54338 4.56852 6.58748 4.43412 6.69398 4.43412H7.40559C7.42959 4.43412 7.45269 4.44222 7.47189 4.45632L12.1603 7.97146L12.16 7.97116Z" fill="#00B6FA"/>
</g>
<defs>
<clipPath id="clip0_1768_6206">
<rect width="16" height="16" rx="4" fill="white"/>
</clipPath>
</defs>
</svg>
