<svg width="17" height="16" viewBox="0 0 17 16" fill="none" xmlns="http://www.w3.org/2000/svg">
<g clip-path="url(#clip0_1768_6206)">
<rect x="0.466675" width="16" height="16" rx="4" fill="#142D52"/>
<path d="M8.48967 14.4992C8.47559 14.5003 8.46146 14.5003 8.44737 14.4992C7.54106 14.4209 6.60145 14.0657 5.73144 13.4714C4.87913 12.8894 4.15553 12.1235 3.63862 11.2562C2.88081 9.98748 2.89191 8.37466 2.89791 7.41105L2.89881 7.17105V2.7469C2.89881 2.6104 3.01011 2.5 3.14662 2.5H13.7919C13.9284 2.5 14.0388 2.6104 14.0388 2.7469L14.0379 7.17135L14.0388 7.41135C14.0457 8.37496 14.0568 9.98778 13.299 11.2565C12.7812 12.1238 12.0573 12.8894 11.2053 13.4717C10.335 14.066 9.39568 14.4221 8.48937 14.4995L8.48967 14.4992ZM3.64072 2.99381C3.50422 2.99381 3.39382 3.10421 3.39382 3.24071V7.17135L3.39292 7.41525C3.38902 7.90006 3.38482 8.50427 3.46912 9.14567C3.56752 9.89238 3.76132 10.5008 4.06223 11.0045C5.03874 12.6425 6.79436 13.8431 8.44437 14.0045C8.46057 14.0066 8.47647 14.0066 8.49267 14.0045C10.1409 13.844 11.8971 12.6434 12.8748 11.0045C13.1748 10.5017 13.3695 9.89328 13.4679 9.14567C13.5522 8.50427 13.5483 7.90006 13.5453 7.41525L13.5444 7.17135L13.5453 3.24071C13.5453 3.10421 13.4349 2.99381 13.2984 2.99381H3.64072Z" fill="#00B6FA"/>
<path d="M12.6267 7.97116C12.699 8.02546 12.8022 7.97416 12.8022 7.88386L12.8001 7.38705L12.801 3.84491C12.801 3.78371 12.7518 3.73451 12.6906 3.73451H4.24673C4.18553 3.73451 4.13633 3.78371 4.13633 3.84491V6.02384C4.13629 6.11721 4.15805 6.20931 4.19987 6.2928C4.24169 6.37628 4.30242 6.44886 4.37723 6.50474L10.7289 11.2544C10.7841 11.2955 10.788 11.3759 10.7379 11.423C10.6203 11.5337 10.497 11.6382 10.3686 11.7362C10.3293 11.7662 10.2753 11.7662 10.236 11.7371L4.31213 7.29765C4.23983 7.24335 4.13663 7.29465 4.13663 7.38585C4.13663 8.14666 4.06943 9.56688 4.70873 10.655C5.42334 11.8706 6.64975 12.83 7.91157 13.1402C8.09427 13.1843 8.27607 13.2164 8.45847 13.2326C8.46537 13.2335 8.47257 13.2335 8.47947 13.2326C9.30538 13.1582 10.1457 12.7808 10.8672 12.2108C11.0478 12.0674 11.2215 11.9126 11.3862 11.747C11.7115 11.4198 11.9947 11.0533 12.2292 10.6559C12.441 10.2965 12.5745 9.90108 12.6597 9.50568C12.6785 9.41985 12.695 9.33352 12.7089 9.24677C12.7461 9.01997 12.6546 8.79107 12.471 8.65367L7.09436 4.63182C7.01006 4.56852 7.05416 4.43412 7.16066 4.43412H7.87227C7.89627 4.43412 7.91937 4.44222 7.93857 4.45632L12.627 7.97146L12.6267 7.97116Z" fill="#00B6FA"/>
</g>
<defs>
<clipPath id="clip0_1768_6206">
<rect x="0.466675" width="16" height="16" rx="4" fill="white"/>
</clipPath>
</defs>
</svg>
