<svg width="17" height="16" viewBox="0 0 17 16" fill="none" xmlns="http://www.w3.org/2000/svg">
<g clip-path="url(#clip0_1513_186861)">
<rect x="0.533203" width="16" height="16" rx="4" fill="white" fill-opacity="0.08"/>
<path d="M8.53203 6.30558L4.46973 8.12054M8.53203 6.30558L12.5937 8.12054M8.53203 6.30558L8.53198 1.5M4.46973 8.12054L8.53203 10.4789M4.46973 8.12054L8.53203 6.30667M4.46973 8.12054L8.53198 1.5M8.53203 10.4789V6.30667M8.53203 10.4789L12.5937 8.12054M8.53203 6.30667L12.5937 8.12054M12.5937 8.12054L8.53198 1.5M8.53202 14.5V11.2347L12.5964 8.87688L8.53202 14.5ZM8.53202 14.5L8.53198 11.2342L4.46973 8.87688L8.53202 14.5Z" stroke="#3441C0" stroke-width="0.2" stroke-linejoin="round"/>
</g>
<defs>
<clipPath id="clip0_1513_186861">
<path d="M0.533203 8C0.533203 4.22876 0.533203 2.34315 1.70478 1.17157C2.87635 0 4.76197 0 8.5332 0C12.3044 0 14.1901 0 15.3616 1.17157C16.5332 2.34315 16.5332 4.22876 16.5332 8C16.5332 11.7712 16.5332 13.6569 15.3616 14.8284C14.1901 16 12.3044 16 8.5332 16C4.76197 16 2.87635 16 1.70478 14.8284C0.533203 13.6569 0.533203 11.7712 0.533203 8Z" fill="white"/>
</clipPath>
</defs>
</svg>
