<svg width="17" height="16" viewBox="0 0 17 16" fill="none" xmlns="http://www.w3.org/2000/svg">
<g clip-path="url(#clip0_1513_186861)">
<rect x="0.533203" width="16" height="16" rx="4" fill="white" fill-opacity="0.08"/>
<path d="M4.46973 8.12054L8.53203 10.4789V6.30667L4.46973 8.12054Z" fill="#87A9F0"/>
<path d="M8.53203 10.4789L12.5937 8.12054L8.53203 6.30667V10.4789Z" fill="#C9B2F5"/>
<path d="M8.53198 1.5L8.53203 6.30558L12.5937 8.12054L8.53198 1.5Z" fill="#B7FAF5"/>
<path d="M8.53198 1.5L4.46973 8.12054L8.53203 6.30558L8.53198 1.5Z" fill="#EECBC0"/>
<path d="M8.53202 11.2347V14.5L12.5964 8.87688L8.53202 11.2347Z" fill="#C9B2F5"/>
<path d="M8.53202 14.5V11.2347L4.46973 8.87688L8.53202 14.5Z" fill="#EECBC0"/>
<path fill-rule="evenodd" clip-rule="evenodd" d="M8.53188 1.40002C8.56665 1.40003 8.59893 1.41809 8.61712 1.44773L12.6788 8.06827C12.6929 8.09123 12.6971 8.11891 12.6906 8.14503C12.684 8.17116 12.6671 8.19351 12.6438 8.20704L8.58214 10.5654C8.5511 10.5834 8.51277 10.5834 8.48172 10.5654L4.41942 8.20705C4.39612 8.19352 4.37926 8.17116 4.37267 8.14504C4.36608 8.11891 4.3703 8.09123 4.3844 8.06827L8.44664 1.44773C8.46483 1.41809 8.49711 1.40002 8.53188 1.40002ZM4.68884 8.1322L8.43193 6.46086V10.3052L4.68884 8.1322ZM8.63193 10.3052L12.3744 8.1322L8.63193 6.46087V10.3052ZM12.3394 7.89744L8.63188 1.85426L8.63193 6.24076L12.3394 7.89744ZM8.43193 6.24076L8.43188 1.85421L4.72385 7.89746L8.43193 6.24076ZM4.39548 8.80981C4.42715 8.7748 4.47899 8.76672 4.51982 8.79041L8.53237 11.1189L12.5462 8.7904C12.587 8.76672 12.6388 8.77481 12.6705 8.80982C12.7022 8.84483 12.705 8.89722 12.6774 8.93548L8.61297 14.5586C8.59416 14.5846 8.56401 14.6 8.53191 14.6C8.49981 14.6 8.46966 14.5846 8.45086 14.5586L4.38857 8.93546C4.36093 8.89719 4.36381 8.84481 4.39548 8.80981ZM8.43188 11.2918L4.82586 9.19923L8.43192 14.1908L8.43188 11.2918ZM8.63192 14.191V11.2923L12.24 9.19925L8.63192 14.191Z" fill="#3441C0"/>
</g>
<defs>
<clipPath id="clip0_1513_186861">
<path d="M0.533203 8C0.533203 4.22876 0.533203 2.34315 1.70478 1.17157C2.87635 0 4.76197 0 8.5332 0C12.3044 0 14.1901 0 15.3616 1.17157C16.5332 2.34315 16.5332 4.22876 16.5332 8C16.5332 11.7712 16.5332 13.6569 15.3616 14.8284C14.1901 16 12.3044 16 8.5332 16C4.76197 16 2.87635 16 1.70478 14.8284C0.533203 13.6569 0.533203 11.7712 0.533203 8Z" fill="white"/>
</clipPath>
</defs>
</svg>
