<?xml version="1.0" encoding="UTF-8" standalone="no"?>
<svg
   width="16"
   height="16"
   viewBox="0 0 16 16"
   fill="none"
   version="1.1"
   id="svg8"
   sodipodi:docname="sepolia.svg"
   inkscape:version="1.3.2 (091e20ef0f, 2023-11-25)"
   xmlns:inkscape="http://www.inkscape.org/namespaces/inkscape"
   xmlns:sodipodi="http://sodipodi.sourceforge.net/DTD/sodipodi-0.dtd"
   xmlns="http://www.w3.org/2000/svg"
   xmlns:svg="http://www.w3.org/2000/svg">
  <sodipodi:namedview
     id="namedview8"
     pagecolor="#ffffff"
     bordercolor="#000000"
     borderopacity="0.25"
     inkscape:showpageshadow="2"
     inkscape:pageopacity="0.0"
     inkscape:pagecheckerboard="0"
     inkscape:deskcolor="#d1d1d1"
     showgrid="false"
     inkscape:zoom="50.8125"
     inkscape:cx="8.501845"
     inkscape:cy="11.148831"
     inkscape:window-width="1920"
     inkscape:window-height="1011"
     inkscape:window-x="0"
     inkscape:window-y="32"
     inkscape:window-maximized="1"
     inkscape:current-layer="svg8" />
  <g
     clip-path="url(#clip0_1513_186861)"
     id="g7"
     transform="translate(-0.51649341,0.01015)">
    <rect
       x="0.53320301"
       width="16"
       height="16"
       rx="4"
       fill="#ffffff"
       fill-opacity="0.08"
       id="rect1"
       y="0" />
    <path
       d="m 4.46973,8.12054 4.0623,2.35836 V 6.30667 Z"
       fill="#87a9f0"
       id="path1" />
    <path
       d="M 8.53203,10.4789 12.5937,8.12054 8.53203,6.30667 Z"
       fill="#c9b2f5"
       id="path2" />
    <path
       d="m 8.53198,1.5 5e-5,4.80558 4.06167,1.81496 z"
       fill="#b7faf5"
       id="path3" />
    <path
       d="M 8.53198,1.5 4.46973,8.12054 8.53203,6.30558 Z"
       fill="#eecbc0"
       id="path4" />
    <path
       d="M 8.53202,11.2347 V 14.5 L 12.5964,8.87688 Z"
       fill="#c9b2f5"
       id="path5" />
    <path
       d="M 8.53202,14.5 V 11.2347 L 4.46973,8.87688 Z"
       fill="#eecbc0"
       id="path6" />
    <path
       fill-rule="evenodd"
       clip-rule="evenodd"
       d="m 8.53188,1.40002 c 0.03477,1e-5 0.06705,0.01807 0.08524,0.04771 l 4.06168,6.62054 c 0.0141,0.02296 0.0183,0.05064 0.0118,0.07676 -0.0066,0.02613 -0.0235,0.04848 -0.0468,0.06201 L 8.58214,10.5654 c -0.03104,0.018 -0.06937,0.018 -0.10042,0 L 4.41942,8.20705 C 4.39612,8.19352 4.37926,8.17116 4.37267,8.14504 4.36608,8.11891 4.3703,8.09123 4.3844,8.06827 L 8.44664,1.44773 C 8.46483,1.41809 8.49711,1.40002 8.53188,1.40002 Z M 4.68884,8.1322 8.43193,6.46086 V 10.3052 Z M 8.63193,10.3052 12.3744,8.1322 8.63193,6.46087 Z M 12.3394,7.89744 8.63188,1.85426 l 5e-5,4.3865 z M 8.43193,6.24076 8.43188,1.85421 4.72385,7.89746 Z M 4.39548,8.80981 C 4.42715,8.7748 4.47899,8.76672 4.51982,8.79041 L 8.53237,11.1189 12.5462,8.7904 c 0.0408,-0.02368 0.0926,-0.01559 0.1243,0.01942 0.0317,0.03501 0.0345,0.0874 0.0069,0.12566 L 8.61297,14.5586 C 8.59416,14.5846 8.56401,14.6 8.53191,14.6 8.49981,14.6 8.46966,14.5846 8.45086,14.5586 L 4.38857,8.93546 C 4.36093,8.89719 4.36381,8.84481 4.39548,8.80981 Z M 8.43188,11.2918 4.82586,9.19923 8.43192,14.1908 Z M 8.63192,14.191 V 11.2923 L 12.24,9.19925 Z"
       fill="#3441c0"
       id="path7" />
  </g>
  <defs
     id="defs8">
    <clipPath
       id="clip0_1513_186861">
      <path
         d="m 0.533203,8 c 0,-3.77124 0,-5.65685 1.171577,-6.82843 C 2.87635,0 4.76197,0 8.5332,0 c 3.7712,0 5.6569,0 6.8284,1.17157 1.1716,1.17158 1.1716,3.05719 1.1716,6.82843 0,3.7712 0,5.6569 -1.1716,6.8284 C 14.1901,16 12.3044,16 8.5332,16 4.76197,16 2.87635,16 1.70478,14.8284 0.533203,13.6569 0.533203,11.7712 0.533203,8 Z"
         fill="#ffffff"
         id="path8" />
    </clipPath>
  </defs>
</svg>
