<svg width="16" height="16" viewBox="0 0 16 16" fill="none" xmlns="http://www.w3.org/2000/svg">
<g clip-path="url(#clip0_1768_6240)">
<rect width="16" height="16" rx="4" fill="white" fill-opacity="0.08"/>
<path fill-rule="evenodd" clip-rule="evenodd" d="M7.7978 1.76933C7.70395 1.79903 7.72138 1.78831 5.44057 3.21793C2.87983 4.82303 3.02536 4.71665 2.96052 5.03067C2.94185 5.12101 3.3967 12.9339 3.43497 13.1805C3.47308 13.4261 3.65649 13.6385 3.90104 13.7202L3.99019 13.75L8.02264 13.7463L12.0551 13.7427L12.1383 13.7091C12.3277 13.6327 12.4884 13.4596 12.5484 13.2675C12.5914 13.1297 13.0766 5.19915 13.0511 5.05042C13.0291 4.92209 12.9512 4.77223 12.8595 4.68208C12.7451 4.56961 8.33951 1.81832 8.20948 1.77816C8.10117 1.74472 7.88995 1.74017 7.7978 1.76933ZM9.99071 4.07707C11.9459 5.29682 11.9805 5.32004 12.0012 5.42496C12.0137 5.48807 11.5879 12.5069 11.5686 12.5569C11.5462 12.615 11.5011 12.6655 11.4473 12.6929C11.3926 12.7209 11.3507 12.7212 7.99332 12.7212H4.59474L4.54652 12.6887C4.47208 12.6386 4.43667 12.5749 4.4271 12.4743C4.42247 12.4254 4.32164 10.8201 4.20303 8.90678L3.98737 5.42805L4.01954 5.36726C4.04511 5.31892 4.08126 5.28768 4.19609 5.21466C4.27551 5.16417 5.14734 4.6174 6.13341 3.99961L7.92636 2.87637L8.00493 2.88177C8.08108 2.88706 8.14283 2.92424 9.99071 4.07707ZM6.62684 5.12602L5.25584 5.98631L5.25954 6.05721C5.26159 6.09621 5.30151 6.73652 5.34834 7.48013C5.39513 8.22373 5.43339 8.84892 5.43339 8.86945V8.90678H7.31918H9.20497L9.20478 8.95319C9.2047 8.97872 9.1887 9.24071 9.16926 9.53537C9.14982 9.83003 9.13385 10.0888 9.13373 10.1104L9.13354 10.1497H8.00698H6.88042L6.87181 10.039C6.86711 9.97807 6.85608 9.78679 6.84736 9.61394C6.8386 9.4411 6.82857 9.28518 6.82506 9.26752L6.81862 9.23535H6.14032H5.46197L5.4619 9.3032C5.46178 9.38362 5.57222 11.3024 5.5844 11.4319L5.59281 11.5211H8.00605C9.33335 11.5211 10.4193 11.5163 10.4194 11.5105C10.4194 11.5046 10.474 10.62 10.5408 9.54482C10.6076 8.4696 10.6622 7.5776 10.6622 7.56259C10.6622 7.53586 10.6219 7.53528 8.69068 7.53528C7.12289 7.53528 6.71922 7.53162 6.71937 7.51743C6.71949 7.50763 6.70884 7.32722 6.69569 7.11661C6.67517 6.78743 6.67463 6.73096 6.69191 6.71465C6.7105 6.69709 7.91328 5.94041 7.97581 5.90697C7.99938 5.89432 8.10422 5.9548 8.66503 6.30438L9.3264 6.71669L9.32119 6.969L9.31595 7.22126L9.99977 7.21756L10.6836 7.21386L10.7146 6.68525C10.7317 6.39453 10.7462 6.11769 10.7468 6.07001L10.7479 5.98338L9.40143 5.14241C8.66086 4.67989 8.04208 4.29339 8.02638 4.28359C8.00069 4.2675 7.85832 4.35321 6.62684 5.12602Z" fill="#E4AC4C"/>
</g>
<defs>
<clipPath id="clip0_1768_6240">
<rect width="16" height="16" rx="4" fill="white"/>
</clipPath>
</defs>
</svg>
