<svg width="17" height="16" viewBox="0 0 17 16" fill="none" xmlns="http://www.w3.org/2000/svg">
<g clip-path="url(#clip0_1768_6240)">
<rect x="0.466675" width="16" height="16" rx="4" fill="white" fill-opacity="0.08"/>
<path fill-rule="evenodd" clip-rule="evenodd" d="M8.26447 1.76933C8.17062 1.79903 8.18806 1.78831 5.90724 3.21793C3.3465 4.82303 3.49204 4.71665 3.42719 5.03067C3.40853 5.12101 3.86338 12.9339 3.90164 13.1805C3.93975 13.4261 4.12317 13.6385 4.36772 13.7202L4.45686 13.75L8.48931 13.7463L12.5218 13.7427L12.605 13.7091C12.7944 13.6327 12.9551 13.4596 13.0151 13.2675C13.0581 13.1297 13.5433 5.19915 13.5178 5.05042C13.4958 4.92209 13.4179 4.77223 13.3262 4.68208C13.2118 4.56961 8.80619 1.81832 8.67616 1.77816C8.56785 1.74472 8.35662 1.74017 8.26447 1.76933ZM10.4574 4.07707C12.4125 5.29682 12.4471 5.32004 12.4679 5.42496C12.4804 5.48807 12.0546 12.5069 12.0353 12.5569C12.0128 12.615 11.9678 12.6655 11.914 12.6929C11.8593 12.7209 11.8174 12.7212 8.46 12.7212H5.06141L5.0132 12.6887C4.93875 12.6386 4.90334 12.5749 4.89378 12.4743C4.88915 12.4254 4.78832 10.8201 4.66971 8.90678L4.45404 5.42805L4.48621 5.36726C4.51179 5.31892 4.54793 5.28768 4.66276 5.21466C4.74218 5.16417 5.61401 4.6174 6.60009 3.99961L8.39303 2.87637L8.47161 2.88177C8.54775 2.88706 8.60951 2.92424 10.4574 4.07707ZM7.09351 5.12602L5.72251 5.98631L5.72622 6.05721C5.72826 6.09621 5.76819 6.73652 5.81501 7.48013C5.8618 8.22373 5.90007 8.84892 5.90007 8.86945V8.90678H7.78586H9.67165L9.67146 8.95319C9.67138 8.97872 9.65537 9.24071 9.63593 9.53537C9.61649 9.83003 9.60052 10.0888 9.60041 10.1104L9.60021 10.1497H8.47365H7.34709L7.33849 10.039C7.33378 9.97807 7.32275 9.78679 7.31403 9.61394C7.30528 9.4411 7.29525 9.28518 7.29174 9.26752L7.2853 9.23535H6.60699H5.92865L5.92857 9.3032C5.92846 9.38362 6.03889 11.3024 6.05108 11.4319L6.05949 11.5211H8.47273C9.80002 11.5211 10.886 11.5163 10.886 11.5105C10.886 11.5046 10.9407 10.62 11.0075 9.54482C11.0742 8.4696 11.1289 7.5776 11.1289 7.56259C11.1289 7.53586 11.0885 7.53528 9.15736 7.53528C7.58956 7.53528 7.18589 7.53162 7.18605 7.51743C7.18616 7.50763 7.17552 7.32722 7.16237 7.11661C7.14184 6.78743 7.1413 6.73096 7.15859 6.71465C7.17718 6.69709 8.37996 5.94041 8.44248 5.90697C8.46605 5.89432 8.57089 5.9548 9.13171 6.30438L9.79308 6.71669L9.78787 6.969L9.78262 7.22126L10.4664 7.21756L11.1503 7.21386L11.1813 6.68525C11.1984 6.39453 11.2129 6.11769 11.2134 6.07001L11.2146 5.98338L9.8681 5.14241C9.12754 4.67989 8.50875 4.29339 8.49305 4.28359C8.46736 4.2675 8.32499 4.35321 7.09351 5.12602Z" fill="#E4AC4C"/>
</g>
<defs>
<clipPath id="clip0_1768_6240">
<rect x="0.466675" width="16" height="16" rx="4" fill="white"/>
</clipPath>
</defs>
</svg>
