<?xml version="1.0" encoding="UTF-8" standalone="no"?>
<svg
   width="16"
   height="16"
   viewBox="0 0 16 16"
   fill="none"
   version="1.1"
   id="svg3"
   sodipodi:docname="side(1).svg"
   inkscape:version="1.3.2 (091e20ef0f, 2023-11-25)"
   xmlns:inkscape="http://www.inkscape.org/namespaces/inkscape"
   xmlns:sodipodi="http://sodipodi.sourceforge.net/DTD/sodipodi-0.dtd"
   xmlns="http://www.w3.org/2000/svg"
   xmlns:svg="http://www.w3.org/2000/svg">
  <sodipodi:namedview
     id="namedview3"
     pagecolor="#ffffff"
     bordercolor="#000000"
     borderopacity="0.25"
     inkscape:showpageshadow="2"
     inkscape:pageopacity="0.0"
     inkscape:pagecheckerboard="0"
     inkscape:deskcolor="#d1d1d1"
     inkscape:zoom="50.8125"
     inkscape:cx="8.501845"
     inkscape:cy="8"
     inkscape:window-width="1920"
     inkscape:window-height="1011"
     inkscape:window-x="0"
     inkscape:window-y="32"
     inkscape:window-maximized="1"
     inkscape:current-layer="svg3" />
  <g
     clip-path="url(#clip0_1846_68120)"
     id="g2"
     transform="translate(-0.53102298,0.01144728)">
    <rect
       x="0.53320301"
       width="16"
       height="16"
       rx="4"
       fill="#ffffff"
       fill-opacity="0.08"
       id="rect1"
       y="0" />
    <path
       d="M 6.78265,9.82471 C 8.01476,9.56555 8.80349,8.35665 8.54434,7.12454 8.28518,5.89243 7.07628,5.1037 5.84417,5.36285 4.61206,5.622 3.82333,6.83091 4.08248,8.06302 4.34163,9.29513 5.55054,10.0839 6.78265,9.82471 Z"
       fill="#ffffff"
       id="path1" />
    <path
       d="m 11.438,3.45694 c 0.2332,0.20463 0.4628,0.4121 0.6709,0.64377 1.4073,1.56761 1.7866,3.87816 0.9488,5.80874 C 12.5039,11.1857 11.5988,12.132 10.3422,12.7242 9.23059,13.2483 8.06243,13.3775 6.85488,13.1256 6.83489,13.1213 6.81575,13.1151 6.79181,13.0968 8.28443,12.995 9.56609,12.4333 10.579,11.3315 11.5927,10.2292 12.0862,8.91612 12.0309,7.41322 11.986,6.18719 11.5696,5.09163 10.7884,4.14199 10.0098,3.19463 9.01319,2.58483 7.82475,2.28259 7.84536,2.23849 7.87672,2.25201 7.9008,2.25177 c 0.61665,-0.01159 1.21764,0.08028 1.80356,0.273 0.32884,0.10827 0.64344,0.24737 0.94694,0.41363 0.0148,0.00801 0.0321,0.01151 0.0484,0.01739 l 0.7376,0.50126 z"
       fill="#ffffff"
       id="path2" />
  </g>
  <defs
     id="defs3">
    <clipPath
       id="clip0_1846_68120">
      <path
         d="m 0.533203,8 c 0,-3.77124 0,-5.65685 1.171577,-6.82843 C 2.87635,0 4.76197,0 8.5332,0 c 3.7712,0 5.6569,0 6.8284,1.17157 1.1716,1.17158 1.1716,3.05719 1.1716,6.82843 0,3.7712 0,5.6569 -1.1716,6.8284 C 14.1901,16 12.3044,16 8.5332,16 4.76197,16 2.87635,16 1.70478,14.8284 0.533203,13.6569 0.533203,11.7712 0.533203,8 Z"
         fill="#ffffff"
         id="path3" />
    </clipPath>
  </defs>
</svg>
