<svg width="17" height="16" viewBox="0 0 17 16" fill="none" xmlns="http://www.w3.org/2000/svg">
<g clip-path="url(#clip0_1846_68120)">
<rect x="0.533203" width="16" height="16" rx="4" fill="white" fill-opacity="0.08"/>
<path d="M6.78265 9.82471C8.01476 9.56555 8.80349 8.35665 8.54434 7.12454C8.28518 5.89243 7.07628 5.1037 5.84417 5.36285C4.61206 5.622 3.82333 6.83091 4.08248 8.06302C4.34163 9.29513 5.55054 10.0839 6.78265 9.82471Z" fill="white"/>
<path d="M11.438 3.45694C11.6712 3.66157 11.9008 3.86904 12.1089 4.10071C13.5162 5.66832 13.8955 7.97887 13.0577 9.90945C12.5039 11.1857 11.5988 12.132 10.3422 12.7242C9.23059 13.2483 8.06243 13.3775 6.85488 13.1256C6.83489 13.1213 6.81575 13.1151 6.79181 13.0968C8.28443 12.995 9.56609 12.4333 10.579 11.3315C11.5927 10.2292 12.0862 8.91612 12.0309 7.41322C11.986 6.18719 11.5696 5.09163 10.7884 4.14199C10.0098 3.19463 9.01319 2.58483 7.82475 2.28259C7.84536 2.23849 7.87672 2.25201 7.9008 2.25177C8.51745 2.24018 9.11844 2.33205 9.70436 2.52477C10.0332 2.63304 10.3478 2.77214 10.6513 2.9384C10.6661 2.94641 10.6834 2.94991 10.6997 2.95579L11.4373 3.45705L11.438 3.45694Z" fill="white"/>
</g>
<defs>
<clipPath id="clip0_1846_68120">
<path d="M0.533203 8C0.533203 4.22876 0.533203 2.34315 1.70478 1.17157C2.87635 0 4.76197 0 8.5332 0C12.3044 0 14.1901 0 15.3616 1.17157C16.5332 2.34315 16.5332 4.22876 16.5332 8C16.5332 11.7712 16.5332 13.6569 15.3616 14.8284C14.1901 16 12.3044 16 8.5332 16C4.76197 16 2.87635 16 1.70478 14.8284C0.533203 13.6569 0.533203 11.7712 0.533203 8Z" fill="white"/>
</clipPath>
</defs>
</svg>
