<svg width="16" height="16" viewBox="0 0 16 16" fill="none" xmlns="http://www.w3.org/2000/svg">
<g clip-path="url(#clip0_1768_6255)">
<rect width="16" height="16" rx="4" fill="white" fill-opacity="0.08"/>
<path d="M8 14C11.3137 14 14 11.3137 14 8C14 4.68629 11.3137 2 8 2C4.68629 2 2 4.68629 2 8C2 11.3137 4.68629 14 8 14Z" fill="url(#paint0_linear_1768_6255)"/>
<path d="M8 13.625C11.1066 13.625 13.625 11.1066 13.625 8C13.625 4.8934 11.1066 2.375 8 2.375C4.8934 2.375 2.375 4.8934 2.375 8C2.375 11.1066 4.8934 13.625 8 13.625Z" fill="url(#paint1_linear_1768_6255)"/>
<path fill-rule="evenodd" clip-rule="evenodd" d="M12.78 6.69039C12.1883 4.68644 10.2723 3.21875 8.00001 3.21875C5.72774 3.21875 3.81172 4.68646 3.21994 6.69042C3.27721 4.50598 5.39539 2.75 8 2.75C10.6046 2.75 12.7227 4.50596 12.78 6.69039Z" fill="url(#paint2_linear_1768_6255)"/>
<path d="M10.6874 4.95471C10.7967 4.54969 10.6181 4.05191 10.1833 4.06267C9.34726 4.05107 9.21104 5.21809 9.30485 6.23768L8.41821 6.99388C8.08786 6.71144 7.62619 6.65594 7.21102 6.75451C5.82274 7.09493 5.31132 9.07446 5.89208 10.21C5.60822 10.8759 5.64819 11.6934 6.03563 12.3113C6.36191 12.9623 7.3505 13.1735 7.15392 12.7461C7.10743 12.6882 7.10743 12.7089 7.03647 12.7014C6.10904 12.6426 5.8774 11.2495 6.13351 10.5819C6.95571 11.5493 8.76732 11.218 9.4068 10.3566C10.3522 9.08937 10.03 7.55295 9.83503 6.17307C10.1801 5.82935 10.5651 5.44835 10.6874 4.95471ZM6.04461 9.79587C5.57233 7.95383 7.14821 6.46296 8.16291 7.21336H8.16372C7.28361 7.90993 6.56093 8.79119 6.04461 9.79587ZM9.00794 10.0121C8.46144 10.9844 6.8358 11.1973 6.22732 10.2183C6.40432 9.69648 6.67593 9.21278 7.02749 8.79203L7.03239 8.79037C7.43043 8.31578 7.86519 7.87432 8.33257 7.4693C8.54219 8.11451 8.02506 8.98666 7.41983 8.94443C7.45572 9.51427 8.30157 9.07115 8.46633 8.84338C8.86194 8.41103 8.89782 7.61838 8.6156 7.21917L9.33911 6.61039C9.48919 8.34062 9.59196 8.85249 9.00794 10.0121ZM9.7861 5.77882C9.6352 4.15875 10.2673 4.31695 10.3481 4.45609C10.5659 4.89921 9.98838 5.6405 9.7861 5.77882Z" fill="#987918"/>
<path d="M10.4999 4.86096C10.6092 4.45594 10.4306 3.95816 9.99583 3.96892C9.15976 3.95732 9.02354 5.12434 9.11735 6.14393L8.23071 6.90013C7.90036 6.61769 7.43869 6.56219 7.02352 6.66076C5.63524 7.00118 5.12382 8.98071 5.70458 10.1163C5.42072 10.7822 5.46069 11.5996 5.84813 12.2175C6.17441 12.8685 7.163 13.0798 6.96642 12.6523C6.91993 12.5944 6.91993 12.6151 6.84897 12.6076C5.92154 12.5488 5.6899 11.1557 5.94601 10.4881C6.76821 11.4555 8.57982 11.1242 9.2193 10.2629C10.1647 8.99562 9.84248 7.4592 9.64753 6.07932C9.99256 5.7356 10.3776 5.3546 10.4999 4.86096ZM5.85711 9.70212C5.38483 7.86008 6.96071 6.36921 7.97541 7.11961H7.97622C7.09611 7.81618 6.37343 8.69744 5.85711 9.70212ZM8.82044 9.9183C8.27394 10.8907 6.6483 11.1035 6.03982 10.1245C6.21682 9.60273 6.48843 9.11903 6.83999 8.69828L6.84489 8.69662C7.24293 8.22203 7.67769 7.78057 8.14507 7.37555C8.35469 8.02076 7.83756 8.89291 7.23233 8.85068C7.26822 9.42052 8.11407 8.9774 8.27883 8.74963C8.67444 8.31728 8.71032 7.52463 8.4281 7.12542L9.15161 6.51664C9.30169 8.24687 9.40446 8.75874 8.82044 9.9183ZM9.5986 5.68507C9.4477 4.065 10.0798 4.2232 10.1606 4.36234C10.3784 4.80546 9.80088 5.54675 9.5986 5.68507Z" fill="url(#paint3_linear_1768_6255)"/>
</g>
<defs>
<linearGradient id="paint0_linear_1768_6255" x1="8" y1="2" x2="8" y2="14" gradientUnits="userSpaceOnUse">
<stop stop-color="#FADC7E"/>
<stop offset="1" stop-color="#50400F"/>
</linearGradient>
<linearGradient id="paint1_linear_1768_6255" x1="8" y1="2" x2="8" y2="14" gradientUnits="userSpaceOnUse">
<stop stop-color="#DAAB16"/>
<stop offset="1" stop-color="#A78A30"/>
</linearGradient>
<linearGradient id="paint2_linear_1768_6255" x1="8.00002" y1="1.429" x2="8.00002" y2="17.9881" gradientUnits="userSpaceOnUse">
<stop stop-color="#FCD24F"/>
<stop offset="1" stop-color="#C39C22"/>
</linearGradient>
<linearGradient id="paint3_linear_1768_6255" x1="8" y1="3.96875" x2="8" y2="12.875" gradientUnits="userSpaceOnUse">
<stop stop-color="#FFE8A0"/>
<stop offset="1" stop-color="#DFC05C"/>
</linearGradient>
<clipPath id="clip0_1768_6255">
<rect width="16" height="16" rx="4" fill="white"/>
</clipPath>
</defs>
</svg>
