<svg width="17" height="16" viewBox="0 0 17 16" fill="none" xmlns="http://www.w3.org/2000/svg">
<g clip-path="url(#clip0_1768_6255)">
<rect x="0.466675" width="16" height="16" rx="4" fill="white" fill-opacity="0.08"/>
<path d="M8.46667 14C11.7804 14 14.4667 11.3137 14.4667 8C14.4667 4.68629 11.7804 2 8.46667 2C5.15297 2 2.46667 4.68629 2.46667 8C2.46667 11.3137 5.15297 14 8.46667 14Z" fill="url(#paint0_linear_1768_6255)"/>
<path d="M8.46667 13.625C11.5733 13.625 14.0917 11.1066 14.0917 8C14.0917 4.8934 11.5733 2.375 8.46667 2.375C5.36007 2.375 2.84167 4.8934 2.84167 8C2.84167 11.1066 5.36007 13.625 8.46667 13.625Z" fill="url(#paint1_linear_1768_6255)"/>
<path fill-rule="evenodd" clip-rule="evenodd" d="M13.2467 6.69039C12.655 4.68644 10.7389 3.21875 8.46668 3.21875C6.19442 3.21875 4.27839 4.68646 3.68662 6.69042C3.74389 4.50598 5.86207 2.75 8.46667 2.75C11.0713 2.75 13.1894 4.50596 13.2467 6.69039Z" fill="url(#paint2_linear_1768_6255)"/>
<path d="M11.1541 4.95471C11.2634 4.54969 11.0848 4.05191 10.65 4.06267C9.81394 4.05107 9.67772 5.21809 9.77153 6.23768L8.88488 6.99388C8.55454 6.71144 8.09287 6.65594 7.67769 6.75451C6.28942 7.09493 5.77799 9.07446 6.35875 10.21C6.0749 10.8759 6.11486 11.6934 6.5023 12.3113C6.82858 12.9623 7.81717 13.1735 7.62059 12.7461C7.5741 12.6882 7.5741 12.7089 7.50314 12.7014C6.57572 12.6426 6.34407 11.2495 6.60019 10.5819C7.42238 11.5493 9.23399 11.218 9.87348 10.3566C10.8188 9.08937 10.4967 7.55295 10.3017 6.17307C10.6467 5.82935 11.0317 5.44835 11.1541 4.95471ZM6.51128 9.79587C6.03901 7.95383 7.61488 6.46296 8.62958 7.21336H8.6304C7.75028 7.90993 7.0276 8.79119 6.51128 9.79587ZM9.47462 10.0121C8.92811 10.9844 7.30248 11.1973 6.69399 10.2183C6.87099 9.69648 7.14261 9.21278 7.49417 8.79203L7.49906 8.79037C7.89711 8.31578 8.33186 7.87432 8.79924 7.4693C9.00887 8.11451 8.49173 8.98666 7.8865 8.94443C7.92239 9.51427 8.76824 9.07115 8.93301 8.84338C9.32861 8.41103 9.3645 7.61838 9.08227 7.21917L9.80578 6.61039C9.95587 8.34062 10.0586 8.85249 9.47462 10.0121ZM10.2528 5.77882C10.1019 4.15875 10.734 4.31695 10.8148 4.45609C11.0325 4.89921 10.4551 5.6405 10.2528 5.77882Z" fill="#987918"/>
<path d="M10.9666 4.86096C11.0759 4.45594 10.8973 3.95816 10.4625 3.96892C9.62644 3.95732 9.49022 5.12434 9.58403 6.14393L8.69738 6.90013C8.36704 6.61769 7.90537 6.56219 7.49019 6.66076C6.10192 7.00118 5.59049 8.98071 6.17125 10.1163C5.8874 10.7822 5.92736 11.5996 6.3148 12.2175C6.64108 12.8685 7.62967 13.0798 7.43309 12.6523C7.3866 12.5944 7.3866 12.6151 7.31564 12.6076C6.38822 12.5488 6.15657 11.1557 6.41269 10.4881C7.23488 11.4555 9.04649 11.1242 9.68598 10.2629C10.6313 8.99562 10.3092 7.4592 10.1142 6.07932C10.4592 5.7356 10.8442 5.3546 10.9666 4.86096ZM6.32378 9.70212C5.85151 7.86008 7.42738 6.36921 8.44208 7.11961H8.4429C7.56278 7.81618 6.8401 8.69744 6.32378 9.70212ZM9.28712 9.9183C8.74061 10.8907 7.11498 11.1035 6.50649 10.1245C6.68349 9.60273 6.95511 9.11903 7.30667 8.69828L7.31156 8.69662C7.70961 8.22203 8.14436 7.78057 8.61174 7.37555C8.82137 8.02076 8.30423 8.89291 7.699 8.85068C7.73489 9.42052 8.58074 8.9774 8.74551 8.74963C9.14111 8.31728 9.177 7.52463 8.89477 7.12542L9.61828 6.51664C9.76837 8.24687 9.87113 8.75874 9.28712 9.9183ZM10.0653 5.68507C9.91437 4.065 10.5465 4.2232 10.6273 4.36234C10.845 4.80546 10.2676 5.54675 10.0653 5.68507Z" fill="url(#paint3_linear_1768_6255)"/>
</g>
<defs>
<linearGradient id="paint0_linear_1768_6255" x1="8.46667" y1="2" x2="8.46667" y2="14" gradientUnits="userSpaceOnUse">
<stop stop-color="#FADC7E"/>
<stop offset="1" stop-color="#50400F"/>
</linearGradient>
<linearGradient id="paint1_linear_1768_6255" x1="8.46667" y1="2" x2="8.46667" y2="14" gradientUnits="userSpaceOnUse">
<stop stop-color="#DAAB16"/>
<stop offset="1" stop-color="#A78A30"/>
</linearGradient>
<linearGradient id="paint2_linear_1768_6255" x1="8.46669" y1="1.429" x2="8.46669" y2="17.9881" gradientUnits="userSpaceOnUse">
<stop stop-color="#FCD24F"/>
<stop offset="1" stop-color="#C39C22"/>
</linearGradient>
<linearGradient id="paint3_linear_1768_6255" x1="8.46667" y1="3.96875" x2="8.46667" y2="12.875" gradientUnits="userSpaceOnUse">
<stop stop-color="#FFE8A0"/>
<stop offset="1" stop-color="#DFC05C"/>
</linearGradient>
<clipPath id="clip0_1768_6255">
<rect x="0.466675" width="16" height="16" rx="4" fill="white"/>
</clipPath>
</defs>
</svg>
