<svg width="16" height="16" viewBox="0 0 16 16" fill="none" xmlns="http://www.w3.org/2000/svg">
<g clip-path="url(#clip0_5532_138313)">
<rect width="16" height="16" rx="4" fill="white" fill-opacity="0.08"/>
<path d="M10.5227 2.88999C9.90669 2.39343 9.09928 2.06527 8.36385 2.01345C7.93208 1.98322 7.55932 2.00337 7.17649 2.07966C6.66701 2.18041 6.09708 2.43229 5.64373 2.76045C5.23355 3.05551 4.84064 3.48155 4.5859 3.9047C4.36426 4.27461 4.2261 4.59845 4.1124 5.01441C3.95984 5.57719 3.95984 6.37312 4.11096 6.97332C4.14075 7.0912 4.24337 7.40238 4.26971 7.45765C4.27043 7.45923 4.27115 7.46052 4.27201 7.46196C4.2828 7.48154 4.29086 7.50169 4.29086 7.5073C4.29086 7.52745 4.42615 7.8038 4.51106 7.95781C4.73702 8.36657 5.04213 8.73216 5.41921 9.04449C5.48253 9.0963 5.60487 9.19993 5.69266 9.27478C5.85097 9.41151 6.07117 9.59286 6.42666 9.88073C6.47541 9.91987 6.53825 9.97113 6.60158 10.0228C6.67099 10.0794 6.74098 10.1365 6.79366 10.1787C6.89297 10.2607 7.03689 10.3773 7.11173 10.4377C7.16099 10.4785 7.25515 10.5554 7.3544 10.6365C7.40593 10.6785 7.45882 10.7217 7.50751 10.7616C7.78096 10.9876 7.89322 11.0595 8.03714 11.1056C8.11342 11.13 8.15516 11.1329 8.33506 11.1272C8.51065 11.1214 8.56102 11.1157 8.65169 11.084C8.83159 11.0235 8.94961 10.9487 9.08633 10.812C9.18996 10.7083 9.22162 10.6652 9.27631 10.5529C9.31229 10.4795 9.35115 10.3802 9.3641 10.3327C9.39576 10.2161 9.39432 9.9311 9.3641 9.81452C9.33388 9.70081 9.24033 9.51226 9.17268 9.43166C9.11943 9.36689 8.92658 9.19849 8.53655 8.87609C8.34657 8.7192 7.56364 8.07007 7.33481 7.88008C6.54942 7.22716 6.42844 7.12777 6.3297 7.00976C6.31047 6.98678 6.29208 6.96308 6.26979 6.93446C6.04239 6.64659 5.9143 6.26949 5.9143 5.89239C5.9143 5.79308 5.91862 5.69665 5.92293 5.6765C5.92394 5.67183 5.92532 5.66545 5.92697 5.65788C5.93244 5.63278 5.94077 5.59452 5.9474 5.56135C6.00929 5.2447 6.13162 4.99858 6.3475 4.74814C6.47703 4.59845 6.71882 4.41998 6.91599 4.33074C7.05848 4.26597 7.342 4.19689 7.5363 4.18105C7.88746 4.15083 8.24583 4.24006 8.5236 4.4243C8.6373 4.50058 8.77546 4.60853 9.19139 4.94965C9.24641 4.99384 9.38225 5.10474 9.54296 5.23593C9.63869 5.31409 9.74325 5.39944 9.8448 5.48219C11.2077 6.5919 11.3992 6.76174 11.664 7.09422C11.7172 7.16226 11.7661 7.22285 11.7825 7.24311C11.7851 7.24642 11.7869 7.24865 11.7877 7.24967C11.8122 7.27557 11.9043 6.93733 11.9461 6.66818C12.0598 5.94997 11.995 5.24758 11.7561 4.61141C11.6179 4.24006 11.392 3.83706 11.143 3.51753C11.0307 3.37216 10.6752 3.01233 10.5227 2.88999Z" fill="url(#paint0_linear_5532_138313)"/>
<path d="M8.75963 5.45484C8.22136 5.0101 8.1494 4.95828 7.99109 4.90359C7.91193 4.87768 7.86732 4.87192 7.72339 4.87336C7.51759 4.87336 7.43411 4.88632 7.30314 4.93525C7.00379 5.04752 6.77927 5.27925 6.66125 5.59734C6.59793 5.76717 6.59361 6.05504 6.65262 6.22631C6.7289 6.45517 6.82101 6.58614 7.02969 6.7603C7.22686 6.92582 7.89754 7.48427 8.443 7.93622C9.45909 8.77677 9.59869 8.89768 9.69944 9.02434C9.95706 9.34386 10.0765 9.67203 10.0851 10.0808C10.0895 10.2924 10.078 10.3816 10.0103 10.6335C9.9513 10.8523 9.75701 11.1632 9.56271 11.3474C9.44901 11.4568 9.23889 11.6021 9.11943 11.6568C8.61427 11.8842 8.02131 11.8814 7.59099 11.6482C7.47585 11.5849 7.3089 11.4625 7.07575 11.2682C7.02483 11.2258 6.9374 11.1543 6.84441 11.0784C6.77969 11.0255 6.71227 10.9704 6.65262 10.9213C5.69698 10.1456 5.30263 9.82315 5.07668 9.62741C5.0236 9.58036 4.95233 9.52118 4.90522 9.48207C4.89613 9.47452 4.88793 9.46771 4.88094 9.46189C4.69816 9.31508 4.50819 9.11789 4.30094 8.86169C4.30065 8.86134 4.3004 8.86101 4.30015 8.86069C4.2999 8.86037 4.29964 8.86004 4.29936 8.85968C4.25877 8.80801 4.17673 8.82413 4.15846 8.88731C4.13183 8.97986 4.10074 9.09357 4.09081 9.13804C4.039 9.37121 4.01453 9.61014 4.01022 9.92966C4.0059 10.242 4.00878 10.3125 4.0462 10.6133C4.09081 10.9616 4.25057 11.4683 4.41751 11.7864C4.66362 12.2556 4.88238 12.5492 5.24075 12.8961C5.86537 13.4992 6.7217 13.8993 7.56508 13.9828C7.93784 14.0187 8.46459 13.9972 8.79561 13.9295C9.46341 13.7957 10.1384 13.4617 10.6378 13.0184C11.2106 12.5118 11.5834 11.9433 11.8266 11.2063C11.9446 10.8479 11.9892 10.5673 12.0007 10.0937C12.0166 9.45325 11.913 8.93078 11.6597 8.37521C11.4625 7.94197 11.2653 7.64404 10.9429 7.28997C10.8422 7.18058 10.3384 6.74159 9.94698 6.4235C9.34107 5.93126 8.88196 5.5556 8.75963 5.45484Z" fill="url(#paint1_linear_5532_138313)"/>
</g>
<defs>
<linearGradient id="paint0_linear_5532_138313" x1="11.0153" y1="2.87549" x2="5.24851" y2="13.2327" gradientUnits="userSpaceOnUse">
<stop stop-color="#50B8FB"/>
<stop offset="1" stop-color="#E189DA"/>
</linearGradient>
<linearGradient id="paint1_linear_5532_138313" x1="11.0153" y1="2.87549" x2="5.24851" y2="13.2327" gradientUnits="userSpaceOnUse">
<stop stop-color="#50B8FB"/>
<stop offset="1" stop-color="#E189DA"/>
</linearGradient>
<clipPath id="clip0_5532_138313">
<rect width="16" height="16" rx="4" fill="white"/>
</clipPath>
</defs>
</svg>
