<svg width="16" height="16" viewBox="0 0 16 16" fill="none" xmlns="http://www.w3.org/2000/svg">
<g clip-path="url(#clip0_1768_6318)">
<rect width="16" height="16" rx="4" fill="#1F1F2D"/>
<path d="M10.1053 3C10.1053 4.1627 9.1627 5.10526 8 5.10526C6.8373 5.10526 5.89474 4.1627 5.89474 3H10.1053Z" fill="#F26057"/>
<path d="M10.8947 3C10.8947 4.1627 11.8373 5.10526 13 5.10526V3H10.8947Z" fill="#F26057"/>
<path d="M13 5.89474C11.8373 5.89474 10.8947 6.8373 10.8947 8C10.8947 9.1627 11.8373 10.1053 13 10.1053V5.89474Z" fill="#F26057"/>
<path d="M13 10.8947C11.8373 10.8947 10.8947 11.8373 10.8947 13H13V10.8947Z" fill="#F26057"/>
<path d="M10.1053 13C10.1053 11.8373 9.1627 10.8947 8 10.8947C6.8373 10.8947 5.89474 11.8373 5.89474 13H10.1053Z" fill="#F26057"/>
<path d="M5.10526 13C5.10526 11.8373 4.1627 10.8947 3 10.8947V13H5.10526Z" fill="#F26057"/>
<path d="M3 10.1053C4.1627 10.1053 5.10526 9.1627 5.10526 8C5.10526 6.8373 4.1627 5.89474 3 5.89474V10.1053Z" fill="#F26057"/>
<path d="M3 5.10526C4.1627 5.10526 5.10526 4.1627 5.10526 3H3V5.10526Z" fill="#F26057"/>
<path d="M10.1053 8C10.1053 9.1627 9.1627 10.1053 8 10.1053C6.8373 10.1053 5.89474 9.1627 5.89474 8C5.89474 6.8373 6.8373 5.89474 8 5.89474C9.1627 5.89474 10.1053 6.8373 10.1053 8Z" fill="#F26057"/>
</g>
<defs>
<clipPath id="clip0_1768_6318">
<rect width="16" height="16" rx="4" fill="white"/>
</clipPath>
</defs>
</svg>
