<svg width="17" height="16" viewBox="0 0 17 16" fill="none" xmlns="http://www.w3.org/2000/svg">
<g clip-path="url(#clip0_1768_6318)">
<rect x="0.466675" width="16" height="16" rx="4" fill="#1F1F2D"/>
<path d="M10.5719 3C10.5719 4.1627 9.62938 5.10526 8.46667 5.10526C7.30397 5.10526 6.36141 4.1627 6.36141 3H10.5719Z" fill="#F26057"/>
<path d="M11.3614 3C11.3614 4.1627 12.304 5.10526 13.4667 5.10526V3H11.3614Z" fill="#F26057"/>
<path d="M13.4667 5.89474C12.304 5.89474 11.3614 6.8373 11.3614 8C11.3614 9.1627 12.304 10.1053 13.4667 10.1053V5.89474Z" fill="#F26057"/>
<path d="M13.4667 10.8947C12.304 10.8947 11.3614 11.8373 11.3614 13H13.4667V10.8947Z" fill="#F26057"/>
<path d="M10.5719 13C10.5719 11.8373 9.62938 10.8947 8.46667 10.8947C7.30397 10.8947 6.36141 11.8373 6.36141 13H10.5719Z" fill="#F26057"/>
<path d="M5.57194 13C5.57194 11.8373 4.62938 10.8947 3.46667 10.8947V13H5.57194Z" fill="#F26057"/>
<path d="M3.46667 10.1053C4.62938 10.1053 5.57194 9.1627 5.57194 8C5.57194 6.8373 4.62938 5.89474 3.46667 5.89474V10.1053Z" fill="#F26057"/>
<path d="M3.46667 5.10526C4.62938 5.10526 5.57194 4.1627 5.57194 3H3.46667V5.10526Z" fill="#F26057"/>
<path d="M10.5719 8C10.5719 9.1627 9.62938 10.1053 8.46667 10.1053C7.30397 10.1053 6.36141 9.1627 6.36141 8C6.36141 6.8373 7.30397 5.89474 8.46667 5.89474C9.62938 5.89474 10.5719 6.8373 10.5719 8Z" fill="#F26057"/>
</g>
<defs>
<clipPath id="clip0_1768_6318">
<rect x="0.466675" width="16" height="16" rx="4" fill="white"/>
</clipPath>
</defs>
</svg>
