<svg width="17" height="16" viewBox="0 0 17 16" fill="none" xmlns="http://www.w3.org/2000/svg">
<g clip-path="url(#clip0_689_62931)">
<rect x="0.533203" width="16" height="16" rx="4" fill="white" fill-opacity="0.08"/>
<path d="M6.7081 11.4909L8.2254 9.62725C8.37384 9.45683 8.62672 9.44034 8.79714 9.58327C8.81363 9.59427 8.82463 9.61076 8.84112 9.62725L10.3584 11.4909C10.4629 11.6228 10.4629 11.8372 10.3584 11.9967L8.84112 13.8603C8.69269 14.0307 8.43981 14.0472 8.26938 13.8988C8.25289 13.8878 8.2419 13.8713 8.2309 13.8603L6.7136 11.9967C6.60365 11.8372 6.60365 11.6228 6.7081 11.4909Z" fill="#72C7FB"/>
<path d="M11.1885 5.06985C11.0401 4.89943 10.7872 4.88294 10.6168 5.02587C10.6003 5.03686 10.5893 5.05336 10.5728 5.06985L9.05552 6.93349C8.95107 7.06543 8.95107 7.27983 9.05552 7.43926L10.5728 9.3029C10.7213 9.47332 10.9741 9.48981 11.1446 9.34138C11.1611 9.33039 11.172 9.31389 11.183 9.3029L12.7003 7.43926C12.8048 7.30732 12.8048 7.09292 12.7003 6.93349L11.1885 5.06985ZM6.4992 5.06985C6.35077 4.89943 6.09788 4.88294 5.92746 5.02587C5.91097 5.03686 5.89997 5.05336 5.88348 5.06985L4.36618 6.93349C4.26173 7.06543 4.26173 7.27983 4.36618 7.43926L5.88348 9.3029C6.03191 9.47332 6.2848 9.48981 6.45522 9.34138C6.47171 9.33039 6.48271 9.31389 6.4937 9.3029L8.011 7.43926C8.11545 7.30732 8.11545 7.09292 8.011 6.93349L6.4992 5.06985ZM10.3639 4.00334L8.84662 2.1397C8.69819 1.96928 8.4453 1.95278 8.27488 2.10122C8.25839 2.11221 8.24739 2.1287 8.2364 2.1397L6.7191 4.00334C6.61464 4.13528 6.61464 4.34968 6.7191 4.50911L8.2364 6.37275C8.38483 6.54317 8.63771 6.55966 8.80813 6.41673C8.82463 6.40573 8.83562 6.38924 8.85211 6.37275L10.3694 4.50911C10.4684 4.37167 10.4684 4.16277 10.3639 4.00334Z" fill="#1BA5F8"/>
</g>
<defs>
<clipPath id="clip0_689_62931">
<path d="M0.533203 8C0.533203 4.22876 0.533203 2.34315 1.70478 1.17157C2.87635 0 4.76197 0 8.5332 0C12.3044 0 14.1901 0 15.3616 1.17157C16.5332 2.34315 16.5332 4.22876 16.5332 8C16.5332 11.7712 16.5332 13.6569 15.3616 14.8284C14.1901 16 12.3044 16 8.5332 16C4.76197 16 2.87635 16 1.70478 14.8284C0.533203 13.6569 0.533203 11.7712 0.533203 8Z" fill="white"/>
</clipPath>
</defs>
</svg>
