<svg width="16" height="16" viewBox="0 0 16 16" fill="none" xmlns="http://www.w3.org/2000/svg">
<g clip-path="url(#clip0_1768_6383)">
<rect width="16" height="16" rx="4" fill="#0B060C"/>
<path fill-rule="evenodd" clip-rule="evenodd" d="M8.18178 8.88433C11.4939 8.47765 14.0976 7.48513 13.9972 6.66749C13.8968 5.84985 11.1304 5.5167 7.81822 5.92338C4.50606 6.33006 1.90241 7.32257 2.00281 8.14022C2.1032 8.95786 4.86963 9.291 8.18178 8.88433Z" fill="white"/>
<path fill-rule="evenodd" clip-rule="evenodd" d="M8.1478 8.65119C11.2585 8.26924 13.7119 7.40279 13.6276 6.71591C13.5433 6.02904 10.9531 5.78185 7.8424 6.16381C4.73165 6.54576 2.27827 7.41221 2.3626 8.09909C2.44694 8.78595 5.03708 9.03314 8.1478 8.65119Z" fill="#000002"/>
<path fill-rule="evenodd" clip-rule="evenodd" d="M7.95723 10.7939C9.60106 10.7939 10.9935 9.71544 11.4686 8.2261C11.4796 8.19187 11.4191 8.23258 11.3054 8.26743C11.1088 8.32769 10.7357 8.4326 10.1728 8.54959C9.40267 8.70967 8.2977 8.87135 7.92065 8.91627C7.53014 8.9628 6.73367 9.00542 6.04636 9.0291C5.6414 9.04304 5.33909 9.06648 5.11513 9.05848C4.95899 9.05291 4.80169 8.99757 4.83958 9.05848C5.49038 10.1045 6.63653 10.7939 7.95723 10.7939Z" fill="#6758FF"/>
<path fill-rule="evenodd" clip-rule="evenodd" d="M8.19851 10.4945C8.93934 10.4945 9.46853 10.0586 9.46853 9.9783C9.46853 9.89804 8.93934 10.1749 8.19851 10.1749C7.4577 10.1749 6.71904 10.0947 6.71904 10.1749C6.71904 10.2255 7.09374 10.3767 7.55125 10.437C7.81923 10.4723 7.92486 10.4945 8.19851 10.4945Z" fill="#FF7FA7"/>
</g>
<defs>
<clipPath id="clip0_1768_6383">
<rect width="16" height="16" rx="4" fill="white"/>
</clipPath>
</defs>
</svg>
