<svg width="17" height="16" viewBox="0 0 17 16" fill="none" xmlns="http://www.w3.org/2000/svg">
<g clip-path="url(#clip0_1768_6383)">
<rect x="0.466675" width="16" height="16" rx="4" fill="#0B060C"/>
<path fill-rule="evenodd" clip-rule="evenodd" d="M8.64845 8.88433C11.9606 8.47765 14.5642 7.48513 14.4639 6.66749C14.3635 5.84985 11.597 5.5167 8.28489 5.92338C4.97274 6.33006 2.36909 7.32257 2.46948 8.14022C2.56988 8.95786 5.3363 9.291 8.64845 8.88433Z" fill="white"/>
<path fill-rule="evenodd" clip-rule="evenodd" d="M8.61447 8.65119C11.7252 8.26924 14.1786 7.40279 14.0943 6.71591C14.0099 6.02904 11.4198 5.78185 8.30907 6.16381C5.19832 6.54576 2.74494 7.41221 2.82928 8.09909C2.91362 8.78595 5.50375 9.03314 8.61447 8.65119Z" fill="#000002"/>
<path fill-rule="evenodd" clip-rule="evenodd" d="M8.42391 10.7939C10.0677 10.7939 11.4602 9.71544 11.9353 8.2261C11.9462 8.19187 11.8858 8.23258 11.7721 8.26743C11.5755 8.32769 11.2024 8.4326 10.6394 8.54959C9.86934 8.70967 8.76438 8.87135 8.38733 8.91627C7.99681 8.9628 7.20034 9.00542 6.51304 9.0291C6.10807 9.04304 5.80576 9.06648 5.58181 9.05848C5.42567 9.05291 5.26836 8.99757 5.30625 9.05848C5.95705 10.1045 7.1032 10.7939 8.42391 10.7939Z" fill="#6758FF"/>
<path fill-rule="evenodd" clip-rule="evenodd" d="M8.66518 10.4945C9.40602 10.4945 9.9352 10.0586 9.9352 9.9783C9.9352 9.89804 9.40602 10.1749 8.66518 10.1749C7.92437 10.1749 7.18572 10.0947 7.18572 10.1749C7.18572 10.2255 7.56041 10.3767 8.01792 10.437C8.28591 10.4723 8.39153 10.4945 8.66518 10.4945Z" fill="#FF7FA7"/>
</g>
<defs>
<clipPath id="clip0_1768_6383">
<rect x="0.466675" width="16" height="16" rx="4" fill="white"/>
</clipPath>
</defs>
</svg>
