<svg width="16" height="16" viewBox="0 0 16 16" fill="none" xmlns="http://www.w3.org/2000/svg">
<g clip-path="url(#clip0_1768_6402)">
<rect width="16" height="16" rx="4" fill="white" fill-opacity="0.08"/>
<path fill-rule="evenodd" clip-rule="evenodd" d="M8 13.4667C11.0191 13.4667 13.4667 11.0191 13.4667 8C13.4667 4.98085 11.0191 2.53333 8 2.53333C4.98085 2.53333 2.53333 4.98085 2.53333 8C2.53333 11.0191 4.98085 13.4667 8 13.4667ZM14 8C14 11.3137 11.3137 14 8 14C4.68629 14 2 11.3137 2 8C2 4.68629 4.68629 2 8 2C11.3137 2 14 4.68629 14 8Z" fill="url(#paint0_linear_1768_6402)"/>
<path d="M9.11267 3.498L9.35467 6.85867L12.6253 7.66667L9.504 8.93533L9.746 12.296L7.57534 9.71933L4.45401 10.9887L6.23334 8.12733L4.06201 5.55067L7.33267 6.35933L9.11267 3.498Z" fill="url(#paint1_linear_1768_6402)"/>
</g>
<defs>
<linearGradient id="paint0_linear_1768_6402" x1="2.01195" y1="-0.0461471" x2="14.8453" y2="0.324887" gradientUnits="userSpaceOnUse">
<stop stop-color="#FFF59E"/>
<stop offset="0.635417" stop-color="#81EFD9"/>
<stop offset="1" stop-color="#6B9BE3"/>
</linearGradient>
<linearGradient id="paint1_linear_1768_6402" x1="2.01195" y1="-0.0461471" x2="14.8453" y2="0.324887" gradientUnits="userSpaceOnUse">
<stop stop-color="#FFF59E"/>
<stop offset="0.635417" stop-color="#81EFD9"/>
<stop offset="1" stop-color="#6B9BE3"/>
</linearGradient>
<clipPath id="clip0_1768_6402">
<rect width="16" height="16" rx="4" fill="white"/>
</clipPath>
</defs>
</svg>
