<svg width="17" height="16" viewBox="0 0 17 16" fill="none" xmlns="http://www.w3.org/2000/svg">
<g clip-path="url(#clip0_1768_6402)">
<rect x="0.466675" width="16" height="16" rx="4" fill="white" fill-opacity="0.08"/>
<path fill-rule="evenodd" clip-rule="evenodd" d="M8.46668 13.4667C11.4858 13.4667 13.9333 11.0191 13.9333 8C13.9333 4.98085 11.4858 2.53333 8.46668 2.53333C5.44752 2.53333 3.00001 4.98085 3.00001 8C3.00001 11.0191 5.44752 13.4667 8.46668 13.4667ZM14.4667 8C14.4667 11.3137 11.7804 14 8.46668 14C5.15297 14 2.46667 11.3137 2.46667 8C2.46667 4.68629 5.15297 2 8.46668 2C11.7804 2 14.4667 4.68629 14.4667 8Z" fill="url(#paint0_linear_1768_6402)"/>
<path d="M9.57934 3.498L9.82134 6.85867L13.092 7.66667L9.97067 8.93533L10.2127 12.296L8.04202 9.71933L4.92068 10.9887L6.70002 8.12733L4.52868 5.55067L7.79935 6.35933L9.57934 3.498Z" fill="url(#paint1_linear_1768_6402)"/>
</g>
<defs>
<linearGradient id="paint0_linear_1768_6402" x1="2.47862" y1="-0.0461471" x2="15.3119" y2="0.324887" gradientUnits="userSpaceOnUse">
<stop stop-color="#FFF59E"/>
<stop offset="0.635417" stop-color="#81EFD9"/>
<stop offset="1" stop-color="#6B9BE3"/>
</linearGradient>
<linearGradient id="paint1_linear_1768_6402" x1="2.47862" y1="-0.0461471" x2="15.3119" y2="0.324887" gradientUnits="userSpaceOnUse">
<stop stop-color="#FFF59E"/>
<stop offset="0.635417" stop-color="#81EFD9"/>
<stop offset="1" stop-color="#6B9BE3"/>
</linearGradient>
<clipPath id="clip0_1768_6402">
<rect x="0.466675" width="16" height="16" rx="4" fill="white"/>
</clipPath>
</defs>
</svg>
