<svg width="17" height="16" viewBox="0 0 17 16" fill="none" xmlns="http://www.w3.org/2000/svg">
<g clip-path="url(#clip0_1677_1636)">
<rect x="0.466675" width="16" height="16" rx="4" fill="#E91179"/>
<path d="M8.46668 13.8033C11.6717 13.8033 14.27 11.2051 14.27 8C14.27 4.79494 11.6717 2.19672 8.46668 2.19672C5.26161 2.19672 2.6634 4.79494 2.6634 8C2.6634 11.2051 5.26161 13.8033 8.46668 13.8033Z" fill="#1B1B1B"/>
<path fill-rule="evenodd" clip-rule="evenodd" d="M10.1683 6.29838C10.247 6.37707 10.3748 6.36723 10.4339 6.2787C10.4929 6.20985 10.483 6.10166 10.4142 6.04264C9.765 5.42297 9.18467 5.10821 8.22074 5.15739C7.20762 5.20657 6.31254 5.73772 6.37156 6.85903C6.42044 7.84649 7.37309 8.212 8.21527 8.53513L8.23057 8.541C8.87975 8.7869 9.45025 9.0033 9.47975 9.46559C9.50926 9.97707 8.98795 10.282 8.53549 10.3115C7.67975 10.3607 7.17811 10.0558 6.61746 9.51477C6.54861 9.44592 6.44041 9.44592 6.37156 9.50494C6.29287 9.57379 6.29287 9.69182 6.36172 9.77051C6.99123 10.4 7.64041 10.7148 8.58467 10.6656C9.52893 10.5967 10.6896 10.0656 10.6306 8.94428C10.5814 7.97051 9.6568 7.60657 8.82074 7.29182L8.8181 7.2908C8.13058 7.02562 7.49283 6.77963 7.46336 6.21969C7.44369 5.81641 7.92566 5.52133 8.26992 5.50166C9.10598 5.46231 9.6273 5.75739 10.1683 6.29838ZM10.2765 8.96395C10.2765 9.39674 10.0404 9.77051 9.68631 9.9869L9.66664 9.97707C9.79451 9.80002 9.81418 9.57379 9.81418 9.35739C9.81418 8.72347 9.1276 8.47634 8.39686 8.21332L8.37811 8.20657L8.36583 8.20213C7.55316 7.90842 6.70598 7.60223 6.70598 6.741C6.70598 6.34756 6.88303 5.92461 7.22729 5.72789L7.23713 5.74756C7.14861 5.93444 7.10926 6.141 7.10926 6.34756C7.10926 7.04971 7.87311 7.3361 8.65305 7.62853L8.6732 7.63608C9.47975 7.93116 10.2765 8.22625 10.2765 8.96395Z" fill="white"/>
<path fill-rule="evenodd" clip-rule="evenodd" d="M8.41747 3.18034C5.78609 3.18034 3.64697 5.31946 3.64697 7.95084C3.64697 10.5822 5.78609 12.7213 8.41747 12.7213C11.0488 12.7213 13.188 10.5822 13.188 7.95084C13.188 5.31946 11.0488 3.18034 8.41747 3.18034ZM3.84369 7.95084C3.84369 5.42811 5.89474 3.37707 8.41747 3.37707C10.9402 3.37707 12.9912 5.42811 12.9912 7.95084C12.9912 10.4736 10.9402 12.5246 8.41747 12.5246C5.89474 12.5246 3.84369 10.4736 3.84369 7.95084Z" fill="white"/>
<path fill-rule="evenodd" clip-rule="evenodd" d="M2.46667 8C2.46667 4.68629 5.15297 2 8.46668 2C11.7804 2 14.4667 4.68629 14.4667 8C14.4667 11.3137 11.7804 14 8.46668 14C5.15297 14 2.46667 11.3137 2.46667 8ZM8.46668 2.39344C5.37026 2.39344 2.86012 4.90358 2.86012 8C2.86012 11.0964 5.37026 13.6066 8.46668 13.6066C11.5631 13.6066 14.0732 11.0964 14.0732 8C14.0732 4.90358 11.5631 2.39344 8.46668 2.39344Z" fill="white"/>
<path d="M8.46667 15C12.3327 15 15.4667 11.866 15.4667 8C15.4667 4.13401 12.3327 1 8.46667 1C4.60068 1 1.46667 4.13401 1.46667 8C1.46667 11.866 4.60068 15 8.46667 15Z" fill="#E91179"/>
<path d="M8.65147 12.1104C7.63787 12.1104 6.80347 11.892 6.15947 11.4496C5.56587 11.0464 5.18508 10.4864 5.02268 9.764C5.00027 9.652 5.06747 9.5456 5.17947 9.5176L6.58507 9.1536C6.70827 9.12 6.82587 9.1984 6.85947 9.3216C6.93227 9.5848 7.03307 9.7976 7.16747 9.96C7.34667 10.1672 7.55947 10.3184 7.81147 10.4136C8.07468 10.4976 8.35467 10.5368 8.65707 10.5368C9.11627 10.5368 9.45788 10.4584 9.67628 10.3016C9.89468 10.1336 10.0067 9.932 10.0067 9.6912C10.0067 9.4504 9.90027 9.2656 9.69308 9.1424C9.48588 9.008 9.14988 8.896 8.69068 8.812L8.25387 8.7336C7.71067 8.6272 7.21228 8.4872 6.76427 8.308C6.31627 8.1176 5.95227 7.8656 5.68348 7.5408C5.40907 7.216 5.27467 6.796 5.27467 6.2864C5.27467 5.5136 5.55467 4.92 6.12027 4.5112C6.68587 4.0912 7.42508 3.884 8.34907 3.884C9.21707 3.884 9.93948 4.08 10.5163 4.4664C11.0259 4.8136 11.3843 5.2504 11.5803 5.788C11.6195 5.9 11.5579 6.0176 11.4403 6.0512L10.0347 6.4824C9.91147 6.5216 9.78267 6.4432 9.74347 6.32C9.64827 6.04 9.49708 5.8384 9.28988 5.704C9.03788 5.536 8.72428 5.452 8.34907 5.452C7.97388 5.452 7.68267 5.5192 7.48667 5.6536C7.29067 5.7768 7.18987 5.956 7.18987 6.1856C7.18987 6.4376 7.29627 6.6224 7.50347 6.7512C7.71067 6.8688 7.99627 6.9528 8.34907 7.02L8.78588 7.0984C9.37388 7.2048 9.90028 7.3448 10.3707 7.524C10.8523 7.692 11.2275 7.9384 11.5019 8.2632C11.7819 8.5768 11.9275 9.008 11.9275 9.5512C11.9275 10.3688 11.6307 11.0016 11.0315 11.4496C10.4435 11.8864 9.65388 12.1104 8.66267 12.1104H8.65147Z" fill="white"/>
</g>
<defs>
<clipPath id="clip0_1677_1636">
<rect x="0.466675" width="16" height="16" rx="4" fill="white"/>
</clipPath>
</defs>
</svg>
