<svg width="17" height="16" viewBox="0 0 17 16" fill="none" xmlns="http://www.w3.org/2000/svg">
<g clip-path="url(#clip0_1677_1636)">
<rect x="0.533203" width="16" height="16" rx="4" fill="#E91179"/>
<circle cx="8.5332" cy="8" r="8" fill="#E6007A"/>
<path d="M10.442 8.78996C10.442 9.54198 11.0515 10.1525 11.8049 10.1525H12.1998V11.3496H11.7889C10.1681 11.3496 9.09512 10.3579 9.09512 8.80593V6.74958H6.54063C6.10689 6.74958 5.99275 7.24027 6.30093 7.46851L7.68205 8.40425C9.05176 9.20305 8.59518 11.3484 6.80317 11.3484H4.9084V10.1502H6.80317C7.2369 10.1502 7.36246 9.67092 7.05428 9.44269L5.66175 8.50695C4.29204 7.70814 4.76001 5.56277 6.54063 5.56277H9.09512V4.31892L10.442 3.60001V5.56277H12.1998V6.74958H10.442V8.78996Z" fill="white"/>
</g>
<defs>
<clipPath id="clip0_1677_1636">
<path d="M0.533203 8C0.533203 4.22876 0.533203 2.34315 1.70478 1.17157C2.87635 0 4.76197 0 8.5332 0C12.3044 0 14.1901 0 15.3616 1.17157C16.5332 2.34315 16.5332 4.22876 16.5332 8C16.5332 11.7712 16.5332 13.6569 15.3616 14.8284C14.1901 16 12.3044 16 8.5332 16C4.76197 16 2.87635 16 1.70478 14.8284C0.533203 13.6569 0.533203 11.7712 0.533203 8Z" fill="white"/>
</clipPath>
</defs>
</svg>
