<?xml version="1.0" encoding="UTF-8" standalone="no"?>
<svg
   width="16"
   height="16"
   viewBox="0 0 16 16"
   fill="none"
   version="1.1"
   id="svg2"
   sodipodi:docname="stride.svg"
   inkscape:version="1.3.2 (091e20ef0f, 2023-11-25)"
   xmlns:inkscape="http://www.inkscape.org/namespaces/inkscape"
   xmlns:sodipodi="http://sodipodi.sourceforge.net/DTD/sodipodi-0.dtd"
   xmlns="http://www.w3.org/2000/svg"
   xmlns:svg="http://www.w3.org/2000/svg">
  <sodipodi:namedview
     id="namedview2"
     pagecolor="#ffffff"
     bordercolor="#000000"
     borderopacity="0.25"
     inkscape:showpageshadow="2"
     inkscape:pageopacity="0.0"
     inkscape:pagecheckerboard="0"
     inkscape:deskcolor="#d1d1d1"
     inkscape:zoom="50.8125"
     inkscape:cx="8.501845"
     inkscape:cy="8"
     inkscape:window-width="1920"
     inkscape:window-height="1011"
     inkscape:window-x="0"
     inkscape:window-y="32"
     inkscape:window-maximized="1"
     inkscape:current-layer="svg2" />
  <g
     clip-path="url(#clip0_1677_1636)"
     id="g1"
     transform="translate(-0.51926099,0.00941488)">
    <rect
       x="0.53320163"
       width="16"
       height="16"
       rx="4"
       fill="#e91179"
       id="rect1"
       y="0" />
    <circle
       cx="8.5332012"
       cy="8"
       r="8"
       fill="#e6007a"
       id="circle1" />
    <path
       d="m 10.442073,8.78996 c 0,0.75202 0.6095,1.36254 1.3629,1.36254 h 0.3949 v 1.1971 h -0.4109 c -1.6208,0 -2.6937805,-0.9917 -2.6937805,-2.54367 V 6.74958 h -2.55449 c -0.43374,0 -0.54788,0.49069 -0.2397,0.71893 l 1.38112,0.93574 c 1.36971,0.7988 0.91313,2.94415 -0.87888,2.94415 h -1.89477 v -1.1982 h 1.89477 c 0.43373,0 0.55929,-0.47928 0.25111,-0.70751 l -1.39253,-0.93574 c -1.36971,-0.79881 -0.90174,-2.94418 0.87888,-2.94418 h 2.55449 V 4.31892 L 10.442073,3.60001 v 1.96276 h 1.7578 v 1.18681 h -1.7578 z"
       fill="#ffffff"
       id="path1" />
  </g>
  <defs
     id="defs2">
    <clipPath
       id="clip0_1677_1636">
      <path
         d="m 0.533203,8 c 0,-3.77124 0,-5.65685 1.171577,-6.82843 C 2.87635,0 4.76197,0 8.5332,0 c 3.7712,0 5.6569,0 6.8284,1.17157 1.1716,1.17158 1.1716,3.05719 1.1716,6.82843 0,3.7712 0,5.6569 -1.1716,6.8284 C 14.1901,16 12.3044,16 8.5332,16 4.76197,16 2.87635,16 1.70478,14.8284 0.533203,13.6569 0.533203,11.7712 0.533203,8 Z"
         fill="#ffffff"
         id="path2" />
    </clipPath>
  </defs>
</svg>
