<svg width="16" height="16" viewBox="0 0 16 16" fill="none" xmlns="http://www.w3.org/2000/svg">
<g clip-path="url(#clip0_1677_1636)">
<rect width="16" height="16" rx="4" fill="#E91179"/>
<path d="M8 13.8033C11.2051 13.8033 13.8033 11.2051 13.8033 8C13.8033 4.79494 11.2051 2.19672 8 2.19672C4.79494 2.19672 2.19672 4.79494 2.19672 8C2.19672 11.2051 4.79494 13.8033 8 13.8033Z" fill="#1B1B1B"/>
<path fill-rule="evenodd" clip-rule="evenodd" d="M9.7016 6.29838C9.78029 6.37707 9.90816 6.36723 9.96718 6.2787C10.0262 6.20985 10.0164 6.10166 9.94751 6.04264C9.29833 5.42297 8.718 5.10821 7.75406 5.15739C6.74095 5.20657 5.84587 5.73772 5.90488 6.85903C5.95377 7.84649 6.90642 8.212 7.7486 8.53513L7.7639 8.541C8.41308 8.7869 8.98357 9.0033 9.01308 9.46559C9.04259 9.97707 8.52128 10.282 8.06882 10.3115C7.21308 10.3607 6.71144 10.0558 6.15078 9.51477C6.08193 9.44592 5.97373 9.44592 5.90488 9.50494C5.82619 9.57379 5.82619 9.69182 5.89505 9.77051C6.52455 10.4 7.17373 10.7148 8.118 10.6656C9.06226 10.5967 10.2229 10.0656 10.1639 8.94428C10.1147 7.97051 9.19013 7.60657 8.35406 7.29182L8.35143 7.2908C7.66391 7.02562 7.02616 6.77963 6.99669 6.21969C6.97701 5.81641 7.45898 5.52133 7.80324 5.50166C8.63931 5.46231 9.16062 5.75739 9.7016 6.29838ZM9.8098 8.96395C9.8098 9.39674 9.57374 9.77051 9.21964 9.9869L9.19996 9.97707C9.32783 9.80002 9.34751 9.57379 9.34751 9.35739C9.34751 8.72347 8.66093 8.47634 7.93018 8.21332L7.91144 8.20657L7.89916 8.20213C7.08649 7.90842 6.23931 7.60223 6.23931 6.741C6.23931 6.34756 6.41636 5.92461 6.76062 5.72789L6.77046 5.74756C6.68193 5.93444 6.64259 6.141 6.64259 6.34756C6.64259 7.04971 7.40643 7.3361 8.18638 7.62853L8.20652 7.63608C9.01308 7.93116 9.8098 8.22625 9.8098 8.96395Z" fill="white"/>
<path fill-rule="evenodd" clip-rule="evenodd" d="M7.95079 3.18034C5.31942 3.18034 3.1803 5.31946 3.1803 7.95084C3.1803 10.5822 5.31942 12.7213 7.95079 12.7213C10.5822 12.7213 12.7213 10.5822 12.7213 7.95084C12.7213 5.31946 10.5822 3.18034 7.95079 3.18034ZM3.37702 7.95084C3.37702 5.42811 5.42806 3.37707 7.95079 3.37707C10.4735 3.37707 12.5246 5.42811 12.5246 7.95084C12.5246 10.4736 10.4735 12.5246 7.95079 12.5246C5.42806 12.5246 3.37702 10.4736 3.37702 7.95084Z" fill="white"/>
<path fill-rule="evenodd" clip-rule="evenodd" d="M2 8C2 4.68629 4.68629 2 8 2C11.3137 2 14 4.68629 14 8C14 11.3137 11.3137 14 8 14C4.68629 14 2 11.3137 2 8ZM8 2.39344C4.90358 2.39344 2.39344 4.90358 2.39344 8C2.39344 11.0964 4.90358 13.6066 8 13.6066C11.0964 13.6066 13.6066 11.0964 13.6066 8C13.6066 4.90358 11.0964 2.39344 8 2.39344Z" fill="white"/>
<path d="M8 15C11.866 15 15 11.866 15 8C15 4.13401 11.866 1 8 1C4.13401 1 1 4.13401 1 8C1 11.866 4.13401 15 8 15Z" fill="#E91179"/>
<path d="M8.1848 12.1104C7.1712 12.1104 6.3368 11.892 5.6928 11.4496C5.0992 11.0464 4.7184 10.4864 4.556 9.764C4.5336 9.652 4.6008 9.5456 4.7128 9.5176L6.1184 9.1536C6.2416 9.12 6.3592 9.1984 6.3928 9.3216C6.4656 9.5848 6.5664 9.7976 6.7008 9.96C6.88 10.1672 7.0928 10.3184 7.3448 10.4136C7.608 10.4976 7.888 10.5368 8.1904 10.5368C8.6496 10.5368 8.9912 10.4584 9.2096 10.3016C9.428 10.1336 9.54 9.932 9.54 9.6912C9.54 9.4504 9.4336 9.2656 9.2264 9.1424C9.0192 9.008 8.6832 8.896 8.224 8.812L7.7872 8.7336C7.244 8.6272 6.7456 8.4872 6.2976 8.308C5.8496 8.1176 5.4856 7.8656 5.2168 7.5408C4.9424 7.216 4.808 6.796 4.808 6.2864C4.808 5.5136 5.088 4.92 5.6536 4.5112C6.2192 4.0912 6.9584 3.884 7.8824 3.884C8.7504 3.884 9.4728 4.08 10.0496 4.4664C10.5592 4.8136 10.9176 5.2504 11.1136 5.788C11.1528 5.9 11.0912 6.0176 10.9736 6.0512L9.568 6.4824C9.4448 6.5216 9.316 6.4432 9.2768 6.32C9.1816 6.04 9.0304 5.8384 8.8232 5.704C8.5712 5.536 8.2576 5.452 7.8824 5.452C7.5072 5.452 7.216 5.5192 7.02 5.6536C6.824 5.7768 6.7232 5.956 6.7232 6.1856C6.7232 6.4376 6.8296 6.6224 7.0368 6.7512C7.244 6.8688 7.5296 6.9528 7.8824 7.02L8.3192 7.0984C8.9072 7.2048 9.4336 7.3448 9.904 7.524C10.3856 7.692 10.7608 7.9384 11.0352 8.2632C11.3152 8.5768 11.4608 9.008 11.4608 9.5512C11.4608 10.3688 11.164 11.0016 10.5648 11.4496C9.9768 11.8864 9.1872 12.1104 8.196 12.1104H8.1848Z" fill="white"/>
</g>
<defs>
<clipPath id="clip0_1677_1636">
<rect width="16" height="16" rx="4" fill="white"/>
</clipPath>
</defs>
</svg>
