<svg width="17" height="16" viewBox="0 0 17 16" fill="none" xmlns="http://www.w3.org/2000/svg">
<g clip-path="url(#clip0_2530_65075)">
<rect x="0.533203" width="16" height="16" rx="4" fill="white" fill-opacity="0.08"/>
<path fill-rule="evenodd" clip-rule="evenodd" d="M12.7533 12.2651C13.2258 11.7974 13.6212 11.252 13.9182 10.6493C13.6506 10.5626 13.3914 10.4645 13.1439 10.3604C11.7618 9.7787 10.1994 9.6638 8.8062 10.1522C6.2256 11.0567 4.3323 10.9643 3.0747 10.4948C3.4749 11.3693 4.0791 12.1307 4.8264 12.7187C5.6931 12.6896 6.7347 12.5024 7.9692 12.0698C9.5289 11.5229 11.2482 11.6495 12.7533 12.2654V12.2651ZM12.1761 12.7679C10.8888 12.3131 9.477 12.2567 8.2062 12.7022C7.3011 13.0196 6.4803 13.214 5.742 13.3127C6.5757 13.7516 7.5255 14 8.5332 14C9.9033 14 11.166 13.5407 12.1761 12.7679ZM13.4214 9.7433C13.6707 9.8483 13.9254 9.9437 14.1828 10.0253C14.4096 9.3926 14.5332 8.7107 14.5332 8H2.5332C2.5332 8.549 2.607 9.0812 2.7453 9.5864C3.7275 10.1768 5.5848 10.5656 8.5695 9.5195C10.1529 8.9645 11.9004 9.1031 13.4217 9.7433H13.4214Z" fill="#6495ED"/>
<path fill-rule="evenodd" clip-rule="evenodd" d="M2.5332 8C2.5332 4.6862 5.2194 2 8.5332 2C11.847 2 14.5332 4.6862 14.5332 8H11.7732C11.7732 6.2105 10.3227 4.76 8.5332 4.76C6.7437 4.76 5.2932 6.2105 5.2932 8H2.5332Z" fill="#EDBC64"/>
</g>
<defs>
<clipPath id="clip0_2530_65075">
<path d="M0.533203 8C0.533203 4.22876 0.533203 2.34315 1.70478 1.17157C2.87635 0 4.76197 0 8.5332 0C12.3044 0 14.1901 0 15.3616 1.17157C16.5332 2.34315 16.5332 4.22876 16.5332 8C16.5332 11.7712 16.5332 13.6569 15.3616 14.8284C14.1901 16 12.3044 16 8.5332 16C4.76197 16 2.87635 16 1.70478 14.8284C0.533203 13.6569 0.533203 11.7712 0.533203 8Z" fill="white"/>
</clipPath>
</defs>
</svg>
