<svg width="16" height="16" viewBox="0 0 16 16" fill="none" xmlns="http://www.w3.org/2000/svg">
<g clip-path="url(#clip0_1768_6557)">
<rect width="16" height="16" rx="4" fill="white" fill-opacity="0.08"/>
<path d="M6.33777 12.8219C6.29113 12.7808 6.26192 12.7234 6.2561 12.6614L5.79248 7.7291H7.44246V13.2548C7.44246 13.4656 7.19382 13.5777 7.03582 13.4383L6.33777 12.8219Z" fill="black"/>
<path d="M7.44246 7.63122V6.9427L5.70444 6.79254L5.78328 7.63122H7.44246Z" fill="black"/>
<path d="M7.44246 6.84446L5.69513 6.6935L5.42203 3.78805C5.40853 3.6445 5.52146 3.52046 5.66564 3.52046H7.19778C7.33292 3.52046 7.44246 3.63001 7.44246 3.76515V6.84446Z" fill="black"/>
<path d="M10.6674 7.63122H11.9251C11.9927 7.63122 12.0475 7.57642 12.0475 7.50888V6.78734C12.0475 6.71507 11.9851 6.65855 11.9132 6.66558L10.7453 6.77963L10.6674 7.63122Z" fill="black"/>
<path d="M10.6461 6.78931L8.90567 6.95925V7.63122H10.5691L10.6461 6.78931Z" fill="black"/>
<path d="M8.80783 6.96881V7.63122H4.17346C4.10589 7.63122 4.05111 7.57642 4.05111 7.50888V6.78572C4.05111 6.71404 4.11246 6.65772 4.18388 6.66382L8.30264 7.0161C8.31004 7.01673 8.31753 7.01669 8.32497 7.01596L8.80783 6.96881Z" fill="black"/>
<path d="M9.32458 13.4216C9.17092 13.5774 8.90567 13.4686 8.90567 13.2498V5.65906H10.7518L10.1096 12.5471C10.1044 12.6033 10.0798 12.656 10.0402 12.6962L9.32458 13.4216Z" fill="black"/>
<path d="M10.761 5.56118H8.90567V4.50622L10.8708 4.38363L10.761 5.56118Z" fill="black"/>
<path d="M8.90567 3.76519V4.40815L10.88 4.28499L10.9263 3.7879C10.9397 3.64442 10.8268 3.5205 10.6827 3.5205H9.15039C9.01525 3.5205 8.90567 3.63005 8.90567 3.76519Z" fill="black"/>
<path d="M7.44246 5.56119V4.50929L5.4798 4.4127L5.58718 5.56119H7.44246Z" fill="black"/>
<path d="M7.54035 5.56119H12.4879C12.542 5.56119 12.5858 5.51737 12.5858 5.46331V4.37598C12.5858 4.31948 12.5381 4.27472 12.4817 4.2783L8.2328 4.54818L7.54035 4.51411V5.56119Z" fill="black"/>
<path d="M5.37298 4.40744L5.49021 5.56119H3.50791C3.45385 5.56119 3.41003 5.51737 3.41003 5.46331V4.41365C3.41003 4.35771 3.45684 4.31314 3.51272 4.31589L5.37298 4.40744Z" fill="black"/>
<path d="M6.33777 12.8015C6.29113 12.7603 6.26192 12.7029 6.2561 12.641L5.79248 7.70866H7.44246V13.2344C7.44246 13.4451 7.19382 13.5573 7.03582 13.4178L6.33777 12.8015Z" fill="url(#paint0_linear_1768_6557)"/>
<path d="M7.44246 7.61077V6.92224L5.70444 6.77207L5.78328 7.61077H7.44246Z" fill="url(#paint1_linear_1768_6557)"/>
<path d="M7.44246 6.824L5.69513 6.67303L5.42203 3.76759C5.40853 3.62404 5.52146 3.5 5.66564 3.5H7.19778C7.33292 3.5 7.44246 3.60955 7.44246 3.74469V6.824Z" fill="url(#paint2_linear_1768_6557)"/>
<path d="M10.6674 7.61073H11.9251C11.9927 7.61073 12.0475 7.55598 12.0475 7.48839V6.76688C12.0475 6.69461 11.9851 6.63809 11.9132 6.64511L10.7453 6.75916L10.6674 7.61073Z" fill="url(#paint3_linear_1768_6557)"/>
<path d="M10.6461 6.76884L8.90567 6.93879V7.61073H10.5691L10.6461 6.76884Z" fill="url(#paint4_linear_1768_6557)"/>
<path d="M8.80783 6.94835V7.61073H4.17346C4.10589 7.61073 4.05111 7.55598 4.05111 7.48839V6.76526C4.05111 6.69358 4.11246 6.63725 4.18388 6.64336L8.30264 6.99563C8.31004 6.99627 8.31753 6.99622 8.32497 6.9955L8.80783 6.94835Z" fill="url(#paint5_linear_1768_6557)"/>
<path d="M9.32458 13.4012C9.17092 13.5569 8.90567 13.4481 8.90567 13.2293V5.63859H10.7518L10.1096 12.5266C10.1044 12.5828 10.0798 12.6355 10.0402 12.6757L9.32458 13.4012Z" fill="url(#paint6_linear_1768_6557)"/>
<path d="M10.761 5.54072H8.90567V4.48575L10.8708 4.36317L10.761 5.54072Z" fill="url(#paint7_linear_1768_6557)"/>
<path d="M8.90567 3.74472V4.38769L10.88 4.26453L10.9263 3.76744C10.9397 3.62395 10.8268 3.50004 10.6827 3.50004H9.15039C9.01525 3.50004 8.90567 3.60959 8.90567 3.74472Z" fill="url(#paint8_linear_1768_6557)"/>
<path d="M7.44246 5.54072V4.48883L5.4798 4.39224L5.58718 5.54072H7.44246Z" fill="url(#paint9_linear_1768_6557)"/>
<path d="M7.54035 5.54072H12.4879C12.542 5.54072 12.5858 5.4969 12.5858 5.44285V4.35552C12.5858 4.29902 12.5381 4.25425 12.4817 4.25784L8.2328 4.52772L7.54035 4.49364V5.54072Z" fill="url(#paint10_linear_1768_6557)"/>
<path d="M5.37298 4.38698L5.49021 5.54072H3.50791C3.45385 5.54072 3.41003 5.4969 3.41003 5.44285V4.39319C3.41003 4.33724 3.45684 4.29268 3.51272 4.29543L5.37298 4.38698Z" fill="url(#paint11_linear_1768_6557)"/>
<path d="M5.78851 6.6811L5.69513 6.67303L5.5887 5.54072H5.58718L5.4798 4.39224L5.48075 4.39228L5.42203 3.76759C5.40853 3.62404 5.52146 3.5 5.66564 3.5H7.19778C7.29166 3.5 7.3732 3.55287 7.41421 3.63046C7.38011 3.61243 7.34126 3.60222 7.3 3.60222H5.76786C5.62368 3.60222 5.51076 3.72626 5.52425 3.86981L5.58297 4.49451L5.58202 4.49446L5.6894 5.64295H5.69092L5.78851 6.6811Z" fill="white"/>
<path d="M7.54468 5.54071L7.64257 5.54072V4.59586L8.33503 4.62995L12.5839 4.36006L12.5858 4.35996V4.35552C12.5858 4.29902 12.5381 4.25425 12.4817 4.25784L10.9835 4.353H10.9822L8.2328 4.52772L7.54468 4.49386V5.54071Z" fill="white"/>
<path d="M10.8991 3.63046C10.8652 3.61249 10.8263 3.60226 10.7849 3.60226H9.25261C9.11748 3.60226 9.00789 3.71181 9.00789 3.84694V4.38131L8.90567 4.38769V3.74472C8.90567 3.60959 9.01525 3.50004 9.15039 3.50004H10.6827C10.7772 3.50004 10.8583 3.55332 10.8991 3.63046Z" fill="white"/>
<path d="M8.90567 5.64295H10.7514L10.7423 5.74082H9.00789V13.3315C9.00789 13.3739 9.01787 13.4122 9.035 13.4452C8.96063 13.4057 8.90567 13.3289 8.90567 13.2293V7.71295H8.91005V7.05057L8.90567 7.051V5.64295Z" fill="white"/>
<path d="M8.80783 7.06055V6.94835L8.32497 6.9955C8.31753 6.99622 8.31004 6.99627 8.30264 6.99563L5.70444 6.77207L5.70457 6.77342L4.18388 6.64336C4.11246 6.63725 4.05111 6.69358 4.05111 6.76526V7.48839C4.05111 7.5496 4.09606 7.60034 4.15476 7.60934C4.15382 7.60325 4.15333 7.59699 4.15333 7.59061V6.86748C4.15333 6.7958 4.21468 6.73948 4.2861 6.74558L5.80679 6.87564L5.80667 6.8743L8.40486 7.09786C8.41227 7.09849 8.41975 7.09844 8.42719 7.09772L8.80783 7.06055Z" fill="white"/>
<path d="M5.79289 7.71295L6.2561 12.641C6.26192 12.7029 6.29113 12.7603 6.33777 12.8015L6.39671 12.8535C6.37537 12.8206 6.36205 12.7829 6.35832 12.7432L5.8947 7.81088H7.44246V7.71299L5.79289 7.71295Z" fill="white"/>
<path d="M10.6807 7.61073H10.7789L10.8475 6.86138L12.0154 6.74734C12.0259 6.74631 12.0362 6.74664 12.046 6.74816C12.0364 6.68513 11.9788 6.63871 11.9132 6.64511L10.7593 6.75779L10.7287 7.08518L10.6807 7.61073Z" fill="white"/>
<path d="M5.3829 4.48466L5.37298 4.38698L3.51272 4.29543C3.45684 4.29268 3.41003 4.33724 3.41003 4.39319V5.44285C3.41003 5.4969 3.45385 5.54072 3.50791 5.54072H3.51226V4.49541C3.51226 4.43946 3.55907 4.3949 3.61494 4.39765L5.3829 4.48466Z" fill="white"/>
</g>
<defs>
<linearGradient id="paint0_linear_1768_6557" x1="-9.83897" y1="4.85352" x2="41.1882" y2="4.85352" gradientUnits="userSpaceOnUse">
<stop stop-color="#5433FF"/>
<stop offset="0.5" stop-color="#20BDFF"/>
<stop offset="1" stop-color="#A5FECB"/>
</linearGradient>
<linearGradient id="paint1_linear_1768_6557" x1="-8.70312" y1="23.9804" x2="39.7394" y2="23.9804" gradientUnits="userSpaceOnUse">
<stop stop-color="#5433FF"/>
<stop offset="0.5" stop-color="#20BDFF"/>
<stop offset="1" stop-color="#A5FECB"/>
</linearGradient>
<linearGradient id="paint2_linear_1768_6557" x1="-5.71744" y1="18.5113" x2="35.9312" y2="18.5113" gradientUnits="userSpaceOnUse">
<stop stop-color="#5433FF"/>
<stop offset="0.5" stop-color="#20BDFF"/>
<stop offset="1" stop-color="#A5FECB"/>
</linearGradient>
<linearGradient id="paint3_linear_1768_6557" x1="-44.8416" y1="22.5977" x2="16.1648" y2="22.5977" gradientUnits="userSpaceOnUse">
<stop stop-color="#5433FF"/>
<stop offset="0.5" stop-color="#20BDFF"/>
<stop offset="1" stop-color="#A5FECB"/>
</linearGradient>
<linearGradient id="paint4_linear_1768_6557" x1="-25.5634" y1="23.9412" x2="22.8117" y2="23.9412" gradientUnits="userSpaceOnUse">
<stop stop-color="#5433FF"/>
<stop offset="0.5" stop-color="#20BDFF"/>
<stop offset="1" stop-color="#A5FECB"/>
</linearGradient>
<linearGradient id="paint5_linear_1768_6557" x1="2.17339" y1="22.5825" x2="19.8734" y2="22.5825" gradientUnits="userSpaceOnUse">
<stop stop-color="#5433FF"/>
<stop offset="0.5" stop-color="#20BDFF"/>
<stop offset="1" stop-color="#A5FECB"/>
</linearGradient>
<linearGradient id="paint6_linear_1768_6557" x1="-23.904" y1="7.13859" x2="21.7005" y2="7.13859" gradientUnits="userSpaceOnUse">
<stop stop-color="#5433FF"/>
<stop offset="0.5" stop-color="#20BDFF"/>
<stop offset="1" stop-color="#A5FECB"/>
</linearGradient>
<linearGradient id="paint7_linear_1768_6557" x1="-22.2507" y1="38.5438" x2="20.5934" y2="38.5438" gradientUnits="userSpaceOnUse">
<stop stop-color="#5433FF"/>
<stop offset="0.5" stop-color="#20BDFF"/>
<stop offset="1" stop-color="#A5FECB"/>
</linearGradient>
<linearGradient id="paint8_linear_1768_6557" x1="-21.5322" y1="59.7127" x2="20.1123" y2="59.7127" gradientUnits="userSpaceOnUse">
<stop stop-color="#5433FF"/>
<stop offset="0.5" stop-color="#20BDFF"/>
<stop offset="1" stop-color="#A5FECB"/>
</linearGradient>
<linearGradient id="paint9_linear_1768_6557" x1="-6.26638" y1="39.1776" x2="36.6314" y2="39.1776" gradientUnits="userSpaceOnUse">
<stop stop-color="#5433FF"/>
<stop offset="0.5" stop-color="#20BDFF"/>
<stop offset="1" stop-color="#A5FECB"/>
</linearGradient>
<linearGradient id="paint10_linear_1768_6557" x1="-4.10147" y1="36.4839" x2="12.5858" y2="36.4839" gradientUnits="userSpaceOnUse">
<stop stop-color="#5433FF"/>
<stop offset="0.5" stop-color="#20BDFF"/>
<stop offset="1" stop-color="#A5FECB"/>
</linearGradient>
<linearGradient id="paint11_linear_1768_6557" x1="3.41003" y1="37.1792" x2="43.8845" y2="37.1792" gradientUnits="userSpaceOnUse">
<stop stop-color="#5433FF"/>
<stop offset="0.5" stop-color="#20BDFF"/>
<stop offset="1" stop-color="#A5FECB"/>
</linearGradient>
<clipPath id="clip0_1768_6557">
<rect width="16" height="16" rx="4" fill="white"/>
</clipPath>
</defs>
</svg>
