<svg width="17" height="16" viewBox="0 0 17 16" fill="none" xmlns="http://www.w3.org/2000/svg">
<g clip-path="url(#clip0_1768_6557)">
<rect x="0.466675" width="16" height="16" rx="4" fill="white" fill-opacity="0.08"/>
<path d="M6.80444 12.8219C6.7578 12.7808 6.7286 12.7234 6.72278 12.6614L6.25915 7.7291H7.90914V13.2548C7.90914 13.4656 7.66049 13.5777 7.5025 13.4383L6.80444 12.8219Z" fill="black"/>
<path d="M7.90914 7.63122V6.9427L6.17112 6.79254L6.24995 7.63122H7.90914Z" fill="black"/>
<path d="M7.90914 6.84446L6.16181 6.6935L5.8887 3.78805C5.87521 3.6445 5.98814 3.52046 6.13232 3.52046H7.66446C7.79959 3.52046 7.90914 3.63001 7.90914 3.76515V6.84446Z" fill="black"/>
<path d="M11.134 7.63122H12.3918C12.4593 7.63122 12.5141 7.57642 12.5141 7.50888V6.78734C12.5141 6.71507 12.4518 6.65855 12.3799 6.66558L11.2119 6.77963L11.134 7.63122Z" fill="black"/>
<path d="M11.1128 6.78931L9.37235 6.95925V7.63122H11.0357L11.1128 6.78931Z" fill="black"/>
<path d="M9.2745 6.96881V7.63122H4.64013C4.57256 7.63122 4.51779 7.57642 4.51779 7.50888V6.78572C4.51779 6.71404 4.57914 6.65772 4.65056 6.66382L8.76932 7.0161C8.77672 7.01673 8.7842 7.01669 8.79164 7.01596L9.2745 6.96881Z" fill="black"/>
<path d="M9.79125 13.4216C9.63759 13.5774 9.37235 13.4686 9.37235 13.2498V5.65906H11.2185L10.5763 12.5471C10.571 12.6033 10.5465 12.656 10.5069 12.6962L9.79125 13.4216Z" fill="black"/>
<path d="M11.2277 5.56118H9.37235V4.50622L11.3375 4.38363L11.2277 5.56118Z" fill="black"/>
<path d="M9.37235 3.76519V4.40815L11.3467 4.28499L11.393 3.7879C11.4064 3.64442 11.2935 3.5205 11.1494 3.5205H9.61707C9.48193 3.5205 9.37235 3.63005 9.37235 3.76519Z" fill="black"/>
<path d="M7.90914 5.56119V4.50929L5.94647 4.4127L6.05385 5.56119H7.90914Z" fill="black"/>
<path d="M8.00702 5.56119H12.9546C13.0086 5.56119 13.0524 5.51737 13.0524 5.46331V4.37598C13.0524 4.31948 13.0048 4.27472 12.9484 4.2783L8.69948 4.54818L8.00702 4.51411V5.56119Z" fill="black"/>
<path d="M5.83965 4.40744L5.95689 5.56119H3.97458C3.92053 5.56119 3.87671 5.51737 3.87671 5.46331V4.41365C3.87671 4.35771 3.92352 4.31314 3.97939 4.31589L5.83965 4.40744Z" fill="black"/>
<path d="M6.80444 12.8015C6.7578 12.7603 6.7286 12.7029 6.72278 12.641L6.25915 7.70866H7.90914V13.2344C7.90914 13.4451 7.66049 13.5573 7.5025 13.4178L6.80444 12.8015Z" fill="url(#paint0_linear_1768_6557)"/>
<path d="M7.90914 7.61077V6.92224L6.17112 6.77207L6.24995 7.61077H7.90914Z" fill="url(#paint1_linear_1768_6557)"/>
<path d="M7.90914 6.824L6.16181 6.67303L5.8887 3.76759C5.87521 3.62404 5.98814 3.5 6.13232 3.5H7.66446C7.79959 3.5 7.90914 3.60955 7.90914 3.74469V6.824Z" fill="url(#paint2_linear_1768_6557)"/>
<path d="M11.134 7.61073H12.3918C12.4593 7.61073 12.5141 7.55598 12.5141 7.48839V6.76688C12.5141 6.69461 12.4518 6.63809 12.3799 6.64511L11.2119 6.75916L11.134 7.61073Z" fill="url(#paint3_linear_1768_6557)"/>
<path d="M11.1128 6.76884L9.37235 6.93879V7.61073H11.0357L11.1128 6.76884Z" fill="url(#paint4_linear_1768_6557)"/>
<path d="M9.2745 6.94835V7.61073H4.64013C4.57256 7.61073 4.51779 7.55598 4.51779 7.48839V6.76526C4.51779 6.69358 4.57914 6.63725 4.65056 6.64336L8.76932 6.99563C8.77672 6.99627 8.7842 6.99622 8.79164 6.9955L9.2745 6.94835Z" fill="url(#paint5_linear_1768_6557)"/>
<path d="M9.79125 13.4012C9.63759 13.5569 9.37235 13.4481 9.37235 13.2293V5.63859H11.2185L10.5763 12.5266C10.571 12.5828 10.5465 12.6355 10.5069 12.6757L9.79125 13.4012Z" fill="url(#paint6_linear_1768_6557)"/>
<path d="M11.2277 5.54072H9.37235V4.48575L11.3375 4.36317L11.2277 5.54072Z" fill="url(#paint7_linear_1768_6557)"/>
<path d="M9.37235 3.74472V4.38769L11.3467 4.26453L11.393 3.76744C11.4064 3.62395 11.2935 3.50004 11.1494 3.50004H9.61707C9.48193 3.50004 9.37235 3.60959 9.37235 3.74472Z" fill="url(#paint8_linear_1768_6557)"/>
<path d="M7.90914 5.54072V4.48883L5.94647 4.39224L6.05385 5.54072H7.90914Z" fill="url(#paint9_linear_1768_6557)"/>
<path d="M8.00702 5.54072H12.9546C13.0086 5.54072 13.0524 5.4969 13.0524 5.44285V4.35552C13.0524 4.29902 13.0048 4.25425 12.9484 4.25784L8.69948 4.52772L8.00702 4.49364V5.54072Z" fill="url(#paint10_linear_1768_6557)"/>
<path d="M5.83965 4.38698L5.95689 5.54072H3.97458C3.92053 5.54072 3.87671 5.4969 3.87671 5.44285V4.39319C3.87671 4.33724 3.92352 4.29268 3.97939 4.29543L5.83965 4.38698Z" fill="url(#paint11_linear_1768_6557)"/>
<path d="M6.25518 6.6811L6.16181 6.67303L6.05537 5.54072H6.05385L5.94647 4.39224L5.94742 4.39228L5.8887 3.76759C5.87521 3.62404 5.98814 3.5 6.13232 3.5H7.66446C7.75834 3.5 7.83987 3.55287 7.88088 3.63046C7.84678 3.61243 7.80794 3.60222 7.76668 3.60222H6.23454C6.09036 3.60222 5.97743 3.72626 5.99093 3.86981L6.04965 4.49451L6.04869 4.49446L6.15608 5.64295H6.1576L6.25518 6.6811Z" fill="white"/>
<path d="M8.01136 5.54071L8.10925 5.54072V4.59586L8.8017 4.62995L13.0506 4.36006L13.0524 4.35996V4.35552C13.0524 4.29902 13.0048 4.25425 12.9484 4.25784L11.4502 4.353H11.4489L8.69948 4.52772L8.01136 4.49386V5.54071Z" fill="white"/>
<path d="M11.3658 3.63046C11.3318 3.61249 11.293 3.60226 11.2516 3.60226H9.71929C9.58415 3.60226 9.47457 3.71181 9.47457 3.84694V4.38131L9.37235 4.38769V3.74472C9.37235 3.60959 9.48193 3.50004 9.61707 3.50004H11.1494C11.2439 3.50004 11.325 3.55332 11.3658 3.63046Z" fill="white"/>
<path d="M9.37235 5.64295H11.2181L11.209 5.74082H9.47457V13.3315C9.47457 13.3739 9.48455 13.4122 9.50168 13.4452C9.4273 13.4057 9.37235 13.3289 9.37235 13.2293V7.71295H9.37672V7.05057L9.37235 7.051V5.64295Z" fill="white"/>
<path d="M9.2745 7.06055V6.94835L8.79164 6.9955C8.7842 6.99622 8.77672 6.99627 8.76932 6.99563L6.17112 6.77207L6.17125 6.77342L4.65056 6.64336C4.57914 6.63725 4.51779 6.69358 4.51779 6.76526V7.48839C4.51779 7.5496 4.56274 7.60034 4.62143 7.60934C4.6205 7.60325 4.62001 7.59699 4.62001 7.59061V6.86748C4.62001 6.7958 4.68136 6.73948 4.75278 6.74558L6.27347 6.87564L6.27334 6.8743L8.87154 7.09786C8.87894 7.09849 8.88642 7.09844 8.89386 7.09772L9.2745 7.06055Z" fill="white"/>
<path d="M6.25956 7.71295L6.72278 12.641C6.7286 12.7029 6.7578 12.7603 6.80444 12.8015L6.86338 12.8535C6.84205 12.8206 6.82873 12.7829 6.825 12.7432L6.36137 7.81088H7.90914V7.71299L6.25956 7.71295Z" fill="white"/>
<path d="M11.1473 7.61073H11.2456L11.3142 6.86138L12.4821 6.74734C12.4926 6.74631 12.5028 6.74664 12.5127 6.74816C12.503 6.68513 12.4455 6.63871 12.3799 6.64511L11.2259 6.75779L11.1954 7.08518L11.1473 7.61073Z" fill="white"/>
<path d="M5.84958 4.48466L5.83965 4.38698L3.97939 4.29543C3.92352 4.29268 3.87671 4.33724 3.87671 4.39319V5.44285C3.87671 5.4969 3.92053 5.54072 3.97458 5.54072H3.97893V4.49541C3.97893 4.43946 4.02574 4.3949 4.08162 4.39765L5.84958 4.48466Z" fill="white"/>
</g>
<defs>
<linearGradient id="paint0_linear_1768_6557" x1="-9.3723" y1="4.85352" x2="41.6548" y2="4.85352" gradientUnits="userSpaceOnUse">
<stop stop-color="#5433FF"/>
<stop offset="0.5" stop-color="#20BDFF"/>
<stop offset="1" stop-color="#A5FECB"/>
</linearGradient>
<linearGradient id="paint1_linear_1768_6557" x1="-8.23644" y1="23.9804" x2="40.2061" y2="23.9804" gradientUnits="userSpaceOnUse">
<stop stop-color="#5433FF"/>
<stop offset="0.5" stop-color="#20BDFF"/>
<stop offset="1" stop-color="#A5FECB"/>
</linearGradient>
<linearGradient id="paint2_linear_1768_6557" x1="-5.25077" y1="18.5113" x2="36.3979" y2="18.5113" gradientUnits="userSpaceOnUse">
<stop stop-color="#5433FF"/>
<stop offset="0.5" stop-color="#20BDFF"/>
<stop offset="1" stop-color="#A5FECB"/>
</linearGradient>
<linearGradient id="paint3_linear_1768_6557" x1="-44.375" y1="22.5977" x2="16.6314" y2="22.5977" gradientUnits="userSpaceOnUse">
<stop stop-color="#5433FF"/>
<stop offset="0.5" stop-color="#20BDFF"/>
<stop offset="1" stop-color="#A5FECB"/>
</linearGradient>
<linearGradient id="paint4_linear_1768_6557" x1="-25.0967" y1="23.9412" x2="23.2784" y2="23.9412" gradientUnits="userSpaceOnUse">
<stop stop-color="#5433FF"/>
<stop offset="0.5" stop-color="#20BDFF"/>
<stop offset="1" stop-color="#A5FECB"/>
</linearGradient>
<linearGradient id="paint5_linear_1768_6557" x1="2.64007" y1="22.5825" x2="20.3401" y2="22.5825" gradientUnits="userSpaceOnUse">
<stop stop-color="#5433FF"/>
<stop offset="0.5" stop-color="#20BDFF"/>
<stop offset="1" stop-color="#A5FECB"/>
</linearGradient>
<linearGradient id="paint6_linear_1768_6557" x1="-23.4373" y1="7.13859" x2="22.1672" y2="7.13859" gradientUnits="userSpaceOnUse">
<stop stop-color="#5433FF"/>
<stop offset="0.5" stop-color="#20BDFF"/>
<stop offset="1" stop-color="#A5FECB"/>
</linearGradient>
<linearGradient id="paint7_linear_1768_6557" x1="-21.784" y1="38.5438" x2="21.0601" y2="38.5438" gradientUnits="userSpaceOnUse">
<stop stop-color="#5433FF"/>
<stop offset="0.5" stop-color="#20BDFF"/>
<stop offset="1" stop-color="#A5FECB"/>
</linearGradient>
<linearGradient id="paint8_linear_1768_6557" x1="-21.0656" y1="59.7127" x2="20.579" y2="59.7127" gradientUnits="userSpaceOnUse">
<stop stop-color="#5433FF"/>
<stop offset="0.5" stop-color="#20BDFF"/>
<stop offset="1" stop-color="#A5FECB"/>
</linearGradient>
<linearGradient id="paint9_linear_1768_6557" x1="-5.79971" y1="39.1776" x2="37.098" y2="39.1776" gradientUnits="userSpaceOnUse">
<stop stop-color="#5433FF"/>
<stop offset="0.5" stop-color="#20BDFF"/>
<stop offset="1" stop-color="#A5FECB"/>
</linearGradient>
<linearGradient id="paint10_linear_1768_6557" x1="-3.6348" y1="36.4839" x2="13.0524" y2="36.4839" gradientUnits="userSpaceOnUse">
<stop stop-color="#5433FF"/>
<stop offset="0.5" stop-color="#20BDFF"/>
<stop offset="1" stop-color="#A5FECB"/>
</linearGradient>
<linearGradient id="paint11_linear_1768_6557" x1="3.87671" y1="37.1792" x2="44.3511" y2="37.1792" gradientUnits="userSpaceOnUse">
<stop stop-color="#5433FF"/>
<stop offset="0.5" stop-color="#20BDFF"/>
<stop offset="1" stop-color="#A5FECB"/>
</linearGradient>
<clipPath id="clip0_1768_6557">
<rect x="0.466675" width="16" height="16" rx="4" fill="white"/>
</clipPath>
</defs>
</svg>
