<svg width="17" height="16" viewBox="0 0 17 16" fill="none" xmlns="http://www.w3.org/2000/svg">
<g clip-path="url(#clip0_1768_6575)">
<rect x="0.466675" width="16" height="16" rx="4" fill="white" fill-opacity="0.08"/>
<path d="M2.7334 3.69368V7.25961V7.1199C2.76001 10.1669 5.31471 12.7682 8.47482 12.7682C11.6349 12.7682 14.1896 10.3066 14.2162 7.25961V3.69368C14.2162 3.69368 13.4179 3.30781 12.5131 4.23256C11.9343 4.82466 11.4686 6.96689 10.2245 6.98019C8.56131 7.0068 7.43032 4.79805 6.07979 3.9731C4.66273 3.10822 2.7334 3.69368 2.7334 3.69368Z" fill="url(#paint0_linear_1768_6575)"/>
<path d="M2.7334 3.69368V7.25961V7.1199C2.76001 10.1669 5.31471 12.7682 8.47482 12.7682C11.6349 12.7682 14.1896 10.3066 14.2162 7.25961V3.69368C14.2162 3.69368 13.4179 3.30781 12.5131 4.23256C11.9343 4.82466 11.4686 6.96689 10.2245 6.98019C8.56131 7.0068 7.43032 4.79805 6.07979 3.9731C4.66273 3.10822 2.7334 3.69368 2.7334 3.69368Z" fill="url(#paint1_linear_1768_6575)"/>
<path d="M14.2162 7.60557V5.1307C13.8902 5.18392 13.491 5.34359 13.0719 5.72946C12.4199 6.32821 11.901 8.4904 10.5039 8.51036C8.64108 8.53697 7.37039 6.3016 5.85353 5.46334C4.79573 4.8912 3.48511 4.95772 2.72668 5.07082V7.61222V7.4592C2.7533 10.7191 5.31465 13.5 8.46811 13.5C11.6282 13.5 14.1896 10.8655 14.2162 7.60557Z" fill="url(#paint2_linear_1768_6575)"/>
<path d="M14.2162 7.60557V5.1307C13.8902 5.18392 13.491 5.34359 13.0719 5.72946C12.4199 6.32821 11.901 8.4904 10.5039 8.51036C8.64108 8.53697 7.37039 6.3016 5.85353 5.46334C4.79573 4.8912 3.48511 4.95772 2.72668 5.07082V7.61222V7.4592C2.7533 10.7191 5.31465 13.5 8.46811 13.5C11.6282 13.5 14.1896 10.8655 14.2162 7.60557Z" fill="url(#paint3_linear_1768_6575)"/>
<path d="M14.2162 7.60556V7.04007C13.97 7.13321 13.6973 7.28623 13.4178 7.52573C12.7126 8.12449 12.1538 10.2867 10.6502 10.3066C8.64108 10.3332 7.27725 8.09788 5.64064 7.25961C4.69593 6.78726 3.55164 6.754 2.72668 6.82053V7.61222V7.4592C2.7533 10.7191 5.31465 13.5 8.46811 13.5C11.6282 13.5 14.1896 10.8655 14.2162 7.60556Z" fill="url(#paint4_linear_1768_6575)"/>
</g>
<defs>
<linearGradient id="paint0_linear_1768_6575" x1="1.84251" y1="10.5745" x2="16.518" y2="2.90072" gradientUnits="userSpaceOnUse">
<stop stop-color="#FDA9FF"/>
<stop offset="0.028" stop-color="#F9AAFF"/>
<stop offset="0.243" stop-color="#DCB3FF"/>
<stop offset="0.367" stop-color="#D1B6FF"/>
<stop offset="0.89" stop-color="#4DFFE5"/>
</linearGradient>
<linearGradient id="paint1_linear_1768_6575" x1="7.83076" y1="8.16953" x2="9.34316" y2="2.62416" gradientUnits="userSpaceOnUse">
<stop stop-color="#16183C" stop-opacity="0.3"/>
<stop offset="0.867" stop-color="#16183C" stop-opacity="0"/>
</linearGradient>
<linearGradient id="paint2_linear_1768_6575" x1="2.32911" y1="10.9915" x2="15.4923" y2="5.16603" gradientUnits="userSpaceOnUse">
<stop stop-color="#FDA9FF"/>
<stop offset="0.028" stop-color="#F9AAFF"/>
<stop offset="0.243" stop-color="#DCB3FF"/>
<stop offset="0.367" stop-color="#D1B6FF"/>
<stop offset="0.89" stop-color="#4DFFE5"/>
</linearGradient>
<linearGradient id="paint3_linear_1768_6575" x1="7.15437" y1="9.72617" x2="9.17085" y2="5.58116" gradientUnits="userSpaceOnUse">
<stop stop-color="#16183C" stop-opacity="0.3"/>
<stop offset="0.867" stop-color="#16183C" stop-opacity="0"/>
</linearGradient>
<linearGradient id="paint4_linear_1768_6575" x1="1.76475" y1="11.8291" x2="13.5836" y2="7.29195" gradientUnits="userSpaceOnUse">
<stop stop-color="#FDA9FF"/>
<stop offset="0.028" stop-color="#F9AAFF"/>
<stop offset="0.243" stop-color="#DCB3FF"/>
<stop offset="0.367" stop-color="#D1B6FF"/>
<stop offset="0.89" stop-color="#4DFFE5"/>
</linearGradient>
<clipPath id="clip0_1768_6575">
<rect x="0.466675" width="16" height="16" rx="4" fill="white"/>
</clipPath>
</defs>
</svg>
