<svg width="17" height="16" viewBox="0 0 17 16" fill="none" xmlns="http://www.w3.org/2000/svg">
<g clip-path="url(#clip0_2761_24137)">
<rect x="0.466675" width="16" height="16" rx="4" fill="white"/>
<path d="M5.22167 3.65879C3.85455 4.6594 2.96667 6.276 2.96667 8.09998C2.96667 11.1375 5.42911 13.6 8.46667 13.6C11.5042 13.6 13.9667 11.1375 13.9667 8.09998C13.9667 6.276 13.0788 4.6594 11.7117 3.65879V7.85248C11.7117 9.4472 10.4189 10.74 8.82417 10.74H8.10917C6.51445 10.74 5.22167 9.4472 5.22167 7.85248V3.65879Z" fill="#51698D"/>
<path d="M9.97917 2.81056V7.98998C9.97917 8.71899 9.38819 9.30998 8.65917 9.30998H8.27417C7.54516 9.30998 6.95417 8.71899 6.95417 7.98998V2.81056C7.43471 2.67341 7.94212 2.59998 8.46667 2.59998C8.99123 2.59998 9.49864 2.67341 9.97917 2.81056Z" fill="#51698D"/>
</g>
<defs>
<clipPath id="clip0_2761_24137">
<rect x="0.466675" width="16" height="16" rx="4" fill="white"/>
</clipPath>
</defs>
</svg>
