<svg width="16" height="16" viewBox="0 0 16 16" fill="none" xmlns="http://www.w3.org/2000/svg">
<g clip-path="url(#clip0_2761_24137)">
<rect width="16" height="16" rx="4" fill="white"/>
<path d="M4.755 3.65882C3.38788 4.65943 2.5 6.27603 2.5 8.10001C2.5 11.1376 4.96244 13.6 8 13.6C11.0376 13.6 13.5 11.1376 13.5 8.10001C13.5 6.27603 12.6121 4.65943 11.245 3.65882V7.85251C11.245 9.44723 9.95222 10.74 8.3575 10.74H7.6425C6.04778 10.74 4.755 9.44723 4.755 7.85251V3.65882Z" fill="#51698D"/>
<path d="M9.5125 2.81059V7.99001C9.5125 8.71902 8.92151 9.31001 8.1925 9.31001H7.8075C7.07849 9.31001 6.4875 8.71902 6.4875 7.99001V2.81059C6.96803 2.67344 7.47544 2.60001 8 2.60001C8.52456 2.60001 9.03196 2.67344 9.5125 2.81059Z" fill="#51698D"/>
</g>
<defs>
<clipPath id="clip0_2761_24137">
<rect width="16" height="16" rx="4" fill="white"/>
</clipPath>
</defs>
</svg>
