<svg width="16" height="16" viewBox="0 0 16 16" fill="none" xmlns="http://www.w3.org/2000/svg">
<g clip-path="url(#clip0_1768_6575)">
<rect width="16" height="16" rx="4" fill="white" fill-opacity="0.08"/>
<path d="M2.26672 3.69368V7.25961V7.1199C2.29334 10.1669 4.84804 12.7682 8.00815 12.7682C11.1683 12.7682 13.723 10.3066 13.7496 7.25961V3.69368C13.7496 3.69368 12.9512 3.30781 12.0464 4.23256C11.4676 4.82466 11.0019 6.96689 9.75785 6.98019C8.09464 7.0068 6.96365 4.79805 5.61312 3.9731C4.19606 3.10822 2.26672 3.69368 2.26672 3.69368Z" fill="url(#paint0_linear_1768_6575)"/>
<path d="M2.26672 3.69368V7.25961V7.1199C2.29334 10.1669 4.84804 12.7682 8.00815 12.7682C11.1683 12.7682 13.723 10.3066 13.7496 7.25961V3.69368C13.7496 3.69368 12.9512 3.30781 12.0464 4.23256C11.4676 4.82466 11.0019 6.96689 9.75785 6.98019C8.09464 7.0068 6.96365 4.79805 5.61312 3.9731C4.19606 3.10822 2.26672 3.69368 2.26672 3.69368Z" fill="url(#paint1_linear_1768_6575)"/>
<path d="M13.7495 7.60557V5.1307C13.4235 5.18392 13.0244 5.34359 12.6052 5.72946C11.9532 6.32821 11.4343 8.4904 10.0372 8.51036C8.17441 8.53697 6.90371 6.3016 5.38686 5.46334C4.32905 4.8912 3.01844 4.95772 2.26001 5.07082V7.61222V7.4592C2.28662 10.7191 4.84798 13.5 8.00143 13.5C11.1615 13.5 13.7229 10.8655 13.7495 7.60557Z" fill="url(#paint2_linear_1768_6575)"/>
<path d="M13.7495 7.60557V5.1307C13.4235 5.18392 13.0244 5.34359 12.6052 5.72946C11.9532 6.32821 11.4343 8.4904 10.0372 8.51036C8.17441 8.53697 6.90371 6.3016 5.38686 5.46334C4.32905 4.8912 3.01844 4.95772 2.26001 5.07082V7.61222V7.4592C2.28662 10.7191 4.84798 13.5 8.00143 13.5C11.1615 13.5 13.7229 10.8655 13.7495 7.60557Z" fill="url(#paint3_linear_1768_6575)"/>
<path d="M13.7495 7.60556V7.04007C13.5034 7.13321 13.2306 7.28623 12.9512 7.52573C12.246 8.12449 11.6871 10.2867 10.1836 10.3066C8.17441 10.3332 6.81057 8.09788 5.17397 7.25961C4.22926 6.78726 3.08497 6.754 2.26001 6.82053V7.61222V7.4592C2.28662 10.7191 4.84798 13.5 8.00143 13.5C11.1615 13.5 13.7229 10.8655 13.7495 7.60556Z" fill="url(#paint4_linear_1768_6575)"/>
</g>
<defs>
<linearGradient id="paint0_linear_1768_6575" x1="1.37584" y1="10.5745" x2="16.0513" y2="2.90072" gradientUnits="userSpaceOnUse">
<stop stop-color="#FDA9FF"/>
<stop offset="0.028" stop-color="#F9AAFF"/>
<stop offset="0.243" stop-color="#DCB3FF"/>
<stop offset="0.367" stop-color="#D1B6FF"/>
<stop offset="0.89" stop-color="#4DFFE5"/>
</linearGradient>
<linearGradient id="paint1_linear_1768_6575" x1="7.36408" y1="8.16953" x2="8.87648" y2="2.62416" gradientUnits="userSpaceOnUse">
<stop stop-color="#16183C" stop-opacity="0.3"/>
<stop offset="0.867" stop-color="#16183C" stop-opacity="0"/>
</linearGradient>
<linearGradient id="paint2_linear_1768_6575" x1="1.86243" y1="10.9915" x2="15.0256" y2="5.16603" gradientUnits="userSpaceOnUse">
<stop stop-color="#FDA9FF"/>
<stop offset="0.028" stop-color="#F9AAFF"/>
<stop offset="0.243" stop-color="#DCB3FF"/>
<stop offset="0.367" stop-color="#D1B6FF"/>
<stop offset="0.89" stop-color="#4DFFE5"/>
</linearGradient>
<linearGradient id="paint3_linear_1768_6575" x1="6.68769" y1="9.72617" x2="8.70418" y2="5.58116" gradientUnits="userSpaceOnUse">
<stop stop-color="#16183C" stop-opacity="0.3"/>
<stop offset="0.867" stop-color="#16183C" stop-opacity="0"/>
</linearGradient>
<linearGradient id="paint4_linear_1768_6575" x1="1.29807" y1="11.8291" x2="13.1169" y2="7.29195" gradientUnits="userSpaceOnUse">
<stop stop-color="#FDA9FF"/>
<stop offset="0.028" stop-color="#F9AAFF"/>
<stop offset="0.243" stop-color="#DCB3FF"/>
<stop offset="0.367" stop-color="#D1B6FF"/>
<stop offset="0.89" stop-color="#4DFFE5"/>
</linearGradient>
<clipPath id="clip0_1768_6575">
<rect width="16" height="16" rx="4" fill="white"/>
</clipPath>
</defs>
</svg>
