<svg width="17" height="16" viewBox="0 0 17 16" fill="none" xmlns="http://www.w3.org/2000/svg">
<g clip-path="url(#clip0_1326_142987)">
<rect x="0.533203" width="16" height="16" rx="4" fill="#FFAEEE"/>
<path d="M10.3662 4.33351V2.5H6.69916V4.33351H3.0332V8.00055L6.69916 11.6675V11.6569V13.5H10.3662V11.6665H14.0332V7.99945L10.3662 4.33244V4.33351ZM10.3662 9.26199C10.3662 9.57791 10.1101 9.83403 9.79413 9.83403H7.35338C6.99265 9.83297 6.69916 9.53949 6.69916 9.17876V6.83297C6.69916 6.46587 6.99691 6.16703 7.36511 6.16703H9.73972C10.0855 6.16703 10.3662 6.44772 10.3662 6.79348V9.26199Z" fill="black"/>
</g>
<defs>
<clipPath id="clip0_1326_142987">
<path d="M0.533203 8C0.533203 4.22876 0.533203 2.34315 1.70478 1.17157C2.87635 0 4.76197 0 8.5332 0C12.3044 0 14.1901 0 15.3616 1.17157C16.5332 2.34315 16.5332 4.22876 16.5332 8C16.5332 11.7712 16.5332 13.6569 15.3616 14.8284C14.1901 16 12.3044 16 8.5332 16C4.76197 16 2.87635 16 1.70478 14.8284C0.533203 13.6569 0.533203 11.7712 0.533203 8Z" fill="white"/>
</clipPath>
</defs>
</svg>
