<?xml version="1.0" encoding="UTF-8" standalone="no"?>
<svg
   width="16"
   height="16"
   viewBox="0 0 16 16"
   fill="none"
   version="1.1"
   id="svg2"
   sodipodi:docname="warden.svg"
   inkscape:version="1.3.2 (091e20ef0f, 2023-11-25)"
   xmlns:inkscape="http://www.inkscape.org/namespaces/inkscape"
   xmlns:sodipodi="http://sodipodi.sourceforge.net/DTD/sodipodi-0.dtd"
   xmlns="http://www.w3.org/2000/svg"
   xmlns:svg="http://www.w3.org/2000/svg">
  <sodipodi:namedview
     id="namedview2"
     pagecolor="#ffffff"
     bordercolor="#000000"
     borderopacity="0.25"
     inkscape:showpageshadow="2"
     inkscape:pageopacity="0.0"
     inkscape:pagecheckerboard="0"
     inkscape:deskcolor="#d1d1d1"
     inkscape:zoom="50.8125"
     inkscape:cx="8.501845"
     inkscape:cy="8"
     inkscape:window-width="1920"
     inkscape:window-height="1011"
     inkscape:window-x="0"
     inkscape:window-y="32"
     inkscape:window-maximized="1"
     inkscape:current-layer="svg2" />
  <g
     clip-path="url(#clip0_1326_142987)"
     id="g1"
     transform="translate(-0.51508086,0.01122206)">
    <rect
       x="0.53320301"
       width="16"
       height="16"
       rx="4"
       fill="#ffaeee"
       id="rect1"
       y="0" />
    <path
       d="M 10.3662,4.33351 V 2.5 H 6.69916 V 4.33351 H 3.0332 V 8.00055 L 6.69916,11.6675 V 11.6569 13.5 h 3.66704 v -1.8335 h 3.667 V 7.99945 l -3.667,-3.66701 z m 0,4.92848 c 0,0.31592 -0.2561,0.57204 -0.57207,0.57204 H 7.35338 C 6.99265,9.83297 6.69916,9.53949 6.69916,9.17876 V 6.83297 c 0,-0.3671 0.29775,-0.66594 0.66595,-0.66594 h 2.37461 c 0.34578,0 0.62648,0.28069 0.62648,0.62645 z"
       fill="#000000"
       id="path1" />
  </g>
  <defs
     id="defs2">
    <clipPath
       id="clip0_1326_142987">
      <path
         d="m 0.533203,8 c 0,-3.77124 0,-5.65685 1.171577,-6.82843 C 2.87635,0 4.76197,0 8.5332,0 c 3.7712,0 5.6569,0 6.8284,1.17157 1.1716,1.17158 1.1716,3.05719 1.1716,6.82843 0,3.7712 0,5.6569 -1.1716,6.8284 C 14.1901,16 12.3044,16 8.5332,16 4.76197,16 2.87635,16 1.70478,14.8284 0.533203,13.6569 0.533203,11.7712 0.533203,8 Z"
         fill="#ffffff"
         id="path2" />
    </clipPath>
  </defs>
</svg>
