<svg width="16" height="16" viewBox="0 0 16 16" fill="none" xmlns="http://www.w3.org/2000/svg">
<g clip-path="url(#clip0_1775_6061)">
<rect width="16" height="16" rx="4" fill="white" fill-opacity="0.08"/>
<path d="M7.0772 8.65485C6.37604 7.83684 6.07838 7.10923 6.07838 6.38823C6.07838 5.96269 6.12248 5.6959 6.18201 5.44895C5.83805 6.17656 5.72119 6.72117 5.72119 7.2327C5.72119 9.94912 8.21271 10.2997 8.21271 12.2224C8.21271 12.6876 7.96576 13.3182 7.13452 14.5C9.63927 11.1574 10.2787 9.95353 10.2787 9.11788C10.2787 6.7829 7.79819 6.39043 7.79819 3.76221C7.79819 3.16248 8.14215 2.44149 8.78157 1.5C8.78157 1.5 8.17082 2.3577 7.84229 2.81632C6.66929 4.44793 6.21509 6.56683 7.0772 8.65485Z" fill="white"/>
</g>
<defs>
<clipPath id="clip0_1775_6061">
<rect width="16" height="16" rx="4" fill="white"/>
</clipPath>
</defs>
</svg>